G04 #@! TF.GenerationSoftware,KiCad,Pcbnew,(5.1.4-0)*
G04 #@! TF.CreationDate,2020-04-06T12:50:51+01:00*
G04 #@! TF.ProjectId,Simple_VFO,53696d70-6c65-45f5-9646-4f2e6b696361,rev?*
G04 #@! TF.SameCoordinates,Original*
G04 #@! TF.FileFunction,Copper,L2,Bot*
G04 #@! TF.FilePolarity,Positive*
%FSLAX46Y46*%
G04 Gerber Fmt 4.6, Leading zero omitted, Abs format (unit mm)*
G04 Created by KiCad (PCBNEW (5.1.4-0)) date 2020-04-06 12:50:51*
%MOMM*%
%LPD*%
G04 APERTURE LIST*
%ADD10C,1.524000*%
%ADD11C,4.000000*%
%ADD12O,1.700000X1.700000*%
%ADD13R,1.700000X1.700000*%
%ADD14C,0.100000*%
%ADD15C,0.950000*%
%ADD16C,1.350000*%
%ADD17C,3.000000*%
%ADD18R,1.600000X1.600000*%
%ADD19C,1.600000*%
%ADD20R,1.100000X4.600000*%
%ADD21R,10.800000X9.400000*%
%ADD22C,0.800000*%
%ADD23C,0.250000*%
%ADD24C,1.500000*%
%ADD25C,1.200000*%
%ADD26C,0.600000*%
%ADD27C,0.750000*%
%ADD28C,0.254000*%
G04 APERTURE END LIST*
D10*
X86220000Y-136490000D03*
X88760000Y-136490000D03*
X91300000Y-136490000D03*
X93840000Y-136490000D03*
X96380000Y-136490000D03*
X98920000Y-136490000D03*
X101460000Y-136490000D03*
X104000000Y-136490000D03*
X106540000Y-136490000D03*
X109080000Y-136490000D03*
X111620000Y-136490000D03*
X114160000Y-136490000D03*
X116700000Y-136490000D03*
X119240000Y-136490000D03*
X119240000Y-133950000D03*
X119240000Y-131410000D03*
X119240000Y-128870000D03*
X119240000Y-126330000D03*
X119240000Y-123790000D03*
X119240000Y-121250000D03*
X116700000Y-121250000D03*
X114160000Y-121250000D03*
X111620000Y-121250000D03*
X109080000Y-121250000D03*
X106540000Y-121250000D03*
X104000000Y-121250000D03*
X101460000Y-121250000D03*
X98920000Y-121250000D03*
X96380000Y-121250000D03*
X93840000Y-121250000D03*
X91300000Y-121250000D03*
X88760000Y-121250000D03*
X86220000Y-121250000D03*
X88760000Y-123790000D03*
X93840000Y-123790000D03*
X96380000Y-123790000D03*
X98920000Y-123790000D03*
D11*
X61722000Y-118364000D03*
X36322000Y-118364000D03*
D10*
X56642000Y-118364000D03*
X54102000Y-118364000D03*
X51562000Y-118364000D03*
X49022000Y-118364000D03*
X46482000Y-118364000D03*
X43942000Y-118364000D03*
X41402000Y-118364000D03*
D12*
X93218000Y-112141000D03*
X93218000Y-114681000D03*
X90678000Y-112141000D03*
X90678000Y-114681000D03*
X88138000Y-112141000D03*
X88138000Y-114681000D03*
X85598000Y-112141000D03*
X85598000Y-114681000D03*
X83058000Y-112141000D03*
X83058000Y-114681000D03*
X80518000Y-112141000D03*
X80518000Y-114681000D03*
X77978000Y-112141000D03*
X77978000Y-114681000D03*
X75438000Y-112141000D03*
X75438000Y-114681000D03*
X72898000Y-112141000D03*
X72898000Y-114681000D03*
X70358000Y-112141000D03*
D13*
X70358000Y-114681000D03*
D14*
G36*
X99060779Y-132776144D02*
G01*
X99083834Y-132779563D01*
X99106443Y-132785227D01*
X99128387Y-132793079D01*
X99149457Y-132803044D01*
X99169448Y-132815026D01*
X99188168Y-132828910D01*
X99205438Y-132844562D01*
X99221090Y-132861832D01*
X99234974Y-132880552D01*
X99246956Y-132900543D01*
X99256921Y-132921613D01*
X99264773Y-132943557D01*
X99270437Y-132966166D01*
X99273856Y-132989221D01*
X99275000Y-133012500D01*
X99275000Y-133487500D01*
X99273856Y-133510779D01*
X99270437Y-133533834D01*
X99264773Y-133556443D01*
X99256921Y-133578387D01*
X99246956Y-133599457D01*
X99234974Y-133619448D01*
X99221090Y-133638168D01*
X99205438Y-133655438D01*
X99188168Y-133671090D01*
X99169448Y-133684974D01*
X99149457Y-133696956D01*
X99128387Y-133706921D01*
X99106443Y-133714773D01*
X99083834Y-133720437D01*
X99060779Y-133723856D01*
X99037500Y-133725000D01*
X98462500Y-133725000D01*
X98439221Y-133723856D01*
X98416166Y-133720437D01*
X98393557Y-133714773D01*
X98371613Y-133706921D01*
X98350543Y-133696956D01*
X98330552Y-133684974D01*
X98311832Y-133671090D01*
X98294562Y-133655438D01*
X98278910Y-133638168D01*
X98265026Y-133619448D01*
X98253044Y-133599457D01*
X98243079Y-133578387D01*
X98235227Y-133556443D01*
X98229563Y-133533834D01*
X98226144Y-133510779D01*
X98225000Y-133487500D01*
X98225000Y-133012500D01*
X98226144Y-132989221D01*
X98229563Y-132966166D01*
X98235227Y-132943557D01*
X98243079Y-132921613D01*
X98253044Y-132900543D01*
X98265026Y-132880552D01*
X98278910Y-132861832D01*
X98294562Y-132844562D01*
X98311832Y-132828910D01*
X98330552Y-132815026D01*
X98350543Y-132803044D01*
X98371613Y-132793079D01*
X98393557Y-132785227D01*
X98416166Y-132779563D01*
X98439221Y-132776144D01*
X98462500Y-132775000D01*
X99037500Y-132775000D01*
X99060779Y-132776144D01*
X99060779Y-132776144D01*
G37*
D15*
X98750000Y-133250000D03*
D14*
G36*
X100810779Y-132776144D02*
G01*
X100833834Y-132779563D01*
X100856443Y-132785227D01*
X100878387Y-132793079D01*
X100899457Y-132803044D01*
X100919448Y-132815026D01*
X100938168Y-132828910D01*
X100955438Y-132844562D01*
X100971090Y-132861832D01*
X100984974Y-132880552D01*
X100996956Y-132900543D01*
X101006921Y-132921613D01*
X101014773Y-132943557D01*
X101020437Y-132966166D01*
X101023856Y-132989221D01*
X101025000Y-133012500D01*
X101025000Y-133487500D01*
X101023856Y-133510779D01*
X101020437Y-133533834D01*
X101014773Y-133556443D01*
X101006921Y-133578387D01*
X100996956Y-133599457D01*
X100984974Y-133619448D01*
X100971090Y-133638168D01*
X100955438Y-133655438D01*
X100938168Y-133671090D01*
X100919448Y-133684974D01*
X100899457Y-133696956D01*
X100878387Y-133706921D01*
X100856443Y-133714773D01*
X100833834Y-133720437D01*
X100810779Y-133723856D01*
X100787500Y-133725000D01*
X100212500Y-133725000D01*
X100189221Y-133723856D01*
X100166166Y-133720437D01*
X100143557Y-133714773D01*
X100121613Y-133706921D01*
X100100543Y-133696956D01*
X100080552Y-133684974D01*
X100061832Y-133671090D01*
X100044562Y-133655438D01*
X100028910Y-133638168D01*
X100015026Y-133619448D01*
X100003044Y-133599457D01*
X99993079Y-133578387D01*
X99985227Y-133556443D01*
X99979563Y-133533834D01*
X99976144Y-133510779D01*
X99975000Y-133487500D01*
X99975000Y-133012500D01*
X99976144Y-132989221D01*
X99979563Y-132966166D01*
X99985227Y-132943557D01*
X99993079Y-132921613D01*
X100003044Y-132900543D01*
X100015026Y-132880552D01*
X100028910Y-132861832D01*
X100044562Y-132844562D01*
X100061832Y-132828910D01*
X100080552Y-132815026D01*
X100100543Y-132803044D01*
X100121613Y-132793079D01*
X100143557Y-132785227D01*
X100166166Y-132779563D01*
X100189221Y-132776144D01*
X100212500Y-132775000D01*
X100787500Y-132775000D01*
X100810779Y-132776144D01*
X100810779Y-132776144D01*
G37*
D15*
X100500000Y-133250000D03*
D14*
G36*
X94810779Y-138526144D02*
G01*
X94833834Y-138529563D01*
X94856443Y-138535227D01*
X94878387Y-138543079D01*
X94899457Y-138553044D01*
X94919448Y-138565026D01*
X94938168Y-138578910D01*
X94955438Y-138594562D01*
X94971090Y-138611832D01*
X94984974Y-138630552D01*
X94996956Y-138650543D01*
X95006921Y-138671613D01*
X95014773Y-138693557D01*
X95020437Y-138716166D01*
X95023856Y-138739221D01*
X95025000Y-138762500D01*
X95025000Y-139237500D01*
X95023856Y-139260779D01*
X95020437Y-139283834D01*
X95014773Y-139306443D01*
X95006921Y-139328387D01*
X94996956Y-139349457D01*
X94984974Y-139369448D01*
X94971090Y-139388168D01*
X94955438Y-139405438D01*
X94938168Y-139421090D01*
X94919448Y-139434974D01*
X94899457Y-139446956D01*
X94878387Y-139456921D01*
X94856443Y-139464773D01*
X94833834Y-139470437D01*
X94810779Y-139473856D01*
X94787500Y-139475000D01*
X94212500Y-139475000D01*
X94189221Y-139473856D01*
X94166166Y-139470437D01*
X94143557Y-139464773D01*
X94121613Y-139456921D01*
X94100543Y-139446956D01*
X94080552Y-139434974D01*
X94061832Y-139421090D01*
X94044562Y-139405438D01*
X94028910Y-139388168D01*
X94015026Y-139369448D01*
X94003044Y-139349457D01*
X93993079Y-139328387D01*
X93985227Y-139306443D01*
X93979563Y-139283834D01*
X93976144Y-139260779D01*
X93975000Y-139237500D01*
X93975000Y-138762500D01*
X93976144Y-138739221D01*
X93979563Y-138716166D01*
X93985227Y-138693557D01*
X93993079Y-138671613D01*
X94003044Y-138650543D01*
X94015026Y-138630552D01*
X94028910Y-138611832D01*
X94044562Y-138594562D01*
X94061832Y-138578910D01*
X94080552Y-138565026D01*
X94100543Y-138553044D01*
X94121613Y-138543079D01*
X94143557Y-138535227D01*
X94166166Y-138529563D01*
X94189221Y-138526144D01*
X94212500Y-138525000D01*
X94787500Y-138525000D01*
X94810779Y-138526144D01*
X94810779Y-138526144D01*
G37*
D15*
X94500000Y-139000000D03*
D14*
G36*
X96560779Y-138526144D02*
G01*
X96583834Y-138529563D01*
X96606443Y-138535227D01*
X96628387Y-138543079D01*
X96649457Y-138553044D01*
X96669448Y-138565026D01*
X96688168Y-138578910D01*
X96705438Y-138594562D01*
X96721090Y-138611832D01*
X96734974Y-138630552D01*
X96746956Y-138650543D01*
X96756921Y-138671613D01*
X96764773Y-138693557D01*
X96770437Y-138716166D01*
X96773856Y-138739221D01*
X96775000Y-138762500D01*
X96775000Y-139237500D01*
X96773856Y-139260779D01*
X96770437Y-139283834D01*
X96764773Y-139306443D01*
X96756921Y-139328387D01*
X96746956Y-139349457D01*
X96734974Y-139369448D01*
X96721090Y-139388168D01*
X96705438Y-139405438D01*
X96688168Y-139421090D01*
X96669448Y-139434974D01*
X96649457Y-139446956D01*
X96628387Y-139456921D01*
X96606443Y-139464773D01*
X96583834Y-139470437D01*
X96560779Y-139473856D01*
X96537500Y-139475000D01*
X95962500Y-139475000D01*
X95939221Y-139473856D01*
X95916166Y-139470437D01*
X95893557Y-139464773D01*
X95871613Y-139456921D01*
X95850543Y-139446956D01*
X95830552Y-139434974D01*
X95811832Y-139421090D01*
X95794562Y-139405438D01*
X95778910Y-139388168D01*
X95765026Y-139369448D01*
X95753044Y-139349457D01*
X95743079Y-139328387D01*
X95735227Y-139306443D01*
X95729563Y-139283834D01*
X95726144Y-139260779D01*
X95725000Y-139237500D01*
X95725000Y-138762500D01*
X95726144Y-138739221D01*
X95729563Y-138716166D01*
X95735227Y-138693557D01*
X95743079Y-138671613D01*
X95753044Y-138650543D01*
X95765026Y-138630552D01*
X95778910Y-138611832D01*
X95794562Y-138594562D01*
X95811832Y-138578910D01*
X95830552Y-138565026D01*
X95850543Y-138553044D01*
X95871613Y-138543079D01*
X95893557Y-138535227D01*
X95916166Y-138529563D01*
X95939221Y-138526144D01*
X95962500Y-138525000D01*
X96537500Y-138525000D01*
X96560779Y-138526144D01*
X96560779Y-138526144D01*
G37*
D15*
X96250000Y-139000000D03*
D14*
G36*
X77632005Y-120134204D02*
G01*
X77656273Y-120137804D01*
X77680072Y-120143765D01*
X77703171Y-120152030D01*
X77725350Y-120162520D01*
X77746393Y-120175132D01*
X77766099Y-120189747D01*
X77784277Y-120206223D01*
X77800753Y-120224401D01*
X77815368Y-120244107D01*
X77827980Y-120265150D01*
X77838470Y-120287329D01*
X77846735Y-120310428D01*
X77852696Y-120334227D01*
X77856296Y-120358495D01*
X77857500Y-120382999D01*
X77857500Y-121233001D01*
X77856296Y-121257505D01*
X77852696Y-121281773D01*
X77846735Y-121305572D01*
X77838470Y-121328671D01*
X77827980Y-121350850D01*
X77815368Y-121371893D01*
X77800753Y-121391599D01*
X77784277Y-121409777D01*
X77766099Y-121426253D01*
X77746393Y-121440868D01*
X77725350Y-121453480D01*
X77703171Y-121463970D01*
X77680072Y-121472235D01*
X77656273Y-121478196D01*
X77632005Y-121481796D01*
X77607501Y-121483000D01*
X76532499Y-121483000D01*
X76507995Y-121481796D01*
X76483727Y-121478196D01*
X76459928Y-121472235D01*
X76436829Y-121463970D01*
X76414650Y-121453480D01*
X76393607Y-121440868D01*
X76373901Y-121426253D01*
X76355723Y-121409777D01*
X76339247Y-121391599D01*
X76324632Y-121371893D01*
X76312020Y-121350850D01*
X76301530Y-121328671D01*
X76293265Y-121305572D01*
X76287304Y-121281773D01*
X76283704Y-121257505D01*
X76282500Y-121233001D01*
X76282500Y-120382999D01*
X76283704Y-120358495D01*
X76287304Y-120334227D01*
X76293265Y-120310428D01*
X76301530Y-120287329D01*
X76312020Y-120265150D01*
X76324632Y-120244107D01*
X76339247Y-120224401D01*
X76355723Y-120206223D01*
X76373901Y-120189747D01*
X76393607Y-120175132D01*
X76414650Y-120162520D01*
X76436829Y-120152030D01*
X76459928Y-120143765D01*
X76483727Y-120137804D01*
X76507995Y-120134204D01*
X76532499Y-120133000D01*
X77607501Y-120133000D01*
X77632005Y-120134204D01*
X77632005Y-120134204D01*
G37*
D16*
X77070000Y-120808000D03*
D14*
G36*
X74757005Y-120134204D02*
G01*
X74781273Y-120137804D01*
X74805072Y-120143765D01*
X74828171Y-120152030D01*
X74850350Y-120162520D01*
X74871393Y-120175132D01*
X74891099Y-120189747D01*
X74909277Y-120206223D01*
X74925753Y-120224401D01*
X74940368Y-120244107D01*
X74952980Y-120265150D01*
X74963470Y-120287329D01*
X74971735Y-120310428D01*
X74977696Y-120334227D01*
X74981296Y-120358495D01*
X74982500Y-120382999D01*
X74982500Y-121233001D01*
X74981296Y-121257505D01*
X74977696Y-121281773D01*
X74971735Y-121305572D01*
X74963470Y-121328671D01*
X74952980Y-121350850D01*
X74940368Y-121371893D01*
X74925753Y-121391599D01*
X74909277Y-121409777D01*
X74891099Y-121426253D01*
X74871393Y-121440868D01*
X74850350Y-121453480D01*
X74828171Y-121463970D01*
X74805072Y-121472235D01*
X74781273Y-121478196D01*
X74757005Y-121481796D01*
X74732501Y-121483000D01*
X73657499Y-121483000D01*
X73632995Y-121481796D01*
X73608727Y-121478196D01*
X73584928Y-121472235D01*
X73561829Y-121463970D01*
X73539650Y-121453480D01*
X73518607Y-121440868D01*
X73498901Y-121426253D01*
X73480723Y-121409777D01*
X73464247Y-121391599D01*
X73449632Y-121371893D01*
X73437020Y-121350850D01*
X73426530Y-121328671D01*
X73418265Y-121305572D01*
X73412304Y-121281773D01*
X73408704Y-121257505D01*
X73407500Y-121233001D01*
X73407500Y-120382999D01*
X73408704Y-120358495D01*
X73412304Y-120334227D01*
X73418265Y-120310428D01*
X73426530Y-120287329D01*
X73437020Y-120265150D01*
X73449632Y-120244107D01*
X73464247Y-120224401D01*
X73480723Y-120206223D01*
X73498901Y-120189747D01*
X73518607Y-120175132D01*
X73539650Y-120162520D01*
X73561829Y-120152030D01*
X73584928Y-120143765D01*
X73608727Y-120137804D01*
X73632995Y-120134204D01*
X73657499Y-120133000D01*
X74732501Y-120133000D01*
X74757005Y-120134204D01*
X74757005Y-120134204D01*
G37*
D16*
X74195000Y-120808000D03*
D14*
G36*
X80519505Y-132146704D02*
G01*
X80543773Y-132150304D01*
X80567572Y-132156265D01*
X80590671Y-132164530D01*
X80612850Y-132175020D01*
X80633893Y-132187632D01*
X80653599Y-132202247D01*
X80671777Y-132218723D01*
X80688253Y-132236901D01*
X80702868Y-132256607D01*
X80715480Y-132277650D01*
X80725970Y-132299829D01*
X80734235Y-132322928D01*
X80740196Y-132346727D01*
X80743796Y-132370995D01*
X80745000Y-132395499D01*
X80745000Y-133470501D01*
X80743796Y-133495005D01*
X80740196Y-133519273D01*
X80734235Y-133543072D01*
X80725970Y-133566171D01*
X80715480Y-133588350D01*
X80702868Y-133609393D01*
X80688253Y-133629099D01*
X80671777Y-133647277D01*
X80653599Y-133663753D01*
X80633893Y-133678368D01*
X80612850Y-133690980D01*
X80590671Y-133701470D01*
X80567572Y-133709735D01*
X80543773Y-133715696D01*
X80519505Y-133719296D01*
X80495001Y-133720500D01*
X79644999Y-133720500D01*
X79620495Y-133719296D01*
X79596227Y-133715696D01*
X79572428Y-133709735D01*
X79549329Y-133701470D01*
X79527150Y-133690980D01*
X79506107Y-133678368D01*
X79486401Y-133663753D01*
X79468223Y-133647277D01*
X79451747Y-133629099D01*
X79437132Y-133609393D01*
X79424520Y-133588350D01*
X79414030Y-133566171D01*
X79405765Y-133543072D01*
X79399804Y-133519273D01*
X79396204Y-133495005D01*
X79395000Y-133470501D01*
X79395000Y-132395499D01*
X79396204Y-132370995D01*
X79399804Y-132346727D01*
X79405765Y-132322928D01*
X79414030Y-132299829D01*
X79424520Y-132277650D01*
X79437132Y-132256607D01*
X79451747Y-132236901D01*
X79468223Y-132218723D01*
X79486401Y-132202247D01*
X79506107Y-132187632D01*
X79527150Y-132175020D01*
X79549329Y-132164530D01*
X79572428Y-132156265D01*
X79596227Y-132150304D01*
X79620495Y-132146704D01*
X79644999Y-132145500D01*
X80495001Y-132145500D01*
X80519505Y-132146704D01*
X80519505Y-132146704D01*
G37*
D16*
X80070000Y-132933000D03*
D14*
G36*
X80519505Y-135021704D02*
G01*
X80543773Y-135025304D01*
X80567572Y-135031265D01*
X80590671Y-135039530D01*
X80612850Y-135050020D01*
X80633893Y-135062632D01*
X80653599Y-135077247D01*
X80671777Y-135093723D01*
X80688253Y-135111901D01*
X80702868Y-135131607D01*
X80715480Y-135152650D01*
X80725970Y-135174829D01*
X80734235Y-135197928D01*
X80740196Y-135221727D01*
X80743796Y-135245995D01*
X80745000Y-135270499D01*
X80745000Y-136345501D01*
X80743796Y-136370005D01*
X80740196Y-136394273D01*
X80734235Y-136418072D01*
X80725970Y-136441171D01*
X80715480Y-136463350D01*
X80702868Y-136484393D01*
X80688253Y-136504099D01*
X80671777Y-136522277D01*
X80653599Y-136538753D01*
X80633893Y-136553368D01*
X80612850Y-136565980D01*
X80590671Y-136576470D01*
X80567572Y-136584735D01*
X80543773Y-136590696D01*
X80519505Y-136594296D01*
X80495001Y-136595500D01*
X79644999Y-136595500D01*
X79620495Y-136594296D01*
X79596227Y-136590696D01*
X79572428Y-136584735D01*
X79549329Y-136576470D01*
X79527150Y-136565980D01*
X79506107Y-136553368D01*
X79486401Y-136538753D01*
X79468223Y-136522277D01*
X79451747Y-136504099D01*
X79437132Y-136484393D01*
X79424520Y-136463350D01*
X79414030Y-136441171D01*
X79405765Y-136418072D01*
X79399804Y-136394273D01*
X79396204Y-136370005D01*
X79395000Y-136345501D01*
X79395000Y-135270499D01*
X79396204Y-135245995D01*
X79399804Y-135221727D01*
X79405765Y-135197928D01*
X79414030Y-135174829D01*
X79424520Y-135152650D01*
X79437132Y-135131607D01*
X79451747Y-135111901D01*
X79468223Y-135093723D01*
X79486401Y-135077247D01*
X79506107Y-135062632D01*
X79527150Y-135050020D01*
X79549329Y-135039530D01*
X79572428Y-135031265D01*
X79596227Y-135025304D01*
X79620495Y-135021704D01*
X79644999Y-135020500D01*
X80495001Y-135020500D01*
X80519505Y-135021704D01*
X80519505Y-135021704D01*
G37*
D16*
X80070000Y-135808000D03*
D14*
G36*
X82580779Y-133784144D02*
G01*
X82603834Y-133787563D01*
X82626443Y-133793227D01*
X82648387Y-133801079D01*
X82669457Y-133811044D01*
X82689448Y-133823026D01*
X82708168Y-133836910D01*
X82725438Y-133852562D01*
X82741090Y-133869832D01*
X82754974Y-133888552D01*
X82766956Y-133908543D01*
X82776921Y-133929613D01*
X82784773Y-133951557D01*
X82790437Y-133974166D01*
X82793856Y-133997221D01*
X82795000Y-134020500D01*
X82795000Y-134595500D01*
X82793856Y-134618779D01*
X82790437Y-134641834D01*
X82784773Y-134664443D01*
X82776921Y-134686387D01*
X82766956Y-134707457D01*
X82754974Y-134727448D01*
X82741090Y-134746168D01*
X82725438Y-134763438D01*
X82708168Y-134779090D01*
X82689448Y-134792974D01*
X82669457Y-134804956D01*
X82648387Y-134814921D01*
X82626443Y-134822773D01*
X82603834Y-134828437D01*
X82580779Y-134831856D01*
X82557500Y-134833000D01*
X82082500Y-134833000D01*
X82059221Y-134831856D01*
X82036166Y-134828437D01*
X82013557Y-134822773D01*
X81991613Y-134814921D01*
X81970543Y-134804956D01*
X81950552Y-134792974D01*
X81931832Y-134779090D01*
X81914562Y-134763438D01*
X81898910Y-134746168D01*
X81885026Y-134727448D01*
X81873044Y-134707457D01*
X81863079Y-134686387D01*
X81855227Y-134664443D01*
X81849563Y-134641834D01*
X81846144Y-134618779D01*
X81845000Y-134595500D01*
X81845000Y-134020500D01*
X81846144Y-133997221D01*
X81849563Y-133974166D01*
X81855227Y-133951557D01*
X81863079Y-133929613D01*
X81873044Y-133908543D01*
X81885026Y-133888552D01*
X81898910Y-133869832D01*
X81914562Y-133852562D01*
X81931832Y-133836910D01*
X81950552Y-133823026D01*
X81970543Y-133811044D01*
X81991613Y-133801079D01*
X82013557Y-133793227D01*
X82036166Y-133787563D01*
X82059221Y-133784144D01*
X82082500Y-133783000D01*
X82557500Y-133783000D01*
X82580779Y-133784144D01*
X82580779Y-133784144D01*
G37*
D15*
X82320000Y-134308000D03*
D14*
G36*
X82580779Y-135534144D02*
G01*
X82603834Y-135537563D01*
X82626443Y-135543227D01*
X82648387Y-135551079D01*
X82669457Y-135561044D01*
X82689448Y-135573026D01*
X82708168Y-135586910D01*
X82725438Y-135602562D01*
X82741090Y-135619832D01*
X82754974Y-135638552D01*
X82766956Y-135658543D01*
X82776921Y-135679613D01*
X82784773Y-135701557D01*
X82790437Y-135724166D01*
X82793856Y-135747221D01*
X82795000Y-135770500D01*
X82795000Y-136345500D01*
X82793856Y-136368779D01*
X82790437Y-136391834D01*
X82784773Y-136414443D01*
X82776921Y-136436387D01*
X82766956Y-136457457D01*
X82754974Y-136477448D01*
X82741090Y-136496168D01*
X82725438Y-136513438D01*
X82708168Y-136529090D01*
X82689448Y-136542974D01*
X82669457Y-136554956D01*
X82648387Y-136564921D01*
X82626443Y-136572773D01*
X82603834Y-136578437D01*
X82580779Y-136581856D01*
X82557500Y-136583000D01*
X82082500Y-136583000D01*
X82059221Y-136581856D01*
X82036166Y-136578437D01*
X82013557Y-136572773D01*
X81991613Y-136564921D01*
X81970543Y-136554956D01*
X81950552Y-136542974D01*
X81931832Y-136529090D01*
X81914562Y-136513438D01*
X81898910Y-136496168D01*
X81885026Y-136477448D01*
X81873044Y-136457457D01*
X81863079Y-136436387D01*
X81855227Y-136414443D01*
X81849563Y-136391834D01*
X81846144Y-136368779D01*
X81845000Y-136345500D01*
X81845000Y-135770500D01*
X81846144Y-135747221D01*
X81849563Y-135724166D01*
X81855227Y-135701557D01*
X81863079Y-135679613D01*
X81873044Y-135658543D01*
X81885026Y-135638552D01*
X81898910Y-135619832D01*
X81914562Y-135602562D01*
X81931832Y-135586910D01*
X81950552Y-135573026D01*
X81970543Y-135561044D01*
X81991613Y-135551079D01*
X82013557Y-135543227D01*
X82036166Y-135537563D01*
X82059221Y-135534144D01*
X82082500Y-135533000D01*
X82557500Y-135533000D01*
X82580779Y-135534144D01*
X82580779Y-135534144D01*
G37*
D15*
X82320000Y-136058000D03*
D17*
X102860000Y-110000000D03*
X116000000Y-110000000D03*
D18*
X112930000Y-112710000D03*
D19*
X110430000Y-112710000D03*
X108430000Y-112710000D03*
X105930000Y-112710000D03*
D14*
G36*
X100810779Y-130526144D02*
G01*
X100833834Y-130529563D01*
X100856443Y-130535227D01*
X100878387Y-130543079D01*
X100899457Y-130553044D01*
X100919448Y-130565026D01*
X100938168Y-130578910D01*
X100955438Y-130594562D01*
X100971090Y-130611832D01*
X100984974Y-130630552D01*
X100996956Y-130650543D01*
X101006921Y-130671613D01*
X101014773Y-130693557D01*
X101020437Y-130716166D01*
X101023856Y-130739221D01*
X101025000Y-130762500D01*
X101025000Y-131237500D01*
X101023856Y-131260779D01*
X101020437Y-131283834D01*
X101014773Y-131306443D01*
X101006921Y-131328387D01*
X100996956Y-131349457D01*
X100984974Y-131369448D01*
X100971090Y-131388168D01*
X100955438Y-131405438D01*
X100938168Y-131421090D01*
X100919448Y-131434974D01*
X100899457Y-131446956D01*
X100878387Y-131456921D01*
X100856443Y-131464773D01*
X100833834Y-131470437D01*
X100810779Y-131473856D01*
X100787500Y-131475000D01*
X100212500Y-131475000D01*
X100189221Y-131473856D01*
X100166166Y-131470437D01*
X100143557Y-131464773D01*
X100121613Y-131456921D01*
X100100543Y-131446956D01*
X100080552Y-131434974D01*
X100061832Y-131421090D01*
X100044562Y-131405438D01*
X100028910Y-131388168D01*
X100015026Y-131369448D01*
X100003044Y-131349457D01*
X99993079Y-131328387D01*
X99985227Y-131306443D01*
X99979563Y-131283834D01*
X99976144Y-131260779D01*
X99975000Y-131237500D01*
X99975000Y-130762500D01*
X99976144Y-130739221D01*
X99979563Y-130716166D01*
X99985227Y-130693557D01*
X99993079Y-130671613D01*
X100003044Y-130650543D01*
X100015026Y-130630552D01*
X100028910Y-130611832D01*
X100044562Y-130594562D01*
X100061832Y-130578910D01*
X100080552Y-130565026D01*
X100100543Y-130553044D01*
X100121613Y-130543079D01*
X100143557Y-130535227D01*
X100166166Y-130529563D01*
X100189221Y-130526144D01*
X100212500Y-130525000D01*
X100787500Y-130525000D01*
X100810779Y-130526144D01*
X100810779Y-130526144D01*
G37*
D15*
X100500000Y-131000000D03*
D14*
G36*
X99060779Y-130526144D02*
G01*
X99083834Y-130529563D01*
X99106443Y-130535227D01*
X99128387Y-130543079D01*
X99149457Y-130553044D01*
X99169448Y-130565026D01*
X99188168Y-130578910D01*
X99205438Y-130594562D01*
X99221090Y-130611832D01*
X99234974Y-130630552D01*
X99246956Y-130650543D01*
X99256921Y-130671613D01*
X99264773Y-130693557D01*
X99270437Y-130716166D01*
X99273856Y-130739221D01*
X99275000Y-130762500D01*
X99275000Y-131237500D01*
X99273856Y-131260779D01*
X99270437Y-131283834D01*
X99264773Y-131306443D01*
X99256921Y-131328387D01*
X99246956Y-131349457D01*
X99234974Y-131369448D01*
X99221090Y-131388168D01*
X99205438Y-131405438D01*
X99188168Y-131421090D01*
X99169448Y-131434974D01*
X99149457Y-131446956D01*
X99128387Y-131456921D01*
X99106443Y-131464773D01*
X99083834Y-131470437D01*
X99060779Y-131473856D01*
X99037500Y-131475000D01*
X98462500Y-131475000D01*
X98439221Y-131473856D01*
X98416166Y-131470437D01*
X98393557Y-131464773D01*
X98371613Y-131456921D01*
X98350543Y-131446956D01*
X98330552Y-131434974D01*
X98311832Y-131421090D01*
X98294562Y-131405438D01*
X98278910Y-131388168D01*
X98265026Y-131369448D01*
X98253044Y-131349457D01*
X98243079Y-131328387D01*
X98235227Y-131306443D01*
X98229563Y-131283834D01*
X98226144Y-131260779D01*
X98225000Y-131237500D01*
X98225000Y-130762500D01*
X98226144Y-130739221D01*
X98229563Y-130716166D01*
X98235227Y-130693557D01*
X98243079Y-130671613D01*
X98253044Y-130650543D01*
X98265026Y-130630552D01*
X98278910Y-130611832D01*
X98294562Y-130594562D01*
X98311832Y-130578910D01*
X98330552Y-130565026D01*
X98350543Y-130553044D01*
X98371613Y-130543079D01*
X98393557Y-130535227D01*
X98416166Y-130529563D01*
X98439221Y-130526144D01*
X98462500Y-130525000D01*
X99037500Y-130525000D01*
X99060779Y-130526144D01*
X99060779Y-130526144D01*
G37*
D15*
X98750000Y-131000000D03*
D14*
G36*
X102517779Y-150021144D02*
G01*
X102540834Y-150024563D01*
X102563443Y-150030227D01*
X102585387Y-150038079D01*
X102606457Y-150048044D01*
X102626448Y-150060026D01*
X102645168Y-150073910D01*
X102662438Y-150089562D01*
X102678090Y-150106832D01*
X102691974Y-150125552D01*
X102703956Y-150145543D01*
X102713921Y-150166613D01*
X102721773Y-150188557D01*
X102727437Y-150211166D01*
X102730856Y-150234221D01*
X102732000Y-150257500D01*
X102732000Y-150732500D01*
X102730856Y-150755779D01*
X102727437Y-150778834D01*
X102721773Y-150801443D01*
X102713921Y-150823387D01*
X102703956Y-150844457D01*
X102691974Y-150864448D01*
X102678090Y-150883168D01*
X102662438Y-150900438D01*
X102645168Y-150916090D01*
X102626448Y-150929974D01*
X102606457Y-150941956D01*
X102585387Y-150951921D01*
X102563443Y-150959773D01*
X102540834Y-150965437D01*
X102517779Y-150968856D01*
X102494500Y-150970000D01*
X101919500Y-150970000D01*
X101896221Y-150968856D01*
X101873166Y-150965437D01*
X101850557Y-150959773D01*
X101828613Y-150951921D01*
X101807543Y-150941956D01*
X101787552Y-150929974D01*
X101768832Y-150916090D01*
X101751562Y-150900438D01*
X101735910Y-150883168D01*
X101722026Y-150864448D01*
X101710044Y-150844457D01*
X101700079Y-150823387D01*
X101692227Y-150801443D01*
X101686563Y-150778834D01*
X101683144Y-150755779D01*
X101682000Y-150732500D01*
X101682000Y-150257500D01*
X101683144Y-150234221D01*
X101686563Y-150211166D01*
X101692227Y-150188557D01*
X101700079Y-150166613D01*
X101710044Y-150145543D01*
X101722026Y-150125552D01*
X101735910Y-150106832D01*
X101751562Y-150089562D01*
X101768832Y-150073910D01*
X101787552Y-150060026D01*
X101807543Y-150048044D01*
X101828613Y-150038079D01*
X101850557Y-150030227D01*
X101873166Y-150024563D01*
X101896221Y-150021144D01*
X101919500Y-150020000D01*
X102494500Y-150020000D01*
X102517779Y-150021144D01*
X102517779Y-150021144D01*
G37*
D15*
X102207000Y-150495000D03*
D14*
G36*
X100767779Y-150021144D02*
G01*
X100790834Y-150024563D01*
X100813443Y-150030227D01*
X100835387Y-150038079D01*
X100856457Y-150048044D01*
X100876448Y-150060026D01*
X100895168Y-150073910D01*
X100912438Y-150089562D01*
X100928090Y-150106832D01*
X100941974Y-150125552D01*
X100953956Y-150145543D01*
X100963921Y-150166613D01*
X100971773Y-150188557D01*
X100977437Y-150211166D01*
X100980856Y-150234221D01*
X100982000Y-150257500D01*
X100982000Y-150732500D01*
X100980856Y-150755779D01*
X100977437Y-150778834D01*
X100971773Y-150801443D01*
X100963921Y-150823387D01*
X100953956Y-150844457D01*
X100941974Y-150864448D01*
X100928090Y-150883168D01*
X100912438Y-150900438D01*
X100895168Y-150916090D01*
X100876448Y-150929974D01*
X100856457Y-150941956D01*
X100835387Y-150951921D01*
X100813443Y-150959773D01*
X100790834Y-150965437D01*
X100767779Y-150968856D01*
X100744500Y-150970000D01*
X100169500Y-150970000D01*
X100146221Y-150968856D01*
X100123166Y-150965437D01*
X100100557Y-150959773D01*
X100078613Y-150951921D01*
X100057543Y-150941956D01*
X100037552Y-150929974D01*
X100018832Y-150916090D01*
X100001562Y-150900438D01*
X99985910Y-150883168D01*
X99972026Y-150864448D01*
X99960044Y-150844457D01*
X99950079Y-150823387D01*
X99942227Y-150801443D01*
X99936563Y-150778834D01*
X99933144Y-150755779D01*
X99932000Y-150732500D01*
X99932000Y-150257500D01*
X99933144Y-150234221D01*
X99936563Y-150211166D01*
X99942227Y-150188557D01*
X99950079Y-150166613D01*
X99960044Y-150145543D01*
X99972026Y-150125552D01*
X99985910Y-150106832D01*
X100001562Y-150089562D01*
X100018832Y-150073910D01*
X100037552Y-150060026D01*
X100057543Y-150048044D01*
X100078613Y-150038079D01*
X100100557Y-150030227D01*
X100123166Y-150024563D01*
X100146221Y-150021144D01*
X100169500Y-150020000D01*
X100744500Y-150020000D01*
X100767779Y-150021144D01*
X100767779Y-150021144D01*
G37*
D15*
X100457000Y-150495000D03*
D14*
G36*
X96560779Y-140276144D02*
G01*
X96583834Y-140279563D01*
X96606443Y-140285227D01*
X96628387Y-140293079D01*
X96649457Y-140303044D01*
X96669448Y-140315026D01*
X96688168Y-140328910D01*
X96705438Y-140344562D01*
X96721090Y-140361832D01*
X96734974Y-140380552D01*
X96746956Y-140400543D01*
X96756921Y-140421613D01*
X96764773Y-140443557D01*
X96770437Y-140466166D01*
X96773856Y-140489221D01*
X96775000Y-140512500D01*
X96775000Y-140987500D01*
X96773856Y-141010779D01*
X96770437Y-141033834D01*
X96764773Y-141056443D01*
X96756921Y-141078387D01*
X96746956Y-141099457D01*
X96734974Y-141119448D01*
X96721090Y-141138168D01*
X96705438Y-141155438D01*
X96688168Y-141171090D01*
X96669448Y-141184974D01*
X96649457Y-141196956D01*
X96628387Y-141206921D01*
X96606443Y-141214773D01*
X96583834Y-141220437D01*
X96560779Y-141223856D01*
X96537500Y-141225000D01*
X95962500Y-141225000D01*
X95939221Y-141223856D01*
X95916166Y-141220437D01*
X95893557Y-141214773D01*
X95871613Y-141206921D01*
X95850543Y-141196956D01*
X95830552Y-141184974D01*
X95811832Y-141171090D01*
X95794562Y-141155438D01*
X95778910Y-141138168D01*
X95765026Y-141119448D01*
X95753044Y-141099457D01*
X95743079Y-141078387D01*
X95735227Y-141056443D01*
X95729563Y-141033834D01*
X95726144Y-141010779D01*
X95725000Y-140987500D01*
X95725000Y-140512500D01*
X95726144Y-140489221D01*
X95729563Y-140466166D01*
X95735227Y-140443557D01*
X95743079Y-140421613D01*
X95753044Y-140400543D01*
X95765026Y-140380552D01*
X95778910Y-140361832D01*
X95794562Y-140344562D01*
X95811832Y-140328910D01*
X95830552Y-140315026D01*
X95850543Y-140303044D01*
X95871613Y-140293079D01*
X95893557Y-140285227D01*
X95916166Y-140279563D01*
X95939221Y-140276144D01*
X95962500Y-140275000D01*
X96537500Y-140275000D01*
X96560779Y-140276144D01*
X96560779Y-140276144D01*
G37*
D15*
X96250000Y-140750000D03*
D14*
G36*
X94810779Y-140276144D02*
G01*
X94833834Y-140279563D01*
X94856443Y-140285227D01*
X94878387Y-140293079D01*
X94899457Y-140303044D01*
X94919448Y-140315026D01*
X94938168Y-140328910D01*
X94955438Y-140344562D01*
X94971090Y-140361832D01*
X94984974Y-140380552D01*
X94996956Y-140400543D01*
X95006921Y-140421613D01*
X95014773Y-140443557D01*
X95020437Y-140466166D01*
X95023856Y-140489221D01*
X95025000Y-140512500D01*
X95025000Y-140987500D01*
X95023856Y-141010779D01*
X95020437Y-141033834D01*
X95014773Y-141056443D01*
X95006921Y-141078387D01*
X94996956Y-141099457D01*
X94984974Y-141119448D01*
X94971090Y-141138168D01*
X94955438Y-141155438D01*
X94938168Y-141171090D01*
X94919448Y-141184974D01*
X94899457Y-141196956D01*
X94878387Y-141206921D01*
X94856443Y-141214773D01*
X94833834Y-141220437D01*
X94810779Y-141223856D01*
X94787500Y-141225000D01*
X94212500Y-141225000D01*
X94189221Y-141223856D01*
X94166166Y-141220437D01*
X94143557Y-141214773D01*
X94121613Y-141206921D01*
X94100543Y-141196956D01*
X94080552Y-141184974D01*
X94061832Y-141171090D01*
X94044562Y-141155438D01*
X94028910Y-141138168D01*
X94015026Y-141119448D01*
X94003044Y-141099457D01*
X93993079Y-141078387D01*
X93985227Y-141056443D01*
X93979563Y-141033834D01*
X93976144Y-141010779D01*
X93975000Y-140987500D01*
X93975000Y-140512500D01*
X93976144Y-140489221D01*
X93979563Y-140466166D01*
X93985227Y-140443557D01*
X93993079Y-140421613D01*
X94003044Y-140400543D01*
X94015026Y-140380552D01*
X94028910Y-140361832D01*
X94044562Y-140344562D01*
X94061832Y-140328910D01*
X94080552Y-140315026D01*
X94100543Y-140303044D01*
X94121613Y-140293079D01*
X94143557Y-140285227D01*
X94166166Y-140279563D01*
X94189221Y-140276144D01*
X94212500Y-140275000D01*
X94787500Y-140275000D01*
X94810779Y-140276144D01*
X94810779Y-140276144D01*
G37*
D15*
X94500000Y-140750000D03*
D14*
G36*
X68080779Y-125034144D02*
G01*
X68103834Y-125037563D01*
X68126443Y-125043227D01*
X68148387Y-125051079D01*
X68169457Y-125061044D01*
X68189448Y-125073026D01*
X68208168Y-125086910D01*
X68225438Y-125102562D01*
X68241090Y-125119832D01*
X68254974Y-125138552D01*
X68266956Y-125158543D01*
X68276921Y-125179613D01*
X68284773Y-125201557D01*
X68290437Y-125224166D01*
X68293856Y-125247221D01*
X68295000Y-125270500D01*
X68295000Y-125845500D01*
X68293856Y-125868779D01*
X68290437Y-125891834D01*
X68284773Y-125914443D01*
X68276921Y-125936387D01*
X68266956Y-125957457D01*
X68254974Y-125977448D01*
X68241090Y-125996168D01*
X68225438Y-126013438D01*
X68208168Y-126029090D01*
X68189448Y-126042974D01*
X68169457Y-126054956D01*
X68148387Y-126064921D01*
X68126443Y-126072773D01*
X68103834Y-126078437D01*
X68080779Y-126081856D01*
X68057500Y-126083000D01*
X67582500Y-126083000D01*
X67559221Y-126081856D01*
X67536166Y-126078437D01*
X67513557Y-126072773D01*
X67491613Y-126064921D01*
X67470543Y-126054956D01*
X67450552Y-126042974D01*
X67431832Y-126029090D01*
X67414562Y-126013438D01*
X67398910Y-125996168D01*
X67385026Y-125977448D01*
X67373044Y-125957457D01*
X67363079Y-125936387D01*
X67355227Y-125914443D01*
X67349563Y-125891834D01*
X67346144Y-125868779D01*
X67345000Y-125845500D01*
X67345000Y-125270500D01*
X67346144Y-125247221D01*
X67349563Y-125224166D01*
X67355227Y-125201557D01*
X67363079Y-125179613D01*
X67373044Y-125158543D01*
X67385026Y-125138552D01*
X67398910Y-125119832D01*
X67414562Y-125102562D01*
X67431832Y-125086910D01*
X67450552Y-125073026D01*
X67470543Y-125061044D01*
X67491613Y-125051079D01*
X67513557Y-125043227D01*
X67536166Y-125037563D01*
X67559221Y-125034144D01*
X67582500Y-125033000D01*
X68057500Y-125033000D01*
X68080779Y-125034144D01*
X68080779Y-125034144D01*
G37*
D15*
X67820000Y-125558000D03*
D14*
G36*
X68080779Y-126784144D02*
G01*
X68103834Y-126787563D01*
X68126443Y-126793227D01*
X68148387Y-126801079D01*
X68169457Y-126811044D01*
X68189448Y-126823026D01*
X68208168Y-126836910D01*
X68225438Y-126852562D01*
X68241090Y-126869832D01*
X68254974Y-126888552D01*
X68266956Y-126908543D01*
X68276921Y-126929613D01*
X68284773Y-126951557D01*
X68290437Y-126974166D01*
X68293856Y-126997221D01*
X68295000Y-127020500D01*
X68295000Y-127595500D01*
X68293856Y-127618779D01*
X68290437Y-127641834D01*
X68284773Y-127664443D01*
X68276921Y-127686387D01*
X68266956Y-127707457D01*
X68254974Y-127727448D01*
X68241090Y-127746168D01*
X68225438Y-127763438D01*
X68208168Y-127779090D01*
X68189448Y-127792974D01*
X68169457Y-127804956D01*
X68148387Y-127814921D01*
X68126443Y-127822773D01*
X68103834Y-127828437D01*
X68080779Y-127831856D01*
X68057500Y-127833000D01*
X67582500Y-127833000D01*
X67559221Y-127831856D01*
X67536166Y-127828437D01*
X67513557Y-127822773D01*
X67491613Y-127814921D01*
X67470543Y-127804956D01*
X67450552Y-127792974D01*
X67431832Y-127779090D01*
X67414562Y-127763438D01*
X67398910Y-127746168D01*
X67385026Y-127727448D01*
X67373044Y-127707457D01*
X67363079Y-127686387D01*
X67355227Y-127664443D01*
X67349563Y-127641834D01*
X67346144Y-127618779D01*
X67345000Y-127595500D01*
X67345000Y-127020500D01*
X67346144Y-126997221D01*
X67349563Y-126974166D01*
X67355227Y-126951557D01*
X67363079Y-126929613D01*
X67373044Y-126908543D01*
X67385026Y-126888552D01*
X67398910Y-126869832D01*
X67414562Y-126852562D01*
X67431832Y-126836910D01*
X67450552Y-126823026D01*
X67470543Y-126811044D01*
X67491613Y-126801079D01*
X67513557Y-126793227D01*
X67536166Y-126787563D01*
X67559221Y-126784144D01*
X67582500Y-126783000D01*
X68057500Y-126783000D01*
X68080779Y-126784144D01*
X68080779Y-126784144D01*
G37*
D15*
X67820000Y-127308000D03*
D14*
G36*
X66080779Y-125034144D02*
G01*
X66103834Y-125037563D01*
X66126443Y-125043227D01*
X66148387Y-125051079D01*
X66169457Y-125061044D01*
X66189448Y-125073026D01*
X66208168Y-125086910D01*
X66225438Y-125102562D01*
X66241090Y-125119832D01*
X66254974Y-125138552D01*
X66266956Y-125158543D01*
X66276921Y-125179613D01*
X66284773Y-125201557D01*
X66290437Y-125224166D01*
X66293856Y-125247221D01*
X66295000Y-125270500D01*
X66295000Y-125845500D01*
X66293856Y-125868779D01*
X66290437Y-125891834D01*
X66284773Y-125914443D01*
X66276921Y-125936387D01*
X66266956Y-125957457D01*
X66254974Y-125977448D01*
X66241090Y-125996168D01*
X66225438Y-126013438D01*
X66208168Y-126029090D01*
X66189448Y-126042974D01*
X66169457Y-126054956D01*
X66148387Y-126064921D01*
X66126443Y-126072773D01*
X66103834Y-126078437D01*
X66080779Y-126081856D01*
X66057500Y-126083000D01*
X65582500Y-126083000D01*
X65559221Y-126081856D01*
X65536166Y-126078437D01*
X65513557Y-126072773D01*
X65491613Y-126064921D01*
X65470543Y-126054956D01*
X65450552Y-126042974D01*
X65431832Y-126029090D01*
X65414562Y-126013438D01*
X65398910Y-125996168D01*
X65385026Y-125977448D01*
X65373044Y-125957457D01*
X65363079Y-125936387D01*
X65355227Y-125914443D01*
X65349563Y-125891834D01*
X65346144Y-125868779D01*
X65345000Y-125845500D01*
X65345000Y-125270500D01*
X65346144Y-125247221D01*
X65349563Y-125224166D01*
X65355227Y-125201557D01*
X65363079Y-125179613D01*
X65373044Y-125158543D01*
X65385026Y-125138552D01*
X65398910Y-125119832D01*
X65414562Y-125102562D01*
X65431832Y-125086910D01*
X65450552Y-125073026D01*
X65470543Y-125061044D01*
X65491613Y-125051079D01*
X65513557Y-125043227D01*
X65536166Y-125037563D01*
X65559221Y-125034144D01*
X65582500Y-125033000D01*
X66057500Y-125033000D01*
X66080779Y-125034144D01*
X66080779Y-125034144D01*
G37*
D15*
X65820000Y-125558000D03*
D14*
G36*
X66080779Y-126784144D02*
G01*
X66103834Y-126787563D01*
X66126443Y-126793227D01*
X66148387Y-126801079D01*
X66169457Y-126811044D01*
X66189448Y-126823026D01*
X66208168Y-126836910D01*
X66225438Y-126852562D01*
X66241090Y-126869832D01*
X66254974Y-126888552D01*
X66266956Y-126908543D01*
X66276921Y-126929613D01*
X66284773Y-126951557D01*
X66290437Y-126974166D01*
X66293856Y-126997221D01*
X66295000Y-127020500D01*
X66295000Y-127595500D01*
X66293856Y-127618779D01*
X66290437Y-127641834D01*
X66284773Y-127664443D01*
X66276921Y-127686387D01*
X66266956Y-127707457D01*
X66254974Y-127727448D01*
X66241090Y-127746168D01*
X66225438Y-127763438D01*
X66208168Y-127779090D01*
X66189448Y-127792974D01*
X66169457Y-127804956D01*
X66148387Y-127814921D01*
X66126443Y-127822773D01*
X66103834Y-127828437D01*
X66080779Y-127831856D01*
X66057500Y-127833000D01*
X65582500Y-127833000D01*
X65559221Y-127831856D01*
X65536166Y-127828437D01*
X65513557Y-127822773D01*
X65491613Y-127814921D01*
X65470543Y-127804956D01*
X65450552Y-127792974D01*
X65431832Y-127779090D01*
X65414562Y-127763438D01*
X65398910Y-127746168D01*
X65385026Y-127727448D01*
X65373044Y-127707457D01*
X65363079Y-127686387D01*
X65355227Y-127664443D01*
X65349563Y-127641834D01*
X65346144Y-127618779D01*
X65345000Y-127595500D01*
X65345000Y-127020500D01*
X65346144Y-126997221D01*
X65349563Y-126974166D01*
X65355227Y-126951557D01*
X65363079Y-126929613D01*
X65373044Y-126908543D01*
X65385026Y-126888552D01*
X65398910Y-126869832D01*
X65414562Y-126852562D01*
X65431832Y-126836910D01*
X65450552Y-126823026D01*
X65470543Y-126811044D01*
X65491613Y-126801079D01*
X65513557Y-126793227D01*
X65536166Y-126787563D01*
X65559221Y-126784144D01*
X65582500Y-126783000D01*
X66057500Y-126783000D01*
X66080779Y-126784144D01*
X66080779Y-126784144D01*
G37*
D15*
X65820000Y-127308000D03*
D20*
X70030000Y-124533000D03*
X72570000Y-124533000D03*
X75110000Y-124533000D03*
D21*
X72570000Y-133683000D03*
D13*
X96012000Y-143510000D03*
D12*
X96012000Y-146050000D03*
X98552000Y-143510000D03*
X98552000Y-146050000D03*
X101092000Y-143510000D03*
X101092000Y-146050000D03*
X103632000Y-143510000D03*
X103632000Y-146050000D03*
X106172000Y-143510000D03*
X106172000Y-146050000D03*
X108712000Y-143510000D03*
X108712000Y-146050000D03*
X111252000Y-143510000D03*
X111252000Y-146050000D03*
X113792000Y-143510000D03*
X113792000Y-146050000D03*
X116332000Y-143510000D03*
X116332000Y-146050000D03*
X118872000Y-143510000D03*
X118872000Y-146050000D03*
D13*
X120777000Y-107442000D03*
D12*
X120777000Y-109982000D03*
D22*
X113792000Y-149860000D03*
X80010000Y-130810000D03*
X72009000Y-120650000D03*
X107696000Y-132334000D03*
X107823000Y-133985000D03*
X91440000Y-132334000D03*
X91440000Y-133604000D03*
D23*
X81445000Y-134308000D02*
X80070000Y-132933000D01*
X82320000Y-134308000D02*
X81445000Y-134308000D01*
X98750000Y-136320000D02*
X98920000Y-136490000D01*
X98920000Y-133420000D02*
X98750000Y-133250000D01*
X98920000Y-136490000D02*
X98920000Y-133420000D01*
X98750000Y-133250000D02*
X98750000Y-131000000D01*
X96250000Y-136620000D02*
X96380000Y-136490000D01*
X96380000Y-138870000D02*
X96250000Y-139000000D01*
X96380000Y-136490000D02*
X96380000Y-138870000D01*
X96250000Y-139000000D02*
X96250000Y-140750000D01*
X97187001Y-141687001D02*
X96749072Y-141249072D01*
X96749072Y-141249072D02*
X96250000Y-140750000D01*
X98082998Y-144780000D02*
X97187001Y-143884003D01*
X101561002Y-144780000D02*
X98082998Y-144780000D01*
X102267001Y-144074001D02*
X101561002Y-144780000D01*
X102878001Y-142334999D02*
X102267001Y-142945999D01*
X104196001Y-142334999D02*
X102878001Y-142334999D01*
X104807001Y-142945999D02*
X104196001Y-142334999D01*
X104807001Y-143884003D02*
X104807001Y-142945999D01*
X105607999Y-144685001D02*
X104807001Y-143884003D01*
X102267001Y-142945999D02*
X102267001Y-144074001D01*
X107347001Y-145485999D02*
X106546003Y-144685001D01*
X107347001Y-146590001D02*
X107347001Y-145485999D01*
X106546003Y-144685001D02*
X105607999Y-144685001D01*
X107982001Y-147225001D02*
X107347001Y-146590001D01*
X97187001Y-143884003D02*
X97187001Y-141687001D01*
X110076999Y-147225001D02*
X107982001Y-147225001D01*
X111252000Y-146050000D02*
X110076999Y-147225001D01*
D24*
X112930000Y-112710000D02*
X112930000Y-112619998D01*
D25*
X77070000Y-122573000D02*
X75110000Y-124533000D01*
X77070000Y-120808000D02*
X77070000Y-122573000D01*
X72570000Y-124533000D02*
X72570000Y-133683000D01*
D24*
X67820000Y-128933000D02*
X72570000Y-133683000D01*
D25*
X67820000Y-127308000D02*
X67820000Y-128933000D01*
D26*
X74695000Y-135808000D02*
X72570000Y-133683000D01*
X80070000Y-135808000D02*
X74695000Y-135808000D01*
X80320000Y-136058000D02*
X80070000Y-135808000D01*
X82320000Y-136058000D02*
X80320000Y-136058000D01*
D27*
X78720000Y-128233000D02*
X73270000Y-133683000D01*
X78720000Y-127533000D02*
X78720000Y-128233000D01*
X73270000Y-133683000D02*
X72570000Y-133683000D01*
X85003000Y-121250000D02*
X78720000Y-127533000D01*
X86220000Y-121250000D02*
X85003000Y-121250000D01*
D23*
X100457000Y-147955000D02*
X98552000Y-146050000D01*
X100457000Y-150495000D02*
X100457000Y-147955000D01*
X98552000Y-146050000D02*
X96012000Y-143510000D01*
X94500000Y-141325000D02*
X94500000Y-140750000D01*
X94912000Y-143510000D02*
X94500000Y-143098000D01*
X94500000Y-143098000D02*
X94500000Y-141325000D01*
X96012000Y-143510000D02*
X94912000Y-143510000D01*
D27*
X72898000Y-112141000D02*
X72898000Y-114681000D01*
X75376990Y-117159990D02*
X77789990Y-117159990D01*
X72898000Y-114681000D02*
X75376990Y-117159990D01*
X80542999Y-119912999D02*
X89962999Y-119912999D01*
X90538001Y-120488001D02*
X91300000Y-121250000D01*
X89962999Y-119912999D02*
X90538001Y-120488001D01*
X77789990Y-117159990D02*
X80542999Y-119912999D01*
X72048001Y-111291001D02*
X72898000Y-112141000D01*
X71120000Y-110363000D02*
X72048001Y-111291001D01*
X60579000Y-110363000D02*
X71120000Y-110363000D01*
D23*
X97536000Y-127254000D02*
X92456000Y-127254000D01*
X92456000Y-127254000D02*
X91300000Y-126098000D01*
X91300000Y-126098000D02*
X91300000Y-121250000D01*
X99699990Y-129417990D02*
X97536000Y-127254000D01*
X99699990Y-130199990D02*
X99699990Y-129417990D01*
X100500000Y-131000000D02*
X99699990Y-130199990D01*
D27*
X60579000Y-110363000D02*
X59182000Y-110363000D01*
X56642000Y-112903000D02*
X56642000Y-118364000D01*
X59182000Y-110363000D02*
X56642000Y-112903000D01*
D23*
X99681999Y-122011999D02*
X98920000Y-121250000D01*
X102547001Y-138312918D02*
X102547001Y-124877001D01*
X102547001Y-124877001D02*
X99681999Y-122011999D01*
X98552000Y-142307919D02*
X102547001Y-138312918D01*
X98552000Y-143510000D02*
X98552000Y-142307919D01*
X105087001Y-125954631D02*
X105087001Y-137990999D01*
X101460000Y-122327630D02*
X105087001Y-125954631D01*
X101460000Y-121250000D02*
X101460000Y-122327630D01*
X101092000Y-141986000D02*
X101092000Y-143510000D01*
X105087001Y-137990999D02*
X101092000Y-141986000D01*
X117461999Y-137251999D02*
X116700000Y-136490000D01*
X117507001Y-137297001D02*
X117461999Y-137251999D01*
X117507001Y-147218001D02*
X117507001Y-137297001D01*
X108967999Y-150585001D02*
X114140001Y-150585001D01*
X104996999Y-145485999D02*
X104996999Y-146614001D01*
X114140001Y-150585001D02*
X117507001Y-147218001D01*
X104196001Y-144685001D02*
X104996999Y-145485999D01*
X102456999Y-144685001D02*
X104196001Y-144685001D01*
X104996999Y-146614001D02*
X108967999Y-150585001D01*
X101092000Y-146050000D02*
X102456999Y-144685001D01*
X102207000Y-147475000D02*
X103632000Y-146050000D01*
X102207000Y-150495000D02*
X102207000Y-147475000D01*
X113792000Y-149860000D02*
X113792000Y-146050000D01*
X109841999Y-122011999D02*
X109080000Y-121250000D01*
X115247001Y-127417001D02*
X109841999Y-122011999D01*
X115247001Y-137011761D02*
X115247001Y-127417001D01*
X115062000Y-143979002D02*
X115062000Y-137196762D01*
X115062000Y-137196762D02*
X115247001Y-137011761D01*
X116332000Y-145249002D02*
X115062000Y-143979002D01*
X116332000Y-146050000D02*
X116332000Y-145249002D01*
D26*
X69005000Y-125558000D02*
X70030000Y-124533000D01*
X67820000Y-125558000D02*
X69005000Y-125558000D01*
X67820000Y-125558000D02*
X65820000Y-125558000D01*
D23*
X76287999Y-115530999D02*
X75438000Y-114681000D01*
X77150961Y-115530999D02*
X76287999Y-115530999D01*
X79671972Y-118052010D02*
X77150961Y-115530999D01*
X101879640Y-118052010D02*
X79671972Y-118052010D01*
X104000000Y-120172370D02*
X101879640Y-118052010D01*
X104000000Y-121250000D02*
X104000000Y-120172370D01*
X80899000Y-117602000D02*
X78827999Y-115530999D01*
X102892000Y-117602000D02*
X80899000Y-117602000D01*
X78827999Y-115530999D02*
X77978000Y-114681000D01*
X106540000Y-121250000D02*
X102892000Y-117602000D01*
X91853001Y-113316001D02*
X91527999Y-112990999D01*
X93782001Y-113316001D02*
X91853001Y-113316001D01*
X94301001Y-113835001D02*
X93782001Y-113316001D01*
X112707001Y-120728239D02*
X105813763Y-113835001D01*
X113447001Y-122337001D02*
X112707001Y-121597001D01*
X117787001Y-122337001D02*
X113447001Y-122337001D01*
X91527999Y-112990999D02*
X90678000Y-112141000D01*
X105813763Y-113835001D02*
X94301001Y-113835001D01*
X112707001Y-121597001D02*
X112707001Y-120728239D01*
X119240000Y-123790000D02*
X117787001Y-122337001D01*
D27*
X70358000Y-112141000D02*
X70358000Y-114681000D01*
X77089000Y-118110000D02*
X77070000Y-118129000D01*
X77070000Y-118129000D02*
X77070000Y-120808000D01*
X72187000Y-118110000D02*
X77089000Y-118110000D01*
X70358000Y-116281000D02*
X72187000Y-118110000D01*
X70358000Y-114681000D02*
X70358000Y-116281000D01*
D23*
X114160000Y-136490000D02*
X110004000Y-132334000D01*
X110004000Y-132334000D02*
X107696000Y-132334000D01*
X111620000Y-136490000D02*
X109115000Y-133985000D01*
X109115000Y-133985000D02*
X107823000Y-133985000D01*
X91527999Y-115530999D02*
X90678000Y-114681000D01*
X91853001Y-115856001D02*
X91527999Y-115530999D01*
X107627001Y-120728239D02*
X102754763Y-115856001D01*
X107627001Y-121771761D02*
X107627001Y-120728239D01*
X103478239Y-122337001D02*
X107061761Y-122337001D01*
X102912999Y-121771761D02*
X103478239Y-122337001D01*
X102912999Y-121094237D02*
X102912999Y-121771761D01*
X101981761Y-120162999D02*
X102912999Y-121094237D01*
X102754763Y-115856001D02*
X91853001Y-115856001D01*
X96389371Y-120162999D02*
X101981761Y-120162999D01*
X96380000Y-120172370D02*
X96389371Y-120162999D01*
X107061761Y-122337001D02*
X107627001Y-121771761D01*
X96380000Y-121250000D02*
X96380000Y-120172370D01*
X92387001Y-133281001D02*
X91839999Y-132733999D01*
X92387001Y-137011761D02*
X92387001Y-133281001D01*
X90240751Y-139158011D02*
X92387001Y-137011761D01*
X54957011Y-139158011D02*
X90240751Y-139158011D01*
X77978000Y-112141000D02*
X75049980Y-109212980D01*
X47934999Y-117842239D02*
X47934999Y-132135999D01*
X91839999Y-132733999D02*
X91440000Y-132334000D01*
X56564258Y-109212980D02*
X47934999Y-117842239D01*
X75049980Y-109212980D02*
X56564258Y-109212980D01*
X47934999Y-132135999D02*
X54957011Y-139158011D01*
X91440000Y-134169685D02*
X91440000Y-133604000D01*
X89847001Y-137011761D02*
X89847001Y-135762684D01*
X89847001Y-135762684D02*
X91440000Y-134169685D01*
X88150761Y-138708001D02*
X89847001Y-137011761D01*
X57809001Y-138708001D02*
X88150761Y-138708001D01*
X50419000Y-131318000D02*
X57809001Y-138708001D01*
X75438000Y-112141000D02*
X72959990Y-109662990D01*
X50419000Y-117532240D02*
X50419000Y-131318000D01*
X58288250Y-109662990D02*
X50419000Y-117532240D01*
X72959990Y-109662990D02*
X58288250Y-109662990D01*
D28*
G36*
X125228000Y-158248000D02*
G01*
X27172000Y-158248000D01*
X27172000Y-146406891D01*
X94570519Y-146406891D01*
X94667843Y-146681252D01*
X94816822Y-146931355D01*
X95011731Y-147147588D01*
X95245080Y-147321641D01*
X95507901Y-147446825D01*
X95655110Y-147491476D01*
X95885000Y-147370155D01*
X95885000Y-146177000D01*
X94691186Y-146177000D01*
X94570519Y-146406891D01*
X27172000Y-146406891D01*
X27172000Y-118120037D01*
X33845000Y-118120037D01*
X33845000Y-118607963D01*
X33940190Y-119086514D01*
X34126911Y-119537299D01*
X34397989Y-119942995D01*
X34743005Y-120288011D01*
X35148701Y-120559089D01*
X35599486Y-120745810D01*
X36078037Y-120841000D01*
X36565963Y-120841000D01*
X37044514Y-120745810D01*
X37495299Y-120559089D01*
X37900995Y-120288011D01*
X38246011Y-119942995D01*
X38517089Y-119537299D01*
X38703810Y-119086514D01*
X38799000Y-118607963D01*
X38799000Y-118241969D01*
X40163000Y-118241969D01*
X40163000Y-118486031D01*
X40210614Y-118725403D01*
X40304012Y-118950887D01*
X40439606Y-119153816D01*
X40612184Y-119326394D01*
X40815113Y-119461988D01*
X41040597Y-119555386D01*
X41279969Y-119603000D01*
X41524031Y-119603000D01*
X41763403Y-119555386D01*
X41988887Y-119461988D01*
X42191816Y-119326394D01*
X42364394Y-119153816D01*
X42499988Y-118950887D01*
X42593386Y-118725403D01*
X42641000Y-118486031D01*
X42641000Y-118241969D01*
X42703000Y-118241969D01*
X42703000Y-118486031D01*
X42750614Y-118725403D01*
X42844012Y-118950887D01*
X42979606Y-119153816D01*
X43152184Y-119326394D01*
X43355113Y-119461988D01*
X43580597Y-119555386D01*
X43819969Y-119603000D01*
X44064031Y-119603000D01*
X44303403Y-119555386D01*
X44528887Y-119461988D01*
X44731816Y-119326394D01*
X44904394Y-119153816D01*
X45039988Y-118950887D01*
X45133386Y-118725403D01*
X45181000Y-118486031D01*
X45181000Y-118241969D01*
X45243000Y-118241969D01*
X45243000Y-118486031D01*
X45290614Y-118725403D01*
X45384012Y-118950887D01*
X45519606Y-119153816D01*
X45692184Y-119326394D01*
X45895113Y-119461988D01*
X46120597Y-119555386D01*
X46359969Y-119603000D01*
X46604031Y-119603000D01*
X46843403Y-119555386D01*
X47068887Y-119461988D01*
X47271816Y-119326394D01*
X47332999Y-119265211D01*
X47333000Y-132106433D01*
X47330088Y-132135999D01*
X47341711Y-132254011D01*
X47376133Y-132367488D01*
X47392404Y-132397928D01*
X47432034Y-132472070D01*
X47507263Y-132563736D01*
X47530228Y-132582583D01*
X54510427Y-139562783D01*
X54529274Y-139585748D01*
X54552239Y-139604595D01*
X54620939Y-139660977D01*
X54725521Y-139716877D01*
X54838998Y-139751300D01*
X54850193Y-139752402D01*
X54927445Y-139760011D01*
X54927452Y-139760011D01*
X54957011Y-139762922D01*
X54986570Y-139760011D01*
X90211195Y-139760011D01*
X90240751Y-139762922D01*
X90270307Y-139760011D01*
X90270317Y-139760011D01*
X90358763Y-139751300D01*
X90472241Y-139716877D01*
X90576822Y-139660977D01*
X90668488Y-139585748D01*
X90687340Y-139562777D01*
X91725117Y-138525000D01*
X93336928Y-138525000D01*
X93340000Y-138714250D01*
X93498750Y-138873000D01*
X94373000Y-138873000D01*
X94373000Y-138048750D01*
X94214250Y-137890000D01*
X93975000Y-137886928D01*
X93850518Y-137899188D01*
X93730820Y-137935498D01*
X93620506Y-137994463D01*
X93523815Y-138073815D01*
X93444463Y-138170506D01*
X93385498Y-138280820D01*
X93349188Y-138400518D01*
X93336928Y-138525000D01*
X91725117Y-138525000D01*
X92791774Y-137458344D01*
X92814738Y-137439498D01*
X92889967Y-137347832D01*
X92909353Y-137311563D01*
X93050184Y-137452394D01*
X93253113Y-137587988D01*
X93478597Y-137681386D01*
X93717969Y-137729000D01*
X93962031Y-137729000D01*
X94201403Y-137681386D01*
X94426887Y-137587988D01*
X94629816Y-137452394D01*
X94802394Y-137279816D01*
X94937988Y-137076887D01*
X95031386Y-136851403D01*
X95079000Y-136612031D01*
X95079000Y-136367969D01*
X95031386Y-136128597D01*
X94937988Y-135903113D01*
X94802394Y-135700184D01*
X94629816Y-135527606D01*
X94426887Y-135392012D01*
X94201403Y-135298614D01*
X93962031Y-135251000D01*
X93717969Y-135251000D01*
X93478597Y-135298614D01*
X93253113Y-135392012D01*
X93050184Y-135527606D01*
X92989001Y-135588789D01*
X92989001Y-133310560D01*
X92991912Y-133281001D01*
X92989001Y-133251442D01*
X92989001Y-133251435D01*
X92980290Y-133162989D01*
X92978531Y-133157188D01*
X92945867Y-133049511D01*
X92889967Y-132944929D01*
X92833585Y-132876229D01*
X92814738Y-132853264D01*
X92791772Y-132834416D01*
X92317000Y-132359645D01*
X92317000Y-132247623D01*
X92283297Y-132078189D01*
X92217187Y-131918585D01*
X92121210Y-131774945D01*
X91999055Y-131652790D01*
X91855415Y-131556813D01*
X91695811Y-131490703D01*
X91526377Y-131457000D01*
X91353623Y-131457000D01*
X91184189Y-131490703D01*
X91024585Y-131556813D01*
X90880945Y-131652790D01*
X90758790Y-131774945D01*
X90662813Y-131918585D01*
X90596703Y-132078189D01*
X90563000Y-132247623D01*
X90563000Y-132420377D01*
X90596703Y-132589811D01*
X90662813Y-132749415D01*
X90758790Y-132893055D01*
X90834735Y-132969000D01*
X90758790Y-133044945D01*
X90662813Y-133188585D01*
X90596703Y-133348189D01*
X90563000Y-133517623D01*
X90563000Y-133690377D01*
X90596703Y-133859811D01*
X90662813Y-134019415D01*
X90693295Y-134065034D01*
X89442230Y-135316100D01*
X89419265Y-135334947D01*
X89400418Y-135357912D01*
X89400417Y-135357913D01*
X89363385Y-135403036D01*
X89346887Y-135392012D01*
X89121403Y-135298614D01*
X88882031Y-135251000D01*
X88637969Y-135251000D01*
X88398597Y-135298614D01*
X88173113Y-135392012D01*
X87970184Y-135527606D01*
X87797606Y-135700184D01*
X87662012Y-135903113D01*
X87571868Y-136120741D01*
X87487636Y-135886977D01*
X87425656Y-135771020D01*
X87185565Y-135704040D01*
X86399605Y-136490000D01*
X87185565Y-137275960D01*
X87425656Y-137208980D01*
X87542756Y-136959952D01*
X87569286Y-136853025D01*
X87662012Y-137076887D01*
X87797606Y-137279816D01*
X87970184Y-137452394D01*
X88173113Y-137587988D01*
X88347278Y-137660129D01*
X87901406Y-138106001D01*
X78449307Y-138106001D01*
X78449307Y-137455565D01*
X85434040Y-137455565D01*
X85501020Y-137695656D01*
X85750048Y-137812756D01*
X86017135Y-137879023D01*
X86292017Y-137891910D01*
X86564133Y-137850922D01*
X86823023Y-137757636D01*
X86938980Y-137695656D01*
X87005960Y-137455565D01*
X86220000Y-136669605D01*
X85434040Y-137455565D01*
X78449307Y-137455565D01*
X78449307Y-136585000D01*
X78959197Y-136585000D01*
X78971208Y-136624594D01*
X79038603Y-136750682D01*
X79129302Y-136861198D01*
X79239818Y-136951897D01*
X79365906Y-137019292D01*
X79502718Y-137060794D01*
X79644999Y-137074807D01*
X80495001Y-137074807D01*
X80637282Y-137060794D01*
X80774094Y-137019292D01*
X80900182Y-136951897D01*
X81010698Y-136861198D01*
X81032198Y-136835000D01*
X81561395Y-136835000D01*
X81575641Y-136852359D01*
X81684263Y-136941503D01*
X81808190Y-137007743D01*
X81942658Y-137048534D01*
X82082500Y-137062307D01*
X82557500Y-137062307D01*
X82697342Y-137048534D01*
X82831810Y-137007743D01*
X82955737Y-136941503D01*
X83064359Y-136852359D01*
X83153503Y-136743737D01*
X83219743Y-136619810D01*
X83237274Y-136562017D01*
X84818090Y-136562017D01*
X84859078Y-136834133D01*
X84952364Y-137093023D01*
X85014344Y-137208980D01*
X85254435Y-137275960D01*
X86040395Y-136490000D01*
X85254435Y-135704040D01*
X85014344Y-135771020D01*
X84897244Y-136020048D01*
X84830977Y-136287135D01*
X84818090Y-136562017D01*
X83237274Y-136562017D01*
X83260534Y-136485342D01*
X83274307Y-136345500D01*
X83274307Y-135770500D01*
X83260534Y-135630658D01*
X83228312Y-135524435D01*
X85434040Y-135524435D01*
X86220000Y-136310395D01*
X87005960Y-135524435D01*
X86938980Y-135284344D01*
X86689952Y-135167244D01*
X86422865Y-135100977D01*
X86147983Y-135088090D01*
X85875867Y-135129078D01*
X85616977Y-135222364D01*
X85501020Y-135284344D01*
X85434040Y-135524435D01*
X83228312Y-135524435D01*
X83219743Y-135496190D01*
X83153503Y-135372263D01*
X83147303Y-135364708D01*
X83149494Y-135363537D01*
X83246185Y-135284185D01*
X83325537Y-135187494D01*
X83384502Y-135077180D01*
X83420812Y-134957482D01*
X83433072Y-134833000D01*
X83430000Y-134593750D01*
X83271250Y-134435000D01*
X82447000Y-134435000D01*
X82447000Y-134455000D01*
X82193000Y-134455000D01*
X82193000Y-134435000D01*
X81368750Y-134435000D01*
X81210000Y-134593750D01*
X81206928Y-134833000D01*
X81219188Y-134957482D01*
X81255498Y-135077180D01*
X81314463Y-135187494D01*
X81391201Y-135281000D01*
X81224307Y-135281000D01*
X81224307Y-135270499D01*
X81210294Y-135128218D01*
X81168792Y-134991406D01*
X81101397Y-134865318D01*
X81010698Y-134754802D01*
X80900182Y-134664103D01*
X80774094Y-134596708D01*
X80637282Y-134555206D01*
X80495001Y-134541193D01*
X79644999Y-134541193D01*
X79502718Y-134555206D01*
X79365906Y-134596708D01*
X79239818Y-134664103D01*
X79129302Y-134754802D01*
X79038603Y-134865318D01*
X78971208Y-134991406D01*
X78959197Y-135031000D01*
X78449307Y-135031000D01*
X78449307Y-133720500D01*
X78756928Y-133720500D01*
X78769188Y-133844982D01*
X78805498Y-133964680D01*
X78864463Y-134074994D01*
X78943815Y-134171685D01*
X79040506Y-134251037D01*
X79150820Y-134310002D01*
X79270518Y-134346312D01*
X79395000Y-134358572D01*
X79784250Y-134355500D01*
X79943000Y-134196750D01*
X79943000Y-133060000D01*
X80197000Y-133060000D01*
X80197000Y-134196750D01*
X80355750Y-134355500D01*
X80745000Y-134358572D01*
X80869482Y-134346312D01*
X80989180Y-134310002D01*
X81099494Y-134251037D01*
X81196185Y-134171685D01*
X81269771Y-134082021D01*
X81368750Y-134181000D01*
X82193000Y-134181000D01*
X82193000Y-133306750D01*
X82447000Y-133306750D01*
X82447000Y-134181000D01*
X83271250Y-134181000D01*
X83430000Y-134022250D01*
X83433072Y-133783000D01*
X83420812Y-133658518D01*
X83384502Y-133538820D01*
X83325537Y-133428506D01*
X83246185Y-133331815D01*
X83149494Y-133252463D01*
X83039180Y-133193498D01*
X82919482Y-133157188D01*
X82795000Y-133144928D01*
X82605750Y-133148000D01*
X82447000Y-133306750D01*
X82193000Y-133306750D01*
X82034250Y-133148000D01*
X81845000Y-133144928D01*
X81720518Y-133157188D01*
X81600820Y-133193498D01*
X81490506Y-133252463D01*
X81393815Y-133331815D01*
X81380789Y-133347687D01*
X81380000Y-133218750D01*
X81221250Y-133060000D01*
X80197000Y-133060000D01*
X79943000Y-133060000D01*
X78918750Y-133060000D01*
X78760000Y-133218750D01*
X78756928Y-133720500D01*
X78449307Y-133720500D01*
X78449307Y-132145500D01*
X78756928Y-132145500D01*
X78760000Y-132647250D01*
X78918750Y-132806000D01*
X79943000Y-132806000D01*
X79943000Y-131669250D01*
X80197000Y-131669250D01*
X80197000Y-132806000D01*
X81221250Y-132806000D01*
X81380000Y-132647250D01*
X81383072Y-132145500D01*
X81370812Y-132021018D01*
X81334502Y-131901320D01*
X81275537Y-131791006D01*
X81196185Y-131694315D01*
X81099494Y-131614963D01*
X80989180Y-131555998D01*
X80869482Y-131519688D01*
X80745000Y-131507428D01*
X80355750Y-131510500D01*
X80197000Y-131669250D01*
X79943000Y-131669250D01*
X79784250Y-131510500D01*
X79395000Y-131507428D01*
X79270518Y-131519688D01*
X79150820Y-131555998D01*
X79040506Y-131614963D01*
X78943815Y-131694315D01*
X78864463Y-131791006D01*
X78805498Y-131901320D01*
X78769188Y-132021018D01*
X78756928Y-132145500D01*
X78449307Y-132145500D01*
X78449307Y-129708603D01*
X79292860Y-128865050D01*
X79325370Y-128838370D01*
X79399560Y-128747969D01*
X79431839Y-128708637D01*
X79510954Y-128560624D01*
X79526736Y-128508597D01*
X79559672Y-128400021D01*
X79572000Y-128274852D01*
X79572000Y-128274849D01*
X79576122Y-128233000D01*
X79572000Y-128191151D01*
X79572000Y-127885909D01*
X83789940Y-123667969D01*
X87521000Y-123667969D01*
X87521000Y-123912031D01*
X87568614Y-124151403D01*
X87662012Y-124376887D01*
X87797606Y-124579816D01*
X87970184Y-124752394D01*
X88173113Y-124887988D01*
X88398597Y-124981386D01*
X88637969Y-125029000D01*
X88882031Y-125029000D01*
X89121403Y-124981386D01*
X89346887Y-124887988D01*
X89549816Y-124752394D01*
X89722394Y-124579816D01*
X89857988Y-124376887D01*
X89951386Y-124151403D01*
X89999000Y-123912031D01*
X89999000Y-123667969D01*
X89951386Y-123428597D01*
X89857988Y-123203113D01*
X89722394Y-123000184D01*
X89549816Y-122827606D01*
X89346887Y-122692012D01*
X89121403Y-122598614D01*
X88882031Y-122551000D01*
X88637969Y-122551000D01*
X88398597Y-122598614D01*
X88173113Y-122692012D01*
X87970184Y-122827606D01*
X87797606Y-123000184D01*
X87662012Y-123203113D01*
X87568614Y-123428597D01*
X87521000Y-123667969D01*
X83789940Y-123667969D01*
X85337850Y-122120060D01*
X85430184Y-122212394D01*
X85633113Y-122347988D01*
X85858597Y-122441386D01*
X86097969Y-122489000D01*
X86342031Y-122489000D01*
X86581403Y-122441386D01*
X86806887Y-122347988D01*
X87009816Y-122212394D01*
X87182394Y-122039816D01*
X87317988Y-121836887D01*
X87411386Y-121611403D01*
X87459000Y-121372031D01*
X87459000Y-121127969D01*
X87411386Y-120888597D01*
X87360190Y-120764999D01*
X87619810Y-120764999D01*
X87568614Y-120888597D01*
X87521000Y-121127969D01*
X87521000Y-121372031D01*
X87568614Y-121611403D01*
X87662012Y-121836887D01*
X87797606Y-122039816D01*
X87970184Y-122212394D01*
X88173113Y-122347988D01*
X88398597Y-122441386D01*
X88637969Y-122489000D01*
X88882031Y-122489000D01*
X89121403Y-122441386D01*
X89346887Y-122347988D01*
X89549816Y-122212394D01*
X89722394Y-122039816D01*
X89857988Y-121836887D01*
X89951386Y-121611403D01*
X89999000Y-121372031D01*
X89999000Y-121153909D01*
X90061000Y-121215909D01*
X90061000Y-121372031D01*
X90108614Y-121611403D01*
X90202012Y-121836887D01*
X90337606Y-122039816D01*
X90510184Y-122212394D01*
X90698001Y-122337890D01*
X90698000Y-126068444D01*
X90695089Y-126098000D01*
X90698000Y-126127556D01*
X90698000Y-126127565D01*
X90706711Y-126216011D01*
X90741134Y-126329489D01*
X90797034Y-126434070D01*
X90872263Y-126525737D01*
X90895234Y-126544589D01*
X92009415Y-127658771D01*
X92028263Y-127681737D01*
X92119929Y-127756966D01*
X92224510Y-127812866D01*
X92337988Y-127847289D01*
X92426434Y-127856000D01*
X92426443Y-127856000D01*
X92456000Y-127858911D01*
X92485556Y-127856000D01*
X97286645Y-127856000D01*
X99097990Y-129667346D01*
X99097990Y-130051651D01*
X99037500Y-130045693D01*
X98462500Y-130045693D01*
X98322658Y-130059466D01*
X98188190Y-130100257D01*
X98064263Y-130166497D01*
X97955641Y-130255641D01*
X97866497Y-130364263D01*
X97800257Y-130488190D01*
X97759466Y-130622658D01*
X97745693Y-130762500D01*
X97745693Y-131237500D01*
X97759466Y-131377342D01*
X97800257Y-131511810D01*
X97866497Y-131635737D01*
X97955641Y-131744359D01*
X98064263Y-131833503D01*
X98148001Y-131878261D01*
X98148000Y-132371739D01*
X98064263Y-132416497D01*
X97955641Y-132505641D01*
X97866497Y-132614263D01*
X97800257Y-132738190D01*
X97759466Y-132872658D01*
X97745693Y-133012500D01*
X97745693Y-133487500D01*
X97759466Y-133627342D01*
X97800257Y-133761810D01*
X97866497Y-133885737D01*
X97955641Y-133994359D01*
X98064263Y-134083503D01*
X98188190Y-134149743D01*
X98318001Y-134189121D01*
X98318000Y-135402110D01*
X98130184Y-135527606D01*
X97957606Y-135700184D01*
X97822012Y-135903113D01*
X97728614Y-136128597D01*
X97681000Y-136367969D01*
X97681000Y-136612031D01*
X97728614Y-136851403D01*
X97822012Y-137076887D01*
X97957606Y-137279816D01*
X98130184Y-137452394D01*
X98333113Y-137587988D01*
X98558597Y-137681386D01*
X98797969Y-137729000D01*
X99042031Y-137729000D01*
X99281403Y-137681386D01*
X99506887Y-137587988D01*
X99709816Y-137452394D01*
X99882394Y-137279816D01*
X100017988Y-137076887D01*
X100111386Y-136851403D01*
X100159000Y-136612031D01*
X100159000Y-136367969D01*
X100111386Y-136128597D01*
X100017988Y-135903113D01*
X99882394Y-135700184D01*
X99709816Y-135527606D01*
X99522000Y-135402110D01*
X99522000Y-134173973D01*
X99523815Y-134176185D01*
X99620506Y-134255537D01*
X99730820Y-134314502D01*
X99850518Y-134350812D01*
X99975000Y-134363072D01*
X100214250Y-134360000D01*
X100373000Y-134201250D01*
X100373000Y-133377000D01*
X100627000Y-133377000D01*
X100627000Y-134201250D01*
X100785750Y-134360000D01*
X101025000Y-134363072D01*
X101149482Y-134350812D01*
X101269180Y-134314502D01*
X101379494Y-134255537D01*
X101476185Y-134176185D01*
X101555537Y-134079494D01*
X101614502Y-133969180D01*
X101650812Y-133849482D01*
X101663072Y-133725000D01*
X101660000Y-133535750D01*
X101501250Y-133377000D01*
X100627000Y-133377000D01*
X100373000Y-133377000D01*
X100353000Y-133377000D01*
X100353000Y-133123000D01*
X100373000Y-133123000D01*
X100373000Y-132298750D01*
X100627000Y-132298750D01*
X100627000Y-133123000D01*
X101501250Y-133123000D01*
X101660000Y-132964250D01*
X101663072Y-132775000D01*
X101650812Y-132650518D01*
X101614502Y-132530820D01*
X101555537Y-132420506D01*
X101476185Y-132323815D01*
X101379494Y-132244463D01*
X101269180Y-132185498D01*
X101149482Y-132149188D01*
X101025000Y-132136928D01*
X100785750Y-132140000D01*
X100627000Y-132298750D01*
X100373000Y-132298750D01*
X100214250Y-132140000D01*
X99975000Y-132136928D01*
X99850518Y-132149188D01*
X99730820Y-132185498D01*
X99620506Y-132244463D01*
X99523815Y-132323815D01*
X99444463Y-132420506D01*
X99443292Y-132422697D01*
X99435737Y-132416497D01*
X99352000Y-132371739D01*
X99352000Y-131878261D01*
X99435737Y-131833503D01*
X99544359Y-131744359D01*
X99625000Y-131646098D01*
X99705641Y-131744359D01*
X99814263Y-131833503D01*
X99938190Y-131899743D01*
X100072658Y-131940534D01*
X100212500Y-131954307D01*
X100787500Y-131954307D01*
X100927342Y-131940534D01*
X101061810Y-131899743D01*
X101185737Y-131833503D01*
X101294359Y-131744359D01*
X101383503Y-131635737D01*
X101449743Y-131511810D01*
X101490534Y-131377342D01*
X101504307Y-131237500D01*
X101504307Y-130762500D01*
X101490534Y-130622658D01*
X101449743Y-130488190D01*
X101383503Y-130364263D01*
X101294359Y-130255641D01*
X101185737Y-130166497D01*
X101061810Y-130100257D01*
X100927342Y-130059466D01*
X100787500Y-130045693D01*
X100397048Y-130045693D01*
X100301990Y-129950635D01*
X100301990Y-129447546D01*
X100304901Y-129417989D01*
X100301990Y-129388433D01*
X100301990Y-129388424D01*
X100293279Y-129299978D01*
X100258856Y-129186500D01*
X100202956Y-129081919D01*
X100127727Y-128990253D01*
X100104762Y-128971406D01*
X97982589Y-126849234D01*
X97963737Y-126826263D01*
X97872071Y-126751034D01*
X97767490Y-126695134D01*
X97654012Y-126660711D01*
X97565566Y-126652000D01*
X97565556Y-126652000D01*
X97536000Y-126649089D01*
X97506444Y-126652000D01*
X92705356Y-126652000D01*
X91902000Y-125848645D01*
X91902000Y-123667969D01*
X92601000Y-123667969D01*
X92601000Y-123912031D01*
X92648614Y-124151403D01*
X92742012Y-124376887D01*
X92877606Y-124579816D01*
X93050184Y-124752394D01*
X93253113Y-124887988D01*
X93478597Y-124981386D01*
X93717969Y-125029000D01*
X93962031Y-125029000D01*
X94201403Y-124981386D01*
X94426887Y-124887988D01*
X94629816Y-124752394D01*
X94802394Y-124579816D01*
X94937988Y-124376887D01*
X95031386Y-124151403D01*
X95079000Y-123912031D01*
X95079000Y-123667969D01*
X95141000Y-123667969D01*
X95141000Y-123912031D01*
X95188614Y-124151403D01*
X95282012Y-124376887D01*
X95417606Y-124579816D01*
X95590184Y-124752394D01*
X95793113Y-124887988D01*
X96018597Y-124981386D01*
X96257969Y-125029000D01*
X96502031Y-125029000D01*
X96741403Y-124981386D01*
X96966887Y-124887988D01*
X97169816Y-124752394D01*
X97342394Y-124579816D01*
X97477988Y-124376887D01*
X97571386Y-124151403D01*
X97619000Y-123912031D01*
X97619000Y-123667969D01*
X97571386Y-123428597D01*
X97477988Y-123203113D01*
X97342394Y-123000184D01*
X97169816Y-122827606D01*
X96966887Y-122692012D01*
X96741403Y-122598614D01*
X96502031Y-122551000D01*
X96257969Y-122551000D01*
X96018597Y-122598614D01*
X95793113Y-122692012D01*
X95590184Y-122827606D01*
X95417606Y-123000184D01*
X95282012Y-123203113D01*
X95188614Y-123428597D01*
X95141000Y-123667969D01*
X95079000Y-123667969D01*
X95031386Y-123428597D01*
X94937988Y-123203113D01*
X94802394Y-123000184D01*
X94629816Y-122827606D01*
X94426887Y-122692012D01*
X94201403Y-122598614D01*
X93962031Y-122551000D01*
X93717969Y-122551000D01*
X93478597Y-122598614D01*
X93253113Y-122692012D01*
X93050184Y-122827606D01*
X92877606Y-123000184D01*
X92742012Y-123203113D01*
X92648614Y-123428597D01*
X92601000Y-123667969D01*
X91902000Y-123667969D01*
X91902000Y-122337890D01*
X92089816Y-122212394D01*
X92262394Y-122039816D01*
X92397988Y-121836887D01*
X92491386Y-121611403D01*
X92539000Y-121372031D01*
X92539000Y-121127969D01*
X92601000Y-121127969D01*
X92601000Y-121372031D01*
X92648614Y-121611403D01*
X92742012Y-121836887D01*
X92877606Y-122039816D01*
X93050184Y-122212394D01*
X93253113Y-122347988D01*
X93478597Y-122441386D01*
X93717969Y-122489000D01*
X93962031Y-122489000D01*
X94201403Y-122441386D01*
X94426887Y-122347988D01*
X94629816Y-122212394D01*
X94802394Y-122039816D01*
X94937988Y-121836887D01*
X95031386Y-121611403D01*
X95079000Y-121372031D01*
X95079000Y-121127969D01*
X95031386Y-120888597D01*
X94937988Y-120663113D01*
X94802394Y-120460184D01*
X94629816Y-120287606D01*
X94426887Y-120152012D01*
X94201403Y-120058614D01*
X93962031Y-120011000D01*
X93717969Y-120011000D01*
X93478597Y-120058614D01*
X93253113Y-120152012D01*
X93050184Y-120287606D01*
X92877606Y-120460184D01*
X92742012Y-120663113D01*
X92648614Y-120888597D01*
X92601000Y-121127969D01*
X92539000Y-121127969D01*
X92491386Y-120888597D01*
X92397988Y-120663113D01*
X92262394Y-120460184D01*
X92089816Y-120287606D01*
X91886887Y-120152012D01*
X91661403Y-120058614D01*
X91422031Y-120011000D01*
X91265909Y-120011000D01*
X91170054Y-119915145D01*
X91170050Y-119915140D01*
X90595053Y-119340144D01*
X90568369Y-119307629D01*
X90438635Y-119201160D01*
X90290623Y-119122045D01*
X90130020Y-119073327D01*
X90004851Y-119060999D01*
X90004848Y-119060999D01*
X89962999Y-119056877D01*
X89921150Y-119060999D01*
X80895909Y-119060999D01*
X80488920Y-118654010D01*
X101630285Y-118654010D01*
X103242372Y-120266098D01*
X103210184Y-120287606D01*
X103083954Y-120413836D01*
X102428349Y-119758232D01*
X102409498Y-119735262D01*
X102317832Y-119660033D01*
X102213251Y-119604133D01*
X102099773Y-119569710D01*
X102011327Y-119560999D01*
X102011317Y-119560999D01*
X101981761Y-119558088D01*
X101952205Y-119560999D01*
X96418930Y-119560999D01*
X96389371Y-119558088D01*
X96359812Y-119560999D01*
X96359805Y-119560999D01*
X96271359Y-119569710D01*
X96157881Y-119604133D01*
X96053300Y-119660033D01*
X95961634Y-119735262D01*
X95957408Y-119740411D01*
X95952264Y-119744633D01*
X95933417Y-119767598D01*
X95933416Y-119767599D01*
X95877035Y-119836299D01*
X95821134Y-119940881D01*
X95786712Y-120054358D01*
X95775966Y-120163470D01*
X95590184Y-120287606D01*
X95417606Y-120460184D01*
X95282012Y-120663113D01*
X95188614Y-120888597D01*
X95141000Y-121127969D01*
X95141000Y-121372031D01*
X95188614Y-121611403D01*
X95282012Y-121836887D01*
X95417606Y-122039816D01*
X95590184Y-122212394D01*
X95793113Y-122347988D01*
X96018597Y-122441386D01*
X96257969Y-122489000D01*
X96502031Y-122489000D01*
X96741403Y-122441386D01*
X96966887Y-122347988D01*
X97169816Y-122212394D01*
X97342394Y-122039816D01*
X97477988Y-121836887D01*
X97571386Y-121611403D01*
X97619000Y-121372031D01*
X97619000Y-121127969D01*
X97571386Y-120888597D01*
X97520190Y-120764999D01*
X97779810Y-120764999D01*
X97728614Y-120888597D01*
X97681000Y-121127969D01*
X97681000Y-121372031D01*
X97728614Y-121611403D01*
X97822012Y-121836887D01*
X97957606Y-122039816D01*
X98130184Y-122212394D01*
X98333113Y-122347988D01*
X98558597Y-122441386D01*
X98797969Y-122489000D01*
X99042031Y-122489000D01*
X99263575Y-122444932D01*
X99277226Y-122458583D01*
X99277237Y-122458592D01*
X99518248Y-122699604D01*
X99506887Y-122692012D01*
X99281403Y-122598614D01*
X99042031Y-122551000D01*
X98797969Y-122551000D01*
X98558597Y-122598614D01*
X98333113Y-122692012D01*
X98130184Y-122827606D01*
X97957606Y-123000184D01*
X97822012Y-123203113D01*
X97728614Y-123428597D01*
X97681000Y-123667969D01*
X97681000Y-123912031D01*
X97728614Y-124151403D01*
X97822012Y-124376887D01*
X97957606Y-124579816D01*
X98130184Y-124752394D01*
X98333113Y-124887988D01*
X98558597Y-124981386D01*
X98797969Y-125029000D01*
X99042031Y-125029000D01*
X99281403Y-124981386D01*
X99506887Y-124887988D01*
X99709816Y-124752394D01*
X99882394Y-124579816D01*
X100017988Y-124376887D01*
X100111386Y-124151403D01*
X100159000Y-123912031D01*
X100159000Y-123667969D01*
X100111386Y-123428597D01*
X100017988Y-123203113D01*
X100010397Y-123191752D01*
X101945002Y-125126358D01*
X101945001Y-135349810D01*
X101821403Y-135298614D01*
X101582031Y-135251000D01*
X101337969Y-135251000D01*
X101098597Y-135298614D01*
X100873113Y-135392012D01*
X100670184Y-135527606D01*
X100497606Y-135700184D01*
X100362012Y-135903113D01*
X100268614Y-136128597D01*
X100221000Y-136367969D01*
X100221000Y-136612031D01*
X100268614Y-136851403D01*
X100362012Y-137076887D01*
X100497606Y-137279816D01*
X100670184Y-137452394D01*
X100873113Y-137587988D01*
X101098597Y-137681386D01*
X101337969Y-137729000D01*
X101582031Y-137729000D01*
X101821403Y-137681386D01*
X101945001Y-137630190D01*
X101945001Y-138063562D01*
X98147229Y-141861335D01*
X98124264Y-141880182D01*
X98105417Y-141903147D01*
X98105416Y-141903148D01*
X98049035Y-141971848D01*
X97993134Y-142076430D01*
X97958712Y-142189907D01*
X97947089Y-142307919D01*
X97949030Y-142327626D01*
X97811192Y-142401302D01*
X97789001Y-142419514D01*
X97789001Y-141716557D01*
X97791912Y-141687000D01*
X97789001Y-141657444D01*
X97789001Y-141657435D01*
X97780290Y-141568989D01*
X97745867Y-141455511D01*
X97689967Y-141350930D01*
X97655446Y-141308866D01*
X97633585Y-141282228D01*
X97633581Y-141282224D01*
X97614738Y-141259264D01*
X97591777Y-141240420D01*
X97254307Y-140902952D01*
X97254307Y-140512500D01*
X97240534Y-140372658D01*
X97199743Y-140238190D01*
X97133503Y-140114263D01*
X97044359Y-140005641D01*
X96935737Y-139916497D01*
X96858101Y-139875000D01*
X96935737Y-139833503D01*
X97044359Y-139744359D01*
X97133503Y-139635737D01*
X97199743Y-139511810D01*
X97240534Y-139377342D01*
X97254307Y-139237500D01*
X97254307Y-138762500D01*
X97240534Y-138622658D01*
X97199743Y-138488190D01*
X97133503Y-138364263D01*
X97044359Y-138255641D01*
X96982000Y-138204464D01*
X96982000Y-137577890D01*
X97169816Y-137452394D01*
X97342394Y-137279816D01*
X97477988Y-137076887D01*
X97571386Y-136851403D01*
X97619000Y-136612031D01*
X97619000Y-136367969D01*
X97571386Y-136128597D01*
X97477988Y-135903113D01*
X97342394Y-135700184D01*
X97169816Y-135527606D01*
X96966887Y-135392012D01*
X96741403Y-135298614D01*
X96502031Y-135251000D01*
X96257969Y-135251000D01*
X96018597Y-135298614D01*
X95793113Y-135392012D01*
X95590184Y-135527606D01*
X95417606Y-135700184D01*
X95282012Y-135903113D01*
X95188614Y-136128597D01*
X95141000Y-136367969D01*
X95141000Y-136612031D01*
X95188614Y-136851403D01*
X95282012Y-137076887D01*
X95417606Y-137279816D01*
X95590184Y-137452394D01*
X95778000Y-137577890D01*
X95778001Y-138073013D01*
X95688190Y-138100257D01*
X95564263Y-138166497D01*
X95556708Y-138172697D01*
X95555537Y-138170506D01*
X95476185Y-138073815D01*
X95379494Y-137994463D01*
X95269180Y-137935498D01*
X95149482Y-137899188D01*
X95025000Y-137886928D01*
X94785750Y-137890000D01*
X94627000Y-138048750D01*
X94627000Y-138873000D01*
X94647000Y-138873000D01*
X94647000Y-139127000D01*
X94627000Y-139127000D01*
X94627000Y-139147000D01*
X94373000Y-139147000D01*
X94373000Y-139127000D01*
X93498750Y-139127000D01*
X93340000Y-139285750D01*
X93336928Y-139475000D01*
X93349188Y-139599482D01*
X93385498Y-139719180D01*
X93444463Y-139829494D01*
X93523815Y-139926185D01*
X93620506Y-140005537D01*
X93679742Y-140037200D01*
X93616497Y-140114263D01*
X93550257Y-140238190D01*
X93509466Y-140372658D01*
X93495693Y-140512500D01*
X93495693Y-140987500D01*
X93509466Y-141127342D01*
X93550257Y-141261810D01*
X93616497Y-141385737D01*
X93705641Y-141494359D01*
X93814263Y-141583503D01*
X93898001Y-141628262D01*
X93898000Y-143068443D01*
X93895089Y-143098000D01*
X93898000Y-143127556D01*
X93898000Y-143127565D01*
X93906711Y-143216011D01*
X93941134Y-143329489D01*
X93997034Y-143434070D01*
X94072263Y-143525737D01*
X94095233Y-143544588D01*
X94465415Y-143914771D01*
X94484263Y-143937737D01*
X94575929Y-144012966D01*
X94680510Y-144068866D01*
X94682693Y-144069528D01*
X94682693Y-144360000D01*
X94691903Y-144453508D01*
X94719178Y-144543423D01*
X94763471Y-144626289D01*
X94823079Y-144698921D01*
X94895711Y-144758529D01*
X94978577Y-144802822D01*
X95068492Y-144830097D01*
X95162000Y-144839307D01*
X95163368Y-144839307D01*
X95011731Y-144952412D01*
X94816822Y-145168645D01*
X94667843Y-145418748D01*
X94570519Y-145693109D01*
X94691186Y-145923000D01*
X95885000Y-145923000D01*
X95885000Y-145903000D01*
X96139000Y-145903000D01*
X96139000Y-145923000D01*
X96159000Y-145923000D01*
X96159000Y-146177000D01*
X96139000Y-146177000D01*
X96139000Y-147370155D01*
X96368890Y-147491476D01*
X96516099Y-147446825D01*
X96778920Y-147321641D01*
X97012269Y-147147588D01*
X97207178Y-146931355D01*
X97356157Y-146681252D01*
X97367560Y-146649105D01*
X97443302Y-146790808D01*
X97609130Y-146992870D01*
X97811192Y-147158698D01*
X98041722Y-147281919D01*
X98291863Y-147357799D01*
X98486816Y-147377000D01*
X98617184Y-147377000D01*
X98812137Y-147357799D01*
X98962754Y-147312109D01*
X99855001Y-148204357D01*
X99855000Y-149616739D01*
X99771263Y-149661497D01*
X99662641Y-149750641D01*
X99573497Y-149859263D01*
X99507257Y-149983190D01*
X99466466Y-150117658D01*
X99452693Y-150257500D01*
X99452693Y-150732500D01*
X99466466Y-150872342D01*
X99507257Y-151006810D01*
X99573497Y-151130737D01*
X99662641Y-151239359D01*
X99771263Y-151328503D01*
X99895190Y-151394743D01*
X100029658Y-151435534D01*
X100169500Y-151449307D01*
X100744500Y-151449307D01*
X100884342Y-151435534D01*
X101018810Y-151394743D01*
X101142737Y-151328503D01*
X101251359Y-151239359D01*
X101332000Y-151141098D01*
X101412641Y-151239359D01*
X101521263Y-151328503D01*
X101645190Y-151394743D01*
X101779658Y-151435534D01*
X101919500Y-151449307D01*
X102494500Y-151449307D01*
X102634342Y-151435534D01*
X102768810Y-151394743D01*
X102892737Y-151328503D01*
X103001359Y-151239359D01*
X103090503Y-151130737D01*
X103156743Y-151006810D01*
X103197534Y-150872342D01*
X103211307Y-150732500D01*
X103211307Y-150257500D01*
X103197534Y-150117658D01*
X103156743Y-149983190D01*
X103090503Y-149859263D01*
X103001359Y-149750641D01*
X102892737Y-149661497D01*
X102809000Y-149616739D01*
X102809000Y-147724355D01*
X103221246Y-147312110D01*
X103371863Y-147357799D01*
X103566816Y-147377000D01*
X103697184Y-147377000D01*
X103892137Y-147357799D01*
X104142278Y-147281919D01*
X104372808Y-147158698D01*
X104547555Y-147015287D01*
X104549567Y-147017738D01*
X104569263Y-147041738D01*
X104592228Y-147060585D01*
X108521419Y-150989778D01*
X108540262Y-151012738D01*
X108563222Y-151031581D01*
X108563226Y-151031585D01*
X108590376Y-151053866D01*
X108631928Y-151087967D01*
X108736509Y-151143867D01*
X108849987Y-151178290D01*
X108938433Y-151187001D01*
X108938442Y-151187001D01*
X108967998Y-151189912D01*
X108997555Y-151187001D01*
X114110445Y-151187001D01*
X114140001Y-151189912D01*
X114169557Y-151187001D01*
X114169567Y-151187001D01*
X114258013Y-151178290D01*
X114371491Y-151143867D01*
X114476072Y-151087967D01*
X114567738Y-151012738D01*
X114586590Y-150989767D01*
X117911779Y-147664580D01*
X117934738Y-147645738D01*
X117953581Y-147622778D01*
X117953585Y-147622774D01*
X118009966Y-147554073D01*
X118009968Y-147554071D01*
X118065867Y-147449491D01*
X118100290Y-147336013D01*
X118109001Y-147247567D01*
X118109001Y-147247558D01*
X118111912Y-147218002D01*
X118109001Y-147188445D01*
X118109001Y-147140486D01*
X118131192Y-147158698D01*
X118361722Y-147281919D01*
X118611863Y-147357799D01*
X118806816Y-147377000D01*
X118937184Y-147377000D01*
X119132137Y-147357799D01*
X119382278Y-147281919D01*
X119612808Y-147158698D01*
X119814870Y-146992870D01*
X119980698Y-146790808D01*
X120103919Y-146560278D01*
X120179799Y-146310137D01*
X120205420Y-146050000D01*
X120179799Y-145789863D01*
X120103919Y-145539722D01*
X119980698Y-145309192D01*
X119814870Y-145107130D01*
X119612808Y-144941302D01*
X119382278Y-144818081D01*
X119256743Y-144780000D01*
X119382278Y-144741919D01*
X119612808Y-144618698D01*
X119814870Y-144452870D01*
X119980698Y-144250808D01*
X120103919Y-144020278D01*
X120179799Y-143770137D01*
X120205420Y-143510000D01*
X120179799Y-143249863D01*
X120103919Y-142999722D01*
X119980698Y-142769192D01*
X119814870Y-142567130D01*
X119612808Y-142401302D01*
X119382278Y-142278081D01*
X119132137Y-142202201D01*
X118937184Y-142183000D01*
X118806816Y-142183000D01*
X118611863Y-142202201D01*
X118361722Y-142278081D01*
X118131192Y-142401302D01*
X118109001Y-142419514D01*
X118109001Y-137326557D01*
X118111912Y-137297000D01*
X118109001Y-137267444D01*
X118109001Y-137267435D01*
X118100290Y-137178989D01*
X118065867Y-137065511D01*
X118009967Y-136960930D01*
X117934738Y-136869264D01*
X117911770Y-136850414D01*
X117908590Y-136847234D01*
X117908583Y-136847226D01*
X117894932Y-136833575D01*
X117939000Y-136612031D01*
X117939000Y-136367969D01*
X118001000Y-136367969D01*
X118001000Y-136612031D01*
X118048614Y-136851403D01*
X118142012Y-137076887D01*
X118277606Y-137279816D01*
X118450184Y-137452394D01*
X118653113Y-137587988D01*
X118878597Y-137681386D01*
X119117969Y-137729000D01*
X119362031Y-137729000D01*
X119601403Y-137681386D01*
X119826887Y-137587988D01*
X120029816Y-137452394D01*
X120202394Y-137279816D01*
X120337988Y-137076887D01*
X120431386Y-136851403D01*
X120479000Y-136612031D01*
X120479000Y-136367969D01*
X120431386Y-136128597D01*
X120337988Y-135903113D01*
X120202394Y-135700184D01*
X120029816Y-135527606D01*
X119826887Y-135392012D01*
X119601403Y-135298614D01*
X119362031Y-135251000D01*
X119117969Y-135251000D01*
X118878597Y-135298614D01*
X118653113Y-135392012D01*
X118450184Y-135527606D01*
X118277606Y-135700184D01*
X118142012Y-135903113D01*
X118048614Y-136128597D01*
X118001000Y-136367969D01*
X117939000Y-136367969D01*
X117891386Y-136128597D01*
X117797988Y-135903113D01*
X117662394Y-135700184D01*
X117489816Y-135527606D01*
X117286887Y-135392012D01*
X117061403Y-135298614D01*
X116822031Y-135251000D01*
X116577969Y-135251000D01*
X116338597Y-135298614D01*
X116113113Y-135392012D01*
X115910184Y-135527606D01*
X115849001Y-135588789D01*
X115849001Y-133827969D01*
X118001000Y-133827969D01*
X118001000Y-134072031D01*
X118048614Y-134311403D01*
X118142012Y-134536887D01*
X118277606Y-134739816D01*
X118450184Y-134912394D01*
X118653113Y-135047988D01*
X118878597Y-135141386D01*
X119117969Y-135189000D01*
X119362031Y-135189000D01*
X119601403Y-135141386D01*
X119826887Y-135047988D01*
X120029816Y-134912394D01*
X120202394Y-134739816D01*
X120337988Y-134536887D01*
X120431386Y-134311403D01*
X120479000Y-134072031D01*
X120479000Y-133827969D01*
X120431386Y-133588597D01*
X120337988Y-133363113D01*
X120202394Y-133160184D01*
X120029816Y-132987606D01*
X119826887Y-132852012D01*
X119601403Y-132758614D01*
X119362031Y-132711000D01*
X119117969Y-132711000D01*
X118878597Y-132758614D01*
X118653113Y-132852012D01*
X118450184Y-132987606D01*
X118277606Y-133160184D01*
X118142012Y-133363113D01*
X118048614Y-133588597D01*
X118001000Y-133827969D01*
X115849001Y-133827969D01*
X115849001Y-131287969D01*
X118001000Y-131287969D01*
X118001000Y-131532031D01*
X118048614Y-131771403D01*
X118142012Y-131996887D01*
X118277606Y-132199816D01*
X118450184Y-132372394D01*
X118653113Y-132507988D01*
X118878597Y-132601386D01*
X119117969Y-132649000D01*
X119362031Y-132649000D01*
X119601403Y-132601386D01*
X119826887Y-132507988D01*
X120029816Y-132372394D01*
X120202394Y-132199816D01*
X120337988Y-131996887D01*
X120431386Y-131771403D01*
X120479000Y-131532031D01*
X120479000Y-131287969D01*
X120431386Y-131048597D01*
X120337988Y-130823113D01*
X120202394Y-130620184D01*
X120029816Y-130447606D01*
X119826887Y-130312012D01*
X119601403Y-130218614D01*
X119362031Y-130171000D01*
X119117969Y-130171000D01*
X118878597Y-130218614D01*
X118653113Y-130312012D01*
X118450184Y-130447606D01*
X118277606Y-130620184D01*
X118142012Y-130823113D01*
X118048614Y-131048597D01*
X118001000Y-131287969D01*
X115849001Y-131287969D01*
X115849001Y-128747969D01*
X118001000Y-128747969D01*
X118001000Y-128992031D01*
X118048614Y-129231403D01*
X118142012Y-129456887D01*
X118277606Y-129659816D01*
X118450184Y-129832394D01*
X118653113Y-129967988D01*
X118878597Y-130061386D01*
X119117969Y-130109000D01*
X119362031Y-130109000D01*
X119601403Y-130061386D01*
X119826887Y-129967988D01*
X120029816Y-129832394D01*
X120202394Y-129659816D01*
X120337988Y-129456887D01*
X120431386Y-129231403D01*
X120479000Y-128992031D01*
X120479000Y-128747969D01*
X120431386Y-128508597D01*
X120337988Y-128283113D01*
X120202394Y-128080184D01*
X120029816Y-127907606D01*
X119826887Y-127772012D01*
X119601403Y-127678614D01*
X119362031Y-127631000D01*
X119117969Y-127631000D01*
X118878597Y-127678614D01*
X118653113Y-127772012D01*
X118450184Y-127907606D01*
X118277606Y-128080184D01*
X118142012Y-128283113D01*
X118048614Y-128508597D01*
X118001000Y-128747969D01*
X115849001Y-128747969D01*
X115849001Y-127446557D01*
X115851912Y-127417000D01*
X115849001Y-127387444D01*
X115849001Y-127387435D01*
X115840290Y-127298989D01*
X115805867Y-127185511D01*
X115749967Y-127080930D01*
X115730627Y-127057364D01*
X115693585Y-127012228D01*
X115693581Y-127012224D01*
X115674738Y-126989264D01*
X115651778Y-126970421D01*
X114889326Y-126207969D01*
X118001000Y-126207969D01*
X118001000Y-126452031D01*
X118048614Y-126691403D01*
X118142012Y-126916887D01*
X118277606Y-127119816D01*
X118450184Y-127292394D01*
X118653113Y-127427988D01*
X118878597Y-127521386D01*
X119117969Y-127569000D01*
X119362031Y-127569000D01*
X119601403Y-127521386D01*
X119826887Y-127427988D01*
X120029816Y-127292394D01*
X120202394Y-127119816D01*
X120337988Y-126916887D01*
X120431386Y-126691403D01*
X120479000Y-126452031D01*
X120479000Y-126207969D01*
X120431386Y-125968597D01*
X120337988Y-125743113D01*
X120202394Y-125540184D01*
X120029816Y-125367606D01*
X119826887Y-125232012D01*
X119601403Y-125138614D01*
X119362031Y-125091000D01*
X119117969Y-125091000D01*
X118878597Y-125138614D01*
X118653113Y-125232012D01*
X118450184Y-125367606D01*
X118277606Y-125540184D01*
X118142012Y-125743113D01*
X118048614Y-125968597D01*
X118001000Y-126207969D01*
X114889326Y-126207969D01*
X111021752Y-122340397D01*
X111033113Y-122347988D01*
X111258597Y-122441386D01*
X111497969Y-122489000D01*
X111742031Y-122489000D01*
X111981403Y-122441386D01*
X112206887Y-122347988D01*
X112409816Y-122212394D01*
X112440427Y-122181783D01*
X113000416Y-122741772D01*
X113019264Y-122764738D01*
X113110930Y-122839967D01*
X113215511Y-122895867D01*
X113328989Y-122930290D01*
X113417435Y-122939001D01*
X113417444Y-122939001D01*
X113447000Y-122941912D01*
X113476557Y-122939001D01*
X117537646Y-122939001D01*
X118045068Y-123446424D01*
X118001000Y-123667969D01*
X118001000Y-123912031D01*
X118048614Y-124151403D01*
X118142012Y-124376887D01*
X118277606Y-124579816D01*
X118450184Y-124752394D01*
X118653113Y-124887988D01*
X118878597Y-124981386D01*
X119117969Y-125029000D01*
X119362031Y-125029000D01*
X119601403Y-124981386D01*
X119826887Y-124887988D01*
X120029816Y-124752394D01*
X120202394Y-124579816D01*
X120337988Y-124376887D01*
X120431386Y-124151403D01*
X120479000Y-123912031D01*
X120479000Y-123667969D01*
X120431386Y-123428597D01*
X120337988Y-123203113D01*
X120202394Y-123000184D01*
X120029816Y-122827606D01*
X119826887Y-122692012D01*
X119601403Y-122598614D01*
X119362031Y-122551000D01*
X119117969Y-122551000D01*
X118896424Y-122595068D01*
X118641752Y-122340397D01*
X118653113Y-122347988D01*
X118878597Y-122441386D01*
X119117969Y-122489000D01*
X119362031Y-122489000D01*
X119601403Y-122441386D01*
X119826887Y-122347988D01*
X120029816Y-122212394D01*
X120202394Y-122039816D01*
X120337988Y-121836887D01*
X120431386Y-121611403D01*
X120479000Y-121372031D01*
X120479000Y-121127969D01*
X120431386Y-120888597D01*
X120337988Y-120663113D01*
X120202394Y-120460184D01*
X120029816Y-120287606D01*
X119826887Y-120152012D01*
X119601403Y-120058614D01*
X119362031Y-120011000D01*
X119117969Y-120011000D01*
X118878597Y-120058614D01*
X118653113Y-120152012D01*
X118450184Y-120287606D01*
X118277606Y-120460184D01*
X118142012Y-120663113D01*
X118048614Y-120888597D01*
X118001000Y-121127969D01*
X118001000Y-121372031D01*
X118048614Y-121611403D01*
X118142012Y-121836887D01*
X118160789Y-121864989D01*
X118123072Y-121834035D01*
X118018491Y-121778135D01*
X117905013Y-121743712D01*
X117839264Y-121737236D01*
X117891386Y-121611403D01*
X117939000Y-121372031D01*
X117939000Y-121127969D01*
X117891386Y-120888597D01*
X117797988Y-120663113D01*
X117662394Y-120460184D01*
X117489816Y-120287606D01*
X117286887Y-120152012D01*
X117061403Y-120058614D01*
X116822031Y-120011000D01*
X116577969Y-120011000D01*
X116338597Y-120058614D01*
X116113113Y-120152012D01*
X115910184Y-120287606D01*
X115737606Y-120460184D01*
X115602012Y-120663113D01*
X115508614Y-120888597D01*
X115461000Y-121127969D01*
X115461000Y-121372031D01*
X115508614Y-121611403D01*
X115559810Y-121735001D01*
X115300190Y-121735001D01*
X115351386Y-121611403D01*
X115399000Y-121372031D01*
X115399000Y-121127969D01*
X115351386Y-120888597D01*
X115257988Y-120663113D01*
X115122394Y-120460184D01*
X114949816Y-120287606D01*
X114746887Y-120152012D01*
X114521403Y-120058614D01*
X114282031Y-120011000D01*
X114037969Y-120011000D01*
X113798597Y-120058614D01*
X113573113Y-120152012D01*
X113370184Y-120287606D01*
X113229353Y-120428437D01*
X113209967Y-120392168D01*
X113134738Y-120300502D01*
X113111773Y-120281655D01*
X106695395Y-113865278D01*
X106743097Y-113702702D01*
X105930000Y-112889605D01*
X105915858Y-112903748D01*
X105736253Y-112724143D01*
X105750395Y-112710000D01*
X106109605Y-112710000D01*
X106922702Y-113523097D01*
X107166671Y-113451514D01*
X107267055Y-113239364D01*
X107298337Y-113314886D01*
X107438089Y-113524040D01*
X107615960Y-113701911D01*
X107825114Y-113841663D01*
X108057513Y-113937926D01*
X108304226Y-113987000D01*
X108555774Y-113987000D01*
X108802487Y-113937926D01*
X109034886Y-113841663D01*
X109244040Y-113701911D01*
X109421911Y-113524040D01*
X109430000Y-113511934D01*
X109438089Y-113524040D01*
X109615960Y-113701911D01*
X109825114Y-113841663D01*
X110057513Y-113937926D01*
X110304226Y-113987000D01*
X110555774Y-113987000D01*
X110802487Y-113937926D01*
X111034886Y-113841663D01*
X111244040Y-113701911D01*
X111421911Y-113524040D01*
X111561663Y-113314886D01*
X111650693Y-113099949D01*
X111650693Y-113510000D01*
X111659903Y-113603508D01*
X111687178Y-113693423D01*
X111731471Y-113776289D01*
X111791079Y-113848921D01*
X111863711Y-113908529D01*
X111946577Y-113952822D01*
X112036492Y-113980097D01*
X112130000Y-113989307D01*
X113730000Y-113989307D01*
X113823508Y-113980097D01*
X113913423Y-113952822D01*
X113996289Y-113908529D01*
X114068921Y-113848921D01*
X114128529Y-113776289D01*
X114172822Y-113693423D01*
X114200097Y-113603508D01*
X114209307Y-113510000D01*
X114209307Y-111910000D01*
X114200097Y-111816492D01*
X114172822Y-111726577D01*
X114128529Y-111643711D01*
X114068921Y-111571079D01*
X113996289Y-111511471D01*
X113959213Y-111491653D01*
X114687952Y-111491653D01*
X114843962Y-111807214D01*
X115218745Y-111998020D01*
X115623551Y-112112044D01*
X116042824Y-112144902D01*
X116460451Y-112095334D01*
X116860383Y-111965243D01*
X117156038Y-111807214D01*
X117312048Y-111491653D01*
X116000000Y-110179605D01*
X114687952Y-111491653D01*
X113959213Y-111491653D01*
X113913423Y-111467178D01*
X113823508Y-111439903D01*
X113730000Y-111430693D01*
X113236267Y-111430693D01*
X113170534Y-111410753D01*
X112930000Y-111387062D01*
X112689467Y-111410753D01*
X112623734Y-111430693D01*
X112130000Y-111430693D01*
X112036492Y-111439903D01*
X111946577Y-111467178D01*
X111863711Y-111511471D01*
X111791079Y-111571079D01*
X111731471Y-111643711D01*
X111687178Y-111726577D01*
X111659903Y-111816492D01*
X111650693Y-111910000D01*
X111650693Y-112320051D01*
X111561663Y-112105114D01*
X111421911Y-111895960D01*
X111244040Y-111718089D01*
X111034886Y-111578337D01*
X110802487Y-111482074D01*
X110555774Y-111433000D01*
X110304226Y-111433000D01*
X110057513Y-111482074D01*
X109825114Y-111578337D01*
X109615960Y-111718089D01*
X109438089Y-111895960D01*
X109430000Y-111908066D01*
X109421911Y-111895960D01*
X109244040Y-111718089D01*
X109034886Y-111578337D01*
X108802487Y-111482074D01*
X108555774Y-111433000D01*
X108304226Y-111433000D01*
X108057513Y-111482074D01*
X107825114Y-111578337D01*
X107615960Y-111718089D01*
X107438089Y-111895960D01*
X107298337Y-112105114D01*
X107265786Y-112183700D01*
X107233603Y-112093708D01*
X107166671Y-111968486D01*
X106922702Y-111896903D01*
X106109605Y-112710000D01*
X105750395Y-112710000D01*
X104937298Y-111896903D01*
X104693329Y-111968486D01*
X104572429Y-112223996D01*
X104503700Y-112498184D01*
X104489783Y-112780512D01*
X104531213Y-113060130D01*
X104593035Y-113233001D01*
X94550357Y-113233001D01*
X94378349Y-113060994D01*
X94413178Y-113022355D01*
X94562157Y-112772252D01*
X94659481Y-112497891D01*
X94538814Y-112268000D01*
X93345000Y-112268000D01*
X93345000Y-112288000D01*
X93091000Y-112288000D01*
X93091000Y-112268000D01*
X93071000Y-112268000D01*
X93071000Y-112014000D01*
X93091000Y-112014000D01*
X93091000Y-110820845D01*
X93345000Y-110820845D01*
X93345000Y-112014000D01*
X94538814Y-112014000D01*
X94659481Y-111784109D01*
X94562157Y-111509748D01*
X94551379Y-111491653D01*
X101547952Y-111491653D01*
X101703962Y-111807214D01*
X102078745Y-111998020D01*
X102483551Y-112112044D01*
X102902824Y-112144902D01*
X103320451Y-112095334D01*
X103720383Y-111965243D01*
X104016038Y-111807214D01*
X104060491Y-111717298D01*
X105116903Y-111717298D01*
X105930000Y-112530395D01*
X106743097Y-111717298D01*
X106671514Y-111473329D01*
X106416004Y-111352429D01*
X106141816Y-111283700D01*
X105859488Y-111269783D01*
X105579870Y-111311213D01*
X105313708Y-111406397D01*
X105188486Y-111473329D01*
X105116903Y-111717298D01*
X104060491Y-111717298D01*
X104172048Y-111491653D01*
X102860000Y-110179605D01*
X101547952Y-111491653D01*
X94551379Y-111491653D01*
X94413178Y-111259645D01*
X94218269Y-111043412D01*
X93984920Y-110869359D01*
X93722099Y-110744175D01*
X93574890Y-110699524D01*
X93345000Y-110820845D01*
X93091000Y-110820845D01*
X92861110Y-110699524D01*
X92713901Y-110744175D01*
X92451080Y-110869359D01*
X92217731Y-111043412D01*
X92022822Y-111259645D01*
X91873843Y-111509748D01*
X91862440Y-111541895D01*
X91786698Y-111400192D01*
X91620870Y-111198130D01*
X91418808Y-111032302D01*
X91188278Y-110909081D01*
X90938137Y-110833201D01*
X90743184Y-110814000D01*
X90612816Y-110814000D01*
X90417863Y-110833201D01*
X90167722Y-110909081D01*
X89937192Y-111032302D01*
X89735130Y-111198130D01*
X89569302Y-111400192D01*
X89446081Y-111630722D01*
X89408000Y-111756257D01*
X89369919Y-111630722D01*
X89246698Y-111400192D01*
X89080870Y-111198130D01*
X88878808Y-111032302D01*
X88648278Y-110909081D01*
X88398137Y-110833201D01*
X88203184Y-110814000D01*
X88072816Y-110814000D01*
X87877863Y-110833201D01*
X87627722Y-110909081D01*
X87397192Y-111032302D01*
X87195130Y-111198130D01*
X87029302Y-111400192D01*
X86906081Y-111630722D01*
X86868000Y-111756257D01*
X86829919Y-111630722D01*
X86706698Y-111400192D01*
X86540870Y-111198130D01*
X86338808Y-111032302D01*
X86108278Y-110909081D01*
X85858137Y-110833201D01*
X85663184Y-110814000D01*
X85532816Y-110814000D01*
X85337863Y-110833201D01*
X85087722Y-110909081D01*
X84857192Y-111032302D01*
X84655130Y-111198130D01*
X84489302Y-111400192D01*
X84366081Y-111630722D01*
X84328000Y-111756257D01*
X84289919Y-111630722D01*
X84166698Y-111400192D01*
X84000870Y-111198130D01*
X83798808Y-111032302D01*
X83568278Y-110909081D01*
X83318137Y-110833201D01*
X83123184Y-110814000D01*
X82992816Y-110814000D01*
X82797863Y-110833201D01*
X82547722Y-110909081D01*
X82317192Y-111032302D01*
X82115130Y-111198130D01*
X81949302Y-111400192D01*
X81826081Y-111630722D01*
X81788000Y-111756257D01*
X81749919Y-111630722D01*
X81626698Y-111400192D01*
X81460870Y-111198130D01*
X81258808Y-111032302D01*
X81028278Y-110909081D01*
X80778137Y-110833201D01*
X80583184Y-110814000D01*
X80452816Y-110814000D01*
X80257863Y-110833201D01*
X80007722Y-110909081D01*
X79777192Y-111032302D01*
X79575130Y-111198130D01*
X79409302Y-111400192D01*
X79286081Y-111630722D01*
X79248000Y-111756257D01*
X79209919Y-111630722D01*
X79086698Y-111400192D01*
X78920870Y-111198130D01*
X78718808Y-111032302D01*
X78488278Y-110909081D01*
X78238137Y-110833201D01*
X78043184Y-110814000D01*
X77912816Y-110814000D01*
X77717863Y-110833201D01*
X77567246Y-110878890D01*
X76731180Y-110042824D01*
X100715098Y-110042824D01*
X100764666Y-110460451D01*
X100894757Y-110860383D01*
X101052786Y-111156038D01*
X101368347Y-111312048D01*
X102680395Y-110000000D01*
X103039605Y-110000000D01*
X104351653Y-111312048D01*
X104667214Y-111156038D01*
X104858020Y-110781255D01*
X104972044Y-110376449D01*
X104998189Y-110042824D01*
X113855098Y-110042824D01*
X113904666Y-110460451D01*
X114034757Y-110860383D01*
X114192786Y-111156038D01*
X114508347Y-111312048D01*
X115820395Y-110000000D01*
X116179605Y-110000000D01*
X117491653Y-111312048D01*
X117807214Y-111156038D01*
X117998020Y-110781255D01*
X118112044Y-110376449D01*
X118114987Y-110338890D01*
X119335524Y-110338890D01*
X119380175Y-110486099D01*
X119505359Y-110748920D01*
X119679412Y-110982269D01*
X119895645Y-111177178D01*
X120145748Y-111326157D01*
X120420109Y-111423481D01*
X120650000Y-111302814D01*
X120650000Y-110109000D01*
X120904000Y-110109000D01*
X120904000Y-111302814D01*
X121133891Y-111423481D01*
X121408252Y-111326157D01*
X121658355Y-111177178D01*
X121874588Y-110982269D01*
X122048641Y-110748920D01*
X122173825Y-110486099D01*
X122218476Y-110338890D01*
X122097155Y-110109000D01*
X120904000Y-110109000D01*
X120650000Y-110109000D01*
X119456845Y-110109000D01*
X119335524Y-110338890D01*
X118114987Y-110338890D01*
X118144902Y-109957176D01*
X118105490Y-109625110D01*
X119335524Y-109625110D01*
X119456845Y-109855000D01*
X120650000Y-109855000D01*
X120650000Y-109835000D01*
X120904000Y-109835000D01*
X120904000Y-109855000D01*
X122097155Y-109855000D01*
X122218476Y-109625110D01*
X122173825Y-109477901D01*
X122048641Y-109215080D01*
X121874588Y-108981731D01*
X121658355Y-108786822D01*
X121631555Y-108770858D01*
X121720508Y-108762097D01*
X121810423Y-108734822D01*
X121893289Y-108690529D01*
X121965921Y-108630921D01*
X122025529Y-108558289D01*
X122069822Y-108475423D01*
X122097097Y-108385508D01*
X122106307Y-108292000D01*
X122106307Y-106592000D01*
X122097097Y-106498492D01*
X122069822Y-106408577D01*
X122025529Y-106325711D01*
X121965921Y-106253079D01*
X121893289Y-106193471D01*
X121810423Y-106149178D01*
X121720508Y-106121903D01*
X121627000Y-106112693D01*
X119927000Y-106112693D01*
X119833492Y-106121903D01*
X119743577Y-106149178D01*
X119660711Y-106193471D01*
X119588079Y-106253079D01*
X119528471Y-106325711D01*
X119484178Y-106408577D01*
X119456903Y-106498492D01*
X119447693Y-106592000D01*
X119447693Y-108292000D01*
X119456903Y-108385508D01*
X119484178Y-108475423D01*
X119528471Y-108558289D01*
X119588079Y-108630921D01*
X119660711Y-108690529D01*
X119743577Y-108734822D01*
X119833492Y-108762097D01*
X119922445Y-108770858D01*
X119895645Y-108786822D01*
X119679412Y-108981731D01*
X119505359Y-109215080D01*
X119380175Y-109477901D01*
X119335524Y-109625110D01*
X118105490Y-109625110D01*
X118095334Y-109539549D01*
X117965243Y-109139617D01*
X117807214Y-108843962D01*
X117491653Y-108687952D01*
X116179605Y-110000000D01*
X115820395Y-110000000D01*
X114508347Y-108687952D01*
X114192786Y-108843962D01*
X114001980Y-109218745D01*
X113887956Y-109623551D01*
X113855098Y-110042824D01*
X104998189Y-110042824D01*
X105004902Y-109957176D01*
X104955334Y-109539549D01*
X104825243Y-109139617D01*
X104667214Y-108843962D01*
X104351653Y-108687952D01*
X103039605Y-110000000D01*
X102680395Y-110000000D01*
X101368347Y-108687952D01*
X101052786Y-108843962D01*
X100861980Y-109218745D01*
X100747956Y-109623551D01*
X100715098Y-110042824D01*
X76731180Y-110042824D01*
X75496569Y-108808214D01*
X75477717Y-108785243D01*
X75386051Y-108710014D01*
X75281470Y-108654114D01*
X75167992Y-108619691D01*
X75079546Y-108610980D01*
X75079536Y-108610980D01*
X75049980Y-108608069D01*
X75020424Y-108610980D01*
X56593814Y-108610980D01*
X56564257Y-108608069D01*
X56534701Y-108610980D01*
X56534692Y-108610980D01*
X56446246Y-108619691D01*
X56332768Y-108654114D01*
X56228187Y-108710014D01*
X56228185Y-108710015D01*
X56228186Y-108710015D01*
X56159485Y-108766396D01*
X56159481Y-108766400D01*
X56136521Y-108785243D01*
X56117678Y-108808203D01*
X47530233Y-117395650D01*
X47507262Y-117414502D01*
X47432033Y-117506169D01*
X47412647Y-117542437D01*
X47271816Y-117401606D01*
X47068887Y-117266012D01*
X46843403Y-117172614D01*
X46604031Y-117125000D01*
X46359969Y-117125000D01*
X46120597Y-117172614D01*
X45895113Y-117266012D01*
X45692184Y-117401606D01*
X45519606Y-117574184D01*
X45384012Y-117777113D01*
X45290614Y-118002597D01*
X45243000Y-118241969D01*
X45181000Y-118241969D01*
X45133386Y-118002597D01*
X45039988Y-117777113D01*
X44904394Y-117574184D01*
X44731816Y-117401606D01*
X44528887Y-117266012D01*
X44303403Y-117172614D01*
X44064031Y-117125000D01*
X43819969Y-117125000D01*
X43580597Y-117172614D01*
X43355113Y-117266012D01*
X43152184Y-117401606D01*
X42979606Y-117574184D01*
X42844012Y-117777113D01*
X42750614Y-118002597D01*
X42703000Y-118241969D01*
X42641000Y-118241969D01*
X42593386Y-118002597D01*
X42499988Y-117777113D01*
X42364394Y-117574184D01*
X42191816Y-117401606D01*
X41988887Y-117266012D01*
X41763403Y-117172614D01*
X41524031Y-117125000D01*
X41279969Y-117125000D01*
X41040597Y-117172614D01*
X40815113Y-117266012D01*
X40612184Y-117401606D01*
X40439606Y-117574184D01*
X40304012Y-117777113D01*
X40210614Y-118002597D01*
X40163000Y-118241969D01*
X38799000Y-118241969D01*
X38799000Y-118120037D01*
X38703810Y-117641486D01*
X38517089Y-117190701D01*
X38246011Y-116785005D01*
X37900995Y-116439989D01*
X37495299Y-116168911D01*
X37044514Y-115982190D01*
X36565963Y-115887000D01*
X36078037Y-115887000D01*
X35599486Y-115982190D01*
X35148701Y-116168911D01*
X34743005Y-116439989D01*
X34397989Y-116785005D01*
X34126911Y-117190701D01*
X33940190Y-117641486D01*
X33845000Y-118120037D01*
X27172000Y-118120037D01*
X27172000Y-108508347D01*
X101547952Y-108508347D01*
X102860000Y-109820395D01*
X104172048Y-108508347D01*
X114687952Y-108508347D01*
X116000000Y-109820395D01*
X117312048Y-108508347D01*
X117156038Y-108192786D01*
X116781255Y-108001980D01*
X116376449Y-107887956D01*
X115957176Y-107855098D01*
X115539549Y-107904666D01*
X115139617Y-108034757D01*
X114843962Y-108192786D01*
X114687952Y-108508347D01*
X104172048Y-108508347D01*
X104016038Y-108192786D01*
X103641255Y-108001980D01*
X103236449Y-107887956D01*
X102817176Y-107855098D01*
X102399549Y-107904666D01*
X101999617Y-108034757D01*
X101703962Y-108192786D01*
X101547952Y-108508347D01*
X27172000Y-108508347D01*
X27172000Y-99562000D01*
X125228001Y-99562000D01*
X125228000Y-158248000D01*
X125228000Y-158248000D01*
G37*
X125228000Y-158248000D02*
X27172000Y-158248000D01*
X27172000Y-146406891D01*
X94570519Y-146406891D01*
X94667843Y-146681252D01*
X94816822Y-146931355D01*
X95011731Y-147147588D01*
X95245080Y-147321641D01*
X95507901Y-147446825D01*
X95655110Y-147491476D01*
X95885000Y-147370155D01*
X95885000Y-146177000D01*
X94691186Y-146177000D01*
X94570519Y-146406891D01*
X27172000Y-146406891D01*
X27172000Y-118120037D01*
X33845000Y-118120037D01*
X33845000Y-118607963D01*
X33940190Y-119086514D01*
X34126911Y-119537299D01*
X34397989Y-119942995D01*
X34743005Y-120288011D01*
X35148701Y-120559089D01*
X35599486Y-120745810D01*
X36078037Y-120841000D01*
X36565963Y-120841000D01*
X37044514Y-120745810D01*
X37495299Y-120559089D01*
X37900995Y-120288011D01*
X38246011Y-119942995D01*
X38517089Y-119537299D01*
X38703810Y-119086514D01*
X38799000Y-118607963D01*
X38799000Y-118241969D01*
X40163000Y-118241969D01*
X40163000Y-118486031D01*
X40210614Y-118725403D01*
X40304012Y-118950887D01*
X40439606Y-119153816D01*
X40612184Y-119326394D01*
X40815113Y-119461988D01*
X41040597Y-119555386D01*
X41279969Y-119603000D01*
X41524031Y-119603000D01*
X41763403Y-119555386D01*
X41988887Y-119461988D01*
X42191816Y-119326394D01*
X42364394Y-119153816D01*
X42499988Y-118950887D01*
X42593386Y-118725403D01*
X42641000Y-118486031D01*
X42641000Y-118241969D01*
X42703000Y-118241969D01*
X42703000Y-118486031D01*
X42750614Y-118725403D01*
X42844012Y-118950887D01*
X42979606Y-119153816D01*
X43152184Y-119326394D01*
X43355113Y-119461988D01*
X43580597Y-119555386D01*
X43819969Y-119603000D01*
X44064031Y-119603000D01*
X44303403Y-119555386D01*
X44528887Y-119461988D01*
X44731816Y-119326394D01*
X44904394Y-119153816D01*
X45039988Y-118950887D01*
X45133386Y-118725403D01*
X45181000Y-118486031D01*
X45181000Y-118241969D01*
X45243000Y-118241969D01*
X45243000Y-118486031D01*
X45290614Y-118725403D01*
X45384012Y-118950887D01*
X45519606Y-119153816D01*
X45692184Y-119326394D01*
X45895113Y-119461988D01*
X46120597Y-119555386D01*
X46359969Y-119603000D01*
X46604031Y-119603000D01*
X46843403Y-119555386D01*
X47068887Y-119461988D01*
X47271816Y-119326394D01*
X47332999Y-119265211D01*
X47333000Y-132106433D01*
X47330088Y-132135999D01*
X47341711Y-132254011D01*
X47376133Y-132367488D01*
X47392404Y-132397928D01*
X47432034Y-132472070D01*
X47507263Y-132563736D01*
X47530228Y-132582583D01*
X54510427Y-139562783D01*
X54529274Y-139585748D01*
X54552239Y-139604595D01*
X54620939Y-139660977D01*
X54725521Y-139716877D01*
X54838998Y-139751300D01*
X54850193Y-139752402D01*
X54927445Y-139760011D01*
X54927452Y-139760011D01*
X54957011Y-139762922D01*
X54986570Y-139760011D01*
X90211195Y-139760011D01*
X90240751Y-139762922D01*
X90270307Y-139760011D01*
X90270317Y-139760011D01*
X90358763Y-139751300D01*
X90472241Y-139716877D01*
X90576822Y-139660977D01*
X90668488Y-139585748D01*
X90687340Y-139562777D01*
X91725117Y-138525000D01*
X93336928Y-138525000D01*
X93340000Y-138714250D01*
X93498750Y-138873000D01*
X94373000Y-138873000D01*
X94373000Y-138048750D01*
X94214250Y-137890000D01*
X93975000Y-137886928D01*
X93850518Y-137899188D01*
X93730820Y-137935498D01*
X93620506Y-137994463D01*
X93523815Y-138073815D01*
X93444463Y-138170506D01*
X93385498Y-138280820D01*
X93349188Y-138400518D01*
X93336928Y-138525000D01*
X91725117Y-138525000D01*
X92791774Y-137458344D01*
X92814738Y-137439498D01*
X92889967Y-137347832D01*
X92909353Y-137311563D01*
X93050184Y-137452394D01*
X93253113Y-137587988D01*
X93478597Y-137681386D01*
X93717969Y-137729000D01*
X93962031Y-137729000D01*
X94201403Y-137681386D01*
X94426887Y-137587988D01*
X94629816Y-137452394D01*
X94802394Y-137279816D01*
X94937988Y-137076887D01*
X95031386Y-136851403D01*
X95079000Y-136612031D01*
X95079000Y-136367969D01*
X95031386Y-136128597D01*
X94937988Y-135903113D01*
X94802394Y-135700184D01*
X94629816Y-135527606D01*
X94426887Y-135392012D01*
X94201403Y-135298614D01*
X93962031Y-135251000D01*
X93717969Y-135251000D01*
X93478597Y-135298614D01*
X93253113Y-135392012D01*
X93050184Y-135527606D01*
X92989001Y-135588789D01*
X92989001Y-133310560D01*
X92991912Y-133281001D01*
X92989001Y-133251442D01*
X92989001Y-133251435D01*
X92980290Y-133162989D01*
X92978531Y-133157188D01*
X92945867Y-133049511D01*
X92889967Y-132944929D01*
X92833585Y-132876229D01*
X92814738Y-132853264D01*
X92791772Y-132834416D01*
X92317000Y-132359645D01*
X92317000Y-132247623D01*
X92283297Y-132078189D01*
X92217187Y-131918585D01*
X92121210Y-131774945D01*
X91999055Y-131652790D01*
X91855415Y-131556813D01*
X91695811Y-131490703D01*
X91526377Y-131457000D01*
X91353623Y-131457000D01*
X91184189Y-131490703D01*
X91024585Y-131556813D01*
X90880945Y-131652790D01*
X90758790Y-131774945D01*
X90662813Y-131918585D01*
X90596703Y-132078189D01*
X90563000Y-132247623D01*
X90563000Y-132420377D01*
X90596703Y-132589811D01*
X90662813Y-132749415D01*
X90758790Y-132893055D01*
X90834735Y-132969000D01*
X90758790Y-133044945D01*
X90662813Y-133188585D01*
X90596703Y-133348189D01*
X90563000Y-133517623D01*
X90563000Y-133690377D01*
X90596703Y-133859811D01*
X90662813Y-134019415D01*
X90693295Y-134065034D01*
X89442230Y-135316100D01*
X89419265Y-135334947D01*
X89400418Y-135357912D01*
X89400417Y-135357913D01*
X89363385Y-135403036D01*
X89346887Y-135392012D01*
X89121403Y-135298614D01*
X88882031Y-135251000D01*
X88637969Y-135251000D01*
X88398597Y-135298614D01*
X88173113Y-135392012D01*
X87970184Y-135527606D01*
X87797606Y-135700184D01*
X87662012Y-135903113D01*
X87571868Y-136120741D01*
X87487636Y-135886977D01*
X87425656Y-135771020D01*
X87185565Y-135704040D01*
X86399605Y-136490000D01*
X87185565Y-137275960D01*
X87425656Y-137208980D01*
X87542756Y-136959952D01*
X87569286Y-136853025D01*
X87662012Y-137076887D01*
X87797606Y-137279816D01*
X87970184Y-137452394D01*
X88173113Y-137587988D01*
X88347278Y-137660129D01*
X87901406Y-138106001D01*
X78449307Y-138106001D01*
X78449307Y-137455565D01*
X85434040Y-137455565D01*
X85501020Y-137695656D01*
X85750048Y-137812756D01*
X86017135Y-137879023D01*
X86292017Y-137891910D01*
X86564133Y-137850922D01*
X86823023Y-137757636D01*
X86938980Y-137695656D01*
X87005960Y-137455565D01*
X86220000Y-136669605D01*
X85434040Y-137455565D01*
X78449307Y-137455565D01*
X78449307Y-136585000D01*
X78959197Y-136585000D01*
X78971208Y-136624594D01*
X79038603Y-136750682D01*
X79129302Y-136861198D01*
X79239818Y-136951897D01*
X79365906Y-137019292D01*
X79502718Y-137060794D01*
X79644999Y-137074807D01*
X80495001Y-137074807D01*
X80637282Y-137060794D01*
X80774094Y-137019292D01*
X80900182Y-136951897D01*
X81010698Y-136861198D01*
X81032198Y-136835000D01*
X81561395Y-136835000D01*
X81575641Y-136852359D01*
X81684263Y-136941503D01*
X81808190Y-137007743D01*
X81942658Y-137048534D01*
X82082500Y-137062307D01*
X82557500Y-137062307D01*
X82697342Y-137048534D01*
X82831810Y-137007743D01*
X82955737Y-136941503D01*
X83064359Y-136852359D01*
X83153503Y-136743737D01*
X83219743Y-136619810D01*
X83237274Y-136562017D01*
X84818090Y-136562017D01*
X84859078Y-136834133D01*
X84952364Y-137093023D01*
X85014344Y-137208980D01*
X85254435Y-137275960D01*
X86040395Y-136490000D01*
X85254435Y-135704040D01*
X85014344Y-135771020D01*
X84897244Y-136020048D01*
X84830977Y-136287135D01*
X84818090Y-136562017D01*
X83237274Y-136562017D01*
X83260534Y-136485342D01*
X83274307Y-136345500D01*
X83274307Y-135770500D01*
X83260534Y-135630658D01*
X83228312Y-135524435D01*
X85434040Y-135524435D01*
X86220000Y-136310395D01*
X87005960Y-135524435D01*
X86938980Y-135284344D01*
X86689952Y-135167244D01*
X86422865Y-135100977D01*
X86147983Y-135088090D01*
X85875867Y-135129078D01*
X85616977Y-135222364D01*
X85501020Y-135284344D01*
X85434040Y-135524435D01*
X83228312Y-135524435D01*
X83219743Y-135496190D01*
X83153503Y-135372263D01*
X83147303Y-135364708D01*
X83149494Y-135363537D01*
X83246185Y-135284185D01*
X83325537Y-135187494D01*
X83384502Y-135077180D01*
X83420812Y-134957482D01*
X83433072Y-134833000D01*
X83430000Y-134593750D01*
X83271250Y-134435000D01*
X82447000Y-134435000D01*
X82447000Y-134455000D01*
X82193000Y-134455000D01*
X82193000Y-134435000D01*
X81368750Y-134435000D01*
X81210000Y-134593750D01*
X81206928Y-134833000D01*
X81219188Y-134957482D01*
X81255498Y-135077180D01*
X81314463Y-135187494D01*
X81391201Y-135281000D01*
X81224307Y-135281000D01*
X81224307Y-135270499D01*
X81210294Y-135128218D01*
X81168792Y-134991406D01*
X81101397Y-134865318D01*
X81010698Y-134754802D01*
X80900182Y-134664103D01*
X80774094Y-134596708D01*
X80637282Y-134555206D01*
X80495001Y-134541193D01*
X79644999Y-134541193D01*
X79502718Y-134555206D01*
X79365906Y-134596708D01*
X79239818Y-134664103D01*
X79129302Y-134754802D01*
X79038603Y-134865318D01*
X78971208Y-134991406D01*
X78959197Y-135031000D01*
X78449307Y-135031000D01*
X78449307Y-133720500D01*
X78756928Y-133720500D01*
X78769188Y-133844982D01*
X78805498Y-133964680D01*
X78864463Y-134074994D01*
X78943815Y-134171685D01*
X79040506Y-134251037D01*
X79150820Y-134310002D01*
X79270518Y-134346312D01*
X79395000Y-134358572D01*
X79784250Y-134355500D01*
X79943000Y-134196750D01*
X79943000Y-133060000D01*
X80197000Y-133060000D01*
X80197000Y-134196750D01*
X80355750Y-134355500D01*
X80745000Y-134358572D01*
X80869482Y-134346312D01*
X80989180Y-134310002D01*
X81099494Y-134251037D01*
X81196185Y-134171685D01*
X81269771Y-134082021D01*
X81368750Y-134181000D01*
X82193000Y-134181000D01*
X82193000Y-133306750D01*
X82447000Y-133306750D01*
X82447000Y-134181000D01*
X83271250Y-134181000D01*
X83430000Y-134022250D01*
X83433072Y-133783000D01*
X83420812Y-133658518D01*
X83384502Y-133538820D01*
X83325537Y-133428506D01*
X83246185Y-133331815D01*
X83149494Y-133252463D01*
X83039180Y-133193498D01*
X82919482Y-133157188D01*
X82795000Y-133144928D01*
X82605750Y-133148000D01*
X82447000Y-133306750D01*
X82193000Y-133306750D01*
X82034250Y-133148000D01*
X81845000Y-133144928D01*
X81720518Y-133157188D01*
X81600820Y-133193498D01*
X81490506Y-133252463D01*
X81393815Y-133331815D01*
X81380789Y-133347687D01*
X81380000Y-133218750D01*
X81221250Y-133060000D01*
X80197000Y-133060000D01*
X79943000Y-133060000D01*
X78918750Y-133060000D01*
X78760000Y-133218750D01*
X78756928Y-133720500D01*
X78449307Y-133720500D01*
X78449307Y-132145500D01*
X78756928Y-132145500D01*
X78760000Y-132647250D01*
X78918750Y-132806000D01*
X79943000Y-132806000D01*
X79943000Y-131669250D01*
X80197000Y-131669250D01*
X80197000Y-132806000D01*
X81221250Y-132806000D01*
X81380000Y-132647250D01*
X81383072Y-132145500D01*
X81370812Y-132021018D01*
X81334502Y-131901320D01*
X81275537Y-131791006D01*
X81196185Y-131694315D01*
X81099494Y-131614963D01*
X80989180Y-131555998D01*
X80869482Y-131519688D01*
X80745000Y-131507428D01*
X80355750Y-131510500D01*
X80197000Y-131669250D01*
X79943000Y-131669250D01*
X79784250Y-131510500D01*
X79395000Y-131507428D01*
X79270518Y-131519688D01*
X79150820Y-131555998D01*
X79040506Y-131614963D01*
X78943815Y-131694315D01*
X78864463Y-131791006D01*
X78805498Y-131901320D01*
X78769188Y-132021018D01*
X78756928Y-132145500D01*
X78449307Y-132145500D01*
X78449307Y-129708603D01*
X79292860Y-128865050D01*
X79325370Y-128838370D01*
X79399560Y-128747969D01*
X79431839Y-128708637D01*
X79510954Y-128560624D01*
X79526736Y-128508597D01*
X79559672Y-128400021D01*
X79572000Y-128274852D01*
X79572000Y-128274849D01*
X79576122Y-128233000D01*
X79572000Y-128191151D01*
X79572000Y-127885909D01*
X83789940Y-123667969D01*
X87521000Y-123667969D01*
X87521000Y-123912031D01*
X87568614Y-124151403D01*
X87662012Y-124376887D01*
X87797606Y-124579816D01*
X87970184Y-124752394D01*
X88173113Y-124887988D01*
X88398597Y-124981386D01*
X88637969Y-125029000D01*
X88882031Y-125029000D01*
X89121403Y-124981386D01*
X89346887Y-124887988D01*
X89549816Y-124752394D01*
X89722394Y-124579816D01*
X89857988Y-124376887D01*
X89951386Y-124151403D01*
X89999000Y-123912031D01*
X89999000Y-123667969D01*
X89951386Y-123428597D01*
X89857988Y-123203113D01*
X89722394Y-123000184D01*
X89549816Y-122827606D01*
X89346887Y-122692012D01*
X89121403Y-122598614D01*
X88882031Y-122551000D01*
X88637969Y-122551000D01*
X88398597Y-122598614D01*
X88173113Y-122692012D01*
X87970184Y-122827606D01*
X87797606Y-123000184D01*
X87662012Y-123203113D01*
X87568614Y-123428597D01*
X87521000Y-123667969D01*
X83789940Y-123667969D01*
X85337850Y-122120060D01*
X85430184Y-122212394D01*
X85633113Y-122347988D01*
X85858597Y-122441386D01*
X86097969Y-122489000D01*
X86342031Y-122489000D01*
X86581403Y-122441386D01*
X86806887Y-122347988D01*
X87009816Y-122212394D01*
X87182394Y-122039816D01*
X87317988Y-121836887D01*
X87411386Y-121611403D01*
X87459000Y-121372031D01*
X87459000Y-121127969D01*
X87411386Y-120888597D01*
X87360190Y-120764999D01*
X87619810Y-120764999D01*
X87568614Y-120888597D01*
X87521000Y-121127969D01*
X87521000Y-121372031D01*
X87568614Y-121611403D01*
X87662012Y-121836887D01*
X87797606Y-122039816D01*
X87970184Y-122212394D01*
X88173113Y-122347988D01*
X88398597Y-122441386D01*
X88637969Y-122489000D01*
X88882031Y-122489000D01*
X89121403Y-122441386D01*
X89346887Y-122347988D01*
X89549816Y-122212394D01*
X89722394Y-122039816D01*
X89857988Y-121836887D01*
X89951386Y-121611403D01*
X89999000Y-121372031D01*
X89999000Y-121153909D01*
X90061000Y-121215909D01*
X90061000Y-121372031D01*
X90108614Y-121611403D01*
X90202012Y-121836887D01*
X90337606Y-122039816D01*
X90510184Y-122212394D01*
X90698001Y-122337890D01*
X90698000Y-126068444D01*
X90695089Y-126098000D01*
X90698000Y-126127556D01*
X90698000Y-126127565D01*
X90706711Y-126216011D01*
X90741134Y-126329489D01*
X90797034Y-126434070D01*
X90872263Y-126525737D01*
X90895234Y-126544589D01*
X92009415Y-127658771D01*
X92028263Y-127681737D01*
X92119929Y-127756966D01*
X92224510Y-127812866D01*
X92337988Y-127847289D01*
X92426434Y-127856000D01*
X92426443Y-127856000D01*
X92456000Y-127858911D01*
X92485556Y-127856000D01*
X97286645Y-127856000D01*
X99097990Y-129667346D01*
X99097990Y-130051651D01*
X99037500Y-130045693D01*
X98462500Y-130045693D01*
X98322658Y-130059466D01*
X98188190Y-130100257D01*
X98064263Y-130166497D01*
X97955641Y-130255641D01*
X97866497Y-130364263D01*
X97800257Y-130488190D01*
X97759466Y-130622658D01*
X97745693Y-130762500D01*
X97745693Y-131237500D01*
X97759466Y-131377342D01*
X97800257Y-131511810D01*
X97866497Y-131635737D01*
X97955641Y-131744359D01*
X98064263Y-131833503D01*
X98148001Y-131878261D01*
X98148000Y-132371739D01*
X98064263Y-132416497D01*
X97955641Y-132505641D01*
X97866497Y-132614263D01*
X97800257Y-132738190D01*
X97759466Y-132872658D01*
X97745693Y-133012500D01*
X97745693Y-133487500D01*
X97759466Y-133627342D01*
X97800257Y-133761810D01*
X97866497Y-133885737D01*
X97955641Y-133994359D01*
X98064263Y-134083503D01*
X98188190Y-134149743D01*
X98318001Y-134189121D01*
X98318000Y-135402110D01*
X98130184Y-135527606D01*
X97957606Y-135700184D01*
X97822012Y-135903113D01*
X97728614Y-136128597D01*
X97681000Y-136367969D01*
X97681000Y-136612031D01*
X97728614Y-136851403D01*
X97822012Y-137076887D01*
X97957606Y-137279816D01*
X98130184Y-137452394D01*
X98333113Y-137587988D01*
X98558597Y-137681386D01*
X98797969Y-137729000D01*
X99042031Y-137729000D01*
X99281403Y-137681386D01*
X99506887Y-137587988D01*
X99709816Y-137452394D01*
X99882394Y-137279816D01*
X100017988Y-137076887D01*
X100111386Y-136851403D01*
X100159000Y-136612031D01*
X100159000Y-136367969D01*
X100111386Y-136128597D01*
X100017988Y-135903113D01*
X99882394Y-135700184D01*
X99709816Y-135527606D01*
X99522000Y-135402110D01*
X99522000Y-134173973D01*
X99523815Y-134176185D01*
X99620506Y-134255537D01*
X99730820Y-134314502D01*
X99850518Y-134350812D01*
X99975000Y-134363072D01*
X100214250Y-134360000D01*
X100373000Y-134201250D01*
X100373000Y-133377000D01*
X100627000Y-133377000D01*
X100627000Y-134201250D01*
X100785750Y-134360000D01*
X101025000Y-134363072D01*
X101149482Y-134350812D01*
X101269180Y-134314502D01*
X101379494Y-134255537D01*
X101476185Y-134176185D01*
X101555537Y-134079494D01*
X101614502Y-133969180D01*
X101650812Y-133849482D01*
X101663072Y-133725000D01*
X101660000Y-133535750D01*
X101501250Y-133377000D01*
X100627000Y-133377000D01*
X100373000Y-133377000D01*
X100353000Y-133377000D01*
X100353000Y-133123000D01*
X100373000Y-133123000D01*
X100373000Y-132298750D01*
X100627000Y-132298750D01*
X100627000Y-133123000D01*
X101501250Y-133123000D01*
X101660000Y-132964250D01*
X101663072Y-132775000D01*
X101650812Y-132650518D01*
X101614502Y-132530820D01*
X101555537Y-132420506D01*
X101476185Y-132323815D01*
X101379494Y-132244463D01*
X101269180Y-132185498D01*
X101149482Y-132149188D01*
X101025000Y-132136928D01*
X100785750Y-132140000D01*
X100627000Y-132298750D01*
X100373000Y-132298750D01*
X100214250Y-132140000D01*
X99975000Y-132136928D01*
X99850518Y-132149188D01*
X99730820Y-132185498D01*
X99620506Y-132244463D01*
X99523815Y-132323815D01*
X99444463Y-132420506D01*
X99443292Y-132422697D01*
X99435737Y-132416497D01*
X99352000Y-132371739D01*
X99352000Y-131878261D01*
X99435737Y-131833503D01*
X99544359Y-131744359D01*
X99625000Y-131646098D01*
X99705641Y-131744359D01*
X99814263Y-131833503D01*
X99938190Y-131899743D01*
X100072658Y-131940534D01*
X100212500Y-131954307D01*
X100787500Y-131954307D01*
X100927342Y-131940534D01*
X101061810Y-131899743D01*
X101185737Y-131833503D01*
X101294359Y-131744359D01*
X101383503Y-131635737D01*
X101449743Y-131511810D01*
X101490534Y-131377342D01*
X101504307Y-131237500D01*
X101504307Y-130762500D01*
X101490534Y-130622658D01*
X101449743Y-130488190D01*
X101383503Y-130364263D01*
X101294359Y-130255641D01*
X101185737Y-130166497D01*
X101061810Y-130100257D01*
X100927342Y-130059466D01*
X100787500Y-130045693D01*
X100397048Y-130045693D01*
X100301990Y-129950635D01*
X100301990Y-129447546D01*
X100304901Y-129417989D01*
X100301990Y-129388433D01*
X100301990Y-129388424D01*
X100293279Y-129299978D01*
X100258856Y-129186500D01*
X100202956Y-129081919D01*
X100127727Y-128990253D01*
X100104762Y-128971406D01*
X97982589Y-126849234D01*
X97963737Y-126826263D01*
X97872071Y-126751034D01*
X97767490Y-126695134D01*
X97654012Y-126660711D01*
X97565566Y-126652000D01*
X97565556Y-126652000D01*
X97536000Y-126649089D01*
X97506444Y-126652000D01*
X92705356Y-126652000D01*
X91902000Y-125848645D01*
X91902000Y-123667969D01*
X92601000Y-123667969D01*
X92601000Y-123912031D01*
X92648614Y-124151403D01*
X92742012Y-124376887D01*
X92877606Y-124579816D01*
X93050184Y-124752394D01*
X93253113Y-124887988D01*
X93478597Y-124981386D01*
X93717969Y-125029000D01*
X93962031Y-125029000D01*
X94201403Y-124981386D01*
X94426887Y-124887988D01*
X94629816Y-124752394D01*
X94802394Y-124579816D01*
X94937988Y-124376887D01*
X95031386Y-124151403D01*
X95079000Y-123912031D01*
X95079000Y-123667969D01*
X95141000Y-123667969D01*
X95141000Y-123912031D01*
X95188614Y-124151403D01*
X95282012Y-124376887D01*
X95417606Y-124579816D01*
X95590184Y-124752394D01*
X95793113Y-124887988D01*
X96018597Y-124981386D01*
X96257969Y-125029000D01*
X96502031Y-125029000D01*
X96741403Y-124981386D01*
X96966887Y-124887988D01*
X97169816Y-124752394D01*
X97342394Y-124579816D01*
X97477988Y-124376887D01*
X97571386Y-124151403D01*
X97619000Y-123912031D01*
X97619000Y-123667969D01*
X97571386Y-123428597D01*
X97477988Y-123203113D01*
X97342394Y-123000184D01*
X97169816Y-122827606D01*
X96966887Y-122692012D01*
X96741403Y-122598614D01*
X96502031Y-122551000D01*
X96257969Y-122551000D01*
X96018597Y-122598614D01*
X95793113Y-122692012D01*
X95590184Y-122827606D01*
X95417606Y-123000184D01*
X95282012Y-123203113D01*
X95188614Y-123428597D01*
X95141000Y-123667969D01*
X95079000Y-123667969D01*
X95031386Y-123428597D01*
X94937988Y-123203113D01*
X94802394Y-123000184D01*
X94629816Y-122827606D01*
X94426887Y-122692012D01*
X94201403Y-122598614D01*
X93962031Y-122551000D01*
X93717969Y-122551000D01*
X93478597Y-122598614D01*
X93253113Y-122692012D01*
X93050184Y-122827606D01*
X92877606Y-123000184D01*
X92742012Y-123203113D01*
X92648614Y-123428597D01*
X92601000Y-123667969D01*
X91902000Y-123667969D01*
X91902000Y-122337890D01*
X92089816Y-122212394D01*
X92262394Y-122039816D01*
X92397988Y-121836887D01*
X92491386Y-121611403D01*
X92539000Y-121372031D01*
X92539000Y-121127969D01*
X92601000Y-121127969D01*
X92601000Y-121372031D01*
X92648614Y-121611403D01*
X92742012Y-121836887D01*
X92877606Y-122039816D01*
X93050184Y-122212394D01*
X93253113Y-122347988D01*
X93478597Y-122441386D01*
X93717969Y-122489000D01*
X93962031Y-122489000D01*
X94201403Y-122441386D01*
X94426887Y-122347988D01*
X94629816Y-122212394D01*
X94802394Y-122039816D01*
X94937988Y-121836887D01*
X95031386Y-121611403D01*
X95079000Y-121372031D01*
X95079000Y-121127969D01*
X95031386Y-120888597D01*
X94937988Y-120663113D01*
X94802394Y-120460184D01*
X94629816Y-120287606D01*
X94426887Y-120152012D01*
X94201403Y-120058614D01*
X93962031Y-120011000D01*
X93717969Y-120011000D01*
X93478597Y-120058614D01*
X93253113Y-120152012D01*
X93050184Y-120287606D01*
X92877606Y-120460184D01*
X92742012Y-120663113D01*
X92648614Y-120888597D01*
X92601000Y-121127969D01*
X92539000Y-121127969D01*
X92491386Y-120888597D01*
X92397988Y-120663113D01*
X92262394Y-120460184D01*
X92089816Y-120287606D01*
X91886887Y-120152012D01*
X91661403Y-120058614D01*
X91422031Y-120011000D01*
X91265909Y-120011000D01*
X91170054Y-119915145D01*
X91170050Y-119915140D01*
X90595053Y-119340144D01*
X90568369Y-119307629D01*
X90438635Y-119201160D01*
X90290623Y-119122045D01*
X90130020Y-119073327D01*
X90004851Y-119060999D01*
X90004848Y-119060999D01*
X89962999Y-119056877D01*
X89921150Y-119060999D01*
X80895909Y-119060999D01*
X80488920Y-118654010D01*
X101630285Y-118654010D01*
X103242372Y-120266098D01*
X103210184Y-120287606D01*
X103083954Y-120413836D01*
X102428349Y-119758232D01*
X102409498Y-119735262D01*
X102317832Y-119660033D01*
X102213251Y-119604133D01*
X102099773Y-119569710D01*
X102011327Y-119560999D01*
X102011317Y-119560999D01*
X101981761Y-119558088D01*
X101952205Y-119560999D01*
X96418930Y-119560999D01*
X96389371Y-119558088D01*
X96359812Y-119560999D01*
X96359805Y-119560999D01*
X96271359Y-119569710D01*
X96157881Y-119604133D01*
X96053300Y-119660033D01*
X95961634Y-119735262D01*
X95957408Y-119740411D01*
X95952264Y-119744633D01*
X95933417Y-119767598D01*
X95933416Y-119767599D01*
X95877035Y-119836299D01*
X95821134Y-119940881D01*
X95786712Y-120054358D01*
X95775966Y-120163470D01*
X95590184Y-120287606D01*
X95417606Y-120460184D01*
X95282012Y-120663113D01*
X95188614Y-120888597D01*
X95141000Y-121127969D01*
X95141000Y-121372031D01*
X95188614Y-121611403D01*
X95282012Y-121836887D01*
X95417606Y-122039816D01*
X95590184Y-122212394D01*
X95793113Y-122347988D01*
X96018597Y-122441386D01*
X96257969Y-122489000D01*
X96502031Y-122489000D01*
X96741403Y-122441386D01*
X96966887Y-122347988D01*
X97169816Y-122212394D01*
X97342394Y-122039816D01*
X97477988Y-121836887D01*
X97571386Y-121611403D01*
X97619000Y-121372031D01*
X97619000Y-121127969D01*
X97571386Y-120888597D01*
X97520190Y-120764999D01*
X97779810Y-120764999D01*
X97728614Y-120888597D01*
X97681000Y-121127969D01*
X97681000Y-121372031D01*
X97728614Y-121611403D01*
X97822012Y-121836887D01*
X97957606Y-122039816D01*
X98130184Y-122212394D01*
X98333113Y-122347988D01*
X98558597Y-122441386D01*
X98797969Y-122489000D01*
X99042031Y-122489000D01*
X99263575Y-122444932D01*
X99277226Y-122458583D01*
X99277237Y-122458592D01*
X99518248Y-122699604D01*
X99506887Y-122692012D01*
X99281403Y-122598614D01*
X99042031Y-122551000D01*
X98797969Y-122551000D01*
X98558597Y-122598614D01*
X98333113Y-122692012D01*
X98130184Y-122827606D01*
X97957606Y-123000184D01*
X97822012Y-123203113D01*
X97728614Y-123428597D01*
X97681000Y-123667969D01*
X97681000Y-123912031D01*
X97728614Y-124151403D01*
X97822012Y-124376887D01*
X97957606Y-124579816D01*
X98130184Y-124752394D01*
X98333113Y-124887988D01*
X98558597Y-124981386D01*
X98797969Y-125029000D01*
X99042031Y-125029000D01*
X99281403Y-124981386D01*
X99506887Y-124887988D01*
X99709816Y-124752394D01*
X99882394Y-124579816D01*
X100017988Y-124376887D01*
X100111386Y-124151403D01*
X100159000Y-123912031D01*
X100159000Y-123667969D01*
X100111386Y-123428597D01*
X100017988Y-123203113D01*
X100010397Y-123191752D01*
X101945002Y-125126358D01*
X101945001Y-135349810D01*
X101821403Y-135298614D01*
X101582031Y-135251000D01*
X101337969Y-135251000D01*
X101098597Y-135298614D01*
X100873113Y-135392012D01*
X100670184Y-135527606D01*
X100497606Y-135700184D01*
X100362012Y-135903113D01*
X100268614Y-136128597D01*
X100221000Y-136367969D01*
X100221000Y-136612031D01*
X100268614Y-136851403D01*
X100362012Y-137076887D01*
X100497606Y-137279816D01*
X100670184Y-137452394D01*
X100873113Y-137587988D01*
X101098597Y-137681386D01*
X101337969Y-137729000D01*
X101582031Y-137729000D01*
X101821403Y-137681386D01*
X101945001Y-137630190D01*
X101945001Y-138063562D01*
X98147229Y-141861335D01*
X98124264Y-141880182D01*
X98105417Y-141903147D01*
X98105416Y-141903148D01*
X98049035Y-141971848D01*
X97993134Y-142076430D01*
X97958712Y-142189907D01*
X97947089Y-142307919D01*
X97949030Y-142327626D01*
X97811192Y-142401302D01*
X97789001Y-142419514D01*
X97789001Y-141716557D01*
X97791912Y-141687000D01*
X97789001Y-141657444D01*
X97789001Y-141657435D01*
X97780290Y-141568989D01*
X97745867Y-141455511D01*
X97689967Y-141350930D01*
X97655446Y-141308866D01*
X97633585Y-141282228D01*
X97633581Y-141282224D01*
X97614738Y-141259264D01*
X97591777Y-141240420D01*
X97254307Y-140902952D01*
X97254307Y-140512500D01*
X97240534Y-140372658D01*
X97199743Y-140238190D01*
X97133503Y-140114263D01*
X97044359Y-140005641D01*
X96935737Y-139916497D01*
X96858101Y-139875000D01*
X96935737Y-139833503D01*
X97044359Y-139744359D01*
X97133503Y-139635737D01*
X97199743Y-139511810D01*
X97240534Y-139377342D01*
X97254307Y-139237500D01*
X97254307Y-138762500D01*
X97240534Y-138622658D01*
X97199743Y-138488190D01*
X97133503Y-138364263D01*
X97044359Y-138255641D01*
X96982000Y-138204464D01*
X96982000Y-137577890D01*
X97169816Y-137452394D01*
X97342394Y-137279816D01*
X97477988Y-137076887D01*
X97571386Y-136851403D01*
X97619000Y-136612031D01*
X97619000Y-136367969D01*
X97571386Y-136128597D01*
X97477988Y-135903113D01*
X97342394Y-135700184D01*
X97169816Y-135527606D01*
X96966887Y-135392012D01*
X96741403Y-135298614D01*
X96502031Y-135251000D01*
X96257969Y-135251000D01*
X96018597Y-135298614D01*
X95793113Y-135392012D01*
X95590184Y-135527606D01*
X95417606Y-135700184D01*
X95282012Y-135903113D01*
X95188614Y-136128597D01*
X95141000Y-136367969D01*
X95141000Y-136612031D01*
X95188614Y-136851403D01*
X95282012Y-137076887D01*
X95417606Y-137279816D01*
X95590184Y-137452394D01*
X95778000Y-137577890D01*
X95778001Y-138073013D01*
X95688190Y-138100257D01*
X95564263Y-138166497D01*
X95556708Y-138172697D01*
X95555537Y-138170506D01*
X95476185Y-138073815D01*
X95379494Y-137994463D01*
X95269180Y-137935498D01*
X95149482Y-137899188D01*
X95025000Y-137886928D01*
X94785750Y-137890000D01*
X94627000Y-138048750D01*
X94627000Y-138873000D01*
X94647000Y-138873000D01*
X94647000Y-139127000D01*
X94627000Y-139127000D01*
X94627000Y-139147000D01*
X94373000Y-139147000D01*
X94373000Y-139127000D01*
X93498750Y-139127000D01*
X93340000Y-139285750D01*
X93336928Y-139475000D01*
X93349188Y-139599482D01*
X93385498Y-139719180D01*
X93444463Y-139829494D01*
X93523815Y-139926185D01*
X93620506Y-140005537D01*
X93679742Y-140037200D01*
X93616497Y-140114263D01*
X93550257Y-140238190D01*
X93509466Y-140372658D01*
X93495693Y-140512500D01*
X93495693Y-140987500D01*
X93509466Y-141127342D01*
X93550257Y-141261810D01*
X93616497Y-141385737D01*
X93705641Y-141494359D01*
X93814263Y-141583503D01*
X93898001Y-141628262D01*
X93898000Y-143068443D01*
X93895089Y-143098000D01*
X93898000Y-143127556D01*
X93898000Y-143127565D01*
X93906711Y-143216011D01*
X93941134Y-143329489D01*
X93997034Y-143434070D01*
X94072263Y-143525737D01*
X94095233Y-143544588D01*
X94465415Y-143914771D01*
X94484263Y-143937737D01*
X94575929Y-144012966D01*
X94680510Y-144068866D01*
X94682693Y-144069528D01*
X94682693Y-144360000D01*
X94691903Y-144453508D01*
X94719178Y-144543423D01*
X94763471Y-144626289D01*
X94823079Y-144698921D01*
X94895711Y-144758529D01*
X94978577Y-144802822D01*
X95068492Y-144830097D01*
X95162000Y-144839307D01*
X95163368Y-144839307D01*
X95011731Y-144952412D01*
X94816822Y-145168645D01*
X94667843Y-145418748D01*
X94570519Y-145693109D01*
X94691186Y-145923000D01*
X95885000Y-145923000D01*
X95885000Y-145903000D01*
X96139000Y-145903000D01*
X96139000Y-145923000D01*
X96159000Y-145923000D01*
X96159000Y-146177000D01*
X96139000Y-146177000D01*
X96139000Y-147370155D01*
X96368890Y-147491476D01*
X96516099Y-147446825D01*
X96778920Y-147321641D01*
X97012269Y-147147588D01*
X97207178Y-146931355D01*
X97356157Y-146681252D01*
X97367560Y-146649105D01*
X97443302Y-146790808D01*
X97609130Y-146992870D01*
X97811192Y-147158698D01*
X98041722Y-147281919D01*
X98291863Y-147357799D01*
X98486816Y-147377000D01*
X98617184Y-147377000D01*
X98812137Y-147357799D01*
X98962754Y-147312109D01*
X99855001Y-148204357D01*
X99855000Y-149616739D01*
X99771263Y-149661497D01*
X99662641Y-149750641D01*
X99573497Y-149859263D01*
X99507257Y-149983190D01*
X99466466Y-150117658D01*
X99452693Y-150257500D01*
X99452693Y-150732500D01*
X99466466Y-150872342D01*
X99507257Y-151006810D01*
X99573497Y-151130737D01*
X99662641Y-151239359D01*
X99771263Y-151328503D01*
X99895190Y-151394743D01*
X100029658Y-151435534D01*
X100169500Y-151449307D01*
X100744500Y-151449307D01*
X100884342Y-151435534D01*
X101018810Y-151394743D01*
X101142737Y-151328503D01*
X101251359Y-151239359D01*
X101332000Y-151141098D01*
X101412641Y-151239359D01*
X101521263Y-151328503D01*
X101645190Y-151394743D01*
X101779658Y-151435534D01*
X101919500Y-151449307D01*
X102494500Y-151449307D01*
X102634342Y-151435534D01*
X102768810Y-151394743D01*
X102892737Y-151328503D01*
X103001359Y-151239359D01*
X103090503Y-151130737D01*
X103156743Y-151006810D01*
X103197534Y-150872342D01*
X103211307Y-150732500D01*
X103211307Y-150257500D01*
X103197534Y-150117658D01*
X103156743Y-149983190D01*
X103090503Y-149859263D01*
X103001359Y-149750641D01*
X102892737Y-149661497D01*
X102809000Y-149616739D01*
X102809000Y-147724355D01*
X103221246Y-147312110D01*
X103371863Y-147357799D01*
X103566816Y-147377000D01*
X103697184Y-147377000D01*
X103892137Y-147357799D01*
X104142278Y-147281919D01*
X104372808Y-147158698D01*
X104547555Y-147015287D01*
X104549567Y-147017738D01*
X104569263Y-147041738D01*
X104592228Y-147060585D01*
X108521419Y-150989778D01*
X108540262Y-151012738D01*
X108563222Y-151031581D01*
X108563226Y-151031585D01*
X108590376Y-151053866D01*
X108631928Y-151087967D01*
X108736509Y-151143867D01*
X108849987Y-151178290D01*
X108938433Y-151187001D01*
X108938442Y-151187001D01*
X108967998Y-151189912D01*
X108997555Y-151187001D01*
X114110445Y-151187001D01*
X114140001Y-151189912D01*
X114169557Y-151187001D01*
X114169567Y-151187001D01*
X114258013Y-151178290D01*
X114371491Y-151143867D01*
X114476072Y-151087967D01*
X114567738Y-151012738D01*
X114586590Y-150989767D01*
X117911779Y-147664580D01*
X117934738Y-147645738D01*
X117953581Y-147622778D01*
X117953585Y-147622774D01*
X118009966Y-147554073D01*
X118009968Y-147554071D01*
X118065867Y-147449491D01*
X118100290Y-147336013D01*
X118109001Y-147247567D01*
X118109001Y-147247558D01*
X118111912Y-147218002D01*
X118109001Y-147188445D01*
X118109001Y-147140486D01*
X118131192Y-147158698D01*
X118361722Y-147281919D01*
X118611863Y-147357799D01*
X118806816Y-147377000D01*
X118937184Y-147377000D01*
X119132137Y-147357799D01*
X119382278Y-147281919D01*
X119612808Y-147158698D01*
X119814870Y-146992870D01*
X119980698Y-146790808D01*
X120103919Y-146560278D01*
X120179799Y-146310137D01*
X120205420Y-146050000D01*
X120179799Y-145789863D01*
X120103919Y-145539722D01*
X119980698Y-145309192D01*
X119814870Y-145107130D01*
X119612808Y-144941302D01*
X119382278Y-144818081D01*
X119256743Y-144780000D01*
X119382278Y-144741919D01*
X119612808Y-144618698D01*
X119814870Y-144452870D01*
X119980698Y-144250808D01*
X120103919Y-144020278D01*
X120179799Y-143770137D01*
X120205420Y-143510000D01*
X120179799Y-143249863D01*
X120103919Y-142999722D01*
X119980698Y-142769192D01*
X119814870Y-142567130D01*
X119612808Y-142401302D01*
X119382278Y-142278081D01*
X119132137Y-142202201D01*
X118937184Y-142183000D01*
X118806816Y-142183000D01*
X118611863Y-142202201D01*
X118361722Y-142278081D01*
X118131192Y-142401302D01*
X118109001Y-142419514D01*
X118109001Y-137326557D01*
X118111912Y-137297000D01*
X118109001Y-137267444D01*
X118109001Y-137267435D01*
X118100290Y-137178989D01*
X118065867Y-137065511D01*
X118009967Y-136960930D01*
X117934738Y-136869264D01*
X117911770Y-136850414D01*
X117908590Y-136847234D01*
X117908583Y-136847226D01*
X117894932Y-136833575D01*
X117939000Y-136612031D01*
X117939000Y-136367969D01*
X118001000Y-136367969D01*
X118001000Y-136612031D01*
X118048614Y-136851403D01*
X118142012Y-137076887D01*
X118277606Y-137279816D01*
X118450184Y-137452394D01*
X118653113Y-137587988D01*
X118878597Y-137681386D01*
X119117969Y-137729000D01*
X119362031Y-137729000D01*
X119601403Y-137681386D01*
X119826887Y-137587988D01*
X120029816Y-137452394D01*
X120202394Y-137279816D01*
X120337988Y-137076887D01*
X120431386Y-136851403D01*
X120479000Y-136612031D01*
X120479000Y-136367969D01*
X120431386Y-136128597D01*
X120337988Y-135903113D01*
X120202394Y-135700184D01*
X120029816Y-135527606D01*
X119826887Y-135392012D01*
X119601403Y-135298614D01*
X119362031Y-135251000D01*
X119117969Y-135251000D01*
X118878597Y-135298614D01*
X118653113Y-135392012D01*
X118450184Y-135527606D01*
X118277606Y-135700184D01*
X118142012Y-135903113D01*
X118048614Y-136128597D01*
X118001000Y-136367969D01*
X117939000Y-136367969D01*
X117891386Y-136128597D01*
X117797988Y-135903113D01*
X117662394Y-135700184D01*
X117489816Y-135527606D01*
X117286887Y-135392012D01*
X117061403Y-135298614D01*
X116822031Y-135251000D01*
X116577969Y-135251000D01*
X116338597Y-135298614D01*
X116113113Y-135392012D01*
X115910184Y-135527606D01*
X115849001Y-135588789D01*
X115849001Y-133827969D01*
X118001000Y-133827969D01*
X118001000Y-134072031D01*
X118048614Y-134311403D01*
X118142012Y-134536887D01*
X118277606Y-134739816D01*
X118450184Y-134912394D01*
X118653113Y-135047988D01*
X118878597Y-135141386D01*
X119117969Y-135189000D01*
X119362031Y-135189000D01*
X119601403Y-135141386D01*
X119826887Y-135047988D01*
X120029816Y-134912394D01*
X120202394Y-134739816D01*
X120337988Y-134536887D01*
X120431386Y-134311403D01*
X120479000Y-134072031D01*
X120479000Y-133827969D01*
X120431386Y-133588597D01*
X120337988Y-133363113D01*
X120202394Y-133160184D01*
X120029816Y-132987606D01*
X119826887Y-132852012D01*
X119601403Y-132758614D01*
X119362031Y-132711000D01*
X119117969Y-132711000D01*
X118878597Y-132758614D01*
X118653113Y-132852012D01*
X118450184Y-132987606D01*
X118277606Y-133160184D01*
X118142012Y-133363113D01*
X118048614Y-133588597D01*
X118001000Y-133827969D01*
X115849001Y-133827969D01*
X115849001Y-131287969D01*
X118001000Y-131287969D01*
X118001000Y-131532031D01*
X118048614Y-131771403D01*
X118142012Y-131996887D01*
X118277606Y-132199816D01*
X118450184Y-132372394D01*
X118653113Y-132507988D01*
X118878597Y-132601386D01*
X119117969Y-132649000D01*
X119362031Y-132649000D01*
X119601403Y-132601386D01*
X119826887Y-132507988D01*
X120029816Y-132372394D01*
X120202394Y-132199816D01*
X120337988Y-131996887D01*
X120431386Y-131771403D01*
X120479000Y-131532031D01*
X120479000Y-131287969D01*
X120431386Y-131048597D01*
X120337988Y-130823113D01*
X120202394Y-130620184D01*
X120029816Y-130447606D01*
X119826887Y-130312012D01*
X119601403Y-130218614D01*
X119362031Y-130171000D01*
X119117969Y-130171000D01*
X118878597Y-130218614D01*
X118653113Y-130312012D01*
X118450184Y-130447606D01*
X118277606Y-130620184D01*
X118142012Y-130823113D01*
X118048614Y-131048597D01*
X118001000Y-131287969D01*
X115849001Y-131287969D01*
X115849001Y-128747969D01*
X118001000Y-128747969D01*
X118001000Y-128992031D01*
X118048614Y-129231403D01*
X118142012Y-129456887D01*
X118277606Y-129659816D01*
X118450184Y-129832394D01*
X118653113Y-129967988D01*
X118878597Y-130061386D01*
X119117969Y-130109000D01*
X119362031Y-130109000D01*
X119601403Y-130061386D01*
X119826887Y-129967988D01*
X120029816Y-129832394D01*
X120202394Y-129659816D01*
X120337988Y-129456887D01*
X120431386Y-129231403D01*
X120479000Y-128992031D01*
X120479000Y-128747969D01*
X120431386Y-128508597D01*
X120337988Y-128283113D01*
X120202394Y-128080184D01*
X120029816Y-127907606D01*
X119826887Y-127772012D01*
X119601403Y-127678614D01*
X119362031Y-127631000D01*
X119117969Y-127631000D01*
X118878597Y-127678614D01*
X118653113Y-127772012D01*
X118450184Y-127907606D01*
X118277606Y-128080184D01*
X118142012Y-128283113D01*
X118048614Y-128508597D01*
X118001000Y-128747969D01*
X115849001Y-128747969D01*
X115849001Y-127446557D01*
X115851912Y-127417000D01*
X115849001Y-127387444D01*
X115849001Y-127387435D01*
X115840290Y-127298989D01*
X115805867Y-127185511D01*
X115749967Y-127080930D01*
X115730627Y-127057364D01*
X115693585Y-127012228D01*
X115693581Y-127012224D01*
X115674738Y-126989264D01*
X115651778Y-126970421D01*
X114889326Y-126207969D01*
X118001000Y-126207969D01*
X118001000Y-126452031D01*
X118048614Y-126691403D01*
X118142012Y-126916887D01*
X118277606Y-127119816D01*
X118450184Y-127292394D01*
X118653113Y-127427988D01*
X118878597Y-127521386D01*
X119117969Y-127569000D01*
X119362031Y-127569000D01*
X119601403Y-127521386D01*
X119826887Y-127427988D01*
X120029816Y-127292394D01*
X120202394Y-127119816D01*
X120337988Y-126916887D01*
X120431386Y-126691403D01*
X120479000Y-126452031D01*
X120479000Y-126207969D01*
X120431386Y-125968597D01*
X120337988Y-125743113D01*
X120202394Y-125540184D01*
X120029816Y-125367606D01*
X119826887Y-125232012D01*
X119601403Y-125138614D01*
X119362031Y-125091000D01*
X119117969Y-125091000D01*
X118878597Y-125138614D01*
X118653113Y-125232012D01*
X118450184Y-125367606D01*
X118277606Y-125540184D01*
X118142012Y-125743113D01*
X118048614Y-125968597D01*
X118001000Y-126207969D01*
X114889326Y-126207969D01*
X111021752Y-122340397D01*
X111033113Y-122347988D01*
X111258597Y-122441386D01*
X111497969Y-122489000D01*
X111742031Y-122489000D01*
X111981403Y-122441386D01*
X112206887Y-122347988D01*
X112409816Y-122212394D01*
X112440427Y-122181783D01*
X113000416Y-122741772D01*
X113019264Y-122764738D01*
X113110930Y-122839967D01*
X113215511Y-122895867D01*
X113328989Y-122930290D01*
X113417435Y-122939001D01*
X113417444Y-122939001D01*
X113447000Y-122941912D01*
X113476557Y-122939001D01*
X117537646Y-122939001D01*
X118045068Y-123446424D01*
X118001000Y-123667969D01*
X118001000Y-123912031D01*
X118048614Y-124151403D01*
X118142012Y-124376887D01*
X118277606Y-124579816D01*
X118450184Y-124752394D01*
X118653113Y-124887988D01*
X118878597Y-124981386D01*
X119117969Y-125029000D01*
X119362031Y-125029000D01*
X119601403Y-124981386D01*
X119826887Y-124887988D01*
X120029816Y-124752394D01*
X120202394Y-124579816D01*
X120337988Y-124376887D01*
X120431386Y-124151403D01*
X120479000Y-123912031D01*
X120479000Y-123667969D01*
X120431386Y-123428597D01*
X120337988Y-123203113D01*
X120202394Y-123000184D01*
X120029816Y-122827606D01*
X119826887Y-122692012D01*
X119601403Y-122598614D01*
X119362031Y-122551000D01*
X119117969Y-122551000D01*
X118896424Y-122595068D01*
X118641752Y-122340397D01*
X118653113Y-122347988D01*
X118878597Y-122441386D01*
X119117969Y-122489000D01*
X119362031Y-122489000D01*
X119601403Y-122441386D01*
X119826887Y-122347988D01*
X120029816Y-122212394D01*
X120202394Y-122039816D01*
X120337988Y-121836887D01*
X120431386Y-121611403D01*
X120479000Y-121372031D01*
X120479000Y-121127969D01*
X120431386Y-120888597D01*
X120337988Y-120663113D01*
X120202394Y-120460184D01*
X120029816Y-120287606D01*
X119826887Y-120152012D01*
X119601403Y-120058614D01*
X119362031Y-120011000D01*
X119117969Y-120011000D01*
X118878597Y-120058614D01*
X118653113Y-120152012D01*
X118450184Y-120287606D01*
X118277606Y-120460184D01*
X118142012Y-120663113D01*
X118048614Y-120888597D01*
X118001000Y-121127969D01*
X118001000Y-121372031D01*
X118048614Y-121611403D01*
X118142012Y-121836887D01*
X118160789Y-121864989D01*
X118123072Y-121834035D01*
X118018491Y-121778135D01*
X117905013Y-121743712D01*
X117839264Y-121737236D01*
X117891386Y-121611403D01*
X117939000Y-121372031D01*
X117939000Y-121127969D01*
X117891386Y-120888597D01*
X117797988Y-120663113D01*
X117662394Y-120460184D01*
X117489816Y-120287606D01*
X117286887Y-120152012D01*
X117061403Y-120058614D01*
X116822031Y-120011000D01*
X116577969Y-120011000D01*
X116338597Y-120058614D01*
X116113113Y-120152012D01*
X115910184Y-120287606D01*
X115737606Y-120460184D01*
X115602012Y-120663113D01*
X115508614Y-120888597D01*
X115461000Y-121127969D01*
X115461000Y-121372031D01*
X115508614Y-121611403D01*
X115559810Y-121735001D01*
X115300190Y-121735001D01*
X115351386Y-121611403D01*
X115399000Y-121372031D01*
X115399000Y-121127969D01*
X115351386Y-120888597D01*
X115257988Y-120663113D01*
X115122394Y-120460184D01*
X114949816Y-120287606D01*
X114746887Y-120152012D01*
X114521403Y-120058614D01*
X114282031Y-120011000D01*
X114037969Y-120011000D01*
X113798597Y-120058614D01*
X113573113Y-120152012D01*
X113370184Y-120287606D01*
X113229353Y-120428437D01*
X113209967Y-120392168D01*
X113134738Y-120300502D01*
X113111773Y-120281655D01*
X106695395Y-113865278D01*
X106743097Y-113702702D01*
X105930000Y-112889605D01*
X105915858Y-112903748D01*
X105736253Y-112724143D01*
X105750395Y-112710000D01*
X106109605Y-112710000D01*
X106922702Y-113523097D01*
X107166671Y-113451514D01*
X107267055Y-113239364D01*
X107298337Y-113314886D01*
X107438089Y-113524040D01*
X107615960Y-113701911D01*
X107825114Y-113841663D01*
X108057513Y-113937926D01*
X108304226Y-113987000D01*
X108555774Y-113987000D01*
X108802487Y-113937926D01*
X109034886Y-113841663D01*
X109244040Y-113701911D01*
X109421911Y-113524040D01*
X109430000Y-113511934D01*
X109438089Y-113524040D01*
X109615960Y-113701911D01*
X109825114Y-113841663D01*
X110057513Y-113937926D01*
X110304226Y-113987000D01*
X110555774Y-113987000D01*
X110802487Y-113937926D01*
X111034886Y-113841663D01*
X111244040Y-113701911D01*
X111421911Y-113524040D01*
X111561663Y-113314886D01*
X111650693Y-113099949D01*
X111650693Y-113510000D01*
X111659903Y-113603508D01*
X111687178Y-113693423D01*
X111731471Y-113776289D01*
X111791079Y-113848921D01*
X111863711Y-113908529D01*
X111946577Y-113952822D01*
X112036492Y-113980097D01*
X112130000Y-113989307D01*
X113730000Y-113989307D01*
X113823508Y-113980097D01*
X113913423Y-113952822D01*
X113996289Y-113908529D01*
X114068921Y-113848921D01*
X114128529Y-113776289D01*
X114172822Y-113693423D01*
X114200097Y-113603508D01*
X114209307Y-113510000D01*
X114209307Y-111910000D01*
X114200097Y-111816492D01*
X114172822Y-111726577D01*
X114128529Y-111643711D01*
X114068921Y-111571079D01*
X113996289Y-111511471D01*
X113959213Y-111491653D01*
X114687952Y-111491653D01*
X114843962Y-111807214D01*
X115218745Y-111998020D01*
X115623551Y-112112044D01*
X116042824Y-112144902D01*
X116460451Y-112095334D01*
X116860383Y-111965243D01*
X117156038Y-111807214D01*
X117312048Y-111491653D01*
X116000000Y-110179605D01*
X114687952Y-111491653D01*
X113959213Y-111491653D01*
X113913423Y-111467178D01*
X113823508Y-111439903D01*
X113730000Y-111430693D01*
X113236267Y-111430693D01*
X113170534Y-111410753D01*
X112930000Y-111387062D01*
X112689467Y-111410753D01*
X112623734Y-111430693D01*
X112130000Y-111430693D01*
X112036492Y-111439903D01*
X111946577Y-111467178D01*
X111863711Y-111511471D01*
X111791079Y-111571079D01*
X111731471Y-111643711D01*
X111687178Y-111726577D01*
X111659903Y-111816492D01*
X111650693Y-111910000D01*
X111650693Y-112320051D01*
X111561663Y-112105114D01*
X111421911Y-111895960D01*
X111244040Y-111718089D01*
X111034886Y-111578337D01*
X110802487Y-111482074D01*
X110555774Y-111433000D01*
X110304226Y-111433000D01*
X110057513Y-111482074D01*
X109825114Y-111578337D01*
X109615960Y-111718089D01*
X109438089Y-111895960D01*
X109430000Y-111908066D01*
X109421911Y-111895960D01*
X109244040Y-111718089D01*
X109034886Y-111578337D01*
X108802487Y-111482074D01*
X108555774Y-111433000D01*
X108304226Y-111433000D01*
X108057513Y-111482074D01*
X107825114Y-111578337D01*
X107615960Y-111718089D01*
X107438089Y-111895960D01*
X107298337Y-112105114D01*
X107265786Y-112183700D01*
X107233603Y-112093708D01*
X107166671Y-111968486D01*
X106922702Y-111896903D01*
X106109605Y-112710000D01*
X105750395Y-112710000D01*
X104937298Y-111896903D01*
X104693329Y-111968486D01*
X104572429Y-112223996D01*
X104503700Y-112498184D01*
X104489783Y-112780512D01*
X104531213Y-113060130D01*
X104593035Y-113233001D01*
X94550357Y-113233001D01*
X94378349Y-113060994D01*
X94413178Y-113022355D01*
X94562157Y-112772252D01*
X94659481Y-112497891D01*
X94538814Y-112268000D01*
X93345000Y-112268000D01*
X93345000Y-112288000D01*
X93091000Y-112288000D01*
X93091000Y-112268000D01*
X93071000Y-112268000D01*
X93071000Y-112014000D01*
X93091000Y-112014000D01*
X93091000Y-110820845D01*
X93345000Y-110820845D01*
X93345000Y-112014000D01*
X94538814Y-112014000D01*
X94659481Y-111784109D01*
X94562157Y-111509748D01*
X94551379Y-111491653D01*
X101547952Y-111491653D01*
X101703962Y-111807214D01*
X102078745Y-111998020D01*
X102483551Y-112112044D01*
X102902824Y-112144902D01*
X103320451Y-112095334D01*
X103720383Y-111965243D01*
X104016038Y-111807214D01*
X104060491Y-111717298D01*
X105116903Y-111717298D01*
X105930000Y-112530395D01*
X106743097Y-111717298D01*
X106671514Y-111473329D01*
X106416004Y-111352429D01*
X106141816Y-111283700D01*
X105859488Y-111269783D01*
X105579870Y-111311213D01*
X105313708Y-111406397D01*
X105188486Y-111473329D01*
X105116903Y-111717298D01*
X104060491Y-111717298D01*
X104172048Y-111491653D01*
X102860000Y-110179605D01*
X101547952Y-111491653D01*
X94551379Y-111491653D01*
X94413178Y-111259645D01*
X94218269Y-111043412D01*
X93984920Y-110869359D01*
X93722099Y-110744175D01*
X93574890Y-110699524D01*
X93345000Y-110820845D01*
X93091000Y-110820845D01*
X92861110Y-110699524D01*
X92713901Y-110744175D01*
X92451080Y-110869359D01*
X92217731Y-111043412D01*
X92022822Y-111259645D01*
X91873843Y-111509748D01*
X91862440Y-111541895D01*
X91786698Y-111400192D01*
X91620870Y-111198130D01*
X91418808Y-111032302D01*
X91188278Y-110909081D01*
X90938137Y-110833201D01*
X90743184Y-110814000D01*
X90612816Y-110814000D01*
X90417863Y-110833201D01*
X90167722Y-110909081D01*
X89937192Y-111032302D01*
X89735130Y-111198130D01*
X89569302Y-111400192D01*
X89446081Y-111630722D01*
X89408000Y-111756257D01*
X89369919Y-111630722D01*
X89246698Y-111400192D01*
X89080870Y-111198130D01*
X88878808Y-111032302D01*
X88648278Y-110909081D01*
X88398137Y-110833201D01*
X88203184Y-110814000D01*
X88072816Y-110814000D01*
X87877863Y-110833201D01*
X87627722Y-110909081D01*
X87397192Y-111032302D01*
X87195130Y-111198130D01*
X87029302Y-111400192D01*
X86906081Y-111630722D01*
X86868000Y-111756257D01*
X86829919Y-111630722D01*
X86706698Y-111400192D01*
X86540870Y-111198130D01*
X86338808Y-111032302D01*
X86108278Y-110909081D01*
X85858137Y-110833201D01*
X85663184Y-110814000D01*
X85532816Y-110814000D01*
X85337863Y-110833201D01*
X85087722Y-110909081D01*
X84857192Y-111032302D01*
X84655130Y-111198130D01*
X84489302Y-111400192D01*
X84366081Y-111630722D01*
X84328000Y-111756257D01*
X84289919Y-111630722D01*
X84166698Y-111400192D01*
X84000870Y-111198130D01*
X83798808Y-111032302D01*
X83568278Y-110909081D01*
X83318137Y-110833201D01*
X83123184Y-110814000D01*
X82992816Y-110814000D01*
X82797863Y-110833201D01*
X82547722Y-110909081D01*
X82317192Y-111032302D01*
X82115130Y-111198130D01*
X81949302Y-111400192D01*
X81826081Y-111630722D01*
X81788000Y-111756257D01*
X81749919Y-111630722D01*
X81626698Y-111400192D01*
X81460870Y-111198130D01*
X81258808Y-111032302D01*
X81028278Y-110909081D01*
X80778137Y-110833201D01*
X80583184Y-110814000D01*
X80452816Y-110814000D01*
X80257863Y-110833201D01*
X80007722Y-110909081D01*
X79777192Y-111032302D01*
X79575130Y-111198130D01*
X79409302Y-111400192D01*
X79286081Y-111630722D01*
X79248000Y-111756257D01*
X79209919Y-111630722D01*
X79086698Y-111400192D01*
X78920870Y-111198130D01*
X78718808Y-111032302D01*
X78488278Y-110909081D01*
X78238137Y-110833201D01*
X78043184Y-110814000D01*
X77912816Y-110814000D01*
X77717863Y-110833201D01*
X77567246Y-110878890D01*
X76731180Y-110042824D01*
X100715098Y-110042824D01*
X100764666Y-110460451D01*
X100894757Y-110860383D01*
X101052786Y-111156038D01*
X101368347Y-111312048D01*
X102680395Y-110000000D01*
X103039605Y-110000000D01*
X104351653Y-111312048D01*
X104667214Y-111156038D01*
X104858020Y-110781255D01*
X104972044Y-110376449D01*
X104998189Y-110042824D01*
X113855098Y-110042824D01*
X113904666Y-110460451D01*
X114034757Y-110860383D01*
X114192786Y-111156038D01*
X114508347Y-111312048D01*
X115820395Y-110000000D01*
X116179605Y-110000000D01*
X117491653Y-111312048D01*
X117807214Y-111156038D01*
X117998020Y-110781255D01*
X118112044Y-110376449D01*
X118114987Y-110338890D01*
X119335524Y-110338890D01*
X119380175Y-110486099D01*
X119505359Y-110748920D01*
X119679412Y-110982269D01*
X119895645Y-111177178D01*
X120145748Y-111326157D01*
X120420109Y-111423481D01*
X120650000Y-111302814D01*
X120650000Y-110109000D01*
X120904000Y-110109000D01*
X120904000Y-111302814D01*
X121133891Y-111423481D01*
X121408252Y-111326157D01*
X121658355Y-111177178D01*
X121874588Y-110982269D01*
X122048641Y-110748920D01*
X122173825Y-110486099D01*
X122218476Y-110338890D01*
X122097155Y-110109000D01*
X120904000Y-110109000D01*
X120650000Y-110109000D01*
X119456845Y-110109000D01*
X119335524Y-110338890D01*
X118114987Y-110338890D01*
X118144902Y-109957176D01*
X118105490Y-109625110D01*
X119335524Y-109625110D01*
X119456845Y-109855000D01*
X120650000Y-109855000D01*
X120650000Y-109835000D01*
X120904000Y-109835000D01*
X120904000Y-109855000D01*
X122097155Y-109855000D01*
X122218476Y-109625110D01*
X122173825Y-109477901D01*
X122048641Y-109215080D01*
X121874588Y-108981731D01*
X121658355Y-108786822D01*
X121631555Y-108770858D01*
X121720508Y-108762097D01*
X121810423Y-108734822D01*
X121893289Y-108690529D01*
X121965921Y-108630921D01*
X122025529Y-108558289D01*
X122069822Y-108475423D01*
X122097097Y-108385508D01*
X122106307Y-108292000D01*
X122106307Y-106592000D01*
X122097097Y-106498492D01*
X122069822Y-106408577D01*
X122025529Y-106325711D01*
X121965921Y-106253079D01*
X121893289Y-106193471D01*
X121810423Y-106149178D01*
X121720508Y-106121903D01*
X121627000Y-106112693D01*
X119927000Y-106112693D01*
X119833492Y-106121903D01*
X119743577Y-106149178D01*
X119660711Y-106193471D01*
X119588079Y-106253079D01*
X119528471Y-106325711D01*
X119484178Y-106408577D01*
X119456903Y-106498492D01*
X119447693Y-106592000D01*
X119447693Y-108292000D01*
X119456903Y-108385508D01*
X119484178Y-108475423D01*
X119528471Y-108558289D01*
X119588079Y-108630921D01*
X119660711Y-108690529D01*
X119743577Y-108734822D01*
X119833492Y-108762097D01*
X119922445Y-108770858D01*
X119895645Y-108786822D01*
X119679412Y-108981731D01*
X119505359Y-109215080D01*
X119380175Y-109477901D01*
X119335524Y-109625110D01*
X118105490Y-109625110D01*
X118095334Y-109539549D01*
X117965243Y-109139617D01*
X117807214Y-108843962D01*
X117491653Y-108687952D01*
X116179605Y-110000000D01*
X115820395Y-110000000D01*
X114508347Y-108687952D01*
X114192786Y-108843962D01*
X114001980Y-109218745D01*
X113887956Y-109623551D01*
X113855098Y-110042824D01*
X104998189Y-110042824D01*
X105004902Y-109957176D01*
X104955334Y-109539549D01*
X104825243Y-109139617D01*
X104667214Y-108843962D01*
X104351653Y-108687952D01*
X103039605Y-110000000D01*
X102680395Y-110000000D01*
X101368347Y-108687952D01*
X101052786Y-108843962D01*
X100861980Y-109218745D01*
X100747956Y-109623551D01*
X100715098Y-110042824D01*
X76731180Y-110042824D01*
X75496569Y-108808214D01*
X75477717Y-108785243D01*
X75386051Y-108710014D01*
X75281470Y-108654114D01*
X75167992Y-108619691D01*
X75079546Y-108610980D01*
X75079536Y-108610980D01*
X75049980Y-108608069D01*
X75020424Y-108610980D01*
X56593814Y-108610980D01*
X56564257Y-108608069D01*
X56534701Y-108610980D01*
X56534692Y-108610980D01*
X56446246Y-108619691D01*
X56332768Y-108654114D01*
X56228187Y-108710014D01*
X56228185Y-108710015D01*
X56228186Y-108710015D01*
X56159485Y-108766396D01*
X56159481Y-108766400D01*
X56136521Y-108785243D01*
X56117678Y-108808203D01*
X47530233Y-117395650D01*
X47507262Y-117414502D01*
X47432033Y-117506169D01*
X47412647Y-117542437D01*
X47271816Y-117401606D01*
X47068887Y-117266012D01*
X46843403Y-117172614D01*
X46604031Y-117125000D01*
X46359969Y-117125000D01*
X46120597Y-117172614D01*
X45895113Y-117266012D01*
X45692184Y-117401606D01*
X45519606Y-117574184D01*
X45384012Y-117777113D01*
X45290614Y-118002597D01*
X45243000Y-118241969D01*
X45181000Y-118241969D01*
X45133386Y-118002597D01*
X45039988Y-117777113D01*
X44904394Y-117574184D01*
X44731816Y-117401606D01*
X44528887Y-117266012D01*
X44303403Y-117172614D01*
X44064031Y-117125000D01*
X43819969Y-117125000D01*
X43580597Y-117172614D01*
X43355113Y-117266012D01*
X43152184Y-117401606D01*
X42979606Y-117574184D01*
X42844012Y-117777113D01*
X42750614Y-118002597D01*
X42703000Y-118241969D01*
X42641000Y-118241969D01*
X42593386Y-118002597D01*
X42499988Y-117777113D01*
X42364394Y-117574184D01*
X42191816Y-117401606D01*
X41988887Y-117266012D01*
X41763403Y-117172614D01*
X41524031Y-117125000D01*
X41279969Y-117125000D01*
X41040597Y-117172614D01*
X40815113Y-117266012D01*
X40612184Y-117401606D01*
X40439606Y-117574184D01*
X40304012Y-117777113D01*
X40210614Y-118002597D01*
X40163000Y-118241969D01*
X38799000Y-118241969D01*
X38799000Y-118120037D01*
X38703810Y-117641486D01*
X38517089Y-117190701D01*
X38246011Y-116785005D01*
X37900995Y-116439989D01*
X37495299Y-116168911D01*
X37044514Y-115982190D01*
X36565963Y-115887000D01*
X36078037Y-115887000D01*
X35599486Y-115982190D01*
X35148701Y-116168911D01*
X34743005Y-116439989D01*
X34397989Y-116785005D01*
X34126911Y-117190701D01*
X33940190Y-117641486D01*
X33845000Y-118120037D01*
X27172000Y-118120037D01*
X27172000Y-108508347D01*
X101547952Y-108508347D01*
X102860000Y-109820395D01*
X104172048Y-108508347D01*
X114687952Y-108508347D01*
X116000000Y-109820395D01*
X117312048Y-108508347D01*
X117156038Y-108192786D01*
X116781255Y-108001980D01*
X116376449Y-107887956D01*
X115957176Y-107855098D01*
X115539549Y-107904666D01*
X115139617Y-108034757D01*
X114843962Y-108192786D01*
X114687952Y-108508347D01*
X104172048Y-108508347D01*
X104016038Y-108192786D01*
X103641255Y-108001980D01*
X103236449Y-107887956D01*
X102817176Y-107855098D01*
X102399549Y-107904666D01*
X101999617Y-108034757D01*
X101703962Y-108192786D01*
X101547952Y-108508347D01*
X27172000Y-108508347D01*
X27172000Y-99562000D01*
X125228001Y-99562000D01*
X125228000Y-158248000D01*
G36*
X69249302Y-111400192D02*
G01*
X69126081Y-111630722D01*
X69050201Y-111880863D01*
X69024580Y-112141000D01*
X69050201Y-112401137D01*
X69126081Y-112651278D01*
X69249302Y-112881808D01*
X69415130Y-113083870D01*
X69506000Y-113158445D01*
X69506000Y-113351890D01*
X69414492Y-113360903D01*
X69324577Y-113388178D01*
X69241711Y-113432471D01*
X69169079Y-113492079D01*
X69109471Y-113564711D01*
X69065178Y-113647577D01*
X69037903Y-113737492D01*
X69028693Y-113831000D01*
X69028693Y-115531000D01*
X69037903Y-115624508D01*
X69065178Y-115714423D01*
X69109471Y-115797289D01*
X69169079Y-115869921D01*
X69241711Y-115929529D01*
X69324577Y-115973822D01*
X69414492Y-116001097D01*
X69506001Y-116010110D01*
X69506001Y-116239141D01*
X69501878Y-116281000D01*
X69515064Y-116414867D01*
X69518329Y-116448021D01*
X69533107Y-116496738D01*
X69567046Y-116608623D01*
X69646161Y-116756636D01*
X69708311Y-116832366D01*
X69752631Y-116886370D01*
X69785141Y-116913050D01*
X71554950Y-118682860D01*
X71581630Y-118715370D01*
X71711364Y-118821839D01*
X71859376Y-118900954D01*
X72019979Y-118949672D01*
X72145148Y-118962000D01*
X72145151Y-118962000D01*
X72187000Y-118966122D01*
X72228849Y-118962000D01*
X76218000Y-118962000D01*
X76218001Y-119728132D01*
X76127318Y-119776603D01*
X76016802Y-119867302D01*
X75926103Y-119977818D01*
X75858708Y-120103906D01*
X75817206Y-120240718D01*
X75803193Y-120382999D01*
X75803193Y-121233001D01*
X75817206Y-121375282D01*
X75858708Y-121512094D01*
X75926103Y-121638182D01*
X75993000Y-121719695D01*
X75993000Y-121889220D01*
X75926289Y-121834471D01*
X75843423Y-121790178D01*
X75753508Y-121762903D01*
X75660000Y-121753693D01*
X75557830Y-121753693D01*
X75572002Y-121727180D01*
X75608312Y-121607482D01*
X75620572Y-121483000D01*
X75617500Y-121093750D01*
X75458750Y-120935000D01*
X74322000Y-120935000D01*
X74322000Y-120955000D01*
X74068000Y-120955000D01*
X74068000Y-120935000D01*
X72931250Y-120935000D01*
X72772500Y-121093750D01*
X72769428Y-121483000D01*
X72781688Y-121607482D01*
X72817998Y-121727180D01*
X72832170Y-121753693D01*
X72020000Y-121753693D01*
X71926492Y-121762903D01*
X71836577Y-121790178D01*
X71753711Y-121834471D01*
X71681079Y-121894079D01*
X71621471Y-121966711D01*
X71577178Y-122049577D01*
X71549903Y-122139492D01*
X71540693Y-122233000D01*
X71540693Y-124216020D01*
X71508583Y-124321872D01*
X71493000Y-124480092D01*
X71493000Y-128503693D01*
X69125932Y-128503693D01*
X68897000Y-128274761D01*
X68897000Y-127255091D01*
X68881417Y-127096871D01*
X68819833Y-126893856D01*
X68719826Y-126706756D01*
X68659141Y-126632811D01*
X68653503Y-126622263D01*
X68564359Y-126513641D01*
X68466098Y-126433000D01*
X68564359Y-126352359D01*
X68578605Y-126335000D01*
X68966837Y-126335000D01*
X69000693Y-126338335D01*
X69000693Y-126833000D01*
X69009903Y-126926508D01*
X69037178Y-127016423D01*
X69081471Y-127099289D01*
X69141079Y-127171921D01*
X69213711Y-127231529D01*
X69296577Y-127275822D01*
X69386492Y-127303097D01*
X69480000Y-127312307D01*
X70580000Y-127312307D01*
X70673508Y-127303097D01*
X70763423Y-127275822D01*
X70846289Y-127231529D01*
X70918921Y-127171921D01*
X70978529Y-127099289D01*
X71022822Y-127016423D01*
X71050097Y-126926508D01*
X71059307Y-126833000D01*
X71059307Y-122233000D01*
X71050097Y-122139492D01*
X71022822Y-122049577D01*
X70978529Y-121966711D01*
X70918921Y-121894079D01*
X70846289Y-121834471D01*
X70763423Y-121790178D01*
X70673508Y-121762903D01*
X70580000Y-121753693D01*
X69480000Y-121753693D01*
X69386492Y-121762903D01*
X69296577Y-121790178D01*
X69213711Y-121834471D01*
X69141079Y-121894079D01*
X69081471Y-121966711D01*
X69037178Y-122049577D01*
X69009903Y-122139492D01*
X69000693Y-122233000D01*
X69000693Y-124463463D01*
X68683157Y-124781000D01*
X68578605Y-124781000D01*
X68564359Y-124763641D01*
X68455737Y-124674497D01*
X68331810Y-124608257D01*
X68197342Y-124567466D01*
X68057500Y-124553693D01*
X67582500Y-124553693D01*
X67442658Y-124567466D01*
X67308190Y-124608257D01*
X67184263Y-124674497D01*
X67075641Y-124763641D01*
X67061395Y-124781000D01*
X66578605Y-124781000D01*
X66564359Y-124763641D01*
X66455737Y-124674497D01*
X66331810Y-124608257D01*
X66197342Y-124567466D01*
X66057500Y-124553693D01*
X65582500Y-124553693D01*
X65442658Y-124567466D01*
X65308190Y-124608257D01*
X65184263Y-124674497D01*
X65075641Y-124763641D01*
X64986497Y-124872263D01*
X64920257Y-124996190D01*
X64879466Y-125130658D01*
X64865693Y-125270500D01*
X64865693Y-125845500D01*
X64879466Y-125985342D01*
X64920257Y-126119810D01*
X64986497Y-126243737D01*
X64992697Y-126251292D01*
X64990506Y-126252463D01*
X64893815Y-126331815D01*
X64814463Y-126428506D01*
X64755498Y-126538820D01*
X64719188Y-126658518D01*
X64706928Y-126783000D01*
X64710000Y-127022250D01*
X64868750Y-127181000D01*
X65693000Y-127181000D01*
X65693000Y-127161000D01*
X65947000Y-127161000D01*
X65947000Y-127181000D01*
X65967000Y-127181000D01*
X65967000Y-127435000D01*
X65947000Y-127435000D01*
X65947000Y-128309250D01*
X66105750Y-128468000D01*
X66295000Y-128471072D01*
X66419482Y-128458812D01*
X66539180Y-128422502D01*
X66649494Y-128363537D01*
X66743000Y-128286799D01*
X66743000Y-128345027D01*
X66680917Y-128461176D01*
X66610755Y-128692467D01*
X66587065Y-128933000D01*
X66610755Y-129173533D01*
X66680917Y-129404824D01*
X66690693Y-129423114D01*
X66690693Y-138106001D01*
X58058357Y-138106001D01*
X51021000Y-131068645D01*
X51021000Y-127833000D01*
X64706928Y-127833000D01*
X64719188Y-127957482D01*
X64755498Y-128077180D01*
X64814463Y-128187494D01*
X64893815Y-128284185D01*
X64990506Y-128363537D01*
X65100820Y-128422502D01*
X65220518Y-128458812D01*
X65345000Y-128471072D01*
X65534250Y-128468000D01*
X65693000Y-128309250D01*
X65693000Y-127435000D01*
X64868750Y-127435000D01*
X64710000Y-127593750D01*
X64706928Y-127833000D01*
X51021000Y-127833000D01*
X51021000Y-119480995D01*
X51200597Y-119555386D01*
X51439969Y-119603000D01*
X51684031Y-119603000D01*
X51923403Y-119555386D01*
X52148887Y-119461988D01*
X52347070Y-119329565D01*
X53316040Y-119329565D01*
X53383020Y-119569656D01*
X53632048Y-119686756D01*
X53899135Y-119753023D01*
X54174017Y-119765910D01*
X54446133Y-119724922D01*
X54705023Y-119631636D01*
X54820980Y-119569656D01*
X54887960Y-119329565D01*
X54102000Y-118543605D01*
X53316040Y-119329565D01*
X52347070Y-119329565D01*
X52351816Y-119326394D01*
X52524394Y-119153816D01*
X52659988Y-118950887D01*
X52750132Y-118733259D01*
X52834364Y-118967023D01*
X52896344Y-119082980D01*
X53136435Y-119149960D01*
X53922395Y-118364000D01*
X53136435Y-117578040D01*
X52896344Y-117645020D01*
X52779244Y-117894048D01*
X52752714Y-118000975D01*
X52659988Y-117777113D01*
X52524394Y-117574184D01*
X52351816Y-117401606D01*
X52347071Y-117398435D01*
X53316040Y-117398435D01*
X54102000Y-118184395D01*
X54887960Y-117398435D01*
X54820980Y-117158344D01*
X54571952Y-117041244D01*
X54304865Y-116974977D01*
X54029983Y-116962090D01*
X53757867Y-117003078D01*
X53498977Y-117096364D01*
X53383020Y-117158344D01*
X53316040Y-117398435D01*
X52347071Y-117398435D01*
X52148887Y-117266012D01*
X51923403Y-117172614D01*
X51684031Y-117125000D01*
X51677595Y-117125000D01*
X55790000Y-113012596D01*
X55790001Y-117463789D01*
X55679606Y-117574184D01*
X55544012Y-117777113D01*
X55453868Y-117994741D01*
X55369636Y-117760977D01*
X55307656Y-117645020D01*
X55067565Y-117578040D01*
X54281605Y-118364000D01*
X55067565Y-119149960D01*
X55307656Y-119082980D01*
X55424756Y-118833952D01*
X55451286Y-118727025D01*
X55544012Y-118950887D01*
X55679606Y-119153816D01*
X55852184Y-119326394D01*
X56055113Y-119461988D01*
X56280597Y-119555386D01*
X56519969Y-119603000D01*
X56764031Y-119603000D01*
X57003403Y-119555386D01*
X57228887Y-119461988D01*
X57431816Y-119326394D01*
X57604394Y-119153816D01*
X57739988Y-118950887D01*
X57833386Y-118725403D01*
X57881000Y-118486031D01*
X57881000Y-118241969D01*
X57856747Y-118120037D01*
X59245000Y-118120037D01*
X59245000Y-118607963D01*
X59340190Y-119086514D01*
X59526911Y-119537299D01*
X59797989Y-119942995D01*
X60143005Y-120288011D01*
X60548701Y-120559089D01*
X60999486Y-120745810D01*
X61478037Y-120841000D01*
X61965963Y-120841000D01*
X62444514Y-120745810D01*
X62895299Y-120559089D01*
X63300995Y-120288011D01*
X63456006Y-120133000D01*
X72769428Y-120133000D01*
X72772500Y-120522250D01*
X72931250Y-120681000D01*
X74068000Y-120681000D01*
X74068000Y-119656750D01*
X74322000Y-119656750D01*
X74322000Y-120681000D01*
X75458750Y-120681000D01*
X75617500Y-120522250D01*
X75620572Y-120133000D01*
X75608312Y-120008518D01*
X75572002Y-119888820D01*
X75513037Y-119778506D01*
X75433685Y-119681815D01*
X75336994Y-119602463D01*
X75226680Y-119543498D01*
X75106982Y-119507188D01*
X74982500Y-119494928D01*
X74480750Y-119498000D01*
X74322000Y-119656750D01*
X74068000Y-119656750D01*
X73909250Y-119498000D01*
X73407500Y-119494928D01*
X73283018Y-119507188D01*
X73163320Y-119543498D01*
X73053006Y-119602463D01*
X72956315Y-119681815D01*
X72876963Y-119778506D01*
X72817998Y-119888820D01*
X72781688Y-120008518D01*
X72769428Y-120133000D01*
X63456006Y-120133000D01*
X63646011Y-119942995D01*
X63917089Y-119537299D01*
X64103810Y-119086514D01*
X64199000Y-118607963D01*
X64199000Y-118120037D01*
X64103810Y-117641486D01*
X63917089Y-117190701D01*
X63646011Y-116785005D01*
X63300995Y-116439989D01*
X62895299Y-116168911D01*
X62444514Y-115982190D01*
X61965963Y-115887000D01*
X61478037Y-115887000D01*
X60999486Y-115982190D01*
X60548701Y-116168911D01*
X60143005Y-116439989D01*
X59797989Y-116785005D01*
X59526911Y-117190701D01*
X59340190Y-117641486D01*
X59245000Y-118120037D01*
X57856747Y-118120037D01*
X57833386Y-118002597D01*
X57739988Y-117777113D01*
X57604394Y-117574184D01*
X57494000Y-117463790D01*
X57494000Y-113255909D01*
X59534910Y-111215000D01*
X69401285Y-111215000D01*
X69249302Y-111400192D01*
X69249302Y-111400192D01*
G37*
X69249302Y-111400192D02*
X69126081Y-111630722D01*
X69050201Y-111880863D01*
X69024580Y-112141000D01*
X69050201Y-112401137D01*
X69126081Y-112651278D01*
X69249302Y-112881808D01*
X69415130Y-113083870D01*
X69506000Y-113158445D01*
X69506000Y-113351890D01*
X69414492Y-113360903D01*
X69324577Y-113388178D01*
X69241711Y-113432471D01*
X69169079Y-113492079D01*
X69109471Y-113564711D01*
X69065178Y-113647577D01*
X69037903Y-113737492D01*
X69028693Y-113831000D01*
X69028693Y-115531000D01*
X69037903Y-115624508D01*
X69065178Y-115714423D01*
X69109471Y-115797289D01*
X69169079Y-115869921D01*
X69241711Y-115929529D01*
X69324577Y-115973822D01*
X69414492Y-116001097D01*
X69506001Y-116010110D01*
X69506001Y-116239141D01*
X69501878Y-116281000D01*
X69515064Y-116414867D01*
X69518329Y-116448021D01*
X69533107Y-116496738D01*
X69567046Y-116608623D01*
X69646161Y-116756636D01*
X69708311Y-116832366D01*
X69752631Y-116886370D01*
X69785141Y-116913050D01*
X71554950Y-118682860D01*
X71581630Y-118715370D01*
X71711364Y-118821839D01*
X71859376Y-118900954D01*
X72019979Y-118949672D01*
X72145148Y-118962000D01*
X72145151Y-118962000D01*
X72187000Y-118966122D01*
X72228849Y-118962000D01*
X76218000Y-118962000D01*
X76218001Y-119728132D01*
X76127318Y-119776603D01*
X76016802Y-119867302D01*
X75926103Y-119977818D01*
X75858708Y-120103906D01*
X75817206Y-120240718D01*
X75803193Y-120382999D01*
X75803193Y-121233001D01*
X75817206Y-121375282D01*
X75858708Y-121512094D01*
X75926103Y-121638182D01*
X75993000Y-121719695D01*
X75993000Y-121889220D01*
X75926289Y-121834471D01*
X75843423Y-121790178D01*
X75753508Y-121762903D01*
X75660000Y-121753693D01*
X75557830Y-121753693D01*
X75572002Y-121727180D01*
X75608312Y-121607482D01*
X75620572Y-121483000D01*
X75617500Y-121093750D01*
X75458750Y-120935000D01*
X74322000Y-120935000D01*
X74322000Y-120955000D01*
X74068000Y-120955000D01*
X74068000Y-120935000D01*
X72931250Y-120935000D01*
X72772500Y-121093750D01*
X72769428Y-121483000D01*
X72781688Y-121607482D01*
X72817998Y-121727180D01*
X72832170Y-121753693D01*
X72020000Y-121753693D01*
X71926492Y-121762903D01*
X71836577Y-121790178D01*
X71753711Y-121834471D01*
X71681079Y-121894079D01*
X71621471Y-121966711D01*
X71577178Y-122049577D01*
X71549903Y-122139492D01*
X71540693Y-122233000D01*
X71540693Y-124216020D01*
X71508583Y-124321872D01*
X71493000Y-124480092D01*
X71493000Y-128503693D01*
X69125932Y-128503693D01*
X68897000Y-128274761D01*
X68897000Y-127255091D01*
X68881417Y-127096871D01*
X68819833Y-126893856D01*
X68719826Y-126706756D01*
X68659141Y-126632811D01*
X68653503Y-126622263D01*
X68564359Y-126513641D01*
X68466098Y-126433000D01*
X68564359Y-126352359D01*
X68578605Y-126335000D01*
X68966837Y-126335000D01*
X69000693Y-126338335D01*
X69000693Y-126833000D01*
X69009903Y-126926508D01*
X69037178Y-127016423D01*
X69081471Y-127099289D01*
X69141079Y-127171921D01*
X69213711Y-127231529D01*
X69296577Y-127275822D01*
X69386492Y-127303097D01*
X69480000Y-127312307D01*
X70580000Y-127312307D01*
X70673508Y-127303097D01*
X70763423Y-127275822D01*
X70846289Y-127231529D01*
X70918921Y-127171921D01*
X70978529Y-127099289D01*
X71022822Y-127016423D01*
X71050097Y-126926508D01*
X71059307Y-126833000D01*
X71059307Y-122233000D01*
X71050097Y-122139492D01*
X71022822Y-122049577D01*
X70978529Y-121966711D01*
X70918921Y-121894079D01*
X70846289Y-121834471D01*
X70763423Y-121790178D01*
X70673508Y-121762903D01*
X70580000Y-121753693D01*
X69480000Y-121753693D01*
X69386492Y-121762903D01*
X69296577Y-121790178D01*
X69213711Y-121834471D01*
X69141079Y-121894079D01*
X69081471Y-121966711D01*
X69037178Y-122049577D01*
X69009903Y-122139492D01*
X69000693Y-122233000D01*
X69000693Y-124463463D01*
X68683157Y-124781000D01*
X68578605Y-124781000D01*
X68564359Y-124763641D01*
X68455737Y-124674497D01*
X68331810Y-124608257D01*
X68197342Y-124567466D01*
X68057500Y-124553693D01*
X67582500Y-124553693D01*
X67442658Y-124567466D01*
X67308190Y-124608257D01*
X67184263Y-124674497D01*
X67075641Y-124763641D01*
X67061395Y-124781000D01*
X66578605Y-124781000D01*
X66564359Y-124763641D01*
X66455737Y-124674497D01*
X66331810Y-124608257D01*
X66197342Y-124567466D01*
X66057500Y-124553693D01*
X65582500Y-124553693D01*
X65442658Y-124567466D01*
X65308190Y-124608257D01*
X65184263Y-124674497D01*
X65075641Y-124763641D01*
X64986497Y-124872263D01*
X64920257Y-124996190D01*
X64879466Y-125130658D01*
X64865693Y-125270500D01*
X64865693Y-125845500D01*
X64879466Y-125985342D01*
X64920257Y-126119810D01*
X64986497Y-126243737D01*
X64992697Y-126251292D01*
X64990506Y-126252463D01*
X64893815Y-126331815D01*
X64814463Y-126428506D01*
X64755498Y-126538820D01*
X64719188Y-126658518D01*
X64706928Y-126783000D01*
X64710000Y-127022250D01*
X64868750Y-127181000D01*
X65693000Y-127181000D01*
X65693000Y-127161000D01*
X65947000Y-127161000D01*
X65947000Y-127181000D01*
X65967000Y-127181000D01*
X65967000Y-127435000D01*
X65947000Y-127435000D01*
X65947000Y-128309250D01*
X66105750Y-128468000D01*
X66295000Y-128471072D01*
X66419482Y-128458812D01*
X66539180Y-128422502D01*
X66649494Y-128363537D01*
X66743000Y-128286799D01*
X66743000Y-128345027D01*
X66680917Y-128461176D01*
X66610755Y-128692467D01*
X66587065Y-128933000D01*
X66610755Y-129173533D01*
X66680917Y-129404824D01*
X66690693Y-129423114D01*
X66690693Y-138106001D01*
X58058357Y-138106001D01*
X51021000Y-131068645D01*
X51021000Y-127833000D01*
X64706928Y-127833000D01*
X64719188Y-127957482D01*
X64755498Y-128077180D01*
X64814463Y-128187494D01*
X64893815Y-128284185D01*
X64990506Y-128363537D01*
X65100820Y-128422502D01*
X65220518Y-128458812D01*
X65345000Y-128471072D01*
X65534250Y-128468000D01*
X65693000Y-128309250D01*
X65693000Y-127435000D01*
X64868750Y-127435000D01*
X64710000Y-127593750D01*
X64706928Y-127833000D01*
X51021000Y-127833000D01*
X51021000Y-119480995D01*
X51200597Y-119555386D01*
X51439969Y-119603000D01*
X51684031Y-119603000D01*
X51923403Y-119555386D01*
X52148887Y-119461988D01*
X52347070Y-119329565D01*
X53316040Y-119329565D01*
X53383020Y-119569656D01*
X53632048Y-119686756D01*
X53899135Y-119753023D01*
X54174017Y-119765910D01*
X54446133Y-119724922D01*
X54705023Y-119631636D01*
X54820980Y-119569656D01*
X54887960Y-119329565D01*
X54102000Y-118543605D01*
X53316040Y-119329565D01*
X52347070Y-119329565D01*
X52351816Y-119326394D01*
X52524394Y-119153816D01*
X52659988Y-118950887D01*
X52750132Y-118733259D01*
X52834364Y-118967023D01*
X52896344Y-119082980D01*
X53136435Y-119149960D01*
X53922395Y-118364000D01*
X53136435Y-117578040D01*
X52896344Y-117645020D01*
X52779244Y-117894048D01*
X52752714Y-118000975D01*
X52659988Y-117777113D01*
X52524394Y-117574184D01*
X52351816Y-117401606D01*
X52347071Y-117398435D01*
X53316040Y-117398435D01*
X54102000Y-118184395D01*
X54887960Y-117398435D01*
X54820980Y-117158344D01*
X54571952Y-117041244D01*
X54304865Y-116974977D01*
X54029983Y-116962090D01*
X53757867Y-117003078D01*
X53498977Y-117096364D01*
X53383020Y-117158344D01*
X53316040Y-117398435D01*
X52347071Y-117398435D01*
X52148887Y-117266012D01*
X51923403Y-117172614D01*
X51684031Y-117125000D01*
X51677595Y-117125000D01*
X55790000Y-113012596D01*
X55790001Y-117463789D01*
X55679606Y-117574184D01*
X55544012Y-117777113D01*
X55453868Y-117994741D01*
X55369636Y-117760977D01*
X55307656Y-117645020D01*
X55067565Y-117578040D01*
X54281605Y-118364000D01*
X55067565Y-119149960D01*
X55307656Y-119082980D01*
X55424756Y-118833952D01*
X55451286Y-118727025D01*
X55544012Y-118950887D01*
X55679606Y-119153816D01*
X55852184Y-119326394D01*
X56055113Y-119461988D01*
X56280597Y-119555386D01*
X56519969Y-119603000D01*
X56764031Y-119603000D01*
X57003403Y-119555386D01*
X57228887Y-119461988D01*
X57431816Y-119326394D01*
X57604394Y-119153816D01*
X57739988Y-118950887D01*
X57833386Y-118725403D01*
X57881000Y-118486031D01*
X57881000Y-118241969D01*
X57856747Y-118120037D01*
X59245000Y-118120037D01*
X59245000Y-118607963D01*
X59340190Y-119086514D01*
X59526911Y-119537299D01*
X59797989Y-119942995D01*
X60143005Y-120288011D01*
X60548701Y-120559089D01*
X60999486Y-120745810D01*
X61478037Y-120841000D01*
X61965963Y-120841000D01*
X62444514Y-120745810D01*
X62895299Y-120559089D01*
X63300995Y-120288011D01*
X63456006Y-120133000D01*
X72769428Y-120133000D01*
X72772500Y-120522250D01*
X72931250Y-120681000D01*
X74068000Y-120681000D01*
X74068000Y-119656750D01*
X74322000Y-119656750D01*
X74322000Y-120681000D01*
X75458750Y-120681000D01*
X75617500Y-120522250D01*
X75620572Y-120133000D01*
X75608312Y-120008518D01*
X75572002Y-119888820D01*
X75513037Y-119778506D01*
X75433685Y-119681815D01*
X75336994Y-119602463D01*
X75226680Y-119543498D01*
X75106982Y-119507188D01*
X74982500Y-119494928D01*
X74480750Y-119498000D01*
X74322000Y-119656750D01*
X74068000Y-119656750D01*
X73909250Y-119498000D01*
X73407500Y-119494928D01*
X73283018Y-119507188D01*
X73163320Y-119543498D01*
X73053006Y-119602463D01*
X72956315Y-119681815D01*
X72876963Y-119778506D01*
X72817998Y-119888820D01*
X72781688Y-120008518D01*
X72769428Y-120133000D01*
X63456006Y-120133000D01*
X63646011Y-119942995D01*
X63917089Y-119537299D01*
X64103810Y-119086514D01*
X64199000Y-118607963D01*
X64199000Y-118120037D01*
X64103810Y-117641486D01*
X63917089Y-117190701D01*
X63646011Y-116785005D01*
X63300995Y-116439989D01*
X62895299Y-116168911D01*
X62444514Y-115982190D01*
X61965963Y-115887000D01*
X61478037Y-115887000D01*
X60999486Y-115982190D01*
X60548701Y-116168911D01*
X60143005Y-116439989D01*
X59797989Y-116785005D01*
X59526911Y-117190701D01*
X59340190Y-117641486D01*
X59245000Y-118120037D01*
X57856747Y-118120037D01*
X57833386Y-118002597D01*
X57739988Y-117777113D01*
X57604394Y-117574184D01*
X57494000Y-117463790D01*
X57494000Y-113255909D01*
X59534910Y-111215000D01*
X69401285Y-111215000D01*
X69249302Y-111400192D01*
G36*
X111207277Y-120079871D02*
G01*
X111033113Y-120152012D01*
X110830184Y-120287606D01*
X110657606Y-120460184D01*
X110522012Y-120663113D01*
X110428614Y-120888597D01*
X110381000Y-121127969D01*
X110381000Y-121372031D01*
X110428614Y-121611403D01*
X110522012Y-121836887D01*
X110529604Y-121848248D01*
X110288592Y-121607237D01*
X110288583Y-121607226D01*
X110274932Y-121593575D01*
X110319000Y-121372031D01*
X110319000Y-121127969D01*
X110271386Y-120888597D01*
X110177988Y-120663113D01*
X110042394Y-120460184D01*
X109869816Y-120287606D01*
X109666887Y-120152012D01*
X109441403Y-120058614D01*
X109202031Y-120011000D01*
X108957969Y-120011000D01*
X108718597Y-120058614D01*
X108493113Y-120152012D01*
X108290184Y-120287606D01*
X108149353Y-120428437D01*
X108129967Y-120392168D01*
X108119287Y-120379155D01*
X108073585Y-120323466D01*
X108073581Y-120323462D01*
X108054738Y-120300502D01*
X108031778Y-120281659D01*
X103201352Y-115451235D01*
X103182500Y-115428264D01*
X103090834Y-115353035D01*
X102986253Y-115297135D01*
X102872775Y-115262712D01*
X102784329Y-115254001D01*
X102784319Y-115254001D01*
X102754763Y-115251090D01*
X102725207Y-115254001D01*
X94582820Y-115254001D01*
X94659481Y-115037891D01*
X94538814Y-114808000D01*
X93345000Y-114808000D01*
X93345000Y-114828000D01*
X93091000Y-114828000D01*
X93091000Y-114808000D01*
X93071000Y-114808000D01*
X93071000Y-114554000D01*
X93091000Y-114554000D01*
X93091000Y-114534000D01*
X93345000Y-114534000D01*
X93345000Y-114554000D01*
X94538814Y-114554000D01*
X94600225Y-114437001D01*
X105564408Y-114437001D01*
X111207277Y-120079871D01*
X111207277Y-120079871D01*
G37*
X111207277Y-120079871D02*
X111033113Y-120152012D01*
X110830184Y-120287606D01*
X110657606Y-120460184D01*
X110522012Y-120663113D01*
X110428614Y-120888597D01*
X110381000Y-121127969D01*
X110381000Y-121372031D01*
X110428614Y-121611403D01*
X110522012Y-121836887D01*
X110529604Y-121848248D01*
X110288592Y-121607237D01*
X110288583Y-121607226D01*
X110274932Y-121593575D01*
X110319000Y-121372031D01*
X110319000Y-121127969D01*
X110271386Y-120888597D01*
X110177988Y-120663113D01*
X110042394Y-120460184D01*
X109869816Y-120287606D01*
X109666887Y-120152012D01*
X109441403Y-120058614D01*
X109202031Y-120011000D01*
X108957969Y-120011000D01*
X108718597Y-120058614D01*
X108493113Y-120152012D01*
X108290184Y-120287606D01*
X108149353Y-120428437D01*
X108129967Y-120392168D01*
X108119287Y-120379155D01*
X108073585Y-120323466D01*
X108073581Y-120323462D01*
X108054738Y-120300502D01*
X108031778Y-120281659D01*
X103201352Y-115451235D01*
X103182500Y-115428264D01*
X103090834Y-115353035D01*
X102986253Y-115297135D01*
X102872775Y-115262712D01*
X102784329Y-115254001D01*
X102784319Y-115254001D01*
X102754763Y-115251090D01*
X102725207Y-115254001D01*
X94582820Y-115254001D01*
X94659481Y-115037891D01*
X94538814Y-114808000D01*
X93345000Y-114808000D01*
X93345000Y-114828000D01*
X93091000Y-114828000D01*
X93091000Y-114808000D01*
X93071000Y-114808000D01*
X93071000Y-114554000D01*
X93091000Y-114554000D01*
X93091000Y-114534000D01*
X93345000Y-114534000D01*
X93345000Y-114554000D01*
X94538814Y-114554000D01*
X94600225Y-114437001D01*
X105564408Y-114437001D01*
X111207277Y-120079871D01*
M02*
