G04 #@! TF.GenerationSoftware,KiCad,Pcbnew,(5.1.4-0)*
G04 #@! TF.CreationDate,2020-04-06T12:50:51+01:00*
G04 #@! TF.ProjectId,Simple_VFO,53696d70-6c65-45f5-9646-4f2e6b696361,rev?*
G04 #@! TF.SameCoordinates,Original*
G04 #@! TF.FileFunction,Legend,Bot*
G04 #@! TF.FilePolarity,Positive*
%FSLAX46Y46*%
G04 Gerber Fmt 4.6, Leading zero omitted, Abs format (unit mm)*
G04 Created by KiCad (PCBNEW (5.1.4-0)) date 2020-04-06 12:50:51*
%MOMM*%
%LPD*%
G04 APERTURE LIST*
%ADD10C,0.120000*%
%ADD11C,0.150000*%
G04 APERTURE END LIST*
D10*
X99796267Y-133760000D02*
X99453733Y-133760000D01*
X99796267Y-132740000D02*
X99453733Y-132740000D01*
X95203733Y-139510000D02*
X95546267Y-139510000D01*
X95203733Y-138490000D02*
X95546267Y-138490000D01*
X74032500Y-119873000D02*
X78117500Y-119873000D01*
X78117500Y-119873000D02*
X78117500Y-121743000D01*
X78117500Y-121743000D02*
X74032500Y-121743000D01*
X79135000Y-136855500D02*
X79135000Y-132770500D01*
X81005000Y-136855500D02*
X79135000Y-136855500D01*
X81005000Y-132770500D02*
X81005000Y-136855500D01*
X81810000Y-135011733D02*
X81810000Y-135354267D01*
X82830000Y-135011733D02*
X82830000Y-135354267D01*
X99796267Y-130490000D02*
X99453733Y-130490000D01*
X99796267Y-131510000D02*
X99453733Y-131510000D01*
X101160733Y-149985000D02*
X101503267Y-149985000D01*
X101160733Y-151005000D02*
X101503267Y-151005000D01*
X95203733Y-140240000D02*
X95546267Y-140240000D01*
X95203733Y-141260000D02*
X95546267Y-141260000D01*
X67310000Y-126604267D02*
X67310000Y-126261733D01*
X68330000Y-126604267D02*
X68330000Y-126261733D01*
X65310000Y-126261733D02*
X65310000Y-126604267D01*
X66330000Y-126261733D02*
X66330000Y-126604267D01*
X67370000Y-128858000D02*
X67370000Y-127358000D01*
X67370000Y-127358000D02*
X69180000Y-127358000D01*
X69180000Y-127358000D02*
X69180000Y-122233000D01*
X77770000Y-128858000D02*
X77770000Y-127358000D01*
X77770000Y-127358000D02*
X75960000Y-127358000D01*
X75960000Y-127358000D02*
X75960000Y-126258000D01*
X94682000Y-147490000D02*
X120202000Y-147490000D01*
X120202000Y-147490000D02*
X120202000Y-150150000D01*
X120202000Y-150150000D02*
X94682000Y-150150000D01*
X94682000Y-150150000D02*
X94682000Y-147490000D01*
X95632000Y-150150000D02*
X95632000Y-156150000D01*
X95632000Y-156150000D02*
X96392000Y-156150000D01*
X96392000Y-156150000D02*
X96392000Y-150150000D01*
X95692000Y-150150000D02*
X95692000Y-156150000D01*
X95812000Y-150150000D02*
X95812000Y-156150000D01*
X95932000Y-150150000D02*
X95932000Y-156150000D01*
X96052000Y-150150000D02*
X96052000Y-156150000D01*
X96172000Y-150150000D02*
X96172000Y-156150000D01*
X96292000Y-150150000D02*
X96292000Y-156150000D01*
X95632000Y-147092929D02*
X95632000Y-147490000D01*
X96392000Y-147092929D02*
X96392000Y-147490000D01*
X95632000Y-144620000D02*
X95632000Y-145007071D01*
X96392000Y-144620000D02*
X96392000Y-145007071D01*
X97282000Y-147490000D02*
X97282000Y-150150000D01*
X98172000Y-150150000D02*
X98172000Y-156150000D01*
X98172000Y-156150000D02*
X98932000Y-156150000D01*
X98932000Y-156150000D02*
X98932000Y-150150000D01*
X98172000Y-147092929D02*
X98172000Y-147490000D01*
X98932000Y-147092929D02*
X98932000Y-147490000D01*
X98172000Y-144552929D02*
X98172000Y-145007071D01*
X98932000Y-144552929D02*
X98932000Y-145007071D01*
X99822000Y-147490000D02*
X99822000Y-150150000D01*
X100712000Y-150150000D02*
X100712000Y-156150000D01*
X100712000Y-156150000D02*
X101472000Y-156150000D01*
X101472000Y-156150000D02*
X101472000Y-150150000D01*
X100712000Y-147092929D02*
X100712000Y-147490000D01*
X101472000Y-147092929D02*
X101472000Y-147490000D01*
X100712000Y-144552929D02*
X100712000Y-145007071D01*
X101472000Y-144552929D02*
X101472000Y-145007071D01*
X102362000Y-147490000D02*
X102362000Y-150150000D01*
X103252000Y-150150000D02*
X103252000Y-156150000D01*
X103252000Y-156150000D02*
X104012000Y-156150000D01*
X104012000Y-156150000D02*
X104012000Y-150150000D01*
X103252000Y-147092929D02*
X103252000Y-147490000D01*
X104012000Y-147092929D02*
X104012000Y-147490000D01*
X103252000Y-144552929D02*
X103252000Y-145007071D01*
X104012000Y-144552929D02*
X104012000Y-145007071D01*
X104902000Y-147490000D02*
X104902000Y-150150000D01*
X105792000Y-150150000D02*
X105792000Y-156150000D01*
X105792000Y-156150000D02*
X106552000Y-156150000D01*
X106552000Y-156150000D02*
X106552000Y-150150000D01*
X105792000Y-147092929D02*
X105792000Y-147490000D01*
X106552000Y-147092929D02*
X106552000Y-147490000D01*
X105792000Y-144552929D02*
X105792000Y-145007071D01*
X106552000Y-144552929D02*
X106552000Y-145007071D01*
X107442000Y-147490000D02*
X107442000Y-150150000D01*
X108332000Y-150150000D02*
X108332000Y-156150000D01*
X108332000Y-156150000D02*
X109092000Y-156150000D01*
X109092000Y-156150000D02*
X109092000Y-150150000D01*
X108332000Y-147092929D02*
X108332000Y-147490000D01*
X109092000Y-147092929D02*
X109092000Y-147490000D01*
X108332000Y-144552929D02*
X108332000Y-145007071D01*
X109092000Y-144552929D02*
X109092000Y-145007071D01*
X109982000Y-147490000D02*
X109982000Y-150150000D01*
X110872000Y-150150000D02*
X110872000Y-156150000D01*
X110872000Y-156150000D02*
X111632000Y-156150000D01*
X111632000Y-156150000D02*
X111632000Y-150150000D01*
X110872000Y-147092929D02*
X110872000Y-147490000D01*
X111632000Y-147092929D02*
X111632000Y-147490000D01*
X110872000Y-144552929D02*
X110872000Y-145007071D01*
X111632000Y-144552929D02*
X111632000Y-145007071D01*
X112522000Y-147490000D02*
X112522000Y-150150000D01*
X113412000Y-150150000D02*
X113412000Y-156150000D01*
X113412000Y-156150000D02*
X114172000Y-156150000D01*
X114172000Y-156150000D02*
X114172000Y-150150000D01*
X113412000Y-147092929D02*
X113412000Y-147490000D01*
X114172000Y-147092929D02*
X114172000Y-147490000D01*
X113412000Y-144552929D02*
X113412000Y-145007071D01*
X114172000Y-144552929D02*
X114172000Y-145007071D01*
X115062000Y-147490000D02*
X115062000Y-150150000D01*
X115952000Y-150150000D02*
X115952000Y-156150000D01*
X115952000Y-156150000D02*
X116712000Y-156150000D01*
X116712000Y-156150000D02*
X116712000Y-150150000D01*
X115952000Y-147092929D02*
X115952000Y-147490000D01*
X116712000Y-147092929D02*
X116712000Y-147490000D01*
X115952000Y-144552929D02*
X115952000Y-145007071D01*
X116712000Y-144552929D02*
X116712000Y-145007071D01*
X117602000Y-147490000D02*
X117602000Y-150150000D01*
X118492000Y-150150000D02*
X118492000Y-156150000D01*
X118492000Y-156150000D02*
X119252000Y-156150000D01*
X119252000Y-156150000D02*
X119252000Y-150150000D01*
X118492000Y-147092929D02*
X118492000Y-147490000D01*
X119252000Y-147092929D02*
X119252000Y-147490000D01*
X118492000Y-144552929D02*
X118492000Y-145007071D01*
X119252000Y-144552929D02*
X119252000Y-145007071D01*
X96012000Y-142240000D02*
X94742000Y-142240000D01*
X94742000Y-142240000D02*
X94742000Y-143510000D01*
D11*
X102528666Y-133707142D02*
X102576285Y-133754761D01*
X102719142Y-133802380D01*
X102814380Y-133802380D01*
X102957238Y-133754761D01*
X103052476Y-133659523D01*
X103100095Y-133564285D01*
X103147714Y-133373809D01*
X103147714Y-133230952D01*
X103100095Y-133040476D01*
X103052476Y-132945238D01*
X102957238Y-132850000D01*
X102814380Y-132802380D01*
X102719142Y-132802380D01*
X102576285Y-132850000D01*
X102528666Y-132897619D01*
X101671523Y-132802380D02*
X101862000Y-132802380D01*
X101957238Y-132850000D01*
X102004857Y-132897619D01*
X102100095Y-133040476D01*
X102147714Y-133230952D01*
X102147714Y-133611904D01*
X102100095Y-133707142D01*
X102052476Y-133754761D01*
X101957238Y-133802380D01*
X101766761Y-133802380D01*
X101671523Y-133754761D01*
X101623904Y-133707142D01*
X101576285Y-133611904D01*
X101576285Y-133373809D01*
X101623904Y-133278571D01*
X101671523Y-133230952D01*
X101766761Y-133183333D01*
X101957238Y-133183333D01*
X102052476Y-133230952D01*
X102100095Y-133278571D01*
X102147714Y-133373809D01*
X98464666Y-139422142D02*
X98512285Y-139469761D01*
X98655142Y-139517380D01*
X98750380Y-139517380D01*
X98893238Y-139469761D01*
X98988476Y-139374523D01*
X99036095Y-139279285D01*
X99083714Y-139088809D01*
X99083714Y-138945952D01*
X99036095Y-138755476D01*
X98988476Y-138660238D01*
X98893238Y-138565000D01*
X98750380Y-138517380D01*
X98655142Y-138517380D01*
X98512285Y-138565000D01*
X98464666Y-138612619D01*
X98131333Y-138517380D02*
X97464666Y-138517380D01*
X97893238Y-139517380D01*
X71986666Y-121165142D02*
X72034285Y-121212761D01*
X72177142Y-121260380D01*
X72272380Y-121260380D01*
X72415238Y-121212761D01*
X72510476Y-121117523D01*
X72558095Y-121022285D01*
X72605714Y-120831809D01*
X72605714Y-120688952D01*
X72558095Y-120498476D01*
X72510476Y-120403238D01*
X72415238Y-120308000D01*
X72272380Y-120260380D01*
X72177142Y-120260380D01*
X72034285Y-120308000D01*
X71986666Y-120355619D01*
X71510476Y-121260380D02*
X71320000Y-121260380D01*
X71224761Y-121212761D01*
X71177142Y-121165142D01*
X71081904Y-121022285D01*
X71034285Y-120831809D01*
X71034285Y-120450857D01*
X71081904Y-120355619D01*
X71129523Y-120308000D01*
X71224761Y-120260380D01*
X71415238Y-120260380D01*
X71510476Y-120308000D01*
X71558095Y-120355619D01*
X71605714Y-120450857D01*
X71605714Y-120688952D01*
X71558095Y-120784190D01*
X71510476Y-120831809D01*
X71415238Y-120879428D01*
X71224761Y-120879428D01*
X71129523Y-120831809D01*
X71081904Y-120784190D01*
X71034285Y-120688952D01*
X80779857Y-131294142D02*
X80827476Y-131341761D01*
X80970333Y-131389380D01*
X81065571Y-131389380D01*
X81208428Y-131341761D01*
X81303666Y-131246523D01*
X81351285Y-131151285D01*
X81398904Y-130960809D01*
X81398904Y-130817952D01*
X81351285Y-130627476D01*
X81303666Y-130532238D01*
X81208428Y-130437000D01*
X81065571Y-130389380D01*
X80970333Y-130389380D01*
X80827476Y-130437000D01*
X80779857Y-130484619D01*
X79827476Y-131389380D02*
X80398904Y-131389380D01*
X80113190Y-131389380D02*
X80113190Y-130389380D01*
X80208428Y-130532238D01*
X80303666Y-130627476D01*
X80398904Y-130675095D01*
X79446523Y-130484619D02*
X79398904Y-130437000D01*
X79303666Y-130389380D01*
X79065571Y-130389380D01*
X78970333Y-130437000D01*
X78922714Y-130484619D01*
X78875095Y-130579857D01*
X78875095Y-130675095D01*
X78922714Y-130817952D01*
X79494142Y-131389380D01*
X78875095Y-131389380D01*
X83573857Y-132818142D02*
X83621476Y-132865761D01*
X83764333Y-132913380D01*
X83859571Y-132913380D01*
X84002428Y-132865761D01*
X84097666Y-132770523D01*
X84145285Y-132675285D01*
X84192904Y-132484809D01*
X84192904Y-132341952D01*
X84145285Y-132151476D01*
X84097666Y-132056238D01*
X84002428Y-131961000D01*
X83859571Y-131913380D01*
X83764333Y-131913380D01*
X83621476Y-131961000D01*
X83573857Y-132008619D01*
X82621476Y-132913380D02*
X83192904Y-132913380D01*
X82907190Y-132913380D02*
X82907190Y-131913380D01*
X83002428Y-132056238D01*
X83097666Y-132151476D01*
X83192904Y-132199095D01*
X82288142Y-131913380D02*
X81669095Y-131913380D01*
X82002428Y-132294333D01*
X81859571Y-132294333D01*
X81764333Y-132341952D01*
X81716714Y-132389571D01*
X81669095Y-132484809D01*
X81669095Y-132722904D01*
X81716714Y-132818142D01*
X81764333Y-132865761D01*
X81859571Y-132913380D01*
X82145285Y-132913380D01*
X82240523Y-132865761D01*
X82288142Y-132818142D01*
X102401666Y-131389380D02*
X102735000Y-130913190D01*
X102973095Y-131389380D02*
X102973095Y-130389380D01*
X102592142Y-130389380D01*
X102496904Y-130437000D01*
X102449285Y-130484619D01*
X102401666Y-130579857D01*
X102401666Y-130722714D01*
X102449285Y-130817952D01*
X102496904Y-130865571D01*
X102592142Y-130913190D01*
X102973095Y-130913190D01*
X101449285Y-131389380D02*
X102020714Y-131389380D01*
X101735000Y-131389380D02*
X101735000Y-130389380D01*
X101830238Y-130532238D01*
X101925476Y-130627476D01*
X102020714Y-130675095D01*
X101385666Y-152725380D02*
X101719000Y-152249190D01*
X101957095Y-152725380D02*
X101957095Y-151725380D01*
X101576142Y-151725380D01*
X101480904Y-151773000D01*
X101433285Y-151820619D01*
X101385666Y-151915857D01*
X101385666Y-152058714D01*
X101433285Y-152153952D01*
X101480904Y-152201571D01*
X101576142Y-152249190D01*
X101957095Y-152249190D01*
X101004714Y-151820619D02*
X100957095Y-151773000D01*
X100861857Y-151725380D01*
X100623761Y-151725380D01*
X100528523Y-151773000D01*
X100480904Y-151820619D01*
X100433285Y-151915857D01*
X100433285Y-152011095D01*
X100480904Y-152153952D01*
X101052333Y-152725380D01*
X100433285Y-152725380D01*
X98464666Y-141295380D02*
X98798000Y-140819190D01*
X99036095Y-141295380D02*
X99036095Y-140295380D01*
X98655142Y-140295380D01*
X98559904Y-140343000D01*
X98512285Y-140390619D01*
X98464666Y-140485857D01*
X98464666Y-140628714D01*
X98512285Y-140723952D01*
X98559904Y-140771571D01*
X98655142Y-140819190D01*
X99036095Y-140819190D01*
X98131333Y-140295380D02*
X97512285Y-140295380D01*
X97845619Y-140676333D01*
X97702761Y-140676333D01*
X97607523Y-140723952D01*
X97559904Y-140771571D01*
X97512285Y-140866809D01*
X97512285Y-141104904D01*
X97559904Y-141200142D01*
X97607523Y-141247761D01*
X97702761Y-141295380D01*
X97988476Y-141295380D01*
X98083714Y-141247761D01*
X98131333Y-141200142D01*
X67984666Y-124277380D02*
X68318000Y-123801190D01*
X68556095Y-124277380D02*
X68556095Y-123277380D01*
X68175142Y-123277380D01*
X68079904Y-123325000D01*
X68032285Y-123372619D01*
X67984666Y-123467857D01*
X67984666Y-123610714D01*
X68032285Y-123705952D01*
X68079904Y-123753571D01*
X68175142Y-123801190D01*
X68556095Y-123801190D01*
X67651333Y-123277380D02*
X66984666Y-123277380D01*
X67413238Y-124277380D01*
X65825666Y-124277380D02*
X66159000Y-123801190D01*
X66397095Y-124277380D02*
X66397095Y-123277380D01*
X66016142Y-123277380D01*
X65920904Y-123325000D01*
X65873285Y-123372619D01*
X65825666Y-123467857D01*
X65825666Y-123610714D01*
X65873285Y-123705952D01*
X65920904Y-123753571D01*
X66016142Y-123801190D01*
X66397095Y-123801190D01*
X65254238Y-123705952D02*
X65349476Y-123658333D01*
X65397095Y-123610714D01*
X65444714Y-123515476D01*
X65444714Y-123467857D01*
X65397095Y-123372619D01*
X65349476Y-123325000D01*
X65254238Y-123277380D01*
X65063761Y-123277380D01*
X64968523Y-123325000D01*
X64920904Y-123372619D01*
X64873285Y-123467857D01*
X64873285Y-123515476D01*
X64920904Y-123610714D01*
X64968523Y-123658333D01*
X65063761Y-123705952D01*
X65254238Y-123705952D01*
X65349476Y-123753571D01*
X65397095Y-123801190D01*
X65444714Y-123896428D01*
X65444714Y-124086904D01*
X65397095Y-124182142D01*
X65349476Y-124229761D01*
X65254238Y-124277380D01*
X65063761Y-124277380D01*
X64968523Y-124229761D01*
X64920904Y-124182142D01*
X64873285Y-124086904D01*
X64873285Y-123896428D01*
X64920904Y-123801190D01*
X64968523Y-123753571D01*
X65063761Y-123705952D01*
X78772380Y-133546095D02*
X79581904Y-133546095D01*
X79677142Y-133593714D01*
X79724761Y-133641333D01*
X79772380Y-133736571D01*
X79772380Y-133927047D01*
X79724761Y-134022285D01*
X79677142Y-134069904D01*
X79581904Y-134117523D01*
X78772380Y-134117523D01*
X78772380Y-135022285D02*
X78772380Y-134831809D01*
X78820000Y-134736571D01*
X78867619Y-134688952D01*
X79010476Y-134593714D01*
X79200952Y-134546095D01*
X79581904Y-134546095D01*
X79677142Y-134593714D01*
X79724761Y-134641333D01*
X79772380Y-134736571D01*
X79772380Y-134927047D01*
X79724761Y-135022285D01*
X79677142Y-135069904D01*
X79581904Y-135117523D01*
X79343809Y-135117523D01*
X79248571Y-135069904D01*
X79200952Y-135022285D01*
X79153333Y-134927047D01*
X79153333Y-134736571D01*
X79200952Y-134641333D01*
X79248571Y-134593714D01*
X79343809Y-134546095D01*
X119345333Y-139712380D02*
X119345333Y-140426666D01*
X119392952Y-140569523D01*
X119488190Y-140664761D01*
X119631047Y-140712380D01*
X119726285Y-140712380D01*
X118964380Y-139712380D02*
X118345333Y-139712380D01*
X118678666Y-140093333D01*
X118535809Y-140093333D01*
X118440571Y-140140952D01*
X118392952Y-140188571D01*
X118345333Y-140283809D01*
X118345333Y-140521904D01*
X118392952Y-140617142D01*
X118440571Y-140664761D01*
X118535809Y-140712380D01*
X118821523Y-140712380D01*
X118916761Y-140664761D01*
X118964380Y-140617142D01*
M02*
