G04 #@! TF.GenerationSoftware,KiCad,Pcbnew,(5.1.4-0)*
G04 #@! TF.CreationDate,2020-04-06T12:50:51+01:00*
G04 #@! TF.ProjectId,Simple_VFO,53696d70-6c65-45f5-9646-4f2e6b696361,rev?*
G04 #@! TF.SameCoordinates,Original*
G04 #@! TF.FileFunction,Soldermask,Bot*
G04 #@! TF.FilePolarity,Negative*
%FSLAX46Y46*%
G04 Gerber Fmt 4.6, Leading zero omitted, Abs format (unit mm)*
G04 Created by KiCad (PCBNEW (5.1.4-0)) date 2020-04-06 12:50:51*
%MOMM*%
%LPD*%
G04 APERTURE LIST*
%ADD10C,0.100000*%
G04 APERTURE END LIST*
D10*
G36*
X102621499Y-149973445D02*
G01*
X102658995Y-149984820D01*
X102693554Y-150003292D01*
X102723847Y-150028153D01*
X102748708Y-150058446D01*
X102767180Y-150093005D01*
X102778555Y-150130501D01*
X102783000Y-150175638D01*
X102783000Y-150814362D01*
X102778555Y-150859499D01*
X102767180Y-150896995D01*
X102748708Y-150931554D01*
X102723847Y-150961847D01*
X102693554Y-150986708D01*
X102658995Y-151005180D01*
X102621499Y-151016555D01*
X102576362Y-151021000D01*
X101837638Y-151021000D01*
X101792501Y-151016555D01*
X101755005Y-151005180D01*
X101720446Y-150986708D01*
X101690153Y-150961847D01*
X101665292Y-150931554D01*
X101646820Y-150896995D01*
X101635445Y-150859499D01*
X101631000Y-150814362D01*
X101631000Y-150175638D01*
X101635445Y-150130501D01*
X101646820Y-150093005D01*
X101665292Y-150058446D01*
X101690153Y-150028153D01*
X101720446Y-150003292D01*
X101755005Y-149984820D01*
X101792501Y-149973445D01*
X101837638Y-149969000D01*
X102576362Y-149969000D01*
X102621499Y-149973445D01*
X102621499Y-149973445D01*
G37*
G36*
X100871499Y-149973445D02*
G01*
X100908995Y-149984820D01*
X100943554Y-150003292D01*
X100973847Y-150028153D01*
X100998708Y-150058446D01*
X101017180Y-150093005D01*
X101028555Y-150130501D01*
X101033000Y-150175638D01*
X101033000Y-150814362D01*
X101028555Y-150859499D01*
X101017180Y-150896995D01*
X100998708Y-150931554D01*
X100973847Y-150961847D01*
X100943554Y-150986708D01*
X100908995Y-151005180D01*
X100871499Y-151016555D01*
X100826362Y-151021000D01*
X100087638Y-151021000D01*
X100042501Y-151016555D01*
X100005005Y-151005180D01*
X99970446Y-150986708D01*
X99940153Y-150961847D01*
X99915292Y-150931554D01*
X99896820Y-150896995D01*
X99885445Y-150859499D01*
X99881000Y-150814362D01*
X99881000Y-150175638D01*
X99885445Y-150130501D01*
X99896820Y-150093005D01*
X99915292Y-150058446D01*
X99940153Y-150028153D01*
X99970446Y-150003292D01*
X100005005Y-149984820D01*
X100042501Y-149973445D01*
X100087638Y-149969000D01*
X100826362Y-149969000D01*
X100871499Y-149973445D01*
X100871499Y-149973445D01*
G37*
G36*
X113902443Y-145155519D02*
G01*
X113968627Y-145162037D01*
X114138466Y-145213557D01*
X114294991Y-145297222D01*
X114330729Y-145326552D01*
X114432186Y-145409814D01*
X114515448Y-145511271D01*
X114544778Y-145547009D01*
X114628443Y-145703534D01*
X114679963Y-145873373D01*
X114697359Y-146050000D01*
X114679963Y-146226627D01*
X114628443Y-146396466D01*
X114544778Y-146552991D01*
X114515448Y-146588729D01*
X114432186Y-146690186D01*
X114330729Y-146773448D01*
X114294991Y-146802778D01*
X114138466Y-146886443D01*
X113968627Y-146937963D01*
X113902442Y-146944482D01*
X113836260Y-146951000D01*
X113747740Y-146951000D01*
X113681558Y-146944482D01*
X113615373Y-146937963D01*
X113445534Y-146886443D01*
X113289009Y-146802778D01*
X113253271Y-146773448D01*
X113151814Y-146690186D01*
X113068552Y-146588729D01*
X113039222Y-146552991D01*
X112955557Y-146396466D01*
X112904037Y-146226627D01*
X112886641Y-146050000D01*
X112904037Y-145873373D01*
X112955557Y-145703534D01*
X113039222Y-145547009D01*
X113068552Y-145511271D01*
X113151814Y-145409814D01*
X113253271Y-145326552D01*
X113289009Y-145297222D01*
X113445534Y-145213557D01*
X113615373Y-145162037D01*
X113681557Y-145155519D01*
X113747740Y-145149000D01*
X113836260Y-145149000D01*
X113902443Y-145155519D01*
X113902443Y-145155519D01*
G37*
G36*
X111362443Y-145155519D02*
G01*
X111428627Y-145162037D01*
X111598466Y-145213557D01*
X111754991Y-145297222D01*
X111790729Y-145326552D01*
X111892186Y-145409814D01*
X111975448Y-145511271D01*
X112004778Y-145547009D01*
X112088443Y-145703534D01*
X112139963Y-145873373D01*
X112157359Y-146050000D01*
X112139963Y-146226627D01*
X112088443Y-146396466D01*
X112004778Y-146552991D01*
X111975448Y-146588729D01*
X111892186Y-146690186D01*
X111790729Y-146773448D01*
X111754991Y-146802778D01*
X111598466Y-146886443D01*
X111428627Y-146937963D01*
X111362442Y-146944482D01*
X111296260Y-146951000D01*
X111207740Y-146951000D01*
X111141558Y-146944482D01*
X111075373Y-146937963D01*
X110905534Y-146886443D01*
X110749009Y-146802778D01*
X110713271Y-146773448D01*
X110611814Y-146690186D01*
X110528552Y-146588729D01*
X110499222Y-146552991D01*
X110415557Y-146396466D01*
X110364037Y-146226627D01*
X110346641Y-146050000D01*
X110364037Y-145873373D01*
X110415557Y-145703534D01*
X110499222Y-145547009D01*
X110528552Y-145511271D01*
X110611814Y-145409814D01*
X110713271Y-145326552D01*
X110749009Y-145297222D01*
X110905534Y-145213557D01*
X111075373Y-145162037D01*
X111141557Y-145155519D01*
X111207740Y-145149000D01*
X111296260Y-145149000D01*
X111362443Y-145155519D01*
X111362443Y-145155519D01*
G37*
G36*
X108822443Y-145155519D02*
G01*
X108888627Y-145162037D01*
X109058466Y-145213557D01*
X109214991Y-145297222D01*
X109250729Y-145326552D01*
X109352186Y-145409814D01*
X109435448Y-145511271D01*
X109464778Y-145547009D01*
X109548443Y-145703534D01*
X109599963Y-145873373D01*
X109617359Y-146050000D01*
X109599963Y-146226627D01*
X109548443Y-146396466D01*
X109464778Y-146552991D01*
X109435448Y-146588729D01*
X109352186Y-146690186D01*
X109250729Y-146773448D01*
X109214991Y-146802778D01*
X109058466Y-146886443D01*
X108888627Y-146937963D01*
X108822442Y-146944482D01*
X108756260Y-146951000D01*
X108667740Y-146951000D01*
X108601558Y-146944482D01*
X108535373Y-146937963D01*
X108365534Y-146886443D01*
X108209009Y-146802778D01*
X108173271Y-146773448D01*
X108071814Y-146690186D01*
X107988552Y-146588729D01*
X107959222Y-146552991D01*
X107875557Y-146396466D01*
X107824037Y-146226627D01*
X107806641Y-146050000D01*
X107824037Y-145873373D01*
X107875557Y-145703534D01*
X107959222Y-145547009D01*
X107988552Y-145511271D01*
X108071814Y-145409814D01*
X108173271Y-145326552D01*
X108209009Y-145297222D01*
X108365534Y-145213557D01*
X108535373Y-145162037D01*
X108601557Y-145155519D01*
X108667740Y-145149000D01*
X108756260Y-145149000D01*
X108822443Y-145155519D01*
X108822443Y-145155519D01*
G37*
G36*
X106282443Y-145155519D02*
G01*
X106348627Y-145162037D01*
X106518466Y-145213557D01*
X106674991Y-145297222D01*
X106710729Y-145326552D01*
X106812186Y-145409814D01*
X106895448Y-145511271D01*
X106924778Y-145547009D01*
X107008443Y-145703534D01*
X107059963Y-145873373D01*
X107077359Y-146050000D01*
X107059963Y-146226627D01*
X107008443Y-146396466D01*
X106924778Y-146552991D01*
X106895448Y-146588729D01*
X106812186Y-146690186D01*
X106710729Y-146773448D01*
X106674991Y-146802778D01*
X106518466Y-146886443D01*
X106348627Y-146937963D01*
X106282442Y-146944482D01*
X106216260Y-146951000D01*
X106127740Y-146951000D01*
X106061558Y-146944482D01*
X105995373Y-146937963D01*
X105825534Y-146886443D01*
X105669009Y-146802778D01*
X105633271Y-146773448D01*
X105531814Y-146690186D01*
X105448552Y-146588729D01*
X105419222Y-146552991D01*
X105335557Y-146396466D01*
X105284037Y-146226627D01*
X105266641Y-146050000D01*
X105284037Y-145873373D01*
X105335557Y-145703534D01*
X105419222Y-145547009D01*
X105448552Y-145511271D01*
X105531814Y-145409814D01*
X105633271Y-145326552D01*
X105669009Y-145297222D01*
X105825534Y-145213557D01*
X105995373Y-145162037D01*
X106061557Y-145155519D01*
X106127740Y-145149000D01*
X106216260Y-145149000D01*
X106282443Y-145155519D01*
X106282443Y-145155519D01*
G37*
G36*
X103742443Y-145155519D02*
G01*
X103808627Y-145162037D01*
X103978466Y-145213557D01*
X104134991Y-145297222D01*
X104170729Y-145326552D01*
X104272186Y-145409814D01*
X104355448Y-145511271D01*
X104384778Y-145547009D01*
X104468443Y-145703534D01*
X104519963Y-145873373D01*
X104537359Y-146050000D01*
X104519963Y-146226627D01*
X104468443Y-146396466D01*
X104384778Y-146552991D01*
X104355448Y-146588729D01*
X104272186Y-146690186D01*
X104170729Y-146773448D01*
X104134991Y-146802778D01*
X103978466Y-146886443D01*
X103808627Y-146937963D01*
X103742442Y-146944482D01*
X103676260Y-146951000D01*
X103587740Y-146951000D01*
X103521558Y-146944482D01*
X103455373Y-146937963D01*
X103285534Y-146886443D01*
X103129009Y-146802778D01*
X103093271Y-146773448D01*
X102991814Y-146690186D01*
X102908552Y-146588729D01*
X102879222Y-146552991D01*
X102795557Y-146396466D01*
X102744037Y-146226627D01*
X102726641Y-146050000D01*
X102744037Y-145873373D01*
X102795557Y-145703534D01*
X102879222Y-145547009D01*
X102908552Y-145511271D01*
X102991814Y-145409814D01*
X103093271Y-145326552D01*
X103129009Y-145297222D01*
X103285534Y-145213557D01*
X103455373Y-145162037D01*
X103521557Y-145155519D01*
X103587740Y-145149000D01*
X103676260Y-145149000D01*
X103742443Y-145155519D01*
X103742443Y-145155519D01*
G37*
G36*
X101202443Y-145155519D02*
G01*
X101268627Y-145162037D01*
X101438466Y-145213557D01*
X101594991Y-145297222D01*
X101630729Y-145326552D01*
X101732186Y-145409814D01*
X101815448Y-145511271D01*
X101844778Y-145547009D01*
X101928443Y-145703534D01*
X101979963Y-145873373D01*
X101997359Y-146050000D01*
X101979963Y-146226627D01*
X101928443Y-146396466D01*
X101844778Y-146552991D01*
X101815448Y-146588729D01*
X101732186Y-146690186D01*
X101630729Y-146773448D01*
X101594991Y-146802778D01*
X101438466Y-146886443D01*
X101268627Y-146937963D01*
X101202442Y-146944482D01*
X101136260Y-146951000D01*
X101047740Y-146951000D01*
X100981558Y-146944482D01*
X100915373Y-146937963D01*
X100745534Y-146886443D01*
X100589009Y-146802778D01*
X100553271Y-146773448D01*
X100451814Y-146690186D01*
X100368552Y-146588729D01*
X100339222Y-146552991D01*
X100255557Y-146396466D01*
X100204037Y-146226627D01*
X100186641Y-146050000D01*
X100204037Y-145873373D01*
X100255557Y-145703534D01*
X100339222Y-145547009D01*
X100368552Y-145511271D01*
X100451814Y-145409814D01*
X100553271Y-145326552D01*
X100589009Y-145297222D01*
X100745534Y-145213557D01*
X100915373Y-145162037D01*
X100981557Y-145155519D01*
X101047740Y-145149000D01*
X101136260Y-145149000D01*
X101202443Y-145155519D01*
X101202443Y-145155519D01*
G37*
G36*
X98662443Y-145155519D02*
G01*
X98728627Y-145162037D01*
X98898466Y-145213557D01*
X99054991Y-145297222D01*
X99090729Y-145326552D01*
X99192186Y-145409814D01*
X99275448Y-145511271D01*
X99304778Y-145547009D01*
X99388443Y-145703534D01*
X99439963Y-145873373D01*
X99457359Y-146050000D01*
X99439963Y-146226627D01*
X99388443Y-146396466D01*
X99304778Y-146552991D01*
X99275448Y-146588729D01*
X99192186Y-146690186D01*
X99090729Y-146773448D01*
X99054991Y-146802778D01*
X98898466Y-146886443D01*
X98728627Y-146937963D01*
X98662442Y-146944482D01*
X98596260Y-146951000D01*
X98507740Y-146951000D01*
X98441558Y-146944482D01*
X98375373Y-146937963D01*
X98205534Y-146886443D01*
X98049009Y-146802778D01*
X98013271Y-146773448D01*
X97911814Y-146690186D01*
X97828552Y-146588729D01*
X97799222Y-146552991D01*
X97715557Y-146396466D01*
X97664037Y-146226627D01*
X97646641Y-146050000D01*
X97664037Y-145873373D01*
X97715557Y-145703534D01*
X97799222Y-145547009D01*
X97828552Y-145511271D01*
X97911814Y-145409814D01*
X98013271Y-145326552D01*
X98049009Y-145297222D01*
X98205534Y-145213557D01*
X98375373Y-145162037D01*
X98441557Y-145155519D01*
X98507740Y-145149000D01*
X98596260Y-145149000D01*
X98662443Y-145155519D01*
X98662443Y-145155519D01*
G37*
G36*
X96122443Y-145155519D02*
G01*
X96188627Y-145162037D01*
X96358466Y-145213557D01*
X96514991Y-145297222D01*
X96550729Y-145326552D01*
X96652186Y-145409814D01*
X96735448Y-145511271D01*
X96764778Y-145547009D01*
X96848443Y-145703534D01*
X96899963Y-145873373D01*
X96917359Y-146050000D01*
X96899963Y-146226627D01*
X96848443Y-146396466D01*
X96764778Y-146552991D01*
X96735448Y-146588729D01*
X96652186Y-146690186D01*
X96550729Y-146773448D01*
X96514991Y-146802778D01*
X96358466Y-146886443D01*
X96188627Y-146937963D01*
X96122442Y-146944482D01*
X96056260Y-146951000D01*
X95967740Y-146951000D01*
X95901558Y-146944482D01*
X95835373Y-146937963D01*
X95665534Y-146886443D01*
X95509009Y-146802778D01*
X95473271Y-146773448D01*
X95371814Y-146690186D01*
X95288552Y-146588729D01*
X95259222Y-146552991D01*
X95175557Y-146396466D01*
X95124037Y-146226627D01*
X95106641Y-146050000D01*
X95124037Y-145873373D01*
X95175557Y-145703534D01*
X95259222Y-145547009D01*
X95288552Y-145511271D01*
X95371814Y-145409814D01*
X95473271Y-145326552D01*
X95509009Y-145297222D01*
X95665534Y-145213557D01*
X95835373Y-145162037D01*
X95901557Y-145155519D01*
X95967740Y-145149000D01*
X96056260Y-145149000D01*
X96122443Y-145155519D01*
X96122443Y-145155519D01*
G37*
G36*
X118982443Y-145155519D02*
G01*
X119048627Y-145162037D01*
X119218466Y-145213557D01*
X119374991Y-145297222D01*
X119410729Y-145326552D01*
X119512186Y-145409814D01*
X119595448Y-145511271D01*
X119624778Y-145547009D01*
X119708443Y-145703534D01*
X119759963Y-145873373D01*
X119777359Y-146050000D01*
X119759963Y-146226627D01*
X119708443Y-146396466D01*
X119624778Y-146552991D01*
X119595448Y-146588729D01*
X119512186Y-146690186D01*
X119410729Y-146773448D01*
X119374991Y-146802778D01*
X119218466Y-146886443D01*
X119048627Y-146937963D01*
X118982442Y-146944482D01*
X118916260Y-146951000D01*
X118827740Y-146951000D01*
X118761558Y-146944482D01*
X118695373Y-146937963D01*
X118525534Y-146886443D01*
X118369009Y-146802778D01*
X118333271Y-146773448D01*
X118231814Y-146690186D01*
X118148552Y-146588729D01*
X118119222Y-146552991D01*
X118035557Y-146396466D01*
X117984037Y-146226627D01*
X117966641Y-146050000D01*
X117984037Y-145873373D01*
X118035557Y-145703534D01*
X118119222Y-145547009D01*
X118148552Y-145511271D01*
X118231814Y-145409814D01*
X118333271Y-145326552D01*
X118369009Y-145297222D01*
X118525534Y-145213557D01*
X118695373Y-145162037D01*
X118761557Y-145155519D01*
X118827740Y-145149000D01*
X118916260Y-145149000D01*
X118982443Y-145155519D01*
X118982443Y-145155519D01*
G37*
G36*
X116442443Y-145155519D02*
G01*
X116508627Y-145162037D01*
X116678466Y-145213557D01*
X116834991Y-145297222D01*
X116870729Y-145326552D01*
X116972186Y-145409814D01*
X117055448Y-145511271D01*
X117084778Y-145547009D01*
X117168443Y-145703534D01*
X117219963Y-145873373D01*
X117237359Y-146050000D01*
X117219963Y-146226627D01*
X117168443Y-146396466D01*
X117084778Y-146552991D01*
X117055448Y-146588729D01*
X116972186Y-146690186D01*
X116870729Y-146773448D01*
X116834991Y-146802778D01*
X116678466Y-146886443D01*
X116508627Y-146937963D01*
X116442442Y-146944482D01*
X116376260Y-146951000D01*
X116287740Y-146951000D01*
X116221558Y-146944482D01*
X116155373Y-146937963D01*
X115985534Y-146886443D01*
X115829009Y-146802778D01*
X115793271Y-146773448D01*
X115691814Y-146690186D01*
X115608552Y-146588729D01*
X115579222Y-146552991D01*
X115495557Y-146396466D01*
X115444037Y-146226627D01*
X115426641Y-146050000D01*
X115444037Y-145873373D01*
X115495557Y-145703534D01*
X115579222Y-145547009D01*
X115608552Y-145511271D01*
X115691814Y-145409814D01*
X115793271Y-145326552D01*
X115829009Y-145297222D01*
X115985534Y-145213557D01*
X116155373Y-145162037D01*
X116221557Y-145155519D01*
X116287740Y-145149000D01*
X116376260Y-145149000D01*
X116442443Y-145155519D01*
X116442443Y-145155519D01*
G37*
G36*
X118982442Y-142615518D02*
G01*
X119048627Y-142622037D01*
X119218466Y-142673557D01*
X119374991Y-142757222D01*
X119410729Y-142786552D01*
X119512186Y-142869814D01*
X119595448Y-142971271D01*
X119624778Y-143007009D01*
X119708443Y-143163534D01*
X119759963Y-143333373D01*
X119777359Y-143510000D01*
X119759963Y-143686627D01*
X119708443Y-143856466D01*
X119624778Y-144012991D01*
X119595448Y-144048729D01*
X119512186Y-144150186D01*
X119410729Y-144233448D01*
X119374991Y-144262778D01*
X119218466Y-144346443D01*
X119048627Y-144397963D01*
X118982443Y-144404481D01*
X118916260Y-144411000D01*
X118827740Y-144411000D01*
X118761557Y-144404481D01*
X118695373Y-144397963D01*
X118525534Y-144346443D01*
X118369009Y-144262778D01*
X118333271Y-144233448D01*
X118231814Y-144150186D01*
X118148552Y-144048729D01*
X118119222Y-144012991D01*
X118035557Y-143856466D01*
X117984037Y-143686627D01*
X117966641Y-143510000D01*
X117984037Y-143333373D01*
X118035557Y-143163534D01*
X118119222Y-143007009D01*
X118148552Y-142971271D01*
X118231814Y-142869814D01*
X118333271Y-142786552D01*
X118369009Y-142757222D01*
X118525534Y-142673557D01*
X118695373Y-142622037D01*
X118761558Y-142615518D01*
X118827740Y-142609000D01*
X118916260Y-142609000D01*
X118982442Y-142615518D01*
X118982442Y-142615518D01*
G37*
G36*
X116442442Y-142615518D02*
G01*
X116508627Y-142622037D01*
X116678466Y-142673557D01*
X116834991Y-142757222D01*
X116870729Y-142786552D01*
X116972186Y-142869814D01*
X117055448Y-142971271D01*
X117084778Y-143007009D01*
X117168443Y-143163534D01*
X117219963Y-143333373D01*
X117237359Y-143510000D01*
X117219963Y-143686627D01*
X117168443Y-143856466D01*
X117084778Y-144012991D01*
X117055448Y-144048729D01*
X116972186Y-144150186D01*
X116870729Y-144233448D01*
X116834991Y-144262778D01*
X116678466Y-144346443D01*
X116508627Y-144397963D01*
X116442443Y-144404481D01*
X116376260Y-144411000D01*
X116287740Y-144411000D01*
X116221557Y-144404481D01*
X116155373Y-144397963D01*
X115985534Y-144346443D01*
X115829009Y-144262778D01*
X115793271Y-144233448D01*
X115691814Y-144150186D01*
X115608552Y-144048729D01*
X115579222Y-144012991D01*
X115495557Y-143856466D01*
X115444037Y-143686627D01*
X115426641Y-143510000D01*
X115444037Y-143333373D01*
X115495557Y-143163534D01*
X115579222Y-143007009D01*
X115608552Y-142971271D01*
X115691814Y-142869814D01*
X115793271Y-142786552D01*
X115829009Y-142757222D01*
X115985534Y-142673557D01*
X116155373Y-142622037D01*
X116221558Y-142615518D01*
X116287740Y-142609000D01*
X116376260Y-142609000D01*
X116442442Y-142615518D01*
X116442442Y-142615518D01*
G37*
G36*
X96913000Y-144411000D02*
G01*
X95111000Y-144411000D01*
X95111000Y-142609000D01*
X96913000Y-142609000D01*
X96913000Y-144411000D01*
X96913000Y-144411000D01*
G37*
G36*
X113902442Y-142615518D02*
G01*
X113968627Y-142622037D01*
X114138466Y-142673557D01*
X114294991Y-142757222D01*
X114330729Y-142786552D01*
X114432186Y-142869814D01*
X114515448Y-142971271D01*
X114544778Y-143007009D01*
X114628443Y-143163534D01*
X114679963Y-143333373D01*
X114697359Y-143510000D01*
X114679963Y-143686627D01*
X114628443Y-143856466D01*
X114544778Y-144012991D01*
X114515448Y-144048729D01*
X114432186Y-144150186D01*
X114330729Y-144233448D01*
X114294991Y-144262778D01*
X114138466Y-144346443D01*
X113968627Y-144397963D01*
X113902443Y-144404481D01*
X113836260Y-144411000D01*
X113747740Y-144411000D01*
X113681557Y-144404481D01*
X113615373Y-144397963D01*
X113445534Y-144346443D01*
X113289009Y-144262778D01*
X113253271Y-144233448D01*
X113151814Y-144150186D01*
X113068552Y-144048729D01*
X113039222Y-144012991D01*
X112955557Y-143856466D01*
X112904037Y-143686627D01*
X112886641Y-143510000D01*
X112904037Y-143333373D01*
X112955557Y-143163534D01*
X113039222Y-143007009D01*
X113068552Y-142971271D01*
X113151814Y-142869814D01*
X113253271Y-142786552D01*
X113289009Y-142757222D01*
X113445534Y-142673557D01*
X113615373Y-142622037D01*
X113681558Y-142615518D01*
X113747740Y-142609000D01*
X113836260Y-142609000D01*
X113902442Y-142615518D01*
X113902442Y-142615518D01*
G37*
G36*
X98662442Y-142615518D02*
G01*
X98728627Y-142622037D01*
X98898466Y-142673557D01*
X99054991Y-142757222D01*
X99090729Y-142786552D01*
X99192186Y-142869814D01*
X99275448Y-142971271D01*
X99304778Y-143007009D01*
X99388443Y-143163534D01*
X99439963Y-143333373D01*
X99457359Y-143510000D01*
X99439963Y-143686627D01*
X99388443Y-143856466D01*
X99304778Y-144012991D01*
X99275448Y-144048729D01*
X99192186Y-144150186D01*
X99090729Y-144233448D01*
X99054991Y-144262778D01*
X98898466Y-144346443D01*
X98728627Y-144397963D01*
X98662443Y-144404481D01*
X98596260Y-144411000D01*
X98507740Y-144411000D01*
X98441557Y-144404481D01*
X98375373Y-144397963D01*
X98205534Y-144346443D01*
X98049009Y-144262778D01*
X98013271Y-144233448D01*
X97911814Y-144150186D01*
X97828552Y-144048729D01*
X97799222Y-144012991D01*
X97715557Y-143856466D01*
X97664037Y-143686627D01*
X97646641Y-143510000D01*
X97664037Y-143333373D01*
X97715557Y-143163534D01*
X97799222Y-143007009D01*
X97828552Y-142971271D01*
X97911814Y-142869814D01*
X98013271Y-142786552D01*
X98049009Y-142757222D01*
X98205534Y-142673557D01*
X98375373Y-142622037D01*
X98441558Y-142615518D01*
X98507740Y-142609000D01*
X98596260Y-142609000D01*
X98662442Y-142615518D01*
X98662442Y-142615518D01*
G37*
G36*
X111362442Y-142615518D02*
G01*
X111428627Y-142622037D01*
X111598466Y-142673557D01*
X111754991Y-142757222D01*
X111790729Y-142786552D01*
X111892186Y-142869814D01*
X111975448Y-142971271D01*
X112004778Y-143007009D01*
X112088443Y-143163534D01*
X112139963Y-143333373D01*
X112157359Y-143510000D01*
X112139963Y-143686627D01*
X112088443Y-143856466D01*
X112004778Y-144012991D01*
X111975448Y-144048729D01*
X111892186Y-144150186D01*
X111790729Y-144233448D01*
X111754991Y-144262778D01*
X111598466Y-144346443D01*
X111428627Y-144397963D01*
X111362443Y-144404481D01*
X111296260Y-144411000D01*
X111207740Y-144411000D01*
X111141557Y-144404481D01*
X111075373Y-144397963D01*
X110905534Y-144346443D01*
X110749009Y-144262778D01*
X110713271Y-144233448D01*
X110611814Y-144150186D01*
X110528552Y-144048729D01*
X110499222Y-144012991D01*
X110415557Y-143856466D01*
X110364037Y-143686627D01*
X110346641Y-143510000D01*
X110364037Y-143333373D01*
X110415557Y-143163534D01*
X110499222Y-143007009D01*
X110528552Y-142971271D01*
X110611814Y-142869814D01*
X110713271Y-142786552D01*
X110749009Y-142757222D01*
X110905534Y-142673557D01*
X111075373Y-142622037D01*
X111141558Y-142615518D01*
X111207740Y-142609000D01*
X111296260Y-142609000D01*
X111362442Y-142615518D01*
X111362442Y-142615518D01*
G37*
G36*
X101202442Y-142615518D02*
G01*
X101268627Y-142622037D01*
X101438466Y-142673557D01*
X101594991Y-142757222D01*
X101630729Y-142786552D01*
X101732186Y-142869814D01*
X101815448Y-142971271D01*
X101844778Y-143007009D01*
X101928443Y-143163534D01*
X101979963Y-143333373D01*
X101997359Y-143510000D01*
X101979963Y-143686627D01*
X101928443Y-143856466D01*
X101844778Y-144012991D01*
X101815448Y-144048729D01*
X101732186Y-144150186D01*
X101630729Y-144233448D01*
X101594991Y-144262778D01*
X101438466Y-144346443D01*
X101268627Y-144397963D01*
X101202443Y-144404481D01*
X101136260Y-144411000D01*
X101047740Y-144411000D01*
X100981557Y-144404481D01*
X100915373Y-144397963D01*
X100745534Y-144346443D01*
X100589009Y-144262778D01*
X100553271Y-144233448D01*
X100451814Y-144150186D01*
X100368552Y-144048729D01*
X100339222Y-144012991D01*
X100255557Y-143856466D01*
X100204037Y-143686627D01*
X100186641Y-143510000D01*
X100204037Y-143333373D01*
X100255557Y-143163534D01*
X100339222Y-143007009D01*
X100368552Y-142971271D01*
X100451814Y-142869814D01*
X100553271Y-142786552D01*
X100589009Y-142757222D01*
X100745534Y-142673557D01*
X100915373Y-142622037D01*
X100981558Y-142615518D01*
X101047740Y-142609000D01*
X101136260Y-142609000D01*
X101202442Y-142615518D01*
X101202442Y-142615518D01*
G37*
G36*
X108822442Y-142615518D02*
G01*
X108888627Y-142622037D01*
X109058466Y-142673557D01*
X109214991Y-142757222D01*
X109250729Y-142786552D01*
X109352186Y-142869814D01*
X109435448Y-142971271D01*
X109464778Y-143007009D01*
X109548443Y-143163534D01*
X109599963Y-143333373D01*
X109617359Y-143510000D01*
X109599963Y-143686627D01*
X109548443Y-143856466D01*
X109464778Y-144012991D01*
X109435448Y-144048729D01*
X109352186Y-144150186D01*
X109250729Y-144233448D01*
X109214991Y-144262778D01*
X109058466Y-144346443D01*
X108888627Y-144397963D01*
X108822443Y-144404481D01*
X108756260Y-144411000D01*
X108667740Y-144411000D01*
X108601557Y-144404481D01*
X108535373Y-144397963D01*
X108365534Y-144346443D01*
X108209009Y-144262778D01*
X108173271Y-144233448D01*
X108071814Y-144150186D01*
X107988552Y-144048729D01*
X107959222Y-144012991D01*
X107875557Y-143856466D01*
X107824037Y-143686627D01*
X107806641Y-143510000D01*
X107824037Y-143333373D01*
X107875557Y-143163534D01*
X107959222Y-143007009D01*
X107988552Y-142971271D01*
X108071814Y-142869814D01*
X108173271Y-142786552D01*
X108209009Y-142757222D01*
X108365534Y-142673557D01*
X108535373Y-142622037D01*
X108601558Y-142615518D01*
X108667740Y-142609000D01*
X108756260Y-142609000D01*
X108822442Y-142615518D01*
X108822442Y-142615518D01*
G37*
G36*
X103742442Y-142615518D02*
G01*
X103808627Y-142622037D01*
X103978466Y-142673557D01*
X104134991Y-142757222D01*
X104170729Y-142786552D01*
X104272186Y-142869814D01*
X104355448Y-142971271D01*
X104384778Y-143007009D01*
X104468443Y-143163534D01*
X104519963Y-143333373D01*
X104537359Y-143510000D01*
X104519963Y-143686627D01*
X104468443Y-143856466D01*
X104384778Y-144012991D01*
X104355448Y-144048729D01*
X104272186Y-144150186D01*
X104170729Y-144233448D01*
X104134991Y-144262778D01*
X103978466Y-144346443D01*
X103808627Y-144397963D01*
X103742443Y-144404481D01*
X103676260Y-144411000D01*
X103587740Y-144411000D01*
X103521557Y-144404481D01*
X103455373Y-144397963D01*
X103285534Y-144346443D01*
X103129009Y-144262778D01*
X103093271Y-144233448D01*
X102991814Y-144150186D01*
X102908552Y-144048729D01*
X102879222Y-144012991D01*
X102795557Y-143856466D01*
X102744037Y-143686627D01*
X102726641Y-143510000D01*
X102744037Y-143333373D01*
X102795557Y-143163534D01*
X102879222Y-143007009D01*
X102908552Y-142971271D01*
X102991814Y-142869814D01*
X103093271Y-142786552D01*
X103129009Y-142757222D01*
X103285534Y-142673557D01*
X103455373Y-142622037D01*
X103521558Y-142615518D01*
X103587740Y-142609000D01*
X103676260Y-142609000D01*
X103742442Y-142615518D01*
X103742442Y-142615518D01*
G37*
G36*
X106282442Y-142615518D02*
G01*
X106348627Y-142622037D01*
X106518466Y-142673557D01*
X106674991Y-142757222D01*
X106710729Y-142786552D01*
X106812186Y-142869814D01*
X106895448Y-142971271D01*
X106924778Y-143007009D01*
X107008443Y-143163534D01*
X107059963Y-143333373D01*
X107077359Y-143510000D01*
X107059963Y-143686627D01*
X107008443Y-143856466D01*
X106924778Y-144012991D01*
X106895448Y-144048729D01*
X106812186Y-144150186D01*
X106710729Y-144233448D01*
X106674991Y-144262778D01*
X106518466Y-144346443D01*
X106348627Y-144397963D01*
X106282443Y-144404481D01*
X106216260Y-144411000D01*
X106127740Y-144411000D01*
X106061557Y-144404481D01*
X105995373Y-144397963D01*
X105825534Y-144346443D01*
X105669009Y-144262778D01*
X105633271Y-144233448D01*
X105531814Y-144150186D01*
X105448552Y-144048729D01*
X105419222Y-144012991D01*
X105335557Y-143856466D01*
X105284037Y-143686627D01*
X105266641Y-143510000D01*
X105284037Y-143333373D01*
X105335557Y-143163534D01*
X105419222Y-143007009D01*
X105448552Y-142971271D01*
X105531814Y-142869814D01*
X105633271Y-142786552D01*
X105669009Y-142757222D01*
X105825534Y-142673557D01*
X105995373Y-142622037D01*
X106061558Y-142615518D01*
X106127740Y-142609000D01*
X106216260Y-142609000D01*
X106282442Y-142615518D01*
X106282442Y-142615518D01*
G37*
G36*
X94914499Y-140228445D02*
G01*
X94951995Y-140239820D01*
X94986554Y-140258292D01*
X95016847Y-140283153D01*
X95041708Y-140313446D01*
X95060180Y-140348005D01*
X95071555Y-140385501D01*
X95076000Y-140430638D01*
X95076000Y-141069362D01*
X95071555Y-141114499D01*
X95060180Y-141151995D01*
X95041708Y-141186554D01*
X95016847Y-141216847D01*
X94986554Y-141241708D01*
X94951995Y-141260180D01*
X94914499Y-141271555D01*
X94869362Y-141276000D01*
X94130638Y-141276000D01*
X94085501Y-141271555D01*
X94048005Y-141260180D01*
X94013446Y-141241708D01*
X93983153Y-141216847D01*
X93958292Y-141186554D01*
X93939820Y-141151995D01*
X93928445Y-141114499D01*
X93924000Y-141069362D01*
X93924000Y-140430638D01*
X93928445Y-140385501D01*
X93939820Y-140348005D01*
X93958292Y-140313446D01*
X93983153Y-140283153D01*
X94013446Y-140258292D01*
X94048005Y-140239820D01*
X94085501Y-140228445D01*
X94130638Y-140224000D01*
X94869362Y-140224000D01*
X94914499Y-140228445D01*
X94914499Y-140228445D01*
G37*
G36*
X96664499Y-140228445D02*
G01*
X96701995Y-140239820D01*
X96736554Y-140258292D01*
X96766847Y-140283153D01*
X96791708Y-140313446D01*
X96810180Y-140348005D01*
X96821555Y-140385501D01*
X96826000Y-140430638D01*
X96826000Y-141069362D01*
X96821555Y-141114499D01*
X96810180Y-141151995D01*
X96791708Y-141186554D01*
X96766847Y-141216847D01*
X96736554Y-141241708D01*
X96701995Y-141260180D01*
X96664499Y-141271555D01*
X96619362Y-141276000D01*
X95880638Y-141276000D01*
X95835501Y-141271555D01*
X95798005Y-141260180D01*
X95763446Y-141241708D01*
X95733153Y-141216847D01*
X95708292Y-141186554D01*
X95689820Y-141151995D01*
X95678445Y-141114499D01*
X95674000Y-141069362D01*
X95674000Y-140430638D01*
X95678445Y-140385501D01*
X95689820Y-140348005D01*
X95708292Y-140313446D01*
X95733153Y-140283153D01*
X95763446Y-140258292D01*
X95798005Y-140239820D01*
X95835501Y-140228445D01*
X95880638Y-140224000D01*
X96619362Y-140224000D01*
X96664499Y-140228445D01*
X96664499Y-140228445D01*
G37*
G36*
X96664499Y-138478445D02*
G01*
X96701995Y-138489820D01*
X96736554Y-138508292D01*
X96766847Y-138533153D01*
X96791708Y-138563446D01*
X96810180Y-138598005D01*
X96821555Y-138635501D01*
X96826000Y-138680638D01*
X96826000Y-139319362D01*
X96821555Y-139364499D01*
X96810180Y-139401995D01*
X96791708Y-139436554D01*
X96766847Y-139466847D01*
X96736554Y-139491708D01*
X96701995Y-139510180D01*
X96664499Y-139521555D01*
X96619362Y-139526000D01*
X95880638Y-139526000D01*
X95835501Y-139521555D01*
X95798005Y-139510180D01*
X95763446Y-139491708D01*
X95733153Y-139466847D01*
X95708292Y-139436554D01*
X95689820Y-139401995D01*
X95678445Y-139364499D01*
X95674000Y-139319362D01*
X95674000Y-138680638D01*
X95678445Y-138635501D01*
X95689820Y-138598005D01*
X95708292Y-138563446D01*
X95733153Y-138533153D01*
X95763446Y-138508292D01*
X95798005Y-138489820D01*
X95835501Y-138478445D01*
X95880638Y-138474000D01*
X96619362Y-138474000D01*
X96664499Y-138478445D01*
X96664499Y-138478445D01*
G37*
G36*
X94914499Y-138478445D02*
G01*
X94951995Y-138489820D01*
X94986554Y-138508292D01*
X95016847Y-138533153D01*
X95041708Y-138563446D01*
X95060180Y-138598005D01*
X95071555Y-138635501D01*
X95076000Y-138680638D01*
X95076000Y-139319362D01*
X95071555Y-139364499D01*
X95060180Y-139401995D01*
X95041708Y-139436554D01*
X95016847Y-139466847D01*
X94986554Y-139491708D01*
X94951995Y-139510180D01*
X94914499Y-139521555D01*
X94869362Y-139526000D01*
X94130638Y-139526000D01*
X94085501Y-139521555D01*
X94048005Y-139510180D01*
X94013446Y-139491708D01*
X93983153Y-139466847D01*
X93958292Y-139436554D01*
X93939820Y-139401995D01*
X93928445Y-139364499D01*
X93924000Y-139319362D01*
X93924000Y-138680638D01*
X93928445Y-138635501D01*
X93939820Y-138598005D01*
X93958292Y-138563446D01*
X93983153Y-138533153D01*
X94013446Y-138508292D01*
X94048005Y-138489820D01*
X94085501Y-138478445D01*
X94130638Y-138474000D01*
X94869362Y-138474000D01*
X94914499Y-138478445D01*
X94914499Y-138478445D01*
G37*
G36*
X78021000Y-138434000D02*
G01*
X67119000Y-138434000D01*
X67119000Y-128932000D01*
X78021000Y-128932000D01*
X78021000Y-138434000D01*
X78021000Y-138434000D01*
G37*
G36*
X86457142Y-135708242D02*
G01*
X86605101Y-135769529D01*
X86738255Y-135858499D01*
X86851501Y-135971745D01*
X86940471Y-136104899D01*
X87001758Y-136252858D01*
X87033000Y-136409925D01*
X87033000Y-136570075D01*
X87001758Y-136727142D01*
X86940471Y-136875101D01*
X86851501Y-137008255D01*
X86738255Y-137121501D01*
X86605101Y-137210471D01*
X86457142Y-137271758D01*
X86300075Y-137303000D01*
X86139925Y-137303000D01*
X85982858Y-137271758D01*
X85834899Y-137210471D01*
X85701745Y-137121501D01*
X85588499Y-137008255D01*
X85499529Y-136875101D01*
X85438242Y-136727142D01*
X85407000Y-136570075D01*
X85407000Y-136409925D01*
X85438242Y-136252858D01*
X85499529Y-136104899D01*
X85588499Y-135971745D01*
X85701745Y-135858499D01*
X85834899Y-135769529D01*
X85982858Y-135708242D01*
X86139925Y-135677000D01*
X86300075Y-135677000D01*
X86457142Y-135708242D01*
X86457142Y-135708242D01*
G37*
G36*
X114397142Y-135708242D02*
G01*
X114545101Y-135769529D01*
X114678255Y-135858499D01*
X114791501Y-135971745D01*
X114880471Y-136104899D01*
X114941758Y-136252858D01*
X114973000Y-136409925D01*
X114973000Y-136570075D01*
X114941758Y-136727142D01*
X114880471Y-136875101D01*
X114791501Y-137008255D01*
X114678255Y-137121501D01*
X114545101Y-137210471D01*
X114397142Y-137271758D01*
X114240075Y-137303000D01*
X114079925Y-137303000D01*
X113922858Y-137271758D01*
X113774899Y-137210471D01*
X113641745Y-137121501D01*
X113528499Y-137008255D01*
X113439529Y-136875101D01*
X113378242Y-136727142D01*
X113347000Y-136570075D01*
X113347000Y-136409925D01*
X113378242Y-136252858D01*
X113439529Y-136104899D01*
X113528499Y-135971745D01*
X113641745Y-135858499D01*
X113774899Y-135769529D01*
X113922858Y-135708242D01*
X114079925Y-135677000D01*
X114240075Y-135677000D01*
X114397142Y-135708242D01*
X114397142Y-135708242D01*
G37*
G36*
X111857142Y-135708242D02*
G01*
X112005101Y-135769529D01*
X112138255Y-135858499D01*
X112251501Y-135971745D01*
X112340471Y-136104899D01*
X112401758Y-136252858D01*
X112433000Y-136409925D01*
X112433000Y-136570075D01*
X112401758Y-136727142D01*
X112340471Y-136875101D01*
X112251501Y-137008255D01*
X112138255Y-137121501D01*
X112005101Y-137210471D01*
X111857142Y-137271758D01*
X111700075Y-137303000D01*
X111539925Y-137303000D01*
X111382858Y-137271758D01*
X111234899Y-137210471D01*
X111101745Y-137121501D01*
X110988499Y-137008255D01*
X110899529Y-136875101D01*
X110838242Y-136727142D01*
X110807000Y-136570075D01*
X110807000Y-136409925D01*
X110838242Y-136252858D01*
X110899529Y-136104899D01*
X110988499Y-135971745D01*
X111101745Y-135858499D01*
X111234899Y-135769529D01*
X111382858Y-135708242D01*
X111539925Y-135677000D01*
X111700075Y-135677000D01*
X111857142Y-135708242D01*
X111857142Y-135708242D01*
G37*
G36*
X109317142Y-135708242D02*
G01*
X109465101Y-135769529D01*
X109598255Y-135858499D01*
X109711501Y-135971745D01*
X109800471Y-136104899D01*
X109861758Y-136252858D01*
X109893000Y-136409925D01*
X109893000Y-136570075D01*
X109861758Y-136727142D01*
X109800471Y-136875101D01*
X109711501Y-137008255D01*
X109598255Y-137121501D01*
X109465101Y-137210471D01*
X109317142Y-137271758D01*
X109160075Y-137303000D01*
X108999925Y-137303000D01*
X108842858Y-137271758D01*
X108694899Y-137210471D01*
X108561745Y-137121501D01*
X108448499Y-137008255D01*
X108359529Y-136875101D01*
X108298242Y-136727142D01*
X108267000Y-136570075D01*
X108267000Y-136409925D01*
X108298242Y-136252858D01*
X108359529Y-136104899D01*
X108448499Y-135971745D01*
X108561745Y-135858499D01*
X108694899Y-135769529D01*
X108842858Y-135708242D01*
X108999925Y-135677000D01*
X109160075Y-135677000D01*
X109317142Y-135708242D01*
X109317142Y-135708242D01*
G37*
G36*
X106777142Y-135708242D02*
G01*
X106925101Y-135769529D01*
X107058255Y-135858499D01*
X107171501Y-135971745D01*
X107260471Y-136104899D01*
X107321758Y-136252858D01*
X107353000Y-136409925D01*
X107353000Y-136570075D01*
X107321758Y-136727142D01*
X107260471Y-136875101D01*
X107171501Y-137008255D01*
X107058255Y-137121501D01*
X106925101Y-137210471D01*
X106777142Y-137271758D01*
X106620075Y-137303000D01*
X106459925Y-137303000D01*
X106302858Y-137271758D01*
X106154899Y-137210471D01*
X106021745Y-137121501D01*
X105908499Y-137008255D01*
X105819529Y-136875101D01*
X105758242Y-136727142D01*
X105727000Y-136570075D01*
X105727000Y-136409925D01*
X105758242Y-136252858D01*
X105819529Y-136104899D01*
X105908499Y-135971745D01*
X106021745Y-135858499D01*
X106154899Y-135769529D01*
X106302858Y-135708242D01*
X106459925Y-135677000D01*
X106620075Y-135677000D01*
X106777142Y-135708242D01*
X106777142Y-135708242D01*
G37*
G36*
X104237142Y-135708242D02*
G01*
X104385101Y-135769529D01*
X104518255Y-135858499D01*
X104631501Y-135971745D01*
X104720471Y-136104899D01*
X104781758Y-136252858D01*
X104813000Y-136409925D01*
X104813000Y-136570075D01*
X104781758Y-136727142D01*
X104720471Y-136875101D01*
X104631501Y-137008255D01*
X104518255Y-137121501D01*
X104385101Y-137210471D01*
X104237142Y-137271758D01*
X104080075Y-137303000D01*
X103919925Y-137303000D01*
X103762858Y-137271758D01*
X103614899Y-137210471D01*
X103481745Y-137121501D01*
X103368499Y-137008255D01*
X103279529Y-136875101D01*
X103218242Y-136727142D01*
X103187000Y-136570075D01*
X103187000Y-136409925D01*
X103218242Y-136252858D01*
X103279529Y-136104899D01*
X103368499Y-135971745D01*
X103481745Y-135858499D01*
X103614899Y-135769529D01*
X103762858Y-135708242D01*
X103919925Y-135677000D01*
X104080075Y-135677000D01*
X104237142Y-135708242D01*
X104237142Y-135708242D01*
G37*
G36*
X101697142Y-135708242D02*
G01*
X101845101Y-135769529D01*
X101978255Y-135858499D01*
X102091501Y-135971745D01*
X102180471Y-136104899D01*
X102241758Y-136252858D01*
X102273000Y-136409925D01*
X102273000Y-136570075D01*
X102241758Y-136727142D01*
X102180471Y-136875101D01*
X102091501Y-137008255D01*
X101978255Y-137121501D01*
X101845101Y-137210471D01*
X101697142Y-137271758D01*
X101540075Y-137303000D01*
X101379925Y-137303000D01*
X101222858Y-137271758D01*
X101074899Y-137210471D01*
X100941745Y-137121501D01*
X100828499Y-137008255D01*
X100739529Y-136875101D01*
X100678242Y-136727142D01*
X100647000Y-136570075D01*
X100647000Y-136409925D01*
X100678242Y-136252858D01*
X100739529Y-136104899D01*
X100828499Y-135971745D01*
X100941745Y-135858499D01*
X101074899Y-135769529D01*
X101222858Y-135708242D01*
X101379925Y-135677000D01*
X101540075Y-135677000D01*
X101697142Y-135708242D01*
X101697142Y-135708242D01*
G37*
G36*
X99157142Y-135708242D02*
G01*
X99305101Y-135769529D01*
X99438255Y-135858499D01*
X99551501Y-135971745D01*
X99640471Y-136104899D01*
X99701758Y-136252858D01*
X99733000Y-136409925D01*
X99733000Y-136570075D01*
X99701758Y-136727142D01*
X99640471Y-136875101D01*
X99551501Y-137008255D01*
X99438255Y-137121501D01*
X99305101Y-137210471D01*
X99157142Y-137271758D01*
X99000075Y-137303000D01*
X98839925Y-137303000D01*
X98682858Y-137271758D01*
X98534899Y-137210471D01*
X98401745Y-137121501D01*
X98288499Y-137008255D01*
X98199529Y-136875101D01*
X98138242Y-136727142D01*
X98107000Y-136570075D01*
X98107000Y-136409925D01*
X98138242Y-136252858D01*
X98199529Y-136104899D01*
X98288499Y-135971745D01*
X98401745Y-135858499D01*
X98534899Y-135769529D01*
X98682858Y-135708242D01*
X98839925Y-135677000D01*
X99000075Y-135677000D01*
X99157142Y-135708242D01*
X99157142Y-135708242D01*
G37*
G36*
X96617142Y-135708242D02*
G01*
X96765101Y-135769529D01*
X96898255Y-135858499D01*
X97011501Y-135971745D01*
X97100471Y-136104899D01*
X97161758Y-136252858D01*
X97193000Y-136409925D01*
X97193000Y-136570075D01*
X97161758Y-136727142D01*
X97100471Y-136875101D01*
X97011501Y-137008255D01*
X96898255Y-137121501D01*
X96765101Y-137210471D01*
X96617142Y-137271758D01*
X96460075Y-137303000D01*
X96299925Y-137303000D01*
X96142858Y-137271758D01*
X95994899Y-137210471D01*
X95861745Y-137121501D01*
X95748499Y-137008255D01*
X95659529Y-136875101D01*
X95598242Y-136727142D01*
X95567000Y-136570075D01*
X95567000Y-136409925D01*
X95598242Y-136252858D01*
X95659529Y-136104899D01*
X95748499Y-135971745D01*
X95861745Y-135858499D01*
X95994899Y-135769529D01*
X96142858Y-135708242D01*
X96299925Y-135677000D01*
X96460075Y-135677000D01*
X96617142Y-135708242D01*
X96617142Y-135708242D01*
G37*
G36*
X94077142Y-135708242D02*
G01*
X94225101Y-135769529D01*
X94358255Y-135858499D01*
X94471501Y-135971745D01*
X94560471Y-136104899D01*
X94621758Y-136252858D01*
X94653000Y-136409925D01*
X94653000Y-136570075D01*
X94621758Y-136727142D01*
X94560471Y-136875101D01*
X94471501Y-137008255D01*
X94358255Y-137121501D01*
X94225101Y-137210471D01*
X94077142Y-137271758D01*
X93920075Y-137303000D01*
X93759925Y-137303000D01*
X93602858Y-137271758D01*
X93454899Y-137210471D01*
X93321745Y-137121501D01*
X93208499Y-137008255D01*
X93119529Y-136875101D01*
X93058242Y-136727142D01*
X93027000Y-136570075D01*
X93027000Y-136409925D01*
X93058242Y-136252858D01*
X93119529Y-136104899D01*
X93208499Y-135971745D01*
X93321745Y-135858499D01*
X93454899Y-135769529D01*
X93602858Y-135708242D01*
X93759925Y-135677000D01*
X93920075Y-135677000D01*
X94077142Y-135708242D01*
X94077142Y-135708242D01*
G37*
G36*
X91537142Y-135708242D02*
G01*
X91685101Y-135769529D01*
X91818255Y-135858499D01*
X91931501Y-135971745D01*
X92020471Y-136104899D01*
X92081758Y-136252858D01*
X92113000Y-136409925D01*
X92113000Y-136570075D01*
X92081758Y-136727142D01*
X92020471Y-136875101D01*
X91931501Y-137008255D01*
X91818255Y-137121501D01*
X91685101Y-137210471D01*
X91537142Y-137271758D01*
X91380075Y-137303000D01*
X91219925Y-137303000D01*
X91062858Y-137271758D01*
X90914899Y-137210471D01*
X90781745Y-137121501D01*
X90668499Y-137008255D01*
X90579529Y-136875101D01*
X90518242Y-136727142D01*
X90487000Y-136570075D01*
X90487000Y-136409925D01*
X90518242Y-136252858D01*
X90579529Y-136104899D01*
X90668499Y-135971745D01*
X90781745Y-135858499D01*
X90914899Y-135769529D01*
X91062858Y-135708242D01*
X91219925Y-135677000D01*
X91380075Y-135677000D01*
X91537142Y-135708242D01*
X91537142Y-135708242D01*
G37*
G36*
X119477142Y-135708242D02*
G01*
X119625101Y-135769529D01*
X119758255Y-135858499D01*
X119871501Y-135971745D01*
X119960471Y-136104899D01*
X120021758Y-136252858D01*
X120053000Y-136409925D01*
X120053000Y-136570075D01*
X120021758Y-136727142D01*
X119960471Y-136875101D01*
X119871501Y-137008255D01*
X119758255Y-137121501D01*
X119625101Y-137210471D01*
X119477142Y-137271758D01*
X119320075Y-137303000D01*
X119159925Y-137303000D01*
X119002858Y-137271758D01*
X118854899Y-137210471D01*
X118721745Y-137121501D01*
X118608499Y-137008255D01*
X118519529Y-136875101D01*
X118458242Y-136727142D01*
X118427000Y-136570075D01*
X118427000Y-136409925D01*
X118458242Y-136252858D01*
X118519529Y-136104899D01*
X118608499Y-135971745D01*
X118721745Y-135858499D01*
X118854899Y-135769529D01*
X119002858Y-135708242D01*
X119159925Y-135677000D01*
X119320075Y-135677000D01*
X119477142Y-135708242D01*
X119477142Y-135708242D01*
G37*
G36*
X116937142Y-135708242D02*
G01*
X117085101Y-135769529D01*
X117218255Y-135858499D01*
X117331501Y-135971745D01*
X117420471Y-136104899D01*
X117481758Y-136252858D01*
X117513000Y-136409925D01*
X117513000Y-136570075D01*
X117481758Y-136727142D01*
X117420471Y-136875101D01*
X117331501Y-137008255D01*
X117218255Y-137121501D01*
X117085101Y-137210471D01*
X116937142Y-137271758D01*
X116780075Y-137303000D01*
X116619925Y-137303000D01*
X116462858Y-137271758D01*
X116314899Y-137210471D01*
X116181745Y-137121501D01*
X116068499Y-137008255D01*
X115979529Y-136875101D01*
X115918242Y-136727142D01*
X115887000Y-136570075D01*
X115887000Y-136409925D01*
X115918242Y-136252858D01*
X115979529Y-136104899D01*
X116068499Y-135971745D01*
X116181745Y-135858499D01*
X116314899Y-135769529D01*
X116462858Y-135708242D01*
X116619925Y-135677000D01*
X116780075Y-135677000D01*
X116937142Y-135708242D01*
X116937142Y-135708242D01*
G37*
G36*
X88997142Y-135708242D02*
G01*
X89145101Y-135769529D01*
X89278255Y-135858499D01*
X89391501Y-135971745D01*
X89480471Y-136104899D01*
X89541758Y-136252858D01*
X89573000Y-136409925D01*
X89573000Y-136570075D01*
X89541758Y-136727142D01*
X89480471Y-136875101D01*
X89391501Y-137008255D01*
X89278255Y-137121501D01*
X89145101Y-137210471D01*
X88997142Y-137271758D01*
X88840075Y-137303000D01*
X88679925Y-137303000D01*
X88522858Y-137271758D01*
X88374899Y-137210471D01*
X88241745Y-137121501D01*
X88128499Y-137008255D01*
X88039529Y-136875101D01*
X87978242Y-136727142D01*
X87947000Y-136570075D01*
X87947000Y-136409925D01*
X87978242Y-136252858D01*
X88039529Y-136104899D01*
X88128499Y-135971745D01*
X88241745Y-135858499D01*
X88374899Y-135769529D01*
X88522858Y-135708242D01*
X88679925Y-135677000D01*
X88840075Y-135677000D01*
X88997142Y-135708242D01*
X88997142Y-135708242D01*
G37*
G36*
X80642798Y-134973747D02*
G01*
X80678367Y-134984537D01*
X80711139Y-135002054D01*
X80739869Y-135025631D01*
X80763446Y-135054361D01*
X80780963Y-135087133D01*
X80791753Y-135122702D01*
X80796000Y-135165825D01*
X80796000Y-136450175D01*
X80791753Y-136493298D01*
X80780963Y-136528867D01*
X80763446Y-136561639D01*
X80739869Y-136590369D01*
X80711139Y-136613946D01*
X80678367Y-136631463D01*
X80642798Y-136642253D01*
X80599675Y-136646500D01*
X79540325Y-136646500D01*
X79497202Y-136642253D01*
X79461633Y-136631463D01*
X79428861Y-136613946D01*
X79400131Y-136590369D01*
X79376554Y-136561639D01*
X79359037Y-136528867D01*
X79348247Y-136493298D01*
X79344000Y-136450175D01*
X79344000Y-135165825D01*
X79348247Y-135122702D01*
X79359037Y-135087133D01*
X79376554Y-135054361D01*
X79400131Y-135025631D01*
X79428861Y-135002054D01*
X79461633Y-134984537D01*
X79497202Y-134973747D01*
X79540325Y-134969500D01*
X80599675Y-134969500D01*
X80642798Y-134973747D01*
X80642798Y-134973747D01*
G37*
G36*
X82684499Y-135486445D02*
G01*
X82721995Y-135497820D01*
X82756554Y-135516292D01*
X82786847Y-135541153D01*
X82811708Y-135571446D01*
X82830180Y-135606005D01*
X82841555Y-135643501D01*
X82846000Y-135688638D01*
X82846000Y-136427362D01*
X82841555Y-136472499D01*
X82830180Y-136509995D01*
X82811708Y-136544554D01*
X82786847Y-136574847D01*
X82756554Y-136599708D01*
X82721995Y-136618180D01*
X82684499Y-136629555D01*
X82639362Y-136634000D01*
X82000638Y-136634000D01*
X81955501Y-136629555D01*
X81918005Y-136618180D01*
X81883446Y-136599708D01*
X81853153Y-136574847D01*
X81828292Y-136544554D01*
X81809820Y-136509995D01*
X81798445Y-136472499D01*
X81794000Y-136427362D01*
X81794000Y-135688638D01*
X81798445Y-135643501D01*
X81809820Y-135606005D01*
X81828292Y-135571446D01*
X81853153Y-135541153D01*
X81883446Y-135516292D01*
X81918005Y-135497820D01*
X81955501Y-135486445D01*
X82000638Y-135482000D01*
X82639362Y-135482000D01*
X82684499Y-135486445D01*
X82684499Y-135486445D01*
G37*
G36*
X82684499Y-133736445D02*
G01*
X82721995Y-133747820D01*
X82756554Y-133766292D01*
X82786847Y-133791153D01*
X82811708Y-133821446D01*
X82830180Y-133856005D01*
X82841555Y-133893501D01*
X82846000Y-133938638D01*
X82846000Y-134677362D01*
X82841555Y-134722499D01*
X82830180Y-134759995D01*
X82811708Y-134794554D01*
X82786847Y-134824847D01*
X82756554Y-134849708D01*
X82721995Y-134868180D01*
X82684499Y-134879555D01*
X82639362Y-134884000D01*
X82000638Y-134884000D01*
X81955501Y-134879555D01*
X81918005Y-134868180D01*
X81883446Y-134849708D01*
X81853153Y-134824847D01*
X81828292Y-134794554D01*
X81809820Y-134759995D01*
X81798445Y-134722499D01*
X81794000Y-134677362D01*
X81794000Y-133938638D01*
X81798445Y-133893501D01*
X81809820Y-133856005D01*
X81828292Y-133821446D01*
X81853153Y-133791153D01*
X81883446Y-133766292D01*
X81918005Y-133747820D01*
X81955501Y-133736445D01*
X82000638Y-133732000D01*
X82639362Y-133732000D01*
X82684499Y-133736445D01*
X82684499Y-133736445D01*
G37*
G36*
X119477142Y-133168242D02*
G01*
X119625101Y-133229529D01*
X119758255Y-133318499D01*
X119871501Y-133431745D01*
X119960471Y-133564899D01*
X120021758Y-133712858D01*
X120053000Y-133869925D01*
X120053000Y-134030075D01*
X120021758Y-134187142D01*
X119960471Y-134335101D01*
X119871501Y-134468255D01*
X119758255Y-134581501D01*
X119625101Y-134670471D01*
X119477142Y-134731758D01*
X119320075Y-134763000D01*
X119159925Y-134763000D01*
X119002858Y-134731758D01*
X118854899Y-134670471D01*
X118721745Y-134581501D01*
X118608499Y-134468255D01*
X118519529Y-134335101D01*
X118458242Y-134187142D01*
X118427000Y-134030075D01*
X118427000Y-133869925D01*
X118458242Y-133712858D01*
X118519529Y-133564899D01*
X118608499Y-133431745D01*
X118721745Y-133318499D01*
X118854899Y-133229529D01*
X119002858Y-133168242D01*
X119159925Y-133137000D01*
X119320075Y-133137000D01*
X119477142Y-133168242D01*
X119477142Y-133168242D01*
G37*
G36*
X99164499Y-132728445D02*
G01*
X99201995Y-132739820D01*
X99236554Y-132758292D01*
X99266847Y-132783153D01*
X99291708Y-132813446D01*
X99310180Y-132848005D01*
X99321555Y-132885501D01*
X99326000Y-132930638D01*
X99326000Y-133569362D01*
X99321555Y-133614499D01*
X99310180Y-133651995D01*
X99291708Y-133686554D01*
X99266847Y-133716847D01*
X99236554Y-133741708D01*
X99201995Y-133760180D01*
X99164499Y-133771555D01*
X99119362Y-133776000D01*
X98380638Y-133776000D01*
X98335501Y-133771555D01*
X98298005Y-133760180D01*
X98263446Y-133741708D01*
X98233153Y-133716847D01*
X98208292Y-133686554D01*
X98189820Y-133651995D01*
X98178445Y-133614499D01*
X98174000Y-133569362D01*
X98174000Y-132930638D01*
X98178445Y-132885501D01*
X98189820Y-132848005D01*
X98208292Y-132813446D01*
X98233153Y-132783153D01*
X98263446Y-132758292D01*
X98298005Y-132739820D01*
X98335501Y-132728445D01*
X98380638Y-132724000D01*
X99119362Y-132724000D01*
X99164499Y-132728445D01*
X99164499Y-132728445D01*
G37*
G36*
X100914499Y-132728445D02*
G01*
X100951995Y-132739820D01*
X100986554Y-132758292D01*
X101016847Y-132783153D01*
X101041708Y-132813446D01*
X101060180Y-132848005D01*
X101071555Y-132885501D01*
X101076000Y-132930638D01*
X101076000Y-133569362D01*
X101071555Y-133614499D01*
X101060180Y-133651995D01*
X101041708Y-133686554D01*
X101016847Y-133716847D01*
X100986554Y-133741708D01*
X100951995Y-133760180D01*
X100914499Y-133771555D01*
X100869362Y-133776000D01*
X100130638Y-133776000D01*
X100085501Y-133771555D01*
X100048005Y-133760180D01*
X100013446Y-133741708D01*
X99983153Y-133716847D01*
X99958292Y-133686554D01*
X99939820Y-133651995D01*
X99928445Y-133614499D01*
X99924000Y-133569362D01*
X99924000Y-132930638D01*
X99928445Y-132885501D01*
X99939820Y-132848005D01*
X99958292Y-132813446D01*
X99983153Y-132783153D01*
X100013446Y-132758292D01*
X100048005Y-132739820D01*
X100085501Y-132728445D01*
X100130638Y-132724000D01*
X100869362Y-132724000D01*
X100914499Y-132728445D01*
X100914499Y-132728445D01*
G37*
G36*
X80642798Y-132098747D02*
G01*
X80678367Y-132109537D01*
X80711139Y-132127054D01*
X80739869Y-132150631D01*
X80763446Y-132179361D01*
X80780963Y-132212133D01*
X80791753Y-132247702D01*
X80796000Y-132290825D01*
X80796000Y-133575175D01*
X80791753Y-133618298D01*
X80780963Y-133653867D01*
X80763446Y-133686639D01*
X80739869Y-133715369D01*
X80711139Y-133738946D01*
X80678367Y-133756463D01*
X80642798Y-133767253D01*
X80599675Y-133771500D01*
X79540325Y-133771500D01*
X79497202Y-133767253D01*
X79461633Y-133756463D01*
X79428861Y-133738946D01*
X79400131Y-133715369D01*
X79376554Y-133686639D01*
X79359037Y-133653867D01*
X79348247Y-133618298D01*
X79344000Y-133575175D01*
X79344000Y-132290825D01*
X79348247Y-132247702D01*
X79359037Y-132212133D01*
X79376554Y-132179361D01*
X79400131Y-132150631D01*
X79428861Y-132127054D01*
X79461633Y-132109537D01*
X79497202Y-132098747D01*
X79540325Y-132094500D01*
X80599675Y-132094500D01*
X80642798Y-132098747D01*
X80642798Y-132098747D01*
G37*
G36*
X119477142Y-130628242D02*
G01*
X119625101Y-130689529D01*
X119758255Y-130778499D01*
X119871501Y-130891745D01*
X119960471Y-131024899D01*
X120021758Y-131172858D01*
X120053000Y-131329925D01*
X120053000Y-131490075D01*
X120021758Y-131647142D01*
X119960471Y-131795101D01*
X119871501Y-131928255D01*
X119758255Y-132041501D01*
X119625101Y-132130471D01*
X119477142Y-132191758D01*
X119320075Y-132223000D01*
X119159925Y-132223000D01*
X119002858Y-132191758D01*
X118854899Y-132130471D01*
X118721745Y-132041501D01*
X118608499Y-131928255D01*
X118519529Y-131795101D01*
X118458242Y-131647142D01*
X118427000Y-131490075D01*
X118427000Y-131329925D01*
X118458242Y-131172858D01*
X118519529Y-131024899D01*
X118608499Y-130891745D01*
X118721745Y-130778499D01*
X118854899Y-130689529D01*
X119002858Y-130628242D01*
X119159925Y-130597000D01*
X119320075Y-130597000D01*
X119477142Y-130628242D01*
X119477142Y-130628242D01*
G37*
G36*
X100914499Y-130478445D02*
G01*
X100951995Y-130489820D01*
X100986554Y-130508292D01*
X101016847Y-130533153D01*
X101041708Y-130563446D01*
X101060180Y-130598005D01*
X101071555Y-130635501D01*
X101076000Y-130680638D01*
X101076000Y-131319362D01*
X101071555Y-131364499D01*
X101060180Y-131401995D01*
X101041708Y-131436554D01*
X101016847Y-131466847D01*
X100986554Y-131491708D01*
X100951995Y-131510180D01*
X100914499Y-131521555D01*
X100869362Y-131526000D01*
X100130638Y-131526000D01*
X100085501Y-131521555D01*
X100048005Y-131510180D01*
X100013446Y-131491708D01*
X99983153Y-131466847D01*
X99958292Y-131436554D01*
X99939820Y-131401995D01*
X99928445Y-131364499D01*
X99924000Y-131319362D01*
X99924000Y-130680638D01*
X99928445Y-130635501D01*
X99939820Y-130598005D01*
X99958292Y-130563446D01*
X99983153Y-130533153D01*
X100013446Y-130508292D01*
X100048005Y-130489820D01*
X100085501Y-130478445D01*
X100130638Y-130474000D01*
X100869362Y-130474000D01*
X100914499Y-130478445D01*
X100914499Y-130478445D01*
G37*
G36*
X99164499Y-130478445D02*
G01*
X99201995Y-130489820D01*
X99236554Y-130508292D01*
X99266847Y-130533153D01*
X99291708Y-130563446D01*
X99310180Y-130598005D01*
X99321555Y-130635501D01*
X99326000Y-130680638D01*
X99326000Y-131319362D01*
X99321555Y-131364499D01*
X99310180Y-131401995D01*
X99291708Y-131436554D01*
X99266847Y-131466847D01*
X99236554Y-131491708D01*
X99201995Y-131510180D01*
X99164499Y-131521555D01*
X99119362Y-131526000D01*
X98380638Y-131526000D01*
X98335501Y-131521555D01*
X98298005Y-131510180D01*
X98263446Y-131491708D01*
X98233153Y-131466847D01*
X98208292Y-131436554D01*
X98189820Y-131401995D01*
X98178445Y-131364499D01*
X98174000Y-131319362D01*
X98174000Y-130680638D01*
X98178445Y-130635501D01*
X98189820Y-130598005D01*
X98208292Y-130563446D01*
X98233153Y-130533153D01*
X98263446Y-130508292D01*
X98298005Y-130489820D01*
X98335501Y-130478445D01*
X98380638Y-130474000D01*
X99119362Y-130474000D01*
X99164499Y-130478445D01*
X99164499Y-130478445D01*
G37*
G36*
X119477142Y-128088242D02*
G01*
X119625101Y-128149529D01*
X119758255Y-128238499D01*
X119871501Y-128351745D01*
X119960471Y-128484899D01*
X120021758Y-128632858D01*
X120053000Y-128789925D01*
X120053000Y-128950075D01*
X120021758Y-129107142D01*
X119960471Y-129255101D01*
X119871501Y-129388255D01*
X119758255Y-129501501D01*
X119625101Y-129590471D01*
X119477142Y-129651758D01*
X119320075Y-129683000D01*
X119159925Y-129683000D01*
X119002858Y-129651758D01*
X118854899Y-129590471D01*
X118721745Y-129501501D01*
X118608499Y-129388255D01*
X118519529Y-129255101D01*
X118458242Y-129107142D01*
X118427000Y-128950075D01*
X118427000Y-128789925D01*
X118458242Y-128632858D01*
X118519529Y-128484899D01*
X118608499Y-128351745D01*
X118721745Y-128238499D01*
X118854899Y-128149529D01*
X119002858Y-128088242D01*
X119159925Y-128057000D01*
X119320075Y-128057000D01*
X119477142Y-128088242D01*
X119477142Y-128088242D01*
G37*
G36*
X66184499Y-126736445D02*
G01*
X66221995Y-126747820D01*
X66256554Y-126766292D01*
X66286847Y-126791153D01*
X66311708Y-126821446D01*
X66330180Y-126856005D01*
X66341555Y-126893501D01*
X66346000Y-126938638D01*
X66346000Y-127677362D01*
X66341555Y-127722499D01*
X66330180Y-127759995D01*
X66311708Y-127794554D01*
X66286847Y-127824847D01*
X66256554Y-127849708D01*
X66221995Y-127868180D01*
X66184499Y-127879555D01*
X66139362Y-127884000D01*
X65500638Y-127884000D01*
X65455501Y-127879555D01*
X65418005Y-127868180D01*
X65383446Y-127849708D01*
X65353153Y-127824847D01*
X65328292Y-127794554D01*
X65309820Y-127759995D01*
X65298445Y-127722499D01*
X65294000Y-127677362D01*
X65294000Y-126938638D01*
X65298445Y-126893501D01*
X65309820Y-126856005D01*
X65328292Y-126821446D01*
X65353153Y-126791153D01*
X65383446Y-126766292D01*
X65418005Y-126747820D01*
X65455501Y-126736445D01*
X65500638Y-126732000D01*
X66139362Y-126732000D01*
X66184499Y-126736445D01*
X66184499Y-126736445D01*
G37*
G36*
X68184499Y-126736445D02*
G01*
X68221995Y-126747820D01*
X68256554Y-126766292D01*
X68286847Y-126791153D01*
X68311708Y-126821446D01*
X68330180Y-126856005D01*
X68341555Y-126893501D01*
X68346000Y-126938638D01*
X68346000Y-127677362D01*
X68341555Y-127722499D01*
X68330180Y-127759995D01*
X68311708Y-127794554D01*
X68286847Y-127824847D01*
X68256554Y-127849708D01*
X68221995Y-127868180D01*
X68184499Y-127879555D01*
X68139362Y-127884000D01*
X67500638Y-127884000D01*
X67455501Y-127879555D01*
X67418005Y-127868180D01*
X67383446Y-127849708D01*
X67353153Y-127824847D01*
X67328292Y-127794554D01*
X67309820Y-127759995D01*
X67298445Y-127722499D01*
X67294000Y-127677362D01*
X67294000Y-126938638D01*
X67298445Y-126893501D01*
X67309820Y-126856005D01*
X67328292Y-126821446D01*
X67353153Y-126791153D01*
X67383446Y-126766292D01*
X67418005Y-126747820D01*
X67455501Y-126736445D01*
X67500638Y-126732000D01*
X68139362Y-126732000D01*
X68184499Y-126736445D01*
X68184499Y-126736445D01*
G37*
G36*
X119477142Y-125548242D02*
G01*
X119625101Y-125609529D01*
X119758255Y-125698499D01*
X119871501Y-125811745D01*
X119960471Y-125944899D01*
X120021758Y-126092858D01*
X120053000Y-126249925D01*
X120053000Y-126410075D01*
X120021758Y-126567142D01*
X119960471Y-126715101D01*
X119871501Y-126848255D01*
X119758255Y-126961501D01*
X119625101Y-127050471D01*
X119477142Y-127111758D01*
X119320075Y-127143000D01*
X119159925Y-127143000D01*
X119002858Y-127111758D01*
X118854899Y-127050471D01*
X118721745Y-126961501D01*
X118608499Y-126848255D01*
X118519529Y-126715101D01*
X118458242Y-126567142D01*
X118427000Y-126410075D01*
X118427000Y-126249925D01*
X118458242Y-126092858D01*
X118519529Y-125944899D01*
X118608499Y-125811745D01*
X118721745Y-125698499D01*
X118854899Y-125609529D01*
X119002858Y-125548242D01*
X119159925Y-125517000D01*
X119320075Y-125517000D01*
X119477142Y-125548242D01*
X119477142Y-125548242D01*
G37*
G36*
X75711000Y-126884000D02*
G01*
X74509000Y-126884000D01*
X74509000Y-122182000D01*
X75711000Y-122182000D01*
X75711000Y-126884000D01*
X75711000Y-126884000D01*
G37*
G36*
X70631000Y-126884000D02*
G01*
X69429000Y-126884000D01*
X69429000Y-122182000D01*
X70631000Y-122182000D01*
X70631000Y-126884000D01*
X70631000Y-126884000D01*
G37*
G36*
X73171000Y-126884000D02*
G01*
X71969000Y-126884000D01*
X71969000Y-122182000D01*
X73171000Y-122182000D01*
X73171000Y-126884000D01*
X73171000Y-126884000D01*
G37*
G36*
X66184499Y-124986445D02*
G01*
X66221995Y-124997820D01*
X66256554Y-125016292D01*
X66286847Y-125041153D01*
X66311708Y-125071446D01*
X66330180Y-125106005D01*
X66341555Y-125143501D01*
X66346000Y-125188638D01*
X66346000Y-125927362D01*
X66341555Y-125972499D01*
X66330180Y-126009995D01*
X66311708Y-126044554D01*
X66286847Y-126074847D01*
X66256554Y-126099708D01*
X66221995Y-126118180D01*
X66184499Y-126129555D01*
X66139362Y-126134000D01*
X65500638Y-126134000D01*
X65455501Y-126129555D01*
X65418005Y-126118180D01*
X65383446Y-126099708D01*
X65353153Y-126074847D01*
X65328292Y-126044554D01*
X65309820Y-126009995D01*
X65298445Y-125972499D01*
X65294000Y-125927362D01*
X65294000Y-125188638D01*
X65298445Y-125143501D01*
X65309820Y-125106005D01*
X65328292Y-125071446D01*
X65353153Y-125041153D01*
X65383446Y-125016292D01*
X65418005Y-124997820D01*
X65455501Y-124986445D01*
X65500638Y-124982000D01*
X66139362Y-124982000D01*
X66184499Y-124986445D01*
X66184499Y-124986445D01*
G37*
G36*
X68184499Y-124986445D02*
G01*
X68221995Y-124997820D01*
X68256554Y-125016292D01*
X68286847Y-125041153D01*
X68311708Y-125071446D01*
X68330180Y-125106005D01*
X68341555Y-125143501D01*
X68346000Y-125188638D01*
X68346000Y-125927362D01*
X68341555Y-125972499D01*
X68330180Y-126009995D01*
X68311708Y-126044554D01*
X68286847Y-126074847D01*
X68256554Y-126099708D01*
X68221995Y-126118180D01*
X68184499Y-126129555D01*
X68139362Y-126134000D01*
X67500638Y-126134000D01*
X67455501Y-126129555D01*
X67418005Y-126118180D01*
X67383446Y-126099708D01*
X67353153Y-126074847D01*
X67328292Y-126044554D01*
X67309820Y-126009995D01*
X67298445Y-125972499D01*
X67294000Y-125927362D01*
X67294000Y-125188638D01*
X67298445Y-125143501D01*
X67309820Y-125106005D01*
X67328292Y-125071446D01*
X67353153Y-125041153D01*
X67383446Y-125016292D01*
X67418005Y-124997820D01*
X67455501Y-124986445D01*
X67500638Y-124982000D01*
X68139362Y-124982000D01*
X68184499Y-124986445D01*
X68184499Y-124986445D01*
G37*
G36*
X119477142Y-123008242D02*
G01*
X119625101Y-123069529D01*
X119758255Y-123158499D01*
X119871501Y-123271745D01*
X119960471Y-123404899D01*
X120021758Y-123552858D01*
X120053000Y-123709925D01*
X120053000Y-123870075D01*
X120021758Y-124027142D01*
X119960471Y-124175101D01*
X119871501Y-124308255D01*
X119758255Y-124421501D01*
X119625101Y-124510471D01*
X119477142Y-124571758D01*
X119320075Y-124603000D01*
X119159925Y-124603000D01*
X119002858Y-124571758D01*
X118854899Y-124510471D01*
X118721745Y-124421501D01*
X118608499Y-124308255D01*
X118519529Y-124175101D01*
X118458242Y-124027142D01*
X118427000Y-123870075D01*
X118427000Y-123709925D01*
X118458242Y-123552858D01*
X118519529Y-123404899D01*
X118608499Y-123271745D01*
X118721745Y-123158499D01*
X118854899Y-123069529D01*
X119002858Y-123008242D01*
X119159925Y-122977000D01*
X119320075Y-122977000D01*
X119477142Y-123008242D01*
X119477142Y-123008242D01*
G37*
G36*
X94077142Y-123008242D02*
G01*
X94225101Y-123069529D01*
X94358255Y-123158499D01*
X94471501Y-123271745D01*
X94560471Y-123404899D01*
X94621758Y-123552858D01*
X94653000Y-123709925D01*
X94653000Y-123870075D01*
X94621758Y-124027142D01*
X94560471Y-124175101D01*
X94471501Y-124308255D01*
X94358255Y-124421501D01*
X94225101Y-124510471D01*
X94077142Y-124571758D01*
X93920075Y-124603000D01*
X93759925Y-124603000D01*
X93602858Y-124571758D01*
X93454899Y-124510471D01*
X93321745Y-124421501D01*
X93208499Y-124308255D01*
X93119529Y-124175101D01*
X93058242Y-124027142D01*
X93027000Y-123870075D01*
X93027000Y-123709925D01*
X93058242Y-123552858D01*
X93119529Y-123404899D01*
X93208499Y-123271745D01*
X93321745Y-123158499D01*
X93454899Y-123069529D01*
X93602858Y-123008242D01*
X93759925Y-122977000D01*
X93920075Y-122977000D01*
X94077142Y-123008242D01*
X94077142Y-123008242D01*
G37*
G36*
X96617142Y-123008242D02*
G01*
X96765101Y-123069529D01*
X96898255Y-123158499D01*
X97011501Y-123271745D01*
X97100471Y-123404899D01*
X97161758Y-123552858D01*
X97193000Y-123709925D01*
X97193000Y-123870075D01*
X97161758Y-124027142D01*
X97100471Y-124175101D01*
X97011501Y-124308255D01*
X96898255Y-124421501D01*
X96765101Y-124510471D01*
X96617142Y-124571758D01*
X96460075Y-124603000D01*
X96299925Y-124603000D01*
X96142858Y-124571758D01*
X95994899Y-124510471D01*
X95861745Y-124421501D01*
X95748499Y-124308255D01*
X95659529Y-124175101D01*
X95598242Y-124027142D01*
X95567000Y-123870075D01*
X95567000Y-123709925D01*
X95598242Y-123552858D01*
X95659529Y-123404899D01*
X95748499Y-123271745D01*
X95861745Y-123158499D01*
X95994899Y-123069529D01*
X96142858Y-123008242D01*
X96299925Y-122977000D01*
X96460075Y-122977000D01*
X96617142Y-123008242D01*
X96617142Y-123008242D01*
G37*
G36*
X99157142Y-123008242D02*
G01*
X99305101Y-123069529D01*
X99438255Y-123158499D01*
X99551501Y-123271745D01*
X99640471Y-123404899D01*
X99701758Y-123552858D01*
X99733000Y-123709925D01*
X99733000Y-123870075D01*
X99701758Y-124027142D01*
X99640471Y-124175101D01*
X99551501Y-124308255D01*
X99438255Y-124421501D01*
X99305101Y-124510471D01*
X99157142Y-124571758D01*
X99000075Y-124603000D01*
X98839925Y-124603000D01*
X98682858Y-124571758D01*
X98534899Y-124510471D01*
X98401745Y-124421501D01*
X98288499Y-124308255D01*
X98199529Y-124175101D01*
X98138242Y-124027142D01*
X98107000Y-123870075D01*
X98107000Y-123709925D01*
X98138242Y-123552858D01*
X98199529Y-123404899D01*
X98288499Y-123271745D01*
X98401745Y-123158499D01*
X98534899Y-123069529D01*
X98682858Y-123008242D01*
X98839925Y-122977000D01*
X99000075Y-122977000D01*
X99157142Y-123008242D01*
X99157142Y-123008242D01*
G37*
G36*
X88997142Y-123008242D02*
G01*
X89145101Y-123069529D01*
X89278255Y-123158499D01*
X89391501Y-123271745D01*
X89480471Y-123404899D01*
X89541758Y-123552858D01*
X89573000Y-123709925D01*
X89573000Y-123870075D01*
X89541758Y-124027142D01*
X89480471Y-124175101D01*
X89391501Y-124308255D01*
X89278255Y-124421501D01*
X89145101Y-124510471D01*
X88997142Y-124571758D01*
X88840075Y-124603000D01*
X88679925Y-124603000D01*
X88522858Y-124571758D01*
X88374899Y-124510471D01*
X88241745Y-124421501D01*
X88128499Y-124308255D01*
X88039529Y-124175101D01*
X87978242Y-124027142D01*
X87947000Y-123870075D01*
X87947000Y-123709925D01*
X87978242Y-123552858D01*
X88039529Y-123404899D01*
X88128499Y-123271745D01*
X88241745Y-123158499D01*
X88374899Y-123069529D01*
X88522858Y-123008242D01*
X88679925Y-122977000D01*
X88840075Y-122977000D01*
X88997142Y-123008242D01*
X88997142Y-123008242D01*
G37*
G36*
X99157142Y-120468242D02*
G01*
X99305101Y-120529529D01*
X99438255Y-120618499D01*
X99551501Y-120731745D01*
X99640471Y-120864899D01*
X99701758Y-121012858D01*
X99733000Y-121169925D01*
X99733000Y-121330075D01*
X99701758Y-121487142D01*
X99640471Y-121635101D01*
X99551501Y-121768255D01*
X99438255Y-121881501D01*
X99305101Y-121970471D01*
X99157142Y-122031758D01*
X99000075Y-122063000D01*
X98839925Y-122063000D01*
X98682858Y-122031758D01*
X98534899Y-121970471D01*
X98401745Y-121881501D01*
X98288499Y-121768255D01*
X98199529Y-121635101D01*
X98138242Y-121487142D01*
X98107000Y-121330075D01*
X98107000Y-121169925D01*
X98138242Y-121012858D01*
X98199529Y-120864899D01*
X98288499Y-120731745D01*
X98401745Y-120618499D01*
X98534899Y-120529529D01*
X98682858Y-120468242D01*
X98839925Y-120437000D01*
X99000075Y-120437000D01*
X99157142Y-120468242D01*
X99157142Y-120468242D01*
G37*
G36*
X114397142Y-120468242D02*
G01*
X114545101Y-120529529D01*
X114678255Y-120618499D01*
X114791501Y-120731745D01*
X114880471Y-120864899D01*
X114941758Y-121012858D01*
X114973000Y-121169925D01*
X114973000Y-121330075D01*
X114941758Y-121487142D01*
X114880471Y-121635101D01*
X114791501Y-121768255D01*
X114678255Y-121881501D01*
X114545101Y-121970471D01*
X114397142Y-122031758D01*
X114240075Y-122063000D01*
X114079925Y-122063000D01*
X113922858Y-122031758D01*
X113774899Y-121970471D01*
X113641745Y-121881501D01*
X113528499Y-121768255D01*
X113439529Y-121635101D01*
X113378242Y-121487142D01*
X113347000Y-121330075D01*
X113347000Y-121169925D01*
X113378242Y-121012858D01*
X113439529Y-120864899D01*
X113528499Y-120731745D01*
X113641745Y-120618499D01*
X113774899Y-120529529D01*
X113922858Y-120468242D01*
X114079925Y-120437000D01*
X114240075Y-120437000D01*
X114397142Y-120468242D01*
X114397142Y-120468242D01*
G37*
G36*
X111857142Y-120468242D02*
G01*
X112005101Y-120529529D01*
X112138255Y-120618499D01*
X112251501Y-120731745D01*
X112340471Y-120864899D01*
X112401758Y-121012858D01*
X112433000Y-121169925D01*
X112433000Y-121330075D01*
X112401758Y-121487142D01*
X112340471Y-121635101D01*
X112251501Y-121768255D01*
X112138255Y-121881501D01*
X112005101Y-121970471D01*
X111857142Y-122031758D01*
X111700075Y-122063000D01*
X111539925Y-122063000D01*
X111382858Y-122031758D01*
X111234899Y-121970471D01*
X111101745Y-121881501D01*
X110988499Y-121768255D01*
X110899529Y-121635101D01*
X110838242Y-121487142D01*
X110807000Y-121330075D01*
X110807000Y-121169925D01*
X110838242Y-121012858D01*
X110899529Y-120864899D01*
X110988499Y-120731745D01*
X111101745Y-120618499D01*
X111234899Y-120529529D01*
X111382858Y-120468242D01*
X111539925Y-120437000D01*
X111700075Y-120437000D01*
X111857142Y-120468242D01*
X111857142Y-120468242D01*
G37*
G36*
X109317142Y-120468242D02*
G01*
X109465101Y-120529529D01*
X109598255Y-120618499D01*
X109711501Y-120731745D01*
X109800471Y-120864899D01*
X109861758Y-121012858D01*
X109893000Y-121169925D01*
X109893000Y-121330075D01*
X109861758Y-121487142D01*
X109800471Y-121635101D01*
X109711501Y-121768255D01*
X109598255Y-121881501D01*
X109465101Y-121970471D01*
X109317142Y-122031758D01*
X109160075Y-122063000D01*
X108999925Y-122063000D01*
X108842858Y-122031758D01*
X108694899Y-121970471D01*
X108561745Y-121881501D01*
X108448499Y-121768255D01*
X108359529Y-121635101D01*
X108298242Y-121487142D01*
X108267000Y-121330075D01*
X108267000Y-121169925D01*
X108298242Y-121012858D01*
X108359529Y-120864899D01*
X108448499Y-120731745D01*
X108561745Y-120618499D01*
X108694899Y-120529529D01*
X108842858Y-120468242D01*
X108999925Y-120437000D01*
X109160075Y-120437000D01*
X109317142Y-120468242D01*
X109317142Y-120468242D01*
G37*
G36*
X106777142Y-120468242D02*
G01*
X106925101Y-120529529D01*
X107058255Y-120618499D01*
X107171501Y-120731745D01*
X107260471Y-120864899D01*
X107321758Y-121012858D01*
X107353000Y-121169925D01*
X107353000Y-121330075D01*
X107321758Y-121487142D01*
X107260471Y-121635101D01*
X107171501Y-121768255D01*
X107058255Y-121881501D01*
X106925101Y-121970471D01*
X106777142Y-122031758D01*
X106620075Y-122063000D01*
X106459925Y-122063000D01*
X106302858Y-122031758D01*
X106154899Y-121970471D01*
X106021745Y-121881501D01*
X105908499Y-121768255D01*
X105819529Y-121635101D01*
X105758242Y-121487142D01*
X105727000Y-121330075D01*
X105727000Y-121169925D01*
X105758242Y-121012858D01*
X105819529Y-120864899D01*
X105908499Y-120731745D01*
X106021745Y-120618499D01*
X106154899Y-120529529D01*
X106302858Y-120468242D01*
X106459925Y-120437000D01*
X106620075Y-120437000D01*
X106777142Y-120468242D01*
X106777142Y-120468242D01*
G37*
G36*
X104237142Y-120468242D02*
G01*
X104385101Y-120529529D01*
X104518255Y-120618499D01*
X104631501Y-120731745D01*
X104720471Y-120864899D01*
X104781758Y-121012858D01*
X104813000Y-121169925D01*
X104813000Y-121330075D01*
X104781758Y-121487142D01*
X104720471Y-121635101D01*
X104631501Y-121768255D01*
X104518255Y-121881501D01*
X104385101Y-121970471D01*
X104237142Y-122031758D01*
X104080075Y-122063000D01*
X103919925Y-122063000D01*
X103762858Y-122031758D01*
X103614899Y-121970471D01*
X103481745Y-121881501D01*
X103368499Y-121768255D01*
X103279529Y-121635101D01*
X103218242Y-121487142D01*
X103187000Y-121330075D01*
X103187000Y-121169925D01*
X103218242Y-121012858D01*
X103279529Y-120864899D01*
X103368499Y-120731745D01*
X103481745Y-120618499D01*
X103614899Y-120529529D01*
X103762858Y-120468242D01*
X103919925Y-120437000D01*
X104080075Y-120437000D01*
X104237142Y-120468242D01*
X104237142Y-120468242D01*
G37*
G36*
X101697142Y-120468242D02*
G01*
X101845101Y-120529529D01*
X101978255Y-120618499D01*
X102091501Y-120731745D01*
X102180471Y-120864899D01*
X102241758Y-121012858D01*
X102273000Y-121169925D01*
X102273000Y-121330075D01*
X102241758Y-121487142D01*
X102180471Y-121635101D01*
X102091501Y-121768255D01*
X101978255Y-121881501D01*
X101845101Y-121970471D01*
X101697142Y-122031758D01*
X101540075Y-122063000D01*
X101379925Y-122063000D01*
X101222858Y-122031758D01*
X101074899Y-121970471D01*
X100941745Y-121881501D01*
X100828499Y-121768255D01*
X100739529Y-121635101D01*
X100678242Y-121487142D01*
X100647000Y-121330075D01*
X100647000Y-121169925D01*
X100678242Y-121012858D01*
X100739529Y-120864899D01*
X100828499Y-120731745D01*
X100941745Y-120618499D01*
X101074899Y-120529529D01*
X101222858Y-120468242D01*
X101379925Y-120437000D01*
X101540075Y-120437000D01*
X101697142Y-120468242D01*
X101697142Y-120468242D01*
G37*
G36*
X119477142Y-120468242D02*
G01*
X119625101Y-120529529D01*
X119758255Y-120618499D01*
X119871501Y-120731745D01*
X119960471Y-120864899D01*
X120021758Y-121012858D01*
X120053000Y-121169925D01*
X120053000Y-121330075D01*
X120021758Y-121487142D01*
X119960471Y-121635101D01*
X119871501Y-121768255D01*
X119758255Y-121881501D01*
X119625101Y-121970471D01*
X119477142Y-122031758D01*
X119320075Y-122063000D01*
X119159925Y-122063000D01*
X119002858Y-122031758D01*
X118854899Y-121970471D01*
X118721745Y-121881501D01*
X118608499Y-121768255D01*
X118519529Y-121635101D01*
X118458242Y-121487142D01*
X118427000Y-121330075D01*
X118427000Y-121169925D01*
X118458242Y-121012858D01*
X118519529Y-120864899D01*
X118608499Y-120731745D01*
X118721745Y-120618499D01*
X118854899Y-120529529D01*
X119002858Y-120468242D01*
X119159925Y-120437000D01*
X119320075Y-120437000D01*
X119477142Y-120468242D01*
X119477142Y-120468242D01*
G37*
G36*
X116937142Y-120468242D02*
G01*
X117085101Y-120529529D01*
X117218255Y-120618499D01*
X117331501Y-120731745D01*
X117420471Y-120864899D01*
X117481758Y-121012858D01*
X117513000Y-121169925D01*
X117513000Y-121330075D01*
X117481758Y-121487142D01*
X117420471Y-121635101D01*
X117331501Y-121768255D01*
X117218255Y-121881501D01*
X117085101Y-121970471D01*
X116937142Y-122031758D01*
X116780075Y-122063000D01*
X116619925Y-122063000D01*
X116462858Y-122031758D01*
X116314899Y-121970471D01*
X116181745Y-121881501D01*
X116068499Y-121768255D01*
X115979529Y-121635101D01*
X115918242Y-121487142D01*
X115887000Y-121330075D01*
X115887000Y-121169925D01*
X115918242Y-121012858D01*
X115979529Y-120864899D01*
X116068499Y-120731745D01*
X116181745Y-120618499D01*
X116314899Y-120529529D01*
X116462858Y-120468242D01*
X116619925Y-120437000D01*
X116780075Y-120437000D01*
X116937142Y-120468242D01*
X116937142Y-120468242D01*
G37*
G36*
X96617142Y-120468242D02*
G01*
X96765101Y-120529529D01*
X96898255Y-120618499D01*
X97011501Y-120731745D01*
X97100471Y-120864899D01*
X97161758Y-121012858D01*
X97193000Y-121169925D01*
X97193000Y-121330075D01*
X97161758Y-121487142D01*
X97100471Y-121635101D01*
X97011501Y-121768255D01*
X96898255Y-121881501D01*
X96765101Y-121970471D01*
X96617142Y-122031758D01*
X96460075Y-122063000D01*
X96299925Y-122063000D01*
X96142858Y-122031758D01*
X95994899Y-121970471D01*
X95861745Y-121881501D01*
X95748499Y-121768255D01*
X95659529Y-121635101D01*
X95598242Y-121487142D01*
X95567000Y-121330075D01*
X95567000Y-121169925D01*
X95598242Y-121012858D01*
X95659529Y-120864899D01*
X95748499Y-120731745D01*
X95861745Y-120618499D01*
X95994899Y-120529529D01*
X96142858Y-120468242D01*
X96299925Y-120437000D01*
X96460075Y-120437000D01*
X96617142Y-120468242D01*
X96617142Y-120468242D01*
G37*
G36*
X94077142Y-120468242D02*
G01*
X94225101Y-120529529D01*
X94358255Y-120618499D01*
X94471501Y-120731745D01*
X94560471Y-120864899D01*
X94621758Y-121012858D01*
X94653000Y-121169925D01*
X94653000Y-121330075D01*
X94621758Y-121487142D01*
X94560471Y-121635101D01*
X94471501Y-121768255D01*
X94358255Y-121881501D01*
X94225101Y-121970471D01*
X94077142Y-122031758D01*
X93920075Y-122063000D01*
X93759925Y-122063000D01*
X93602858Y-122031758D01*
X93454899Y-121970471D01*
X93321745Y-121881501D01*
X93208499Y-121768255D01*
X93119529Y-121635101D01*
X93058242Y-121487142D01*
X93027000Y-121330075D01*
X93027000Y-121169925D01*
X93058242Y-121012858D01*
X93119529Y-120864899D01*
X93208499Y-120731745D01*
X93321745Y-120618499D01*
X93454899Y-120529529D01*
X93602858Y-120468242D01*
X93759925Y-120437000D01*
X93920075Y-120437000D01*
X94077142Y-120468242D01*
X94077142Y-120468242D01*
G37*
G36*
X91537142Y-120468242D02*
G01*
X91685101Y-120529529D01*
X91818255Y-120618499D01*
X91931501Y-120731745D01*
X92020471Y-120864899D01*
X92081758Y-121012858D01*
X92113000Y-121169925D01*
X92113000Y-121330075D01*
X92081758Y-121487142D01*
X92020471Y-121635101D01*
X91931501Y-121768255D01*
X91818255Y-121881501D01*
X91685101Y-121970471D01*
X91537142Y-122031758D01*
X91380075Y-122063000D01*
X91219925Y-122063000D01*
X91062858Y-122031758D01*
X90914899Y-121970471D01*
X90781745Y-121881501D01*
X90668499Y-121768255D01*
X90579529Y-121635101D01*
X90518242Y-121487142D01*
X90487000Y-121330075D01*
X90487000Y-121169925D01*
X90518242Y-121012858D01*
X90579529Y-120864899D01*
X90668499Y-120731745D01*
X90781745Y-120618499D01*
X90914899Y-120529529D01*
X91062858Y-120468242D01*
X91219925Y-120437000D01*
X91380075Y-120437000D01*
X91537142Y-120468242D01*
X91537142Y-120468242D01*
G37*
G36*
X88997142Y-120468242D02*
G01*
X89145101Y-120529529D01*
X89278255Y-120618499D01*
X89391501Y-120731745D01*
X89480471Y-120864899D01*
X89541758Y-121012858D01*
X89573000Y-121169925D01*
X89573000Y-121330075D01*
X89541758Y-121487142D01*
X89480471Y-121635101D01*
X89391501Y-121768255D01*
X89278255Y-121881501D01*
X89145101Y-121970471D01*
X88997142Y-122031758D01*
X88840075Y-122063000D01*
X88679925Y-122063000D01*
X88522858Y-122031758D01*
X88374899Y-121970471D01*
X88241745Y-121881501D01*
X88128499Y-121768255D01*
X88039529Y-121635101D01*
X87978242Y-121487142D01*
X87947000Y-121330075D01*
X87947000Y-121169925D01*
X87978242Y-121012858D01*
X88039529Y-120864899D01*
X88128499Y-120731745D01*
X88241745Y-120618499D01*
X88374899Y-120529529D01*
X88522858Y-120468242D01*
X88679925Y-120437000D01*
X88840075Y-120437000D01*
X88997142Y-120468242D01*
X88997142Y-120468242D01*
G37*
G36*
X86457142Y-120468242D02*
G01*
X86605101Y-120529529D01*
X86738255Y-120618499D01*
X86851501Y-120731745D01*
X86940471Y-120864899D01*
X87001758Y-121012858D01*
X87033000Y-121169925D01*
X87033000Y-121330075D01*
X87001758Y-121487142D01*
X86940471Y-121635101D01*
X86851501Y-121768255D01*
X86738255Y-121881501D01*
X86605101Y-121970471D01*
X86457142Y-122031758D01*
X86300075Y-122063000D01*
X86139925Y-122063000D01*
X85982858Y-122031758D01*
X85834899Y-121970471D01*
X85701745Y-121881501D01*
X85588499Y-121768255D01*
X85499529Y-121635101D01*
X85438242Y-121487142D01*
X85407000Y-121330075D01*
X85407000Y-121169925D01*
X85438242Y-121012858D01*
X85499529Y-120864899D01*
X85588499Y-120731745D01*
X85701745Y-120618499D01*
X85834899Y-120529529D01*
X85982858Y-120468242D01*
X86139925Y-120437000D01*
X86300075Y-120437000D01*
X86457142Y-120468242D01*
X86457142Y-120468242D01*
G37*
G36*
X77755298Y-120086247D02*
G01*
X77790867Y-120097037D01*
X77823639Y-120114554D01*
X77852369Y-120138131D01*
X77875946Y-120166861D01*
X77893463Y-120199633D01*
X77904253Y-120235202D01*
X77908500Y-120278325D01*
X77908500Y-121337675D01*
X77904253Y-121380798D01*
X77893463Y-121416367D01*
X77875946Y-121449139D01*
X77852369Y-121477869D01*
X77823639Y-121501446D01*
X77790867Y-121518963D01*
X77755298Y-121529753D01*
X77712175Y-121534000D01*
X76427825Y-121534000D01*
X76384702Y-121529753D01*
X76349133Y-121518963D01*
X76316361Y-121501446D01*
X76287631Y-121477869D01*
X76264054Y-121449139D01*
X76246537Y-121416367D01*
X76235747Y-121380798D01*
X76231500Y-121337675D01*
X76231500Y-120278325D01*
X76235747Y-120235202D01*
X76246537Y-120199633D01*
X76264054Y-120166861D01*
X76287631Y-120138131D01*
X76316361Y-120114554D01*
X76349133Y-120097037D01*
X76384702Y-120086247D01*
X76427825Y-120082000D01*
X77712175Y-120082000D01*
X77755298Y-120086247D01*
X77755298Y-120086247D01*
G37*
G36*
X74880298Y-120086247D02*
G01*
X74915867Y-120097037D01*
X74948639Y-120114554D01*
X74977369Y-120138131D01*
X75000946Y-120166861D01*
X75018463Y-120199633D01*
X75029253Y-120235202D01*
X75033500Y-120278325D01*
X75033500Y-121337675D01*
X75029253Y-121380798D01*
X75018463Y-121416367D01*
X75000946Y-121449139D01*
X74977369Y-121477869D01*
X74948639Y-121501446D01*
X74915867Y-121518963D01*
X74880298Y-121529753D01*
X74837175Y-121534000D01*
X73552825Y-121534000D01*
X73509702Y-121529753D01*
X73474133Y-121518963D01*
X73441361Y-121501446D01*
X73412631Y-121477869D01*
X73389054Y-121449139D01*
X73371537Y-121416367D01*
X73360747Y-121380798D01*
X73356500Y-121337675D01*
X73356500Y-120278325D01*
X73360747Y-120235202D01*
X73371537Y-120199633D01*
X73389054Y-120166861D01*
X73412631Y-120138131D01*
X73441361Y-120114554D01*
X73474133Y-120097037D01*
X73509702Y-120086247D01*
X73552825Y-120082000D01*
X74837175Y-120082000D01*
X74880298Y-120086247D01*
X74880298Y-120086247D01*
G37*
G36*
X36920254Y-116391818D02*
G01*
X37293511Y-116546426D01*
X37293513Y-116546427D01*
X37629436Y-116770884D01*
X37915116Y-117056564D01*
X38139574Y-117392489D01*
X38294182Y-117765746D01*
X38373000Y-118161993D01*
X38373000Y-118566007D01*
X38294182Y-118962254D01*
X38218172Y-119145758D01*
X38139573Y-119335513D01*
X37915116Y-119671436D01*
X37629436Y-119957116D01*
X37293513Y-120181573D01*
X37293512Y-120181574D01*
X37293511Y-120181574D01*
X36920254Y-120336182D01*
X36524007Y-120415000D01*
X36119993Y-120415000D01*
X35723746Y-120336182D01*
X35350489Y-120181574D01*
X35350488Y-120181574D01*
X35350487Y-120181573D01*
X35014564Y-119957116D01*
X34728884Y-119671436D01*
X34504427Y-119335513D01*
X34425828Y-119145758D01*
X34349818Y-118962254D01*
X34271000Y-118566007D01*
X34271000Y-118161993D01*
X34349818Y-117765746D01*
X34504426Y-117392489D01*
X34728884Y-117056564D01*
X35014564Y-116770884D01*
X35350487Y-116546427D01*
X35350489Y-116546426D01*
X35723746Y-116391818D01*
X36119993Y-116313000D01*
X36524007Y-116313000D01*
X36920254Y-116391818D01*
X36920254Y-116391818D01*
G37*
G36*
X62320254Y-116391818D02*
G01*
X62693511Y-116546426D01*
X62693513Y-116546427D01*
X63029436Y-116770884D01*
X63315116Y-117056564D01*
X63539574Y-117392489D01*
X63694182Y-117765746D01*
X63773000Y-118161993D01*
X63773000Y-118566007D01*
X63694182Y-118962254D01*
X63618172Y-119145758D01*
X63539573Y-119335513D01*
X63315116Y-119671436D01*
X63029436Y-119957116D01*
X62693513Y-120181573D01*
X62693512Y-120181574D01*
X62693511Y-120181574D01*
X62320254Y-120336182D01*
X61924007Y-120415000D01*
X61519993Y-120415000D01*
X61123746Y-120336182D01*
X60750489Y-120181574D01*
X60750488Y-120181574D01*
X60750487Y-120181573D01*
X60414564Y-119957116D01*
X60128884Y-119671436D01*
X59904427Y-119335513D01*
X59825828Y-119145758D01*
X59749818Y-118962254D01*
X59671000Y-118566007D01*
X59671000Y-118161993D01*
X59749818Y-117765746D01*
X59904426Y-117392489D01*
X60128884Y-117056564D01*
X60414564Y-116770884D01*
X60750487Y-116546427D01*
X60750489Y-116546426D01*
X61123746Y-116391818D01*
X61519993Y-116313000D01*
X61924007Y-116313000D01*
X62320254Y-116391818D01*
X62320254Y-116391818D01*
G37*
G36*
X54339142Y-117582242D02*
G01*
X54487101Y-117643529D01*
X54620255Y-117732499D01*
X54733501Y-117845745D01*
X54822471Y-117978899D01*
X54883758Y-118126858D01*
X54915000Y-118283925D01*
X54915000Y-118444075D01*
X54883758Y-118601142D01*
X54822471Y-118749101D01*
X54733501Y-118882255D01*
X54620255Y-118995501D01*
X54487101Y-119084471D01*
X54339142Y-119145758D01*
X54182075Y-119177000D01*
X54021925Y-119177000D01*
X53864858Y-119145758D01*
X53716899Y-119084471D01*
X53583745Y-118995501D01*
X53470499Y-118882255D01*
X53381529Y-118749101D01*
X53320242Y-118601142D01*
X53289000Y-118444075D01*
X53289000Y-118283925D01*
X53320242Y-118126858D01*
X53381529Y-117978899D01*
X53470499Y-117845745D01*
X53583745Y-117732499D01*
X53716899Y-117643529D01*
X53864858Y-117582242D01*
X54021925Y-117551000D01*
X54182075Y-117551000D01*
X54339142Y-117582242D01*
X54339142Y-117582242D01*
G37*
G36*
X51799142Y-117582242D02*
G01*
X51947101Y-117643529D01*
X52080255Y-117732499D01*
X52193501Y-117845745D01*
X52282471Y-117978899D01*
X52343758Y-118126858D01*
X52375000Y-118283925D01*
X52375000Y-118444075D01*
X52343758Y-118601142D01*
X52282471Y-118749101D01*
X52193501Y-118882255D01*
X52080255Y-118995501D01*
X51947101Y-119084471D01*
X51799142Y-119145758D01*
X51642075Y-119177000D01*
X51481925Y-119177000D01*
X51324858Y-119145758D01*
X51176899Y-119084471D01*
X51043745Y-118995501D01*
X50930499Y-118882255D01*
X50841529Y-118749101D01*
X50780242Y-118601142D01*
X50749000Y-118444075D01*
X50749000Y-118283925D01*
X50780242Y-118126858D01*
X50841529Y-117978899D01*
X50930499Y-117845745D01*
X51043745Y-117732499D01*
X51176899Y-117643529D01*
X51324858Y-117582242D01*
X51481925Y-117551000D01*
X51642075Y-117551000D01*
X51799142Y-117582242D01*
X51799142Y-117582242D01*
G37*
G36*
X49259142Y-117582242D02*
G01*
X49407101Y-117643529D01*
X49540255Y-117732499D01*
X49653501Y-117845745D01*
X49742471Y-117978899D01*
X49803758Y-118126858D01*
X49835000Y-118283925D01*
X49835000Y-118444075D01*
X49803758Y-118601142D01*
X49742471Y-118749101D01*
X49653501Y-118882255D01*
X49540255Y-118995501D01*
X49407101Y-119084471D01*
X49259142Y-119145758D01*
X49102075Y-119177000D01*
X48941925Y-119177000D01*
X48784858Y-119145758D01*
X48636899Y-119084471D01*
X48503745Y-118995501D01*
X48390499Y-118882255D01*
X48301529Y-118749101D01*
X48240242Y-118601142D01*
X48209000Y-118444075D01*
X48209000Y-118283925D01*
X48240242Y-118126858D01*
X48301529Y-117978899D01*
X48390499Y-117845745D01*
X48503745Y-117732499D01*
X48636899Y-117643529D01*
X48784858Y-117582242D01*
X48941925Y-117551000D01*
X49102075Y-117551000D01*
X49259142Y-117582242D01*
X49259142Y-117582242D01*
G37*
G36*
X46719142Y-117582242D02*
G01*
X46867101Y-117643529D01*
X47000255Y-117732499D01*
X47113501Y-117845745D01*
X47202471Y-117978899D01*
X47263758Y-118126858D01*
X47295000Y-118283925D01*
X47295000Y-118444075D01*
X47263758Y-118601142D01*
X47202471Y-118749101D01*
X47113501Y-118882255D01*
X47000255Y-118995501D01*
X46867101Y-119084471D01*
X46719142Y-119145758D01*
X46562075Y-119177000D01*
X46401925Y-119177000D01*
X46244858Y-119145758D01*
X46096899Y-119084471D01*
X45963745Y-118995501D01*
X45850499Y-118882255D01*
X45761529Y-118749101D01*
X45700242Y-118601142D01*
X45669000Y-118444075D01*
X45669000Y-118283925D01*
X45700242Y-118126858D01*
X45761529Y-117978899D01*
X45850499Y-117845745D01*
X45963745Y-117732499D01*
X46096899Y-117643529D01*
X46244858Y-117582242D01*
X46401925Y-117551000D01*
X46562075Y-117551000D01*
X46719142Y-117582242D01*
X46719142Y-117582242D01*
G37*
G36*
X44179142Y-117582242D02*
G01*
X44327101Y-117643529D01*
X44460255Y-117732499D01*
X44573501Y-117845745D01*
X44662471Y-117978899D01*
X44723758Y-118126858D01*
X44755000Y-118283925D01*
X44755000Y-118444075D01*
X44723758Y-118601142D01*
X44662471Y-118749101D01*
X44573501Y-118882255D01*
X44460255Y-118995501D01*
X44327101Y-119084471D01*
X44179142Y-119145758D01*
X44022075Y-119177000D01*
X43861925Y-119177000D01*
X43704858Y-119145758D01*
X43556899Y-119084471D01*
X43423745Y-118995501D01*
X43310499Y-118882255D01*
X43221529Y-118749101D01*
X43160242Y-118601142D01*
X43129000Y-118444075D01*
X43129000Y-118283925D01*
X43160242Y-118126858D01*
X43221529Y-117978899D01*
X43310499Y-117845745D01*
X43423745Y-117732499D01*
X43556899Y-117643529D01*
X43704858Y-117582242D01*
X43861925Y-117551000D01*
X44022075Y-117551000D01*
X44179142Y-117582242D01*
X44179142Y-117582242D01*
G37*
G36*
X41639142Y-117582242D02*
G01*
X41787101Y-117643529D01*
X41920255Y-117732499D01*
X42033501Y-117845745D01*
X42122471Y-117978899D01*
X42183758Y-118126858D01*
X42215000Y-118283925D01*
X42215000Y-118444075D01*
X42183758Y-118601142D01*
X42122471Y-118749101D01*
X42033501Y-118882255D01*
X41920255Y-118995501D01*
X41787101Y-119084471D01*
X41639142Y-119145758D01*
X41482075Y-119177000D01*
X41321925Y-119177000D01*
X41164858Y-119145758D01*
X41016899Y-119084471D01*
X40883745Y-118995501D01*
X40770499Y-118882255D01*
X40681529Y-118749101D01*
X40620242Y-118601142D01*
X40589000Y-118444075D01*
X40589000Y-118283925D01*
X40620242Y-118126858D01*
X40681529Y-117978899D01*
X40770499Y-117845745D01*
X40883745Y-117732499D01*
X41016899Y-117643529D01*
X41164858Y-117582242D01*
X41321925Y-117551000D01*
X41482075Y-117551000D01*
X41639142Y-117582242D01*
X41639142Y-117582242D01*
G37*
G36*
X56879142Y-117582242D02*
G01*
X57027101Y-117643529D01*
X57160255Y-117732499D01*
X57273501Y-117845745D01*
X57362471Y-117978899D01*
X57423758Y-118126858D01*
X57455000Y-118283925D01*
X57455000Y-118444075D01*
X57423758Y-118601142D01*
X57362471Y-118749101D01*
X57273501Y-118882255D01*
X57160255Y-118995501D01*
X57027101Y-119084471D01*
X56879142Y-119145758D01*
X56722075Y-119177000D01*
X56561925Y-119177000D01*
X56404858Y-119145758D01*
X56256899Y-119084471D01*
X56123745Y-118995501D01*
X56010499Y-118882255D01*
X55921529Y-118749101D01*
X55860242Y-118601142D01*
X55829000Y-118444075D01*
X55829000Y-118283925D01*
X55860242Y-118126858D01*
X55921529Y-117978899D01*
X56010499Y-117845745D01*
X56123745Y-117732499D01*
X56256899Y-117643529D01*
X56404858Y-117582242D01*
X56561925Y-117551000D01*
X56722075Y-117551000D01*
X56879142Y-117582242D01*
X56879142Y-117582242D01*
G37*
G36*
X71259000Y-115582000D02*
G01*
X69457000Y-115582000D01*
X69457000Y-113780000D01*
X71259000Y-113780000D01*
X71259000Y-115582000D01*
X71259000Y-115582000D01*
G37*
G36*
X88248443Y-113786519D02*
G01*
X88314627Y-113793037D01*
X88484466Y-113844557D01*
X88640991Y-113928222D01*
X88676729Y-113957552D01*
X88778186Y-114040814D01*
X88861448Y-114142271D01*
X88890778Y-114178009D01*
X88974443Y-114334534D01*
X89025963Y-114504373D01*
X89043359Y-114681000D01*
X89025963Y-114857627D01*
X88974443Y-115027466D01*
X88890778Y-115183991D01*
X88861448Y-115219729D01*
X88778186Y-115321186D01*
X88676729Y-115404448D01*
X88640991Y-115433778D01*
X88484466Y-115517443D01*
X88314627Y-115568963D01*
X88248443Y-115575481D01*
X88182260Y-115582000D01*
X88093740Y-115582000D01*
X88027557Y-115575481D01*
X87961373Y-115568963D01*
X87791534Y-115517443D01*
X87635009Y-115433778D01*
X87599271Y-115404448D01*
X87497814Y-115321186D01*
X87414552Y-115219729D01*
X87385222Y-115183991D01*
X87301557Y-115027466D01*
X87250037Y-114857627D01*
X87232641Y-114681000D01*
X87250037Y-114504373D01*
X87301557Y-114334534D01*
X87385222Y-114178009D01*
X87414552Y-114142271D01*
X87497814Y-114040814D01*
X87599271Y-113957552D01*
X87635009Y-113928222D01*
X87791534Y-113844557D01*
X87961373Y-113793037D01*
X88027557Y-113786519D01*
X88093740Y-113780000D01*
X88182260Y-113780000D01*
X88248443Y-113786519D01*
X88248443Y-113786519D01*
G37*
G36*
X93328443Y-113786519D02*
G01*
X93394627Y-113793037D01*
X93564466Y-113844557D01*
X93720991Y-113928222D01*
X93756729Y-113957552D01*
X93858186Y-114040814D01*
X93941448Y-114142271D01*
X93970778Y-114178009D01*
X94054443Y-114334534D01*
X94105963Y-114504373D01*
X94123359Y-114681000D01*
X94105963Y-114857627D01*
X94054443Y-115027466D01*
X93970778Y-115183991D01*
X93941448Y-115219729D01*
X93858186Y-115321186D01*
X93756729Y-115404448D01*
X93720991Y-115433778D01*
X93564466Y-115517443D01*
X93394627Y-115568963D01*
X93328443Y-115575481D01*
X93262260Y-115582000D01*
X93173740Y-115582000D01*
X93107557Y-115575481D01*
X93041373Y-115568963D01*
X92871534Y-115517443D01*
X92715009Y-115433778D01*
X92679271Y-115404448D01*
X92577814Y-115321186D01*
X92494552Y-115219729D01*
X92465222Y-115183991D01*
X92381557Y-115027466D01*
X92330037Y-114857627D01*
X92312641Y-114681000D01*
X92330037Y-114504373D01*
X92381557Y-114334534D01*
X92465222Y-114178009D01*
X92494552Y-114142271D01*
X92577814Y-114040814D01*
X92679271Y-113957552D01*
X92715009Y-113928222D01*
X92871534Y-113844557D01*
X93041373Y-113793037D01*
X93107557Y-113786519D01*
X93173740Y-113780000D01*
X93262260Y-113780000D01*
X93328443Y-113786519D01*
X93328443Y-113786519D01*
G37*
G36*
X75548443Y-113786519D02*
G01*
X75614627Y-113793037D01*
X75784466Y-113844557D01*
X75940991Y-113928222D01*
X75976729Y-113957552D01*
X76078186Y-114040814D01*
X76161448Y-114142271D01*
X76190778Y-114178009D01*
X76274443Y-114334534D01*
X76325963Y-114504373D01*
X76343359Y-114681000D01*
X76325963Y-114857627D01*
X76274443Y-115027466D01*
X76190778Y-115183991D01*
X76161448Y-115219729D01*
X76078186Y-115321186D01*
X75976729Y-115404448D01*
X75940991Y-115433778D01*
X75784466Y-115517443D01*
X75614627Y-115568963D01*
X75548443Y-115575481D01*
X75482260Y-115582000D01*
X75393740Y-115582000D01*
X75327557Y-115575481D01*
X75261373Y-115568963D01*
X75091534Y-115517443D01*
X74935009Y-115433778D01*
X74899271Y-115404448D01*
X74797814Y-115321186D01*
X74714552Y-115219729D01*
X74685222Y-115183991D01*
X74601557Y-115027466D01*
X74550037Y-114857627D01*
X74532641Y-114681000D01*
X74550037Y-114504373D01*
X74601557Y-114334534D01*
X74685222Y-114178009D01*
X74714552Y-114142271D01*
X74797814Y-114040814D01*
X74899271Y-113957552D01*
X74935009Y-113928222D01*
X75091534Y-113844557D01*
X75261373Y-113793037D01*
X75327557Y-113786519D01*
X75393740Y-113780000D01*
X75482260Y-113780000D01*
X75548443Y-113786519D01*
X75548443Y-113786519D01*
G37*
G36*
X90788443Y-113786519D02*
G01*
X90854627Y-113793037D01*
X91024466Y-113844557D01*
X91180991Y-113928222D01*
X91216729Y-113957552D01*
X91318186Y-114040814D01*
X91401448Y-114142271D01*
X91430778Y-114178009D01*
X91514443Y-114334534D01*
X91565963Y-114504373D01*
X91583359Y-114681000D01*
X91565963Y-114857627D01*
X91514443Y-115027466D01*
X91430778Y-115183991D01*
X91401448Y-115219729D01*
X91318186Y-115321186D01*
X91216729Y-115404448D01*
X91180991Y-115433778D01*
X91024466Y-115517443D01*
X90854627Y-115568963D01*
X90788443Y-115575481D01*
X90722260Y-115582000D01*
X90633740Y-115582000D01*
X90567557Y-115575481D01*
X90501373Y-115568963D01*
X90331534Y-115517443D01*
X90175009Y-115433778D01*
X90139271Y-115404448D01*
X90037814Y-115321186D01*
X89954552Y-115219729D01*
X89925222Y-115183991D01*
X89841557Y-115027466D01*
X89790037Y-114857627D01*
X89772641Y-114681000D01*
X89790037Y-114504373D01*
X89841557Y-114334534D01*
X89925222Y-114178009D01*
X89954552Y-114142271D01*
X90037814Y-114040814D01*
X90139271Y-113957552D01*
X90175009Y-113928222D01*
X90331534Y-113844557D01*
X90501373Y-113793037D01*
X90567557Y-113786519D01*
X90633740Y-113780000D01*
X90722260Y-113780000D01*
X90788443Y-113786519D01*
X90788443Y-113786519D01*
G37*
G36*
X85708443Y-113786519D02*
G01*
X85774627Y-113793037D01*
X85944466Y-113844557D01*
X86100991Y-113928222D01*
X86136729Y-113957552D01*
X86238186Y-114040814D01*
X86321448Y-114142271D01*
X86350778Y-114178009D01*
X86434443Y-114334534D01*
X86485963Y-114504373D01*
X86503359Y-114681000D01*
X86485963Y-114857627D01*
X86434443Y-115027466D01*
X86350778Y-115183991D01*
X86321448Y-115219729D01*
X86238186Y-115321186D01*
X86136729Y-115404448D01*
X86100991Y-115433778D01*
X85944466Y-115517443D01*
X85774627Y-115568963D01*
X85708443Y-115575481D01*
X85642260Y-115582000D01*
X85553740Y-115582000D01*
X85487557Y-115575481D01*
X85421373Y-115568963D01*
X85251534Y-115517443D01*
X85095009Y-115433778D01*
X85059271Y-115404448D01*
X84957814Y-115321186D01*
X84874552Y-115219729D01*
X84845222Y-115183991D01*
X84761557Y-115027466D01*
X84710037Y-114857627D01*
X84692641Y-114681000D01*
X84710037Y-114504373D01*
X84761557Y-114334534D01*
X84845222Y-114178009D01*
X84874552Y-114142271D01*
X84957814Y-114040814D01*
X85059271Y-113957552D01*
X85095009Y-113928222D01*
X85251534Y-113844557D01*
X85421373Y-113793037D01*
X85487557Y-113786519D01*
X85553740Y-113780000D01*
X85642260Y-113780000D01*
X85708443Y-113786519D01*
X85708443Y-113786519D01*
G37*
G36*
X83168443Y-113786519D02*
G01*
X83234627Y-113793037D01*
X83404466Y-113844557D01*
X83560991Y-113928222D01*
X83596729Y-113957552D01*
X83698186Y-114040814D01*
X83781448Y-114142271D01*
X83810778Y-114178009D01*
X83894443Y-114334534D01*
X83945963Y-114504373D01*
X83963359Y-114681000D01*
X83945963Y-114857627D01*
X83894443Y-115027466D01*
X83810778Y-115183991D01*
X83781448Y-115219729D01*
X83698186Y-115321186D01*
X83596729Y-115404448D01*
X83560991Y-115433778D01*
X83404466Y-115517443D01*
X83234627Y-115568963D01*
X83168443Y-115575481D01*
X83102260Y-115582000D01*
X83013740Y-115582000D01*
X82947557Y-115575481D01*
X82881373Y-115568963D01*
X82711534Y-115517443D01*
X82555009Y-115433778D01*
X82519271Y-115404448D01*
X82417814Y-115321186D01*
X82334552Y-115219729D01*
X82305222Y-115183991D01*
X82221557Y-115027466D01*
X82170037Y-114857627D01*
X82152641Y-114681000D01*
X82170037Y-114504373D01*
X82221557Y-114334534D01*
X82305222Y-114178009D01*
X82334552Y-114142271D01*
X82417814Y-114040814D01*
X82519271Y-113957552D01*
X82555009Y-113928222D01*
X82711534Y-113844557D01*
X82881373Y-113793037D01*
X82947557Y-113786519D01*
X83013740Y-113780000D01*
X83102260Y-113780000D01*
X83168443Y-113786519D01*
X83168443Y-113786519D01*
G37*
G36*
X80628443Y-113786519D02*
G01*
X80694627Y-113793037D01*
X80864466Y-113844557D01*
X81020991Y-113928222D01*
X81056729Y-113957552D01*
X81158186Y-114040814D01*
X81241448Y-114142271D01*
X81270778Y-114178009D01*
X81354443Y-114334534D01*
X81405963Y-114504373D01*
X81423359Y-114681000D01*
X81405963Y-114857627D01*
X81354443Y-115027466D01*
X81270778Y-115183991D01*
X81241448Y-115219729D01*
X81158186Y-115321186D01*
X81056729Y-115404448D01*
X81020991Y-115433778D01*
X80864466Y-115517443D01*
X80694627Y-115568963D01*
X80628443Y-115575481D01*
X80562260Y-115582000D01*
X80473740Y-115582000D01*
X80407557Y-115575481D01*
X80341373Y-115568963D01*
X80171534Y-115517443D01*
X80015009Y-115433778D01*
X79979271Y-115404448D01*
X79877814Y-115321186D01*
X79794552Y-115219729D01*
X79765222Y-115183991D01*
X79681557Y-115027466D01*
X79630037Y-114857627D01*
X79612641Y-114681000D01*
X79630037Y-114504373D01*
X79681557Y-114334534D01*
X79765222Y-114178009D01*
X79794552Y-114142271D01*
X79877814Y-114040814D01*
X79979271Y-113957552D01*
X80015009Y-113928222D01*
X80171534Y-113844557D01*
X80341373Y-113793037D01*
X80407557Y-113786519D01*
X80473740Y-113780000D01*
X80562260Y-113780000D01*
X80628443Y-113786519D01*
X80628443Y-113786519D01*
G37*
G36*
X78088443Y-113786519D02*
G01*
X78154627Y-113793037D01*
X78324466Y-113844557D01*
X78480991Y-113928222D01*
X78516729Y-113957552D01*
X78618186Y-114040814D01*
X78701448Y-114142271D01*
X78730778Y-114178009D01*
X78814443Y-114334534D01*
X78865963Y-114504373D01*
X78883359Y-114681000D01*
X78865963Y-114857627D01*
X78814443Y-115027466D01*
X78730778Y-115183991D01*
X78701448Y-115219729D01*
X78618186Y-115321186D01*
X78516729Y-115404448D01*
X78480991Y-115433778D01*
X78324466Y-115517443D01*
X78154627Y-115568963D01*
X78088443Y-115575481D01*
X78022260Y-115582000D01*
X77933740Y-115582000D01*
X77867557Y-115575481D01*
X77801373Y-115568963D01*
X77631534Y-115517443D01*
X77475009Y-115433778D01*
X77439271Y-115404448D01*
X77337814Y-115321186D01*
X77254552Y-115219729D01*
X77225222Y-115183991D01*
X77141557Y-115027466D01*
X77090037Y-114857627D01*
X77072641Y-114681000D01*
X77090037Y-114504373D01*
X77141557Y-114334534D01*
X77225222Y-114178009D01*
X77254552Y-114142271D01*
X77337814Y-114040814D01*
X77439271Y-113957552D01*
X77475009Y-113928222D01*
X77631534Y-113844557D01*
X77801373Y-113793037D01*
X77867557Y-113786519D01*
X77933740Y-113780000D01*
X78022260Y-113780000D01*
X78088443Y-113786519D01*
X78088443Y-113786519D01*
G37*
G36*
X73008443Y-113786519D02*
G01*
X73074627Y-113793037D01*
X73244466Y-113844557D01*
X73400991Y-113928222D01*
X73436729Y-113957552D01*
X73538186Y-114040814D01*
X73621448Y-114142271D01*
X73650778Y-114178009D01*
X73734443Y-114334534D01*
X73785963Y-114504373D01*
X73803359Y-114681000D01*
X73785963Y-114857627D01*
X73734443Y-115027466D01*
X73650778Y-115183991D01*
X73621448Y-115219729D01*
X73538186Y-115321186D01*
X73436729Y-115404448D01*
X73400991Y-115433778D01*
X73244466Y-115517443D01*
X73074627Y-115568963D01*
X73008443Y-115575481D01*
X72942260Y-115582000D01*
X72853740Y-115582000D01*
X72787557Y-115575481D01*
X72721373Y-115568963D01*
X72551534Y-115517443D01*
X72395009Y-115433778D01*
X72359271Y-115404448D01*
X72257814Y-115321186D01*
X72174552Y-115219729D01*
X72145222Y-115183991D01*
X72061557Y-115027466D01*
X72010037Y-114857627D01*
X71992641Y-114681000D01*
X72010037Y-114504373D01*
X72061557Y-114334534D01*
X72145222Y-114178009D01*
X72174552Y-114142271D01*
X72257814Y-114040814D01*
X72359271Y-113957552D01*
X72395009Y-113928222D01*
X72551534Y-113844557D01*
X72721373Y-113793037D01*
X72787557Y-113786519D01*
X72853740Y-113780000D01*
X72942260Y-113780000D01*
X73008443Y-113786519D01*
X73008443Y-113786519D01*
G37*
G36*
X106178228Y-111891703D02*
G01*
X106333100Y-111955853D01*
X106472481Y-112048985D01*
X106591015Y-112167519D01*
X106684147Y-112306900D01*
X106748297Y-112461772D01*
X106781000Y-112626184D01*
X106781000Y-112793816D01*
X106748297Y-112958228D01*
X106684147Y-113113100D01*
X106591015Y-113252481D01*
X106472481Y-113371015D01*
X106333100Y-113464147D01*
X106178228Y-113528297D01*
X106013816Y-113561000D01*
X105846184Y-113561000D01*
X105681772Y-113528297D01*
X105526900Y-113464147D01*
X105387519Y-113371015D01*
X105268985Y-113252481D01*
X105175853Y-113113100D01*
X105111703Y-112958228D01*
X105079000Y-112793816D01*
X105079000Y-112626184D01*
X105111703Y-112461772D01*
X105175853Y-112306900D01*
X105268985Y-112167519D01*
X105387519Y-112048985D01*
X105526900Y-111955853D01*
X105681772Y-111891703D01*
X105846184Y-111859000D01*
X106013816Y-111859000D01*
X106178228Y-111891703D01*
X106178228Y-111891703D01*
G37*
G36*
X108678228Y-111891703D02*
G01*
X108833100Y-111955853D01*
X108972481Y-112048985D01*
X109091015Y-112167519D01*
X109184147Y-112306900D01*
X109248297Y-112461772D01*
X109281000Y-112626184D01*
X109281000Y-112793816D01*
X109248297Y-112958228D01*
X109184147Y-113113100D01*
X109091015Y-113252481D01*
X108972481Y-113371015D01*
X108833100Y-113464147D01*
X108678228Y-113528297D01*
X108513816Y-113561000D01*
X108346184Y-113561000D01*
X108181772Y-113528297D01*
X108026900Y-113464147D01*
X107887519Y-113371015D01*
X107768985Y-113252481D01*
X107675853Y-113113100D01*
X107611703Y-112958228D01*
X107579000Y-112793816D01*
X107579000Y-112626184D01*
X107611703Y-112461772D01*
X107675853Y-112306900D01*
X107768985Y-112167519D01*
X107887519Y-112048985D01*
X108026900Y-111955853D01*
X108181772Y-111891703D01*
X108346184Y-111859000D01*
X108513816Y-111859000D01*
X108678228Y-111891703D01*
X108678228Y-111891703D01*
G37*
G36*
X110678228Y-111891703D02*
G01*
X110833100Y-111955853D01*
X110972481Y-112048985D01*
X111091015Y-112167519D01*
X111184147Y-112306900D01*
X111248297Y-112461772D01*
X111281000Y-112626184D01*
X111281000Y-112793816D01*
X111248297Y-112958228D01*
X111184147Y-113113100D01*
X111091015Y-113252481D01*
X110972481Y-113371015D01*
X110833100Y-113464147D01*
X110678228Y-113528297D01*
X110513816Y-113561000D01*
X110346184Y-113561000D01*
X110181772Y-113528297D01*
X110026900Y-113464147D01*
X109887519Y-113371015D01*
X109768985Y-113252481D01*
X109675853Y-113113100D01*
X109611703Y-112958228D01*
X109579000Y-112793816D01*
X109579000Y-112626184D01*
X109611703Y-112461772D01*
X109675853Y-112306900D01*
X109768985Y-112167519D01*
X109887519Y-112048985D01*
X110026900Y-111955853D01*
X110181772Y-111891703D01*
X110346184Y-111859000D01*
X110513816Y-111859000D01*
X110678228Y-111891703D01*
X110678228Y-111891703D01*
G37*
G36*
X113781000Y-113561000D02*
G01*
X112079000Y-113561000D01*
X112079000Y-111859000D01*
X113781000Y-111859000D01*
X113781000Y-113561000D01*
X113781000Y-113561000D01*
G37*
G36*
X90788443Y-111246519D02*
G01*
X90854627Y-111253037D01*
X91024466Y-111304557D01*
X91180991Y-111388222D01*
X91216729Y-111417552D01*
X91318186Y-111500814D01*
X91401448Y-111602271D01*
X91430778Y-111638009D01*
X91514443Y-111794534D01*
X91565963Y-111964373D01*
X91583359Y-112141000D01*
X91565963Y-112317627D01*
X91514443Y-112487466D01*
X91430778Y-112643991D01*
X91401448Y-112679729D01*
X91318186Y-112781186D01*
X91216729Y-112864448D01*
X91180991Y-112893778D01*
X91180989Y-112893779D01*
X91060415Y-112958228D01*
X91024466Y-112977443D01*
X90854627Y-113028963D01*
X90788442Y-113035482D01*
X90722260Y-113042000D01*
X90633740Y-113042000D01*
X90567558Y-113035482D01*
X90501373Y-113028963D01*
X90331534Y-112977443D01*
X90295586Y-112958228D01*
X90175011Y-112893779D01*
X90175009Y-112893778D01*
X90139271Y-112864448D01*
X90037814Y-112781186D01*
X89954552Y-112679729D01*
X89925222Y-112643991D01*
X89841557Y-112487466D01*
X89790037Y-112317627D01*
X89772641Y-112141000D01*
X89790037Y-111964373D01*
X89841557Y-111794534D01*
X89925222Y-111638009D01*
X89954552Y-111602271D01*
X90037814Y-111500814D01*
X90139271Y-111417552D01*
X90175009Y-111388222D01*
X90331534Y-111304557D01*
X90501373Y-111253037D01*
X90567557Y-111246519D01*
X90633740Y-111240000D01*
X90722260Y-111240000D01*
X90788443Y-111246519D01*
X90788443Y-111246519D01*
G37*
G36*
X78088443Y-111246519D02*
G01*
X78154627Y-111253037D01*
X78324466Y-111304557D01*
X78480991Y-111388222D01*
X78516729Y-111417552D01*
X78618186Y-111500814D01*
X78701448Y-111602271D01*
X78730778Y-111638009D01*
X78814443Y-111794534D01*
X78865963Y-111964373D01*
X78883359Y-112141000D01*
X78865963Y-112317627D01*
X78814443Y-112487466D01*
X78730778Y-112643991D01*
X78701448Y-112679729D01*
X78618186Y-112781186D01*
X78516729Y-112864448D01*
X78480991Y-112893778D01*
X78480989Y-112893779D01*
X78360415Y-112958228D01*
X78324466Y-112977443D01*
X78154627Y-113028963D01*
X78088442Y-113035482D01*
X78022260Y-113042000D01*
X77933740Y-113042000D01*
X77867558Y-113035482D01*
X77801373Y-113028963D01*
X77631534Y-112977443D01*
X77595586Y-112958228D01*
X77475011Y-112893779D01*
X77475009Y-112893778D01*
X77439271Y-112864448D01*
X77337814Y-112781186D01*
X77254552Y-112679729D01*
X77225222Y-112643991D01*
X77141557Y-112487466D01*
X77090037Y-112317627D01*
X77072641Y-112141000D01*
X77090037Y-111964373D01*
X77141557Y-111794534D01*
X77225222Y-111638009D01*
X77254552Y-111602271D01*
X77337814Y-111500814D01*
X77439271Y-111417552D01*
X77475009Y-111388222D01*
X77631534Y-111304557D01*
X77801373Y-111253037D01*
X77867557Y-111246519D01*
X77933740Y-111240000D01*
X78022260Y-111240000D01*
X78088443Y-111246519D01*
X78088443Y-111246519D01*
G37*
G36*
X75548443Y-111246519D02*
G01*
X75614627Y-111253037D01*
X75784466Y-111304557D01*
X75940991Y-111388222D01*
X75976729Y-111417552D01*
X76078186Y-111500814D01*
X76161448Y-111602271D01*
X76190778Y-111638009D01*
X76274443Y-111794534D01*
X76325963Y-111964373D01*
X76343359Y-112141000D01*
X76325963Y-112317627D01*
X76274443Y-112487466D01*
X76190778Y-112643991D01*
X76161448Y-112679729D01*
X76078186Y-112781186D01*
X75976729Y-112864448D01*
X75940991Y-112893778D01*
X75940989Y-112893779D01*
X75820415Y-112958228D01*
X75784466Y-112977443D01*
X75614627Y-113028963D01*
X75548442Y-113035482D01*
X75482260Y-113042000D01*
X75393740Y-113042000D01*
X75327558Y-113035482D01*
X75261373Y-113028963D01*
X75091534Y-112977443D01*
X75055586Y-112958228D01*
X74935011Y-112893779D01*
X74935009Y-112893778D01*
X74899271Y-112864448D01*
X74797814Y-112781186D01*
X74714552Y-112679729D01*
X74685222Y-112643991D01*
X74601557Y-112487466D01*
X74550037Y-112317627D01*
X74532641Y-112141000D01*
X74550037Y-111964373D01*
X74601557Y-111794534D01*
X74685222Y-111638009D01*
X74714552Y-111602271D01*
X74797814Y-111500814D01*
X74899271Y-111417552D01*
X74935009Y-111388222D01*
X75091534Y-111304557D01*
X75261373Y-111253037D01*
X75327557Y-111246519D01*
X75393740Y-111240000D01*
X75482260Y-111240000D01*
X75548443Y-111246519D01*
X75548443Y-111246519D01*
G37*
G36*
X80628443Y-111246519D02*
G01*
X80694627Y-111253037D01*
X80864466Y-111304557D01*
X81020991Y-111388222D01*
X81056729Y-111417552D01*
X81158186Y-111500814D01*
X81241448Y-111602271D01*
X81270778Y-111638009D01*
X81354443Y-111794534D01*
X81405963Y-111964373D01*
X81423359Y-112141000D01*
X81405963Y-112317627D01*
X81354443Y-112487466D01*
X81270778Y-112643991D01*
X81241448Y-112679729D01*
X81158186Y-112781186D01*
X81056729Y-112864448D01*
X81020991Y-112893778D01*
X81020989Y-112893779D01*
X80900415Y-112958228D01*
X80864466Y-112977443D01*
X80694627Y-113028963D01*
X80628442Y-113035482D01*
X80562260Y-113042000D01*
X80473740Y-113042000D01*
X80407558Y-113035482D01*
X80341373Y-113028963D01*
X80171534Y-112977443D01*
X80135586Y-112958228D01*
X80015011Y-112893779D01*
X80015009Y-112893778D01*
X79979271Y-112864448D01*
X79877814Y-112781186D01*
X79794552Y-112679729D01*
X79765222Y-112643991D01*
X79681557Y-112487466D01*
X79630037Y-112317627D01*
X79612641Y-112141000D01*
X79630037Y-111964373D01*
X79681557Y-111794534D01*
X79765222Y-111638009D01*
X79794552Y-111602271D01*
X79877814Y-111500814D01*
X79979271Y-111417552D01*
X80015009Y-111388222D01*
X80171534Y-111304557D01*
X80341373Y-111253037D01*
X80407557Y-111246519D01*
X80473740Y-111240000D01*
X80562260Y-111240000D01*
X80628443Y-111246519D01*
X80628443Y-111246519D01*
G37*
G36*
X83168443Y-111246519D02*
G01*
X83234627Y-111253037D01*
X83404466Y-111304557D01*
X83560991Y-111388222D01*
X83596729Y-111417552D01*
X83698186Y-111500814D01*
X83781448Y-111602271D01*
X83810778Y-111638009D01*
X83894443Y-111794534D01*
X83945963Y-111964373D01*
X83963359Y-112141000D01*
X83945963Y-112317627D01*
X83894443Y-112487466D01*
X83810778Y-112643991D01*
X83781448Y-112679729D01*
X83698186Y-112781186D01*
X83596729Y-112864448D01*
X83560991Y-112893778D01*
X83560989Y-112893779D01*
X83440415Y-112958228D01*
X83404466Y-112977443D01*
X83234627Y-113028963D01*
X83168442Y-113035482D01*
X83102260Y-113042000D01*
X83013740Y-113042000D01*
X82947558Y-113035482D01*
X82881373Y-113028963D01*
X82711534Y-112977443D01*
X82675586Y-112958228D01*
X82555011Y-112893779D01*
X82555009Y-112893778D01*
X82519271Y-112864448D01*
X82417814Y-112781186D01*
X82334552Y-112679729D01*
X82305222Y-112643991D01*
X82221557Y-112487466D01*
X82170037Y-112317627D01*
X82152641Y-112141000D01*
X82170037Y-111964373D01*
X82221557Y-111794534D01*
X82305222Y-111638009D01*
X82334552Y-111602271D01*
X82417814Y-111500814D01*
X82519271Y-111417552D01*
X82555009Y-111388222D01*
X82711534Y-111304557D01*
X82881373Y-111253037D01*
X82947557Y-111246519D01*
X83013740Y-111240000D01*
X83102260Y-111240000D01*
X83168443Y-111246519D01*
X83168443Y-111246519D01*
G37*
G36*
X93328443Y-111246519D02*
G01*
X93394627Y-111253037D01*
X93564466Y-111304557D01*
X93720991Y-111388222D01*
X93756729Y-111417552D01*
X93858186Y-111500814D01*
X93941448Y-111602271D01*
X93970778Y-111638009D01*
X94054443Y-111794534D01*
X94105963Y-111964373D01*
X94123359Y-112141000D01*
X94105963Y-112317627D01*
X94054443Y-112487466D01*
X93970778Y-112643991D01*
X93941448Y-112679729D01*
X93858186Y-112781186D01*
X93756729Y-112864448D01*
X93720991Y-112893778D01*
X93720989Y-112893779D01*
X93600415Y-112958228D01*
X93564466Y-112977443D01*
X93394627Y-113028963D01*
X93328442Y-113035482D01*
X93262260Y-113042000D01*
X93173740Y-113042000D01*
X93107558Y-113035482D01*
X93041373Y-113028963D01*
X92871534Y-112977443D01*
X92835586Y-112958228D01*
X92715011Y-112893779D01*
X92715009Y-112893778D01*
X92679271Y-112864448D01*
X92577814Y-112781186D01*
X92494552Y-112679729D01*
X92465222Y-112643991D01*
X92381557Y-112487466D01*
X92330037Y-112317627D01*
X92312641Y-112141000D01*
X92330037Y-111964373D01*
X92381557Y-111794534D01*
X92465222Y-111638009D01*
X92494552Y-111602271D01*
X92577814Y-111500814D01*
X92679271Y-111417552D01*
X92715009Y-111388222D01*
X92871534Y-111304557D01*
X93041373Y-111253037D01*
X93107557Y-111246519D01*
X93173740Y-111240000D01*
X93262260Y-111240000D01*
X93328443Y-111246519D01*
X93328443Y-111246519D01*
G37*
G36*
X85708443Y-111246519D02*
G01*
X85774627Y-111253037D01*
X85944466Y-111304557D01*
X86100991Y-111388222D01*
X86136729Y-111417552D01*
X86238186Y-111500814D01*
X86321448Y-111602271D01*
X86350778Y-111638009D01*
X86434443Y-111794534D01*
X86485963Y-111964373D01*
X86503359Y-112141000D01*
X86485963Y-112317627D01*
X86434443Y-112487466D01*
X86350778Y-112643991D01*
X86321448Y-112679729D01*
X86238186Y-112781186D01*
X86136729Y-112864448D01*
X86100991Y-112893778D01*
X86100989Y-112893779D01*
X85980415Y-112958228D01*
X85944466Y-112977443D01*
X85774627Y-113028963D01*
X85708442Y-113035482D01*
X85642260Y-113042000D01*
X85553740Y-113042000D01*
X85487558Y-113035482D01*
X85421373Y-113028963D01*
X85251534Y-112977443D01*
X85215586Y-112958228D01*
X85095011Y-112893779D01*
X85095009Y-112893778D01*
X85059271Y-112864448D01*
X84957814Y-112781186D01*
X84874552Y-112679729D01*
X84845222Y-112643991D01*
X84761557Y-112487466D01*
X84710037Y-112317627D01*
X84692641Y-112141000D01*
X84710037Y-111964373D01*
X84761557Y-111794534D01*
X84845222Y-111638009D01*
X84874552Y-111602271D01*
X84957814Y-111500814D01*
X85059271Y-111417552D01*
X85095009Y-111388222D01*
X85251534Y-111304557D01*
X85421373Y-111253037D01*
X85487557Y-111246519D01*
X85553740Y-111240000D01*
X85642260Y-111240000D01*
X85708443Y-111246519D01*
X85708443Y-111246519D01*
G37*
G36*
X88248443Y-111246519D02*
G01*
X88314627Y-111253037D01*
X88484466Y-111304557D01*
X88640991Y-111388222D01*
X88676729Y-111417552D01*
X88778186Y-111500814D01*
X88861448Y-111602271D01*
X88890778Y-111638009D01*
X88974443Y-111794534D01*
X89025963Y-111964373D01*
X89043359Y-112141000D01*
X89025963Y-112317627D01*
X88974443Y-112487466D01*
X88890778Y-112643991D01*
X88861448Y-112679729D01*
X88778186Y-112781186D01*
X88676729Y-112864448D01*
X88640991Y-112893778D01*
X88640989Y-112893779D01*
X88520415Y-112958228D01*
X88484466Y-112977443D01*
X88314627Y-113028963D01*
X88248442Y-113035482D01*
X88182260Y-113042000D01*
X88093740Y-113042000D01*
X88027558Y-113035482D01*
X87961373Y-113028963D01*
X87791534Y-112977443D01*
X87755586Y-112958228D01*
X87635011Y-112893779D01*
X87635009Y-112893778D01*
X87599271Y-112864448D01*
X87497814Y-112781186D01*
X87414552Y-112679729D01*
X87385222Y-112643991D01*
X87301557Y-112487466D01*
X87250037Y-112317627D01*
X87232641Y-112141000D01*
X87250037Y-111964373D01*
X87301557Y-111794534D01*
X87385222Y-111638009D01*
X87414552Y-111602271D01*
X87497814Y-111500814D01*
X87599271Y-111417552D01*
X87635009Y-111388222D01*
X87791534Y-111304557D01*
X87961373Y-111253037D01*
X88027557Y-111246519D01*
X88093740Y-111240000D01*
X88182260Y-111240000D01*
X88248443Y-111246519D01*
X88248443Y-111246519D01*
G37*
G36*
X70468443Y-111246519D02*
G01*
X70534627Y-111253037D01*
X70704466Y-111304557D01*
X70860991Y-111388222D01*
X70896729Y-111417552D01*
X70998186Y-111500814D01*
X71081448Y-111602271D01*
X71110778Y-111638009D01*
X71194443Y-111794534D01*
X71245963Y-111964373D01*
X71263359Y-112141000D01*
X71245963Y-112317627D01*
X71194443Y-112487466D01*
X71110778Y-112643991D01*
X71081448Y-112679729D01*
X70998186Y-112781186D01*
X70896729Y-112864448D01*
X70860991Y-112893778D01*
X70860989Y-112893779D01*
X70740415Y-112958228D01*
X70704466Y-112977443D01*
X70534627Y-113028963D01*
X70468442Y-113035482D01*
X70402260Y-113042000D01*
X70313740Y-113042000D01*
X70247558Y-113035482D01*
X70181373Y-113028963D01*
X70011534Y-112977443D01*
X69975586Y-112958228D01*
X69855011Y-112893779D01*
X69855009Y-112893778D01*
X69819271Y-112864448D01*
X69717814Y-112781186D01*
X69634552Y-112679729D01*
X69605222Y-112643991D01*
X69521557Y-112487466D01*
X69470037Y-112317627D01*
X69452641Y-112141000D01*
X69470037Y-111964373D01*
X69521557Y-111794534D01*
X69605222Y-111638009D01*
X69634552Y-111602271D01*
X69717814Y-111500814D01*
X69819271Y-111417552D01*
X69855009Y-111388222D01*
X70011534Y-111304557D01*
X70181373Y-111253037D01*
X70247557Y-111246519D01*
X70313740Y-111240000D01*
X70402260Y-111240000D01*
X70468443Y-111246519D01*
X70468443Y-111246519D01*
G37*
G36*
X73008443Y-111246519D02*
G01*
X73074627Y-111253037D01*
X73244466Y-111304557D01*
X73400991Y-111388222D01*
X73436729Y-111417552D01*
X73538186Y-111500814D01*
X73621448Y-111602271D01*
X73650778Y-111638009D01*
X73734443Y-111794534D01*
X73785963Y-111964373D01*
X73803359Y-112141000D01*
X73785963Y-112317627D01*
X73734443Y-112487466D01*
X73650778Y-112643991D01*
X73621448Y-112679729D01*
X73538186Y-112781186D01*
X73436729Y-112864448D01*
X73400991Y-112893778D01*
X73400989Y-112893779D01*
X73280415Y-112958228D01*
X73244466Y-112977443D01*
X73074627Y-113028963D01*
X73008442Y-113035482D01*
X72942260Y-113042000D01*
X72853740Y-113042000D01*
X72787558Y-113035482D01*
X72721373Y-113028963D01*
X72551534Y-112977443D01*
X72515586Y-112958228D01*
X72395011Y-112893779D01*
X72395009Y-112893778D01*
X72359271Y-112864448D01*
X72257814Y-112781186D01*
X72174552Y-112679729D01*
X72145222Y-112643991D01*
X72061557Y-112487466D01*
X72010037Y-112317627D01*
X71992641Y-112141000D01*
X72010037Y-111964373D01*
X72061557Y-111794534D01*
X72145222Y-111638009D01*
X72174552Y-111602271D01*
X72257814Y-111500814D01*
X72359271Y-111417552D01*
X72395009Y-111388222D01*
X72551534Y-111304557D01*
X72721373Y-111253037D01*
X72787557Y-111246519D01*
X72853740Y-111240000D01*
X72942260Y-111240000D01*
X73008443Y-111246519D01*
X73008443Y-111246519D01*
G37*
G36*
X116302585Y-108478802D02*
G01*
X116452410Y-108508604D01*
X116734674Y-108625521D01*
X116988705Y-108795259D01*
X117204741Y-109011295D01*
X117374479Y-109265326D01*
X117491396Y-109547590D01*
X117491396Y-109547591D01*
X117551000Y-109847239D01*
X117551000Y-110152761D01*
X117549833Y-110158627D01*
X117491396Y-110452410D01*
X117374479Y-110734674D01*
X117204741Y-110988705D01*
X116988705Y-111204741D01*
X116734674Y-111374479D01*
X116452410Y-111491396D01*
X116405062Y-111500814D01*
X116152761Y-111551000D01*
X115847239Y-111551000D01*
X115594938Y-111500814D01*
X115547590Y-111491396D01*
X115265326Y-111374479D01*
X115011295Y-111204741D01*
X114795259Y-110988705D01*
X114625521Y-110734674D01*
X114508604Y-110452410D01*
X114450167Y-110158627D01*
X114449000Y-110152761D01*
X114449000Y-109847239D01*
X114508604Y-109547591D01*
X114508604Y-109547590D01*
X114625521Y-109265326D01*
X114795259Y-109011295D01*
X115011295Y-108795259D01*
X115265326Y-108625521D01*
X115547590Y-108508604D01*
X115697415Y-108478802D01*
X115847239Y-108449000D01*
X116152761Y-108449000D01*
X116302585Y-108478802D01*
X116302585Y-108478802D01*
G37*
G36*
X103162585Y-108478802D02*
G01*
X103312410Y-108508604D01*
X103594674Y-108625521D01*
X103848705Y-108795259D01*
X104064741Y-109011295D01*
X104234479Y-109265326D01*
X104351396Y-109547590D01*
X104351396Y-109547591D01*
X104411000Y-109847239D01*
X104411000Y-110152761D01*
X104409833Y-110158627D01*
X104351396Y-110452410D01*
X104234479Y-110734674D01*
X104064741Y-110988705D01*
X103848705Y-111204741D01*
X103594674Y-111374479D01*
X103312410Y-111491396D01*
X103265062Y-111500814D01*
X103012761Y-111551000D01*
X102707239Y-111551000D01*
X102454938Y-111500814D01*
X102407590Y-111491396D01*
X102125326Y-111374479D01*
X101871295Y-111204741D01*
X101655259Y-110988705D01*
X101485521Y-110734674D01*
X101368604Y-110452410D01*
X101310167Y-110158627D01*
X101309000Y-110152761D01*
X101309000Y-109847239D01*
X101368604Y-109547591D01*
X101368604Y-109547590D01*
X101485521Y-109265326D01*
X101655259Y-109011295D01*
X101871295Y-108795259D01*
X102125326Y-108625521D01*
X102407590Y-108508604D01*
X102557415Y-108478802D01*
X102707239Y-108449000D01*
X103012761Y-108449000D01*
X103162585Y-108478802D01*
X103162585Y-108478802D01*
G37*
G36*
X120887443Y-109087519D02*
G01*
X120953627Y-109094037D01*
X121123466Y-109145557D01*
X121279991Y-109229222D01*
X121315729Y-109258552D01*
X121417186Y-109341814D01*
X121500448Y-109443271D01*
X121529778Y-109479009D01*
X121613443Y-109635534D01*
X121664963Y-109805373D01*
X121682359Y-109982000D01*
X121664963Y-110158627D01*
X121613443Y-110328466D01*
X121529778Y-110484991D01*
X121500448Y-110520729D01*
X121417186Y-110622186D01*
X121315729Y-110705448D01*
X121279991Y-110734778D01*
X121123466Y-110818443D01*
X120953627Y-110869963D01*
X120887442Y-110876482D01*
X120821260Y-110883000D01*
X120732740Y-110883000D01*
X120666558Y-110876482D01*
X120600373Y-110869963D01*
X120430534Y-110818443D01*
X120274009Y-110734778D01*
X120238271Y-110705448D01*
X120136814Y-110622186D01*
X120053552Y-110520729D01*
X120024222Y-110484991D01*
X119940557Y-110328466D01*
X119889037Y-110158627D01*
X119871641Y-109982000D01*
X119889037Y-109805373D01*
X119940557Y-109635534D01*
X120024222Y-109479009D01*
X120053552Y-109443271D01*
X120136814Y-109341814D01*
X120238271Y-109258552D01*
X120274009Y-109229222D01*
X120430534Y-109145557D01*
X120600373Y-109094037D01*
X120666557Y-109087519D01*
X120732740Y-109081000D01*
X120821260Y-109081000D01*
X120887443Y-109087519D01*
X120887443Y-109087519D01*
G37*
G36*
X121678000Y-108343000D02*
G01*
X119876000Y-108343000D01*
X119876000Y-106541000D01*
X121678000Y-106541000D01*
X121678000Y-108343000D01*
X121678000Y-108343000D01*
G37*
M02*
