M48
; DRILL file {KiCad (5.1.4-0)} date Monday, 06 April 2020 at 12:51:03
; FORMAT={3:3/ absolute / metric / suppress leading zeros}
; #@! TF.CreationDate,2020-04-06T12:51:03+01:00
; #@! TF.GenerationSoftware,Kicad,Pcbnew,(5.1.4-0)
FMAT,2
METRIC,TZ
T1C0.400
T2C0.762
T3C0.920
T4C1.000
T5C2.300
T6C3.200
%
G90
G05
T1
X72009Y-120650
X80010Y-130810
X91440Y-132334
X91440Y-133604
X107696Y-132334
X107823Y-133985
X113792Y-149860
T2
X86220Y-121250
X86220Y-136490
X88760Y-121250
X88760Y-123790
X88760Y-136490
X91300Y-121250
X91300Y-136490
X93840Y-121250
X93840Y-123790
X93840Y-136490
X96380Y-121250
X96380Y-123790
X96380Y-136490
X98920Y-121250
X98920Y-123790
X98920Y-136490
X101460Y-121250
X101460Y-136490
X104000Y-121250
X104000Y-136490
X106540Y-121250
X106540Y-136490
X109080Y-121250
X109080Y-136490
X111620Y-121250
X111620Y-136490
X114160Y-121250
X114160Y-136490
X116700Y-121250
X116700Y-136490
X119240Y-121250
X119240Y-123790
X119240Y-126330
X119240Y-128870
X119240Y-131410
X119240Y-133950
X119240Y-136490
X41402Y-118364
X43942Y-118364
X46482Y-118364
X49022Y-118364
X51562Y-118364
X54102Y-118364
X56642Y-118364
T3
X105930Y-112710
X108430Y-112710
X110430Y-112710
X112930Y-112710
T4
X120777Y-107442
X90678Y-114681
X70358Y-112141
X70358Y-114681
X72898Y-112141
X72898Y-114681
X75438Y-112141
X75438Y-114681
X77978Y-112141
X77978Y-114681
X80518Y-112141
X80518Y-114681
X83058Y-112141
X83058Y-114681
X85598Y-112141
X85598Y-114681
X88138Y-112141
X88138Y-114681
X90678Y-112141
X93218Y-112141
X93218Y-114681
X120777Y-109982
X96012Y-143510
X96012Y-146050
X98552Y-143510
X98552Y-146050
X101092Y-143510
X101092Y-146050
X103632Y-143510
X103632Y-146050
X106172Y-143510
X106172Y-146050
X108712Y-143510
X108712Y-146050
X111252Y-143510
X111252Y-146050
X113792Y-143510
X113792Y-146050
X116332Y-143510
X116332Y-146050
X118872Y-143510
X118872Y-146050
T5
X102860Y-110000
X116000Y-110000
T6
X36322Y-118364
X61722Y-118364
T0
M30
