G04 #@! TF.GenerationSoftware,KiCad,Pcbnew,(5.1.4-0)*
G04 #@! TF.CreationDate,2020-04-06T12:50:51+01:00*
G04 #@! TF.ProjectId,Simple_VFO,53696d70-6c65-45f5-9646-4f2e6b696361,rev?*
G04 #@! TF.SameCoordinates,Original*
G04 #@! TF.FileFunction,Copper,L1,Top*
G04 #@! TF.FilePolarity,Positive*
%FSLAX46Y46*%
G04 Gerber Fmt 4.6, Leading zero omitted, Abs format (unit mm)*
G04 Created by KiCad (PCBNEW (5.1.4-0)) date 2020-04-06 12:50:51*
%MOMM*%
%LPD*%
G04 APERTURE LIST*
%ADD10C,1.524000*%
%ADD11C,4.000000*%
%ADD12O,1.700000X1.700000*%
%ADD13R,1.700000X1.700000*%
%ADD14C,3.000000*%
%ADD15R,1.600000X1.600000*%
%ADD16C,1.600000*%
%ADD17C,0.800000*%
%ADD18C,0.250000*%
%ADD19C,0.750000*%
%ADD20C,0.254000*%
G04 APERTURE END LIST*
D10*
X86220000Y-136490000D03*
X88760000Y-136490000D03*
X91300000Y-136490000D03*
X93840000Y-136490000D03*
X96380000Y-136490000D03*
X98920000Y-136490000D03*
X101460000Y-136490000D03*
X104000000Y-136490000D03*
X106540000Y-136490000D03*
X109080000Y-136490000D03*
X111620000Y-136490000D03*
X114160000Y-136490000D03*
X116700000Y-136490000D03*
X119240000Y-136490000D03*
X119240000Y-133950000D03*
X119240000Y-131410000D03*
X119240000Y-128870000D03*
X119240000Y-126330000D03*
X119240000Y-123790000D03*
X119240000Y-121250000D03*
X116700000Y-121250000D03*
X114160000Y-121250000D03*
X111620000Y-121250000D03*
X109080000Y-121250000D03*
X106540000Y-121250000D03*
X104000000Y-121250000D03*
X101460000Y-121250000D03*
X98920000Y-121250000D03*
X96380000Y-121250000D03*
X93840000Y-121250000D03*
X91300000Y-121250000D03*
X88760000Y-121250000D03*
X86220000Y-121250000D03*
X88760000Y-123790000D03*
X93840000Y-123790000D03*
X96380000Y-123790000D03*
X98920000Y-123790000D03*
D11*
X61722000Y-118364000D03*
X36322000Y-118364000D03*
D10*
X56642000Y-118364000D03*
X54102000Y-118364000D03*
X51562000Y-118364000D03*
X49022000Y-118364000D03*
X46482000Y-118364000D03*
X43942000Y-118364000D03*
X41402000Y-118364000D03*
D12*
X93218000Y-112141000D03*
X93218000Y-114681000D03*
X90678000Y-112141000D03*
X90678000Y-114681000D03*
X88138000Y-112141000D03*
X88138000Y-114681000D03*
X85598000Y-112141000D03*
X85598000Y-114681000D03*
X83058000Y-112141000D03*
X83058000Y-114681000D03*
X80518000Y-112141000D03*
X80518000Y-114681000D03*
X77978000Y-112141000D03*
X77978000Y-114681000D03*
X75438000Y-112141000D03*
X75438000Y-114681000D03*
X72898000Y-112141000D03*
X72898000Y-114681000D03*
X70358000Y-112141000D03*
D13*
X70358000Y-114681000D03*
D14*
X102860000Y-110000000D03*
X116000000Y-110000000D03*
D15*
X112930000Y-112710000D03*
D16*
X110430000Y-112710000D03*
X108430000Y-112710000D03*
X105930000Y-112710000D03*
D13*
X96012000Y-143510000D03*
D12*
X96012000Y-146050000D03*
X98552000Y-143510000D03*
X98552000Y-146050000D03*
X101092000Y-143510000D03*
X101092000Y-146050000D03*
X103632000Y-143510000D03*
X103632000Y-146050000D03*
X106172000Y-143510000D03*
X106172000Y-146050000D03*
X108712000Y-143510000D03*
X108712000Y-146050000D03*
X111252000Y-143510000D03*
X111252000Y-146050000D03*
X113792000Y-143510000D03*
X113792000Y-146050000D03*
X116332000Y-143510000D03*
X116332000Y-146050000D03*
X118872000Y-143510000D03*
X118872000Y-146050000D03*
D13*
X120777000Y-107442000D03*
D12*
X120777000Y-109982000D03*
D17*
X113792000Y-149860000D03*
X80010000Y-130810000D03*
X72009000Y-120650000D03*
X107696000Y-132334000D03*
X107823000Y-133985000D03*
X91440000Y-132334000D03*
X91440000Y-133604000D03*
D18*
X99681999Y-137251999D02*
X98920000Y-136490000D01*
X102511000Y-140081000D02*
X99681999Y-137251999D01*
X105283000Y-140081000D02*
X102511000Y-140081000D01*
X108712000Y-143510000D02*
X105283000Y-140081000D01*
D19*
X119177000Y-107442000D02*
X120777000Y-107442000D01*
X115486998Y-107442000D02*
X119177000Y-107442000D01*
X112930000Y-109998998D02*
X115486998Y-107442000D01*
X112930000Y-112710000D02*
X112930000Y-109998998D01*
D18*
X92837000Y-114681000D02*
X92789000Y-114681000D01*
D19*
X112930000Y-114260000D02*
X109080000Y-118110000D01*
X112930000Y-112710000D02*
X112930000Y-114260000D01*
X89360000Y-118110000D02*
X86220000Y-121250000D01*
X109080000Y-118110000D02*
X89360000Y-118110000D01*
D18*
X99401999Y-146899999D02*
X98552000Y-146050000D01*
X96012000Y-143510000D02*
X77724000Y-143510000D01*
X77724000Y-143510000D02*
X75057000Y-140843000D01*
X75057000Y-140843000D02*
X61087000Y-140843000D01*
X75057000Y-140843000D02*
X74930000Y-140716000D01*
X61087000Y-140843000D02*
X56642000Y-136398000D01*
X56642000Y-136398000D02*
X56642000Y-118364000D01*
X120001999Y-122011999D02*
X119240000Y-121250000D01*
X120947021Y-146350391D02*
X120947021Y-122957021D01*
X119622402Y-147675010D02*
X120947021Y-146350391D01*
X106058008Y-147675010D02*
X119622402Y-147675010D01*
X104996999Y-146614001D02*
X106058008Y-147675010D01*
X120947021Y-122957021D02*
X120001999Y-122011999D01*
X104996999Y-144874999D02*
X104996999Y-146614001D01*
X103632000Y-143510000D02*
X104996999Y-144874999D01*
X120001999Y-137251999D02*
X119240000Y-136490000D01*
X120497011Y-137747011D02*
X120001999Y-137251999D01*
X119436001Y-147225001D02*
X120497011Y-146163991D01*
X120497011Y-146163991D02*
X120497011Y-137747011D01*
X108147999Y-147225001D02*
X119436001Y-147225001D01*
X107536999Y-146614001D02*
X108147999Y-147225001D01*
X107536999Y-144874999D02*
X107536999Y-146614001D01*
X106172000Y-143510000D02*
X107536999Y-144874999D01*
X94601999Y-137251999D02*
X93840000Y-136490000D01*
X104932012Y-140531010D02*
X97881010Y-140531010D01*
X107536999Y-143135997D02*
X104932012Y-140531010D01*
X107536999Y-144074001D02*
X107536999Y-143135997D01*
X108712000Y-145249002D02*
X107536999Y-144074001D01*
X97881010Y-140531010D02*
X94601999Y-137251999D01*
X108712000Y-146050000D02*
X108712000Y-145249002D01*
X120047001Y-144074001D02*
X120047001Y-141445763D01*
X119436001Y-144685001D02*
X120047001Y-144074001D01*
X117132998Y-143510000D02*
X118307999Y-144685001D01*
X118307999Y-144685001D02*
X119436001Y-144685001D01*
X116332000Y-143510000D02*
X117132998Y-143510000D01*
X117461999Y-122011999D02*
X116700000Y-121250000D01*
X118152999Y-122702999D02*
X117461999Y-122011999D01*
X118152999Y-139551761D02*
X118152999Y-122702999D01*
X120047001Y-141445763D02*
X118152999Y-139551761D01*
X121397031Y-121798269D02*
X121397030Y-146536792D01*
X119761761Y-120162999D02*
X121397031Y-121798269D01*
X115247001Y-120162999D02*
X119761761Y-120162999D01*
X121397030Y-146536792D02*
X118073822Y-149860000D01*
X114160000Y-121250000D02*
X115247001Y-120162999D01*
X118073822Y-149860000D02*
X113792000Y-149860000D01*
X112707001Y-122337001D02*
X112381999Y-122011999D01*
X112381999Y-122011999D02*
X111620000Y-121250000D01*
X112707001Y-137345001D02*
X112707001Y-122337001D01*
X118872000Y-143510000D02*
X112707001Y-137345001D01*
X94601999Y-122011999D02*
X93840000Y-121250000D01*
X94927001Y-122337001D02*
X94601999Y-122011999D01*
X99441761Y-122337001D02*
X94927001Y-122337001D01*
X110167001Y-133062241D02*
X99441761Y-122337001D01*
X110167001Y-136645763D02*
X110167001Y-133062241D01*
X115918999Y-144874999D02*
X114967001Y-143923001D01*
X114967001Y-141445763D02*
X110167001Y-136645763D01*
X116896001Y-144874999D02*
X115918999Y-144874999D01*
X118071002Y-146050000D02*
X116896001Y-144874999D01*
X114967001Y-143923001D02*
X114967001Y-141445763D01*
X118872000Y-146050000D02*
X118071002Y-146050000D01*
X111252000Y-141202000D02*
X106540000Y-136490000D01*
X111252000Y-143510000D02*
X111252000Y-141202000D01*
X113792000Y-141202000D02*
X109080000Y-136490000D01*
X113792000Y-143510000D02*
X113792000Y-141202000D01*
X75438000Y-114681000D02*
X74262999Y-113505999D01*
X54069999Y-113316001D02*
X74073001Y-113316001D01*
X74073001Y-113316001D02*
X74262999Y-113505999D01*
X49022000Y-118364000D02*
X54069999Y-113316001D01*
X77978000Y-114681000D02*
X75692000Y-116967000D01*
X65405000Y-116967000D02*
X62484000Y-114046000D01*
X75692000Y-116967000D02*
X65405000Y-116967000D01*
X55880000Y-114046000D02*
X62484000Y-114046000D01*
X51562000Y-118364000D02*
X55880000Y-114046000D01*
X93840000Y-123790000D02*
X91265000Y-126365000D01*
X85132999Y-116628999D02*
X85598000Y-116163998D01*
X85598000Y-116163998D02*
X85598000Y-114681000D01*
X86487000Y-126365000D02*
X85132999Y-125010999D01*
X91265000Y-126365000D02*
X86487000Y-126365000D01*
X85132999Y-125010999D02*
X85132999Y-116628999D01*
X106229990Y-130867990D02*
X88957990Y-130867990D01*
X107696000Y-132334000D02*
X106229990Y-130867990D01*
X84233001Y-113316001D02*
X83907999Y-112990999D01*
X83907999Y-112990999D02*
X83058000Y-112141000D01*
X84233001Y-126143001D02*
X84233001Y-113316001D01*
X88957990Y-130867990D02*
X84233001Y-126143001D01*
X87288001Y-111291001D02*
X88138000Y-112141000D01*
X86962999Y-110965999D02*
X87288001Y-111291001D01*
X79953999Y-110965999D02*
X86962999Y-110965999D01*
X79342999Y-111576999D02*
X79953999Y-110965999D01*
X79342999Y-127709409D02*
X79342999Y-111576999D01*
X87672999Y-136039409D02*
X79342999Y-127709409D01*
X88238239Y-137577001D02*
X87672999Y-137011761D01*
X91821761Y-137577001D02*
X88238239Y-137577001D01*
X92387001Y-137011761D02*
X91821761Y-137577001D01*
X92387001Y-135968239D02*
X92387001Y-137011761D01*
X99736589Y-135402999D02*
X92952241Y-135402999D01*
X100372999Y-136039409D02*
X99736589Y-135402999D01*
X100372999Y-137011761D02*
X100372999Y-136039409D01*
X87672999Y-137011761D02*
X87672999Y-136039409D01*
X100938239Y-137577001D02*
X100372999Y-137011761D01*
X92952241Y-135402999D02*
X92387001Y-135968239D01*
X104521761Y-137577001D02*
X100938239Y-137577001D01*
X105087001Y-135968239D02*
X105087001Y-137011761D01*
X105087001Y-137011761D02*
X104521761Y-137577001D01*
X105652241Y-135402999D02*
X105087001Y-135968239D01*
X107478003Y-135402999D02*
X105652241Y-135402999D01*
X108548001Y-134333001D02*
X107478003Y-135402999D01*
X108548001Y-132079651D02*
X108548001Y-134333001D01*
X100258350Y-123790000D02*
X108548001Y-132079651D01*
X98920000Y-123790000D02*
X100258350Y-123790000D01*
X107823000Y-133985000D02*
X105156000Y-131318000D01*
X105156000Y-131318000D02*
X88519000Y-131318000D01*
X83058000Y-125857000D02*
X83058000Y-114681000D01*
X88519000Y-131318000D02*
X83058000Y-125857000D01*
X88987999Y-113831001D02*
X88138000Y-114681000D01*
X89313001Y-113505999D02*
X88987999Y-113831001D01*
X93592003Y-113505999D02*
X89313001Y-113505999D01*
X100831003Y-106266999D02*
X93592003Y-113505999D01*
X121887001Y-106266999D02*
X100831003Y-106266999D01*
X121952001Y-106331999D02*
X121887001Y-106266999D01*
X121952001Y-110546001D02*
X121952001Y-106331999D01*
X121341001Y-111157001D02*
X121952001Y-110546001D01*
X117564237Y-111157001D02*
X121341001Y-111157001D01*
X107992999Y-120728239D02*
X117564237Y-111157001D01*
X107061761Y-122337001D02*
X107992999Y-121405763D01*
X100938239Y-122337001D02*
X107061761Y-122337001D01*
X100372999Y-121094237D02*
X100372999Y-121771761D01*
X99441761Y-120162999D02*
X100372999Y-121094237D01*
X100372999Y-121771761D02*
X100938239Y-122337001D01*
X93318239Y-120162999D02*
X99441761Y-120162999D01*
X92752999Y-120728239D02*
X93318239Y-120162999D01*
X92752999Y-121771761D02*
X92752999Y-120728239D01*
X93318239Y-122337001D02*
X92752999Y-121771761D01*
X94290591Y-122337001D02*
X93318239Y-122337001D01*
X94981591Y-123028001D02*
X94290591Y-122337001D01*
X95618001Y-123028001D02*
X94981591Y-123028001D01*
X107992999Y-121405763D02*
X107992999Y-120728239D01*
X96380000Y-123790000D02*
X95618001Y-123028001D01*
X91300000Y-136490000D02*
X83058000Y-128248000D01*
X83058000Y-128248000D02*
X83036000Y-128248000D01*
X81367999Y-112990999D02*
X80518000Y-112141000D01*
X81693001Y-126905001D02*
X81693001Y-113316001D01*
X81693001Y-113316001D02*
X81367999Y-112990999D01*
X83036000Y-128248000D02*
X81693001Y-126905001D01*
X80518000Y-128248000D02*
X80518000Y-114681000D01*
X88760000Y-136490000D02*
X80518000Y-128248000D01*
X100663990Y-133153990D02*
X92259990Y-133153990D01*
X104000000Y-136490000D02*
X100663990Y-133153990D01*
X92259990Y-133153990D02*
X91440000Y-132334000D01*
X101460000Y-136490000D02*
X98574000Y-133604000D01*
X98574000Y-133604000D02*
X91440000Y-133604000D01*
D20*
G36*
X125228000Y-158248000D02*
G01*
X27172000Y-158248000D01*
X27172000Y-146406891D01*
X94570519Y-146406891D01*
X94667843Y-146681252D01*
X94816822Y-146931355D01*
X95011731Y-147147588D01*
X95245080Y-147321641D01*
X95507901Y-147446825D01*
X95655110Y-147491476D01*
X95885000Y-147370155D01*
X95885000Y-146177000D01*
X94691186Y-146177000D01*
X94570519Y-146406891D01*
X27172000Y-146406891D01*
X27172000Y-118120037D01*
X33845000Y-118120037D01*
X33845000Y-118607963D01*
X33940190Y-119086514D01*
X34126911Y-119537299D01*
X34397989Y-119942995D01*
X34743005Y-120288011D01*
X35148701Y-120559089D01*
X35599486Y-120745810D01*
X36078037Y-120841000D01*
X36565963Y-120841000D01*
X37044514Y-120745810D01*
X37495299Y-120559089D01*
X37900995Y-120288011D01*
X38246011Y-119942995D01*
X38517089Y-119537299D01*
X38703810Y-119086514D01*
X38799000Y-118607963D01*
X38799000Y-118241969D01*
X40163000Y-118241969D01*
X40163000Y-118486031D01*
X40210614Y-118725403D01*
X40304012Y-118950887D01*
X40439606Y-119153816D01*
X40612184Y-119326394D01*
X40815113Y-119461988D01*
X41040597Y-119555386D01*
X41279969Y-119603000D01*
X41524031Y-119603000D01*
X41763403Y-119555386D01*
X41988887Y-119461988D01*
X42191816Y-119326394D01*
X42364394Y-119153816D01*
X42499988Y-118950887D01*
X42593386Y-118725403D01*
X42641000Y-118486031D01*
X42641000Y-118241969D01*
X42703000Y-118241969D01*
X42703000Y-118486031D01*
X42750614Y-118725403D01*
X42844012Y-118950887D01*
X42979606Y-119153816D01*
X43152184Y-119326394D01*
X43355113Y-119461988D01*
X43580597Y-119555386D01*
X43819969Y-119603000D01*
X44064031Y-119603000D01*
X44303403Y-119555386D01*
X44528887Y-119461988D01*
X44731816Y-119326394D01*
X44904394Y-119153816D01*
X45039988Y-118950887D01*
X45133386Y-118725403D01*
X45181000Y-118486031D01*
X45181000Y-118241969D01*
X45243000Y-118241969D01*
X45243000Y-118486031D01*
X45290614Y-118725403D01*
X45384012Y-118950887D01*
X45519606Y-119153816D01*
X45692184Y-119326394D01*
X45895113Y-119461988D01*
X46120597Y-119555386D01*
X46359969Y-119603000D01*
X46604031Y-119603000D01*
X46843403Y-119555386D01*
X47068887Y-119461988D01*
X47271816Y-119326394D01*
X47444394Y-119153816D01*
X47579988Y-118950887D01*
X47673386Y-118725403D01*
X47721000Y-118486031D01*
X47721000Y-118241969D01*
X47783000Y-118241969D01*
X47783000Y-118486031D01*
X47830614Y-118725403D01*
X47924012Y-118950887D01*
X48059606Y-119153816D01*
X48232184Y-119326394D01*
X48435113Y-119461988D01*
X48660597Y-119555386D01*
X48899969Y-119603000D01*
X49144031Y-119603000D01*
X49383403Y-119555386D01*
X49608887Y-119461988D01*
X49811816Y-119326394D01*
X49984394Y-119153816D01*
X50119988Y-118950887D01*
X50213386Y-118725403D01*
X50261000Y-118486031D01*
X50261000Y-118241969D01*
X50216932Y-118020423D01*
X50471603Y-117765752D01*
X50464012Y-117777113D01*
X50370614Y-118002597D01*
X50323000Y-118241969D01*
X50323000Y-118486031D01*
X50370614Y-118725403D01*
X50464012Y-118950887D01*
X50599606Y-119153816D01*
X50772184Y-119326394D01*
X50975113Y-119461988D01*
X51200597Y-119555386D01*
X51439969Y-119603000D01*
X51684031Y-119603000D01*
X51923403Y-119555386D01*
X52148887Y-119461988D01*
X52347070Y-119329565D01*
X53316040Y-119329565D01*
X53383020Y-119569656D01*
X53632048Y-119686756D01*
X53899135Y-119753023D01*
X54174017Y-119765910D01*
X54446133Y-119724922D01*
X54705023Y-119631636D01*
X54820980Y-119569656D01*
X54887960Y-119329565D01*
X54102000Y-118543605D01*
X53316040Y-119329565D01*
X52347070Y-119329565D01*
X52351816Y-119326394D01*
X52524394Y-119153816D01*
X52659988Y-118950887D01*
X52750132Y-118733259D01*
X52834364Y-118967023D01*
X52896344Y-119082980D01*
X53136435Y-119149960D01*
X53922395Y-118364000D01*
X53908253Y-118349858D01*
X54087858Y-118170253D01*
X54102000Y-118184395D01*
X54887960Y-117398435D01*
X54820980Y-117158344D01*
X54571952Y-117041244D01*
X54304865Y-116974977D01*
X54029983Y-116962090D01*
X53777188Y-117000168D01*
X56129357Y-114648000D01*
X62234645Y-114648000D01*
X64958416Y-117371772D01*
X64977263Y-117394737D01*
X65068929Y-117469966D01*
X65173510Y-117525866D01*
X65286988Y-117560289D01*
X65375434Y-117569000D01*
X65375443Y-117569000D01*
X65405000Y-117571911D01*
X65434556Y-117569000D01*
X75662444Y-117569000D01*
X75692000Y-117571911D01*
X75721556Y-117569000D01*
X75721566Y-117569000D01*
X75810012Y-117560289D01*
X75923490Y-117525866D01*
X76028071Y-117469966D01*
X76119737Y-117394737D01*
X76138589Y-117371766D01*
X77567247Y-115943110D01*
X77717863Y-115988799D01*
X77912816Y-116008000D01*
X78043184Y-116008000D01*
X78238137Y-115988799D01*
X78488278Y-115912919D01*
X78718808Y-115789698D01*
X78741000Y-115771486D01*
X78740999Y-127679853D01*
X78738088Y-127709409D01*
X78740999Y-127738965D01*
X78740999Y-127738974D01*
X78749710Y-127827420D01*
X78784133Y-127940898D01*
X78840033Y-128045479D01*
X78915262Y-128137146D01*
X78938233Y-128155998D01*
X85906672Y-135124438D01*
X85875867Y-135129078D01*
X85616977Y-135222364D01*
X85501020Y-135284344D01*
X85434040Y-135524435D01*
X86220000Y-136310395D01*
X86234143Y-136296253D01*
X86413748Y-136475858D01*
X86399605Y-136490000D01*
X87097272Y-137187667D01*
X87114133Y-137243250D01*
X87170033Y-137347831D01*
X87245262Y-137439498D01*
X87268232Y-137458349D01*
X87791659Y-137981778D01*
X87810502Y-138004738D01*
X87833462Y-138023581D01*
X87833466Y-138023585D01*
X87889155Y-138069287D01*
X87902168Y-138079967D01*
X88006749Y-138135867D01*
X88120227Y-138170290D01*
X88208673Y-138179001D01*
X88208682Y-138179001D01*
X88238238Y-138181912D01*
X88267795Y-138179001D01*
X91792205Y-138179001D01*
X91821761Y-138181912D01*
X91851317Y-138179001D01*
X91851327Y-138179001D01*
X91939773Y-138170290D01*
X92053251Y-138135867D01*
X92157832Y-138079967D01*
X92249498Y-138004738D01*
X92268349Y-137981768D01*
X92791778Y-137458341D01*
X92814738Y-137439498D01*
X92833581Y-137416538D01*
X92833585Y-137416534D01*
X92889966Y-137347833D01*
X92889968Y-137347831D01*
X92909353Y-137311563D01*
X93050184Y-137452394D01*
X93253113Y-137587988D01*
X93478597Y-137681386D01*
X93717969Y-137729000D01*
X93962031Y-137729000D01*
X94183575Y-137684932D01*
X94197226Y-137698583D01*
X94197237Y-137698592D01*
X97434425Y-140935781D01*
X97453273Y-140958747D01*
X97544939Y-141033976D01*
X97649520Y-141089876D01*
X97762998Y-141124299D01*
X97851444Y-141133010D01*
X97851453Y-141133010D01*
X97881010Y-141135921D01*
X97910566Y-141133010D01*
X104682657Y-141133010D01*
X105789090Y-142239444D01*
X105661722Y-142278081D01*
X105431192Y-142401302D01*
X105229130Y-142567130D01*
X105063302Y-142769192D01*
X104940081Y-142999722D01*
X104902000Y-143125257D01*
X104863919Y-142999722D01*
X104740698Y-142769192D01*
X104574870Y-142567130D01*
X104372808Y-142401302D01*
X104142278Y-142278081D01*
X103892137Y-142202201D01*
X103697184Y-142183000D01*
X103566816Y-142183000D01*
X103371863Y-142202201D01*
X103121722Y-142278081D01*
X102891192Y-142401302D01*
X102689130Y-142567130D01*
X102523302Y-142769192D01*
X102400081Y-142999722D01*
X102362000Y-143125257D01*
X102323919Y-142999722D01*
X102200698Y-142769192D01*
X102034870Y-142567130D01*
X101832808Y-142401302D01*
X101602278Y-142278081D01*
X101352137Y-142202201D01*
X101157184Y-142183000D01*
X101026816Y-142183000D01*
X100831863Y-142202201D01*
X100581722Y-142278081D01*
X100351192Y-142401302D01*
X100149130Y-142567130D01*
X99983302Y-142769192D01*
X99860081Y-142999722D01*
X99822000Y-143125257D01*
X99783919Y-142999722D01*
X99660698Y-142769192D01*
X99494870Y-142567130D01*
X99292808Y-142401302D01*
X99062278Y-142278081D01*
X98812137Y-142202201D01*
X98617184Y-142183000D01*
X98486816Y-142183000D01*
X98291863Y-142202201D01*
X98041722Y-142278081D01*
X97811192Y-142401302D01*
X97609130Y-142567130D01*
X97443302Y-142769192D01*
X97341307Y-142960011D01*
X97341307Y-142660000D01*
X97332097Y-142566492D01*
X97304822Y-142476577D01*
X97260529Y-142393711D01*
X97200921Y-142321079D01*
X97128289Y-142261471D01*
X97045423Y-142217178D01*
X96955508Y-142189903D01*
X96862000Y-142180693D01*
X95162000Y-142180693D01*
X95068492Y-142189903D01*
X94978577Y-142217178D01*
X94895711Y-142261471D01*
X94823079Y-142321079D01*
X94763471Y-142393711D01*
X94719178Y-142476577D01*
X94691903Y-142566492D01*
X94682693Y-142660000D01*
X94682693Y-142908000D01*
X77973356Y-142908000D01*
X75503589Y-140438234D01*
X75484737Y-140415263D01*
X75461770Y-140396415D01*
X75334771Y-140269416D01*
X75266071Y-140213035D01*
X75161489Y-140157134D01*
X75048012Y-140122712D01*
X74930000Y-140111089D01*
X74811988Y-140122712D01*
X74698511Y-140157134D01*
X74593929Y-140213035D01*
X74559853Y-140241000D01*
X61336357Y-140241000D01*
X58550922Y-137455565D01*
X85434040Y-137455565D01*
X85501020Y-137695656D01*
X85750048Y-137812756D01*
X86017135Y-137879023D01*
X86292017Y-137891910D01*
X86564133Y-137850922D01*
X86823023Y-137757636D01*
X86938980Y-137695656D01*
X87005960Y-137455565D01*
X86220000Y-136669605D01*
X85434040Y-137455565D01*
X58550922Y-137455565D01*
X57657373Y-136562017D01*
X84818090Y-136562017D01*
X84859078Y-136834133D01*
X84952364Y-137093023D01*
X85014344Y-137208980D01*
X85254435Y-137275960D01*
X86040395Y-136490000D01*
X85254435Y-135704040D01*
X85014344Y-135771020D01*
X84897244Y-136020048D01*
X84830977Y-136287135D01*
X84818090Y-136562017D01*
X57657373Y-136562017D01*
X57244000Y-136148645D01*
X57244000Y-119451890D01*
X57431816Y-119326394D01*
X57604394Y-119153816D01*
X57739988Y-118950887D01*
X57833386Y-118725403D01*
X57881000Y-118486031D01*
X57881000Y-118241969D01*
X57856747Y-118120037D01*
X59245000Y-118120037D01*
X59245000Y-118607963D01*
X59340190Y-119086514D01*
X59526911Y-119537299D01*
X59797989Y-119942995D01*
X60143005Y-120288011D01*
X60548701Y-120559089D01*
X60999486Y-120745810D01*
X61478037Y-120841000D01*
X61965963Y-120841000D01*
X62444514Y-120745810D01*
X62895299Y-120559089D01*
X63300995Y-120288011D01*
X63646011Y-119942995D01*
X63917089Y-119537299D01*
X64103810Y-119086514D01*
X64199000Y-118607963D01*
X64199000Y-118120037D01*
X64103810Y-117641486D01*
X63917089Y-117190701D01*
X63646011Y-116785005D01*
X63300995Y-116439989D01*
X62895299Y-116168911D01*
X62444514Y-115982190D01*
X61965963Y-115887000D01*
X61478037Y-115887000D01*
X60999486Y-115982190D01*
X60548701Y-116168911D01*
X60143005Y-116439989D01*
X59797989Y-116785005D01*
X59526911Y-117190701D01*
X59340190Y-117641486D01*
X59245000Y-118120037D01*
X57856747Y-118120037D01*
X57833386Y-118002597D01*
X57739988Y-117777113D01*
X57604394Y-117574184D01*
X57431816Y-117401606D01*
X57228887Y-117266012D01*
X57003403Y-117172614D01*
X56764031Y-117125000D01*
X56519969Y-117125000D01*
X56280597Y-117172614D01*
X56055113Y-117266012D01*
X55852184Y-117401606D01*
X55679606Y-117574184D01*
X55544012Y-117777113D01*
X55453868Y-117994741D01*
X55369636Y-117760977D01*
X55307656Y-117645020D01*
X55067565Y-117578040D01*
X54281605Y-118364000D01*
X55067565Y-119149960D01*
X55307656Y-119082980D01*
X55424756Y-118833952D01*
X55451286Y-118727025D01*
X55544012Y-118950887D01*
X55679606Y-119153816D01*
X55852184Y-119326394D01*
X56040001Y-119451890D01*
X56040000Y-136368444D01*
X56037089Y-136398000D01*
X56040000Y-136427556D01*
X56040000Y-136427565D01*
X56048711Y-136516011D01*
X56083134Y-136629489D01*
X56139034Y-136734070D01*
X56214263Y-136825737D01*
X56237234Y-136844589D01*
X60640420Y-141247777D01*
X60659263Y-141270737D01*
X60682223Y-141289580D01*
X60682227Y-141289584D01*
X60719304Y-141320012D01*
X60750929Y-141345966D01*
X60855510Y-141401866D01*
X60968988Y-141436289D01*
X61057434Y-141445000D01*
X61057443Y-141445000D01*
X61086999Y-141447911D01*
X61116556Y-141445000D01*
X74807645Y-141445000D01*
X77277415Y-143914771D01*
X77296263Y-143937737D01*
X77319228Y-143956584D01*
X77387928Y-144012966D01*
X77492510Y-144068866D01*
X77605987Y-144103289D01*
X77617182Y-144104391D01*
X77694434Y-144112000D01*
X77694441Y-144112000D01*
X77724000Y-144114911D01*
X77753559Y-144112000D01*
X94682693Y-144112000D01*
X94682693Y-144360000D01*
X94691903Y-144453508D01*
X94719178Y-144543423D01*
X94763471Y-144626289D01*
X94823079Y-144698921D01*
X94895711Y-144758529D01*
X94978577Y-144802822D01*
X95068492Y-144830097D01*
X95162000Y-144839307D01*
X95163368Y-144839307D01*
X95011731Y-144952412D01*
X94816822Y-145168645D01*
X94667843Y-145418748D01*
X94570519Y-145693109D01*
X94691186Y-145923000D01*
X95885000Y-145923000D01*
X95885000Y-145903000D01*
X96139000Y-145903000D01*
X96139000Y-145923000D01*
X96159000Y-145923000D01*
X96159000Y-146177000D01*
X96139000Y-146177000D01*
X96139000Y-147370155D01*
X96368890Y-147491476D01*
X96516099Y-147446825D01*
X96778920Y-147321641D01*
X97012269Y-147147588D01*
X97207178Y-146931355D01*
X97356157Y-146681252D01*
X97367560Y-146649105D01*
X97443302Y-146790808D01*
X97609130Y-146992870D01*
X97811192Y-147158698D01*
X98041722Y-147281919D01*
X98291863Y-147357799D01*
X98486816Y-147377000D01*
X98617184Y-147377000D01*
X98812137Y-147357799D01*
X98962753Y-147312110D01*
X98997226Y-147346583D01*
X99065927Y-147402964D01*
X99170509Y-147458865D01*
X99283986Y-147493287D01*
X99401998Y-147504910D01*
X99520011Y-147493287D01*
X99633488Y-147458865D01*
X99738070Y-147402964D01*
X99829736Y-147327736D01*
X99904964Y-147236070D01*
X99960865Y-147131488D01*
X99995287Y-147018011D01*
X100006910Y-146899998D01*
X99997909Y-146808607D01*
X100149130Y-146992870D01*
X100351192Y-147158698D01*
X100581722Y-147281919D01*
X100831863Y-147357799D01*
X101026816Y-147377000D01*
X101157184Y-147377000D01*
X101352137Y-147357799D01*
X101602278Y-147281919D01*
X101832808Y-147158698D01*
X102034870Y-146992870D01*
X102200698Y-146790808D01*
X102323919Y-146560278D01*
X102362000Y-146434743D01*
X102400081Y-146560278D01*
X102523302Y-146790808D01*
X102689130Y-146992870D01*
X102891192Y-147158698D01*
X103121722Y-147281919D01*
X103371863Y-147357799D01*
X103566816Y-147377000D01*
X103697184Y-147377000D01*
X103892137Y-147357799D01*
X104142278Y-147281919D01*
X104372808Y-147158698D01*
X104547555Y-147015287D01*
X104549791Y-147018011D01*
X104569263Y-147041738D01*
X104592228Y-147060585D01*
X105611428Y-148079787D01*
X105630271Y-148102747D01*
X105653231Y-148121590D01*
X105653235Y-148121594D01*
X105708924Y-148167296D01*
X105721937Y-148177976D01*
X105826518Y-148233876D01*
X105939996Y-148268299D01*
X106028442Y-148277010D01*
X106028451Y-148277010D01*
X106058007Y-148279921D01*
X106087564Y-148277010D01*
X118805457Y-148277010D01*
X117824467Y-149258000D01*
X114430265Y-149258000D01*
X114351055Y-149178790D01*
X114207415Y-149082813D01*
X114047811Y-149016703D01*
X113878377Y-148983000D01*
X113705623Y-148983000D01*
X113536189Y-149016703D01*
X113376585Y-149082813D01*
X113232945Y-149178790D01*
X113110790Y-149300945D01*
X113014813Y-149444585D01*
X112948703Y-149604189D01*
X112915000Y-149773623D01*
X112915000Y-149946377D01*
X112948703Y-150115811D01*
X113014813Y-150275415D01*
X113110790Y-150419055D01*
X113232945Y-150541210D01*
X113376585Y-150637187D01*
X113536189Y-150703297D01*
X113705623Y-150737000D01*
X113878377Y-150737000D01*
X114047811Y-150703297D01*
X114207415Y-150637187D01*
X114351055Y-150541210D01*
X114430265Y-150462000D01*
X118044266Y-150462000D01*
X118073822Y-150464911D01*
X118103378Y-150462000D01*
X118103388Y-150462000D01*
X118191834Y-150453289D01*
X118305312Y-150418866D01*
X118409893Y-150362966D01*
X118501559Y-150287737D01*
X118520411Y-150264766D01*
X121801806Y-146983372D01*
X121824766Y-146964529D01*
X121843609Y-146941569D01*
X121843614Y-146941564D01*
X121899995Y-146872864D01*
X121955896Y-146768282D01*
X121990318Y-146654805D01*
X122001941Y-146536792D01*
X121999029Y-146507226D01*
X121999031Y-121827825D01*
X122001942Y-121798268D01*
X121999031Y-121768712D01*
X121999031Y-121768704D01*
X121990320Y-121680258D01*
X121955897Y-121566780D01*
X121955897Y-121566779D01*
X121899996Y-121462197D01*
X121843615Y-121393497D01*
X121843611Y-121393493D01*
X121824768Y-121370533D01*
X121801808Y-121351690D01*
X120208350Y-119758233D01*
X120189498Y-119735262D01*
X120097832Y-119660033D01*
X119993251Y-119604133D01*
X119879773Y-119569710D01*
X119791327Y-119560999D01*
X119791317Y-119560999D01*
X119761761Y-119558088D01*
X119732205Y-119560999D01*
X115276560Y-119560999D01*
X115247001Y-119558088D01*
X115217442Y-119560999D01*
X115217435Y-119560999D01*
X115140183Y-119568608D01*
X115128988Y-119569710D01*
X115015511Y-119604133D01*
X114910929Y-119660033D01*
X114878368Y-119686756D01*
X114819264Y-119735262D01*
X114800417Y-119758228D01*
X114503576Y-120055068D01*
X114282031Y-120011000D01*
X114037969Y-120011000D01*
X113798597Y-120058614D01*
X113573113Y-120152012D01*
X113370184Y-120287606D01*
X113197606Y-120460184D01*
X113062012Y-120663113D01*
X112968614Y-120888597D01*
X112921000Y-121127969D01*
X112921000Y-121372031D01*
X112968614Y-121611403D01*
X113062012Y-121836887D01*
X113069602Y-121848246D01*
X112828592Y-121607237D01*
X112828583Y-121607226D01*
X112814932Y-121593575D01*
X112859000Y-121372031D01*
X112859000Y-121127969D01*
X112811386Y-120888597D01*
X112717988Y-120663113D01*
X112582394Y-120460184D01*
X112409816Y-120287606D01*
X112206887Y-120152012D01*
X111981403Y-120058614D01*
X111742031Y-120011000D01*
X111497969Y-120011000D01*
X111258597Y-120058614D01*
X111033113Y-120152012D01*
X110830184Y-120287606D01*
X110657606Y-120460184D01*
X110522012Y-120663113D01*
X110428614Y-120888597D01*
X110381000Y-121127969D01*
X110381000Y-121372031D01*
X110428614Y-121611403D01*
X110522012Y-121836887D01*
X110657606Y-122039816D01*
X110830184Y-122212394D01*
X111033113Y-122347988D01*
X111258597Y-122441386D01*
X111497969Y-122489000D01*
X111742031Y-122489000D01*
X111963575Y-122444932D01*
X111977226Y-122458583D01*
X111977237Y-122458592D01*
X112105002Y-122586357D01*
X112105001Y-135349810D01*
X111981403Y-135298614D01*
X111742031Y-135251000D01*
X111497969Y-135251000D01*
X111258597Y-135298614D01*
X111033113Y-135392012D01*
X110830184Y-135527606D01*
X110769001Y-135588789D01*
X110769001Y-133091797D01*
X110771912Y-133062241D01*
X110769001Y-133032684D01*
X110769001Y-133032675D01*
X110760290Y-132944229D01*
X110725867Y-132830751D01*
X110669967Y-132726170D01*
X110594738Y-132634504D01*
X110571773Y-132615657D01*
X100893635Y-122937520D01*
X100908673Y-122939001D01*
X100908682Y-122939001D01*
X100938238Y-122941912D01*
X100967795Y-122939001D01*
X107032205Y-122939001D01*
X107061761Y-122941912D01*
X107091317Y-122939001D01*
X107091327Y-122939001D01*
X107179773Y-122930290D01*
X107293251Y-122895867D01*
X107397832Y-122839967D01*
X107489498Y-122764738D01*
X107508349Y-122741768D01*
X108163954Y-122086164D01*
X108290184Y-122212394D01*
X108493113Y-122347988D01*
X108718597Y-122441386D01*
X108957969Y-122489000D01*
X109202031Y-122489000D01*
X109441403Y-122441386D01*
X109666887Y-122347988D01*
X109869816Y-122212394D01*
X110042394Y-122039816D01*
X110177988Y-121836887D01*
X110271386Y-121611403D01*
X110319000Y-121372031D01*
X110319000Y-121127969D01*
X110271386Y-120888597D01*
X110177988Y-120663113D01*
X110042394Y-120460184D01*
X109869816Y-120287606D01*
X109666887Y-120152012D01*
X109492722Y-120079871D01*
X117813593Y-111759001D01*
X121311445Y-111759001D01*
X121341001Y-111761912D01*
X121370557Y-111759001D01*
X121370567Y-111759001D01*
X121459013Y-111750290D01*
X121572491Y-111715867D01*
X121677072Y-111659967D01*
X121768738Y-111584738D01*
X121787589Y-111561768D01*
X122356779Y-110992580D01*
X122379738Y-110973738D01*
X122398581Y-110950778D01*
X122398585Y-110950774D01*
X122454966Y-110882073D01*
X122454967Y-110882072D01*
X122510867Y-110777491D01*
X122545290Y-110664013D01*
X122554001Y-110575567D01*
X122554001Y-110575558D01*
X122556912Y-110546002D01*
X122554001Y-110516445D01*
X122554001Y-106361555D01*
X122556912Y-106331999D01*
X122554001Y-106302443D01*
X122554001Y-106302433D01*
X122545290Y-106213987D01*
X122510867Y-106100509D01*
X122454967Y-105995928D01*
X122379738Y-105904262D01*
X122356767Y-105885410D01*
X122333590Y-105862233D01*
X122314738Y-105839262D01*
X122223072Y-105764033D01*
X122118491Y-105708133D01*
X122005013Y-105673710D01*
X121916567Y-105664999D01*
X121916557Y-105664999D01*
X121887001Y-105662088D01*
X121857445Y-105664999D01*
X100860559Y-105664999D01*
X100831003Y-105662088D01*
X100801446Y-105664999D01*
X100801437Y-105664999D01*
X100712991Y-105673710D01*
X100599513Y-105708133D01*
X100494932Y-105764033D01*
X100403266Y-105839262D01*
X100384419Y-105862227D01*
X94607912Y-111638734D01*
X94562157Y-111509748D01*
X94413178Y-111259645D01*
X94218269Y-111043412D01*
X93984920Y-110869359D01*
X93722099Y-110744175D01*
X93574890Y-110699524D01*
X93345000Y-110820845D01*
X93345000Y-112014000D01*
X93365000Y-112014000D01*
X93365000Y-112268000D01*
X93345000Y-112268000D01*
X93345000Y-112288000D01*
X93091000Y-112288000D01*
X93091000Y-112268000D01*
X93071000Y-112268000D01*
X93071000Y-112014000D01*
X93091000Y-112014000D01*
X93091000Y-110820845D01*
X92861110Y-110699524D01*
X92713901Y-110744175D01*
X92451080Y-110869359D01*
X92217731Y-111043412D01*
X92022822Y-111259645D01*
X91873843Y-111509748D01*
X91862440Y-111541895D01*
X91786698Y-111400192D01*
X91620870Y-111198130D01*
X91418808Y-111032302D01*
X91188278Y-110909081D01*
X90938137Y-110833201D01*
X90743184Y-110814000D01*
X90612816Y-110814000D01*
X90417863Y-110833201D01*
X90167722Y-110909081D01*
X89937192Y-111032302D01*
X89735130Y-111198130D01*
X89569302Y-111400192D01*
X89446081Y-111630722D01*
X89408000Y-111756257D01*
X89369919Y-111630722D01*
X89246698Y-111400192D01*
X89080870Y-111198130D01*
X88878808Y-111032302D01*
X88648278Y-110909081D01*
X88398137Y-110833201D01*
X88203184Y-110814000D01*
X88072816Y-110814000D01*
X87877863Y-110833201D01*
X87727246Y-110878890D01*
X87409587Y-110561232D01*
X87390736Y-110538262D01*
X87299070Y-110463033D01*
X87194489Y-110407133D01*
X87081011Y-110372710D01*
X86992565Y-110363999D01*
X86992555Y-110363999D01*
X86962999Y-110361088D01*
X86933443Y-110363999D01*
X79983555Y-110363999D01*
X79953998Y-110361088D01*
X79924442Y-110363999D01*
X79924433Y-110363999D01*
X79835987Y-110372710D01*
X79722509Y-110407133D01*
X79617928Y-110463033D01*
X79617926Y-110463034D01*
X79617927Y-110463034D01*
X79549226Y-110519415D01*
X79549222Y-110519419D01*
X79526262Y-110538262D01*
X79507419Y-110561222D01*
X78938228Y-111130415D01*
X78915263Y-111149262D01*
X78896416Y-111172227D01*
X78896415Y-111172228D01*
X78893555Y-111175713D01*
X78718808Y-111032302D01*
X78488278Y-110909081D01*
X78238137Y-110833201D01*
X78043184Y-110814000D01*
X77912816Y-110814000D01*
X77717863Y-110833201D01*
X77467722Y-110909081D01*
X77237192Y-111032302D01*
X77035130Y-111198130D01*
X76869302Y-111400192D01*
X76746081Y-111630722D01*
X76708000Y-111756257D01*
X76669919Y-111630722D01*
X76546698Y-111400192D01*
X76380870Y-111198130D01*
X76178808Y-111032302D01*
X75948278Y-110909081D01*
X75698137Y-110833201D01*
X75503184Y-110814000D01*
X75372816Y-110814000D01*
X75177863Y-110833201D01*
X74927722Y-110909081D01*
X74697192Y-111032302D01*
X74495130Y-111198130D01*
X74329302Y-111400192D01*
X74206081Y-111630722D01*
X74168000Y-111756257D01*
X74129919Y-111630722D01*
X74006698Y-111400192D01*
X73840870Y-111198130D01*
X73638808Y-111032302D01*
X73408278Y-110909081D01*
X73158137Y-110833201D01*
X72963184Y-110814000D01*
X72832816Y-110814000D01*
X72637863Y-110833201D01*
X72387722Y-110909081D01*
X72157192Y-111032302D01*
X71955130Y-111198130D01*
X71789302Y-111400192D01*
X71666081Y-111630722D01*
X71628000Y-111756257D01*
X71589919Y-111630722D01*
X71466698Y-111400192D01*
X71300870Y-111198130D01*
X71098808Y-111032302D01*
X70868278Y-110909081D01*
X70618137Y-110833201D01*
X70423184Y-110814000D01*
X70292816Y-110814000D01*
X70097863Y-110833201D01*
X69847722Y-110909081D01*
X69617192Y-111032302D01*
X69415130Y-111198130D01*
X69249302Y-111400192D01*
X69126081Y-111630722D01*
X69050201Y-111880863D01*
X69024580Y-112141000D01*
X69050201Y-112401137D01*
X69126081Y-112651278D01*
X69159607Y-112714001D01*
X54099558Y-112714001D01*
X54069999Y-112711090D01*
X54040440Y-112714001D01*
X54040433Y-112714001D01*
X53963181Y-112721610D01*
X53951986Y-112722712D01*
X53838509Y-112757135D01*
X53733927Y-112813035D01*
X53669414Y-112865980D01*
X53642262Y-112888264D01*
X53623415Y-112911229D01*
X49365577Y-117169068D01*
X49144031Y-117125000D01*
X48899969Y-117125000D01*
X48660597Y-117172614D01*
X48435113Y-117266012D01*
X48232184Y-117401606D01*
X48059606Y-117574184D01*
X47924012Y-117777113D01*
X47830614Y-118002597D01*
X47783000Y-118241969D01*
X47721000Y-118241969D01*
X47673386Y-118002597D01*
X47579988Y-117777113D01*
X47444394Y-117574184D01*
X47271816Y-117401606D01*
X47068887Y-117266012D01*
X46843403Y-117172614D01*
X46604031Y-117125000D01*
X46359969Y-117125000D01*
X46120597Y-117172614D01*
X45895113Y-117266012D01*
X45692184Y-117401606D01*
X45519606Y-117574184D01*
X45384012Y-117777113D01*
X45290614Y-118002597D01*
X45243000Y-118241969D01*
X45181000Y-118241969D01*
X45133386Y-118002597D01*
X45039988Y-117777113D01*
X44904394Y-117574184D01*
X44731816Y-117401606D01*
X44528887Y-117266012D01*
X44303403Y-117172614D01*
X44064031Y-117125000D01*
X43819969Y-117125000D01*
X43580597Y-117172614D01*
X43355113Y-117266012D01*
X43152184Y-117401606D01*
X42979606Y-117574184D01*
X42844012Y-117777113D01*
X42750614Y-118002597D01*
X42703000Y-118241969D01*
X42641000Y-118241969D01*
X42593386Y-118002597D01*
X42499988Y-117777113D01*
X42364394Y-117574184D01*
X42191816Y-117401606D01*
X41988887Y-117266012D01*
X41763403Y-117172614D01*
X41524031Y-117125000D01*
X41279969Y-117125000D01*
X41040597Y-117172614D01*
X40815113Y-117266012D01*
X40612184Y-117401606D01*
X40439606Y-117574184D01*
X40304012Y-117777113D01*
X40210614Y-118002597D01*
X40163000Y-118241969D01*
X38799000Y-118241969D01*
X38799000Y-118120037D01*
X38703810Y-117641486D01*
X38517089Y-117190701D01*
X38246011Y-116785005D01*
X37900995Y-116439989D01*
X37495299Y-116168911D01*
X37044514Y-115982190D01*
X36565963Y-115887000D01*
X36078037Y-115887000D01*
X35599486Y-115982190D01*
X35148701Y-116168911D01*
X34743005Y-116439989D01*
X34397989Y-116785005D01*
X34126911Y-117190701D01*
X33940190Y-117641486D01*
X33845000Y-118120037D01*
X27172000Y-118120037D01*
X27172000Y-99562000D01*
X125228001Y-99562000D01*
X125228000Y-158248000D01*
X125228000Y-158248000D01*
G37*
X125228000Y-158248000D02*
X27172000Y-158248000D01*
X27172000Y-146406891D01*
X94570519Y-146406891D01*
X94667843Y-146681252D01*
X94816822Y-146931355D01*
X95011731Y-147147588D01*
X95245080Y-147321641D01*
X95507901Y-147446825D01*
X95655110Y-147491476D01*
X95885000Y-147370155D01*
X95885000Y-146177000D01*
X94691186Y-146177000D01*
X94570519Y-146406891D01*
X27172000Y-146406891D01*
X27172000Y-118120037D01*
X33845000Y-118120037D01*
X33845000Y-118607963D01*
X33940190Y-119086514D01*
X34126911Y-119537299D01*
X34397989Y-119942995D01*
X34743005Y-120288011D01*
X35148701Y-120559089D01*
X35599486Y-120745810D01*
X36078037Y-120841000D01*
X36565963Y-120841000D01*
X37044514Y-120745810D01*
X37495299Y-120559089D01*
X37900995Y-120288011D01*
X38246011Y-119942995D01*
X38517089Y-119537299D01*
X38703810Y-119086514D01*
X38799000Y-118607963D01*
X38799000Y-118241969D01*
X40163000Y-118241969D01*
X40163000Y-118486031D01*
X40210614Y-118725403D01*
X40304012Y-118950887D01*
X40439606Y-119153816D01*
X40612184Y-119326394D01*
X40815113Y-119461988D01*
X41040597Y-119555386D01*
X41279969Y-119603000D01*
X41524031Y-119603000D01*
X41763403Y-119555386D01*
X41988887Y-119461988D01*
X42191816Y-119326394D01*
X42364394Y-119153816D01*
X42499988Y-118950887D01*
X42593386Y-118725403D01*
X42641000Y-118486031D01*
X42641000Y-118241969D01*
X42703000Y-118241969D01*
X42703000Y-118486031D01*
X42750614Y-118725403D01*
X42844012Y-118950887D01*
X42979606Y-119153816D01*
X43152184Y-119326394D01*
X43355113Y-119461988D01*
X43580597Y-119555386D01*
X43819969Y-119603000D01*
X44064031Y-119603000D01*
X44303403Y-119555386D01*
X44528887Y-119461988D01*
X44731816Y-119326394D01*
X44904394Y-119153816D01*
X45039988Y-118950887D01*
X45133386Y-118725403D01*
X45181000Y-118486031D01*
X45181000Y-118241969D01*
X45243000Y-118241969D01*
X45243000Y-118486031D01*
X45290614Y-118725403D01*
X45384012Y-118950887D01*
X45519606Y-119153816D01*
X45692184Y-119326394D01*
X45895113Y-119461988D01*
X46120597Y-119555386D01*
X46359969Y-119603000D01*
X46604031Y-119603000D01*
X46843403Y-119555386D01*
X47068887Y-119461988D01*
X47271816Y-119326394D01*
X47444394Y-119153816D01*
X47579988Y-118950887D01*
X47673386Y-118725403D01*
X47721000Y-118486031D01*
X47721000Y-118241969D01*
X47783000Y-118241969D01*
X47783000Y-118486031D01*
X47830614Y-118725403D01*
X47924012Y-118950887D01*
X48059606Y-119153816D01*
X48232184Y-119326394D01*
X48435113Y-119461988D01*
X48660597Y-119555386D01*
X48899969Y-119603000D01*
X49144031Y-119603000D01*
X49383403Y-119555386D01*
X49608887Y-119461988D01*
X49811816Y-119326394D01*
X49984394Y-119153816D01*
X50119988Y-118950887D01*
X50213386Y-118725403D01*
X50261000Y-118486031D01*
X50261000Y-118241969D01*
X50216932Y-118020423D01*
X50471603Y-117765752D01*
X50464012Y-117777113D01*
X50370614Y-118002597D01*
X50323000Y-118241969D01*
X50323000Y-118486031D01*
X50370614Y-118725403D01*
X50464012Y-118950887D01*
X50599606Y-119153816D01*
X50772184Y-119326394D01*
X50975113Y-119461988D01*
X51200597Y-119555386D01*
X51439969Y-119603000D01*
X51684031Y-119603000D01*
X51923403Y-119555386D01*
X52148887Y-119461988D01*
X52347070Y-119329565D01*
X53316040Y-119329565D01*
X53383020Y-119569656D01*
X53632048Y-119686756D01*
X53899135Y-119753023D01*
X54174017Y-119765910D01*
X54446133Y-119724922D01*
X54705023Y-119631636D01*
X54820980Y-119569656D01*
X54887960Y-119329565D01*
X54102000Y-118543605D01*
X53316040Y-119329565D01*
X52347070Y-119329565D01*
X52351816Y-119326394D01*
X52524394Y-119153816D01*
X52659988Y-118950887D01*
X52750132Y-118733259D01*
X52834364Y-118967023D01*
X52896344Y-119082980D01*
X53136435Y-119149960D01*
X53922395Y-118364000D01*
X53908253Y-118349858D01*
X54087858Y-118170253D01*
X54102000Y-118184395D01*
X54887960Y-117398435D01*
X54820980Y-117158344D01*
X54571952Y-117041244D01*
X54304865Y-116974977D01*
X54029983Y-116962090D01*
X53777188Y-117000168D01*
X56129357Y-114648000D01*
X62234645Y-114648000D01*
X64958416Y-117371772D01*
X64977263Y-117394737D01*
X65068929Y-117469966D01*
X65173510Y-117525866D01*
X65286988Y-117560289D01*
X65375434Y-117569000D01*
X65375443Y-117569000D01*
X65405000Y-117571911D01*
X65434556Y-117569000D01*
X75662444Y-117569000D01*
X75692000Y-117571911D01*
X75721556Y-117569000D01*
X75721566Y-117569000D01*
X75810012Y-117560289D01*
X75923490Y-117525866D01*
X76028071Y-117469966D01*
X76119737Y-117394737D01*
X76138589Y-117371766D01*
X77567247Y-115943110D01*
X77717863Y-115988799D01*
X77912816Y-116008000D01*
X78043184Y-116008000D01*
X78238137Y-115988799D01*
X78488278Y-115912919D01*
X78718808Y-115789698D01*
X78741000Y-115771486D01*
X78740999Y-127679853D01*
X78738088Y-127709409D01*
X78740999Y-127738965D01*
X78740999Y-127738974D01*
X78749710Y-127827420D01*
X78784133Y-127940898D01*
X78840033Y-128045479D01*
X78915262Y-128137146D01*
X78938233Y-128155998D01*
X85906672Y-135124438D01*
X85875867Y-135129078D01*
X85616977Y-135222364D01*
X85501020Y-135284344D01*
X85434040Y-135524435D01*
X86220000Y-136310395D01*
X86234143Y-136296253D01*
X86413748Y-136475858D01*
X86399605Y-136490000D01*
X87097272Y-137187667D01*
X87114133Y-137243250D01*
X87170033Y-137347831D01*
X87245262Y-137439498D01*
X87268232Y-137458349D01*
X87791659Y-137981778D01*
X87810502Y-138004738D01*
X87833462Y-138023581D01*
X87833466Y-138023585D01*
X87889155Y-138069287D01*
X87902168Y-138079967D01*
X88006749Y-138135867D01*
X88120227Y-138170290D01*
X88208673Y-138179001D01*
X88208682Y-138179001D01*
X88238238Y-138181912D01*
X88267795Y-138179001D01*
X91792205Y-138179001D01*
X91821761Y-138181912D01*
X91851317Y-138179001D01*
X91851327Y-138179001D01*
X91939773Y-138170290D01*
X92053251Y-138135867D01*
X92157832Y-138079967D01*
X92249498Y-138004738D01*
X92268349Y-137981768D01*
X92791778Y-137458341D01*
X92814738Y-137439498D01*
X92833581Y-137416538D01*
X92833585Y-137416534D01*
X92889966Y-137347833D01*
X92889968Y-137347831D01*
X92909353Y-137311563D01*
X93050184Y-137452394D01*
X93253113Y-137587988D01*
X93478597Y-137681386D01*
X93717969Y-137729000D01*
X93962031Y-137729000D01*
X94183575Y-137684932D01*
X94197226Y-137698583D01*
X94197237Y-137698592D01*
X97434425Y-140935781D01*
X97453273Y-140958747D01*
X97544939Y-141033976D01*
X97649520Y-141089876D01*
X97762998Y-141124299D01*
X97851444Y-141133010D01*
X97851453Y-141133010D01*
X97881010Y-141135921D01*
X97910566Y-141133010D01*
X104682657Y-141133010D01*
X105789090Y-142239444D01*
X105661722Y-142278081D01*
X105431192Y-142401302D01*
X105229130Y-142567130D01*
X105063302Y-142769192D01*
X104940081Y-142999722D01*
X104902000Y-143125257D01*
X104863919Y-142999722D01*
X104740698Y-142769192D01*
X104574870Y-142567130D01*
X104372808Y-142401302D01*
X104142278Y-142278081D01*
X103892137Y-142202201D01*
X103697184Y-142183000D01*
X103566816Y-142183000D01*
X103371863Y-142202201D01*
X103121722Y-142278081D01*
X102891192Y-142401302D01*
X102689130Y-142567130D01*
X102523302Y-142769192D01*
X102400081Y-142999722D01*
X102362000Y-143125257D01*
X102323919Y-142999722D01*
X102200698Y-142769192D01*
X102034870Y-142567130D01*
X101832808Y-142401302D01*
X101602278Y-142278081D01*
X101352137Y-142202201D01*
X101157184Y-142183000D01*
X101026816Y-142183000D01*
X100831863Y-142202201D01*
X100581722Y-142278081D01*
X100351192Y-142401302D01*
X100149130Y-142567130D01*
X99983302Y-142769192D01*
X99860081Y-142999722D01*
X99822000Y-143125257D01*
X99783919Y-142999722D01*
X99660698Y-142769192D01*
X99494870Y-142567130D01*
X99292808Y-142401302D01*
X99062278Y-142278081D01*
X98812137Y-142202201D01*
X98617184Y-142183000D01*
X98486816Y-142183000D01*
X98291863Y-142202201D01*
X98041722Y-142278081D01*
X97811192Y-142401302D01*
X97609130Y-142567130D01*
X97443302Y-142769192D01*
X97341307Y-142960011D01*
X97341307Y-142660000D01*
X97332097Y-142566492D01*
X97304822Y-142476577D01*
X97260529Y-142393711D01*
X97200921Y-142321079D01*
X97128289Y-142261471D01*
X97045423Y-142217178D01*
X96955508Y-142189903D01*
X96862000Y-142180693D01*
X95162000Y-142180693D01*
X95068492Y-142189903D01*
X94978577Y-142217178D01*
X94895711Y-142261471D01*
X94823079Y-142321079D01*
X94763471Y-142393711D01*
X94719178Y-142476577D01*
X94691903Y-142566492D01*
X94682693Y-142660000D01*
X94682693Y-142908000D01*
X77973356Y-142908000D01*
X75503589Y-140438234D01*
X75484737Y-140415263D01*
X75461770Y-140396415D01*
X75334771Y-140269416D01*
X75266071Y-140213035D01*
X75161489Y-140157134D01*
X75048012Y-140122712D01*
X74930000Y-140111089D01*
X74811988Y-140122712D01*
X74698511Y-140157134D01*
X74593929Y-140213035D01*
X74559853Y-140241000D01*
X61336357Y-140241000D01*
X58550922Y-137455565D01*
X85434040Y-137455565D01*
X85501020Y-137695656D01*
X85750048Y-137812756D01*
X86017135Y-137879023D01*
X86292017Y-137891910D01*
X86564133Y-137850922D01*
X86823023Y-137757636D01*
X86938980Y-137695656D01*
X87005960Y-137455565D01*
X86220000Y-136669605D01*
X85434040Y-137455565D01*
X58550922Y-137455565D01*
X57657373Y-136562017D01*
X84818090Y-136562017D01*
X84859078Y-136834133D01*
X84952364Y-137093023D01*
X85014344Y-137208980D01*
X85254435Y-137275960D01*
X86040395Y-136490000D01*
X85254435Y-135704040D01*
X85014344Y-135771020D01*
X84897244Y-136020048D01*
X84830977Y-136287135D01*
X84818090Y-136562017D01*
X57657373Y-136562017D01*
X57244000Y-136148645D01*
X57244000Y-119451890D01*
X57431816Y-119326394D01*
X57604394Y-119153816D01*
X57739988Y-118950887D01*
X57833386Y-118725403D01*
X57881000Y-118486031D01*
X57881000Y-118241969D01*
X57856747Y-118120037D01*
X59245000Y-118120037D01*
X59245000Y-118607963D01*
X59340190Y-119086514D01*
X59526911Y-119537299D01*
X59797989Y-119942995D01*
X60143005Y-120288011D01*
X60548701Y-120559089D01*
X60999486Y-120745810D01*
X61478037Y-120841000D01*
X61965963Y-120841000D01*
X62444514Y-120745810D01*
X62895299Y-120559089D01*
X63300995Y-120288011D01*
X63646011Y-119942995D01*
X63917089Y-119537299D01*
X64103810Y-119086514D01*
X64199000Y-118607963D01*
X64199000Y-118120037D01*
X64103810Y-117641486D01*
X63917089Y-117190701D01*
X63646011Y-116785005D01*
X63300995Y-116439989D01*
X62895299Y-116168911D01*
X62444514Y-115982190D01*
X61965963Y-115887000D01*
X61478037Y-115887000D01*
X60999486Y-115982190D01*
X60548701Y-116168911D01*
X60143005Y-116439989D01*
X59797989Y-116785005D01*
X59526911Y-117190701D01*
X59340190Y-117641486D01*
X59245000Y-118120037D01*
X57856747Y-118120037D01*
X57833386Y-118002597D01*
X57739988Y-117777113D01*
X57604394Y-117574184D01*
X57431816Y-117401606D01*
X57228887Y-117266012D01*
X57003403Y-117172614D01*
X56764031Y-117125000D01*
X56519969Y-117125000D01*
X56280597Y-117172614D01*
X56055113Y-117266012D01*
X55852184Y-117401606D01*
X55679606Y-117574184D01*
X55544012Y-117777113D01*
X55453868Y-117994741D01*
X55369636Y-117760977D01*
X55307656Y-117645020D01*
X55067565Y-117578040D01*
X54281605Y-118364000D01*
X55067565Y-119149960D01*
X55307656Y-119082980D01*
X55424756Y-118833952D01*
X55451286Y-118727025D01*
X55544012Y-118950887D01*
X55679606Y-119153816D01*
X55852184Y-119326394D01*
X56040001Y-119451890D01*
X56040000Y-136368444D01*
X56037089Y-136398000D01*
X56040000Y-136427556D01*
X56040000Y-136427565D01*
X56048711Y-136516011D01*
X56083134Y-136629489D01*
X56139034Y-136734070D01*
X56214263Y-136825737D01*
X56237234Y-136844589D01*
X60640420Y-141247777D01*
X60659263Y-141270737D01*
X60682223Y-141289580D01*
X60682227Y-141289584D01*
X60719304Y-141320012D01*
X60750929Y-141345966D01*
X60855510Y-141401866D01*
X60968988Y-141436289D01*
X61057434Y-141445000D01*
X61057443Y-141445000D01*
X61086999Y-141447911D01*
X61116556Y-141445000D01*
X74807645Y-141445000D01*
X77277415Y-143914771D01*
X77296263Y-143937737D01*
X77319228Y-143956584D01*
X77387928Y-144012966D01*
X77492510Y-144068866D01*
X77605987Y-144103289D01*
X77617182Y-144104391D01*
X77694434Y-144112000D01*
X77694441Y-144112000D01*
X77724000Y-144114911D01*
X77753559Y-144112000D01*
X94682693Y-144112000D01*
X94682693Y-144360000D01*
X94691903Y-144453508D01*
X94719178Y-144543423D01*
X94763471Y-144626289D01*
X94823079Y-144698921D01*
X94895711Y-144758529D01*
X94978577Y-144802822D01*
X95068492Y-144830097D01*
X95162000Y-144839307D01*
X95163368Y-144839307D01*
X95011731Y-144952412D01*
X94816822Y-145168645D01*
X94667843Y-145418748D01*
X94570519Y-145693109D01*
X94691186Y-145923000D01*
X95885000Y-145923000D01*
X95885000Y-145903000D01*
X96139000Y-145903000D01*
X96139000Y-145923000D01*
X96159000Y-145923000D01*
X96159000Y-146177000D01*
X96139000Y-146177000D01*
X96139000Y-147370155D01*
X96368890Y-147491476D01*
X96516099Y-147446825D01*
X96778920Y-147321641D01*
X97012269Y-147147588D01*
X97207178Y-146931355D01*
X97356157Y-146681252D01*
X97367560Y-146649105D01*
X97443302Y-146790808D01*
X97609130Y-146992870D01*
X97811192Y-147158698D01*
X98041722Y-147281919D01*
X98291863Y-147357799D01*
X98486816Y-147377000D01*
X98617184Y-147377000D01*
X98812137Y-147357799D01*
X98962753Y-147312110D01*
X98997226Y-147346583D01*
X99065927Y-147402964D01*
X99170509Y-147458865D01*
X99283986Y-147493287D01*
X99401998Y-147504910D01*
X99520011Y-147493287D01*
X99633488Y-147458865D01*
X99738070Y-147402964D01*
X99829736Y-147327736D01*
X99904964Y-147236070D01*
X99960865Y-147131488D01*
X99995287Y-147018011D01*
X100006910Y-146899998D01*
X99997909Y-146808607D01*
X100149130Y-146992870D01*
X100351192Y-147158698D01*
X100581722Y-147281919D01*
X100831863Y-147357799D01*
X101026816Y-147377000D01*
X101157184Y-147377000D01*
X101352137Y-147357799D01*
X101602278Y-147281919D01*
X101832808Y-147158698D01*
X102034870Y-146992870D01*
X102200698Y-146790808D01*
X102323919Y-146560278D01*
X102362000Y-146434743D01*
X102400081Y-146560278D01*
X102523302Y-146790808D01*
X102689130Y-146992870D01*
X102891192Y-147158698D01*
X103121722Y-147281919D01*
X103371863Y-147357799D01*
X103566816Y-147377000D01*
X103697184Y-147377000D01*
X103892137Y-147357799D01*
X104142278Y-147281919D01*
X104372808Y-147158698D01*
X104547555Y-147015287D01*
X104549791Y-147018011D01*
X104569263Y-147041738D01*
X104592228Y-147060585D01*
X105611428Y-148079787D01*
X105630271Y-148102747D01*
X105653231Y-148121590D01*
X105653235Y-148121594D01*
X105708924Y-148167296D01*
X105721937Y-148177976D01*
X105826518Y-148233876D01*
X105939996Y-148268299D01*
X106028442Y-148277010D01*
X106028451Y-148277010D01*
X106058007Y-148279921D01*
X106087564Y-148277010D01*
X118805457Y-148277010D01*
X117824467Y-149258000D01*
X114430265Y-149258000D01*
X114351055Y-149178790D01*
X114207415Y-149082813D01*
X114047811Y-149016703D01*
X113878377Y-148983000D01*
X113705623Y-148983000D01*
X113536189Y-149016703D01*
X113376585Y-149082813D01*
X113232945Y-149178790D01*
X113110790Y-149300945D01*
X113014813Y-149444585D01*
X112948703Y-149604189D01*
X112915000Y-149773623D01*
X112915000Y-149946377D01*
X112948703Y-150115811D01*
X113014813Y-150275415D01*
X113110790Y-150419055D01*
X113232945Y-150541210D01*
X113376585Y-150637187D01*
X113536189Y-150703297D01*
X113705623Y-150737000D01*
X113878377Y-150737000D01*
X114047811Y-150703297D01*
X114207415Y-150637187D01*
X114351055Y-150541210D01*
X114430265Y-150462000D01*
X118044266Y-150462000D01*
X118073822Y-150464911D01*
X118103378Y-150462000D01*
X118103388Y-150462000D01*
X118191834Y-150453289D01*
X118305312Y-150418866D01*
X118409893Y-150362966D01*
X118501559Y-150287737D01*
X118520411Y-150264766D01*
X121801806Y-146983372D01*
X121824766Y-146964529D01*
X121843609Y-146941569D01*
X121843614Y-146941564D01*
X121899995Y-146872864D01*
X121955896Y-146768282D01*
X121990318Y-146654805D01*
X122001941Y-146536792D01*
X121999029Y-146507226D01*
X121999031Y-121827825D01*
X122001942Y-121798268D01*
X121999031Y-121768712D01*
X121999031Y-121768704D01*
X121990320Y-121680258D01*
X121955897Y-121566780D01*
X121955897Y-121566779D01*
X121899996Y-121462197D01*
X121843615Y-121393497D01*
X121843611Y-121393493D01*
X121824768Y-121370533D01*
X121801808Y-121351690D01*
X120208350Y-119758233D01*
X120189498Y-119735262D01*
X120097832Y-119660033D01*
X119993251Y-119604133D01*
X119879773Y-119569710D01*
X119791327Y-119560999D01*
X119791317Y-119560999D01*
X119761761Y-119558088D01*
X119732205Y-119560999D01*
X115276560Y-119560999D01*
X115247001Y-119558088D01*
X115217442Y-119560999D01*
X115217435Y-119560999D01*
X115140183Y-119568608D01*
X115128988Y-119569710D01*
X115015511Y-119604133D01*
X114910929Y-119660033D01*
X114878368Y-119686756D01*
X114819264Y-119735262D01*
X114800417Y-119758228D01*
X114503576Y-120055068D01*
X114282031Y-120011000D01*
X114037969Y-120011000D01*
X113798597Y-120058614D01*
X113573113Y-120152012D01*
X113370184Y-120287606D01*
X113197606Y-120460184D01*
X113062012Y-120663113D01*
X112968614Y-120888597D01*
X112921000Y-121127969D01*
X112921000Y-121372031D01*
X112968614Y-121611403D01*
X113062012Y-121836887D01*
X113069602Y-121848246D01*
X112828592Y-121607237D01*
X112828583Y-121607226D01*
X112814932Y-121593575D01*
X112859000Y-121372031D01*
X112859000Y-121127969D01*
X112811386Y-120888597D01*
X112717988Y-120663113D01*
X112582394Y-120460184D01*
X112409816Y-120287606D01*
X112206887Y-120152012D01*
X111981403Y-120058614D01*
X111742031Y-120011000D01*
X111497969Y-120011000D01*
X111258597Y-120058614D01*
X111033113Y-120152012D01*
X110830184Y-120287606D01*
X110657606Y-120460184D01*
X110522012Y-120663113D01*
X110428614Y-120888597D01*
X110381000Y-121127969D01*
X110381000Y-121372031D01*
X110428614Y-121611403D01*
X110522012Y-121836887D01*
X110657606Y-122039816D01*
X110830184Y-122212394D01*
X111033113Y-122347988D01*
X111258597Y-122441386D01*
X111497969Y-122489000D01*
X111742031Y-122489000D01*
X111963575Y-122444932D01*
X111977226Y-122458583D01*
X111977237Y-122458592D01*
X112105002Y-122586357D01*
X112105001Y-135349810D01*
X111981403Y-135298614D01*
X111742031Y-135251000D01*
X111497969Y-135251000D01*
X111258597Y-135298614D01*
X111033113Y-135392012D01*
X110830184Y-135527606D01*
X110769001Y-135588789D01*
X110769001Y-133091797D01*
X110771912Y-133062241D01*
X110769001Y-133032684D01*
X110769001Y-133032675D01*
X110760290Y-132944229D01*
X110725867Y-132830751D01*
X110669967Y-132726170D01*
X110594738Y-132634504D01*
X110571773Y-132615657D01*
X100893635Y-122937520D01*
X100908673Y-122939001D01*
X100908682Y-122939001D01*
X100938238Y-122941912D01*
X100967795Y-122939001D01*
X107032205Y-122939001D01*
X107061761Y-122941912D01*
X107091317Y-122939001D01*
X107091327Y-122939001D01*
X107179773Y-122930290D01*
X107293251Y-122895867D01*
X107397832Y-122839967D01*
X107489498Y-122764738D01*
X107508349Y-122741768D01*
X108163954Y-122086164D01*
X108290184Y-122212394D01*
X108493113Y-122347988D01*
X108718597Y-122441386D01*
X108957969Y-122489000D01*
X109202031Y-122489000D01*
X109441403Y-122441386D01*
X109666887Y-122347988D01*
X109869816Y-122212394D01*
X110042394Y-122039816D01*
X110177988Y-121836887D01*
X110271386Y-121611403D01*
X110319000Y-121372031D01*
X110319000Y-121127969D01*
X110271386Y-120888597D01*
X110177988Y-120663113D01*
X110042394Y-120460184D01*
X109869816Y-120287606D01*
X109666887Y-120152012D01*
X109492722Y-120079871D01*
X117813593Y-111759001D01*
X121311445Y-111759001D01*
X121341001Y-111761912D01*
X121370557Y-111759001D01*
X121370567Y-111759001D01*
X121459013Y-111750290D01*
X121572491Y-111715867D01*
X121677072Y-111659967D01*
X121768738Y-111584738D01*
X121787589Y-111561768D01*
X122356779Y-110992580D01*
X122379738Y-110973738D01*
X122398581Y-110950778D01*
X122398585Y-110950774D01*
X122454966Y-110882073D01*
X122454967Y-110882072D01*
X122510867Y-110777491D01*
X122545290Y-110664013D01*
X122554001Y-110575567D01*
X122554001Y-110575558D01*
X122556912Y-110546002D01*
X122554001Y-110516445D01*
X122554001Y-106361555D01*
X122556912Y-106331999D01*
X122554001Y-106302443D01*
X122554001Y-106302433D01*
X122545290Y-106213987D01*
X122510867Y-106100509D01*
X122454967Y-105995928D01*
X122379738Y-105904262D01*
X122356767Y-105885410D01*
X122333590Y-105862233D01*
X122314738Y-105839262D01*
X122223072Y-105764033D01*
X122118491Y-105708133D01*
X122005013Y-105673710D01*
X121916567Y-105664999D01*
X121916557Y-105664999D01*
X121887001Y-105662088D01*
X121857445Y-105664999D01*
X100860559Y-105664999D01*
X100831003Y-105662088D01*
X100801446Y-105664999D01*
X100801437Y-105664999D01*
X100712991Y-105673710D01*
X100599513Y-105708133D01*
X100494932Y-105764033D01*
X100403266Y-105839262D01*
X100384419Y-105862227D01*
X94607912Y-111638734D01*
X94562157Y-111509748D01*
X94413178Y-111259645D01*
X94218269Y-111043412D01*
X93984920Y-110869359D01*
X93722099Y-110744175D01*
X93574890Y-110699524D01*
X93345000Y-110820845D01*
X93345000Y-112014000D01*
X93365000Y-112014000D01*
X93365000Y-112268000D01*
X93345000Y-112268000D01*
X93345000Y-112288000D01*
X93091000Y-112288000D01*
X93091000Y-112268000D01*
X93071000Y-112268000D01*
X93071000Y-112014000D01*
X93091000Y-112014000D01*
X93091000Y-110820845D01*
X92861110Y-110699524D01*
X92713901Y-110744175D01*
X92451080Y-110869359D01*
X92217731Y-111043412D01*
X92022822Y-111259645D01*
X91873843Y-111509748D01*
X91862440Y-111541895D01*
X91786698Y-111400192D01*
X91620870Y-111198130D01*
X91418808Y-111032302D01*
X91188278Y-110909081D01*
X90938137Y-110833201D01*
X90743184Y-110814000D01*
X90612816Y-110814000D01*
X90417863Y-110833201D01*
X90167722Y-110909081D01*
X89937192Y-111032302D01*
X89735130Y-111198130D01*
X89569302Y-111400192D01*
X89446081Y-111630722D01*
X89408000Y-111756257D01*
X89369919Y-111630722D01*
X89246698Y-111400192D01*
X89080870Y-111198130D01*
X88878808Y-111032302D01*
X88648278Y-110909081D01*
X88398137Y-110833201D01*
X88203184Y-110814000D01*
X88072816Y-110814000D01*
X87877863Y-110833201D01*
X87727246Y-110878890D01*
X87409587Y-110561232D01*
X87390736Y-110538262D01*
X87299070Y-110463033D01*
X87194489Y-110407133D01*
X87081011Y-110372710D01*
X86992565Y-110363999D01*
X86992555Y-110363999D01*
X86962999Y-110361088D01*
X86933443Y-110363999D01*
X79983555Y-110363999D01*
X79953998Y-110361088D01*
X79924442Y-110363999D01*
X79924433Y-110363999D01*
X79835987Y-110372710D01*
X79722509Y-110407133D01*
X79617928Y-110463033D01*
X79617926Y-110463034D01*
X79617927Y-110463034D01*
X79549226Y-110519415D01*
X79549222Y-110519419D01*
X79526262Y-110538262D01*
X79507419Y-110561222D01*
X78938228Y-111130415D01*
X78915263Y-111149262D01*
X78896416Y-111172227D01*
X78896415Y-111172228D01*
X78893555Y-111175713D01*
X78718808Y-111032302D01*
X78488278Y-110909081D01*
X78238137Y-110833201D01*
X78043184Y-110814000D01*
X77912816Y-110814000D01*
X77717863Y-110833201D01*
X77467722Y-110909081D01*
X77237192Y-111032302D01*
X77035130Y-111198130D01*
X76869302Y-111400192D01*
X76746081Y-111630722D01*
X76708000Y-111756257D01*
X76669919Y-111630722D01*
X76546698Y-111400192D01*
X76380870Y-111198130D01*
X76178808Y-111032302D01*
X75948278Y-110909081D01*
X75698137Y-110833201D01*
X75503184Y-110814000D01*
X75372816Y-110814000D01*
X75177863Y-110833201D01*
X74927722Y-110909081D01*
X74697192Y-111032302D01*
X74495130Y-111198130D01*
X74329302Y-111400192D01*
X74206081Y-111630722D01*
X74168000Y-111756257D01*
X74129919Y-111630722D01*
X74006698Y-111400192D01*
X73840870Y-111198130D01*
X73638808Y-111032302D01*
X73408278Y-110909081D01*
X73158137Y-110833201D01*
X72963184Y-110814000D01*
X72832816Y-110814000D01*
X72637863Y-110833201D01*
X72387722Y-110909081D01*
X72157192Y-111032302D01*
X71955130Y-111198130D01*
X71789302Y-111400192D01*
X71666081Y-111630722D01*
X71628000Y-111756257D01*
X71589919Y-111630722D01*
X71466698Y-111400192D01*
X71300870Y-111198130D01*
X71098808Y-111032302D01*
X70868278Y-110909081D01*
X70618137Y-110833201D01*
X70423184Y-110814000D01*
X70292816Y-110814000D01*
X70097863Y-110833201D01*
X69847722Y-110909081D01*
X69617192Y-111032302D01*
X69415130Y-111198130D01*
X69249302Y-111400192D01*
X69126081Y-111630722D01*
X69050201Y-111880863D01*
X69024580Y-112141000D01*
X69050201Y-112401137D01*
X69126081Y-112651278D01*
X69159607Y-112714001D01*
X54099558Y-112714001D01*
X54069999Y-112711090D01*
X54040440Y-112714001D01*
X54040433Y-112714001D01*
X53963181Y-112721610D01*
X53951986Y-112722712D01*
X53838509Y-112757135D01*
X53733927Y-112813035D01*
X53669414Y-112865980D01*
X53642262Y-112888264D01*
X53623415Y-112911229D01*
X49365577Y-117169068D01*
X49144031Y-117125000D01*
X48899969Y-117125000D01*
X48660597Y-117172614D01*
X48435113Y-117266012D01*
X48232184Y-117401606D01*
X48059606Y-117574184D01*
X47924012Y-117777113D01*
X47830614Y-118002597D01*
X47783000Y-118241969D01*
X47721000Y-118241969D01*
X47673386Y-118002597D01*
X47579988Y-117777113D01*
X47444394Y-117574184D01*
X47271816Y-117401606D01*
X47068887Y-117266012D01*
X46843403Y-117172614D01*
X46604031Y-117125000D01*
X46359969Y-117125000D01*
X46120597Y-117172614D01*
X45895113Y-117266012D01*
X45692184Y-117401606D01*
X45519606Y-117574184D01*
X45384012Y-117777113D01*
X45290614Y-118002597D01*
X45243000Y-118241969D01*
X45181000Y-118241969D01*
X45133386Y-118002597D01*
X45039988Y-117777113D01*
X44904394Y-117574184D01*
X44731816Y-117401606D01*
X44528887Y-117266012D01*
X44303403Y-117172614D01*
X44064031Y-117125000D01*
X43819969Y-117125000D01*
X43580597Y-117172614D01*
X43355113Y-117266012D01*
X43152184Y-117401606D01*
X42979606Y-117574184D01*
X42844012Y-117777113D01*
X42750614Y-118002597D01*
X42703000Y-118241969D01*
X42641000Y-118241969D01*
X42593386Y-118002597D01*
X42499988Y-117777113D01*
X42364394Y-117574184D01*
X42191816Y-117401606D01*
X41988887Y-117266012D01*
X41763403Y-117172614D01*
X41524031Y-117125000D01*
X41279969Y-117125000D01*
X41040597Y-117172614D01*
X40815113Y-117266012D01*
X40612184Y-117401606D01*
X40439606Y-117574184D01*
X40304012Y-117777113D01*
X40210614Y-118002597D01*
X40163000Y-118241969D01*
X38799000Y-118241969D01*
X38799000Y-118120037D01*
X38703810Y-117641486D01*
X38517089Y-117190701D01*
X38246011Y-116785005D01*
X37900995Y-116439989D01*
X37495299Y-116168911D01*
X37044514Y-115982190D01*
X36565963Y-115887000D01*
X36078037Y-115887000D01*
X35599486Y-115982190D01*
X35148701Y-116168911D01*
X34743005Y-116439989D01*
X34397989Y-116785005D01*
X34126911Y-117190701D01*
X33940190Y-117641486D01*
X33845000Y-118120037D01*
X27172000Y-118120037D01*
X27172000Y-99562000D01*
X125228001Y-99562000D01*
X125228000Y-158248000D01*
G36*
X114854948Y-106869140D02*
G01*
X112357141Y-109366948D01*
X112324631Y-109393628D01*
X112297952Y-109426137D01*
X112218161Y-109523362D01*
X112139046Y-109671375D01*
X112105107Y-109783260D01*
X112093843Y-109820395D01*
X112090329Y-109831978D01*
X112073878Y-109998998D01*
X112078001Y-110040857D01*
X112078000Y-111435815D01*
X112036492Y-111439903D01*
X111946577Y-111467178D01*
X111863711Y-111511471D01*
X111791079Y-111571079D01*
X111731471Y-111643711D01*
X111687178Y-111726577D01*
X111659903Y-111816492D01*
X111650693Y-111910000D01*
X111650693Y-112320051D01*
X111561663Y-112105114D01*
X111421911Y-111895960D01*
X111244040Y-111718089D01*
X111034886Y-111578337D01*
X110802487Y-111482074D01*
X110555774Y-111433000D01*
X110304226Y-111433000D01*
X110057513Y-111482074D01*
X109825114Y-111578337D01*
X109615960Y-111718089D01*
X109438089Y-111895960D01*
X109430000Y-111908066D01*
X109421911Y-111895960D01*
X109244040Y-111718089D01*
X109034886Y-111578337D01*
X108802487Y-111482074D01*
X108555774Y-111433000D01*
X108304226Y-111433000D01*
X108057513Y-111482074D01*
X107825114Y-111578337D01*
X107615960Y-111718089D01*
X107438089Y-111895960D01*
X107298337Y-112105114D01*
X107265786Y-112183700D01*
X107233603Y-112093708D01*
X107166671Y-111968486D01*
X106922702Y-111896903D01*
X106109605Y-112710000D01*
X106922702Y-113523097D01*
X107166671Y-113451514D01*
X107267055Y-113239364D01*
X107298337Y-113314886D01*
X107438089Y-113524040D01*
X107615960Y-113701911D01*
X107825114Y-113841663D01*
X108057513Y-113937926D01*
X108304226Y-113987000D01*
X108555774Y-113987000D01*
X108802487Y-113937926D01*
X109034886Y-113841663D01*
X109244040Y-113701911D01*
X109421911Y-113524040D01*
X109430000Y-113511934D01*
X109438089Y-113524040D01*
X109615960Y-113701911D01*
X109825114Y-113841663D01*
X110057513Y-113937926D01*
X110304226Y-113987000D01*
X110555774Y-113987000D01*
X110802487Y-113937926D01*
X111034886Y-113841663D01*
X111244040Y-113701911D01*
X111421911Y-113524040D01*
X111561663Y-113314886D01*
X111650693Y-113099949D01*
X111650693Y-113510000D01*
X111659903Y-113603508D01*
X111687178Y-113693423D01*
X111731471Y-113776289D01*
X111791079Y-113848921D01*
X111863711Y-113908529D01*
X111946577Y-113952822D01*
X112012324Y-113972766D01*
X108727091Y-117258000D01*
X89401849Y-117258000D01*
X89360000Y-117253878D01*
X89318151Y-117258000D01*
X89318148Y-117258000D01*
X89192979Y-117270328D01*
X89032376Y-117319046D01*
X88884364Y-117398161D01*
X88754630Y-117504630D01*
X88727951Y-117537139D01*
X86254091Y-120011000D01*
X86097969Y-120011000D01*
X85858597Y-120058614D01*
X85734999Y-120109810D01*
X85734999Y-116878354D01*
X86002772Y-116610582D01*
X86025737Y-116591735D01*
X86100966Y-116500069D01*
X86156866Y-116395488D01*
X86191289Y-116282010D01*
X86200000Y-116193564D01*
X86200000Y-116193555D01*
X86202911Y-116163998D01*
X86200000Y-116134442D01*
X86200000Y-115863893D01*
X86338808Y-115789698D01*
X86540870Y-115623870D01*
X86706698Y-115421808D01*
X86829919Y-115191278D01*
X86868000Y-115065743D01*
X86906081Y-115191278D01*
X87029302Y-115421808D01*
X87195130Y-115623870D01*
X87397192Y-115789698D01*
X87627722Y-115912919D01*
X87877863Y-115988799D01*
X88072816Y-116008000D01*
X88203184Y-116008000D01*
X88398137Y-115988799D01*
X88648278Y-115912919D01*
X88878808Y-115789698D01*
X89080870Y-115623870D01*
X89246698Y-115421808D01*
X89369919Y-115191278D01*
X89408000Y-115065743D01*
X89446081Y-115191278D01*
X89569302Y-115421808D01*
X89735130Y-115623870D01*
X89937192Y-115789698D01*
X90167722Y-115912919D01*
X90417863Y-115988799D01*
X90612816Y-116008000D01*
X90743184Y-116008000D01*
X90938137Y-115988799D01*
X91188278Y-115912919D01*
X91418808Y-115789698D01*
X91620870Y-115623870D01*
X91786698Y-115421808D01*
X91862440Y-115280105D01*
X91873843Y-115312252D01*
X92022822Y-115562355D01*
X92217731Y-115778588D01*
X92451080Y-115952641D01*
X92713901Y-116077825D01*
X92861110Y-116122476D01*
X93091000Y-116001155D01*
X93091000Y-114808000D01*
X93345000Y-114808000D01*
X93345000Y-116001155D01*
X93574890Y-116122476D01*
X93722099Y-116077825D01*
X93984920Y-115952641D01*
X94218269Y-115778588D01*
X94413178Y-115562355D01*
X94562157Y-115312252D01*
X94659481Y-115037891D01*
X94538814Y-114808000D01*
X93345000Y-114808000D01*
X93091000Y-114808000D01*
X93071000Y-114808000D01*
X93071000Y-114554000D01*
X93091000Y-114554000D01*
X93091000Y-114534000D01*
X93345000Y-114534000D01*
X93345000Y-114554000D01*
X94538814Y-114554000D01*
X94659481Y-114324109D01*
X94562157Y-114049748D01*
X94413178Y-113799645D01*
X94325795Y-113702702D01*
X105116903Y-113702702D01*
X105188486Y-113946671D01*
X105443996Y-114067571D01*
X105718184Y-114136300D01*
X106000512Y-114150217D01*
X106280130Y-114108787D01*
X106546292Y-114013603D01*
X106671514Y-113946671D01*
X106743097Y-113702702D01*
X105930000Y-112889605D01*
X105116903Y-113702702D01*
X94325795Y-113702702D01*
X94288277Y-113661080D01*
X95168845Y-112780512D01*
X104489783Y-112780512D01*
X104531213Y-113060130D01*
X104626397Y-113326292D01*
X104693329Y-113451514D01*
X104937298Y-113523097D01*
X105750395Y-112710000D01*
X104937298Y-111896903D01*
X104693329Y-111968486D01*
X104572429Y-112223996D01*
X104503700Y-112498184D01*
X104489783Y-112780512D01*
X95168845Y-112780512D01*
X96457704Y-111491653D01*
X101547952Y-111491653D01*
X101703962Y-111807214D01*
X102078745Y-111998020D01*
X102483551Y-112112044D01*
X102902824Y-112144902D01*
X103320451Y-112095334D01*
X103720383Y-111965243D01*
X104016038Y-111807214D01*
X104060491Y-111717298D01*
X105116903Y-111717298D01*
X105930000Y-112530395D01*
X106743097Y-111717298D01*
X106671514Y-111473329D01*
X106416004Y-111352429D01*
X106141816Y-111283700D01*
X105859488Y-111269783D01*
X105579870Y-111311213D01*
X105313708Y-111406397D01*
X105188486Y-111473329D01*
X105116903Y-111717298D01*
X104060491Y-111717298D01*
X104172048Y-111491653D01*
X102860000Y-110179605D01*
X101547952Y-111491653D01*
X96457704Y-111491653D01*
X97906533Y-110042824D01*
X100715098Y-110042824D01*
X100764666Y-110460451D01*
X100894757Y-110860383D01*
X101052786Y-111156038D01*
X101368347Y-111312048D01*
X102680395Y-110000000D01*
X103039605Y-110000000D01*
X104351653Y-111312048D01*
X104667214Y-111156038D01*
X104858020Y-110781255D01*
X104972044Y-110376449D01*
X105004902Y-109957176D01*
X104955334Y-109539549D01*
X104825243Y-109139617D01*
X104667214Y-108843962D01*
X104351653Y-108687952D01*
X103039605Y-110000000D01*
X102680395Y-110000000D01*
X101368347Y-108687952D01*
X101052786Y-108843962D01*
X100861980Y-109218745D01*
X100747956Y-109623551D01*
X100715098Y-110042824D01*
X97906533Y-110042824D01*
X99441010Y-108508347D01*
X101547952Y-108508347D01*
X102860000Y-109820395D01*
X104172048Y-108508347D01*
X104016038Y-108192786D01*
X103641255Y-108001980D01*
X103236449Y-107887956D01*
X102817176Y-107855098D01*
X102399549Y-107904666D01*
X101999617Y-108034757D01*
X101703962Y-108192786D01*
X101547952Y-108508347D01*
X99441010Y-108508347D01*
X101080359Y-106868999D01*
X114855064Y-106868999D01*
X114854948Y-106869140D01*
X114854948Y-106869140D01*
G37*
X114854948Y-106869140D02*
X112357141Y-109366948D01*
X112324631Y-109393628D01*
X112297952Y-109426137D01*
X112218161Y-109523362D01*
X112139046Y-109671375D01*
X112105107Y-109783260D01*
X112093843Y-109820395D01*
X112090329Y-109831978D01*
X112073878Y-109998998D01*
X112078001Y-110040857D01*
X112078000Y-111435815D01*
X112036492Y-111439903D01*
X111946577Y-111467178D01*
X111863711Y-111511471D01*
X111791079Y-111571079D01*
X111731471Y-111643711D01*
X111687178Y-111726577D01*
X111659903Y-111816492D01*
X111650693Y-111910000D01*
X111650693Y-112320051D01*
X111561663Y-112105114D01*
X111421911Y-111895960D01*
X111244040Y-111718089D01*
X111034886Y-111578337D01*
X110802487Y-111482074D01*
X110555774Y-111433000D01*
X110304226Y-111433000D01*
X110057513Y-111482074D01*
X109825114Y-111578337D01*
X109615960Y-111718089D01*
X109438089Y-111895960D01*
X109430000Y-111908066D01*
X109421911Y-111895960D01*
X109244040Y-111718089D01*
X109034886Y-111578337D01*
X108802487Y-111482074D01*
X108555774Y-111433000D01*
X108304226Y-111433000D01*
X108057513Y-111482074D01*
X107825114Y-111578337D01*
X107615960Y-111718089D01*
X107438089Y-111895960D01*
X107298337Y-112105114D01*
X107265786Y-112183700D01*
X107233603Y-112093708D01*
X107166671Y-111968486D01*
X106922702Y-111896903D01*
X106109605Y-112710000D01*
X106922702Y-113523097D01*
X107166671Y-113451514D01*
X107267055Y-113239364D01*
X107298337Y-113314886D01*
X107438089Y-113524040D01*
X107615960Y-113701911D01*
X107825114Y-113841663D01*
X108057513Y-113937926D01*
X108304226Y-113987000D01*
X108555774Y-113987000D01*
X108802487Y-113937926D01*
X109034886Y-113841663D01*
X109244040Y-113701911D01*
X109421911Y-113524040D01*
X109430000Y-113511934D01*
X109438089Y-113524040D01*
X109615960Y-113701911D01*
X109825114Y-113841663D01*
X110057513Y-113937926D01*
X110304226Y-113987000D01*
X110555774Y-113987000D01*
X110802487Y-113937926D01*
X111034886Y-113841663D01*
X111244040Y-113701911D01*
X111421911Y-113524040D01*
X111561663Y-113314886D01*
X111650693Y-113099949D01*
X111650693Y-113510000D01*
X111659903Y-113603508D01*
X111687178Y-113693423D01*
X111731471Y-113776289D01*
X111791079Y-113848921D01*
X111863711Y-113908529D01*
X111946577Y-113952822D01*
X112012324Y-113972766D01*
X108727091Y-117258000D01*
X89401849Y-117258000D01*
X89360000Y-117253878D01*
X89318151Y-117258000D01*
X89318148Y-117258000D01*
X89192979Y-117270328D01*
X89032376Y-117319046D01*
X88884364Y-117398161D01*
X88754630Y-117504630D01*
X88727951Y-117537139D01*
X86254091Y-120011000D01*
X86097969Y-120011000D01*
X85858597Y-120058614D01*
X85734999Y-120109810D01*
X85734999Y-116878354D01*
X86002772Y-116610582D01*
X86025737Y-116591735D01*
X86100966Y-116500069D01*
X86156866Y-116395488D01*
X86191289Y-116282010D01*
X86200000Y-116193564D01*
X86200000Y-116193555D01*
X86202911Y-116163998D01*
X86200000Y-116134442D01*
X86200000Y-115863893D01*
X86338808Y-115789698D01*
X86540870Y-115623870D01*
X86706698Y-115421808D01*
X86829919Y-115191278D01*
X86868000Y-115065743D01*
X86906081Y-115191278D01*
X87029302Y-115421808D01*
X87195130Y-115623870D01*
X87397192Y-115789698D01*
X87627722Y-115912919D01*
X87877863Y-115988799D01*
X88072816Y-116008000D01*
X88203184Y-116008000D01*
X88398137Y-115988799D01*
X88648278Y-115912919D01*
X88878808Y-115789698D01*
X89080870Y-115623870D01*
X89246698Y-115421808D01*
X89369919Y-115191278D01*
X89408000Y-115065743D01*
X89446081Y-115191278D01*
X89569302Y-115421808D01*
X89735130Y-115623870D01*
X89937192Y-115789698D01*
X90167722Y-115912919D01*
X90417863Y-115988799D01*
X90612816Y-116008000D01*
X90743184Y-116008000D01*
X90938137Y-115988799D01*
X91188278Y-115912919D01*
X91418808Y-115789698D01*
X91620870Y-115623870D01*
X91786698Y-115421808D01*
X91862440Y-115280105D01*
X91873843Y-115312252D01*
X92022822Y-115562355D01*
X92217731Y-115778588D01*
X92451080Y-115952641D01*
X92713901Y-116077825D01*
X92861110Y-116122476D01*
X93091000Y-116001155D01*
X93091000Y-114808000D01*
X93345000Y-114808000D01*
X93345000Y-116001155D01*
X93574890Y-116122476D01*
X93722099Y-116077825D01*
X93984920Y-115952641D01*
X94218269Y-115778588D01*
X94413178Y-115562355D01*
X94562157Y-115312252D01*
X94659481Y-115037891D01*
X94538814Y-114808000D01*
X93345000Y-114808000D01*
X93091000Y-114808000D01*
X93071000Y-114808000D01*
X93071000Y-114554000D01*
X93091000Y-114554000D01*
X93091000Y-114534000D01*
X93345000Y-114534000D01*
X93345000Y-114554000D01*
X94538814Y-114554000D01*
X94659481Y-114324109D01*
X94562157Y-114049748D01*
X94413178Y-113799645D01*
X94325795Y-113702702D01*
X105116903Y-113702702D01*
X105188486Y-113946671D01*
X105443996Y-114067571D01*
X105718184Y-114136300D01*
X106000512Y-114150217D01*
X106280130Y-114108787D01*
X106546292Y-114013603D01*
X106671514Y-113946671D01*
X106743097Y-113702702D01*
X105930000Y-112889605D01*
X105116903Y-113702702D01*
X94325795Y-113702702D01*
X94288277Y-113661080D01*
X95168845Y-112780512D01*
X104489783Y-112780512D01*
X104531213Y-113060130D01*
X104626397Y-113326292D01*
X104693329Y-113451514D01*
X104937298Y-113523097D01*
X105750395Y-112710000D01*
X104937298Y-111896903D01*
X104693329Y-111968486D01*
X104572429Y-112223996D01*
X104503700Y-112498184D01*
X104489783Y-112780512D01*
X95168845Y-112780512D01*
X96457704Y-111491653D01*
X101547952Y-111491653D01*
X101703962Y-111807214D01*
X102078745Y-111998020D01*
X102483551Y-112112044D01*
X102902824Y-112144902D01*
X103320451Y-112095334D01*
X103720383Y-111965243D01*
X104016038Y-111807214D01*
X104060491Y-111717298D01*
X105116903Y-111717298D01*
X105930000Y-112530395D01*
X106743097Y-111717298D01*
X106671514Y-111473329D01*
X106416004Y-111352429D01*
X106141816Y-111283700D01*
X105859488Y-111269783D01*
X105579870Y-111311213D01*
X105313708Y-111406397D01*
X105188486Y-111473329D01*
X105116903Y-111717298D01*
X104060491Y-111717298D01*
X104172048Y-111491653D01*
X102860000Y-110179605D01*
X101547952Y-111491653D01*
X96457704Y-111491653D01*
X97906533Y-110042824D01*
X100715098Y-110042824D01*
X100764666Y-110460451D01*
X100894757Y-110860383D01*
X101052786Y-111156038D01*
X101368347Y-111312048D01*
X102680395Y-110000000D01*
X103039605Y-110000000D01*
X104351653Y-111312048D01*
X104667214Y-111156038D01*
X104858020Y-110781255D01*
X104972044Y-110376449D01*
X105004902Y-109957176D01*
X104955334Y-109539549D01*
X104825243Y-109139617D01*
X104667214Y-108843962D01*
X104351653Y-108687952D01*
X103039605Y-110000000D01*
X102680395Y-110000000D01*
X101368347Y-108687952D01*
X101052786Y-108843962D01*
X100861980Y-109218745D01*
X100747956Y-109623551D01*
X100715098Y-110042824D01*
X97906533Y-110042824D01*
X99441010Y-108508347D01*
X101547952Y-108508347D01*
X102860000Y-109820395D01*
X104172048Y-108508347D01*
X104016038Y-108192786D01*
X103641255Y-108001980D01*
X103236449Y-107887956D01*
X102817176Y-107855098D01*
X102399549Y-107904666D01*
X101999617Y-108034757D01*
X101703962Y-108192786D01*
X101547952Y-108508347D01*
X99441010Y-108508347D01*
X101080359Y-106868999D01*
X114855064Y-106868999D01*
X114854948Y-106869140D01*
G36*
X119456903Y-108385508D02*
G01*
X119484178Y-108475423D01*
X119528471Y-108558289D01*
X119588079Y-108630921D01*
X119660711Y-108690529D01*
X119743577Y-108734822D01*
X119833492Y-108762097D01*
X119922445Y-108770858D01*
X119895645Y-108786822D01*
X119679412Y-108981731D01*
X119505359Y-109215080D01*
X119380175Y-109477901D01*
X119335524Y-109625110D01*
X119456845Y-109855000D01*
X120650000Y-109855000D01*
X120650000Y-109835000D01*
X120904000Y-109835000D01*
X120904000Y-109855000D01*
X120924000Y-109855000D01*
X120924000Y-110109000D01*
X120904000Y-110109000D01*
X120904000Y-110129000D01*
X120650000Y-110129000D01*
X120650000Y-110109000D01*
X119456845Y-110109000D01*
X119335524Y-110338890D01*
X119380175Y-110486099D01*
X119412994Y-110555001D01*
X118061750Y-110555001D01*
X118112044Y-110376449D01*
X118144902Y-109957176D01*
X118095334Y-109539549D01*
X117965243Y-109139617D01*
X117807214Y-108843962D01*
X117491653Y-108687952D01*
X116179605Y-110000000D01*
X116193748Y-110014143D01*
X116014143Y-110193748D01*
X116000000Y-110179605D01*
X114687952Y-111491653D01*
X114843962Y-111807214D01*
X115218745Y-111998020D01*
X115623551Y-112112044D01*
X115748079Y-112121803D01*
X114168645Y-113701237D01*
X114172822Y-113693423D01*
X114200097Y-113603508D01*
X114209307Y-113510000D01*
X114209307Y-111910000D01*
X114200097Y-111816492D01*
X114172822Y-111726577D01*
X114128529Y-111643711D01*
X114068921Y-111571079D01*
X113996289Y-111511471D01*
X113913423Y-111467178D01*
X113823508Y-111439903D01*
X113782000Y-111435815D01*
X113782000Y-110351907D01*
X113880135Y-110253772D01*
X113904666Y-110460451D01*
X114034757Y-110860383D01*
X114192786Y-111156038D01*
X114508347Y-111312048D01*
X115820395Y-110000000D01*
X115806253Y-109985858D01*
X115985858Y-109806253D01*
X116000000Y-109820395D01*
X117312048Y-108508347D01*
X117206077Y-108294000D01*
X119447890Y-108294000D01*
X119456903Y-108385508D01*
X119456903Y-108385508D01*
G37*
X119456903Y-108385508D02*
X119484178Y-108475423D01*
X119528471Y-108558289D01*
X119588079Y-108630921D01*
X119660711Y-108690529D01*
X119743577Y-108734822D01*
X119833492Y-108762097D01*
X119922445Y-108770858D01*
X119895645Y-108786822D01*
X119679412Y-108981731D01*
X119505359Y-109215080D01*
X119380175Y-109477901D01*
X119335524Y-109625110D01*
X119456845Y-109855000D01*
X120650000Y-109855000D01*
X120650000Y-109835000D01*
X120904000Y-109835000D01*
X120904000Y-109855000D01*
X120924000Y-109855000D01*
X120924000Y-110109000D01*
X120904000Y-110109000D01*
X120904000Y-110129000D01*
X120650000Y-110129000D01*
X120650000Y-110109000D01*
X119456845Y-110109000D01*
X119335524Y-110338890D01*
X119380175Y-110486099D01*
X119412994Y-110555001D01*
X118061750Y-110555001D01*
X118112044Y-110376449D01*
X118144902Y-109957176D01*
X118095334Y-109539549D01*
X117965243Y-109139617D01*
X117807214Y-108843962D01*
X117491653Y-108687952D01*
X116179605Y-110000000D01*
X116193748Y-110014143D01*
X116014143Y-110193748D01*
X116000000Y-110179605D01*
X114687952Y-111491653D01*
X114843962Y-111807214D01*
X115218745Y-111998020D01*
X115623551Y-112112044D01*
X115748079Y-112121803D01*
X114168645Y-113701237D01*
X114172822Y-113693423D01*
X114200097Y-113603508D01*
X114209307Y-113510000D01*
X114209307Y-111910000D01*
X114200097Y-111816492D01*
X114172822Y-111726577D01*
X114128529Y-111643711D01*
X114068921Y-111571079D01*
X113996289Y-111511471D01*
X113913423Y-111467178D01*
X113823508Y-111439903D01*
X113782000Y-111435815D01*
X113782000Y-110351907D01*
X113880135Y-110253772D01*
X113904666Y-110460451D01*
X114034757Y-110860383D01*
X114192786Y-111156038D01*
X114508347Y-111312048D01*
X115820395Y-110000000D01*
X115806253Y-109985858D01*
X115985858Y-109806253D01*
X116000000Y-109820395D01*
X117312048Y-108508347D01*
X117206077Y-108294000D01*
X119447890Y-108294000D01*
X119456903Y-108385508D01*
M02*
