G04 #@! TF.GenerationSoftware,KiCad,Pcbnew,(5.1.4-0)*
G04 #@! TF.CreationDate,2020-04-06T12:50:51+01:00*
G04 #@! TF.ProjectId,Simple_VFO,53696d70-6c65-45f5-9646-4f2e6b696361,rev?*
G04 #@! TF.SameCoordinates,Original*
G04 #@! TF.FileFunction,Legend,Top*
G04 #@! TF.FilePolarity,Positive*
%FSLAX46Y46*%
G04 Gerber Fmt 4.6, Leading zero omitted, Abs format (unit mm)*
G04 Created by KiCad (PCBNEW (5.1.4-0)) date 2020-04-06 12:50:51*
%MOMM*%
%LPD*%
G04 APERTURE LIST*
%ADD10C,0.150000*%
%ADD11C,0.120000*%
G04 APERTURE END LIST*
D10*
X35228047Y-150185380D02*
X34751857Y-150185380D01*
X34751857Y-149185380D01*
X35561380Y-150185380D02*
X35561380Y-149518714D01*
X35561380Y-149185380D02*
X35513761Y-149233000D01*
X35561380Y-149280619D01*
X35609000Y-149233000D01*
X35561380Y-149185380D01*
X35561380Y-149280619D01*
X36466142Y-150137761D02*
X36370904Y-150185380D01*
X36180428Y-150185380D01*
X36085190Y-150137761D01*
X36037571Y-150090142D01*
X35989952Y-149994904D01*
X35989952Y-149709190D01*
X36037571Y-149613952D01*
X36085190Y-149566333D01*
X36180428Y-149518714D01*
X36370904Y-149518714D01*
X36466142Y-149566333D01*
X37275666Y-150137761D02*
X37180428Y-150185380D01*
X36989952Y-150185380D01*
X36894714Y-150137761D01*
X36847095Y-150042523D01*
X36847095Y-149661571D01*
X36894714Y-149566333D01*
X36989952Y-149518714D01*
X37180428Y-149518714D01*
X37275666Y-149566333D01*
X37323285Y-149661571D01*
X37323285Y-149756809D01*
X36847095Y-149852047D01*
X37751857Y-149518714D02*
X37751857Y-150185380D01*
X37751857Y-149613952D02*
X37799476Y-149566333D01*
X37894714Y-149518714D01*
X38037571Y-149518714D01*
X38132809Y-149566333D01*
X38180428Y-149661571D01*
X38180428Y-150185380D01*
X38609000Y-150137761D02*
X38704238Y-150185380D01*
X38894714Y-150185380D01*
X38989952Y-150137761D01*
X39037571Y-150042523D01*
X39037571Y-149994904D01*
X38989952Y-149899666D01*
X38894714Y-149852047D01*
X38751857Y-149852047D01*
X38656619Y-149804428D01*
X38609000Y-149709190D01*
X38609000Y-149661571D01*
X38656619Y-149566333D01*
X38751857Y-149518714D01*
X38894714Y-149518714D01*
X38989952Y-149566333D01*
X39847095Y-150137761D02*
X39751857Y-150185380D01*
X39561380Y-150185380D01*
X39466142Y-150137761D01*
X39418523Y-150042523D01*
X39418523Y-149661571D01*
X39466142Y-149566333D01*
X39561380Y-149518714D01*
X39751857Y-149518714D01*
X39847095Y-149566333D01*
X39894714Y-149661571D01*
X39894714Y-149756809D01*
X39418523Y-149852047D01*
X40751857Y-150185380D02*
X40751857Y-149185380D01*
X40751857Y-150137761D02*
X40656619Y-150185380D01*
X40466142Y-150185380D01*
X40370904Y-150137761D01*
X40323285Y-150090142D01*
X40275666Y-149994904D01*
X40275666Y-149709190D01*
X40323285Y-149613952D01*
X40370904Y-149566333D01*
X40466142Y-149518714D01*
X40656619Y-149518714D01*
X40751857Y-149566333D01*
X42418523Y-149518714D02*
X42418523Y-150185380D01*
X41989952Y-149518714D02*
X41989952Y-150042523D01*
X42037571Y-150137761D01*
X42132809Y-150185380D01*
X42275666Y-150185380D01*
X42370904Y-150137761D01*
X42418523Y-150090142D01*
X42894714Y-149518714D02*
X42894714Y-150185380D01*
X42894714Y-149613952D02*
X42942333Y-149566333D01*
X43037571Y-149518714D01*
X43180428Y-149518714D01*
X43275666Y-149566333D01*
X43323285Y-149661571D01*
X43323285Y-150185380D01*
X44228047Y-150185380D02*
X44228047Y-149185380D01*
X44228047Y-150137761D02*
X44132809Y-150185380D01*
X43942333Y-150185380D01*
X43847095Y-150137761D01*
X43799476Y-150090142D01*
X43751857Y-149994904D01*
X43751857Y-149709190D01*
X43799476Y-149613952D01*
X43847095Y-149566333D01*
X43942333Y-149518714D01*
X44132809Y-149518714D01*
X44228047Y-149566333D01*
X45085190Y-150137761D02*
X44989952Y-150185380D01*
X44799476Y-150185380D01*
X44704238Y-150137761D01*
X44656619Y-150042523D01*
X44656619Y-149661571D01*
X44704238Y-149566333D01*
X44799476Y-149518714D01*
X44989952Y-149518714D01*
X45085190Y-149566333D01*
X45132809Y-149661571D01*
X45132809Y-149756809D01*
X44656619Y-149852047D01*
X45561380Y-150185380D02*
X45561380Y-149518714D01*
X45561380Y-149709190D02*
X45609000Y-149613952D01*
X45656619Y-149566333D01*
X45751857Y-149518714D01*
X45847095Y-149518714D01*
X47513761Y-150090142D02*
X47466142Y-150137761D01*
X47323285Y-150185380D01*
X47228047Y-150185380D01*
X47085190Y-150137761D01*
X46989952Y-150042523D01*
X46942333Y-149947285D01*
X46894714Y-149756809D01*
X46894714Y-149613952D01*
X46942333Y-149423476D01*
X46989952Y-149328238D01*
X47085190Y-149233000D01*
X47228047Y-149185380D01*
X47323285Y-149185380D01*
X47466142Y-149233000D01*
X47513761Y-149280619D01*
X47942333Y-149661571D02*
X48275666Y-149661571D01*
X48418523Y-150185380D02*
X47942333Y-150185380D01*
X47942333Y-149185380D01*
X48418523Y-149185380D01*
X49418523Y-150185380D02*
X49085190Y-149709190D01*
X48847095Y-150185380D02*
X48847095Y-149185380D01*
X49228047Y-149185380D01*
X49323285Y-149233000D01*
X49370904Y-149280619D01*
X49418523Y-149375857D01*
X49418523Y-149518714D01*
X49370904Y-149613952D01*
X49323285Y-149661571D01*
X49228047Y-149709190D01*
X48847095Y-149709190D01*
X49847095Y-150185380D02*
X49847095Y-149185380D01*
X50418523Y-150185380D01*
X50418523Y-149185380D01*
X51847095Y-149185380D02*
X52037571Y-149185380D01*
X52132809Y-149233000D01*
X52228047Y-149328238D01*
X52275666Y-149518714D01*
X52275666Y-149852047D01*
X52228047Y-150042523D01*
X52132809Y-150137761D01*
X52037571Y-150185380D01*
X51847095Y-150185380D01*
X51751857Y-150137761D01*
X51656619Y-150042523D01*
X51609000Y-149852047D01*
X51609000Y-149518714D01*
X51656619Y-149328238D01*
X51751857Y-149233000D01*
X51847095Y-149185380D01*
X52704238Y-150185380D02*
X52704238Y-149185380D01*
X52704238Y-149661571D02*
X53275666Y-149661571D01*
X53275666Y-150185380D02*
X53275666Y-149185380D01*
X54228047Y-150185380D02*
X53751857Y-150185380D01*
X53751857Y-149185380D01*
X55228047Y-149518714D02*
X55466142Y-150185380D01*
X55704238Y-149518714D01*
X56085190Y-150090142D02*
X56132809Y-150137761D01*
X56085190Y-150185380D01*
X56037571Y-150137761D01*
X56085190Y-150090142D01*
X56085190Y-150185380D01*
X57085190Y-150185380D02*
X56513761Y-150185380D01*
X56799476Y-150185380D02*
X56799476Y-149185380D01*
X56704238Y-149328238D01*
X56609000Y-149423476D01*
X56513761Y-149471095D01*
X57513761Y-150090142D02*
X57561380Y-150137761D01*
X57513761Y-150185380D01*
X57466142Y-150137761D01*
X57513761Y-150090142D01*
X57513761Y-150185380D01*
X57942333Y-149280619D02*
X57989952Y-149233000D01*
X58085190Y-149185380D01*
X58323285Y-149185380D01*
X58418523Y-149233000D01*
X58466142Y-149280619D01*
X58513761Y-149375857D01*
X58513761Y-149471095D01*
X58466142Y-149613952D01*
X57894714Y-150185380D01*
X58513761Y-150185380D01*
X34545095Y-147978761D02*
X34687952Y-148026380D01*
X34926047Y-148026380D01*
X35021285Y-147978761D01*
X35068904Y-147931142D01*
X35116523Y-147835904D01*
X35116523Y-147740666D01*
X35068904Y-147645428D01*
X35021285Y-147597809D01*
X34926047Y-147550190D01*
X34735571Y-147502571D01*
X34640333Y-147454952D01*
X34592714Y-147407333D01*
X34545095Y-147312095D01*
X34545095Y-147216857D01*
X34592714Y-147121619D01*
X34640333Y-147074000D01*
X34735571Y-147026380D01*
X34973666Y-147026380D01*
X35116523Y-147074000D01*
X35545095Y-148026380D02*
X35545095Y-147359714D01*
X35545095Y-147026380D02*
X35497476Y-147074000D01*
X35545095Y-147121619D01*
X35592714Y-147074000D01*
X35545095Y-147026380D01*
X35545095Y-147121619D01*
X36021285Y-148026380D02*
X36021285Y-147359714D01*
X36021285Y-147454952D02*
X36068904Y-147407333D01*
X36164142Y-147359714D01*
X36307000Y-147359714D01*
X36402238Y-147407333D01*
X36449857Y-147502571D01*
X36449857Y-148026380D01*
X36449857Y-147502571D02*
X36497476Y-147407333D01*
X36592714Y-147359714D01*
X36735571Y-147359714D01*
X36830809Y-147407333D01*
X36878428Y-147502571D01*
X36878428Y-148026380D01*
X37354619Y-147359714D02*
X37354619Y-148359714D01*
X37354619Y-147407333D02*
X37449857Y-147359714D01*
X37640333Y-147359714D01*
X37735571Y-147407333D01*
X37783190Y-147454952D01*
X37830809Y-147550190D01*
X37830809Y-147835904D01*
X37783190Y-147931142D01*
X37735571Y-147978761D01*
X37640333Y-148026380D01*
X37449857Y-148026380D01*
X37354619Y-147978761D01*
X38402238Y-148026380D02*
X38307000Y-147978761D01*
X38259380Y-147883523D01*
X38259380Y-147026380D01*
X39164142Y-147978761D02*
X39068904Y-148026380D01*
X38878428Y-148026380D01*
X38783190Y-147978761D01*
X38735571Y-147883523D01*
X38735571Y-147502571D01*
X38783190Y-147407333D01*
X38878428Y-147359714D01*
X39068904Y-147359714D01*
X39164142Y-147407333D01*
X39211761Y-147502571D01*
X39211761Y-147597809D01*
X38735571Y-147693047D01*
X40259380Y-147026380D02*
X40592714Y-148026380D01*
X40926047Y-147026380D01*
X41592714Y-147502571D02*
X41259380Y-147502571D01*
X41259380Y-148026380D02*
X41259380Y-147026380D01*
X41735571Y-147026380D01*
X42307000Y-147026380D02*
X42497476Y-147026380D01*
X42592714Y-147074000D01*
X42687952Y-147169238D01*
X42735571Y-147359714D01*
X42735571Y-147693047D01*
X42687952Y-147883523D01*
X42592714Y-147978761D01*
X42497476Y-148026380D01*
X42307000Y-148026380D01*
X42211761Y-147978761D01*
X42116523Y-147883523D01*
X42068904Y-147693047D01*
X42068904Y-147359714D01*
X42116523Y-147169238D01*
X42211761Y-147074000D01*
X42307000Y-147026380D01*
X43783190Y-147026380D02*
X44116523Y-148026380D01*
X44449857Y-147026380D01*
X45164142Y-147978761D02*
X45068904Y-148026380D01*
X44878428Y-148026380D01*
X44783190Y-147978761D01*
X44735571Y-147883523D01*
X44735571Y-147502571D01*
X44783190Y-147407333D01*
X44878428Y-147359714D01*
X45068904Y-147359714D01*
X45164142Y-147407333D01*
X45211761Y-147502571D01*
X45211761Y-147597809D01*
X44735571Y-147693047D01*
X45640333Y-148026380D02*
X45640333Y-147359714D01*
X45640333Y-147550190D02*
X45687952Y-147454952D01*
X45735571Y-147407333D01*
X45830809Y-147359714D01*
X45926047Y-147359714D01*
X46211761Y-147978761D02*
X46306999Y-148026380D01*
X46497476Y-148026380D01*
X46592714Y-147978761D01*
X46640333Y-147883523D01*
X46640333Y-147835904D01*
X46592714Y-147740666D01*
X46497476Y-147693047D01*
X46354619Y-147693047D01*
X46259380Y-147645428D01*
X46211761Y-147550190D01*
X46211761Y-147502571D01*
X46259380Y-147407333D01*
X46354619Y-147359714D01*
X46497476Y-147359714D01*
X46592714Y-147407333D01*
X47068904Y-148026380D02*
X47068904Y-147359714D01*
X47068904Y-147026380D02*
X47021285Y-147074000D01*
X47068904Y-147121619D01*
X47116523Y-147074000D01*
X47068904Y-147026380D01*
X47068904Y-147121619D01*
X47687952Y-148026380D02*
X47592714Y-147978761D01*
X47545095Y-147931142D01*
X47497476Y-147835904D01*
X47497476Y-147550190D01*
X47545095Y-147454952D01*
X47592714Y-147407333D01*
X47687952Y-147359714D01*
X47830809Y-147359714D01*
X47926047Y-147407333D01*
X47973666Y-147454952D01*
X48021285Y-147550190D01*
X48021285Y-147835904D01*
X47973666Y-147931142D01*
X47926047Y-147978761D01*
X47830809Y-148026380D01*
X47687952Y-148026380D01*
X48449857Y-147359714D02*
X48449857Y-148026380D01*
X48449857Y-147454952D02*
X48497476Y-147407333D01*
X48592714Y-147359714D01*
X48735571Y-147359714D01*
X48830809Y-147407333D01*
X48878428Y-147502571D01*
X48878428Y-148026380D01*
X50640333Y-148026380D02*
X50068904Y-148026380D01*
X50354619Y-148026380D02*
X50354619Y-147026380D01*
X50259380Y-147169238D01*
X50164142Y-147264476D01*
X50068904Y-147312095D01*
X51068904Y-147931142D02*
X51116523Y-147978761D01*
X51068904Y-148026380D01*
X51021285Y-147978761D01*
X51068904Y-147931142D01*
X51068904Y-148026380D01*
X51735571Y-147026380D02*
X51830809Y-147026380D01*
X51926047Y-147074000D01*
X51973666Y-147121619D01*
X52021285Y-147216857D01*
X52068904Y-147407333D01*
X52068904Y-147645428D01*
X52021285Y-147835904D01*
X51973666Y-147931142D01*
X51926047Y-147978761D01*
X51830809Y-148026380D01*
X51735571Y-148026380D01*
X51640333Y-147978761D01*
X51592714Y-147931142D01*
X51545095Y-147835904D01*
X51497476Y-147645428D01*
X51497476Y-147407333D01*
X51545095Y-147216857D01*
X51592714Y-147121619D01*
X51640333Y-147074000D01*
X51735571Y-147026380D01*
X34935000Y-145772142D02*
X34887380Y-145819761D01*
X34744523Y-145867380D01*
X34649285Y-145867380D01*
X34506428Y-145819761D01*
X34411190Y-145724523D01*
X34363571Y-145629285D01*
X34315952Y-145438809D01*
X34315952Y-145295952D01*
X34363571Y-145105476D01*
X34411190Y-145010238D01*
X34506428Y-144915000D01*
X34649285Y-144867380D01*
X34744523Y-144867380D01*
X34887380Y-144915000D01*
X34935000Y-144962619D01*
X35506428Y-145867380D02*
X35411190Y-145819761D01*
X35363571Y-145772142D01*
X35315952Y-145676904D01*
X35315952Y-145391190D01*
X35363571Y-145295952D01*
X35411190Y-145248333D01*
X35506428Y-145200714D01*
X35649285Y-145200714D01*
X35744523Y-145248333D01*
X35792142Y-145295952D01*
X35839761Y-145391190D01*
X35839761Y-145676904D01*
X35792142Y-145772142D01*
X35744523Y-145819761D01*
X35649285Y-145867380D01*
X35506428Y-145867380D01*
X36268333Y-145200714D02*
X36268333Y-146200714D01*
X36268333Y-145248333D02*
X36363571Y-145200714D01*
X36554047Y-145200714D01*
X36649285Y-145248333D01*
X36696904Y-145295952D01*
X36744523Y-145391190D01*
X36744523Y-145676904D01*
X36696904Y-145772142D01*
X36649285Y-145819761D01*
X36554047Y-145867380D01*
X36363571Y-145867380D01*
X36268333Y-145819761D01*
X37077857Y-145200714D02*
X37315952Y-145867380D01*
X37554047Y-145200714D02*
X37315952Y-145867380D01*
X37220714Y-146105476D01*
X37173095Y-146153095D01*
X37077857Y-146200714D01*
X37935000Y-145867380D02*
X37935000Y-145200714D01*
X37935000Y-145391190D02*
X37982619Y-145295952D01*
X38030238Y-145248333D01*
X38125476Y-145200714D01*
X38220714Y-145200714D01*
X38554047Y-145867380D02*
X38554047Y-145200714D01*
X38554047Y-144867380D02*
X38506428Y-144915000D01*
X38554047Y-144962619D01*
X38601666Y-144915000D01*
X38554047Y-144867380D01*
X38554047Y-144962619D01*
X39458809Y-145200714D02*
X39458809Y-146010238D01*
X39411190Y-146105476D01*
X39363571Y-146153095D01*
X39268333Y-146200714D01*
X39125476Y-146200714D01*
X39030238Y-146153095D01*
X39458809Y-145819761D02*
X39363571Y-145867380D01*
X39173095Y-145867380D01*
X39077857Y-145819761D01*
X39030238Y-145772142D01*
X38982619Y-145676904D01*
X38982619Y-145391190D01*
X39030238Y-145295952D01*
X39077857Y-145248333D01*
X39173095Y-145200714D01*
X39363571Y-145200714D01*
X39458809Y-145248333D01*
X39935000Y-145867380D02*
X39935000Y-144867380D01*
X40363571Y-145867380D02*
X40363571Y-145343571D01*
X40315952Y-145248333D01*
X40220714Y-145200714D01*
X40077857Y-145200714D01*
X39982619Y-145248333D01*
X39935000Y-145295952D01*
X40696904Y-145200714D02*
X41077857Y-145200714D01*
X40839761Y-144867380D02*
X40839761Y-145724523D01*
X40887380Y-145819761D01*
X40982619Y-145867380D01*
X41077857Y-145867380D01*
X42458809Y-146248333D02*
X42411190Y-146200714D01*
X42315952Y-146057857D01*
X42268333Y-145962619D01*
X42220714Y-145819761D01*
X42173095Y-145581666D01*
X42173095Y-145391190D01*
X42220714Y-145153095D01*
X42268333Y-145010238D01*
X42315952Y-144915000D01*
X42411190Y-144772142D01*
X42458809Y-144724523D01*
X43411190Y-145772142D02*
X43363571Y-145819761D01*
X43220714Y-145867380D01*
X43125476Y-145867380D01*
X42982619Y-145819761D01*
X42887380Y-145724523D01*
X42839761Y-145629285D01*
X42792142Y-145438809D01*
X42792142Y-145295952D01*
X42839761Y-145105476D01*
X42887380Y-145010238D01*
X42982619Y-144915000D01*
X43125476Y-144867380D01*
X43220714Y-144867380D01*
X43363571Y-144915000D01*
X43411190Y-144962619D01*
X43744523Y-146248333D02*
X43792142Y-146200714D01*
X43887380Y-146057857D01*
X43935000Y-145962619D01*
X43982619Y-145819761D01*
X44030238Y-145581666D01*
X44030238Y-145391190D01*
X43982619Y-145153095D01*
X43935000Y-145010238D01*
X43887380Y-144915000D01*
X43792142Y-144772142D01*
X43744523Y-144724523D01*
X45268333Y-145867380D02*
X45268333Y-144867380D01*
X45839761Y-145867380D02*
X45411190Y-145295952D01*
X45839761Y-144867380D02*
X45268333Y-145438809D01*
X46649285Y-145819761D02*
X46554047Y-145867380D01*
X46363571Y-145867380D01*
X46268333Y-145819761D01*
X46220714Y-145724523D01*
X46220714Y-145343571D01*
X46268333Y-145248333D01*
X46363571Y-145200714D01*
X46554047Y-145200714D01*
X46649285Y-145248333D01*
X46696904Y-145343571D01*
X46696904Y-145438809D01*
X46220714Y-145534047D01*
X47030238Y-145200714D02*
X47268333Y-145867380D01*
X47506428Y-145200714D01*
X47887380Y-145867380D02*
X47887380Y-145200714D01*
X47887380Y-144867380D02*
X47839761Y-144915000D01*
X47887380Y-144962619D01*
X47935000Y-144915000D01*
X47887380Y-144867380D01*
X47887380Y-144962619D01*
X48363571Y-145200714D02*
X48363571Y-145867380D01*
X48363571Y-145295952D02*
X48411190Y-145248333D01*
X48506428Y-145200714D01*
X48649285Y-145200714D01*
X48744523Y-145248333D01*
X48792142Y-145343571D01*
X48792142Y-145867380D01*
X49935000Y-144867380D02*
X50173095Y-145867380D01*
X50363571Y-145153095D01*
X50554047Y-145867380D01*
X50792142Y-144867380D01*
X51173095Y-145867380D02*
X51173095Y-144867380D01*
X51601666Y-145867380D02*
X51601666Y-145343571D01*
X51554047Y-145248333D01*
X51458809Y-145200714D01*
X51315952Y-145200714D01*
X51220714Y-145248333D01*
X51173095Y-145295952D01*
X52458809Y-145819761D02*
X52363571Y-145867380D01*
X52173095Y-145867380D01*
X52077857Y-145819761D01*
X52030238Y-145724523D01*
X52030238Y-145343571D01*
X52077857Y-145248333D01*
X52173095Y-145200714D01*
X52363571Y-145200714D01*
X52458809Y-145248333D01*
X52506428Y-145343571D01*
X52506428Y-145438809D01*
X52030238Y-145534047D01*
X53363571Y-145867380D02*
X53363571Y-145343571D01*
X53315952Y-145248333D01*
X53220714Y-145200714D01*
X53030238Y-145200714D01*
X52935000Y-145248333D01*
X53363571Y-145819761D02*
X53268333Y-145867380D01*
X53030238Y-145867380D01*
X52935000Y-145819761D01*
X52887380Y-145724523D01*
X52887380Y-145629285D01*
X52935000Y-145534047D01*
X53030238Y-145486428D01*
X53268333Y-145486428D01*
X53363571Y-145438809D01*
X53696904Y-145200714D02*
X54077857Y-145200714D01*
X53839761Y-144867380D02*
X53839761Y-145724523D01*
X53887380Y-145819761D01*
X53982619Y-145867380D01*
X54077857Y-145867380D01*
X54554047Y-145867380D02*
X54458809Y-145819761D01*
X54411190Y-145724523D01*
X54411190Y-144867380D01*
X55315952Y-145819761D02*
X55220714Y-145867380D01*
X55030238Y-145867380D01*
X54935000Y-145819761D01*
X54887380Y-145724523D01*
X54887380Y-145343571D01*
X54935000Y-145248333D01*
X55030238Y-145200714D01*
X55220714Y-145200714D01*
X55315952Y-145248333D01*
X55363571Y-145343571D01*
X55363571Y-145438809D01*
X54887380Y-145534047D01*
X55696904Y-145200714D02*
X55935000Y-145867380D01*
X56173095Y-145200714D02*
X55935000Y-145867380D01*
X55839761Y-146105476D01*
X55792142Y-146153095D01*
X55696904Y-146200714D01*
X57315952Y-145486428D02*
X58077857Y-145486428D01*
X59315952Y-145867380D02*
X59315952Y-144867380D01*
X59649285Y-145581666D01*
X59982619Y-144867380D01*
X59982619Y-145867380D01*
X60649285Y-144867380D02*
X60744523Y-144867380D01*
X60839761Y-144915000D01*
X60887380Y-144962619D01*
X60934999Y-145057857D01*
X60982619Y-145248333D01*
X60982619Y-145486428D01*
X60934999Y-145676904D01*
X60887380Y-145772142D01*
X60839761Y-145819761D01*
X60744523Y-145867380D01*
X60649285Y-145867380D01*
X60554047Y-145819761D01*
X60506428Y-145772142D01*
X60458809Y-145676904D01*
X60411190Y-145486428D01*
X60411190Y-145248333D01*
X60458809Y-145057857D01*
X60506428Y-144962619D01*
X60554047Y-144915000D01*
X60649285Y-144867380D01*
X61411190Y-145867380D02*
X61411190Y-144867380D01*
X61982619Y-145867380D02*
X61554047Y-145295952D01*
X61982619Y-144867380D02*
X61411190Y-145438809D01*
X62411190Y-145867380D02*
X62411190Y-144867380D01*
X62411190Y-145343571D02*
X62982619Y-145343571D01*
X62982619Y-145867380D02*
X62982619Y-144867380D01*
X63363571Y-144867380D02*
X64030238Y-144867380D01*
X63363571Y-145867380D01*
X64030238Y-145867380D01*
X65125476Y-144962619D02*
X65173095Y-144915000D01*
X65268333Y-144867380D01*
X65506428Y-144867380D01*
X65601666Y-144915000D01*
X65649285Y-144962619D01*
X65696904Y-145057857D01*
X65696904Y-145153095D01*
X65649285Y-145295952D01*
X65077857Y-145867380D01*
X65696904Y-145867380D01*
X66315952Y-144867380D02*
X66411190Y-144867380D01*
X66506428Y-144915000D01*
X66554047Y-144962619D01*
X66601666Y-145057857D01*
X66649285Y-145248333D01*
X66649285Y-145486428D01*
X66601666Y-145676904D01*
X66554047Y-145772142D01*
X66506428Y-145819761D01*
X66411190Y-145867380D01*
X66315952Y-145867380D01*
X66220714Y-145819761D01*
X66173095Y-145772142D01*
X66125476Y-145676904D01*
X66077857Y-145486428D01*
X66077857Y-145248333D01*
X66125476Y-145057857D01*
X66173095Y-144962619D01*
X66220714Y-144915000D01*
X66315952Y-144867380D01*
X67030238Y-144962619D02*
X67077857Y-144915000D01*
X67173095Y-144867380D01*
X67411190Y-144867380D01*
X67506428Y-144915000D01*
X67554047Y-144962619D01*
X67601666Y-145057857D01*
X67601666Y-145153095D01*
X67554047Y-145295952D01*
X66982619Y-145867380D01*
X67601666Y-145867380D01*
X68220714Y-144867380D02*
X68315952Y-144867380D01*
X68411190Y-144915000D01*
X68458809Y-144962619D01*
X68506428Y-145057857D01*
X68554047Y-145248333D01*
X68554047Y-145486428D01*
X68506428Y-145676904D01*
X68458809Y-145772142D01*
X68411190Y-145819761D01*
X68315952Y-145867380D01*
X68220714Y-145867380D01*
X68125476Y-145819761D01*
X68077857Y-145772142D01*
X68030238Y-145676904D01*
X67982619Y-145486428D01*
X67982619Y-145248333D01*
X68030238Y-145057857D01*
X68077857Y-144962619D01*
X68125476Y-144915000D01*
X68220714Y-144867380D01*
D11*
X84950000Y-119980000D02*
X120510000Y-119980000D01*
X120510000Y-119980000D02*
X120510000Y-137760000D01*
X120510000Y-137760000D02*
X84950000Y-137760000D01*
X84950000Y-137760000D02*
X84950000Y-119980000D01*
X83680000Y-126330000D02*
X90030000Y-126330000D01*
X90030000Y-126330000D02*
X90030000Y-132680000D01*
X90030000Y-132680000D02*
X83680000Y-132680000D01*
X83680000Y-132680000D02*
X83680000Y-126330000D01*
X114160000Y-126330000D02*
X115430000Y-126330000D01*
X115430000Y-126330000D02*
X115430000Y-131410000D01*
X115430000Y-131410000D02*
X112890000Y-131410000D01*
X112890000Y-131410000D02*
X112890000Y-126330000D01*
X112890000Y-126330000D02*
X114160000Y-126330000D01*
X32512000Y-100584000D02*
X32512000Y-122174000D01*
X65532000Y-100584000D02*
X32512000Y-100584000D01*
X65532000Y-122174000D02*
X65532000Y-100584000D01*
X32512000Y-122174000D02*
X65532000Y-122174000D01*
X69088000Y-115951000D02*
X69088000Y-114681000D01*
X70358000Y-115951000D02*
X69088000Y-115951000D01*
X93598000Y-113638071D02*
X93598000Y-113183929D01*
X92838000Y-113638071D02*
X92838000Y-113183929D01*
X93598000Y-111098071D02*
X93598000Y-110701000D01*
X92838000Y-111098071D02*
X92838000Y-110701000D01*
X93598000Y-102041000D02*
X93598000Y-108041000D01*
X92838000Y-102041000D02*
X93598000Y-102041000D01*
X92838000Y-108041000D02*
X92838000Y-102041000D01*
X91948000Y-110701000D02*
X91948000Y-108041000D01*
X91058000Y-113638071D02*
X91058000Y-113183929D01*
X90298000Y-113638071D02*
X90298000Y-113183929D01*
X91058000Y-111098071D02*
X91058000Y-110701000D01*
X90298000Y-111098071D02*
X90298000Y-110701000D01*
X91058000Y-102041000D02*
X91058000Y-108041000D01*
X90298000Y-102041000D02*
X91058000Y-102041000D01*
X90298000Y-108041000D02*
X90298000Y-102041000D01*
X89408000Y-110701000D02*
X89408000Y-108041000D01*
X88518000Y-113638071D02*
X88518000Y-113183929D01*
X87758000Y-113638071D02*
X87758000Y-113183929D01*
X88518000Y-111098071D02*
X88518000Y-110701000D01*
X87758000Y-111098071D02*
X87758000Y-110701000D01*
X88518000Y-102041000D02*
X88518000Y-108041000D01*
X87758000Y-102041000D02*
X88518000Y-102041000D01*
X87758000Y-108041000D02*
X87758000Y-102041000D01*
X86868000Y-110701000D02*
X86868000Y-108041000D01*
X85978000Y-113638071D02*
X85978000Y-113183929D01*
X85218000Y-113638071D02*
X85218000Y-113183929D01*
X85978000Y-111098071D02*
X85978000Y-110701000D01*
X85218000Y-111098071D02*
X85218000Y-110701000D01*
X85978000Y-102041000D02*
X85978000Y-108041000D01*
X85218000Y-102041000D02*
X85978000Y-102041000D01*
X85218000Y-108041000D02*
X85218000Y-102041000D01*
X84328000Y-110701000D02*
X84328000Y-108041000D01*
X83438000Y-113638071D02*
X83438000Y-113183929D01*
X82678000Y-113638071D02*
X82678000Y-113183929D01*
X83438000Y-111098071D02*
X83438000Y-110701000D01*
X82678000Y-111098071D02*
X82678000Y-110701000D01*
X83438000Y-102041000D02*
X83438000Y-108041000D01*
X82678000Y-102041000D02*
X83438000Y-102041000D01*
X82678000Y-108041000D02*
X82678000Y-102041000D01*
X81788000Y-110701000D02*
X81788000Y-108041000D01*
X80898000Y-113638071D02*
X80898000Y-113183929D01*
X80138000Y-113638071D02*
X80138000Y-113183929D01*
X80898000Y-111098071D02*
X80898000Y-110701000D01*
X80138000Y-111098071D02*
X80138000Y-110701000D01*
X80898000Y-102041000D02*
X80898000Y-108041000D01*
X80138000Y-102041000D02*
X80898000Y-102041000D01*
X80138000Y-108041000D02*
X80138000Y-102041000D01*
X79248000Y-110701000D02*
X79248000Y-108041000D01*
X78358000Y-113638071D02*
X78358000Y-113183929D01*
X77598000Y-113638071D02*
X77598000Y-113183929D01*
X78358000Y-111098071D02*
X78358000Y-110701000D01*
X77598000Y-111098071D02*
X77598000Y-110701000D01*
X78358000Y-102041000D02*
X78358000Y-108041000D01*
X77598000Y-102041000D02*
X78358000Y-102041000D01*
X77598000Y-108041000D02*
X77598000Y-102041000D01*
X76708000Y-110701000D02*
X76708000Y-108041000D01*
X75818000Y-113638071D02*
X75818000Y-113183929D01*
X75058000Y-113638071D02*
X75058000Y-113183929D01*
X75818000Y-111098071D02*
X75818000Y-110701000D01*
X75058000Y-111098071D02*
X75058000Y-110701000D01*
X75818000Y-102041000D02*
X75818000Y-108041000D01*
X75058000Y-102041000D02*
X75818000Y-102041000D01*
X75058000Y-108041000D02*
X75058000Y-102041000D01*
X74168000Y-110701000D02*
X74168000Y-108041000D01*
X73278000Y-113638071D02*
X73278000Y-113183929D01*
X72518000Y-113638071D02*
X72518000Y-113183929D01*
X73278000Y-111098071D02*
X73278000Y-110701000D01*
X72518000Y-111098071D02*
X72518000Y-110701000D01*
X73278000Y-102041000D02*
X73278000Y-108041000D01*
X72518000Y-102041000D02*
X73278000Y-102041000D01*
X72518000Y-108041000D02*
X72518000Y-102041000D01*
X71628000Y-110701000D02*
X71628000Y-108041000D01*
X70738000Y-113571000D02*
X70738000Y-113183929D01*
X69978000Y-113571000D02*
X69978000Y-113183929D01*
X70738000Y-111098071D02*
X70738000Y-110701000D01*
X69978000Y-111098071D02*
X69978000Y-110701000D01*
X70638000Y-108041000D02*
X70638000Y-102041000D01*
X70518000Y-108041000D02*
X70518000Y-102041000D01*
X70398000Y-108041000D02*
X70398000Y-102041000D01*
X70278000Y-108041000D02*
X70278000Y-102041000D01*
X70158000Y-108041000D02*
X70158000Y-102041000D01*
X70038000Y-108041000D02*
X70038000Y-102041000D01*
X70738000Y-102041000D02*
X70738000Y-108041000D01*
X69978000Y-102041000D02*
X70738000Y-102041000D01*
X69978000Y-108041000D02*
X69978000Y-102041000D01*
X69028000Y-108041000D02*
X69028000Y-110701000D01*
X94548000Y-108041000D02*
X69028000Y-108041000D01*
X94548000Y-110701000D02*
X94548000Y-108041000D01*
X69028000Y-110701000D02*
X94548000Y-110701000D01*
X113430000Y-113970000D02*
X112430000Y-113970000D01*
X116680000Y-100220000D02*
X116680000Y-99720000D01*
X115680000Y-100220000D02*
X116680000Y-100220000D01*
X115680000Y-108220000D02*
X115680000Y-100220000D01*
X115680000Y-113720000D02*
X115680000Y-111720000D01*
X103180000Y-113720000D02*
X115680000Y-113720000D01*
X103180000Y-111720000D02*
X103180000Y-113720000D01*
X103180000Y-100220000D02*
X103180000Y-108220000D01*
X102180000Y-100220000D02*
X103180000Y-100220000D01*
X102180000Y-99720000D02*
X102180000Y-100220000D01*
X116680000Y-99720000D02*
X102180000Y-99720000D01*
X119447000Y-111312000D02*
X122107000Y-111312000D01*
X119447000Y-108712000D02*
X119447000Y-111312000D01*
X122107000Y-108712000D02*
X122107000Y-111312000D01*
X119447000Y-108712000D02*
X122107000Y-108712000D01*
X119447000Y-107442000D02*
X119447000Y-106112000D01*
X119447000Y-106112000D02*
X120777000Y-106112000D01*
D10*
X82804095Y-123912380D02*
X82804095Y-124721904D01*
X82851714Y-124817142D01*
X82899333Y-124864761D01*
X82994571Y-124912380D01*
X83185047Y-124912380D01*
X83280285Y-124864761D01*
X83327904Y-124817142D01*
X83375523Y-124721904D01*
X83375523Y-123912380D01*
X83756476Y-123912380D02*
X84375523Y-123912380D01*
X84042190Y-124293333D01*
X84185047Y-124293333D01*
X84280285Y-124340952D01*
X84327904Y-124388571D01*
X84375523Y-124483809D01*
X84375523Y-124721904D01*
X84327904Y-124817142D01*
X84280285Y-124864761D01*
X84185047Y-124912380D01*
X83899333Y-124912380D01*
X83804095Y-124864761D01*
X83756476Y-124817142D01*
X37592095Y-112736380D02*
X37592095Y-113545904D01*
X37639714Y-113641142D01*
X37687333Y-113688761D01*
X37782571Y-113736380D01*
X37973047Y-113736380D01*
X38068285Y-113688761D01*
X38115904Y-113641142D01*
X38163523Y-113545904D01*
X38163523Y-112736380D01*
X39163523Y-113736380D02*
X38592095Y-113736380D01*
X38877809Y-113736380D02*
X38877809Y-112736380D01*
X38782571Y-112879238D01*
X38687333Y-112974476D01*
X38592095Y-113022095D01*
X67540380Y-109359333D02*
X68254666Y-109359333D01*
X68397523Y-109406952D01*
X68492761Y-109502190D01*
X68540380Y-109645047D01*
X68540380Y-109740285D01*
X68540380Y-108359333D02*
X68540380Y-108930761D01*
X68540380Y-108645047D02*
X67540380Y-108645047D01*
X67683238Y-108740285D01*
X67778476Y-108835523D01*
X67826095Y-108930761D01*
X116633666Y-112863380D02*
X116633666Y-113577666D01*
X116586047Y-113720523D01*
X116490809Y-113815761D01*
X116347952Y-113863380D01*
X116252714Y-113863380D01*
X117062238Y-112958619D02*
X117109857Y-112911000D01*
X117205095Y-112863380D01*
X117443190Y-112863380D01*
X117538428Y-112911000D01*
X117586047Y-112958619D01*
X117633666Y-113053857D01*
X117633666Y-113149095D01*
X117586047Y-113291952D01*
X117014619Y-113863380D01*
X117633666Y-113863380D01*
X120443666Y-104564380D02*
X120443666Y-105278666D01*
X120396047Y-105421523D01*
X120300809Y-105516761D01*
X120157952Y-105564380D01*
X120062714Y-105564380D01*
X121348428Y-104897714D02*
X121348428Y-105564380D01*
X121110333Y-104516761D02*
X120872238Y-105231047D01*
X121491285Y-105231047D01*
M02*
