M48
; DRILL file {KiCad (5.1.4-0)} date Monday, 11 November 2019 at 14:37:37
; FORMAT={3:3/ absolute / metric / suppress leading zeros}
; #@! TF.CreationDate,2019-11-11T14:37:37+00:00
; #@! TF.GenerationSoftware,Kicad,Pcbnew,(5.1.4-0)
FMAT,2
METRIC,TZ
T1C1.000
T2C1.800
%
G90
G05
T1
X114046Y-119507
X114046Y-122047
X114046Y-124587
X114046Y-127127
X114046Y-129667
X124286Y-122787
X124286Y-137287
X126786Y-137287
X129286Y-122787
X129286Y-137287
X114046Y-132207
X114046Y-134747
X114046Y-137287
X114046Y-139827
X114046Y-142367
X114046Y-144907
X116586Y-142367
X116586Y-144907
X119126Y-142367
X119126Y-144907
X121666Y-142367
X121666Y-144907
X124206Y-142367
X124206Y-144907
X126746Y-142367
X126746Y-144907
X129286Y-142367
X129286Y-144907
X131826Y-142367
X131826Y-144907
X134366Y-142367
X134366Y-144907
X136906Y-142367
X136906Y-144907
X57061Y-114833
X59601Y-114833
X62141Y-114833
X64681Y-114833
X67221Y-114833
X69761Y-114833
X72301Y-114833
X74841Y-114833
X77381Y-114833
X79921Y-114833
T2
G00X121086Y-129387
M15
G01X121086Y-130187
M16
G05
G00X132486Y-129387
M15
G01X132486Y-130187
M16
G05
T0
M30
