G04 #@! TF.GenerationSoftware,KiCad,Pcbnew,(5.1.4-0)*
G04 #@! TF.CreationDate,2019-11-11T14:35:41+00:00*
G04 #@! TF.ProjectId,2M_DRA818V_Transceiver_tft_encoder,324d5f44-5241-4383-9138-565f5472616e,rev?*
G04 #@! TF.SameCoordinates,Original*
G04 #@! TF.FileFunction,Copper,L2,Bot*
G04 #@! TF.FilePolarity,Positive*
%FSLAX46Y46*%
G04 Gerber Fmt 4.6, Leading zero omitted, Abs format (unit mm)*
G04 Created by KiCad (PCBNEW (5.1.4-0)) date 2019-11-11 14:35:41*
%MOMM*%
%LPD*%
G04 APERTURE LIST*
%ADD10R,1.700000X1.700000*%
%ADD11O,1.700000X1.700000*%
%ADD12R,2.800000X3.600000*%
%ADD13C,2.000000*%
%ADD14C,0.400000*%
%ADD15C,0.250000*%
%ADD16C,0.254000*%
G04 APERTURE END LIST*
D10*
X114046000Y-142367000D03*
D11*
X114046000Y-144907000D03*
X116586000Y-142367000D03*
X116586000Y-144907000D03*
X119126000Y-142367000D03*
X119126000Y-144907000D03*
X121666000Y-142367000D03*
X121666000Y-144907000D03*
X124206000Y-142367000D03*
X124206000Y-144907000D03*
X126746000Y-142367000D03*
X126746000Y-144907000D03*
X129286000Y-142367000D03*
X129286000Y-144907000D03*
X131826000Y-142367000D03*
X131826000Y-144907000D03*
X134366000Y-142367000D03*
X134366000Y-144907000D03*
X136906000Y-142367000D03*
X136906000Y-144907000D03*
D10*
X114046000Y-139827000D03*
D11*
X114046000Y-137287000D03*
X114046000Y-134747000D03*
X114046000Y-132207000D03*
X114046000Y-129667000D03*
X114046000Y-127127000D03*
X114046000Y-124587000D03*
X114046000Y-122047000D03*
X114046000Y-119507000D03*
D12*
X121086000Y-129787000D03*
X132486000Y-129787000D03*
D13*
X124286000Y-122787000D03*
X129286000Y-122787000D03*
X124286000Y-137287000D03*
X126786000Y-137287000D03*
X129286000Y-137287000D03*
D10*
X79921100Y-114833400D03*
D11*
X77381100Y-114833400D03*
X74841100Y-114833400D03*
X72301100Y-114833400D03*
X69761100Y-114833400D03*
X67221100Y-114833400D03*
X64681100Y-114833400D03*
X62141100Y-114833400D03*
X59601100Y-114833400D03*
X57061100Y-114833400D03*
D14*
X119126000Y-134747000D02*
X114046000Y-129667000D01*
X119126000Y-142367000D02*
X119126000Y-134747000D01*
X114895999Y-125436999D02*
X114046000Y-124587000D01*
X115296001Y-125837001D02*
X114895999Y-125436999D01*
X115296001Y-127917003D02*
X115296001Y-125837001D01*
X119726010Y-132347012D02*
X115296001Y-127917003D01*
X119726010Y-140427010D02*
X119726010Y-132347012D01*
X121666000Y-142367000D02*
X119726010Y-140427010D01*
X126746000Y-139747000D02*
X124286000Y-137287000D01*
X126746000Y-142367000D02*
X126746000Y-139747000D01*
X124286000Y-135325998D02*
X124286000Y-122787000D01*
X126746000Y-144907000D02*
X125495999Y-143656999D01*
X122885999Y-136725999D02*
X124286000Y-135325998D01*
X125495999Y-140569001D02*
X122885999Y-137959001D01*
X122885999Y-137959001D02*
X122885999Y-136725999D01*
X125495999Y-143656999D02*
X125495999Y-140569001D01*
D15*
X68846111Y-116458411D02*
X68071099Y-115683399D01*
X81701099Y-116458411D02*
X68846111Y-116458411D01*
X68071099Y-115683399D02*
X67221100Y-114833400D01*
X137566400Y-139064498D02*
X137566400Y-117576600D01*
X85332790Y-112826720D02*
X81701099Y-116458411D01*
X137566400Y-117576600D02*
X132816520Y-112826720D01*
X135438899Y-141191999D02*
X137566400Y-139064498D01*
X132816520Y-112826720D02*
X85332790Y-112826720D01*
X130461001Y-141191999D02*
X135438899Y-141191999D01*
X129286000Y-142367000D02*
X130461001Y-141191999D01*
D14*
X128286001Y-138286999D02*
X129286000Y-137287000D01*
X128035999Y-143656999D02*
X128035999Y-138537001D01*
X128035999Y-138537001D02*
X128286001Y-138286999D01*
X129286000Y-144907000D02*
X128035999Y-143656999D01*
X85541786Y-113360200D02*
X81918565Y-116983421D01*
X122285989Y-136477467D02*
X123685990Y-135077466D01*
X66831121Y-116983421D02*
X65531099Y-115683399D01*
X122916001Y-145467003D02*
X122916001Y-138837545D01*
X65531099Y-115683399D02*
X64681100Y-114833400D01*
X112778728Y-113351730D02*
X112770258Y-113360200D01*
X123685990Y-135077466D02*
X123685990Y-124258992D01*
X81918565Y-116983421D02*
X66831121Y-116983421D01*
X112770258Y-113360200D02*
X85541786Y-113360200D01*
X129886001Y-146157001D02*
X123605999Y-146157001D01*
X123685990Y-124258992D02*
X112778728Y-113351730D01*
X130536001Y-143656999D02*
X130536001Y-145507001D01*
X130536001Y-145507001D02*
X129886001Y-146157001D01*
X123605999Y-146157001D02*
X122916001Y-145467003D01*
X122285989Y-138207533D02*
X122285989Y-136477467D01*
X122916001Y-138837545D02*
X122285989Y-138207533D01*
X131826000Y-142367000D02*
X130536001Y-143656999D01*
D15*
X138081001Y-117443501D02*
X133014210Y-112376710D01*
X138081001Y-143731999D02*
X138081001Y-117443501D01*
X136906000Y-144907000D02*
X138081001Y-143731999D01*
X133014210Y-112376710D02*
X85146390Y-112376710D01*
X70611099Y-115683399D02*
X69761100Y-114833400D01*
X70936101Y-116008401D02*
X70611099Y-115683399D01*
X81514699Y-116008401D02*
X70936101Y-116008401D01*
X85146390Y-112376710D02*
X81514699Y-116008401D01*
D16*
G36*
X81305108Y-115502401D02*
G01*
X81153943Y-115502401D01*
X81153943Y-113983400D01*
X81146587Y-113908711D01*
X81124801Y-113836892D01*
X81089422Y-113770704D01*
X81041811Y-113712689D01*
X80983796Y-113665078D01*
X80917608Y-113629699D01*
X80845789Y-113607913D01*
X80771100Y-113600557D01*
X79071100Y-113600557D01*
X78996411Y-113607913D01*
X78924592Y-113629699D01*
X78858404Y-113665078D01*
X78800389Y-113712689D01*
X78752778Y-113770704D01*
X78717399Y-113836892D01*
X78695613Y-113908711D01*
X78688257Y-113983400D01*
X78688257Y-115502401D01*
X78419327Y-115502401D01*
X78523898Y-115306763D01*
X78594288Y-115074718D01*
X78618056Y-114833400D01*
X78594288Y-114592082D01*
X78523898Y-114360037D01*
X78409591Y-114146184D01*
X78255760Y-113958740D01*
X78068316Y-113804909D01*
X77854463Y-113690602D01*
X77622418Y-113620212D01*
X77441572Y-113602400D01*
X77320628Y-113602400D01*
X77139782Y-113620212D01*
X76907737Y-113690602D01*
X76693884Y-113804909D01*
X76506440Y-113958740D01*
X76352609Y-114146184D01*
X76238302Y-114360037D01*
X76167912Y-114592082D01*
X76144144Y-114833400D01*
X76167912Y-115074718D01*
X76238302Y-115306763D01*
X76342873Y-115502401D01*
X75879327Y-115502401D01*
X75983898Y-115306763D01*
X76054288Y-115074718D01*
X76078056Y-114833400D01*
X76054288Y-114592082D01*
X75983898Y-114360037D01*
X75869591Y-114146184D01*
X75715760Y-113958740D01*
X75528316Y-113804909D01*
X75314463Y-113690602D01*
X75082418Y-113620212D01*
X74901572Y-113602400D01*
X74780628Y-113602400D01*
X74599782Y-113620212D01*
X74367737Y-113690602D01*
X74153884Y-113804909D01*
X73966440Y-113958740D01*
X73812609Y-114146184D01*
X73698302Y-114360037D01*
X73627912Y-114592082D01*
X73604144Y-114833400D01*
X73627912Y-115074718D01*
X73698302Y-115306763D01*
X73802873Y-115502401D01*
X73339327Y-115502401D01*
X73443898Y-115306763D01*
X73514288Y-115074718D01*
X73538056Y-114833400D01*
X73514288Y-114592082D01*
X73443898Y-114360037D01*
X73329591Y-114146184D01*
X73175760Y-113958740D01*
X72988316Y-113804909D01*
X72774463Y-113690602D01*
X72542418Y-113620212D01*
X72361572Y-113602400D01*
X72240628Y-113602400D01*
X72059782Y-113620212D01*
X71827737Y-113690602D01*
X71613884Y-113804909D01*
X71426440Y-113958740D01*
X71272609Y-114146184D01*
X71158302Y-114360037D01*
X71087912Y-114592082D01*
X71064144Y-114833400D01*
X71087912Y-115074718D01*
X71158302Y-115306763D01*
X71262873Y-115502401D01*
X71145692Y-115502401D01*
X70986474Y-115343183D01*
X70986469Y-115343177D01*
X70914641Y-115271349D01*
X70974288Y-115074718D01*
X70998056Y-114833400D01*
X70974288Y-114592082D01*
X70903898Y-114360037D01*
X70789591Y-114146184D01*
X70635760Y-113958740D01*
X70448316Y-113804909D01*
X70234463Y-113690602D01*
X70002418Y-113620212D01*
X69821572Y-113602400D01*
X69700628Y-113602400D01*
X69519782Y-113620212D01*
X69287737Y-113690602D01*
X69073884Y-113804909D01*
X68886440Y-113958740D01*
X68732609Y-114146184D01*
X68618302Y-114360037D01*
X68547912Y-114592082D01*
X68524144Y-114833400D01*
X68547912Y-115074718D01*
X68618302Y-115306763D01*
X68732609Y-115520616D01*
X68886440Y-115708060D01*
X69073884Y-115861891D01*
X69243235Y-115952411D01*
X69055703Y-115952411D01*
X68446473Y-115343182D01*
X68446469Y-115343177D01*
X68374641Y-115271349D01*
X68434288Y-115074718D01*
X68458056Y-114833400D01*
X68434288Y-114592082D01*
X68363898Y-114360037D01*
X68249591Y-114146184D01*
X68095760Y-113958740D01*
X67908316Y-113804909D01*
X67694463Y-113690602D01*
X67462418Y-113620212D01*
X67281572Y-113602400D01*
X67160628Y-113602400D01*
X66979782Y-113620212D01*
X66747737Y-113690602D01*
X66533884Y-113804909D01*
X66346440Y-113958740D01*
X66192609Y-114146184D01*
X66078302Y-114360037D01*
X66007912Y-114592082D01*
X65984144Y-114833400D01*
X66007912Y-115074718D01*
X66078302Y-115306763D01*
X66192609Y-115520616D01*
X66204671Y-115535313D01*
X65962112Y-115292755D01*
X65962108Y-115292750D01*
X65859327Y-115189969D01*
X65894288Y-115074718D01*
X65918056Y-114833400D01*
X65894288Y-114592082D01*
X65823898Y-114360037D01*
X65709591Y-114146184D01*
X65555760Y-113958740D01*
X65368316Y-113804909D01*
X65154463Y-113690602D01*
X64922418Y-113620212D01*
X64741572Y-113602400D01*
X64620628Y-113602400D01*
X64439782Y-113620212D01*
X64207737Y-113690602D01*
X63993884Y-113804909D01*
X63806440Y-113958740D01*
X63652609Y-114146184D01*
X63540083Y-114356705D01*
X63485257Y-114202148D01*
X63336278Y-113952045D01*
X63141369Y-113735812D01*
X62908020Y-113561759D01*
X62645199Y-113436575D01*
X62497990Y-113391924D01*
X62268100Y-113513245D01*
X62268100Y-114706400D01*
X62288100Y-114706400D01*
X62288100Y-114960400D01*
X62268100Y-114960400D01*
X62268100Y-116153555D01*
X62497990Y-116274876D01*
X62645199Y-116230225D01*
X62908020Y-116105041D01*
X63141369Y-115930988D01*
X63336278Y-115714755D01*
X63485257Y-115464652D01*
X63540083Y-115310095D01*
X63652609Y-115520616D01*
X63806440Y-115708060D01*
X63993884Y-115861891D01*
X64207737Y-115976198D01*
X64439782Y-116046588D01*
X64620628Y-116064400D01*
X64741572Y-116064400D01*
X64922418Y-116046588D01*
X65037669Y-116011627D01*
X65140450Y-116114408D01*
X65140455Y-116114412D01*
X66400113Y-117374072D01*
X66418304Y-117396238D01*
X66440470Y-117414429D01*
X66440472Y-117414431D01*
X66506773Y-117468842D01*
X66607706Y-117522792D01*
X66717225Y-117556014D01*
X66831121Y-117567232D01*
X66859661Y-117564421D01*
X81890025Y-117564421D01*
X81918565Y-117567232D01*
X81947105Y-117564421D01*
X82032461Y-117556014D01*
X82141980Y-117522792D01*
X82242913Y-117468842D01*
X82331382Y-117396238D01*
X82349582Y-117374061D01*
X85782444Y-113941200D01*
X112546541Y-113941200D01*
X123104991Y-124499651D01*
X123104991Y-127840031D01*
X123075502Y-127742820D01*
X123016537Y-127632506D01*
X122937185Y-127535815D01*
X122840494Y-127456463D01*
X122730180Y-127397498D01*
X122610482Y-127361188D01*
X122486000Y-127348928D01*
X121371750Y-127352000D01*
X121213000Y-127510750D01*
X121213000Y-129660000D01*
X121233000Y-129660000D01*
X121233000Y-129914000D01*
X121213000Y-129914000D01*
X121213000Y-132063250D01*
X121371750Y-132222000D01*
X122486000Y-132225072D01*
X122610482Y-132212812D01*
X122730180Y-132176502D01*
X122840494Y-132117537D01*
X122937185Y-132038185D01*
X123016537Y-131941494D01*
X123075502Y-131831180D01*
X123104990Y-131733970D01*
X123104990Y-134836808D01*
X121895344Y-136046455D01*
X121873173Y-136064650D01*
X121854980Y-136086819D01*
X121800568Y-136153120D01*
X121746618Y-136254053D01*
X121713396Y-136363572D01*
X121702178Y-136477467D01*
X121704990Y-136506017D01*
X121704989Y-138178993D01*
X121702178Y-138207533D01*
X121704989Y-138236072D01*
X121713396Y-138321428D01*
X121746618Y-138430947D01*
X121800568Y-138531880D01*
X121873172Y-138620350D01*
X121895349Y-138638550D01*
X122335002Y-139078204D01*
X122335002Y-141328773D01*
X122139363Y-141224202D01*
X121907318Y-141153812D01*
X121726472Y-141136000D01*
X121605528Y-141136000D01*
X121424682Y-141153812D01*
X121309431Y-141188773D01*
X120307010Y-140186353D01*
X120307010Y-132375552D01*
X120309821Y-132347012D01*
X120298603Y-132233116D01*
X120295653Y-132223391D01*
X120800250Y-132222000D01*
X120959000Y-132063250D01*
X120959000Y-129914000D01*
X119209750Y-129914000D01*
X119051000Y-130072750D01*
X119049426Y-130848769D01*
X116187656Y-127987000D01*
X119047928Y-127987000D01*
X119051000Y-129501250D01*
X119209750Y-129660000D01*
X120959000Y-129660000D01*
X120959000Y-127510750D01*
X120800250Y-127352000D01*
X119686000Y-127348928D01*
X119561518Y-127361188D01*
X119441820Y-127397498D01*
X119331506Y-127456463D01*
X119234815Y-127535815D01*
X119155463Y-127632506D01*
X119096498Y-127742820D01*
X119060188Y-127862518D01*
X119047928Y-127987000D01*
X116187656Y-127987000D01*
X115877001Y-127676346D01*
X115877001Y-125865537D01*
X115879812Y-125837000D01*
X115872360Y-125761346D01*
X115868594Y-125723105D01*
X115835372Y-125613586D01*
X115781422Y-125512653D01*
X115708818Y-125424184D01*
X115686646Y-125405988D01*
X115327012Y-125046355D01*
X115327008Y-125046350D01*
X115224227Y-124943569D01*
X115259188Y-124828318D01*
X115282956Y-124587000D01*
X115259188Y-124345682D01*
X115188798Y-124113637D01*
X115074491Y-123899784D01*
X114920660Y-123712340D01*
X114733216Y-123558509D01*
X114519363Y-123444202D01*
X114287318Y-123373812D01*
X114106472Y-123356000D01*
X113985528Y-123356000D01*
X113804682Y-123373812D01*
X113572637Y-123444202D01*
X113358784Y-123558509D01*
X113171340Y-123712340D01*
X113017509Y-123899784D01*
X112903202Y-124113637D01*
X112832812Y-124345682D01*
X112809044Y-124587000D01*
X112832812Y-124828318D01*
X112903202Y-125060363D01*
X113017509Y-125274216D01*
X113171340Y-125461660D01*
X113358784Y-125615491D01*
X113572637Y-125729798D01*
X113804682Y-125800188D01*
X113985528Y-125818000D01*
X114106472Y-125818000D01*
X114287318Y-125800188D01*
X114402569Y-125765227D01*
X114505350Y-125868008D01*
X114505355Y-125868012D01*
X114715002Y-126077659D01*
X114715002Y-126088773D01*
X114519363Y-125984202D01*
X114287318Y-125913812D01*
X114106472Y-125896000D01*
X113985528Y-125896000D01*
X113804682Y-125913812D01*
X113572637Y-125984202D01*
X113358784Y-126098509D01*
X113171340Y-126252340D01*
X113017509Y-126439784D01*
X112903202Y-126653637D01*
X112832812Y-126885682D01*
X112809044Y-127127000D01*
X112832812Y-127368318D01*
X112903202Y-127600363D01*
X113017509Y-127814216D01*
X113171340Y-128001660D01*
X113358784Y-128155491D01*
X113572637Y-128269798D01*
X113804682Y-128340188D01*
X113985528Y-128358000D01*
X114106472Y-128358000D01*
X114287318Y-128340188D01*
X114519363Y-128269798D01*
X114733216Y-128155491D01*
X114755624Y-128137101D01*
X114756630Y-128140417D01*
X114810580Y-128241350D01*
X114883184Y-128329820D01*
X114905361Y-128348020D01*
X119145011Y-132587672D01*
X119145011Y-133944353D01*
X115224227Y-130023570D01*
X115259188Y-129908318D01*
X115282956Y-129667000D01*
X115259188Y-129425682D01*
X115188798Y-129193637D01*
X115074491Y-128979784D01*
X114920660Y-128792340D01*
X114733216Y-128638509D01*
X114519363Y-128524202D01*
X114287318Y-128453812D01*
X114106472Y-128436000D01*
X113985528Y-128436000D01*
X113804682Y-128453812D01*
X113572637Y-128524202D01*
X113358784Y-128638509D01*
X113171340Y-128792340D01*
X113017509Y-128979784D01*
X112903202Y-129193637D01*
X112832812Y-129425682D01*
X112809044Y-129667000D01*
X112832812Y-129908318D01*
X112903202Y-130140363D01*
X113017509Y-130354216D01*
X113171340Y-130541660D01*
X113358784Y-130695491D01*
X113572637Y-130809798D01*
X113804682Y-130880188D01*
X113985528Y-130898000D01*
X114106472Y-130898000D01*
X114287318Y-130880188D01*
X114402570Y-130845227D01*
X114747915Y-131190572D01*
X114733216Y-131178509D01*
X114519363Y-131064202D01*
X114287318Y-130993812D01*
X114106472Y-130976000D01*
X113985528Y-130976000D01*
X113804682Y-130993812D01*
X113572637Y-131064202D01*
X113358784Y-131178509D01*
X113171340Y-131332340D01*
X113017509Y-131519784D01*
X112903202Y-131733637D01*
X112832812Y-131965682D01*
X112809044Y-132207000D01*
X112832812Y-132448318D01*
X112903202Y-132680363D01*
X113017509Y-132894216D01*
X113171340Y-133081660D01*
X113358784Y-133235491D01*
X113572637Y-133349798D01*
X113804682Y-133420188D01*
X113985528Y-133438000D01*
X114106472Y-133438000D01*
X114287318Y-133420188D01*
X114519363Y-133349798D01*
X114733216Y-133235491D01*
X114920660Y-133081660D01*
X115074491Y-132894216D01*
X115188798Y-132680363D01*
X115259188Y-132448318D01*
X115282956Y-132207000D01*
X115259188Y-131965682D01*
X115188798Y-131733637D01*
X115074491Y-131519784D01*
X115062429Y-131505086D01*
X118545001Y-134987659D01*
X118545000Y-141281735D01*
X118438784Y-141338509D01*
X118251340Y-141492340D01*
X118097509Y-141679784D01*
X117983202Y-141893637D01*
X117912812Y-142125682D01*
X117889044Y-142367000D01*
X117912812Y-142608318D01*
X117983202Y-142840363D01*
X118097509Y-143054216D01*
X118251340Y-143241660D01*
X118438784Y-143395491D01*
X118652637Y-143509798D01*
X118884682Y-143580188D01*
X119065528Y-143598000D01*
X119186472Y-143598000D01*
X119367318Y-143580188D01*
X119599363Y-143509798D01*
X119813216Y-143395491D01*
X120000660Y-143241660D01*
X120154491Y-143054216D01*
X120268798Y-142840363D01*
X120339188Y-142608318D01*
X120362956Y-142367000D01*
X120339188Y-142125682D01*
X120268798Y-141893637D01*
X120154491Y-141679784D01*
X120142429Y-141665087D01*
X120487773Y-142010431D01*
X120452812Y-142125682D01*
X120429044Y-142367000D01*
X120452812Y-142608318D01*
X120523202Y-142840363D01*
X120637509Y-143054216D01*
X120791340Y-143241660D01*
X120978784Y-143395491D01*
X121192637Y-143509798D01*
X121424682Y-143580188D01*
X121605528Y-143598000D01*
X121726472Y-143598000D01*
X121907318Y-143580188D01*
X122139363Y-143509798D01*
X122335001Y-143405227D01*
X122335001Y-143868773D01*
X122139363Y-143764202D01*
X121907318Y-143693812D01*
X121726472Y-143676000D01*
X121605528Y-143676000D01*
X121424682Y-143693812D01*
X121192637Y-143764202D01*
X120978784Y-143878509D01*
X120791340Y-144032340D01*
X120637509Y-144219784D01*
X120523202Y-144433637D01*
X120452812Y-144665682D01*
X120429044Y-144907000D01*
X120452812Y-145148318D01*
X120523202Y-145380363D01*
X120637509Y-145594216D01*
X120791340Y-145781660D01*
X120978784Y-145935491D01*
X121192637Y-146049798D01*
X121424682Y-146120188D01*
X121605528Y-146138000D01*
X121726472Y-146138000D01*
X121907318Y-146120188D01*
X122139363Y-146049798D01*
X122353216Y-145935491D01*
X122470130Y-145839543D01*
X122503184Y-145879820D01*
X122525361Y-145898020D01*
X123174986Y-146547646D01*
X123193182Y-146569818D01*
X123281651Y-146642422D01*
X123382584Y-146696372D01*
X123492103Y-146729594D01*
X123605999Y-146740812D01*
X123634539Y-146738001D01*
X129857461Y-146738001D01*
X129886001Y-146740812D01*
X129914541Y-146738001D01*
X129999897Y-146729594D01*
X130109416Y-146696372D01*
X130210349Y-146642422D01*
X130298818Y-146569818D01*
X130317018Y-146547641D01*
X130926646Y-145938014D01*
X130948818Y-145919818D01*
X131017584Y-145836025D01*
X131138784Y-145935491D01*
X131352637Y-146049798D01*
X131584682Y-146120188D01*
X131765528Y-146138000D01*
X131886472Y-146138000D01*
X132067318Y-146120188D01*
X132299363Y-146049798D01*
X132513216Y-145935491D01*
X132700660Y-145781660D01*
X132854491Y-145594216D01*
X132968798Y-145380363D01*
X133039188Y-145148318D01*
X133062956Y-144907000D01*
X133129044Y-144907000D01*
X133152812Y-145148318D01*
X133223202Y-145380363D01*
X133337509Y-145594216D01*
X133491340Y-145781660D01*
X133678784Y-145935491D01*
X133892637Y-146049798D01*
X134124682Y-146120188D01*
X134305528Y-146138000D01*
X134426472Y-146138000D01*
X134607318Y-146120188D01*
X134839363Y-146049798D01*
X135053216Y-145935491D01*
X135240660Y-145781660D01*
X135394491Y-145594216D01*
X135508798Y-145380363D01*
X135579188Y-145148318D01*
X135602956Y-144907000D01*
X135579188Y-144665682D01*
X135508798Y-144433637D01*
X135394491Y-144219784D01*
X135240660Y-144032340D01*
X135053216Y-143878509D01*
X134839363Y-143764202D01*
X134607318Y-143693812D01*
X134426472Y-143676000D01*
X134305528Y-143676000D01*
X134124682Y-143693812D01*
X133892637Y-143764202D01*
X133678784Y-143878509D01*
X133491340Y-144032340D01*
X133337509Y-144219784D01*
X133223202Y-144433637D01*
X133152812Y-144665682D01*
X133129044Y-144907000D01*
X133062956Y-144907000D01*
X133039188Y-144665682D01*
X132968798Y-144433637D01*
X132854491Y-144219784D01*
X132700660Y-144032340D01*
X132513216Y-143878509D01*
X132299363Y-143764202D01*
X132067318Y-143693812D01*
X131886472Y-143676000D01*
X131765528Y-143676000D01*
X131584682Y-143693812D01*
X131352637Y-143764202D01*
X131138784Y-143878509D01*
X131124085Y-143890572D01*
X131469431Y-143545227D01*
X131584682Y-143580188D01*
X131765528Y-143598000D01*
X131886472Y-143598000D01*
X132067318Y-143580188D01*
X132299363Y-143509798D01*
X132513216Y-143395491D01*
X132700660Y-143241660D01*
X132854491Y-143054216D01*
X132968798Y-142840363D01*
X133039188Y-142608318D01*
X133062956Y-142367000D01*
X133039188Y-142125682D01*
X132968798Y-141893637D01*
X132864227Y-141697999D01*
X133327773Y-141697999D01*
X133223202Y-141893637D01*
X133152812Y-142125682D01*
X133129044Y-142367000D01*
X133152812Y-142608318D01*
X133223202Y-142840363D01*
X133337509Y-143054216D01*
X133491340Y-143241660D01*
X133678784Y-143395491D01*
X133892637Y-143509798D01*
X134124682Y-143580188D01*
X134305528Y-143598000D01*
X134426472Y-143598000D01*
X134607318Y-143580188D01*
X134839363Y-143509798D01*
X135053216Y-143395491D01*
X135240660Y-143241660D01*
X135394491Y-143054216D01*
X135508798Y-142840363D01*
X135579188Y-142608318D01*
X135602956Y-142367000D01*
X135579188Y-142125682D01*
X135508798Y-141893637D01*
X135404227Y-141697999D01*
X135414053Y-141697999D01*
X135438899Y-141700446D01*
X135463745Y-141697999D01*
X135463753Y-141697999D01*
X135538092Y-141690677D01*
X135633474Y-141661744D01*
X135721378Y-141614758D01*
X135798426Y-141551526D01*
X135814275Y-141532214D01*
X137575001Y-139771489D01*
X137575001Y-141328773D01*
X137379363Y-141224202D01*
X137147318Y-141153812D01*
X136966472Y-141136000D01*
X136845528Y-141136000D01*
X136664682Y-141153812D01*
X136432637Y-141224202D01*
X136218784Y-141338509D01*
X136031340Y-141492340D01*
X135877509Y-141679784D01*
X135763202Y-141893637D01*
X135692812Y-142125682D01*
X135669044Y-142367000D01*
X135692812Y-142608318D01*
X135763202Y-142840363D01*
X135877509Y-143054216D01*
X136031340Y-143241660D01*
X136218784Y-143395491D01*
X136432637Y-143509798D01*
X136664682Y-143580188D01*
X136845528Y-143598000D01*
X136966472Y-143598000D01*
X137147318Y-143580188D01*
X137379363Y-143509798D01*
X137575001Y-143405227D01*
X137575001Y-143522407D01*
X137343949Y-143753459D01*
X137147318Y-143693812D01*
X136966472Y-143676000D01*
X136845528Y-143676000D01*
X136664682Y-143693812D01*
X136432637Y-143764202D01*
X136218784Y-143878509D01*
X136031340Y-144032340D01*
X135877509Y-144219784D01*
X135763202Y-144433637D01*
X135692812Y-144665682D01*
X135669044Y-144907000D01*
X135692812Y-145148318D01*
X135763202Y-145380363D01*
X135877509Y-145594216D01*
X136031340Y-145781660D01*
X136218784Y-145935491D01*
X136432637Y-146049798D01*
X136664682Y-146120188D01*
X136845528Y-146138000D01*
X136966472Y-146138000D01*
X137147318Y-146120188D01*
X137379363Y-146049798D01*
X137593216Y-145935491D01*
X137780660Y-145781660D01*
X137934491Y-145594216D01*
X138048798Y-145380363D01*
X138119188Y-145148318D01*
X138142956Y-144907000D01*
X138119188Y-144665682D01*
X138059541Y-144469051D01*
X138421221Y-144107371D01*
X138440528Y-144091526D01*
X138503760Y-144014478D01*
X138550746Y-143926574D01*
X138579679Y-143831192D01*
X138587001Y-143756853D01*
X138587001Y-143756846D01*
X138589448Y-143732000D01*
X138587001Y-143707154D01*
X138587001Y-117468355D01*
X138589449Y-117443501D01*
X138579679Y-117344308D01*
X138550746Y-117248926D01*
X138528248Y-117206836D01*
X138503760Y-117161022D01*
X138440528Y-117083974D01*
X138421221Y-117068129D01*
X133785791Y-112432700D01*
X140552486Y-112432700D01*
X140664412Y-150711300D01*
X48374427Y-150711300D01*
X48381505Y-145263891D01*
X112604519Y-145263891D01*
X112701843Y-145538252D01*
X112850822Y-145788355D01*
X113045731Y-146004588D01*
X113279080Y-146178641D01*
X113541901Y-146303825D01*
X113689110Y-146348476D01*
X113919000Y-146227155D01*
X113919000Y-145034000D01*
X112725186Y-145034000D01*
X112604519Y-145263891D01*
X48381505Y-145263891D01*
X48382433Y-144550109D01*
X112604519Y-144550109D01*
X112725186Y-144780000D01*
X113919000Y-144780000D01*
X113919000Y-144760000D01*
X114173000Y-144760000D01*
X114173000Y-144780000D01*
X114193000Y-144780000D01*
X114193000Y-145034000D01*
X114173000Y-145034000D01*
X114173000Y-146227155D01*
X114402890Y-146348476D01*
X114550099Y-146303825D01*
X114812920Y-146178641D01*
X115046269Y-146004588D01*
X115241178Y-145788355D01*
X115390157Y-145538252D01*
X115444983Y-145383695D01*
X115557509Y-145594216D01*
X115711340Y-145781660D01*
X115898784Y-145935491D01*
X116112637Y-146049798D01*
X116344682Y-146120188D01*
X116525528Y-146138000D01*
X116646472Y-146138000D01*
X116827318Y-146120188D01*
X117059363Y-146049798D01*
X117273216Y-145935491D01*
X117460660Y-145781660D01*
X117614491Y-145594216D01*
X117728798Y-145380363D01*
X117799188Y-145148318D01*
X117822956Y-144907000D01*
X117889044Y-144907000D01*
X117912812Y-145148318D01*
X117983202Y-145380363D01*
X118097509Y-145594216D01*
X118251340Y-145781660D01*
X118438784Y-145935491D01*
X118652637Y-146049798D01*
X118884682Y-146120188D01*
X119065528Y-146138000D01*
X119186472Y-146138000D01*
X119367318Y-146120188D01*
X119599363Y-146049798D01*
X119813216Y-145935491D01*
X120000660Y-145781660D01*
X120154491Y-145594216D01*
X120268798Y-145380363D01*
X120339188Y-145148318D01*
X120362956Y-144907000D01*
X120339188Y-144665682D01*
X120268798Y-144433637D01*
X120154491Y-144219784D01*
X120000660Y-144032340D01*
X119813216Y-143878509D01*
X119599363Y-143764202D01*
X119367318Y-143693812D01*
X119186472Y-143676000D01*
X119065528Y-143676000D01*
X118884682Y-143693812D01*
X118652637Y-143764202D01*
X118438784Y-143878509D01*
X118251340Y-144032340D01*
X118097509Y-144219784D01*
X117983202Y-144433637D01*
X117912812Y-144665682D01*
X117889044Y-144907000D01*
X117822956Y-144907000D01*
X117799188Y-144665682D01*
X117728798Y-144433637D01*
X117614491Y-144219784D01*
X117460660Y-144032340D01*
X117273216Y-143878509D01*
X117059363Y-143764202D01*
X116827318Y-143693812D01*
X116646472Y-143676000D01*
X116525528Y-143676000D01*
X116344682Y-143693812D01*
X116112637Y-143764202D01*
X115898784Y-143878509D01*
X115711340Y-144032340D01*
X115557509Y-144219784D01*
X115444983Y-144430305D01*
X115390157Y-144275748D01*
X115241178Y-144025645D01*
X115046269Y-143809412D01*
X114812920Y-143635359D01*
X114738355Y-143599843D01*
X114896000Y-143599843D01*
X114970689Y-143592487D01*
X115042508Y-143570701D01*
X115108696Y-143535322D01*
X115166711Y-143487711D01*
X115214322Y-143429696D01*
X115249701Y-143363508D01*
X115271487Y-143291689D01*
X115278843Y-143217000D01*
X115278843Y-142367000D01*
X115349044Y-142367000D01*
X115372812Y-142608318D01*
X115443202Y-142840363D01*
X115557509Y-143054216D01*
X115711340Y-143241660D01*
X115898784Y-143395491D01*
X116112637Y-143509798D01*
X116344682Y-143580188D01*
X116525528Y-143598000D01*
X116646472Y-143598000D01*
X116827318Y-143580188D01*
X117059363Y-143509798D01*
X117273216Y-143395491D01*
X117460660Y-143241660D01*
X117614491Y-143054216D01*
X117728798Y-142840363D01*
X117799188Y-142608318D01*
X117822956Y-142367000D01*
X117799188Y-142125682D01*
X117728798Y-141893637D01*
X117614491Y-141679784D01*
X117460660Y-141492340D01*
X117273216Y-141338509D01*
X117059363Y-141224202D01*
X116827318Y-141153812D01*
X116646472Y-141136000D01*
X116525528Y-141136000D01*
X116344682Y-141153812D01*
X116112637Y-141224202D01*
X115898784Y-141338509D01*
X115711340Y-141492340D01*
X115557509Y-141679784D01*
X115443202Y-141893637D01*
X115372812Y-142125682D01*
X115349044Y-142367000D01*
X115278843Y-142367000D01*
X115278843Y-141517000D01*
X115271487Y-141442311D01*
X115249701Y-141370492D01*
X115214322Y-141304304D01*
X115166711Y-141246289D01*
X115108696Y-141198678D01*
X115042508Y-141163299D01*
X114970689Y-141141513D01*
X114896000Y-141134157D01*
X113196000Y-141134157D01*
X113121311Y-141141513D01*
X113049492Y-141163299D01*
X112983304Y-141198678D01*
X112925289Y-141246289D01*
X112877678Y-141304304D01*
X112842299Y-141370492D01*
X112820513Y-141442311D01*
X112813157Y-141517000D01*
X112813157Y-143217000D01*
X112820513Y-143291689D01*
X112842299Y-143363508D01*
X112877678Y-143429696D01*
X112925289Y-143487711D01*
X112983304Y-143535322D01*
X113049492Y-143570701D01*
X113121311Y-143592487D01*
X113196000Y-143599843D01*
X113353645Y-143599843D01*
X113279080Y-143635359D01*
X113045731Y-143809412D01*
X112850822Y-144025645D01*
X112701843Y-144275748D01*
X112604519Y-144550109D01*
X48382433Y-144550109D01*
X48391408Y-137643890D01*
X112604524Y-137643890D01*
X112649175Y-137791099D01*
X112774359Y-138053920D01*
X112948412Y-138287269D01*
X113164645Y-138482178D01*
X113352633Y-138594157D01*
X113196000Y-138594157D01*
X113121311Y-138601513D01*
X113049492Y-138623299D01*
X112983304Y-138658678D01*
X112925289Y-138706289D01*
X112877678Y-138764304D01*
X112842299Y-138830492D01*
X112820513Y-138902311D01*
X112813157Y-138977000D01*
X112813157Y-140677000D01*
X112820513Y-140751689D01*
X112842299Y-140823508D01*
X112877678Y-140889696D01*
X112925289Y-140947711D01*
X112983304Y-140995322D01*
X113049492Y-141030701D01*
X113121311Y-141052487D01*
X113196000Y-141059843D01*
X114896000Y-141059843D01*
X114970689Y-141052487D01*
X115042508Y-141030701D01*
X115108696Y-140995322D01*
X115166711Y-140947711D01*
X115214322Y-140889696D01*
X115249701Y-140823508D01*
X115271487Y-140751689D01*
X115278843Y-140677000D01*
X115278843Y-138977000D01*
X115271487Y-138902311D01*
X115249701Y-138830492D01*
X115214322Y-138764304D01*
X115166711Y-138706289D01*
X115108696Y-138658678D01*
X115042508Y-138623299D01*
X114970689Y-138601513D01*
X114896000Y-138594157D01*
X114739367Y-138594157D01*
X114927355Y-138482178D01*
X115143588Y-138287269D01*
X115317641Y-138053920D01*
X115442825Y-137791099D01*
X115487476Y-137643890D01*
X115366155Y-137414000D01*
X114173000Y-137414000D01*
X114173000Y-137434000D01*
X113919000Y-137434000D01*
X113919000Y-137414000D01*
X112725845Y-137414000D01*
X112604524Y-137643890D01*
X48391408Y-137643890D01*
X48392335Y-136930110D01*
X112604524Y-136930110D01*
X112725845Y-137160000D01*
X113919000Y-137160000D01*
X113919000Y-137140000D01*
X114173000Y-137140000D01*
X114173000Y-137160000D01*
X115366155Y-137160000D01*
X115487476Y-136930110D01*
X115442825Y-136782901D01*
X115317641Y-136520080D01*
X115143588Y-136286731D01*
X114927355Y-136091822D01*
X114677252Y-135942843D01*
X114522695Y-135888017D01*
X114733216Y-135775491D01*
X114920660Y-135621660D01*
X115074491Y-135434216D01*
X115188798Y-135220363D01*
X115259188Y-134988318D01*
X115282956Y-134747000D01*
X115259188Y-134505682D01*
X115188798Y-134273637D01*
X115074491Y-134059784D01*
X114920660Y-133872340D01*
X114733216Y-133718509D01*
X114519363Y-133604202D01*
X114287318Y-133533812D01*
X114106472Y-133516000D01*
X113985528Y-133516000D01*
X113804682Y-133533812D01*
X113572637Y-133604202D01*
X113358784Y-133718509D01*
X113171340Y-133872340D01*
X113017509Y-134059784D01*
X112903202Y-134273637D01*
X112832812Y-134505682D01*
X112809044Y-134747000D01*
X112832812Y-134988318D01*
X112903202Y-135220363D01*
X113017509Y-135434216D01*
X113171340Y-135621660D01*
X113358784Y-135775491D01*
X113569305Y-135888017D01*
X113414748Y-135942843D01*
X113164645Y-136091822D01*
X112948412Y-136286731D01*
X112774359Y-136520080D01*
X112649175Y-136782901D01*
X112604524Y-136930110D01*
X48392335Y-136930110D01*
X48411677Y-122047000D01*
X112809044Y-122047000D01*
X112832812Y-122288318D01*
X112903202Y-122520363D01*
X113017509Y-122734216D01*
X113171340Y-122921660D01*
X113358784Y-123075491D01*
X113572637Y-123189798D01*
X113804682Y-123260188D01*
X113985528Y-123278000D01*
X114106472Y-123278000D01*
X114287318Y-123260188D01*
X114519363Y-123189798D01*
X114733216Y-123075491D01*
X114920660Y-122921660D01*
X115074491Y-122734216D01*
X115188798Y-122520363D01*
X115259188Y-122288318D01*
X115282956Y-122047000D01*
X115259188Y-121805682D01*
X115188798Y-121573637D01*
X115074491Y-121359784D01*
X114920660Y-121172340D01*
X114733216Y-121018509D01*
X114519363Y-120904202D01*
X114287318Y-120833812D01*
X114106472Y-120816000D01*
X113985528Y-120816000D01*
X113804682Y-120833812D01*
X113572637Y-120904202D01*
X113358784Y-121018509D01*
X113171340Y-121172340D01*
X113017509Y-121359784D01*
X112903202Y-121573637D01*
X112832812Y-121805682D01*
X112809044Y-122047000D01*
X48411677Y-122047000D01*
X48414977Y-119507000D01*
X112809044Y-119507000D01*
X112832812Y-119748318D01*
X112903202Y-119980363D01*
X113017509Y-120194216D01*
X113171340Y-120381660D01*
X113358784Y-120535491D01*
X113572637Y-120649798D01*
X113804682Y-120720188D01*
X113985528Y-120738000D01*
X114106472Y-120738000D01*
X114287318Y-120720188D01*
X114519363Y-120649798D01*
X114733216Y-120535491D01*
X114920660Y-120381660D01*
X115074491Y-120194216D01*
X115188798Y-119980363D01*
X115259188Y-119748318D01*
X115282956Y-119507000D01*
X115259188Y-119265682D01*
X115188798Y-119033637D01*
X115074491Y-118819784D01*
X114920660Y-118632340D01*
X114733216Y-118478509D01*
X114519363Y-118364202D01*
X114287318Y-118293812D01*
X114106472Y-118276000D01*
X113985528Y-118276000D01*
X113804682Y-118293812D01*
X113572637Y-118364202D01*
X113358784Y-118478509D01*
X113171340Y-118632340D01*
X113017509Y-118819784D01*
X112903202Y-119033637D01*
X112832812Y-119265682D01*
X112809044Y-119507000D01*
X48414977Y-119507000D01*
X48420588Y-115190291D01*
X55619619Y-115190291D01*
X55716943Y-115464652D01*
X55865922Y-115714755D01*
X56060831Y-115930988D01*
X56294180Y-116105041D01*
X56557001Y-116230225D01*
X56704210Y-116274876D01*
X56934100Y-116153555D01*
X56934100Y-114960400D01*
X55740286Y-114960400D01*
X55619619Y-115190291D01*
X48420588Y-115190291D01*
X48421515Y-114476509D01*
X55619619Y-114476509D01*
X55740286Y-114706400D01*
X56934100Y-114706400D01*
X56934100Y-113513245D01*
X57188100Y-113513245D01*
X57188100Y-114706400D01*
X57208100Y-114706400D01*
X57208100Y-114960400D01*
X57188100Y-114960400D01*
X57188100Y-116153555D01*
X57417990Y-116274876D01*
X57565199Y-116230225D01*
X57828020Y-116105041D01*
X58061369Y-115930988D01*
X58256278Y-115714755D01*
X58405257Y-115464652D01*
X58460083Y-115310095D01*
X58572609Y-115520616D01*
X58726440Y-115708060D01*
X58913884Y-115861891D01*
X59127737Y-115976198D01*
X59359782Y-116046588D01*
X59540628Y-116064400D01*
X59661572Y-116064400D01*
X59842418Y-116046588D01*
X60074463Y-115976198D01*
X60288316Y-115861891D01*
X60475760Y-115708060D01*
X60629591Y-115520616D01*
X60742117Y-115310095D01*
X60796943Y-115464652D01*
X60945922Y-115714755D01*
X61140831Y-115930988D01*
X61374180Y-116105041D01*
X61637001Y-116230225D01*
X61784210Y-116274876D01*
X62014100Y-116153555D01*
X62014100Y-114960400D01*
X61994100Y-114960400D01*
X61994100Y-114706400D01*
X62014100Y-114706400D01*
X62014100Y-113513245D01*
X61784210Y-113391924D01*
X61637001Y-113436575D01*
X61374180Y-113561759D01*
X61140831Y-113735812D01*
X60945922Y-113952045D01*
X60796943Y-114202148D01*
X60742117Y-114356705D01*
X60629591Y-114146184D01*
X60475760Y-113958740D01*
X60288316Y-113804909D01*
X60074463Y-113690602D01*
X59842418Y-113620212D01*
X59661572Y-113602400D01*
X59540628Y-113602400D01*
X59359782Y-113620212D01*
X59127737Y-113690602D01*
X58913884Y-113804909D01*
X58726440Y-113958740D01*
X58572609Y-114146184D01*
X58460083Y-114356705D01*
X58405257Y-114202148D01*
X58256278Y-113952045D01*
X58061369Y-113735812D01*
X57828020Y-113561759D01*
X57565199Y-113436575D01*
X57417990Y-113391924D01*
X57188100Y-113513245D01*
X56934100Y-113513245D01*
X56704210Y-113391924D01*
X56557001Y-113436575D01*
X56294180Y-113561759D01*
X56060831Y-113735812D01*
X55865922Y-113952045D01*
X55716943Y-114202148D01*
X55619619Y-114476509D01*
X48421515Y-114476509D01*
X48424172Y-112432700D01*
X84374808Y-112432700D01*
X81305108Y-115502401D01*
X81305108Y-115502401D01*
G37*
X81305108Y-115502401D02*
X81153943Y-115502401D01*
X81153943Y-113983400D01*
X81146587Y-113908711D01*
X81124801Y-113836892D01*
X81089422Y-113770704D01*
X81041811Y-113712689D01*
X80983796Y-113665078D01*
X80917608Y-113629699D01*
X80845789Y-113607913D01*
X80771100Y-113600557D01*
X79071100Y-113600557D01*
X78996411Y-113607913D01*
X78924592Y-113629699D01*
X78858404Y-113665078D01*
X78800389Y-113712689D01*
X78752778Y-113770704D01*
X78717399Y-113836892D01*
X78695613Y-113908711D01*
X78688257Y-113983400D01*
X78688257Y-115502401D01*
X78419327Y-115502401D01*
X78523898Y-115306763D01*
X78594288Y-115074718D01*
X78618056Y-114833400D01*
X78594288Y-114592082D01*
X78523898Y-114360037D01*
X78409591Y-114146184D01*
X78255760Y-113958740D01*
X78068316Y-113804909D01*
X77854463Y-113690602D01*
X77622418Y-113620212D01*
X77441572Y-113602400D01*
X77320628Y-113602400D01*
X77139782Y-113620212D01*
X76907737Y-113690602D01*
X76693884Y-113804909D01*
X76506440Y-113958740D01*
X76352609Y-114146184D01*
X76238302Y-114360037D01*
X76167912Y-114592082D01*
X76144144Y-114833400D01*
X76167912Y-115074718D01*
X76238302Y-115306763D01*
X76342873Y-115502401D01*
X75879327Y-115502401D01*
X75983898Y-115306763D01*
X76054288Y-115074718D01*
X76078056Y-114833400D01*
X76054288Y-114592082D01*
X75983898Y-114360037D01*
X75869591Y-114146184D01*
X75715760Y-113958740D01*
X75528316Y-113804909D01*
X75314463Y-113690602D01*
X75082418Y-113620212D01*
X74901572Y-113602400D01*
X74780628Y-113602400D01*
X74599782Y-113620212D01*
X74367737Y-113690602D01*
X74153884Y-113804909D01*
X73966440Y-113958740D01*
X73812609Y-114146184D01*
X73698302Y-114360037D01*
X73627912Y-114592082D01*
X73604144Y-114833400D01*
X73627912Y-115074718D01*
X73698302Y-115306763D01*
X73802873Y-115502401D01*
X73339327Y-115502401D01*
X73443898Y-115306763D01*
X73514288Y-115074718D01*
X73538056Y-114833400D01*
X73514288Y-114592082D01*
X73443898Y-114360037D01*
X73329591Y-114146184D01*
X73175760Y-113958740D01*
X72988316Y-113804909D01*
X72774463Y-113690602D01*
X72542418Y-113620212D01*
X72361572Y-113602400D01*
X72240628Y-113602400D01*
X72059782Y-113620212D01*
X71827737Y-113690602D01*
X71613884Y-113804909D01*
X71426440Y-113958740D01*
X71272609Y-114146184D01*
X71158302Y-114360037D01*
X71087912Y-114592082D01*
X71064144Y-114833400D01*
X71087912Y-115074718D01*
X71158302Y-115306763D01*
X71262873Y-115502401D01*
X71145692Y-115502401D01*
X70986474Y-115343183D01*
X70986469Y-115343177D01*
X70914641Y-115271349D01*
X70974288Y-115074718D01*
X70998056Y-114833400D01*
X70974288Y-114592082D01*
X70903898Y-114360037D01*
X70789591Y-114146184D01*
X70635760Y-113958740D01*
X70448316Y-113804909D01*
X70234463Y-113690602D01*
X70002418Y-113620212D01*
X69821572Y-113602400D01*
X69700628Y-113602400D01*
X69519782Y-113620212D01*
X69287737Y-113690602D01*
X69073884Y-113804909D01*
X68886440Y-113958740D01*
X68732609Y-114146184D01*
X68618302Y-114360037D01*
X68547912Y-114592082D01*
X68524144Y-114833400D01*
X68547912Y-115074718D01*
X68618302Y-115306763D01*
X68732609Y-115520616D01*
X68886440Y-115708060D01*
X69073884Y-115861891D01*
X69243235Y-115952411D01*
X69055703Y-115952411D01*
X68446473Y-115343182D01*
X68446469Y-115343177D01*
X68374641Y-115271349D01*
X68434288Y-115074718D01*
X68458056Y-114833400D01*
X68434288Y-114592082D01*
X68363898Y-114360037D01*
X68249591Y-114146184D01*
X68095760Y-113958740D01*
X67908316Y-113804909D01*
X67694463Y-113690602D01*
X67462418Y-113620212D01*
X67281572Y-113602400D01*
X67160628Y-113602400D01*
X66979782Y-113620212D01*
X66747737Y-113690602D01*
X66533884Y-113804909D01*
X66346440Y-113958740D01*
X66192609Y-114146184D01*
X66078302Y-114360037D01*
X66007912Y-114592082D01*
X65984144Y-114833400D01*
X66007912Y-115074718D01*
X66078302Y-115306763D01*
X66192609Y-115520616D01*
X66204671Y-115535313D01*
X65962112Y-115292755D01*
X65962108Y-115292750D01*
X65859327Y-115189969D01*
X65894288Y-115074718D01*
X65918056Y-114833400D01*
X65894288Y-114592082D01*
X65823898Y-114360037D01*
X65709591Y-114146184D01*
X65555760Y-113958740D01*
X65368316Y-113804909D01*
X65154463Y-113690602D01*
X64922418Y-113620212D01*
X64741572Y-113602400D01*
X64620628Y-113602400D01*
X64439782Y-113620212D01*
X64207737Y-113690602D01*
X63993884Y-113804909D01*
X63806440Y-113958740D01*
X63652609Y-114146184D01*
X63540083Y-114356705D01*
X63485257Y-114202148D01*
X63336278Y-113952045D01*
X63141369Y-113735812D01*
X62908020Y-113561759D01*
X62645199Y-113436575D01*
X62497990Y-113391924D01*
X62268100Y-113513245D01*
X62268100Y-114706400D01*
X62288100Y-114706400D01*
X62288100Y-114960400D01*
X62268100Y-114960400D01*
X62268100Y-116153555D01*
X62497990Y-116274876D01*
X62645199Y-116230225D01*
X62908020Y-116105041D01*
X63141369Y-115930988D01*
X63336278Y-115714755D01*
X63485257Y-115464652D01*
X63540083Y-115310095D01*
X63652609Y-115520616D01*
X63806440Y-115708060D01*
X63993884Y-115861891D01*
X64207737Y-115976198D01*
X64439782Y-116046588D01*
X64620628Y-116064400D01*
X64741572Y-116064400D01*
X64922418Y-116046588D01*
X65037669Y-116011627D01*
X65140450Y-116114408D01*
X65140455Y-116114412D01*
X66400113Y-117374072D01*
X66418304Y-117396238D01*
X66440470Y-117414429D01*
X66440472Y-117414431D01*
X66506773Y-117468842D01*
X66607706Y-117522792D01*
X66717225Y-117556014D01*
X66831121Y-117567232D01*
X66859661Y-117564421D01*
X81890025Y-117564421D01*
X81918565Y-117567232D01*
X81947105Y-117564421D01*
X82032461Y-117556014D01*
X82141980Y-117522792D01*
X82242913Y-117468842D01*
X82331382Y-117396238D01*
X82349582Y-117374061D01*
X85782444Y-113941200D01*
X112546541Y-113941200D01*
X123104991Y-124499651D01*
X123104991Y-127840031D01*
X123075502Y-127742820D01*
X123016537Y-127632506D01*
X122937185Y-127535815D01*
X122840494Y-127456463D01*
X122730180Y-127397498D01*
X122610482Y-127361188D01*
X122486000Y-127348928D01*
X121371750Y-127352000D01*
X121213000Y-127510750D01*
X121213000Y-129660000D01*
X121233000Y-129660000D01*
X121233000Y-129914000D01*
X121213000Y-129914000D01*
X121213000Y-132063250D01*
X121371750Y-132222000D01*
X122486000Y-132225072D01*
X122610482Y-132212812D01*
X122730180Y-132176502D01*
X122840494Y-132117537D01*
X122937185Y-132038185D01*
X123016537Y-131941494D01*
X123075502Y-131831180D01*
X123104990Y-131733970D01*
X123104990Y-134836808D01*
X121895344Y-136046455D01*
X121873173Y-136064650D01*
X121854980Y-136086819D01*
X121800568Y-136153120D01*
X121746618Y-136254053D01*
X121713396Y-136363572D01*
X121702178Y-136477467D01*
X121704990Y-136506017D01*
X121704989Y-138178993D01*
X121702178Y-138207533D01*
X121704989Y-138236072D01*
X121713396Y-138321428D01*
X121746618Y-138430947D01*
X121800568Y-138531880D01*
X121873172Y-138620350D01*
X121895349Y-138638550D01*
X122335002Y-139078204D01*
X122335002Y-141328773D01*
X122139363Y-141224202D01*
X121907318Y-141153812D01*
X121726472Y-141136000D01*
X121605528Y-141136000D01*
X121424682Y-141153812D01*
X121309431Y-141188773D01*
X120307010Y-140186353D01*
X120307010Y-132375552D01*
X120309821Y-132347012D01*
X120298603Y-132233116D01*
X120295653Y-132223391D01*
X120800250Y-132222000D01*
X120959000Y-132063250D01*
X120959000Y-129914000D01*
X119209750Y-129914000D01*
X119051000Y-130072750D01*
X119049426Y-130848769D01*
X116187656Y-127987000D01*
X119047928Y-127987000D01*
X119051000Y-129501250D01*
X119209750Y-129660000D01*
X120959000Y-129660000D01*
X120959000Y-127510750D01*
X120800250Y-127352000D01*
X119686000Y-127348928D01*
X119561518Y-127361188D01*
X119441820Y-127397498D01*
X119331506Y-127456463D01*
X119234815Y-127535815D01*
X119155463Y-127632506D01*
X119096498Y-127742820D01*
X119060188Y-127862518D01*
X119047928Y-127987000D01*
X116187656Y-127987000D01*
X115877001Y-127676346D01*
X115877001Y-125865537D01*
X115879812Y-125837000D01*
X115872360Y-125761346D01*
X115868594Y-125723105D01*
X115835372Y-125613586D01*
X115781422Y-125512653D01*
X115708818Y-125424184D01*
X115686646Y-125405988D01*
X115327012Y-125046355D01*
X115327008Y-125046350D01*
X115224227Y-124943569D01*
X115259188Y-124828318D01*
X115282956Y-124587000D01*
X115259188Y-124345682D01*
X115188798Y-124113637D01*
X115074491Y-123899784D01*
X114920660Y-123712340D01*
X114733216Y-123558509D01*
X114519363Y-123444202D01*
X114287318Y-123373812D01*
X114106472Y-123356000D01*
X113985528Y-123356000D01*
X113804682Y-123373812D01*
X113572637Y-123444202D01*
X113358784Y-123558509D01*
X113171340Y-123712340D01*
X113017509Y-123899784D01*
X112903202Y-124113637D01*
X112832812Y-124345682D01*
X112809044Y-124587000D01*
X112832812Y-124828318D01*
X112903202Y-125060363D01*
X113017509Y-125274216D01*
X113171340Y-125461660D01*
X113358784Y-125615491D01*
X113572637Y-125729798D01*
X113804682Y-125800188D01*
X113985528Y-125818000D01*
X114106472Y-125818000D01*
X114287318Y-125800188D01*
X114402569Y-125765227D01*
X114505350Y-125868008D01*
X114505355Y-125868012D01*
X114715002Y-126077659D01*
X114715002Y-126088773D01*
X114519363Y-125984202D01*
X114287318Y-125913812D01*
X114106472Y-125896000D01*
X113985528Y-125896000D01*
X113804682Y-125913812D01*
X113572637Y-125984202D01*
X113358784Y-126098509D01*
X113171340Y-126252340D01*
X113017509Y-126439784D01*
X112903202Y-126653637D01*
X112832812Y-126885682D01*
X112809044Y-127127000D01*
X112832812Y-127368318D01*
X112903202Y-127600363D01*
X113017509Y-127814216D01*
X113171340Y-128001660D01*
X113358784Y-128155491D01*
X113572637Y-128269798D01*
X113804682Y-128340188D01*
X113985528Y-128358000D01*
X114106472Y-128358000D01*
X114287318Y-128340188D01*
X114519363Y-128269798D01*
X114733216Y-128155491D01*
X114755624Y-128137101D01*
X114756630Y-128140417D01*
X114810580Y-128241350D01*
X114883184Y-128329820D01*
X114905361Y-128348020D01*
X119145011Y-132587672D01*
X119145011Y-133944353D01*
X115224227Y-130023570D01*
X115259188Y-129908318D01*
X115282956Y-129667000D01*
X115259188Y-129425682D01*
X115188798Y-129193637D01*
X115074491Y-128979784D01*
X114920660Y-128792340D01*
X114733216Y-128638509D01*
X114519363Y-128524202D01*
X114287318Y-128453812D01*
X114106472Y-128436000D01*
X113985528Y-128436000D01*
X113804682Y-128453812D01*
X113572637Y-128524202D01*
X113358784Y-128638509D01*
X113171340Y-128792340D01*
X113017509Y-128979784D01*
X112903202Y-129193637D01*
X112832812Y-129425682D01*
X112809044Y-129667000D01*
X112832812Y-129908318D01*
X112903202Y-130140363D01*
X113017509Y-130354216D01*
X113171340Y-130541660D01*
X113358784Y-130695491D01*
X113572637Y-130809798D01*
X113804682Y-130880188D01*
X113985528Y-130898000D01*
X114106472Y-130898000D01*
X114287318Y-130880188D01*
X114402570Y-130845227D01*
X114747915Y-131190572D01*
X114733216Y-131178509D01*
X114519363Y-131064202D01*
X114287318Y-130993812D01*
X114106472Y-130976000D01*
X113985528Y-130976000D01*
X113804682Y-130993812D01*
X113572637Y-131064202D01*
X113358784Y-131178509D01*
X113171340Y-131332340D01*
X113017509Y-131519784D01*
X112903202Y-131733637D01*
X112832812Y-131965682D01*
X112809044Y-132207000D01*
X112832812Y-132448318D01*
X112903202Y-132680363D01*
X113017509Y-132894216D01*
X113171340Y-133081660D01*
X113358784Y-133235491D01*
X113572637Y-133349798D01*
X113804682Y-133420188D01*
X113985528Y-133438000D01*
X114106472Y-133438000D01*
X114287318Y-133420188D01*
X114519363Y-133349798D01*
X114733216Y-133235491D01*
X114920660Y-133081660D01*
X115074491Y-132894216D01*
X115188798Y-132680363D01*
X115259188Y-132448318D01*
X115282956Y-132207000D01*
X115259188Y-131965682D01*
X115188798Y-131733637D01*
X115074491Y-131519784D01*
X115062429Y-131505086D01*
X118545001Y-134987659D01*
X118545000Y-141281735D01*
X118438784Y-141338509D01*
X118251340Y-141492340D01*
X118097509Y-141679784D01*
X117983202Y-141893637D01*
X117912812Y-142125682D01*
X117889044Y-142367000D01*
X117912812Y-142608318D01*
X117983202Y-142840363D01*
X118097509Y-143054216D01*
X118251340Y-143241660D01*
X118438784Y-143395491D01*
X118652637Y-143509798D01*
X118884682Y-143580188D01*
X119065528Y-143598000D01*
X119186472Y-143598000D01*
X119367318Y-143580188D01*
X119599363Y-143509798D01*
X119813216Y-143395491D01*
X120000660Y-143241660D01*
X120154491Y-143054216D01*
X120268798Y-142840363D01*
X120339188Y-142608318D01*
X120362956Y-142367000D01*
X120339188Y-142125682D01*
X120268798Y-141893637D01*
X120154491Y-141679784D01*
X120142429Y-141665087D01*
X120487773Y-142010431D01*
X120452812Y-142125682D01*
X120429044Y-142367000D01*
X120452812Y-142608318D01*
X120523202Y-142840363D01*
X120637509Y-143054216D01*
X120791340Y-143241660D01*
X120978784Y-143395491D01*
X121192637Y-143509798D01*
X121424682Y-143580188D01*
X121605528Y-143598000D01*
X121726472Y-143598000D01*
X121907318Y-143580188D01*
X122139363Y-143509798D01*
X122335001Y-143405227D01*
X122335001Y-143868773D01*
X122139363Y-143764202D01*
X121907318Y-143693812D01*
X121726472Y-143676000D01*
X121605528Y-143676000D01*
X121424682Y-143693812D01*
X121192637Y-143764202D01*
X120978784Y-143878509D01*
X120791340Y-144032340D01*
X120637509Y-144219784D01*
X120523202Y-144433637D01*
X120452812Y-144665682D01*
X120429044Y-144907000D01*
X120452812Y-145148318D01*
X120523202Y-145380363D01*
X120637509Y-145594216D01*
X120791340Y-145781660D01*
X120978784Y-145935491D01*
X121192637Y-146049798D01*
X121424682Y-146120188D01*
X121605528Y-146138000D01*
X121726472Y-146138000D01*
X121907318Y-146120188D01*
X122139363Y-146049798D01*
X122353216Y-145935491D01*
X122470130Y-145839543D01*
X122503184Y-145879820D01*
X122525361Y-145898020D01*
X123174986Y-146547646D01*
X123193182Y-146569818D01*
X123281651Y-146642422D01*
X123382584Y-146696372D01*
X123492103Y-146729594D01*
X123605999Y-146740812D01*
X123634539Y-146738001D01*
X129857461Y-146738001D01*
X129886001Y-146740812D01*
X129914541Y-146738001D01*
X129999897Y-146729594D01*
X130109416Y-146696372D01*
X130210349Y-146642422D01*
X130298818Y-146569818D01*
X130317018Y-146547641D01*
X130926646Y-145938014D01*
X130948818Y-145919818D01*
X131017584Y-145836025D01*
X131138784Y-145935491D01*
X131352637Y-146049798D01*
X131584682Y-146120188D01*
X131765528Y-146138000D01*
X131886472Y-146138000D01*
X132067318Y-146120188D01*
X132299363Y-146049798D01*
X132513216Y-145935491D01*
X132700660Y-145781660D01*
X132854491Y-145594216D01*
X132968798Y-145380363D01*
X133039188Y-145148318D01*
X133062956Y-144907000D01*
X133129044Y-144907000D01*
X133152812Y-145148318D01*
X133223202Y-145380363D01*
X133337509Y-145594216D01*
X133491340Y-145781660D01*
X133678784Y-145935491D01*
X133892637Y-146049798D01*
X134124682Y-146120188D01*
X134305528Y-146138000D01*
X134426472Y-146138000D01*
X134607318Y-146120188D01*
X134839363Y-146049798D01*
X135053216Y-145935491D01*
X135240660Y-145781660D01*
X135394491Y-145594216D01*
X135508798Y-145380363D01*
X135579188Y-145148318D01*
X135602956Y-144907000D01*
X135579188Y-144665682D01*
X135508798Y-144433637D01*
X135394491Y-144219784D01*
X135240660Y-144032340D01*
X135053216Y-143878509D01*
X134839363Y-143764202D01*
X134607318Y-143693812D01*
X134426472Y-143676000D01*
X134305528Y-143676000D01*
X134124682Y-143693812D01*
X133892637Y-143764202D01*
X133678784Y-143878509D01*
X133491340Y-144032340D01*
X133337509Y-144219784D01*
X133223202Y-144433637D01*
X133152812Y-144665682D01*
X133129044Y-144907000D01*
X133062956Y-144907000D01*
X133039188Y-144665682D01*
X132968798Y-144433637D01*
X132854491Y-144219784D01*
X132700660Y-144032340D01*
X132513216Y-143878509D01*
X132299363Y-143764202D01*
X132067318Y-143693812D01*
X131886472Y-143676000D01*
X131765528Y-143676000D01*
X131584682Y-143693812D01*
X131352637Y-143764202D01*
X131138784Y-143878509D01*
X131124085Y-143890572D01*
X131469431Y-143545227D01*
X131584682Y-143580188D01*
X131765528Y-143598000D01*
X131886472Y-143598000D01*
X132067318Y-143580188D01*
X132299363Y-143509798D01*
X132513216Y-143395491D01*
X132700660Y-143241660D01*
X132854491Y-143054216D01*
X132968798Y-142840363D01*
X133039188Y-142608318D01*
X133062956Y-142367000D01*
X133039188Y-142125682D01*
X132968798Y-141893637D01*
X132864227Y-141697999D01*
X133327773Y-141697999D01*
X133223202Y-141893637D01*
X133152812Y-142125682D01*
X133129044Y-142367000D01*
X133152812Y-142608318D01*
X133223202Y-142840363D01*
X133337509Y-143054216D01*
X133491340Y-143241660D01*
X133678784Y-143395491D01*
X133892637Y-143509798D01*
X134124682Y-143580188D01*
X134305528Y-143598000D01*
X134426472Y-143598000D01*
X134607318Y-143580188D01*
X134839363Y-143509798D01*
X135053216Y-143395491D01*
X135240660Y-143241660D01*
X135394491Y-143054216D01*
X135508798Y-142840363D01*
X135579188Y-142608318D01*
X135602956Y-142367000D01*
X135579188Y-142125682D01*
X135508798Y-141893637D01*
X135404227Y-141697999D01*
X135414053Y-141697999D01*
X135438899Y-141700446D01*
X135463745Y-141697999D01*
X135463753Y-141697999D01*
X135538092Y-141690677D01*
X135633474Y-141661744D01*
X135721378Y-141614758D01*
X135798426Y-141551526D01*
X135814275Y-141532214D01*
X137575001Y-139771489D01*
X137575001Y-141328773D01*
X137379363Y-141224202D01*
X137147318Y-141153812D01*
X136966472Y-141136000D01*
X136845528Y-141136000D01*
X136664682Y-141153812D01*
X136432637Y-141224202D01*
X136218784Y-141338509D01*
X136031340Y-141492340D01*
X135877509Y-141679784D01*
X135763202Y-141893637D01*
X135692812Y-142125682D01*
X135669044Y-142367000D01*
X135692812Y-142608318D01*
X135763202Y-142840363D01*
X135877509Y-143054216D01*
X136031340Y-143241660D01*
X136218784Y-143395491D01*
X136432637Y-143509798D01*
X136664682Y-143580188D01*
X136845528Y-143598000D01*
X136966472Y-143598000D01*
X137147318Y-143580188D01*
X137379363Y-143509798D01*
X137575001Y-143405227D01*
X137575001Y-143522407D01*
X137343949Y-143753459D01*
X137147318Y-143693812D01*
X136966472Y-143676000D01*
X136845528Y-143676000D01*
X136664682Y-143693812D01*
X136432637Y-143764202D01*
X136218784Y-143878509D01*
X136031340Y-144032340D01*
X135877509Y-144219784D01*
X135763202Y-144433637D01*
X135692812Y-144665682D01*
X135669044Y-144907000D01*
X135692812Y-145148318D01*
X135763202Y-145380363D01*
X135877509Y-145594216D01*
X136031340Y-145781660D01*
X136218784Y-145935491D01*
X136432637Y-146049798D01*
X136664682Y-146120188D01*
X136845528Y-146138000D01*
X136966472Y-146138000D01*
X137147318Y-146120188D01*
X137379363Y-146049798D01*
X137593216Y-145935491D01*
X137780660Y-145781660D01*
X137934491Y-145594216D01*
X138048798Y-145380363D01*
X138119188Y-145148318D01*
X138142956Y-144907000D01*
X138119188Y-144665682D01*
X138059541Y-144469051D01*
X138421221Y-144107371D01*
X138440528Y-144091526D01*
X138503760Y-144014478D01*
X138550746Y-143926574D01*
X138579679Y-143831192D01*
X138587001Y-143756853D01*
X138587001Y-143756846D01*
X138589448Y-143732000D01*
X138587001Y-143707154D01*
X138587001Y-117468355D01*
X138589449Y-117443501D01*
X138579679Y-117344308D01*
X138550746Y-117248926D01*
X138528248Y-117206836D01*
X138503760Y-117161022D01*
X138440528Y-117083974D01*
X138421221Y-117068129D01*
X133785791Y-112432700D01*
X140552486Y-112432700D01*
X140664412Y-150711300D01*
X48374427Y-150711300D01*
X48381505Y-145263891D01*
X112604519Y-145263891D01*
X112701843Y-145538252D01*
X112850822Y-145788355D01*
X113045731Y-146004588D01*
X113279080Y-146178641D01*
X113541901Y-146303825D01*
X113689110Y-146348476D01*
X113919000Y-146227155D01*
X113919000Y-145034000D01*
X112725186Y-145034000D01*
X112604519Y-145263891D01*
X48381505Y-145263891D01*
X48382433Y-144550109D01*
X112604519Y-144550109D01*
X112725186Y-144780000D01*
X113919000Y-144780000D01*
X113919000Y-144760000D01*
X114173000Y-144760000D01*
X114173000Y-144780000D01*
X114193000Y-144780000D01*
X114193000Y-145034000D01*
X114173000Y-145034000D01*
X114173000Y-146227155D01*
X114402890Y-146348476D01*
X114550099Y-146303825D01*
X114812920Y-146178641D01*
X115046269Y-146004588D01*
X115241178Y-145788355D01*
X115390157Y-145538252D01*
X115444983Y-145383695D01*
X115557509Y-145594216D01*
X115711340Y-145781660D01*
X115898784Y-145935491D01*
X116112637Y-146049798D01*
X116344682Y-146120188D01*
X116525528Y-146138000D01*
X116646472Y-146138000D01*
X116827318Y-146120188D01*
X117059363Y-146049798D01*
X117273216Y-145935491D01*
X117460660Y-145781660D01*
X117614491Y-145594216D01*
X117728798Y-145380363D01*
X117799188Y-145148318D01*
X117822956Y-144907000D01*
X117889044Y-144907000D01*
X117912812Y-145148318D01*
X117983202Y-145380363D01*
X118097509Y-145594216D01*
X118251340Y-145781660D01*
X118438784Y-145935491D01*
X118652637Y-146049798D01*
X118884682Y-146120188D01*
X119065528Y-146138000D01*
X119186472Y-146138000D01*
X119367318Y-146120188D01*
X119599363Y-146049798D01*
X119813216Y-145935491D01*
X120000660Y-145781660D01*
X120154491Y-145594216D01*
X120268798Y-145380363D01*
X120339188Y-145148318D01*
X120362956Y-144907000D01*
X120339188Y-144665682D01*
X120268798Y-144433637D01*
X120154491Y-144219784D01*
X120000660Y-144032340D01*
X119813216Y-143878509D01*
X119599363Y-143764202D01*
X119367318Y-143693812D01*
X119186472Y-143676000D01*
X119065528Y-143676000D01*
X118884682Y-143693812D01*
X118652637Y-143764202D01*
X118438784Y-143878509D01*
X118251340Y-144032340D01*
X118097509Y-144219784D01*
X117983202Y-144433637D01*
X117912812Y-144665682D01*
X117889044Y-144907000D01*
X117822956Y-144907000D01*
X117799188Y-144665682D01*
X117728798Y-144433637D01*
X117614491Y-144219784D01*
X117460660Y-144032340D01*
X117273216Y-143878509D01*
X117059363Y-143764202D01*
X116827318Y-143693812D01*
X116646472Y-143676000D01*
X116525528Y-143676000D01*
X116344682Y-143693812D01*
X116112637Y-143764202D01*
X115898784Y-143878509D01*
X115711340Y-144032340D01*
X115557509Y-144219784D01*
X115444983Y-144430305D01*
X115390157Y-144275748D01*
X115241178Y-144025645D01*
X115046269Y-143809412D01*
X114812920Y-143635359D01*
X114738355Y-143599843D01*
X114896000Y-143599843D01*
X114970689Y-143592487D01*
X115042508Y-143570701D01*
X115108696Y-143535322D01*
X115166711Y-143487711D01*
X115214322Y-143429696D01*
X115249701Y-143363508D01*
X115271487Y-143291689D01*
X115278843Y-143217000D01*
X115278843Y-142367000D01*
X115349044Y-142367000D01*
X115372812Y-142608318D01*
X115443202Y-142840363D01*
X115557509Y-143054216D01*
X115711340Y-143241660D01*
X115898784Y-143395491D01*
X116112637Y-143509798D01*
X116344682Y-143580188D01*
X116525528Y-143598000D01*
X116646472Y-143598000D01*
X116827318Y-143580188D01*
X117059363Y-143509798D01*
X117273216Y-143395491D01*
X117460660Y-143241660D01*
X117614491Y-143054216D01*
X117728798Y-142840363D01*
X117799188Y-142608318D01*
X117822956Y-142367000D01*
X117799188Y-142125682D01*
X117728798Y-141893637D01*
X117614491Y-141679784D01*
X117460660Y-141492340D01*
X117273216Y-141338509D01*
X117059363Y-141224202D01*
X116827318Y-141153812D01*
X116646472Y-141136000D01*
X116525528Y-141136000D01*
X116344682Y-141153812D01*
X116112637Y-141224202D01*
X115898784Y-141338509D01*
X115711340Y-141492340D01*
X115557509Y-141679784D01*
X115443202Y-141893637D01*
X115372812Y-142125682D01*
X115349044Y-142367000D01*
X115278843Y-142367000D01*
X115278843Y-141517000D01*
X115271487Y-141442311D01*
X115249701Y-141370492D01*
X115214322Y-141304304D01*
X115166711Y-141246289D01*
X115108696Y-141198678D01*
X115042508Y-141163299D01*
X114970689Y-141141513D01*
X114896000Y-141134157D01*
X113196000Y-141134157D01*
X113121311Y-141141513D01*
X113049492Y-141163299D01*
X112983304Y-141198678D01*
X112925289Y-141246289D01*
X112877678Y-141304304D01*
X112842299Y-141370492D01*
X112820513Y-141442311D01*
X112813157Y-141517000D01*
X112813157Y-143217000D01*
X112820513Y-143291689D01*
X112842299Y-143363508D01*
X112877678Y-143429696D01*
X112925289Y-143487711D01*
X112983304Y-143535322D01*
X113049492Y-143570701D01*
X113121311Y-143592487D01*
X113196000Y-143599843D01*
X113353645Y-143599843D01*
X113279080Y-143635359D01*
X113045731Y-143809412D01*
X112850822Y-144025645D01*
X112701843Y-144275748D01*
X112604519Y-144550109D01*
X48382433Y-144550109D01*
X48391408Y-137643890D01*
X112604524Y-137643890D01*
X112649175Y-137791099D01*
X112774359Y-138053920D01*
X112948412Y-138287269D01*
X113164645Y-138482178D01*
X113352633Y-138594157D01*
X113196000Y-138594157D01*
X113121311Y-138601513D01*
X113049492Y-138623299D01*
X112983304Y-138658678D01*
X112925289Y-138706289D01*
X112877678Y-138764304D01*
X112842299Y-138830492D01*
X112820513Y-138902311D01*
X112813157Y-138977000D01*
X112813157Y-140677000D01*
X112820513Y-140751689D01*
X112842299Y-140823508D01*
X112877678Y-140889696D01*
X112925289Y-140947711D01*
X112983304Y-140995322D01*
X113049492Y-141030701D01*
X113121311Y-141052487D01*
X113196000Y-141059843D01*
X114896000Y-141059843D01*
X114970689Y-141052487D01*
X115042508Y-141030701D01*
X115108696Y-140995322D01*
X115166711Y-140947711D01*
X115214322Y-140889696D01*
X115249701Y-140823508D01*
X115271487Y-140751689D01*
X115278843Y-140677000D01*
X115278843Y-138977000D01*
X115271487Y-138902311D01*
X115249701Y-138830492D01*
X115214322Y-138764304D01*
X115166711Y-138706289D01*
X115108696Y-138658678D01*
X115042508Y-138623299D01*
X114970689Y-138601513D01*
X114896000Y-138594157D01*
X114739367Y-138594157D01*
X114927355Y-138482178D01*
X115143588Y-138287269D01*
X115317641Y-138053920D01*
X115442825Y-137791099D01*
X115487476Y-137643890D01*
X115366155Y-137414000D01*
X114173000Y-137414000D01*
X114173000Y-137434000D01*
X113919000Y-137434000D01*
X113919000Y-137414000D01*
X112725845Y-137414000D01*
X112604524Y-137643890D01*
X48391408Y-137643890D01*
X48392335Y-136930110D01*
X112604524Y-136930110D01*
X112725845Y-137160000D01*
X113919000Y-137160000D01*
X113919000Y-137140000D01*
X114173000Y-137140000D01*
X114173000Y-137160000D01*
X115366155Y-137160000D01*
X115487476Y-136930110D01*
X115442825Y-136782901D01*
X115317641Y-136520080D01*
X115143588Y-136286731D01*
X114927355Y-136091822D01*
X114677252Y-135942843D01*
X114522695Y-135888017D01*
X114733216Y-135775491D01*
X114920660Y-135621660D01*
X115074491Y-135434216D01*
X115188798Y-135220363D01*
X115259188Y-134988318D01*
X115282956Y-134747000D01*
X115259188Y-134505682D01*
X115188798Y-134273637D01*
X115074491Y-134059784D01*
X114920660Y-133872340D01*
X114733216Y-133718509D01*
X114519363Y-133604202D01*
X114287318Y-133533812D01*
X114106472Y-133516000D01*
X113985528Y-133516000D01*
X113804682Y-133533812D01*
X113572637Y-133604202D01*
X113358784Y-133718509D01*
X113171340Y-133872340D01*
X113017509Y-134059784D01*
X112903202Y-134273637D01*
X112832812Y-134505682D01*
X112809044Y-134747000D01*
X112832812Y-134988318D01*
X112903202Y-135220363D01*
X113017509Y-135434216D01*
X113171340Y-135621660D01*
X113358784Y-135775491D01*
X113569305Y-135888017D01*
X113414748Y-135942843D01*
X113164645Y-136091822D01*
X112948412Y-136286731D01*
X112774359Y-136520080D01*
X112649175Y-136782901D01*
X112604524Y-136930110D01*
X48392335Y-136930110D01*
X48411677Y-122047000D01*
X112809044Y-122047000D01*
X112832812Y-122288318D01*
X112903202Y-122520363D01*
X113017509Y-122734216D01*
X113171340Y-122921660D01*
X113358784Y-123075491D01*
X113572637Y-123189798D01*
X113804682Y-123260188D01*
X113985528Y-123278000D01*
X114106472Y-123278000D01*
X114287318Y-123260188D01*
X114519363Y-123189798D01*
X114733216Y-123075491D01*
X114920660Y-122921660D01*
X115074491Y-122734216D01*
X115188798Y-122520363D01*
X115259188Y-122288318D01*
X115282956Y-122047000D01*
X115259188Y-121805682D01*
X115188798Y-121573637D01*
X115074491Y-121359784D01*
X114920660Y-121172340D01*
X114733216Y-121018509D01*
X114519363Y-120904202D01*
X114287318Y-120833812D01*
X114106472Y-120816000D01*
X113985528Y-120816000D01*
X113804682Y-120833812D01*
X113572637Y-120904202D01*
X113358784Y-121018509D01*
X113171340Y-121172340D01*
X113017509Y-121359784D01*
X112903202Y-121573637D01*
X112832812Y-121805682D01*
X112809044Y-122047000D01*
X48411677Y-122047000D01*
X48414977Y-119507000D01*
X112809044Y-119507000D01*
X112832812Y-119748318D01*
X112903202Y-119980363D01*
X113017509Y-120194216D01*
X113171340Y-120381660D01*
X113358784Y-120535491D01*
X113572637Y-120649798D01*
X113804682Y-120720188D01*
X113985528Y-120738000D01*
X114106472Y-120738000D01*
X114287318Y-120720188D01*
X114519363Y-120649798D01*
X114733216Y-120535491D01*
X114920660Y-120381660D01*
X115074491Y-120194216D01*
X115188798Y-119980363D01*
X115259188Y-119748318D01*
X115282956Y-119507000D01*
X115259188Y-119265682D01*
X115188798Y-119033637D01*
X115074491Y-118819784D01*
X114920660Y-118632340D01*
X114733216Y-118478509D01*
X114519363Y-118364202D01*
X114287318Y-118293812D01*
X114106472Y-118276000D01*
X113985528Y-118276000D01*
X113804682Y-118293812D01*
X113572637Y-118364202D01*
X113358784Y-118478509D01*
X113171340Y-118632340D01*
X113017509Y-118819784D01*
X112903202Y-119033637D01*
X112832812Y-119265682D01*
X112809044Y-119507000D01*
X48414977Y-119507000D01*
X48420588Y-115190291D01*
X55619619Y-115190291D01*
X55716943Y-115464652D01*
X55865922Y-115714755D01*
X56060831Y-115930988D01*
X56294180Y-116105041D01*
X56557001Y-116230225D01*
X56704210Y-116274876D01*
X56934100Y-116153555D01*
X56934100Y-114960400D01*
X55740286Y-114960400D01*
X55619619Y-115190291D01*
X48420588Y-115190291D01*
X48421515Y-114476509D01*
X55619619Y-114476509D01*
X55740286Y-114706400D01*
X56934100Y-114706400D01*
X56934100Y-113513245D01*
X57188100Y-113513245D01*
X57188100Y-114706400D01*
X57208100Y-114706400D01*
X57208100Y-114960400D01*
X57188100Y-114960400D01*
X57188100Y-116153555D01*
X57417990Y-116274876D01*
X57565199Y-116230225D01*
X57828020Y-116105041D01*
X58061369Y-115930988D01*
X58256278Y-115714755D01*
X58405257Y-115464652D01*
X58460083Y-115310095D01*
X58572609Y-115520616D01*
X58726440Y-115708060D01*
X58913884Y-115861891D01*
X59127737Y-115976198D01*
X59359782Y-116046588D01*
X59540628Y-116064400D01*
X59661572Y-116064400D01*
X59842418Y-116046588D01*
X60074463Y-115976198D01*
X60288316Y-115861891D01*
X60475760Y-115708060D01*
X60629591Y-115520616D01*
X60742117Y-115310095D01*
X60796943Y-115464652D01*
X60945922Y-115714755D01*
X61140831Y-115930988D01*
X61374180Y-116105041D01*
X61637001Y-116230225D01*
X61784210Y-116274876D01*
X62014100Y-116153555D01*
X62014100Y-114960400D01*
X61994100Y-114960400D01*
X61994100Y-114706400D01*
X62014100Y-114706400D01*
X62014100Y-113513245D01*
X61784210Y-113391924D01*
X61637001Y-113436575D01*
X61374180Y-113561759D01*
X61140831Y-113735812D01*
X60945922Y-113952045D01*
X60796943Y-114202148D01*
X60742117Y-114356705D01*
X60629591Y-114146184D01*
X60475760Y-113958740D01*
X60288316Y-113804909D01*
X60074463Y-113690602D01*
X59842418Y-113620212D01*
X59661572Y-113602400D01*
X59540628Y-113602400D01*
X59359782Y-113620212D01*
X59127737Y-113690602D01*
X58913884Y-113804909D01*
X58726440Y-113958740D01*
X58572609Y-114146184D01*
X58460083Y-114356705D01*
X58405257Y-114202148D01*
X58256278Y-113952045D01*
X58061369Y-113735812D01*
X57828020Y-113561759D01*
X57565199Y-113436575D01*
X57417990Y-113391924D01*
X57188100Y-113513245D01*
X56934100Y-113513245D01*
X56704210Y-113391924D01*
X56557001Y-113436575D01*
X56294180Y-113561759D01*
X56060831Y-113735812D01*
X55865922Y-113952045D01*
X55716943Y-114202148D01*
X55619619Y-114476509D01*
X48421515Y-114476509D01*
X48424172Y-112432700D01*
X84374808Y-112432700D01*
X81305108Y-115502401D01*
G36*
X137060401Y-117786193D02*
G01*
X137060400Y-138854906D01*
X135229308Y-140685999D01*
X130485846Y-140685999D01*
X130461000Y-140683552D01*
X130436154Y-140685999D01*
X130436147Y-140685999D01*
X130371695Y-140692347D01*
X130361807Y-140693321D01*
X130339608Y-140700055D01*
X130266426Y-140722254D01*
X130178522Y-140769240D01*
X130101474Y-140832472D01*
X130085630Y-140851778D01*
X129723949Y-141213459D01*
X129527318Y-141153812D01*
X129346472Y-141136000D01*
X129225528Y-141136000D01*
X129044682Y-141153812D01*
X128812637Y-141224202D01*
X128616999Y-141328773D01*
X128616999Y-138777658D01*
X128810028Y-138584629D01*
X128883177Y-138614929D01*
X129149983Y-138668000D01*
X129422017Y-138668000D01*
X129688823Y-138614929D01*
X129940149Y-138510826D01*
X130166336Y-138359693D01*
X130358693Y-138167336D01*
X130509826Y-137941149D01*
X130613929Y-137689823D01*
X130667000Y-137423017D01*
X130667000Y-137150983D01*
X130613929Y-136884177D01*
X130509826Y-136632851D01*
X130358693Y-136406664D01*
X130166336Y-136214307D01*
X129940149Y-136063174D01*
X129688823Y-135959071D01*
X129422017Y-135906000D01*
X129149983Y-135906000D01*
X128883177Y-135959071D01*
X128631851Y-136063174D01*
X128405664Y-136214307D01*
X128213307Y-136406664D01*
X128192007Y-136438542D01*
X128185814Y-136426956D01*
X127921413Y-136331192D01*
X126965605Y-137287000D01*
X126979748Y-137301143D01*
X126800143Y-137480748D01*
X126786000Y-137466605D01*
X126771858Y-137480748D01*
X126592253Y-137301143D01*
X126606395Y-137287000D01*
X125650587Y-136331192D01*
X125386186Y-136426956D01*
X125380315Y-136439024D01*
X125358693Y-136406664D01*
X125166336Y-136214307D01*
X125072469Y-136151587D01*
X125830192Y-136151587D01*
X126786000Y-137107395D01*
X127741808Y-136151587D01*
X127646044Y-135887186D01*
X127356429Y-135746296D01*
X127044892Y-135664616D01*
X126723405Y-135645282D01*
X126404325Y-135689039D01*
X126099912Y-135794205D01*
X125925956Y-135887186D01*
X125830192Y-136151587D01*
X125072469Y-136151587D01*
X124940149Y-136063174D01*
X124688823Y-135959071D01*
X124510129Y-135923527D01*
X124676646Y-135757010D01*
X124698817Y-135738815D01*
X124771421Y-135650346D01*
X124825371Y-135549413D01*
X124858593Y-135439894D01*
X124867000Y-135354538D01*
X124867000Y-135354536D01*
X124869811Y-135325999D01*
X124867000Y-135297462D01*
X124867000Y-131587000D01*
X130447928Y-131587000D01*
X130460188Y-131711482D01*
X130496498Y-131831180D01*
X130555463Y-131941494D01*
X130634815Y-132038185D01*
X130731506Y-132117537D01*
X130841820Y-132176502D01*
X130961518Y-132212812D01*
X131086000Y-132225072D01*
X132200250Y-132222000D01*
X132359000Y-132063250D01*
X132359000Y-129914000D01*
X132613000Y-129914000D01*
X132613000Y-132063250D01*
X132771750Y-132222000D01*
X133886000Y-132225072D01*
X134010482Y-132212812D01*
X134130180Y-132176502D01*
X134240494Y-132117537D01*
X134337185Y-132038185D01*
X134416537Y-131941494D01*
X134475502Y-131831180D01*
X134511812Y-131711482D01*
X134524072Y-131587000D01*
X134521000Y-130072750D01*
X134362250Y-129914000D01*
X132613000Y-129914000D01*
X132359000Y-129914000D01*
X130609750Y-129914000D01*
X130451000Y-130072750D01*
X130447928Y-131587000D01*
X124867000Y-131587000D01*
X124867000Y-127987000D01*
X130447928Y-127987000D01*
X130451000Y-129501250D01*
X130609750Y-129660000D01*
X132359000Y-129660000D01*
X132359000Y-127510750D01*
X132613000Y-127510750D01*
X132613000Y-129660000D01*
X134362250Y-129660000D01*
X134521000Y-129501250D01*
X134524072Y-127987000D01*
X134511812Y-127862518D01*
X134475502Y-127742820D01*
X134416537Y-127632506D01*
X134337185Y-127535815D01*
X134240494Y-127456463D01*
X134130180Y-127397498D01*
X134010482Y-127361188D01*
X133886000Y-127348928D01*
X132771750Y-127352000D01*
X132613000Y-127510750D01*
X132359000Y-127510750D01*
X132200250Y-127352000D01*
X131086000Y-127348928D01*
X130961518Y-127361188D01*
X130841820Y-127397498D01*
X130731506Y-127456463D01*
X130634815Y-127535815D01*
X130555463Y-127632506D01*
X130496498Y-127742820D01*
X130460188Y-127862518D01*
X130447928Y-127987000D01*
X124867000Y-127987000D01*
X124867000Y-124041125D01*
X124940149Y-124010826D01*
X125072468Y-123922413D01*
X128330192Y-123922413D01*
X128425956Y-124186814D01*
X128715571Y-124327704D01*
X129027108Y-124409384D01*
X129348595Y-124428718D01*
X129667675Y-124384961D01*
X129972088Y-124279795D01*
X130146044Y-124186814D01*
X130241808Y-123922413D01*
X129286000Y-122966605D01*
X128330192Y-123922413D01*
X125072468Y-123922413D01*
X125166336Y-123859693D01*
X125358693Y-123667336D01*
X125509826Y-123441149D01*
X125613929Y-123189823D01*
X125667000Y-122923017D01*
X125667000Y-122849595D01*
X127644282Y-122849595D01*
X127688039Y-123168675D01*
X127793205Y-123473088D01*
X127886186Y-123647044D01*
X128150587Y-123742808D01*
X129106395Y-122787000D01*
X129465605Y-122787000D01*
X130421413Y-123742808D01*
X130685814Y-123647044D01*
X130826704Y-123357429D01*
X130908384Y-123045892D01*
X130927718Y-122724405D01*
X130883961Y-122405325D01*
X130778795Y-122100912D01*
X130685814Y-121926956D01*
X130421413Y-121831192D01*
X129465605Y-122787000D01*
X129106395Y-122787000D01*
X128150587Y-121831192D01*
X127886186Y-121926956D01*
X127745296Y-122216571D01*
X127663616Y-122528108D01*
X127644282Y-122849595D01*
X125667000Y-122849595D01*
X125667000Y-122650983D01*
X125613929Y-122384177D01*
X125509826Y-122132851D01*
X125358693Y-121906664D01*
X125166336Y-121714307D01*
X125072469Y-121651587D01*
X128330192Y-121651587D01*
X129286000Y-122607395D01*
X130241808Y-121651587D01*
X130146044Y-121387186D01*
X129856429Y-121246296D01*
X129544892Y-121164616D01*
X129223405Y-121145282D01*
X128904325Y-121189039D01*
X128599912Y-121294205D01*
X128425956Y-121387186D01*
X128330192Y-121651587D01*
X125072469Y-121651587D01*
X124940149Y-121563174D01*
X124688823Y-121459071D01*
X124422017Y-121406000D01*
X124149983Y-121406000D01*
X123883177Y-121459071D01*
X123631851Y-121563174D01*
X123405664Y-121714307D01*
X123213307Y-121906664D01*
X123062174Y-122132851D01*
X122958071Y-122384177D01*
X122905000Y-122650983D01*
X122905000Y-122656344D01*
X113581375Y-113332720D01*
X132606929Y-113332720D01*
X137060401Y-117786193D01*
X137060401Y-117786193D01*
G37*
X137060401Y-117786193D02*
X137060400Y-138854906D01*
X135229308Y-140685999D01*
X130485846Y-140685999D01*
X130461000Y-140683552D01*
X130436154Y-140685999D01*
X130436147Y-140685999D01*
X130371695Y-140692347D01*
X130361807Y-140693321D01*
X130339608Y-140700055D01*
X130266426Y-140722254D01*
X130178522Y-140769240D01*
X130101474Y-140832472D01*
X130085630Y-140851778D01*
X129723949Y-141213459D01*
X129527318Y-141153812D01*
X129346472Y-141136000D01*
X129225528Y-141136000D01*
X129044682Y-141153812D01*
X128812637Y-141224202D01*
X128616999Y-141328773D01*
X128616999Y-138777658D01*
X128810028Y-138584629D01*
X128883177Y-138614929D01*
X129149983Y-138668000D01*
X129422017Y-138668000D01*
X129688823Y-138614929D01*
X129940149Y-138510826D01*
X130166336Y-138359693D01*
X130358693Y-138167336D01*
X130509826Y-137941149D01*
X130613929Y-137689823D01*
X130667000Y-137423017D01*
X130667000Y-137150983D01*
X130613929Y-136884177D01*
X130509826Y-136632851D01*
X130358693Y-136406664D01*
X130166336Y-136214307D01*
X129940149Y-136063174D01*
X129688823Y-135959071D01*
X129422017Y-135906000D01*
X129149983Y-135906000D01*
X128883177Y-135959071D01*
X128631851Y-136063174D01*
X128405664Y-136214307D01*
X128213307Y-136406664D01*
X128192007Y-136438542D01*
X128185814Y-136426956D01*
X127921413Y-136331192D01*
X126965605Y-137287000D01*
X126979748Y-137301143D01*
X126800143Y-137480748D01*
X126786000Y-137466605D01*
X126771858Y-137480748D01*
X126592253Y-137301143D01*
X126606395Y-137287000D01*
X125650587Y-136331192D01*
X125386186Y-136426956D01*
X125380315Y-136439024D01*
X125358693Y-136406664D01*
X125166336Y-136214307D01*
X125072469Y-136151587D01*
X125830192Y-136151587D01*
X126786000Y-137107395D01*
X127741808Y-136151587D01*
X127646044Y-135887186D01*
X127356429Y-135746296D01*
X127044892Y-135664616D01*
X126723405Y-135645282D01*
X126404325Y-135689039D01*
X126099912Y-135794205D01*
X125925956Y-135887186D01*
X125830192Y-136151587D01*
X125072469Y-136151587D01*
X124940149Y-136063174D01*
X124688823Y-135959071D01*
X124510129Y-135923527D01*
X124676646Y-135757010D01*
X124698817Y-135738815D01*
X124771421Y-135650346D01*
X124825371Y-135549413D01*
X124858593Y-135439894D01*
X124867000Y-135354538D01*
X124867000Y-135354536D01*
X124869811Y-135325999D01*
X124867000Y-135297462D01*
X124867000Y-131587000D01*
X130447928Y-131587000D01*
X130460188Y-131711482D01*
X130496498Y-131831180D01*
X130555463Y-131941494D01*
X130634815Y-132038185D01*
X130731506Y-132117537D01*
X130841820Y-132176502D01*
X130961518Y-132212812D01*
X131086000Y-132225072D01*
X132200250Y-132222000D01*
X132359000Y-132063250D01*
X132359000Y-129914000D01*
X132613000Y-129914000D01*
X132613000Y-132063250D01*
X132771750Y-132222000D01*
X133886000Y-132225072D01*
X134010482Y-132212812D01*
X134130180Y-132176502D01*
X134240494Y-132117537D01*
X134337185Y-132038185D01*
X134416537Y-131941494D01*
X134475502Y-131831180D01*
X134511812Y-131711482D01*
X134524072Y-131587000D01*
X134521000Y-130072750D01*
X134362250Y-129914000D01*
X132613000Y-129914000D01*
X132359000Y-129914000D01*
X130609750Y-129914000D01*
X130451000Y-130072750D01*
X130447928Y-131587000D01*
X124867000Y-131587000D01*
X124867000Y-127987000D01*
X130447928Y-127987000D01*
X130451000Y-129501250D01*
X130609750Y-129660000D01*
X132359000Y-129660000D01*
X132359000Y-127510750D01*
X132613000Y-127510750D01*
X132613000Y-129660000D01*
X134362250Y-129660000D01*
X134521000Y-129501250D01*
X134524072Y-127987000D01*
X134511812Y-127862518D01*
X134475502Y-127742820D01*
X134416537Y-127632506D01*
X134337185Y-127535815D01*
X134240494Y-127456463D01*
X134130180Y-127397498D01*
X134010482Y-127361188D01*
X133886000Y-127348928D01*
X132771750Y-127352000D01*
X132613000Y-127510750D01*
X132359000Y-127510750D01*
X132200250Y-127352000D01*
X131086000Y-127348928D01*
X130961518Y-127361188D01*
X130841820Y-127397498D01*
X130731506Y-127456463D01*
X130634815Y-127535815D01*
X130555463Y-127632506D01*
X130496498Y-127742820D01*
X130460188Y-127862518D01*
X130447928Y-127987000D01*
X124867000Y-127987000D01*
X124867000Y-124041125D01*
X124940149Y-124010826D01*
X125072468Y-123922413D01*
X128330192Y-123922413D01*
X128425956Y-124186814D01*
X128715571Y-124327704D01*
X129027108Y-124409384D01*
X129348595Y-124428718D01*
X129667675Y-124384961D01*
X129972088Y-124279795D01*
X130146044Y-124186814D01*
X130241808Y-123922413D01*
X129286000Y-122966605D01*
X128330192Y-123922413D01*
X125072468Y-123922413D01*
X125166336Y-123859693D01*
X125358693Y-123667336D01*
X125509826Y-123441149D01*
X125613929Y-123189823D01*
X125667000Y-122923017D01*
X125667000Y-122849595D01*
X127644282Y-122849595D01*
X127688039Y-123168675D01*
X127793205Y-123473088D01*
X127886186Y-123647044D01*
X128150587Y-123742808D01*
X129106395Y-122787000D01*
X129465605Y-122787000D01*
X130421413Y-123742808D01*
X130685814Y-123647044D01*
X130826704Y-123357429D01*
X130908384Y-123045892D01*
X130927718Y-122724405D01*
X130883961Y-122405325D01*
X130778795Y-122100912D01*
X130685814Y-121926956D01*
X130421413Y-121831192D01*
X129465605Y-122787000D01*
X129106395Y-122787000D01*
X128150587Y-121831192D01*
X127886186Y-121926956D01*
X127745296Y-122216571D01*
X127663616Y-122528108D01*
X127644282Y-122849595D01*
X125667000Y-122849595D01*
X125667000Y-122650983D01*
X125613929Y-122384177D01*
X125509826Y-122132851D01*
X125358693Y-121906664D01*
X125166336Y-121714307D01*
X125072469Y-121651587D01*
X128330192Y-121651587D01*
X129286000Y-122607395D01*
X130241808Y-121651587D01*
X130146044Y-121387186D01*
X129856429Y-121246296D01*
X129544892Y-121164616D01*
X129223405Y-121145282D01*
X128904325Y-121189039D01*
X128599912Y-121294205D01*
X128425956Y-121387186D01*
X128330192Y-121651587D01*
X125072469Y-121651587D01*
X124940149Y-121563174D01*
X124688823Y-121459071D01*
X124422017Y-121406000D01*
X124149983Y-121406000D01*
X123883177Y-121459071D01*
X123631851Y-121563174D01*
X123405664Y-121714307D01*
X123213307Y-121906664D01*
X123062174Y-122132851D01*
X122958071Y-122384177D01*
X122905000Y-122650983D01*
X122905000Y-122656344D01*
X113581375Y-113332720D01*
X132606929Y-113332720D01*
X137060401Y-117786193D01*
M02*
