G04 #@! TF.GenerationSoftware,KiCad,Pcbnew,(5.1.4-0)*
G04 #@! TF.CreationDate,2019-11-11T14:35:41+00:00*
G04 #@! TF.ProjectId,2M_DRA818V_Transceiver_tft_encoder,324d5f44-5241-4383-9138-565f5472616e,rev?*
G04 #@! TF.SameCoordinates,Original*
G04 #@! TF.FileFunction,Copper,L1,Top*
G04 #@! TF.FilePolarity,Positive*
%FSLAX46Y46*%
G04 Gerber Fmt 4.6, Leading zero omitted, Abs format (unit mm)*
G04 Created by KiCad (PCBNEW (5.1.4-0)) date 2019-11-11 14:35:41*
%MOMM*%
%LPD*%
G04 APERTURE LIST*
%ADD10R,1.700000X1.700000*%
%ADD11O,1.700000X1.700000*%
%ADD12R,2.800000X3.600000*%
%ADD13C,2.000000*%
%ADD14C,0.600000*%
%ADD15C,0.400000*%
%ADD16C,0.254000*%
G04 APERTURE END LIST*
D10*
X114046000Y-142367000D03*
D11*
X114046000Y-144907000D03*
X116586000Y-142367000D03*
X116586000Y-144907000D03*
X119126000Y-142367000D03*
X119126000Y-144907000D03*
X121666000Y-142367000D03*
X121666000Y-144907000D03*
X124206000Y-142367000D03*
X124206000Y-144907000D03*
X126746000Y-142367000D03*
X126746000Y-144907000D03*
X129286000Y-142367000D03*
X129286000Y-144907000D03*
X131826000Y-142367000D03*
X131826000Y-144907000D03*
X134366000Y-142367000D03*
X134366000Y-144907000D03*
X136906000Y-142367000D03*
X136906000Y-144907000D03*
D10*
X114046000Y-139827000D03*
D11*
X114046000Y-137287000D03*
X114046000Y-134747000D03*
X114046000Y-132207000D03*
X114046000Y-129667000D03*
X114046000Y-127127000D03*
X114046000Y-124587000D03*
X114046000Y-122047000D03*
X114046000Y-119507000D03*
D12*
X121086000Y-129787000D03*
X132486000Y-129787000D03*
D13*
X124286000Y-122787000D03*
X129286000Y-122787000D03*
X124286000Y-137287000D03*
X126786000Y-137287000D03*
X129286000Y-137287000D03*
D10*
X79921100Y-114833400D03*
D11*
X77381100Y-114833400D03*
X74841100Y-114833400D03*
X72301100Y-114833400D03*
X69761100Y-114833400D03*
X67221100Y-114833400D03*
X64681100Y-114833400D03*
X62141100Y-114833400D03*
X59601100Y-114833400D03*
X57061100Y-114833400D03*
D14*
X116586000Y-144907000D02*
X114046000Y-142367000D01*
X113196001Y-133056999D02*
X114046000Y-132207000D01*
X112687100Y-133565900D02*
X113196001Y-133056999D01*
X112687100Y-138468100D02*
X112687100Y-133565900D01*
X114046000Y-139827000D02*
X112687100Y-138468100D01*
X113196001Y-131357001D02*
X114046000Y-132207000D01*
X112695999Y-121268499D02*
X112695999Y-130856999D01*
X85336385Y-114951750D02*
X106379250Y-114951750D01*
X59601100Y-114833400D02*
X62933120Y-118165420D01*
X62933120Y-118165420D02*
X82122715Y-118165420D01*
X106379250Y-114951750D02*
X112695999Y-121268499D01*
X112695999Y-130856999D02*
X113196001Y-131357001D01*
X82122715Y-118165420D02*
X85336385Y-114951750D01*
X114046000Y-142367000D02*
X114046000Y-139827000D01*
X116586000Y-137287000D02*
X114046000Y-134747000D01*
X116586000Y-142367000D02*
X116586000Y-137287000D01*
D15*
X117875999Y-130956999D02*
X114895999Y-127976999D01*
X114895999Y-127976999D02*
X114046000Y-127127000D01*
X117875999Y-143656999D02*
X117875999Y-130956999D01*
X119126000Y-144907000D02*
X117875999Y-143656999D01*
X114895999Y-122896999D02*
X114046000Y-122047000D01*
X118476009Y-131097011D02*
X118476009Y-126477009D01*
X120376001Y-132997003D02*
X118476009Y-131097011D01*
X120376001Y-143617001D02*
X120376001Y-132997003D01*
X118476009Y-126477009D02*
X114895999Y-122896999D01*
X121666000Y-144907000D02*
X120376001Y-143617001D01*
X122886001Y-127144920D02*
X115248081Y-119507000D01*
X115248081Y-119507000D02*
X114046000Y-119507000D01*
X122886001Y-131907001D02*
X122886001Y-127144920D01*
X122806001Y-131987001D02*
X122886001Y-131907001D01*
X122806001Y-140967001D02*
X122806001Y-131987001D01*
X124206000Y-142367000D02*
X122806001Y-140967001D01*
X84144290Y-112451710D02*
X81762600Y-114833400D01*
X81762600Y-114833400D02*
X79921100Y-114833400D01*
X133203510Y-112451710D02*
X84144290Y-112451710D01*
X138156001Y-145507001D02*
X138156001Y-117404201D01*
X138156001Y-117404201D02*
X133203510Y-112451710D01*
X137506001Y-146157001D02*
X138156001Y-145507001D01*
X133076001Y-146157001D02*
X137506001Y-146157001D01*
X131826000Y-144907000D02*
X133076001Y-146157001D01*
X73151099Y-115683399D02*
X72301100Y-114833400D01*
X74933110Y-117465410D02*
X73151099Y-115683399D01*
X81832762Y-117465410D02*
X74933110Y-117465410D01*
X132247640Y-114251740D02*
X85046432Y-114251740D01*
X135705980Y-117710080D02*
X132247640Y-114251740D01*
X135705980Y-140241978D02*
X135705980Y-117710080D01*
X85046432Y-114251740D02*
X81832762Y-117465410D01*
X134366000Y-141581958D02*
X135705980Y-140241978D01*
X134366000Y-142367000D02*
X134366000Y-141581958D01*
X76873100Y-116865400D02*
X75691099Y-115683399D01*
X81584230Y-116865400D02*
X76873100Y-116865400D01*
X84797900Y-113651730D02*
X81584230Y-116865400D01*
X132589788Y-113651730D02*
X84797900Y-113651730D01*
X136305990Y-117367932D02*
X132589788Y-113651730D01*
X136305990Y-140490510D02*
X136305990Y-117367932D01*
X135655999Y-141140501D02*
X136305990Y-140490510D01*
X75691099Y-115683399D02*
X74841100Y-114833400D01*
X135655999Y-143617001D02*
X135655999Y-141140501D01*
X134366000Y-144907000D02*
X135655999Y-143617001D01*
X78231099Y-115683399D02*
X77381100Y-114833400D01*
X84392822Y-113051720D02*
X81361141Y-116083401D01*
X81361141Y-116083401D02*
X78631101Y-116083401D01*
X78631101Y-116083401D02*
X78231099Y-115683399D01*
X132838320Y-113051720D02*
X84392822Y-113051720D01*
X136906000Y-117119400D02*
X132838320Y-113051720D01*
X136906000Y-142367000D02*
X136906000Y-117119400D01*
D16*
G36*
X81521943Y-114252400D02*
G01*
X81153943Y-114252400D01*
X81153943Y-113983400D01*
X81146587Y-113908711D01*
X81124801Y-113836892D01*
X81089422Y-113770704D01*
X81041811Y-113712689D01*
X80983796Y-113665078D01*
X80917608Y-113629699D01*
X80845789Y-113607913D01*
X80771100Y-113600557D01*
X79071100Y-113600557D01*
X78996411Y-113607913D01*
X78924592Y-113629699D01*
X78858404Y-113665078D01*
X78800389Y-113712689D01*
X78752778Y-113770704D01*
X78717399Y-113836892D01*
X78695613Y-113908711D01*
X78688257Y-113983400D01*
X78688257Y-115318900D01*
X78662112Y-115292755D01*
X78662108Y-115292750D01*
X78559327Y-115189969D01*
X78594288Y-115074718D01*
X78618056Y-114833400D01*
X78594288Y-114592082D01*
X78523898Y-114360037D01*
X78409591Y-114146184D01*
X78255760Y-113958740D01*
X78068316Y-113804909D01*
X77854463Y-113690602D01*
X77622418Y-113620212D01*
X77441572Y-113602400D01*
X77320628Y-113602400D01*
X77139782Y-113620212D01*
X76907737Y-113690602D01*
X76693884Y-113804909D01*
X76506440Y-113958740D01*
X76352609Y-114146184D01*
X76238302Y-114360037D01*
X76167912Y-114592082D01*
X76144144Y-114833400D01*
X76167912Y-115074718D01*
X76238302Y-115306763D01*
X76352609Y-115520616D01*
X76364672Y-115535314D01*
X76122112Y-115292755D01*
X76122108Y-115292750D01*
X76019327Y-115189969D01*
X76054288Y-115074718D01*
X76078056Y-114833400D01*
X76054288Y-114592082D01*
X75983898Y-114360037D01*
X75869591Y-114146184D01*
X75715760Y-113958740D01*
X75528316Y-113804909D01*
X75314463Y-113690602D01*
X75082418Y-113620212D01*
X74901572Y-113602400D01*
X74780628Y-113602400D01*
X74599782Y-113620212D01*
X74367737Y-113690602D01*
X74153884Y-113804909D01*
X73966440Y-113958740D01*
X73812609Y-114146184D01*
X73698302Y-114360037D01*
X73627912Y-114592082D01*
X73604144Y-114833400D01*
X73627912Y-115074718D01*
X73698302Y-115306763D01*
X73812609Y-115520616D01*
X73824671Y-115535314D01*
X73582112Y-115292755D01*
X73582108Y-115292750D01*
X73479327Y-115189969D01*
X73514288Y-115074718D01*
X73538056Y-114833400D01*
X73514288Y-114592082D01*
X73443898Y-114360037D01*
X73329591Y-114146184D01*
X73175760Y-113958740D01*
X72988316Y-113804909D01*
X72774463Y-113690602D01*
X72542418Y-113620212D01*
X72361572Y-113602400D01*
X72240628Y-113602400D01*
X72059782Y-113620212D01*
X71827737Y-113690602D01*
X71613884Y-113804909D01*
X71426440Y-113958740D01*
X71272609Y-114146184D01*
X71158302Y-114360037D01*
X71087912Y-114592082D01*
X71064144Y-114833400D01*
X71087912Y-115074718D01*
X71158302Y-115306763D01*
X71272609Y-115520616D01*
X71426440Y-115708060D01*
X71613884Y-115861891D01*
X71827737Y-115976198D01*
X72059782Y-116046588D01*
X72240628Y-116064400D01*
X72361572Y-116064400D01*
X72542418Y-116046588D01*
X72657669Y-116011627D01*
X72760450Y-116114408D01*
X72760455Y-116114412D01*
X74130462Y-117484420D01*
X63215199Y-117484420D01*
X61929160Y-116198381D01*
X62014100Y-116153555D01*
X62014100Y-114960400D01*
X61994100Y-114960400D01*
X61994100Y-114706400D01*
X62014100Y-114706400D01*
X62014100Y-113513245D01*
X62268100Y-113513245D01*
X62268100Y-114706400D01*
X62288100Y-114706400D01*
X62288100Y-114960400D01*
X62268100Y-114960400D01*
X62268100Y-116153555D01*
X62497990Y-116274876D01*
X62645199Y-116230225D01*
X62908020Y-116105041D01*
X63141369Y-115930988D01*
X63336278Y-115714755D01*
X63485257Y-115464652D01*
X63540083Y-115310095D01*
X63652609Y-115520616D01*
X63806440Y-115708060D01*
X63993884Y-115861891D01*
X64207737Y-115976198D01*
X64439782Y-116046588D01*
X64620628Y-116064400D01*
X64741572Y-116064400D01*
X64922418Y-116046588D01*
X65154463Y-115976198D01*
X65368316Y-115861891D01*
X65555760Y-115708060D01*
X65709591Y-115520616D01*
X65823898Y-115306763D01*
X65894288Y-115074718D01*
X65918056Y-114833400D01*
X65984144Y-114833400D01*
X66007912Y-115074718D01*
X66078302Y-115306763D01*
X66192609Y-115520616D01*
X66346440Y-115708060D01*
X66533884Y-115861891D01*
X66747737Y-115976198D01*
X66979782Y-116046588D01*
X67160628Y-116064400D01*
X67281572Y-116064400D01*
X67462418Y-116046588D01*
X67694463Y-115976198D01*
X67908316Y-115861891D01*
X68095760Y-115708060D01*
X68249591Y-115520616D01*
X68363898Y-115306763D01*
X68434288Y-115074718D01*
X68458056Y-114833400D01*
X68524144Y-114833400D01*
X68547912Y-115074718D01*
X68618302Y-115306763D01*
X68732609Y-115520616D01*
X68886440Y-115708060D01*
X69073884Y-115861891D01*
X69287737Y-115976198D01*
X69519782Y-116046588D01*
X69700628Y-116064400D01*
X69821572Y-116064400D01*
X70002418Y-116046588D01*
X70234463Y-115976198D01*
X70448316Y-115861891D01*
X70635760Y-115708060D01*
X70789591Y-115520616D01*
X70903898Y-115306763D01*
X70974288Y-115074718D01*
X70998056Y-114833400D01*
X70974288Y-114592082D01*
X70903898Y-114360037D01*
X70789591Y-114146184D01*
X70635760Y-113958740D01*
X70448316Y-113804909D01*
X70234463Y-113690602D01*
X70002418Y-113620212D01*
X69821572Y-113602400D01*
X69700628Y-113602400D01*
X69519782Y-113620212D01*
X69287737Y-113690602D01*
X69073884Y-113804909D01*
X68886440Y-113958740D01*
X68732609Y-114146184D01*
X68618302Y-114360037D01*
X68547912Y-114592082D01*
X68524144Y-114833400D01*
X68458056Y-114833400D01*
X68434288Y-114592082D01*
X68363898Y-114360037D01*
X68249591Y-114146184D01*
X68095760Y-113958740D01*
X67908316Y-113804909D01*
X67694463Y-113690602D01*
X67462418Y-113620212D01*
X67281572Y-113602400D01*
X67160628Y-113602400D01*
X66979782Y-113620212D01*
X66747737Y-113690602D01*
X66533884Y-113804909D01*
X66346440Y-113958740D01*
X66192609Y-114146184D01*
X66078302Y-114360037D01*
X66007912Y-114592082D01*
X65984144Y-114833400D01*
X65918056Y-114833400D01*
X65894288Y-114592082D01*
X65823898Y-114360037D01*
X65709591Y-114146184D01*
X65555760Y-113958740D01*
X65368316Y-113804909D01*
X65154463Y-113690602D01*
X64922418Y-113620212D01*
X64741572Y-113602400D01*
X64620628Y-113602400D01*
X64439782Y-113620212D01*
X64207737Y-113690602D01*
X63993884Y-113804909D01*
X63806440Y-113958740D01*
X63652609Y-114146184D01*
X63540083Y-114356705D01*
X63485257Y-114202148D01*
X63336278Y-113952045D01*
X63141369Y-113735812D01*
X62908020Y-113561759D01*
X62645199Y-113436575D01*
X62497990Y-113391924D01*
X62268100Y-113513245D01*
X62014100Y-113513245D01*
X61784210Y-113391924D01*
X61637001Y-113436575D01*
X61374180Y-113561759D01*
X61140831Y-113735812D01*
X60945922Y-113952045D01*
X60796943Y-114202148D01*
X60742117Y-114356705D01*
X60629591Y-114146184D01*
X60475760Y-113958740D01*
X60288316Y-113804909D01*
X60074463Y-113690602D01*
X59842418Y-113620212D01*
X59661572Y-113602400D01*
X59540628Y-113602400D01*
X59359782Y-113620212D01*
X59127737Y-113690602D01*
X58913884Y-113804909D01*
X58726440Y-113958740D01*
X58572609Y-114146184D01*
X58460083Y-114356705D01*
X58405257Y-114202148D01*
X58256278Y-113952045D01*
X58061369Y-113735812D01*
X57828020Y-113561759D01*
X57565199Y-113436575D01*
X57417990Y-113391924D01*
X57188100Y-113513245D01*
X57188100Y-114706400D01*
X57208100Y-114706400D01*
X57208100Y-114960400D01*
X57188100Y-114960400D01*
X57188100Y-116153555D01*
X57417990Y-116274876D01*
X57565199Y-116230225D01*
X57828020Y-116105041D01*
X58061369Y-115930988D01*
X58256278Y-115714755D01*
X58405257Y-115464652D01*
X58460083Y-115310095D01*
X58572609Y-115520616D01*
X58726440Y-115708060D01*
X58913884Y-115861891D01*
X59127737Y-115976198D01*
X59359782Y-116046588D01*
X59540628Y-116064400D01*
X59661572Y-116064400D01*
X59842418Y-116046588D01*
X59849164Y-116044542D01*
X62427920Y-118623299D01*
X62449250Y-118649290D01*
X62552946Y-118734390D01*
X62671252Y-118797626D01*
X62799621Y-118836566D01*
X62933120Y-118849715D01*
X62966573Y-118846420D01*
X82089262Y-118846420D01*
X82122715Y-118849715D01*
X82156168Y-118846420D01*
X82256214Y-118836566D01*
X82384583Y-118797626D01*
X82502889Y-118734390D01*
X82606585Y-118649290D01*
X82627919Y-118623294D01*
X85618464Y-115632750D01*
X106097172Y-115632750D01*
X112014999Y-121550578D01*
X112015000Y-130823536D01*
X112011704Y-130856999D01*
X112024853Y-130990497D01*
X112056594Y-131095132D01*
X112063794Y-131118867D01*
X112127030Y-131237173D01*
X112212130Y-131340869D01*
X112238120Y-131362199D01*
X112738116Y-131862195D01*
X112738121Y-131862199D01*
X112834858Y-131958936D01*
X112832812Y-131965682D01*
X112809044Y-132207000D01*
X112832812Y-132448318D01*
X112834858Y-132455064D01*
X112738121Y-132551801D01*
X112738116Y-132551805D01*
X112229221Y-133060700D01*
X112203231Y-133082030D01*
X112118131Y-133185726D01*
X112091531Y-133235491D01*
X112054895Y-133304032D01*
X112015954Y-133432402D01*
X112002805Y-133565900D01*
X112006101Y-133599363D01*
X112006100Y-138434647D01*
X112002805Y-138468100D01*
X112006100Y-138501552D01*
X112015954Y-138601598D01*
X112054894Y-138729967D01*
X112118130Y-138848273D01*
X112203230Y-138951969D01*
X112229222Y-138973300D01*
X112813157Y-139557235D01*
X112813157Y-140677000D01*
X112820513Y-140751689D01*
X112842299Y-140823508D01*
X112877678Y-140889696D01*
X112925289Y-140947711D01*
X112983304Y-140995322D01*
X113049492Y-141030701D01*
X113121311Y-141052487D01*
X113196000Y-141059843D01*
X113365001Y-141059843D01*
X113365000Y-141134157D01*
X113196000Y-141134157D01*
X113121311Y-141141513D01*
X113049492Y-141163299D01*
X112983304Y-141198678D01*
X112925289Y-141246289D01*
X112877678Y-141304304D01*
X112842299Y-141370492D01*
X112820513Y-141442311D01*
X112813157Y-141517000D01*
X112813157Y-143217000D01*
X112820513Y-143291689D01*
X112842299Y-143363508D01*
X112877678Y-143429696D01*
X112925289Y-143487711D01*
X112983304Y-143535322D01*
X113049492Y-143570701D01*
X113121311Y-143592487D01*
X113196000Y-143599843D01*
X113353645Y-143599843D01*
X113279080Y-143635359D01*
X113045731Y-143809412D01*
X112850822Y-144025645D01*
X112701843Y-144275748D01*
X112604519Y-144550109D01*
X112725186Y-144780000D01*
X113919000Y-144780000D01*
X113919000Y-144760000D01*
X114173000Y-144760000D01*
X114173000Y-144780000D01*
X114193000Y-144780000D01*
X114193000Y-145034000D01*
X114173000Y-145034000D01*
X114173000Y-146227155D01*
X114402890Y-146348476D01*
X114550099Y-146303825D01*
X114812920Y-146178641D01*
X115046269Y-146004588D01*
X115241178Y-145788355D01*
X115390157Y-145538252D01*
X115444983Y-145383695D01*
X115557509Y-145594216D01*
X115711340Y-145781660D01*
X115898784Y-145935491D01*
X116112637Y-146049798D01*
X116344682Y-146120188D01*
X116525528Y-146138000D01*
X116646472Y-146138000D01*
X116827318Y-146120188D01*
X117059363Y-146049798D01*
X117273216Y-145935491D01*
X117460660Y-145781660D01*
X117614491Y-145594216D01*
X117728798Y-145380363D01*
X117799188Y-145148318D01*
X117822956Y-144907000D01*
X117799188Y-144665682D01*
X117728798Y-144433637D01*
X117614491Y-144219784D01*
X117602428Y-144205085D01*
X117947773Y-144550431D01*
X117912812Y-144665682D01*
X117889044Y-144907000D01*
X117912812Y-145148318D01*
X117983202Y-145380363D01*
X118097509Y-145594216D01*
X118251340Y-145781660D01*
X118438784Y-145935491D01*
X118652637Y-146049798D01*
X118884682Y-146120188D01*
X119065528Y-146138000D01*
X119186472Y-146138000D01*
X119367318Y-146120188D01*
X119599363Y-146049798D01*
X119813216Y-145935491D01*
X120000660Y-145781660D01*
X120154491Y-145594216D01*
X120268798Y-145380363D01*
X120339188Y-145148318D01*
X120362956Y-144907000D01*
X120339188Y-144665682D01*
X120268798Y-144433637D01*
X120154491Y-144219784D01*
X120142428Y-144205085D01*
X120487773Y-144550431D01*
X120452812Y-144665682D01*
X120429044Y-144907000D01*
X120452812Y-145148318D01*
X120523202Y-145380363D01*
X120637509Y-145594216D01*
X120791340Y-145781660D01*
X120978784Y-145935491D01*
X121192637Y-146049798D01*
X121424682Y-146120188D01*
X121605528Y-146138000D01*
X121726472Y-146138000D01*
X121907318Y-146120188D01*
X122139363Y-146049798D01*
X122353216Y-145935491D01*
X122540660Y-145781660D01*
X122694491Y-145594216D01*
X122808798Y-145380363D01*
X122879188Y-145148318D01*
X122902956Y-144907000D01*
X122969044Y-144907000D01*
X122992812Y-145148318D01*
X123063202Y-145380363D01*
X123177509Y-145594216D01*
X123331340Y-145781660D01*
X123518784Y-145935491D01*
X123732637Y-146049798D01*
X123964682Y-146120188D01*
X124145528Y-146138000D01*
X124266472Y-146138000D01*
X124447318Y-146120188D01*
X124679363Y-146049798D01*
X124893216Y-145935491D01*
X125080660Y-145781660D01*
X125234491Y-145594216D01*
X125348798Y-145380363D01*
X125419188Y-145148318D01*
X125442956Y-144907000D01*
X125509044Y-144907000D01*
X125532812Y-145148318D01*
X125603202Y-145380363D01*
X125717509Y-145594216D01*
X125871340Y-145781660D01*
X126058784Y-145935491D01*
X126272637Y-146049798D01*
X126504682Y-146120188D01*
X126685528Y-146138000D01*
X126806472Y-146138000D01*
X126987318Y-146120188D01*
X127219363Y-146049798D01*
X127433216Y-145935491D01*
X127620660Y-145781660D01*
X127774491Y-145594216D01*
X127888798Y-145380363D01*
X127959188Y-145148318D01*
X127982956Y-144907000D01*
X128049044Y-144907000D01*
X128072812Y-145148318D01*
X128143202Y-145380363D01*
X128257509Y-145594216D01*
X128411340Y-145781660D01*
X128598784Y-145935491D01*
X128812637Y-146049798D01*
X129044682Y-146120188D01*
X129225528Y-146138000D01*
X129346472Y-146138000D01*
X129527318Y-146120188D01*
X129759363Y-146049798D01*
X129973216Y-145935491D01*
X130160660Y-145781660D01*
X130314491Y-145594216D01*
X130428798Y-145380363D01*
X130499188Y-145148318D01*
X130522956Y-144907000D01*
X130499188Y-144665682D01*
X130428798Y-144433637D01*
X130314491Y-144219784D01*
X130160660Y-144032340D01*
X129973216Y-143878509D01*
X129759363Y-143764202D01*
X129527318Y-143693812D01*
X129346472Y-143676000D01*
X129225528Y-143676000D01*
X129044682Y-143693812D01*
X128812637Y-143764202D01*
X128598784Y-143878509D01*
X128411340Y-144032340D01*
X128257509Y-144219784D01*
X128143202Y-144433637D01*
X128072812Y-144665682D01*
X128049044Y-144907000D01*
X127982956Y-144907000D01*
X127959188Y-144665682D01*
X127888798Y-144433637D01*
X127774491Y-144219784D01*
X127620660Y-144032340D01*
X127433216Y-143878509D01*
X127219363Y-143764202D01*
X126987318Y-143693812D01*
X126806472Y-143676000D01*
X126685528Y-143676000D01*
X126504682Y-143693812D01*
X126272637Y-143764202D01*
X126058784Y-143878509D01*
X125871340Y-144032340D01*
X125717509Y-144219784D01*
X125603202Y-144433637D01*
X125532812Y-144665682D01*
X125509044Y-144907000D01*
X125442956Y-144907000D01*
X125419188Y-144665682D01*
X125348798Y-144433637D01*
X125234491Y-144219784D01*
X125080660Y-144032340D01*
X124893216Y-143878509D01*
X124679363Y-143764202D01*
X124447318Y-143693812D01*
X124266472Y-143676000D01*
X124145528Y-143676000D01*
X123964682Y-143693812D01*
X123732637Y-143764202D01*
X123518784Y-143878509D01*
X123331340Y-144032340D01*
X123177509Y-144219784D01*
X123063202Y-144433637D01*
X122992812Y-144665682D01*
X122969044Y-144907000D01*
X122902956Y-144907000D01*
X122879188Y-144665682D01*
X122808798Y-144433637D01*
X122694491Y-144219784D01*
X122540660Y-144032340D01*
X122353216Y-143878509D01*
X122139363Y-143764202D01*
X121907318Y-143693812D01*
X121726472Y-143676000D01*
X121605528Y-143676000D01*
X121424682Y-143693812D01*
X121309431Y-143728773D01*
X120964085Y-143383428D01*
X120978784Y-143395491D01*
X121192637Y-143509798D01*
X121424682Y-143580188D01*
X121605528Y-143598000D01*
X121726472Y-143598000D01*
X121907318Y-143580188D01*
X122139363Y-143509798D01*
X122353216Y-143395491D01*
X122540660Y-143241660D01*
X122694491Y-143054216D01*
X122808798Y-142840363D01*
X122879188Y-142608318D01*
X122902956Y-142367000D01*
X122879188Y-142125682D01*
X122808798Y-141893637D01*
X122694491Y-141679784D01*
X122682428Y-141665085D01*
X123027773Y-142010431D01*
X122992812Y-142125682D01*
X122969044Y-142367000D01*
X122992812Y-142608318D01*
X123063202Y-142840363D01*
X123177509Y-143054216D01*
X123331340Y-143241660D01*
X123518784Y-143395491D01*
X123732637Y-143509798D01*
X123964682Y-143580188D01*
X124145528Y-143598000D01*
X124266472Y-143598000D01*
X124447318Y-143580188D01*
X124679363Y-143509798D01*
X124893216Y-143395491D01*
X125080660Y-143241660D01*
X125234491Y-143054216D01*
X125348798Y-142840363D01*
X125419188Y-142608318D01*
X125442956Y-142367000D01*
X125509044Y-142367000D01*
X125532812Y-142608318D01*
X125603202Y-142840363D01*
X125717509Y-143054216D01*
X125871340Y-143241660D01*
X126058784Y-143395491D01*
X126272637Y-143509798D01*
X126504682Y-143580188D01*
X126685528Y-143598000D01*
X126806472Y-143598000D01*
X126987318Y-143580188D01*
X127219363Y-143509798D01*
X127433216Y-143395491D01*
X127620660Y-143241660D01*
X127774491Y-143054216D01*
X127888798Y-142840363D01*
X127959188Y-142608318D01*
X127982956Y-142367000D01*
X128049044Y-142367000D01*
X128072812Y-142608318D01*
X128143202Y-142840363D01*
X128257509Y-143054216D01*
X128411340Y-143241660D01*
X128598784Y-143395491D01*
X128812637Y-143509798D01*
X129044682Y-143580188D01*
X129225528Y-143598000D01*
X129346472Y-143598000D01*
X129527318Y-143580188D01*
X129759363Y-143509798D01*
X129973216Y-143395491D01*
X130160660Y-143241660D01*
X130314491Y-143054216D01*
X130428798Y-142840363D01*
X130499188Y-142608318D01*
X130522956Y-142367000D01*
X130589044Y-142367000D01*
X130612812Y-142608318D01*
X130683202Y-142840363D01*
X130797509Y-143054216D01*
X130951340Y-143241660D01*
X131138784Y-143395491D01*
X131352637Y-143509798D01*
X131584682Y-143580188D01*
X131765528Y-143598000D01*
X131886472Y-143598000D01*
X132067318Y-143580188D01*
X132299363Y-143509798D01*
X132513216Y-143395491D01*
X132700660Y-143241660D01*
X132854491Y-143054216D01*
X132968798Y-142840363D01*
X133039188Y-142608318D01*
X133062956Y-142367000D01*
X133039188Y-142125682D01*
X132968798Y-141893637D01*
X132854491Y-141679784D01*
X132700660Y-141492340D01*
X132513216Y-141338509D01*
X132299363Y-141224202D01*
X132067318Y-141153812D01*
X131886472Y-141136000D01*
X131765528Y-141136000D01*
X131584682Y-141153812D01*
X131352637Y-141224202D01*
X131138784Y-141338509D01*
X130951340Y-141492340D01*
X130797509Y-141679784D01*
X130683202Y-141893637D01*
X130612812Y-142125682D01*
X130589044Y-142367000D01*
X130522956Y-142367000D01*
X130499188Y-142125682D01*
X130428798Y-141893637D01*
X130314491Y-141679784D01*
X130160660Y-141492340D01*
X129973216Y-141338509D01*
X129759363Y-141224202D01*
X129527318Y-141153812D01*
X129346472Y-141136000D01*
X129225528Y-141136000D01*
X129044682Y-141153812D01*
X128812637Y-141224202D01*
X128598784Y-141338509D01*
X128411340Y-141492340D01*
X128257509Y-141679784D01*
X128143202Y-141893637D01*
X128072812Y-142125682D01*
X128049044Y-142367000D01*
X127982956Y-142367000D01*
X127959188Y-142125682D01*
X127888798Y-141893637D01*
X127774491Y-141679784D01*
X127620660Y-141492340D01*
X127433216Y-141338509D01*
X127219363Y-141224202D01*
X126987318Y-141153812D01*
X126806472Y-141136000D01*
X126685528Y-141136000D01*
X126504682Y-141153812D01*
X126272637Y-141224202D01*
X126058784Y-141338509D01*
X125871340Y-141492340D01*
X125717509Y-141679784D01*
X125603202Y-141893637D01*
X125532812Y-142125682D01*
X125509044Y-142367000D01*
X125442956Y-142367000D01*
X125419188Y-142125682D01*
X125348798Y-141893637D01*
X125234491Y-141679784D01*
X125080660Y-141492340D01*
X124893216Y-141338509D01*
X124679363Y-141224202D01*
X124447318Y-141153812D01*
X124266472Y-141136000D01*
X124145528Y-141136000D01*
X123964682Y-141153812D01*
X123849431Y-141188773D01*
X123387001Y-140726344D01*
X123387001Y-138341030D01*
X123405664Y-138359693D01*
X123631851Y-138510826D01*
X123883177Y-138614929D01*
X124149983Y-138668000D01*
X124422017Y-138668000D01*
X124688823Y-138614929D01*
X124940149Y-138510826D01*
X125072468Y-138422413D01*
X125830192Y-138422413D01*
X125925956Y-138686814D01*
X126215571Y-138827704D01*
X126527108Y-138909384D01*
X126848595Y-138928718D01*
X127167675Y-138884961D01*
X127472088Y-138779795D01*
X127646044Y-138686814D01*
X127741808Y-138422413D01*
X126786000Y-137466605D01*
X125830192Y-138422413D01*
X125072468Y-138422413D01*
X125166336Y-138359693D01*
X125358693Y-138167336D01*
X125379993Y-138135458D01*
X125386186Y-138147044D01*
X125650587Y-138242808D01*
X126606395Y-137287000D01*
X126965605Y-137287000D01*
X127921413Y-138242808D01*
X128185814Y-138147044D01*
X128191685Y-138134976D01*
X128213307Y-138167336D01*
X128405664Y-138359693D01*
X128631851Y-138510826D01*
X128883177Y-138614929D01*
X129149983Y-138668000D01*
X129422017Y-138668000D01*
X129688823Y-138614929D01*
X129940149Y-138510826D01*
X130166336Y-138359693D01*
X130358693Y-138167336D01*
X130509826Y-137941149D01*
X130613929Y-137689823D01*
X130667000Y-137423017D01*
X130667000Y-137150983D01*
X130613929Y-136884177D01*
X130509826Y-136632851D01*
X130358693Y-136406664D01*
X130166336Y-136214307D01*
X129940149Y-136063174D01*
X129688823Y-135959071D01*
X129422017Y-135906000D01*
X129149983Y-135906000D01*
X128883177Y-135959071D01*
X128631851Y-136063174D01*
X128405664Y-136214307D01*
X128213307Y-136406664D01*
X128192007Y-136438542D01*
X128185814Y-136426956D01*
X127921413Y-136331192D01*
X126965605Y-137287000D01*
X126606395Y-137287000D01*
X125650587Y-136331192D01*
X125386186Y-136426956D01*
X125380315Y-136439024D01*
X125358693Y-136406664D01*
X125166336Y-136214307D01*
X125072469Y-136151587D01*
X125830192Y-136151587D01*
X126786000Y-137107395D01*
X127741808Y-136151587D01*
X127646044Y-135887186D01*
X127356429Y-135746296D01*
X127044892Y-135664616D01*
X126723405Y-135645282D01*
X126404325Y-135689039D01*
X126099912Y-135794205D01*
X125925956Y-135887186D01*
X125830192Y-136151587D01*
X125072469Y-136151587D01*
X124940149Y-136063174D01*
X124688823Y-135959071D01*
X124422017Y-135906000D01*
X124149983Y-135906000D01*
X123883177Y-135959071D01*
X123631851Y-136063174D01*
X123405664Y-136214307D01*
X123387001Y-136232970D01*
X123387001Y-132202203D01*
X123425372Y-132130416D01*
X123458594Y-132020897D01*
X123467001Y-131935541D01*
X123467001Y-131935540D01*
X123469812Y-131907002D01*
X123467001Y-131878462D01*
X123467001Y-131587000D01*
X130447928Y-131587000D01*
X130460188Y-131711482D01*
X130496498Y-131831180D01*
X130555463Y-131941494D01*
X130634815Y-132038185D01*
X130731506Y-132117537D01*
X130841820Y-132176502D01*
X130961518Y-132212812D01*
X131086000Y-132225072D01*
X132200250Y-132222000D01*
X132359000Y-132063250D01*
X132359000Y-129914000D01*
X132613000Y-129914000D01*
X132613000Y-132063250D01*
X132771750Y-132222000D01*
X133886000Y-132225072D01*
X134010482Y-132212812D01*
X134130180Y-132176502D01*
X134240494Y-132117537D01*
X134337185Y-132038185D01*
X134416537Y-131941494D01*
X134475502Y-131831180D01*
X134511812Y-131711482D01*
X134524072Y-131587000D01*
X134521000Y-130072750D01*
X134362250Y-129914000D01*
X132613000Y-129914000D01*
X132359000Y-129914000D01*
X130609750Y-129914000D01*
X130451000Y-130072750D01*
X130447928Y-131587000D01*
X123467001Y-131587000D01*
X123467001Y-127987000D01*
X130447928Y-127987000D01*
X130451000Y-129501250D01*
X130609750Y-129660000D01*
X132359000Y-129660000D01*
X132359000Y-127510750D01*
X132613000Y-127510750D01*
X132613000Y-129660000D01*
X134362250Y-129660000D01*
X134521000Y-129501250D01*
X134524072Y-127987000D01*
X134511812Y-127862518D01*
X134475502Y-127742820D01*
X134416537Y-127632506D01*
X134337185Y-127535815D01*
X134240494Y-127456463D01*
X134130180Y-127397498D01*
X134010482Y-127361188D01*
X133886000Y-127348928D01*
X132771750Y-127352000D01*
X132613000Y-127510750D01*
X132359000Y-127510750D01*
X132200250Y-127352000D01*
X131086000Y-127348928D01*
X130961518Y-127361188D01*
X130841820Y-127397498D01*
X130731506Y-127456463D01*
X130634815Y-127535815D01*
X130555463Y-127632506D01*
X130496498Y-127742820D01*
X130460188Y-127862518D01*
X130447928Y-127987000D01*
X123467001Y-127987000D01*
X123467001Y-127173459D01*
X123469812Y-127144919D01*
X123458594Y-127031024D01*
X123425372Y-126921505D01*
X123371422Y-126820572D01*
X123298818Y-126732103D01*
X123276646Y-126713907D01*
X119213722Y-122650983D01*
X122905000Y-122650983D01*
X122905000Y-122923017D01*
X122958071Y-123189823D01*
X123062174Y-123441149D01*
X123213307Y-123667336D01*
X123405664Y-123859693D01*
X123631851Y-124010826D01*
X123883177Y-124114929D01*
X124149983Y-124168000D01*
X124422017Y-124168000D01*
X124688823Y-124114929D01*
X124940149Y-124010826D01*
X125072468Y-123922413D01*
X128330192Y-123922413D01*
X128425956Y-124186814D01*
X128715571Y-124327704D01*
X129027108Y-124409384D01*
X129348595Y-124428718D01*
X129667675Y-124384961D01*
X129972088Y-124279795D01*
X130146044Y-124186814D01*
X130241808Y-123922413D01*
X129286000Y-122966605D01*
X128330192Y-123922413D01*
X125072468Y-123922413D01*
X125166336Y-123859693D01*
X125358693Y-123667336D01*
X125509826Y-123441149D01*
X125613929Y-123189823D01*
X125667000Y-122923017D01*
X125667000Y-122849595D01*
X127644282Y-122849595D01*
X127688039Y-123168675D01*
X127793205Y-123473088D01*
X127886186Y-123647044D01*
X128150587Y-123742808D01*
X129106395Y-122787000D01*
X129465605Y-122787000D01*
X130421413Y-123742808D01*
X130685814Y-123647044D01*
X130826704Y-123357429D01*
X130908384Y-123045892D01*
X130927718Y-122724405D01*
X130883961Y-122405325D01*
X130778795Y-122100912D01*
X130685814Y-121926956D01*
X130421413Y-121831192D01*
X129465605Y-122787000D01*
X129106395Y-122787000D01*
X128150587Y-121831192D01*
X127886186Y-121926956D01*
X127745296Y-122216571D01*
X127663616Y-122528108D01*
X127644282Y-122849595D01*
X125667000Y-122849595D01*
X125667000Y-122650983D01*
X125613929Y-122384177D01*
X125509826Y-122132851D01*
X125358693Y-121906664D01*
X125166336Y-121714307D01*
X125072469Y-121651587D01*
X128330192Y-121651587D01*
X129286000Y-122607395D01*
X130241808Y-121651587D01*
X130146044Y-121387186D01*
X129856429Y-121246296D01*
X129544892Y-121164616D01*
X129223405Y-121145282D01*
X128904325Y-121189039D01*
X128599912Y-121294205D01*
X128425956Y-121387186D01*
X128330192Y-121651587D01*
X125072469Y-121651587D01*
X124940149Y-121563174D01*
X124688823Y-121459071D01*
X124422017Y-121406000D01*
X124149983Y-121406000D01*
X123883177Y-121459071D01*
X123631851Y-121563174D01*
X123405664Y-121714307D01*
X123213307Y-121906664D01*
X123062174Y-122132851D01*
X122958071Y-122384177D01*
X122905000Y-122650983D01*
X119213722Y-122650983D01*
X115679098Y-119116360D01*
X115660898Y-119094183D01*
X115572429Y-119021579D01*
X115471496Y-118967629D01*
X115361977Y-118934407D01*
X115276621Y-118926000D01*
X115248081Y-118923189D01*
X115219541Y-118926000D01*
X115131265Y-118926000D01*
X115074491Y-118819784D01*
X114920660Y-118632340D01*
X114733216Y-118478509D01*
X114519363Y-118364202D01*
X114287318Y-118293812D01*
X114106472Y-118276000D01*
X113985528Y-118276000D01*
X113804682Y-118293812D01*
X113572637Y-118364202D01*
X113358784Y-118478509D01*
X113171340Y-118632340D01*
X113017509Y-118819784D01*
X112903202Y-119033637D01*
X112832812Y-119265682D01*
X112809044Y-119507000D01*
X112832812Y-119748318D01*
X112903202Y-119980363D01*
X113017509Y-120194216D01*
X113171340Y-120381660D01*
X113358784Y-120535491D01*
X113572637Y-120649798D01*
X113804682Y-120720188D01*
X113985528Y-120738000D01*
X114106472Y-120738000D01*
X114287318Y-120720188D01*
X114519363Y-120649798D01*
X114733216Y-120535491D01*
X114920660Y-120381660D01*
X115074491Y-120194216D01*
X115088128Y-120168704D01*
X122268949Y-127349526D01*
X121371750Y-127352000D01*
X121213000Y-127510750D01*
X121213000Y-129660000D01*
X121233000Y-129660000D01*
X121233000Y-129914000D01*
X121213000Y-129914000D01*
X121213000Y-132063250D01*
X121371750Y-132222000D01*
X122225002Y-132224352D01*
X122225001Y-140938461D01*
X122222190Y-140967001D01*
X122232760Y-141074321D01*
X122233408Y-141080896D01*
X122266630Y-141190415D01*
X122320580Y-141291348D01*
X122371799Y-141353759D01*
X122353216Y-141338509D01*
X122139363Y-141224202D01*
X121907318Y-141153812D01*
X121726472Y-141136000D01*
X121605528Y-141136000D01*
X121424682Y-141153812D01*
X121192637Y-141224202D01*
X120978784Y-141338509D01*
X120957001Y-141356386D01*
X120957001Y-133025539D01*
X120959812Y-132997002D01*
X120953576Y-132933694D01*
X120948594Y-132883107D01*
X120915372Y-132773588D01*
X120861422Y-132672655D01*
X120788818Y-132584186D01*
X120766646Y-132565990D01*
X120423694Y-132223038D01*
X120800250Y-132222000D01*
X120959000Y-132063250D01*
X120959000Y-129914000D01*
X120939000Y-129914000D01*
X120939000Y-129660000D01*
X120959000Y-129660000D01*
X120959000Y-127510750D01*
X120800250Y-127352000D01*
X119686000Y-127348928D01*
X119561518Y-127361188D01*
X119441820Y-127397498D01*
X119331506Y-127456463D01*
X119234815Y-127535815D01*
X119155463Y-127632506D01*
X119096498Y-127742820D01*
X119060188Y-127862518D01*
X119057009Y-127894796D01*
X119057009Y-126505549D01*
X119059820Y-126477009D01*
X119048602Y-126363113D01*
X119015380Y-126253594D01*
X118961430Y-126152661D01*
X118907019Y-126086361D01*
X118888826Y-126064192D01*
X118866654Y-126045996D01*
X115327013Y-122506356D01*
X115327008Y-122506350D01*
X115224227Y-122403569D01*
X115259188Y-122288318D01*
X115282956Y-122047000D01*
X115259188Y-121805682D01*
X115188798Y-121573637D01*
X115074491Y-121359784D01*
X114920660Y-121172340D01*
X114733216Y-121018509D01*
X114519363Y-120904202D01*
X114287318Y-120833812D01*
X114106472Y-120816000D01*
X113985528Y-120816000D01*
X113804682Y-120833812D01*
X113572637Y-120904202D01*
X113358784Y-121018509D01*
X113337185Y-121036235D01*
X113328205Y-121006632D01*
X113328205Y-121006631D01*
X113264969Y-120888325D01*
X113179868Y-120784629D01*
X113153883Y-120763304D01*
X107223318Y-114832740D01*
X132006983Y-114832740D01*
X135124981Y-117950739D01*
X135124980Y-140001320D01*
X133975355Y-141150946D01*
X133953184Y-141169141D01*
X133934991Y-141191310D01*
X133913089Y-141217998D01*
X133892637Y-141224202D01*
X133678784Y-141338509D01*
X133491340Y-141492340D01*
X133337509Y-141679784D01*
X133223202Y-141893637D01*
X133152812Y-142125682D01*
X133129044Y-142367000D01*
X133152812Y-142608318D01*
X133223202Y-142840363D01*
X133337509Y-143054216D01*
X133491340Y-143241660D01*
X133678784Y-143395491D01*
X133892637Y-143509798D01*
X134124682Y-143580188D01*
X134305528Y-143598000D01*
X134426472Y-143598000D01*
X134607318Y-143580188D01*
X134839363Y-143509798D01*
X135053216Y-143395491D01*
X135067911Y-143383431D01*
X134722569Y-143728773D01*
X134607318Y-143693812D01*
X134426472Y-143676000D01*
X134305528Y-143676000D01*
X134124682Y-143693812D01*
X133892637Y-143764202D01*
X133678784Y-143878509D01*
X133491340Y-144032340D01*
X133337509Y-144219784D01*
X133223202Y-144433637D01*
X133152812Y-144665682D01*
X133129044Y-144907000D01*
X133152812Y-145148318D01*
X133223202Y-145380363D01*
X133327773Y-145576001D01*
X133316659Y-145576001D01*
X133004227Y-145263569D01*
X133039188Y-145148318D01*
X133062956Y-144907000D01*
X133039188Y-144665682D01*
X132968798Y-144433637D01*
X132854491Y-144219784D01*
X132700660Y-144032340D01*
X132513216Y-143878509D01*
X132299363Y-143764202D01*
X132067318Y-143693812D01*
X131886472Y-143676000D01*
X131765528Y-143676000D01*
X131584682Y-143693812D01*
X131352637Y-143764202D01*
X131138784Y-143878509D01*
X130951340Y-144032340D01*
X130797509Y-144219784D01*
X130683202Y-144433637D01*
X130612812Y-144665682D01*
X130589044Y-144907000D01*
X130612812Y-145148318D01*
X130683202Y-145380363D01*
X130797509Y-145594216D01*
X130951340Y-145781660D01*
X131138784Y-145935491D01*
X131352637Y-146049798D01*
X131584682Y-146120188D01*
X131765528Y-146138000D01*
X131886472Y-146138000D01*
X132067318Y-146120188D01*
X132182569Y-146085227D01*
X132644988Y-146547646D01*
X132663184Y-146569818D01*
X132751653Y-146642422D01*
X132852586Y-146696372D01*
X132962105Y-146729594D01*
X133047461Y-146738001D01*
X133047463Y-146738001D01*
X133076000Y-146740812D01*
X133104537Y-146738001D01*
X137477461Y-146738001D01*
X137506001Y-146740812D01*
X137534541Y-146738001D01*
X137619897Y-146729594D01*
X137729416Y-146696372D01*
X137830349Y-146642422D01*
X137918818Y-146569818D01*
X137937018Y-146547641D01*
X138546647Y-145938013D01*
X138568818Y-145919818D01*
X138641422Y-145831349D01*
X138695372Y-145730416D01*
X138728594Y-145620897D01*
X138737001Y-145535541D01*
X138737001Y-145535540D01*
X138739812Y-145507001D01*
X138737001Y-145478461D01*
X138737001Y-117432741D01*
X138739812Y-117404201D01*
X138728594Y-117290305D01*
X138695372Y-117180786D01*
X138641422Y-117079853D01*
X138611657Y-117043584D01*
X138568818Y-116991384D01*
X138546646Y-116973188D01*
X134006157Y-112432700D01*
X140552486Y-112432700D01*
X140664412Y-150711300D01*
X48374427Y-150711300D01*
X48381506Y-145263891D01*
X112604519Y-145263891D01*
X112701843Y-145538252D01*
X112850822Y-145788355D01*
X113045731Y-146004588D01*
X113279080Y-146178641D01*
X113541901Y-146303825D01*
X113689110Y-146348476D01*
X113919000Y-146227155D01*
X113919000Y-145034000D01*
X112725186Y-145034000D01*
X112604519Y-145263891D01*
X48381506Y-145263891D01*
X48420588Y-115190291D01*
X55619619Y-115190291D01*
X55716943Y-115464652D01*
X55865922Y-115714755D01*
X56060831Y-115930988D01*
X56294180Y-116105041D01*
X56557001Y-116230225D01*
X56704210Y-116274876D01*
X56934100Y-116153555D01*
X56934100Y-114960400D01*
X55740286Y-114960400D01*
X55619619Y-115190291D01*
X48420588Y-115190291D01*
X48421515Y-114476509D01*
X55619619Y-114476509D01*
X55740286Y-114706400D01*
X56934100Y-114706400D01*
X56934100Y-113513245D01*
X56704210Y-113391924D01*
X56557001Y-113436575D01*
X56294180Y-113561759D01*
X56060831Y-113735812D01*
X55865922Y-113952045D01*
X55716943Y-114202148D01*
X55619619Y-114476509D01*
X48421515Y-114476509D01*
X48424172Y-112432700D01*
X83341642Y-112432700D01*
X81521943Y-114252400D01*
X81521943Y-114252400D01*
G37*
X81521943Y-114252400D02*
X81153943Y-114252400D01*
X81153943Y-113983400D01*
X81146587Y-113908711D01*
X81124801Y-113836892D01*
X81089422Y-113770704D01*
X81041811Y-113712689D01*
X80983796Y-113665078D01*
X80917608Y-113629699D01*
X80845789Y-113607913D01*
X80771100Y-113600557D01*
X79071100Y-113600557D01*
X78996411Y-113607913D01*
X78924592Y-113629699D01*
X78858404Y-113665078D01*
X78800389Y-113712689D01*
X78752778Y-113770704D01*
X78717399Y-113836892D01*
X78695613Y-113908711D01*
X78688257Y-113983400D01*
X78688257Y-115318900D01*
X78662112Y-115292755D01*
X78662108Y-115292750D01*
X78559327Y-115189969D01*
X78594288Y-115074718D01*
X78618056Y-114833400D01*
X78594288Y-114592082D01*
X78523898Y-114360037D01*
X78409591Y-114146184D01*
X78255760Y-113958740D01*
X78068316Y-113804909D01*
X77854463Y-113690602D01*
X77622418Y-113620212D01*
X77441572Y-113602400D01*
X77320628Y-113602400D01*
X77139782Y-113620212D01*
X76907737Y-113690602D01*
X76693884Y-113804909D01*
X76506440Y-113958740D01*
X76352609Y-114146184D01*
X76238302Y-114360037D01*
X76167912Y-114592082D01*
X76144144Y-114833400D01*
X76167912Y-115074718D01*
X76238302Y-115306763D01*
X76352609Y-115520616D01*
X76364672Y-115535314D01*
X76122112Y-115292755D01*
X76122108Y-115292750D01*
X76019327Y-115189969D01*
X76054288Y-115074718D01*
X76078056Y-114833400D01*
X76054288Y-114592082D01*
X75983898Y-114360037D01*
X75869591Y-114146184D01*
X75715760Y-113958740D01*
X75528316Y-113804909D01*
X75314463Y-113690602D01*
X75082418Y-113620212D01*
X74901572Y-113602400D01*
X74780628Y-113602400D01*
X74599782Y-113620212D01*
X74367737Y-113690602D01*
X74153884Y-113804909D01*
X73966440Y-113958740D01*
X73812609Y-114146184D01*
X73698302Y-114360037D01*
X73627912Y-114592082D01*
X73604144Y-114833400D01*
X73627912Y-115074718D01*
X73698302Y-115306763D01*
X73812609Y-115520616D01*
X73824671Y-115535314D01*
X73582112Y-115292755D01*
X73582108Y-115292750D01*
X73479327Y-115189969D01*
X73514288Y-115074718D01*
X73538056Y-114833400D01*
X73514288Y-114592082D01*
X73443898Y-114360037D01*
X73329591Y-114146184D01*
X73175760Y-113958740D01*
X72988316Y-113804909D01*
X72774463Y-113690602D01*
X72542418Y-113620212D01*
X72361572Y-113602400D01*
X72240628Y-113602400D01*
X72059782Y-113620212D01*
X71827737Y-113690602D01*
X71613884Y-113804909D01*
X71426440Y-113958740D01*
X71272609Y-114146184D01*
X71158302Y-114360037D01*
X71087912Y-114592082D01*
X71064144Y-114833400D01*
X71087912Y-115074718D01*
X71158302Y-115306763D01*
X71272609Y-115520616D01*
X71426440Y-115708060D01*
X71613884Y-115861891D01*
X71827737Y-115976198D01*
X72059782Y-116046588D01*
X72240628Y-116064400D01*
X72361572Y-116064400D01*
X72542418Y-116046588D01*
X72657669Y-116011627D01*
X72760450Y-116114408D01*
X72760455Y-116114412D01*
X74130462Y-117484420D01*
X63215199Y-117484420D01*
X61929160Y-116198381D01*
X62014100Y-116153555D01*
X62014100Y-114960400D01*
X61994100Y-114960400D01*
X61994100Y-114706400D01*
X62014100Y-114706400D01*
X62014100Y-113513245D01*
X62268100Y-113513245D01*
X62268100Y-114706400D01*
X62288100Y-114706400D01*
X62288100Y-114960400D01*
X62268100Y-114960400D01*
X62268100Y-116153555D01*
X62497990Y-116274876D01*
X62645199Y-116230225D01*
X62908020Y-116105041D01*
X63141369Y-115930988D01*
X63336278Y-115714755D01*
X63485257Y-115464652D01*
X63540083Y-115310095D01*
X63652609Y-115520616D01*
X63806440Y-115708060D01*
X63993884Y-115861891D01*
X64207737Y-115976198D01*
X64439782Y-116046588D01*
X64620628Y-116064400D01*
X64741572Y-116064400D01*
X64922418Y-116046588D01*
X65154463Y-115976198D01*
X65368316Y-115861891D01*
X65555760Y-115708060D01*
X65709591Y-115520616D01*
X65823898Y-115306763D01*
X65894288Y-115074718D01*
X65918056Y-114833400D01*
X65984144Y-114833400D01*
X66007912Y-115074718D01*
X66078302Y-115306763D01*
X66192609Y-115520616D01*
X66346440Y-115708060D01*
X66533884Y-115861891D01*
X66747737Y-115976198D01*
X66979782Y-116046588D01*
X67160628Y-116064400D01*
X67281572Y-116064400D01*
X67462418Y-116046588D01*
X67694463Y-115976198D01*
X67908316Y-115861891D01*
X68095760Y-115708060D01*
X68249591Y-115520616D01*
X68363898Y-115306763D01*
X68434288Y-115074718D01*
X68458056Y-114833400D01*
X68524144Y-114833400D01*
X68547912Y-115074718D01*
X68618302Y-115306763D01*
X68732609Y-115520616D01*
X68886440Y-115708060D01*
X69073884Y-115861891D01*
X69287737Y-115976198D01*
X69519782Y-116046588D01*
X69700628Y-116064400D01*
X69821572Y-116064400D01*
X70002418Y-116046588D01*
X70234463Y-115976198D01*
X70448316Y-115861891D01*
X70635760Y-115708060D01*
X70789591Y-115520616D01*
X70903898Y-115306763D01*
X70974288Y-115074718D01*
X70998056Y-114833400D01*
X70974288Y-114592082D01*
X70903898Y-114360037D01*
X70789591Y-114146184D01*
X70635760Y-113958740D01*
X70448316Y-113804909D01*
X70234463Y-113690602D01*
X70002418Y-113620212D01*
X69821572Y-113602400D01*
X69700628Y-113602400D01*
X69519782Y-113620212D01*
X69287737Y-113690602D01*
X69073884Y-113804909D01*
X68886440Y-113958740D01*
X68732609Y-114146184D01*
X68618302Y-114360037D01*
X68547912Y-114592082D01*
X68524144Y-114833400D01*
X68458056Y-114833400D01*
X68434288Y-114592082D01*
X68363898Y-114360037D01*
X68249591Y-114146184D01*
X68095760Y-113958740D01*
X67908316Y-113804909D01*
X67694463Y-113690602D01*
X67462418Y-113620212D01*
X67281572Y-113602400D01*
X67160628Y-113602400D01*
X66979782Y-113620212D01*
X66747737Y-113690602D01*
X66533884Y-113804909D01*
X66346440Y-113958740D01*
X66192609Y-114146184D01*
X66078302Y-114360037D01*
X66007912Y-114592082D01*
X65984144Y-114833400D01*
X65918056Y-114833400D01*
X65894288Y-114592082D01*
X65823898Y-114360037D01*
X65709591Y-114146184D01*
X65555760Y-113958740D01*
X65368316Y-113804909D01*
X65154463Y-113690602D01*
X64922418Y-113620212D01*
X64741572Y-113602400D01*
X64620628Y-113602400D01*
X64439782Y-113620212D01*
X64207737Y-113690602D01*
X63993884Y-113804909D01*
X63806440Y-113958740D01*
X63652609Y-114146184D01*
X63540083Y-114356705D01*
X63485257Y-114202148D01*
X63336278Y-113952045D01*
X63141369Y-113735812D01*
X62908020Y-113561759D01*
X62645199Y-113436575D01*
X62497990Y-113391924D01*
X62268100Y-113513245D01*
X62014100Y-113513245D01*
X61784210Y-113391924D01*
X61637001Y-113436575D01*
X61374180Y-113561759D01*
X61140831Y-113735812D01*
X60945922Y-113952045D01*
X60796943Y-114202148D01*
X60742117Y-114356705D01*
X60629591Y-114146184D01*
X60475760Y-113958740D01*
X60288316Y-113804909D01*
X60074463Y-113690602D01*
X59842418Y-113620212D01*
X59661572Y-113602400D01*
X59540628Y-113602400D01*
X59359782Y-113620212D01*
X59127737Y-113690602D01*
X58913884Y-113804909D01*
X58726440Y-113958740D01*
X58572609Y-114146184D01*
X58460083Y-114356705D01*
X58405257Y-114202148D01*
X58256278Y-113952045D01*
X58061369Y-113735812D01*
X57828020Y-113561759D01*
X57565199Y-113436575D01*
X57417990Y-113391924D01*
X57188100Y-113513245D01*
X57188100Y-114706400D01*
X57208100Y-114706400D01*
X57208100Y-114960400D01*
X57188100Y-114960400D01*
X57188100Y-116153555D01*
X57417990Y-116274876D01*
X57565199Y-116230225D01*
X57828020Y-116105041D01*
X58061369Y-115930988D01*
X58256278Y-115714755D01*
X58405257Y-115464652D01*
X58460083Y-115310095D01*
X58572609Y-115520616D01*
X58726440Y-115708060D01*
X58913884Y-115861891D01*
X59127737Y-115976198D01*
X59359782Y-116046588D01*
X59540628Y-116064400D01*
X59661572Y-116064400D01*
X59842418Y-116046588D01*
X59849164Y-116044542D01*
X62427920Y-118623299D01*
X62449250Y-118649290D01*
X62552946Y-118734390D01*
X62671252Y-118797626D01*
X62799621Y-118836566D01*
X62933120Y-118849715D01*
X62966573Y-118846420D01*
X82089262Y-118846420D01*
X82122715Y-118849715D01*
X82156168Y-118846420D01*
X82256214Y-118836566D01*
X82384583Y-118797626D01*
X82502889Y-118734390D01*
X82606585Y-118649290D01*
X82627919Y-118623294D01*
X85618464Y-115632750D01*
X106097172Y-115632750D01*
X112014999Y-121550578D01*
X112015000Y-130823536D01*
X112011704Y-130856999D01*
X112024853Y-130990497D01*
X112056594Y-131095132D01*
X112063794Y-131118867D01*
X112127030Y-131237173D01*
X112212130Y-131340869D01*
X112238120Y-131362199D01*
X112738116Y-131862195D01*
X112738121Y-131862199D01*
X112834858Y-131958936D01*
X112832812Y-131965682D01*
X112809044Y-132207000D01*
X112832812Y-132448318D01*
X112834858Y-132455064D01*
X112738121Y-132551801D01*
X112738116Y-132551805D01*
X112229221Y-133060700D01*
X112203231Y-133082030D01*
X112118131Y-133185726D01*
X112091531Y-133235491D01*
X112054895Y-133304032D01*
X112015954Y-133432402D01*
X112002805Y-133565900D01*
X112006101Y-133599363D01*
X112006100Y-138434647D01*
X112002805Y-138468100D01*
X112006100Y-138501552D01*
X112015954Y-138601598D01*
X112054894Y-138729967D01*
X112118130Y-138848273D01*
X112203230Y-138951969D01*
X112229222Y-138973300D01*
X112813157Y-139557235D01*
X112813157Y-140677000D01*
X112820513Y-140751689D01*
X112842299Y-140823508D01*
X112877678Y-140889696D01*
X112925289Y-140947711D01*
X112983304Y-140995322D01*
X113049492Y-141030701D01*
X113121311Y-141052487D01*
X113196000Y-141059843D01*
X113365001Y-141059843D01*
X113365000Y-141134157D01*
X113196000Y-141134157D01*
X113121311Y-141141513D01*
X113049492Y-141163299D01*
X112983304Y-141198678D01*
X112925289Y-141246289D01*
X112877678Y-141304304D01*
X112842299Y-141370492D01*
X112820513Y-141442311D01*
X112813157Y-141517000D01*
X112813157Y-143217000D01*
X112820513Y-143291689D01*
X112842299Y-143363508D01*
X112877678Y-143429696D01*
X112925289Y-143487711D01*
X112983304Y-143535322D01*
X113049492Y-143570701D01*
X113121311Y-143592487D01*
X113196000Y-143599843D01*
X113353645Y-143599843D01*
X113279080Y-143635359D01*
X113045731Y-143809412D01*
X112850822Y-144025645D01*
X112701843Y-144275748D01*
X112604519Y-144550109D01*
X112725186Y-144780000D01*
X113919000Y-144780000D01*
X113919000Y-144760000D01*
X114173000Y-144760000D01*
X114173000Y-144780000D01*
X114193000Y-144780000D01*
X114193000Y-145034000D01*
X114173000Y-145034000D01*
X114173000Y-146227155D01*
X114402890Y-146348476D01*
X114550099Y-146303825D01*
X114812920Y-146178641D01*
X115046269Y-146004588D01*
X115241178Y-145788355D01*
X115390157Y-145538252D01*
X115444983Y-145383695D01*
X115557509Y-145594216D01*
X115711340Y-145781660D01*
X115898784Y-145935491D01*
X116112637Y-146049798D01*
X116344682Y-146120188D01*
X116525528Y-146138000D01*
X116646472Y-146138000D01*
X116827318Y-146120188D01*
X117059363Y-146049798D01*
X117273216Y-145935491D01*
X117460660Y-145781660D01*
X117614491Y-145594216D01*
X117728798Y-145380363D01*
X117799188Y-145148318D01*
X117822956Y-144907000D01*
X117799188Y-144665682D01*
X117728798Y-144433637D01*
X117614491Y-144219784D01*
X117602428Y-144205085D01*
X117947773Y-144550431D01*
X117912812Y-144665682D01*
X117889044Y-144907000D01*
X117912812Y-145148318D01*
X117983202Y-145380363D01*
X118097509Y-145594216D01*
X118251340Y-145781660D01*
X118438784Y-145935491D01*
X118652637Y-146049798D01*
X118884682Y-146120188D01*
X119065528Y-146138000D01*
X119186472Y-146138000D01*
X119367318Y-146120188D01*
X119599363Y-146049798D01*
X119813216Y-145935491D01*
X120000660Y-145781660D01*
X120154491Y-145594216D01*
X120268798Y-145380363D01*
X120339188Y-145148318D01*
X120362956Y-144907000D01*
X120339188Y-144665682D01*
X120268798Y-144433637D01*
X120154491Y-144219784D01*
X120142428Y-144205085D01*
X120487773Y-144550431D01*
X120452812Y-144665682D01*
X120429044Y-144907000D01*
X120452812Y-145148318D01*
X120523202Y-145380363D01*
X120637509Y-145594216D01*
X120791340Y-145781660D01*
X120978784Y-145935491D01*
X121192637Y-146049798D01*
X121424682Y-146120188D01*
X121605528Y-146138000D01*
X121726472Y-146138000D01*
X121907318Y-146120188D01*
X122139363Y-146049798D01*
X122353216Y-145935491D01*
X122540660Y-145781660D01*
X122694491Y-145594216D01*
X122808798Y-145380363D01*
X122879188Y-145148318D01*
X122902956Y-144907000D01*
X122969044Y-144907000D01*
X122992812Y-145148318D01*
X123063202Y-145380363D01*
X123177509Y-145594216D01*
X123331340Y-145781660D01*
X123518784Y-145935491D01*
X123732637Y-146049798D01*
X123964682Y-146120188D01*
X124145528Y-146138000D01*
X124266472Y-146138000D01*
X124447318Y-146120188D01*
X124679363Y-146049798D01*
X124893216Y-145935491D01*
X125080660Y-145781660D01*
X125234491Y-145594216D01*
X125348798Y-145380363D01*
X125419188Y-145148318D01*
X125442956Y-144907000D01*
X125509044Y-144907000D01*
X125532812Y-145148318D01*
X125603202Y-145380363D01*
X125717509Y-145594216D01*
X125871340Y-145781660D01*
X126058784Y-145935491D01*
X126272637Y-146049798D01*
X126504682Y-146120188D01*
X126685528Y-146138000D01*
X126806472Y-146138000D01*
X126987318Y-146120188D01*
X127219363Y-146049798D01*
X127433216Y-145935491D01*
X127620660Y-145781660D01*
X127774491Y-145594216D01*
X127888798Y-145380363D01*
X127959188Y-145148318D01*
X127982956Y-144907000D01*
X128049044Y-144907000D01*
X128072812Y-145148318D01*
X128143202Y-145380363D01*
X128257509Y-145594216D01*
X128411340Y-145781660D01*
X128598784Y-145935491D01*
X128812637Y-146049798D01*
X129044682Y-146120188D01*
X129225528Y-146138000D01*
X129346472Y-146138000D01*
X129527318Y-146120188D01*
X129759363Y-146049798D01*
X129973216Y-145935491D01*
X130160660Y-145781660D01*
X130314491Y-145594216D01*
X130428798Y-145380363D01*
X130499188Y-145148318D01*
X130522956Y-144907000D01*
X130499188Y-144665682D01*
X130428798Y-144433637D01*
X130314491Y-144219784D01*
X130160660Y-144032340D01*
X129973216Y-143878509D01*
X129759363Y-143764202D01*
X129527318Y-143693812D01*
X129346472Y-143676000D01*
X129225528Y-143676000D01*
X129044682Y-143693812D01*
X128812637Y-143764202D01*
X128598784Y-143878509D01*
X128411340Y-144032340D01*
X128257509Y-144219784D01*
X128143202Y-144433637D01*
X128072812Y-144665682D01*
X128049044Y-144907000D01*
X127982956Y-144907000D01*
X127959188Y-144665682D01*
X127888798Y-144433637D01*
X127774491Y-144219784D01*
X127620660Y-144032340D01*
X127433216Y-143878509D01*
X127219363Y-143764202D01*
X126987318Y-143693812D01*
X126806472Y-143676000D01*
X126685528Y-143676000D01*
X126504682Y-143693812D01*
X126272637Y-143764202D01*
X126058784Y-143878509D01*
X125871340Y-144032340D01*
X125717509Y-144219784D01*
X125603202Y-144433637D01*
X125532812Y-144665682D01*
X125509044Y-144907000D01*
X125442956Y-144907000D01*
X125419188Y-144665682D01*
X125348798Y-144433637D01*
X125234491Y-144219784D01*
X125080660Y-144032340D01*
X124893216Y-143878509D01*
X124679363Y-143764202D01*
X124447318Y-143693812D01*
X124266472Y-143676000D01*
X124145528Y-143676000D01*
X123964682Y-143693812D01*
X123732637Y-143764202D01*
X123518784Y-143878509D01*
X123331340Y-144032340D01*
X123177509Y-144219784D01*
X123063202Y-144433637D01*
X122992812Y-144665682D01*
X122969044Y-144907000D01*
X122902956Y-144907000D01*
X122879188Y-144665682D01*
X122808798Y-144433637D01*
X122694491Y-144219784D01*
X122540660Y-144032340D01*
X122353216Y-143878509D01*
X122139363Y-143764202D01*
X121907318Y-143693812D01*
X121726472Y-143676000D01*
X121605528Y-143676000D01*
X121424682Y-143693812D01*
X121309431Y-143728773D01*
X120964085Y-143383428D01*
X120978784Y-143395491D01*
X121192637Y-143509798D01*
X121424682Y-143580188D01*
X121605528Y-143598000D01*
X121726472Y-143598000D01*
X121907318Y-143580188D01*
X122139363Y-143509798D01*
X122353216Y-143395491D01*
X122540660Y-143241660D01*
X122694491Y-143054216D01*
X122808798Y-142840363D01*
X122879188Y-142608318D01*
X122902956Y-142367000D01*
X122879188Y-142125682D01*
X122808798Y-141893637D01*
X122694491Y-141679784D01*
X122682428Y-141665085D01*
X123027773Y-142010431D01*
X122992812Y-142125682D01*
X122969044Y-142367000D01*
X122992812Y-142608318D01*
X123063202Y-142840363D01*
X123177509Y-143054216D01*
X123331340Y-143241660D01*
X123518784Y-143395491D01*
X123732637Y-143509798D01*
X123964682Y-143580188D01*
X124145528Y-143598000D01*
X124266472Y-143598000D01*
X124447318Y-143580188D01*
X124679363Y-143509798D01*
X124893216Y-143395491D01*
X125080660Y-143241660D01*
X125234491Y-143054216D01*
X125348798Y-142840363D01*
X125419188Y-142608318D01*
X125442956Y-142367000D01*
X125509044Y-142367000D01*
X125532812Y-142608318D01*
X125603202Y-142840363D01*
X125717509Y-143054216D01*
X125871340Y-143241660D01*
X126058784Y-143395491D01*
X126272637Y-143509798D01*
X126504682Y-143580188D01*
X126685528Y-143598000D01*
X126806472Y-143598000D01*
X126987318Y-143580188D01*
X127219363Y-143509798D01*
X127433216Y-143395491D01*
X127620660Y-143241660D01*
X127774491Y-143054216D01*
X127888798Y-142840363D01*
X127959188Y-142608318D01*
X127982956Y-142367000D01*
X128049044Y-142367000D01*
X128072812Y-142608318D01*
X128143202Y-142840363D01*
X128257509Y-143054216D01*
X128411340Y-143241660D01*
X128598784Y-143395491D01*
X128812637Y-143509798D01*
X129044682Y-143580188D01*
X129225528Y-143598000D01*
X129346472Y-143598000D01*
X129527318Y-143580188D01*
X129759363Y-143509798D01*
X129973216Y-143395491D01*
X130160660Y-143241660D01*
X130314491Y-143054216D01*
X130428798Y-142840363D01*
X130499188Y-142608318D01*
X130522956Y-142367000D01*
X130589044Y-142367000D01*
X130612812Y-142608318D01*
X130683202Y-142840363D01*
X130797509Y-143054216D01*
X130951340Y-143241660D01*
X131138784Y-143395491D01*
X131352637Y-143509798D01*
X131584682Y-143580188D01*
X131765528Y-143598000D01*
X131886472Y-143598000D01*
X132067318Y-143580188D01*
X132299363Y-143509798D01*
X132513216Y-143395491D01*
X132700660Y-143241660D01*
X132854491Y-143054216D01*
X132968798Y-142840363D01*
X133039188Y-142608318D01*
X133062956Y-142367000D01*
X133039188Y-142125682D01*
X132968798Y-141893637D01*
X132854491Y-141679784D01*
X132700660Y-141492340D01*
X132513216Y-141338509D01*
X132299363Y-141224202D01*
X132067318Y-141153812D01*
X131886472Y-141136000D01*
X131765528Y-141136000D01*
X131584682Y-141153812D01*
X131352637Y-141224202D01*
X131138784Y-141338509D01*
X130951340Y-141492340D01*
X130797509Y-141679784D01*
X130683202Y-141893637D01*
X130612812Y-142125682D01*
X130589044Y-142367000D01*
X130522956Y-142367000D01*
X130499188Y-142125682D01*
X130428798Y-141893637D01*
X130314491Y-141679784D01*
X130160660Y-141492340D01*
X129973216Y-141338509D01*
X129759363Y-141224202D01*
X129527318Y-141153812D01*
X129346472Y-141136000D01*
X129225528Y-141136000D01*
X129044682Y-141153812D01*
X128812637Y-141224202D01*
X128598784Y-141338509D01*
X128411340Y-141492340D01*
X128257509Y-141679784D01*
X128143202Y-141893637D01*
X128072812Y-142125682D01*
X128049044Y-142367000D01*
X127982956Y-142367000D01*
X127959188Y-142125682D01*
X127888798Y-141893637D01*
X127774491Y-141679784D01*
X127620660Y-141492340D01*
X127433216Y-141338509D01*
X127219363Y-141224202D01*
X126987318Y-141153812D01*
X126806472Y-141136000D01*
X126685528Y-141136000D01*
X126504682Y-141153812D01*
X126272637Y-141224202D01*
X126058784Y-141338509D01*
X125871340Y-141492340D01*
X125717509Y-141679784D01*
X125603202Y-141893637D01*
X125532812Y-142125682D01*
X125509044Y-142367000D01*
X125442956Y-142367000D01*
X125419188Y-142125682D01*
X125348798Y-141893637D01*
X125234491Y-141679784D01*
X125080660Y-141492340D01*
X124893216Y-141338509D01*
X124679363Y-141224202D01*
X124447318Y-141153812D01*
X124266472Y-141136000D01*
X124145528Y-141136000D01*
X123964682Y-141153812D01*
X123849431Y-141188773D01*
X123387001Y-140726344D01*
X123387001Y-138341030D01*
X123405664Y-138359693D01*
X123631851Y-138510826D01*
X123883177Y-138614929D01*
X124149983Y-138668000D01*
X124422017Y-138668000D01*
X124688823Y-138614929D01*
X124940149Y-138510826D01*
X125072468Y-138422413D01*
X125830192Y-138422413D01*
X125925956Y-138686814D01*
X126215571Y-138827704D01*
X126527108Y-138909384D01*
X126848595Y-138928718D01*
X127167675Y-138884961D01*
X127472088Y-138779795D01*
X127646044Y-138686814D01*
X127741808Y-138422413D01*
X126786000Y-137466605D01*
X125830192Y-138422413D01*
X125072468Y-138422413D01*
X125166336Y-138359693D01*
X125358693Y-138167336D01*
X125379993Y-138135458D01*
X125386186Y-138147044D01*
X125650587Y-138242808D01*
X126606395Y-137287000D01*
X126965605Y-137287000D01*
X127921413Y-138242808D01*
X128185814Y-138147044D01*
X128191685Y-138134976D01*
X128213307Y-138167336D01*
X128405664Y-138359693D01*
X128631851Y-138510826D01*
X128883177Y-138614929D01*
X129149983Y-138668000D01*
X129422017Y-138668000D01*
X129688823Y-138614929D01*
X129940149Y-138510826D01*
X130166336Y-138359693D01*
X130358693Y-138167336D01*
X130509826Y-137941149D01*
X130613929Y-137689823D01*
X130667000Y-137423017D01*
X130667000Y-137150983D01*
X130613929Y-136884177D01*
X130509826Y-136632851D01*
X130358693Y-136406664D01*
X130166336Y-136214307D01*
X129940149Y-136063174D01*
X129688823Y-135959071D01*
X129422017Y-135906000D01*
X129149983Y-135906000D01*
X128883177Y-135959071D01*
X128631851Y-136063174D01*
X128405664Y-136214307D01*
X128213307Y-136406664D01*
X128192007Y-136438542D01*
X128185814Y-136426956D01*
X127921413Y-136331192D01*
X126965605Y-137287000D01*
X126606395Y-137287000D01*
X125650587Y-136331192D01*
X125386186Y-136426956D01*
X125380315Y-136439024D01*
X125358693Y-136406664D01*
X125166336Y-136214307D01*
X125072469Y-136151587D01*
X125830192Y-136151587D01*
X126786000Y-137107395D01*
X127741808Y-136151587D01*
X127646044Y-135887186D01*
X127356429Y-135746296D01*
X127044892Y-135664616D01*
X126723405Y-135645282D01*
X126404325Y-135689039D01*
X126099912Y-135794205D01*
X125925956Y-135887186D01*
X125830192Y-136151587D01*
X125072469Y-136151587D01*
X124940149Y-136063174D01*
X124688823Y-135959071D01*
X124422017Y-135906000D01*
X124149983Y-135906000D01*
X123883177Y-135959071D01*
X123631851Y-136063174D01*
X123405664Y-136214307D01*
X123387001Y-136232970D01*
X123387001Y-132202203D01*
X123425372Y-132130416D01*
X123458594Y-132020897D01*
X123467001Y-131935541D01*
X123467001Y-131935540D01*
X123469812Y-131907002D01*
X123467001Y-131878462D01*
X123467001Y-131587000D01*
X130447928Y-131587000D01*
X130460188Y-131711482D01*
X130496498Y-131831180D01*
X130555463Y-131941494D01*
X130634815Y-132038185D01*
X130731506Y-132117537D01*
X130841820Y-132176502D01*
X130961518Y-132212812D01*
X131086000Y-132225072D01*
X132200250Y-132222000D01*
X132359000Y-132063250D01*
X132359000Y-129914000D01*
X132613000Y-129914000D01*
X132613000Y-132063250D01*
X132771750Y-132222000D01*
X133886000Y-132225072D01*
X134010482Y-132212812D01*
X134130180Y-132176502D01*
X134240494Y-132117537D01*
X134337185Y-132038185D01*
X134416537Y-131941494D01*
X134475502Y-131831180D01*
X134511812Y-131711482D01*
X134524072Y-131587000D01*
X134521000Y-130072750D01*
X134362250Y-129914000D01*
X132613000Y-129914000D01*
X132359000Y-129914000D01*
X130609750Y-129914000D01*
X130451000Y-130072750D01*
X130447928Y-131587000D01*
X123467001Y-131587000D01*
X123467001Y-127987000D01*
X130447928Y-127987000D01*
X130451000Y-129501250D01*
X130609750Y-129660000D01*
X132359000Y-129660000D01*
X132359000Y-127510750D01*
X132613000Y-127510750D01*
X132613000Y-129660000D01*
X134362250Y-129660000D01*
X134521000Y-129501250D01*
X134524072Y-127987000D01*
X134511812Y-127862518D01*
X134475502Y-127742820D01*
X134416537Y-127632506D01*
X134337185Y-127535815D01*
X134240494Y-127456463D01*
X134130180Y-127397498D01*
X134010482Y-127361188D01*
X133886000Y-127348928D01*
X132771750Y-127352000D01*
X132613000Y-127510750D01*
X132359000Y-127510750D01*
X132200250Y-127352000D01*
X131086000Y-127348928D01*
X130961518Y-127361188D01*
X130841820Y-127397498D01*
X130731506Y-127456463D01*
X130634815Y-127535815D01*
X130555463Y-127632506D01*
X130496498Y-127742820D01*
X130460188Y-127862518D01*
X130447928Y-127987000D01*
X123467001Y-127987000D01*
X123467001Y-127173459D01*
X123469812Y-127144919D01*
X123458594Y-127031024D01*
X123425372Y-126921505D01*
X123371422Y-126820572D01*
X123298818Y-126732103D01*
X123276646Y-126713907D01*
X119213722Y-122650983D01*
X122905000Y-122650983D01*
X122905000Y-122923017D01*
X122958071Y-123189823D01*
X123062174Y-123441149D01*
X123213307Y-123667336D01*
X123405664Y-123859693D01*
X123631851Y-124010826D01*
X123883177Y-124114929D01*
X124149983Y-124168000D01*
X124422017Y-124168000D01*
X124688823Y-124114929D01*
X124940149Y-124010826D01*
X125072468Y-123922413D01*
X128330192Y-123922413D01*
X128425956Y-124186814D01*
X128715571Y-124327704D01*
X129027108Y-124409384D01*
X129348595Y-124428718D01*
X129667675Y-124384961D01*
X129972088Y-124279795D01*
X130146044Y-124186814D01*
X130241808Y-123922413D01*
X129286000Y-122966605D01*
X128330192Y-123922413D01*
X125072468Y-123922413D01*
X125166336Y-123859693D01*
X125358693Y-123667336D01*
X125509826Y-123441149D01*
X125613929Y-123189823D01*
X125667000Y-122923017D01*
X125667000Y-122849595D01*
X127644282Y-122849595D01*
X127688039Y-123168675D01*
X127793205Y-123473088D01*
X127886186Y-123647044D01*
X128150587Y-123742808D01*
X129106395Y-122787000D01*
X129465605Y-122787000D01*
X130421413Y-123742808D01*
X130685814Y-123647044D01*
X130826704Y-123357429D01*
X130908384Y-123045892D01*
X130927718Y-122724405D01*
X130883961Y-122405325D01*
X130778795Y-122100912D01*
X130685814Y-121926956D01*
X130421413Y-121831192D01*
X129465605Y-122787000D01*
X129106395Y-122787000D01*
X128150587Y-121831192D01*
X127886186Y-121926956D01*
X127745296Y-122216571D01*
X127663616Y-122528108D01*
X127644282Y-122849595D01*
X125667000Y-122849595D01*
X125667000Y-122650983D01*
X125613929Y-122384177D01*
X125509826Y-122132851D01*
X125358693Y-121906664D01*
X125166336Y-121714307D01*
X125072469Y-121651587D01*
X128330192Y-121651587D01*
X129286000Y-122607395D01*
X130241808Y-121651587D01*
X130146044Y-121387186D01*
X129856429Y-121246296D01*
X129544892Y-121164616D01*
X129223405Y-121145282D01*
X128904325Y-121189039D01*
X128599912Y-121294205D01*
X128425956Y-121387186D01*
X128330192Y-121651587D01*
X125072469Y-121651587D01*
X124940149Y-121563174D01*
X124688823Y-121459071D01*
X124422017Y-121406000D01*
X124149983Y-121406000D01*
X123883177Y-121459071D01*
X123631851Y-121563174D01*
X123405664Y-121714307D01*
X123213307Y-121906664D01*
X123062174Y-122132851D01*
X122958071Y-122384177D01*
X122905000Y-122650983D01*
X119213722Y-122650983D01*
X115679098Y-119116360D01*
X115660898Y-119094183D01*
X115572429Y-119021579D01*
X115471496Y-118967629D01*
X115361977Y-118934407D01*
X115276621Y-118926000D01*
X115248081Y-118923189D01*
X115219541Y-118926000D01*
X115131265Y-118926000D01*
X115074491Y-118819784D01*
X114920660Y-118632340D01*
X114733216Y-118478509D01*
X114519363Y-118364202D01*
X114287318Y-118293812D01*
X114106472Y-118276000D01*
X113985528Y-118276000D01*
X113804682Y-118293812D01*
X113572637Y-118364202D01*
X113358784Y-118478509D01*
X113171340Y-118632340D01*
X113017509Y-118819784D01*
X112903202Y-119033637D01*
X112832812Y-119265682D01*
X112809044Y-119507000D01*
X112832812Y-119748318D01*
X112903202Y-119980363D01*
X113017509Y-120194216D01*
X113171340Y-120381660D01*
X113358784Y-120535491D01*
X113572637Y-120649798D01*
X113804682Y-120720188D01*
X113985528Y-120738000D01*
X114106472Y-120738000D01*
X114287318Y-120720188D01*
X114519363Y-120649798D01*
X114733216Y-120535491D01*
X114920660Y-120381660D01*
X115074491Y-120194216D01*
X115088128Y-120168704D01*
X122268949Y-127349526D01*
X121371750Y-127352000D01*
X121213000Y-127510750D01*
X121213000Y-129660000D01*
X121233000Y-129660000D01*
X121233000Y-129914000D01*
X121213000Y-129914000D01*
X121213000Y-132063250D01*
X121371750Y-132222000D01*
X122225002Y-132224352D01*
X122225001Y-140938461D01*
X122222190Y-140967001D01*
X122232760Y-141074321D01*
X122233408Y-141080896D01*
X122266630Y-141190415D01*
X122320580Y-141291348D01*
X122371799Y-141353759D01*
X122353216Y-141338509D01*
X122139363Y-141224202D01*
X121907318Y-141153812D01*
X121726472Y-141136000D01*
X121605528Y-141136000D01*
X121424682Y-141153812D01*
X121192637Y-141224202D01*
X120978784Y-141338509D01*
X120957001Y-141356386D01*
X120957001Y-133025539D01*
X120959812Y-132997002D01*
X120953576Y-132933694D01*
X120948594Y-132883107D01*
X120915372Y-132773588D01*
X120861422Y-132672655D01*
X120788818Y-132584186D01*
X120766646Y-132565990D01*
X120423694Y-132223038D01*
X120800250Y-132222000D01*
X120959000Y-132063250D01*
X120959000Y-129914000D01*
X120939000Y-129914000D01*
X120939000Y-129660000D01*
X120959000Y-129660000D01*
X120959000Y-127510750D01*
X120800250Y-127352000D01*
X119686000Y-127348928D01*
X119561518Y-127361188D01*
X119441820Y-127397498D01*
X119331506Y-127456463D01*
X119234815Y-127535815D01*
X119155463Y-127632506D01*
X119096498Y-127742820D01*
X119060188Y-127862518D01*
X119057009Y-127894796D01*
X119057009Y-126505549D01*
X119059820Y-126477009D01*
X119048602Y-126363113D01*
X119015380Y-126253594D01*
X118961430Y-126152661D01*
X118907019Y-126086361D01*
X118888826Y-126064192D01*
X118866654Y-126045996D01*
X115327013Y-122506356D01*
X115327008Y-122506350D01*
X115224227Y-122403569D01*
X115259188Y-122288318D01*
X115282956Y-122047000D01*
X115259188Y-121805682D01*
X115188798Y-121573637D01*
X115074491Y-121359784D01*
X114920660Y-121172340D01*
X114733216Y-121018509D01*
X114519363Y-120904202D01*
X114287318Y-120833812D01*
X114106472Y-120816000D01*
X113985528Y-120816000D01*
X113804682Y-120833812D01*
X113572637Y-120904202D01*
X113358784Y-121018509D01*
X113337185Y-121036235D01*
X113328205Y-121006632D01*
X113328205Y-121006631D01*
X113264969Y-120888325D01*
X113179868Y-120784629D01*
X113153883Y-120763304D01*
X107223318Y-114832740D01*
X132006983Y-114832740D01*
X135124981Y-117950739D01*
X135124980Y-140001320D01*
X133975355Y-141150946D01*
X133953184Y-141169141D01*
X133934991Y-141191310D01*
X133913089Y-141217998D01*
X133892637Y-141224202D01*
X133678784Y-141338509D01*
X133491340Y-141492340D01*
X133337509Y-141679784D01*
X133223202Y-141893637D01*
X133152812Y-142125682D01*
X133129044Y-142367000D01*
X133152812Y-142608318D01*
X133223202Y-142840363D01*
X133337509Y-143054216D01*
X133491340Y-143241660D01*
X133678784Y-143395491D01*
X133892637Y-143509798D01*
X134124682Y-143580188D01*
X134305528Y-143598000D01*
X134426472Y-143598000D01*
X134607318Y-143580188D01*
X134839363Y-143509798D01*
X135053216Y-143395491D01*
X135067911Y-143383431D01*
X134722569Y-143728773D01*
X134607318Y-143693812D01*
X134426472Y-143676000D01*
X134305528Y-143676000D01*
X134124682Y-143693812D01*
X133892637Y-143764202D01*
X133678784Y-143878509D01*
X133491340Y-144032340D01*
X133337509Y-144219784D01*
X133223202Y-144433637D01*
X133152812Y-144665682D01*
X133129044Y-144907000D01*
X133152812Y-145148318D01*
X133223202Y-145380363D01*
X133327773Y-145576001D01*
X133316659Y-145576001D01*
X133004227Y-145263569D01*
X133039188Y-145148318D01*
X133062956Y-144907000D01*
X133039188Y-144665682D01*
X132968798Y-144433637D01*
X132854491Y-144219784D01*
X132700660Y-144032340D01*
X132513216Y-143878509D01*
X132299363Y-143764202D01*
X132067318Y-143693812D01*
X131886472Y-143676000D01*
X131765528Y-143676000D01*
X131584682Y-143693812D01*
X131352637Y-143764202D01*
X131138784Y-143878509D01*
X130951340Y-144032340D01*
X130797509Y-144219784D01*
X130683202Y-144433637D01*
X130612812Y-144665682D01*
X130589044Y-144907000D01*
X130612812Y-145148318D01*
X130683202Y-145380363D01*
X130797509Y-145594216D01*
X130951340Y-145781660D01*
X131138784Y-145935491D01*
X131352637Y-146049798D01*
X131584682Y-146120188D01*
X131765528Y-146138000D01*
X131886472Y-146138000D01*
X132067318Y-146120188D01*
X132182569Y-146085227D01*
X132644988Y-146547646D01*
X132663184Y-146569818D01*
X132751653Y-146642422D01*
X132852586Y-146696372D01*
X132962105Y-146729594D01*
X133047461Y-146738001D01*
X133047463Y-146738001D01*
X133076000Y-146740812D01*
X133104537Y-146738001D01*
X137477461Y-146738001D01*
X137506001Y-146740812D01*
X137534541Y-146738001D01*
X137619897Y-146729594D01*
X137729416Y-146696372D01*
X137830349Y-146642422D01*
X137918818Y-146569818D01*
X137937018Y-146547641D01*
X138546647Y-145938013D01*
X138568818Y-145919818D01*
X138641422Y-145831349D01*
X138695372Y-145730416D01*
X138728594Y-145620897D01*
X138737001Y-145535541D01*
X138737001Y-145535540D01*
X138739812Y-145507001D01*
X138737001Y-145478461D01*
X138737001Y-117432741D01*
X138739812Y-117404201D01*
X138728594Y-117290305D01*
X138695372Y-117180786D01*
X138641422Y-117079853D01*
X138611657Y-117043584D01*
X138568818Y-116991384D01*
X138546646Y-116973188D01*
X134006157Y-112432700D01*
X140552486Y-112432700D01*
X140664412Y-150711300D01*
X48374427Y-150711300D01*
X48381506Y-145263891D01*
X112604519Y-145263891D01*
X112701843Y-145538252D01*
X112850822Y-145788355D01*
X113045731Y-146004588D01*
X113279080Y-146178641D01*
X113541901Y-146303825D01*
X113689110Y-146348476D01*
X113919000Y-146227155D01*
X113919000Y-145034000D01*
X112725186Y-145034000D01*
X112604519Y-145263891D01*
X48381506Y-145263891D01*
X48420588Y-115190291D01*
X55619619Y-115190291D01*
X55716943Y-115464652D01*
X55865922Y-115714755D01*
X56060831Y-115930988D01*
X56294180Y-116105041D01*
X56557001Y-116230225D01*
X56704210Y-116274876D01*
X56934100Y-116153555D01*
X56934100Y-114960400D01*
X55740286Y-114960400D01*
X55619619Y-115190291D01*
X48420588Y-115190291D01*
X48421515Y-114476509D01*
X55619619Y-114476509D01*
X55740286Y-114706400D01*
X56934100Y-114706400D01*
X56934100Y-113513245D01*
X56704210Y-113391924D01*
X56557001Y-113436575D01*
X56294180Y-113561759D01*
X56060831Y-113735812D01*
X55865922Y-113952045D01*
X55716943Y-114202148D01*
X55619619Y-114476509D01*
X48421515Y-114476509D01*
X48424172Y-112432700D01*
X83341642Y-112432700D01*
X81521943Y-114252400D01*
G36*
X115905001Y-137569081D02*
G01*
X115905000Y-141335186D01*
X115898784Y-141338509D01*
X115711340Y-141492340D01*
X115557509Y-141679784D01*
X115443202Y-141893637D01*
X115372812Y-142125682D01*
X115349044Y-142367000D01*
X115372812Y-142608318D01*
X115426116Y-142784037D01*
X115278843Y-142636764D01*
X115278843Y-141517000D01*
X115271487Y-141442311D01*
X115249701Y-141370492D01*
X115214322Y-141304304D01*
X115166711Y-141246289D01*
X115108696Y-141198678D01*
X115042508Y-141163299D01*
X114970689Y-141141513D01*
X114896000Y-141134157D01*
X114727000Y-141134157D01*
X114727000Y-141059843D01*
X114896000Y-141059843D01*
X114970689Y-141052487D01*
X115042508Y-141030701D01*
X115108696Y-140995322D01*
X115166711Y-140947711D01*
X115214322Y-140889696D01*
X115249701Y-140823508D01*
X115271487Y-140751689D01*
X115278843Y-140677000D01*
X115278843Y-138977000D01*
X115271487Y-138902311D01*
X115249701Y-138830492D01*
X115214322Y-138764304D01*
X115166711Y-138706289D01*
X115108696Y-138658678D01*
X115042508Y-138623299D01*
X114970689Y-138601513D01*
X114896000Y-138594157D01*
X114739367Y-138594157D01*
X114927355Y-138482178D01*
X115143588Y-138287269D01*
X115317641Y-138053920D01*
X115442825Y-137791099D01*
X115487476Y-137643890D01*
X115366155Y-137414000D01*
X114173000Y-137414000D01*
X114173000Y-137434000D01*
X113919000Y-137434000D01*
X113919000Y-137414000D01*
X113899000Y-137414000D01*
X113899000Y-137160000D01*
X113919000Y-137160000D01*
X113919000Y-137140000D01*
X114173000Y-137140000D01*
X114173000Y-137160000D01*
X115366155Y-137160000D01*
X115410981Y-137075060D01*
X115905001Y-137569081D01*
X115905001Y-137569081D01*
G37*
X115905001Y-137569081D02*
X115905000Y-141335186D01*
X115898784Y-141338509D01*
X115711340Y-141492340D01*
X115557509Y-141679784D01*
X115443202Y-141893637D01*
X115372812Y-142125682D01*
X115349044Y-142367000D01*
X115372812Y-142608318D01*
X115426116Y-142784037D01*
X115278843Y-142636764D01*
X115278843Y-141517000D01*
X115271487Y-141442311D01*
X115249701Y-141370492D01*
X115214322Y-141304304D01*
X115166711Y-141246289D01*
X115108696Y-141198678D01*
X115042508Y-141163299D01*
X114970689Y-141141513D01*
X114896000Y-141134157D01*
X114727000Y-141134157D01*
X114727000Y-141059843D01*
X114896000Y-141059843D01*
X114970689Y-141052487D01*
X115042508Y-141030701D01*
X115108696Y-140995322D01*
X115166711Y-140947711D01*
X115214322Y-140889696D01*
X115249701Y-140823508D01*
X115271487Y-140751689D01*
X115278843Y-140677000D01*
X115278843Y-138977000D01*
X115271487Y-138902311D01*
X115249701Y-138830492D01*
X115214322Y-138764304D01*
X115166711Y-138706289D01*
X115108696Y-138658678D01*
X115042508Y-138623299D01*
X114970689Y-138601513D01*
X114896000Y-138594157D01*
X114739367Y-138594157D01*
X114927355Y-138482178D01*
X115143588Y-138287269D01*
X115317641Y-138053920D01*
X115442825Y-137791099D01*
X115487476Y-137643890D01*
X115366155Y-137414000D01*
X114173000Y-137414000D01*
X114173000Y-137434000D01*
X113919000Y-137434000D01*
X113919000Y-137414000D01*
X113899000Y-137414000D01*
X113899000Y-137160000D01*
X113919000Y-137160000D01*
X113919000Y-137140000D01*
X114173000Y-137140000D01*
X114173000Y-137160000D01*
X115366155Y-137160000D01*
X115410981Y-137075060D01*
X115905001Y-137569081D01*
M02*
