G04 #@! TF.GenerationSoftware,KiCad,Pcbnew,(5.1.4-0)*
G04 #@! TF.CreationDate,2019-11-11T14:35:41+00:00*
G04 #@! TF.ProjectId,2M_DRA818V_Transceiver_tft_encoder,324d5f44-5241-4383-9138-565f5472616e,rev?*
G04 #@! TF.SameCoordinates,Original*
G04 #@! TF.FileFunction,Legend,Bot*
G04 #@! TF.FilePolarity,Positive*
%FSLAX46Y46*%
G04 Gerber Fmt 4.6, Leading zero omitted, Abs format (unit mm)*
G04 Created by KiCad (PCBNEW (5.1.4-0)) date 2019-11-11 14:35:41*
%MOMM*%
%LPD*%
G04 APERTURE LIST*
%ADD10C,0.150000*%
%ADD11C,0.120000*%
G04 APERTURE END LIST*
D10*
X85130952Y-148952380D02*
X85607142Y-148952380D01*
X85607142Y-147952380D01*
X84797619Y-148952380D02*
X84797619Y-148285714D01*
X84797619Y-147952380D02*
X84845238Y-148000000D01*
X84797619Y-148047619D01*
X84750000Y-148000000D01*
X84797619Y-147952380D01*
X84797619Y-148047619D01*
X83892857Y-148904761D02*
X83988095Y-148952380D01*
X84178571Y-148952380D01*
X84273809Y-148904761D01*
X84321428Y-148857142D01*
X84369047Y-148761904D01*
X84369047Y-148476190D01*
X84321428Y-148380952D01*
X84273809Y-148333333D01*
X84178571Y-148285714D01*
X83988095Y-148285714D01*
X83892857Y-148333333D01*
X83083333Y-148904761D02*
X83178571Y-148952380D01*
X83369047Y-148952380D01*
X83464285Y-148904761D01*
X83511904Y-148809523D01*
X83511904Y-148428571D01*
X83464285Y-148333333D01*
X83369047Y-148285714D01*
X83178571Y-148285714D01*
X83083333Y-148333333D01*
X83035714Y-148428571D01*
X83035714Y-148523809D01*
X83511904Y-148619047D01*
X82607142Y-148285714D02*
X82607142Y-148952380D01*
X82607142Y-148380952D02*
X82559523Y-148333333D01*
X82464285Y-148285714D01*
X82321428Y-148285714D01*
X82226190Y-148333333D01*
X82178571Y-148428571D01*
X82178571Y-148952380D01*
X81750000Y-148904761D02*
X81654761Y-148952380D01*
X81464285Y-148952380D01*
X81369047Y-148904761D01*
X81321428Y-148809523D01*
X81321428Y-148761904D01*
X81369047Y-148666666D01*
X81464285Y-148619047D01*
X81607142Y-148619047D01*
X81702380Y-148571428D01*
X81750000Y-148476190D01*
X81750000Y-148428571D01*
X81702380Y-148333333D01*
X81607142Y-148285714D01*
X81464285Y-148285714D01*
X81369047Y-148333333D01*
X80511904Y-148904761D02*
X80607142Y-148952380D01*
X80797619Y-148952380D01*
X80892857Y-148904761D01*
X80940476Y-148809523D01*
X80940476Y-148428571D01*
X80892857Y-148333333D01*
X80797619Y-148285714D01*
X80607142Y-148285714D01*
X80511904Y-148333333D01*
X80464285Y-148428571D01*
X80464285Y-148523809D01*
X80940476Y-148619047D01*
X79607142Y-148952380D02*
X79607142Y-147952380D01*
X79607142Y-148904761D02*
X79702380Y-148952380D01*
X79892857Y-148952380D01*
X79988095Y-148904761D01*
X80035714Y-148857142D01*
X80083333Y-148761904D01*
X80083333Y-148476190D01*
X80035714Y-148380952D01*
X79988095Y-148333333D01*
X79892857Y-148285714D01*
X79702380Y-148285714D01*
X79607142Y-148333333D01*
X77940476Y-148285714D02*
X77940476Y-148952380D01*
X78369047Y-148285714D02*
X78369047Y-148809523D01*
X78321428Y-148904761D01*
X78226190Y-148952380D01*
X78083333Y-148952380D01*
X77988095Y-148904761D01*
X77940476Y-148857142D01*
X77464285Y-148285714D02*
X77464285Y-148952380D01*
X77464285Y-148380952D02*
X77416666Y-148333333D01*
X77321428Y-148285714D01*
X77178571Y-148285714D01*
X77083333Y-148333333D01*
X77035714Y-148428571D01*
X77035714Y-148952380D01*
X76130952Y-148952380D02*
X76130952Y-147952380D01*
X76130952Y-148904761D02*
X76226190Y-148952380D01*
X76416666Y-148952380D01*
X76511904Y-148904761D01*
X76559523Y-148857142D01*
X76607142Y-148761904D01*
X76607142Y-148476190D01*
X76559523Y-148380952D01*
X76511904Y-148333333D01*
X76416666Y-148285714D01*
X76226190Y-148285714D01*
X76130952Y-148333333D01*
X75273809Y-148904761D02*
X75369047Y-148952380D01*
X75559523Y-148952380D01*
X75654761Y-148904761D01*
X75702380Y-148809523D01*
X75702380Y-148428571D01*
X75654761Y-148333333D01*
X75559523Y-148285714D01*
X75369047Y-148285714D01*
X75273809Y-148333333D01*
X75226190Y-148428571D01*
X75226190Y-148523809D01*
X75702380Y-148619047D01*
X74797619Y-148952380D02*
X74797619Y-148285714D01*
X74797619Y-148476190D02*
X74750000Y-148380952D01*
X74702380Y-148333333D01*
X74607142Y-148285714D01*
X74511904Y-148285714D01*
X72845238Y-148857142D02*
X72892857Y-148904761D01*
X73035714Y-148952380D01*
X73130952Y-148952380D01*
X73273809Y-148904761D01*
X73369047Y-148809523D01*
X73416666Y-148714285D01*
X73464285Y-148523809D01*
X73464285Y-148380952D01*
X73416666Y-148190476D01*
X73369047Y-148095238D01*
X73273809Y-148000000D01*
X73130952Y-147952380D01*
X73035714Y-147952380D01*
X72892857Y-148000000D01*
X72845238Y-148047619D01*
X72416666Y-148428571D02*
X72083333Y-148428571D01*
X71940476Y-148952380D02*
X72416666Y-148952380D01*
X72416666Y-147952380D01*
X71940476Y-147952380D01*
X70940476Y-148952380D02*
X71273809Y-148476190D01*
X71511904Y-148952380D02*
X71511904Y-147952380D01*
X71130952Y-147952380D01*
X71035714Y-148000000D01*
X70988095Y-148047619D01*
X70940476Y-148142857D01*
X70940476Y-148285714D01*
X70988095Y-148380952D01*
X71035714Y-148428571D01*
X71130952Y-148476190D01*
X71511904Y-148476190D01*
X70511904Y-148952380D02*
X70511904Y-147952380D01*
X69940476Y-148952380D01*
X69940476Y-147952380D01*
X68511904Y-147952380D02*
X68321428Y-147952380D01*
X68226190Y-148000000D01*
X68130952Y-148095238D01*
X68083333Y-148285714D01*
X68083333Y-148619047D01*
X68130952Y-148809523D01*
X68226190Y-148904761D01*
X68321428Y-148952380D01*
X68511904Y-148952380D01*
X68607142Y-148904761D01*
X68702380Y-148809523D01*
X68750000Y-148619047D01*
X68750000Y-148285714D01*
X68702380Y-148095238D01*
X68607142Y-148000000D01*
X68511904Y-147952380D01*
X67654761Y-148952380D02*
X67654761Y-147952380D01*
X67654761Y-148428571D02*
X67083333Y-148428571D01*
X67083333Y-148952380D02*
X67083333Y-147952380D01*
X66130952Y-148952380D02*
X66607142Y-148952380D01*
X66607142Y-147952380D01*
X65130952Y-148285714D02*
X64892857Y-148952380D01*
X64654761Y-148285714D01*
X64273809Y-148857142D02*
X64226190Y-148904761D01*
X64273809Y-148952380D01*
X64321428Y-148904761D01*
X64273809Y-148857142D01*
X64273809Y-148952380D01*
X63273809Y-148952380D02*
X63845238Y-148952380D01*
X63559523Y-148952380D02*
X63559523Y-147952380D01*
X63654761Y-148095238D01*
X63750000Y-148190476D01*
X63845238Y-148238095D01*
X62845238Y-148857142D02*
X62797619Y-148904761D01*
X62845238Y-148952380D01*
X62892857Y-148904761D01*
X62845238Y-148857142D01*
X62845238Y-148952380D01*
X62416666Y-148047619D02*
X62369047Y-148000000D01*
X62273809Y-147952380D01*
X62035714Y-147952380D01*
X61940476Y-148000000D01*
X61892857Y-148047619D01*
X61845238Y-148142857D01*
X61845238Y-148238095D01*
X61892857Y-148380952D01*
X62464285Y-148952380D01*
X61845238Y-148952380D01*
X85714285Y-145952380D02*
X85142857Y-145952380D01*
X85428571Y-146952380D02*
X85428571Y-145952380D01*
X84428571Y-146904761D02*
X84523809Y-146952380D01*
X84714285Y-146952380D01*
X84809523Y-146904761D01*
X84857142Y-146809523D01*
X84857142Y-146428571D01*
X84809523Y-146333333D01*
X84714285Y-146285714D01*
X84523809Y-146285714D01*
X84428571Y-146333333D01*
X84380952Y-146428571D01*
X84380952Y-146523809D01*
X84857142Y-146619047D01*
X83571428Y-146904761D02*
X83666666Y-146952380D01*
X83857142Y-146952380D01*
X83952380Y-146904761D01*
X84000000Y-146809523D01*
X84000000Y-146428571D01*
X83952380Y-146333333D01*
X83857142Y-146285714D01*
X83666666Y-146285714D01*
X83571428Y-146333333D01*
X83523809Y-146428571D01*
X83523809Y-146523809D01*
X84000000Y-146619047D01*
X83095238Y-146285714D02*
X83095238Y-146952380D01*
X83095238Y-146380952D02*
X83047619Y-146333333D01*
X82952380Y-146285714D01*
X82809523Y-146285714D01*
X82714285Y-146333333D01*
X82666666Y-146428571D01*
X82666666Y-146952380D01*
X82238095Y-146904761D02*
X82142857Y-146952380D01*
X81952380Y-146952380D01*
X81857142Y-146904761D01*
X81809523Y-146809523D01*
X81809523Y-146761904D01*
X81857142Y-146666666D01*
X81952380Y-146619047D01*
X82095238Y-146619047D01*
X82190476Y-146571428D01*
X82238095Y-146476190D01*
X82238095Y-146428571D01*
X82190476Y-146333333D01*
X82095238Y-146285714D01*
X81952380Y-146285714D01*
X81857142Y-146333333D01*
X81476190Y-146285714D02*
X81238095Y-146952380D01*
X81000000Y-146285714D02*
X81238095Y-146952380D01*
X81333333Y-147190476D01*
X81380952Y-147238095D01*
X81476190Y-147285714D01*
X80000000Y-145952380D02*
X79428571Y-145952380D01*
X79714285Y-146952380D02*
X79714285Y-145952380D01*
X78523809Y-146952380D02*
X78857142Y-146476190D01*
X79095238Y-146952380D02*
X79095238Y-145952380D01*
X78714285Y-145952380D01*
X78619047Y-146000000D01*
X78571428Y-146047619D01*
X78523809Y-146142857D01*
X78523809Y-146285714D01*
X78571428Y-146380952D01*
X78619047Y-146428571D01*
X78714285Y-146476190D01*
X79095238Y-146476190D01*
X78190476Y-146952380D02*
X77666666Y-146285714D01*
X78190476Y-146285714D02*
X77666666Y-146952380D01*
X76666666Y-145952380D02*
X76333333Y-146952380D01*
X76000000Y-145952380D01*
X75285714Y-146904761D02*
X75380952Y-146952380D01*
X75571428Y-146952380D01*
X75666666Y-146904761D01*
X75714285Y-146809523D01*
X75714285Y-146428571D01*
X75666666Y-146333333D01*
X75571428Y-146285714D01*
X75380952Y-146285714D01*
X75285714Y-146333333D01*
X75238095Y-146428571D01*
X75238095Y-146523809D01*
X75714285Y-146619047D01*
X74809523Y-146952380D02*
X74809523Y-146285714D01*
X74809523Y-146476190D02*
X74761904Y-146380952D01*
X74714285Y-146333333D01*
X74619047Y-146285714D01*
X74523809Y-146285714D01*
X74238095Y-146904761D02*
X74142857Y-146952380D01*
X73952380Y-146952380D01*
X73857142Y-146904761D01*
X73809523Y-146809523D01*
X73809523Y-146761904D01*
X73857142Y-146666666D01*
X73952380Y-146619047D01*
X74095238Y-146619047D01*
X74190476Y-146571428D01*
X74238095Y-146476190D01*
X74238095Y-146428571D01*
X74190476Y-146333333D01*
X74095238Y-146285714D01*
X73952380Y-146285714D01*
X73857142Y-146333333D01*
X73380952Y-146952380D02*
X73380952Y-146285714D01*
X73380952Y-145952380D02*
X73428571Y-146000000D01*
X73380952Y-146047619D01*
X73333333Y-146000000D01*
X73380952Y-145952380D01*
X73380952Y-146047619D01*
X72761904Y-146952380D02*
X72857142Y-146904761D01*
X72904761Y-146857142D01*
X72952380Y-146761904D01*
X72952380Y-146476190D01*
X72904761Y-146380952D01*
X72857142Y-146333333D01*
X72761904Y-146285714D01*
X72619047Y-146285714D01*
X72523809Y-146333333D01*
X72476190Y-146380952D01*
X72428571Y-146476190D01*
X72428571Y-146761904D01*
X72476190Y-146857142D01*
X72523809Y-146904761D01*
X72619047Y-146952380D01*
X72761904Y-146952380D01*
X72000000Y-146285714D02*
X72000000Y-146952380D01*
X72000000Y-146380952D02*
X71952380Y-146333333D01*
X71857142Y-146285714D01*
X71714285Y-146285714D01*
X71619047Y-146333333D01*
X71571428Y-146428571D01*
X71571428Y-146952380D01*
X69809523Y-146952380D02*
X70380952Y-146952380D01*
X70095238Y-146952380D02*
X70095238Y-145952380D01*
X70190476Y-146095238D01*
X70285714Y-146190476D01*
X70380952Y-146238095D01*
X69380952Y-146857142D02*
X69333333Y-146904761D01*
X69380952Y-146952380D01*
X69428571Y-146904761D01*
X69380952Y-146857142D01*
X69380952Y-146952380D01*
X68714285Y-145952380D02*
X68619047Y-145952380D01*
X68523809Y-146000000D01*
X68476190Y-146047619D01*
X68428571Y-146142857D01*
X68380952Y-146333333D01*
X68380952Y-146571428D01*
X68428571Y-146761904D01*
X68476190Y-146857142D01*
X68523809Y-146904761D01*
X68619047Y-146952380D01*
X68714285Y-146952380D01*
X68809523Y-146904761D01*
X68857142Y-146857142D01*
X68904761Y-146761904D01*
X68952380Y-146571428D01*
X68952380Y-146333333D01*
X68904761Y-146142857D01*
X68857142Y-146047619D01*
X68809523Y-146000000D01*
X68714285Y-145952380D01*
X85000000Y-144857142D02*
X85047619Y-144904761D01*
X85190476Y-144952380D01*
X85285714Y-144952380D01*
X85428571Y-144904761D01*
X85523809Y-144809523D01*
X85571428Y-144714285D01*
X85619047Y-144523809D01*
X85619047Y-144380952D01*
X85571428Y-144190476D01*
X85523809Y-144095238D01*
X85428571Y-144000000D01*
X85285714Y-143952380D01*
X85190476Y-143952380D01*
X85047619Y-144000000D01*
X85000000Y-144047619D01*
X84428571Y-144952380D02*
X84523809Y-144904761D01*
X84571428Y-144857142D01*
X84619047Y-144761904D01*
X84619047Y-144476190D01*
X84571428Y-144380952D01*
X84523809Y-144333333D01*
X84428571Y-144285714D01*
X84285714Y-144285714D01*
X84190476Y-144333333D01*
X84142857Y-144380952D01*
X84095238Y-144476190D01*
X84095238Y-144761904D01*
X84142857Y-144857142D01*
X84190476Y-144904761D01*
X84285714Y-144952380D01*
X84428571Y-144952380D01*
X83666666Y-144285714D02*
X83666666Y-145285714D01*
X83666666Y-144333333D02*
X83571428Y-144285714D01*
X83380952Y-144285714D01*
X83285714Y-144333333D01*
X83238095Y-144380952D01*
X83190476Y-144476190D01*
X83190476Y-144761904D01*
X83238095Y-144857142D01*
X83285714Y-144904761D01*
X83380952Y-144952380D01*
X83571428Y-144952380D01*
X83666666Y-144904761D01*
X82857142Y-144285714D02*
X82619047Y-144952380D01*
X82380952Y-144285714D02*
X82619047Y-144952380D01*
X82714285Y-145190476D01*
X82761904Y-145238095D01*
X82857142Y-145285714D01*
X82000000Y-144952380D02*
X82000000Y-144285714D01*
X82000000Y-144476190D02*
X81952380Y-144380952D01*
X81904761Y-144333333D01*
X81809523Y-144285714D01*
X81714285Y-144285714D01*
X81380952Y-144952380D02*
X81380952Y-144285714D01*
X81380952Y-143952380D02*
X81428571Y-144000000D01*
X81380952Y-144047619D01*
X81333333Y-144000000D01*
X81380952Y-143952380D01*
X81380952Y-144047619D01*
X80476190Y-144285714D02*
X80476190Y-145095238D01*
X80523809Y-145190476D01*
X80571428Y-145238095D01*
X80666666Y-145285714D01*
X80809523Y-145285714D01*
X80904761Y-145238095D01*
X80476190Y-144904761D02*
X80571428Y-144952380D01*
X80761904Y-144952380D01*
X80857142Y-144904761D01*
X80904761Y-144857142D01*
X80952380Y-144761904D01*
X80952380Y-144476190D01*
X80904761Y-144380952D01*
X80857142Y-144333333D01*
X80761904Y-144285714D01*
X80571428Y-144285714D01*
X80476190Y-144333333D01*
X80000000Y-144952380D02*
X80000000Y-143952380D01*
X79571428Y-144952380D02*
X79571428Y-144428571D01*
X79619047Y-144333333D01*
X79714285Y-144285714D01*
X79857142Y-144285714D01*
X79952380Y-144333333D01*
X80000000Y-144380952D01*
X79238095Y-144285714D02*
X78857142Y-144285714D01*
X79095238Y-143952380D02*
X79095238Y-144809523D01*
X79047619Y-144904761D01*
X78952380Y-144952380D01*
X78857142Y-144952380D01*
X77476190Y-145333333D02*
X77523809Y-145285714D01*
X77619047Y-145142857D01*
X77666666Y-145047619D01*
X77714285Y-144904761D01*
X77761904Y-144666666D01*
X77761904Y-144476190D01*
X77714285Y-144238095D01*
X77666666Y-144095238D01*
X77619047Y-144000000D01*
X77523809Y-143857142D01*
X77476190Y-143809523D01*
X76523809Y-144857142D02*
X76571428Y-144904761D01*
X76714285Y-144952380D01*
X76809523Y-144952380D01*
X76952380Y-144904761D01*
X77047619Y-144809523D01*
X77095238Y-144714285D01*
X77142857Y-144523809D01*
X77142857Y-144380952D01*
X77095238Y-144190476D01*
X77047619Y-144095238D01*
X76952380Y-144000000D01*
X76809523Y-143952380D01*
X76714285Y-143952380D01*
X76571428Y-144000000D01*
X76523809Y-144047619D01*
X76190476Y-145333333D02*
X76142857Y-145285714D01*
X76047619Y-145142857D01*
X76000000Y-145047619D01*
X75952380Y-144904761D01*
X75904761Y-144666666D01*
X75904761Y-144476190D01*
X75952380Y-144238095D01*
X76000000Y-144095238D01*
X76047619Y-144000000D01*
X76142857Y-143857142D01*
X76190476Y-143809523D01*
X74666666Y-144952380D02*
X74666666Y-143952380D01*
X74095238Y-144952380D02*
X74523809Y-144380952D01*
X74095238Y-143952380D02*
X74666666Y-144523809D01*
X73285714Y-144904761D02*
X73380952Y-144952380D01*
X73571428Y-144952380D01*
X73666666Y-144904761D01*
X73714285Y-144809523D01*
X73714285Y-144428571D01*
X73666666Y-144333333D01*
X73571428Y-144285714D01*
X73380952Y-144285714D01*
X73285714Y-144333333D01*
X73238095Y-144428571D01*
X73238095Y-144523809D01*
X73714285Y-144619047D01*
X72904761Y-144285714D02*
X72666666Y-144952380D01*
X72428571Y-144285714D01*
X72047619Y-144952380D02*
X72047619Y-144285714D01*
X72047619Y-143952380D02*
X72095238Y-144000000D01*
X72047619Y-144047619D01*
X72000000Y-144000000D01*
X72047619Y-143952380D01*
X72047619Y-144047619D01*
X71571428Y-144285714D02*
X71571428Y-144952380D01*
X71571428Y-144380952D02*
X71523809Y-144333333D01*
X71428571Y-144285714D01*
X71285714Y-144285714D01*
X71190476Y-144333333D01*
X71142857Y-144428571D01*
X71142857Y-144952380D01*
X70000000Y-143952380D02*
X69761904Y-144952380D01*
X69571428Y-144238095D01*
X69380952Y-144952380D01*
X69142857Y-143952380D01*
X68761904Y-144952380D02*
X68761904Y-143952380D01*
X68333333Y-144952380D02*
X68333333Y-144428571D01*
X68380952Y-144333333D01*
X68476190Y-144285714D01*
X68619047Y-144285714D01*
X68714285Y-144333333D01*
X68761904Y-144380952D01*
X67476190Y-144904761D02*
X67571428Y-144952380D01*
X67761904Y-144952380D01*
X67857142Y-144904761D01*
X67904761Y-144809523D01*
X67904761Y-144428571D01*
X67857142Y-144333333D01*
X67761904Y-144285714D01*
X67571428Y-144285714D01*
X67476190Y-144333333D01*
X67428571Y-144428571D01*
X67428571Y-144523809D01*
X67904761Y-144619047D01*
X66571428Y-144952380D02*
X66571428Y-144428571D01*
X66619047Y-144333333D01*
X66714285Y-144285714D01*
X66904761Y-144285714D01*
X67000000Y-144333333D01*
X66571428Y-144904761D02*
X66666666Y-144952380D01*
X66904761Y-144952380D01*
X67000000Y-144904761D01*
X67047619Y-144809523D01*
X67047619Y-144714285D01*
X67000000Y-144619047D01*
X66904761Y-144571428D01*
X66666666Y-144571428D01*
X66571428Y-144523809D01*
X66238095Y-144285714D02*
X65857142Y-144285714D01*
X66095238Y-143952380D02*
X66095238Y-144809523D01*
X66047619Y-144904761D01*
X65952380Y-144952380D01*
X65857142Y-144952380D01*
X65380952Y-144952380D02*
X65476190Y-144904761D01*
X65523809Y-144809523D01*
X65523809Y-143952380D01*
X64619047Y-144904761D02*
X64714285Y-144952380D01*
X64904761Y-144952380D01*
X65000000Y-144904761D01*
X65047619Y-144809523D01*
X65047619Y-144428571D01*
X65000000Y-144333333D01*
X64904761Y-144285714D01*
X64714285Y-144285714D01*
X64619047Y-144333333D01*
X64571428Y-144428571D01*
X64571428Y-144523809D01*
X65047619Y-144619047D01*
X64238095Y-144285714D02*
X64000000Y-144952380D01*
X63761904Y-144285714D02*
X64000000Y-144952380D01*
X64095238Y-145190476D01*
X64142857Y-145238095D01*
X64238095Y-145285714D01*
X62619047Y-144571428D02*
X61857142Y-144571428D01*
X60619047Y-144952380D02*
X60619047Y-143952380D01*
X60285714Y-144666666D01*
X59952380Y-143952380D01*
X59952380Y-144952380D01*
X59285714Y-143952380D02*
X59190476Y-143952380D01*
X59095238Y-144000000D01*
X59047619Y-144047619D01*
X59000000Y-144142857D01*
X58952380Y-144333333D01*
X58952380Y-144571428D01*
X59000000Y-144761904D01*
X59047619Y-144857142D01*
X59095238Y-144904761D01*
X59190476Y-144952380D01*
X59285714Y-144952380D01*
X59380952Y-144904761D01*
X59428571Y-144857142D01*
X59476190Y-144761904D01*
X59523809Y-144571428D01*
X59523809Y-144333333D01*
X59476190Y-144142857D01*
X59428571Y-144047619D01*
X59380952Y-144000000D01*
X59285714Y-143952380D01*
X58523809Y-144952380D02*
X58523809Y-143952380D01*
X57952380Y-144952380D02*
X58380952Y-144380952D01*
X57952380Y-143952380D02*
X58523809Y-144523809D01*
X57523809Y-144952380D02*
X57523809Y-143952380D01*
X57523809Y-144428571D02*
X56952380Y-144428571D01*
X56952380Y-144952380D02*
X56952380Y-143952380D01*
X56571428Y-143952380D02*
X55904761Y-143952380D01*
X56571428Y-144952380D01*
X55904761Y-144952380D01*
X54809523Y-144047619D02*
X54761904Y-144000000D01*
X54666666Y-143952380D01*
X54428571Y-143952380D01*
X54333333Y-144000000D01*
X54285714Y-144047619D01*
X54238095Y-144142857D01*
X54238095Y-144238095D01*
X54285714Y-144380952D01*
X54857142Y-144952380D01*
X54238095Y-144952380D01*
X53619047Y-143952380D02*
X53523809Y-143952380D01*
X53428571Y-144000000D01*
X53380952Y-144047619D01*
X53333333Y-144142857D01*
X53285714Y-144333333D01*
X53285714Y-144571428D01*
X53333333Y-144761904D01*
X53380952Y-144857142D01*
X53428571Y-144904761D01*
X53523809Y-144952380D01*
X53619047Y-144952380D01*
X53714285Y-144904761D01*
X53761904Y-144857142D01*
X53809523Y-144761904D01*
X53857142Y-144571428D01*
X53857142Y-144333333D01*
X53809523Y-144142857D01*
X53761904Y-144047619D01*
X53714285Y-144000000D01*
X53619047Y-143952380D01*
X52904761Y-144047619D02*
X52857142Y-144000000D01*
X52761904Y-143952380D01*
X52523809Y-143952380D01*
X52428571Y-144000000D01*
X52380952Y-144047619D01*
X52333333Y-144142857D01*
X52333333Y-144238095D01*
X52380952Y-144380952D01*
X52952380Y-144952380D01*
X52333333Y-144952380D01*
X51714285Y-143952380D02*
X51619047Y-143952380D01*
X51523809Y-144000000D01*
X51476190Y-144047619D01*
X51428571Y-144142857D01*
X51380952Y-144333333D01*
X51380952Y-144571428D01*
X51428571Y-144761904D01*
X51476190Y-144857142D01*
X51523809Y-144904761D01*
X51619047Y-144952380D01*
X51714285Y-144952380D01*
X51809523Y-144904761D01*
X51857142Y-144857142D01*
X51904761Y-144761904D01*
X51952380Y-144571428D01*
X51952380Y-144333333D01*
X51904761Y-144142857D01*
X51857142Y-144047619D01*
X51809523Y-144000000D01*
X51714285Y-143952380D01*
D11*
X138236000Y-141037000D02*
X138236000Y-146237000D01*
X115316000Y-141037000D02*
X138236000Y-141037000D01*
X112716000Y-146237000D02*
X138236000Y-146237000D01*
X115316000Y-141037000D02*
X115316000Y-143637000D01*
X115316000Y-143637000D02*
X112716000Y-143637000D01*
X112716000Y-143637000D02*
X112716000Y-146237000D01*
X114046000Y-141037000D02*
X112716000Y-141037000D01*
X112716000Y-141037000D02*
X112716000Y-142367000D01*
X55731100Y-116163400D02*
X55731100Y-113503400D01*
X78651100Y-116163400D02*
X55731100Y-116163400D01*
X78651100Y-113503400D02*
X55731100Y-113503400D01*
X78651100Y-116163400D02*
X78651100Y-113503400D01*
X79921100Y-116163400D02*
X81251100Y-116163400D01*
X81251100Y-116163400D02*
X81251100Y-114833400D01*
D10*
X111083333Y-141952380D02*
X111083333Y-142666666D01*
X111130952Y-142809523D01*
X111226190Y-142904761D01*
X111369047Y-142952380D01*
X111464285Y-142952380D01*
X110083333Y-142952380D02*
X110654761Y-142952380D01*
X110369047Y-142952380D02*
X110369047Y-141952380D01*
X110464285Y-142095238D01*
X110559523Y-142190476D01*
X110654761Y-142238095D01*
X80333333Y-116952380D02*
X80333333Y-117666666D01*
X80380952Y-117809523D01*
X80476190Y-117904761D01*
X80619047Y-117952380D01*
X80714285Y-117952380D01*
X79952380Y-116952380D02*
X79333333Y-116952380D01*
X79666666Y-117333333D01*
X79523809Y-117333333D01*
X79428571Y-117380952D01*
X79380952Y-117428571D01*
X79333333Y-117523809D01*
X79333333Y-117761904D01*
X79380952Y-117857142D01*
X79428571Y-117904761D01*
X79523809Y-117952380D01*
X79809523Y-117952380D01*
X79904761Y-117904761D01*
X79952380Y-117857142D01*
M02*
