G04 #@! TF.GenerationSoftware,KiCad,Pcbnew,(5.1.4-0)*
G04 #@! TF.CreationDate,2019-11-11T14:35:41+00:00*
G04 #@! TF.ProjectId,2M_DRA818V_Transceiver_tft_encoder,324d5f44-5241-4383-9138-565f5472616e,rev?*
G04 #@! TF.SameCoordinates,Original*
G04 #@! TF.FileFunction,Legend,Top*
G04 #@! TF.FilePolarity,Positive*
%FSLAX46Y46*%
G04 Gerber Fmt 4.6, Leading zero omitted, Abs format (unit mm)*
G04 Created by KiCad (PCBNEW (5.1.4-0)) date 2019-11-11 14:35:41*
%MOMM*%
%LPD*%
G04 APERTURE LIST*
%ADD10C,0.150000*%
%ADD11C,0.120000*%
%ADD12C,0.100000*%
G04 APERTURE END LIST*
D10*
X52118100Y-145111742D02*
X52070480Y-145159361D01*
X51927623Y-145206980D01*
X51832385Y-145206980D01*
X51689528Y-145159361D01*
X51594290Y-145064123D01*
X51546671Y-144968885D01*
X51499052Y-144778409D01*
X51499052Y-144635552D01*
X51546671Y-144445076D01*
X51594290Y-144349838D01*
X51689528Y-144254600D01*
X51832385Y-144206980D01*
X51927623Y-144206980D01*
X52070480Y-144254600D01*
X52118100Y-144302219D01*
X52689528Y-145206980D02*
X52594290Y-145159361D01*
X52546671Y-145111742D01*
X52499052Y-145016504D01*
X52499052Y-144730790D01*
X52546671Y-144635552D01*
X52594290Y-144587933D01*
X52689528Y-144540314D01*
X52832385Y-144540314D01*
X52927623Y-144587933D01*
X52975242Y-144635552D01*
X53022861Y-144730790D01*
X53022861Y-145016504D01*
X52975242Y-145111742D01*
X52927623Y-145159361D01*
X52832385Y-145206980D01*
X52689528Y-145206980D01*
X53451433Y-144540314D02*
X53451433Y-145540314D01*
X53451433Y-144587933D02*
X53546671Y-144540314D01*
X53737147Y-144540314D01*
X53832385Y-144587933D01*
X53880004Y-144635552D01*
X53927623Y-144730790D01*
X53927623Y-145016504D01*
X53880004Y-145111742D01*
X53832385Y-145159361D01*
X53737147Y-145206980D01*
X53546671Y-145206980D01*
X53451433Y-145159361D01*
X54260957Y-144540314D02*
X54499052Y-145206980D01*
X54737147Y-144540314D02*
X54499052Y-145206980D01*
X54403814Y-145445076D01*
X54356195Y-145492695D01*
X54260957Y-145540314D01*
X55118100Y-145206980D02*
X55118100Y-144540314D01*
X55118100Y-144730790D02*
X55165719Y-144635552D01*
X55213338Y-144587933D01*
X55308576Y-144540314D01*
X55403814Y-144540314D01*
X55737147Y-145206980D02*
X55737147Y-144540314D01*
X55737147Y-144206980D02*
X55689528Y-144254600D01*
X55737147Y-144302219D01*
X55784766Y-144254600D01*
X55737147Y-144206980D01*
X55737147Y-144302219D01*
X56641909Y-144540314D02*
X56641909Y-145349838D01*
X56594290Y-145445076D01*
X56546671Y-145492695D01*
X56451433Y-145540314D01*
X56308576Y-145540314D01*
X56213338Y-145492695D01*
X56641909Y-145159361D02*
X56546671Y-145206980D01*
X56356195Y-145206980D01*
X56260957Y-145159361D01*
X56213338Y-145111742D01*
X56165719Y-145016504D01*
X56165719Y-144730790D01*
X56213338Y-144635552D01*
X56260957Y-144587933D01*
X56356195Y-144540314D01*
X56546671Y-144540314D01*
X56641909Y-144587933D01*
X57118100Y-145206980D02*
X57118100Y-144206980D01*
X57546671Y-145206980D02*
X57546671Y-144683171D01*
X57499052Y-144587933D01*
X57403814Y-144540314D01*
X57260957Y-144540314D01*
X57165719Y-144587933D01*
X57118100Y-144635552D01*
X57880004Y-144540314D02*
X58260957Y-144540314D01*
X58022861Y-144206980D02*
X58022861Y-145064123D01*
X58070480Y-145159361D01*
X58165719Y-145206980D01*
X58260957Y-145206980D01*
X59641909Y-145587933D02*
X59594290Y-145540314D01*
X59499052Y-145397457D01*
X59451433Y-145302219D01*
X59403814Y-145159361D01*
X59356195Y-144921266D01*
X59356195Y-144730790D01*
X59403814Y-144492695D01*
X59451433Y-144349838D01*
X59499052Y-144254600D01*
X59594290Y-144111742D01*
X59641909Y-144064123D01*
X60594290Y-145111742D02*
X60546671Y-145159361D01*
X60403814Y-145206980D01*
X60308576Y-145206980D01*
X60165719Y-145159361D01*
X60070480Y-145064123D01*
X60022861Y-144968885D01*
X59975242Y-144778409D01*
X59975242Y-144635552D01*
X60022861Y-144445076D01*
X60070480Y-144349838D01*
X60165719Y-144254600D01*
X60308576Y-144206980D01*
X60403814Y-144206980D01*
X60546671Y-144254600D01*
X60594290Y-144302219D01*
X60927623Y-145587933D02*
X60975242Y-145540314D01*
X61070480Y-145397457D01*
X61118100Y-145302219D01*
X61165719Y-145159361D01*
X61213338Y-144921266D01*
X61213338Y-144730790D01*
X61165719Y-144492695D01*
X61118100Y-144349838D01*
X61070480Y-144254600D01*
X60975242Y-144111742D01*
X60927623Y-144064123D01*
X62451433Y-145206980D02*
X62451433Y-144206980D01*
X63022861Y-145206980D02*
X62594290Y-144635552D01*
X63022861Y-144206980D02*
X62451433Y-144778409D01*
X63832385Y-145159361D02*
X63737147Y-145206980D01*
X63546671Y-145206980D01*
X63451433Y-145159361D01*
X63403814Y-145064123D01*
X63403814Y-144683171D01*
X63451433Y-144587933D01*
X63546671Y-144540314D01*
X63737147Y-144540314D01*
X63832385Y-144587933D01*
X63880004Y-144683171D01*
X63880004Y-144778409D01*
X63403814Y-144873647D01*
X64213338Y-144540314D02*
X64451433Y-145206980D01*
X64689528Y-144540314D01*
X65070480Y-145206980D02*
X65070480Y-144540314D01*
X65070480Y-144206980D02*
X65022861Y-144254600D01*
X65070480Y-144302219D01*
X65118100Y-144254600D01*
X65070480Y-144206980D01*
X65070480Y-144302219D01*
X65546671Y-144540314D02*
X65546671Y-145206980D01*
X65546671Y-144635552D02*
X65594290Y-144587933D01*
X65689528Y-144540314D01*
X65832385Y-144540314D01*
X65927623Y-144587933D01*
X65975242Y-144683171D01*
X65975242Y-145206980D01*
X67118100Y-144206980D02*
X67356195Y-145206980D01*
X67546671Y-144492695D01*
X67737147Y-145206980D01*
X67975242Y-144206980D01*
X68356195Y-145206980D02*
X68356195Y-144206980D01*
X68784766Y-145206980D02*
X68784766Y-144683171D01*
X68737147Y-144587933D01*
X68641909Y-144540314D01*
X68499052Y-144540314D01*
X68403814Y-144587933D01*
X68356195Y-144635552D01*
X69641909Y-145159361D02*
X69546671Y-145206980D01*
X69356195Y-145206980D01*
X69260957Y-145159361D01*
X69213338Y-145064123D01*
X69213338Y-144683171D01*
X69260957Y-144587933D01*
X69356195Y-144540314D01*
X69546671Y-144540314D01*
X69641909Y-144587933D01*
X69689528Y-144683171D01*
X69689528Y-144778409D01*
X69213338Y-144873647D01*
X70546671Y-145206980D02*
X70546671Y-144683171D01*
X70499052Y-144587933D01*
X70403814Y-144540314D01*
X70213338Y-144540314D01*
X70118100Y-144587933D01*
X70546671Y-145159361D02*
X70451433Y-145206980D01*
X70213338Y-145206980D01*
X70118100Y-145159361D01*
X70070480Y-145064123D01*
X70070480Y-144968885D01*
X70118100Y-144873647D01*
X70213338Y-144826028D01*
X70451433Y-144826028D01*
X70546671Y-144778409D01*
X70880004Y-144540314D02*
X71260957Y-144540314D01*
X71022861Y-144206980D02*
X71022861Y-145064123D01*
X71070480Y-145159361D01*
X71165719Y-145206980D01*
X71260957Y-145206980D01*
X71737147Y-145206980D02*
X71641909Y-145159361D01*
X71594290Y-145064123D01*
X71594290Y-144206980D01*
X72499052Y-145159361D02*
X72403814Y-145206980D01*
X72213338Y-145206980D01*
X72118100Y-145159361D01*
X72070480Y-145064123D01*
X72070480Y-144683171D01*
X72118100Y-144587933D01*
X72213338Y-144540314D01*
X72403814Y-144540314D01*
X72499052Y-144587933D01*
X72546671Y-144683171D01*
X72546671Y-144778409D01*
X72070480Y-144873647D01*
X72880004Y-144540314D02*
X73118100Y-145206980D01*
X73356195Y-144540314D02*
X73118100Y-145206980D01*
X73022861Y-145445076D01*
X72975242Y-145492695D01*
X72880004Y-145540314D01*
X74499052Y-144826028D02*
X75260957Y-144826028D01*
X76499052Y-145206980D02*
X76499052Y-144206980D01*
X76832385Y-144921266D01*
X77165719Y-144206980D01*
X77165719Y-145206980D01*
X77832385Y-144206980D02*
X77927623Y-144206980D01*
X78022861Y-144254600D01*
X78070480Y-144302219D01*
X78118100Y-144397457D01*
X78165719Y-144587933D01*
X78165719Y-144826028D01*
X78118100Y-145016504D01*
X78070480Y-145111742D01*
X78022861Y-145159361D01*
X77927623Y-145206980D01*
X77832385Y-145206980D01*
X77737147Y-145159361D01*
X77689528Y-145111742D01*
X77641909Y-145016504D01*
X77594290Y-144826028D01*
X77594290Y-144587933D01*
X77641909Y-144397457D01*
X77689528Y-144302219D01*
X77737147Y-144254600D01*
X77832385Y-144206980D01*
X78594290Y-145206980D02*
X78594290Y-144206980D01*
X79165719Y-145206980D02*
X78737147Y-144635552D01*
X79165719Y-144206980D02*
X78594290Y-144778409D01*
X79594290Y-145206980D02*
X79594290Y-144206980D01*
X79594290Y-144683171D02*
X80165719Y-144683171D01*
X80165719Y-145206980D02*
X80165719Y-144206980D01*
X80546671Y-144206980D02*
X81213338Y-144206980D01*
X80546671Y-145206980D01*
X81213338Y-145206980D01*
X82308576Y-144302219D02*
X82356195Y-144254600D01*
X82451433Y-144206980D01*
X82689528Y-144206980D01*
X82784766Y-144254600D01*
X82832385Y-144302219D01*
X82880004Y-144397457D01*
X82880004Y-144492695D01*
X82832385Y-144635552D01*
X82260957Y-145206980D01*
X82880004Y-145206980D01*
X83499052Y-144206980D02*
X83594290Y-144206980D01*
X83689528Y-144254600D01*
X83737147Y-144302219D01*
X83784766Y-144397457D01*
X83832385Y-144587933D01*
X83832385Y-144826028D01*
X83784766Y-145016504D01*
X83737147Y-145111742D01*
X83689528Y-145159361D01*
X83594290Y-145206980D01*
X83499052Y-145206980D01*
X83403814Y-145159361D01*
X83356195Y-145111742D01*
X83308576Y-145016504D01*
X83260957Y-144826028D01*
X83260957Y-144587933D01*
X83308576Y-144397457D01*
X83356195Y-144302219D01*
X83403814Y-144254600D01*
X83499052Y-144206980D01*
X84213338Y-144302219D02*
X84260957Y-144254600D01*
X84356195Y-144206980D01*
X84594290Y-144206980D01*
X84689528Y-144254600D01*
X84737147Y-144302219D01*
X84784766Y-144397457D01*
X84784766Y-144492695D01*
X84737147Y-144635552D01*
X84165719Y-145206980D01*
X84784766Y-145206980D01*
X85403814Y-144206980D02*
X85499052Y-144206980D01*
X85594290Y-144254600D01*
X85641909Y-144302219D01*
X85689528Y-144397457D01*
X85737147Y-144587933D01*
X85737147Y-144826028D01*
X85689528Y-145016504D01*
X85641909Y-145111742D01*
X85594290Y-145159361D01*
X85499052Y-145206980D01*
X85403814Y-145206980D01*
X85308576Y-145159361D01*
X85260957Y-145111742D01*
X85213338Y-145016504D01*
X85165719Y-144826028D01*
X85165719Y-144587933D01*
X85213338Y-144397457D01*
X85260957Y-144302219D01*
X85308576Y-144254600D01*
X85403814Y-144206980D01*
X51432914Y-146099280D02*
X52004342Y-146099280D01*
X51718628Y-147099280D02*
X51718628Y-146099280D01*
X52718628Y-147051661D02*
X52623390Y-147099280D01*
X52432914Y-147099280D01*
X52337676Y-147051661D01*
X52290057Y-146956423D01*
X52290057Y-146575471D01*
X52337676Y-146480233D01*
X52432914Y-146432614D01*
X52623390Y-146432614D01*
X52718628Y-146480233D01*
X52766247Y-146575471D01*
X52766247Y-146670709D01*
X52290057Y-146765947D01*
X53575771Y-147051661D02*
X53480533Y-147099280D01*
X53290057Y-147099280D01*
X53194819Y-147051661D01*
X53147200Y-146956423D01*
X53147200Y-146575471D01*
X53194819Y-146480233D01*
X53290057Y-146432614D01*
X53480533Y-146432614D01*
X53575771Y-146480233D01*
X53623390Y-146575471D01*
X53623390Y-146670709D01*
X53147200Y-146765947D01*
X54051961Y-146432614D02*
X54051961Y-147099280D01*
X54051961Y-146527852D02*
X54099580Y-146480233D01*
X54194819Y-146432614D01*
X54337676Y-146432614D01*
X54432914Y-146480233D01*
X54480533Y-146575471D01*
X54480533Y-147099280D01*
X54909104Y-147051661D02*
X55004342Y-147099280D01*
X55194819Y-147099280D01*
X55290057Y-147051661D01*
X55337676Y-146956423D01*
X55337676Y-146908804D01*
X55290057Y-146813566D01*
X55194819Y-146765947D01*
X55051961Y-146765947D01*
X54956723Y-146718328D01*
X54909104Y-146623090D01*
X54909104Y-146575471D01*
X54956723Y-146480233D01*
X55051961Y-146432614D01*
X55194819Y-146432614D01*
X55290057Y-146480233D01*
X55671009Y-146432614D02*
X55909104Y-147099280D01*
X56147200Y-146432614D02*
X55909104Y-147099280D01*
X55813866Y-147337376D01*
X55766247Y-147384995D01*
X55671009Y-147432614D01*
X57147200Y-146099280D02*
X57718628Y-146099280D01*
X57432914Y-147099280D02*
X57432914Y-146099280D01*
X58623390Y-147099280D02*
X58290057Y-146623090D01*
X58051961Y-147099280D02*
X58051961Y-146099280D01*
X58432914Y-146099280D01*
X58528152Y-146146900D01*
X58575771Y-146194519D01*
X58623390Y-146289757D01*
X58623390Y-146432614D01*
X58575771Y-146527852D01*
X58528152Y-146575471D01*
X58432914Y-146623090D01*
X58051961Y-146623090D01*
X58956723Y-147099280D02*
X59480533Y-146432614D01*
X58956723Y-146432614D02*
X59480533Y-147099280D01*
X60480533Y-146099280D02*
X60813866Y-147099280D01*
X61147200Y-146099280D01*
X61861485Y-147051661D02*
X61766247Y-147099280D01*
X61575771Y-147099280D01*
X61480533Y-147051661D01*
X61432914Y-146956423D01*
X61432914Y-146575471D01*
X61480533Y-146480233D01*
X61575771Y-146432614D01*
X61766247Y-146432614D01*
X61861485Y-146480233D01*
X61909104Y-146575471D01*
X61909104Y-146670709D01*
X61432914Y-146765947D01*
X62337676Y-147099280D02*
X62337676Y-146432614D01*
X62337676Y-146623090D02*
X62385295Y-146527852D01*
X62432914Y-146480233D01*
X62528152Y-146432614D01*
X62623390Y-146432614D01*
X62909104Y-147051661D02*
X63004342Y-147099280D01*
X63194819Y-147099280D01*
X63290057Y-147051661D01*
X63337676Y-146956423D01*
X63337676Y-146908804D01*
X63290057Y-146813566D01*
X63194819Y-146765947D01*
X63051961Y-146765947D01*
X62956723Y-146718328D01*
X62909104Y-146623090D01*
X62909104Y-146575471D01*
X62956723Y-146480233D01*
X63051961Y-146432614D01*
X63194819Y-146432614D01*
X63290057Y-146480233D01*
X63766247Y-147099280D02*
X63766247Y-146432614D01*
X63766247Y-146099280D02*
X63718628Y-146146900D01*
X63766247Y-146194519D01*
X63813866Y-146146900D01*
X63766247Y-146099280D01*
X63766247Y-146194519D01*
X64385295Y-147099280D02*
X64290057Y-147051661D01*
X64242438Y-147004042D01*
X64194819Y-146908804D01*
X64194819Y-146623090D01*
X64242438Y-146527852D01*
X64290057Y-146480233D01*
X64385295Y-146432614D01*
X64528152Y-146432614D01*
X64623390Y-146480233D01*
X64671009Y-146527852D01*
X64718628Y-146623090D01*
X64718628Y-146908804D01*
X64671009Y-147004042D01*
X64623390Y-147051661D01*
X64528152Y-147099280D01*
X64385295Y-147099280D01*
X65147200Y-146432614D02*
X65147200Y-147099280D01*
X65147200Y-146527852D02*
X65194819Y-146480233D01*
X65290057Y-146432614D01*
X65432914Y-146432614D01*
X65528152Y-146480233D01*
X65575771Y-146575471D01*
X65575771Y-147099280D01*
X67337676Y-147099280D02*
X66766247Y-147099280D01*
X67051961Y-147099280D02*
X67051961Y-146099280D01*
X66956723Y-146242138D01*
X66861485Y-146337376D01*
X66766247Y-146384995D01*
X67766247Y-147004042D02*
X67813866Y-147051661D01*
X67766247Y-147099280D01*
X67718628Y-147051661D01*
X67766247Y-147004042D01*
X67766247Y-147099280D01*
X68432914Y-146099280D02*
X68528152Y-146099280D01*
X68623390Y-146146900D01*
X68671009Y-146194519D01*
X68718628Y-146289757D01*
X68766247Y-146480233D01*
X68766247Y-146718328D01*
X68718628Y-146908804D01*
X68671009Y-147004042D01*
X68623390Y-147051661D01*
X68528152Y-147099280D01*
X68432914Y-147099280D01*
X68337676Y-147051661D01*
X68290057Y-147004042D01*
X68242438Y-146908804D01*
X68194819Y-146718328D01*
X68194819Y-146480233D01*
X68242438Y-146289757D01*
X68290057Y-146194519D01*
X68337676Y-146146900D01*
X68432914Y-146099280D01*
X52106347Y-148775680D02*
X51630157Y-148775680D01*
X51630157Y-147775680D01*
X52439680Y-148775680D02*
X52439680Y-148109014D01*
X52439680Y-147775680D02*
X52392061Y-147823300D01*
X52439680Y-147870919D01*
X52487300Y-147823300D01*
X52439680Y-147775680D01*
X52439680Y-147870919D01*
X53344442Y-148728061D02*
X53249204Y-148775680D01*
X53058728Y-148775680D01*
X52963490Y-148728061D01*
X52915871Y-148680442D01*
X52868252Y-148585204D01*
X52868252Y-148299490D01*
X52915871Y-148204252D01*
X52963490Y-148156633D01*
X53058728Y-148109014D01*
X53249204Y-148109014D01*
X53344442Y-148156633D01*
X54153966Y-148728061D02*
X54058728Y-148775680D01*
X53868252Y-148775680D01*
X53773014Y-148728061D01*
X53725395Y-148632823D01*
X53725395Y-148251871D01*
X53773014Y-148156633D01*
X53868252Y-148109014D01*
X54058728Y-148109014D01*
X54153966Y-148156633D01*
X54201585Y-148251871D01*
X54201585Y-148347109D01*
X53725395Y-148442347D01*
X54630157Y-148109014D02*
X54630157Y-148775680D01*
X54630157Y-148204252D02*
X54677776Y-148156633D01*
X54773014Y-148109014D01*
X54915871Y-148109014D01*
X55011109Y-148156633D01*
X55058728Y-148251871D01*
X55058728Y-148775680D01*
X55487300Y-148728061D02*
X55582538Y-148775680D01*
X55773014Y-148775680D01*
X55868252Y-148728061D01*
X55915871Y-148632823D01*
X55915871Y-148585204D01*
X55868252Y-148489966D01*
X55773014Y-148442347D01*
X55630157Y-148442347D01*
X55534919Y-148394728D01*
X55487300Y-148299490D01*
X55487300Y-148251871D01*
X55534919Y-148156633D01*
X55630157Y-148109014D01*
X55773014Y-148109014D01*
X55868252Y-148156633D01*
X56725395Y-148728061D02*
X56630157Y-148775680D01*
X56439680Y-148775680D01*
X56344442Y-148728061D01*
X56296823Y-148632823D01*
X56296823Y-148251871D01*
X56344442Y-148156633D01*
X56439680Y-148109014D01*
X56630157Y-148109014D01*
X56725395Y-148156633D01*
X56773014Y-148251871D01*
X56773014Y-148347109D01*
X56296823Y-148442347D01*
X57630157Y-148775680D02*
X57630157Y-147775680D01*
X57630157Y-148728061D02*
X57534919Y-148775680D01*
X57344442Y-148775680D01*
X57249204Y-148728061D01*
X57201585Y-148680442D01*
X57153966Y-148585204D01*
X57153966Y-148299490D01*
X57201585Y-148204252D01*
X57249204Y-148156633D01*
X57344442Y-148109014D01*
X57534919Y-148109014D01*
X57630157Y-148156633D01*
X59296823Y-148109014D02*
X59296823Y-148775680D01*
X58868252Y-148109014D02*
X58868252Y-148632823D01*
X58915871Y-148728061D01*
X59011109Y-148775680D01*
X59153966Y-148775680D01*
X59249204Y-148728061D01*
X59296823Y-148680442D01*
X59773014Y-148109014D02*
X59773014Y-148775680D01*
X59773014Y-148204252D02*
X59820633Y-148156633D01*
X59915871Y-148109014D01*
X60058728Y-148109014D01*
X60153966Y-148156633D01*
X60201585Y-148251871D01*
X60201585Y-148775680D01*
X61106347Y-148775680D02*
X61106347Y-147775680D01*
X61106347Y-148728061D02*
X61011109Y-148775680D01*
X60820633Y-148775680D01*
X60725395Y-148728061D01*
X60677776Y-148680442D01*
X60630157Y-148585204D01*
X60630157Y-148299490D01*
X60677776Y-148204252D01*
X60725395Y-148156633D01*
X60820633Y-148109014D01*
X61011109Y-148109014D01*
X61106347Y-148156633D01*
X61963490Y-148728061D02*
X61868252Y-148775680D01*
X61677776Y-148775680D01*
X61582538Y-148728061D01*
X61534919Y-148632823D01*
X61534919Y-148251871D01*
X61582538Y-148156633D01*
X61677776Y-148109014D01*
X61868252Y-148109014D01*
X61963490Y-148156633D01*
X62011109Y-148251871D01*
X62011109Y-148347109D01*
X61534919Y-148442347D01*
X62439680Y-148775680D02*
X62439680Y-148109014D01*
X62439680Y-148299490D02*
X62487300Y-148204252D01*
X62534919Y-148156633D01*
X62630157Y-148109014D01*
X62725395Y-148109014D01*
X64392061Y-148680442D02*
X64344442Y-148728061D01*
X64201585Y-148775680D01*
X64106347Y-148775680D01*
X63963490Y-148728061D01*
X63868252Y-148632823D01*
X63820633Y-148537585D01*
X63773014Y-148347109D01*
X63773014Y-148204252D01*
X63820633Y-148013776D01*
X63868252Y-147918538D01*
X63963490Y-147823300D01*
X64106347Y-147775680D01*
X64201585Y-147775680D01*
X64344442Y-147823300D01*
X64392061Y-147870919D01*
X64820633Y-148251871D02*
X65153966Y-148251871D01*
X65296823Y-148775680D02*
X64820633Y-148775680D01*
X64820633Y-147775680D01*
X65296823Y-147775680D01*
X66296823Y-148775680D02*
X65963490Y-148299490D01*
X65725395Y-148775680D02*
X65725395Y-147775680D01*
X66106347Y-147775680D01*
X66201585Y-147823300D01*
X66249204Y-147870919D01*
X66296823Y-147966157D01*
X66296823Y-148109014D01*
X66249204Y-148204252D01*
X66201585Y-148251871D01*
X66106347Y-148299490D01*
X65725395Y-148299490D01*
X66725395Y-148775680D02*
X66725395Y-147775680D01*
X67296823Y-148775680D01*
X67296823Y-147775680D01*
X68725395Y-147775680D02*
X68915871Y-147775680D01*
X69011109Y-147823300D01*
X69106347Y-147918538D01*
X69153966Y-148109014D01*
X69153966Y-148442347D01*
X69106347Y-148632823D01*
X69011109Y-148728061D01*
X68915871Y-148775680D01*
X68725395Y-148775680D01*
X68630157Y-148728061D01*
X68534919Y-148632823D01*
X68487300Y-148442347D01*
X68487300Y-148109014D01*
X68534919Y-147918538D01*
X68630157Y-147823300D01*
X68725395Y-147775680D01*
X69582538Y-148775680D02*
X69582538Y-147775680D01*
X69582538Y-148251871D02*
X70153966Y-148251871D01*
X70153966Y-148775680D02*
X70153966Y-147775680D01*
X71106347Y-148775680D02*
X70630157Y-148775680D01*
X70630157Y-147775680D01*
X72106347Y-148109014D02*
X72344442Y-148775680D01*
X72582538Y-148109014D01*
X72963490Y-148680442D02*
X73011109Y-148728061D01*
X72963490Y-148775680D01*
X72915871Y-148728061D01*
X72963490Y-148680442D01*
X72963490Y-148775680D01*
X73963490Y-148775680D02*
X73392061Y-148775680D01*
X73677776Y-148775680D02*
X73677776Y-147775680D01*
X73582538Y-147918538D01*
X73487300Y-148013776D01*
X73392061Y-148061395D01*
X74392061Y-148680442D02*
X74439680Y-148728061D01*
X74392061Y-148775680D01*
X74344442Y-148728061D01*
X74392061Y-148680442D01*
X74392061Y-148775680D01*
X74820633Y-147870919D02*
X74868252Y-147823300D01*
X74963490Y-147775680D01*
X75201585Y-147775680D01*
X75296823Y-147823300D01*
X75344442Y-147870919D01*
X75392061Y-147966157D01*
X75392061Y-148061395D01*
X75344442Y-148204252D01*
X74773014Y-148775680D01*
X75392061Y-148775680D01*
D11*
X115376000Y-118177000D02*
X112716000Y-118177000D01*
X115376000Y-138557000D02*
X115376000Y-118177000D01*
X112716000Y-138557000D02*
X112716000Y-118177000D01*
X115376000Y-138557000D02*
X112716000Y-138557000D01*
X115376000Y-139827000D02*
X115376000Y-141157000D01*
X115376000Y-141157000D02*
X114046000Y-141157000D01*
D12*
X121361000Y-136612000D02*
X120411000Y-136612000D01*
X120411000Y-136612000D02*
X120411000Y-135937000D01*
X121261000Y-122962000D02*
X120411000Y-122962000D01*
X120411000Y-122962000D02*
X120411000Y-123637000D01*
X133161000Y-136037000D02*
X133161000Y-136612000D01*
X133161000Y-136612000D02*
X132361000Y-136612000D01*
X132461000Y-122962000D02*
X133161000Y-122962000D01*
X133161000Y-122962000D02*
X133161000Y-123462000D01*
D10*
X110416666Y-139202380D02*
X110416666Y-139916666D01*
X110369047Y-140059523D01*
X110273809Y-140154761D01*
X110130952Y-140202380D01*
X110035714Y-140202380D01*
X110845238Y-139297619D02*
X110892857Y-139250000D01*
X110988095Y-139202380D01*
X111226190Y-139202380D01*
X111321428Y-139250000D01*
X111369047Y-139297619D01*
X111416666Y-139392857D01*
X111416666Y-139488095D01*
X111369047Y-139630952D01*
X110797619Y-140202380D01*
X111416666Y-140202380D01*
X126301595Y-118870361D02*
X126444452Y-118917980D01*
X126682547Y-118917980D01*
X126777785Y-118870361D01*
X126825404Y-118822742D01*
X126873023Y-118727504D01*
X126873023Y-118632266D01*
X126825404Y-118537028D01*
X126777785Y-118489409D01*
X126682547Y-118441790D01*
X126492071Y-118394171D01*
X126396833Y-118346552D01*
X126349214Y-118298933D01*
X126301595Y-118203695D01*
X126301595Y-118108457D01*
X126349214Y-118013219D01*
X126396833Y-117965600D01*
X126492071Y-117917980D01*
X126730166Y-117917980D01*
X126873023Y-117965600D01*
X127825404Y-118917980D02*
X127253976Y-118917980D01*
X127539690Y-118917980D02*
X127539690Y-117917980D01*
X127444452Y-118060838D01*
X127349214Y-118156076D01*
X127253976Y-118203695D01*
M02*
