G04 #@! TF.GenerationSoftware,KiCad,Pcbnew,(5.1.4-0)*
G04 #@! TF.CreationDate,2019-11-11T14:35:41+00:00*
G04 #@! TF.ProjectId,2M_DRA818V_Transceiver_tft_encoder,324d5f44-5241-4383-9138-565f5472616e,rev?*
G04 #@! TF.SameCoordinates,Original*
G04 #@! TF.FileFunction,Soldermask,Bot*
G04 #@! TF.FilePolarity,Negative*
%FSLAX46Y46*%
G04 Gerber Fmt 4.6, Leading zero omitted, Abs format (unit mm)*
G04 Created by KiCad (PCBNEW (5.1.4-0)) date 2019-11-11 14:35:41*
%MOMM*%
%LPD*%
G04 APERTURE LIST*
%ADD10C,0.100000*%
G04 APERTURE END LIST*
D10*
G36*
X137016443Y-144012519D02*
G01*
X137082627Y-144019037D01*
X137252466Y-144070557D01*
X137408991Y-144154222D01*
X137444729Y-144183552D01*
X137546186Y-144266814D01*
X137629448Y-144368271D01*
X137658778Y-144404009D01*
X137742443Y-144560534D01*
X137793963Y-144730373D01*
X137811359Y-144907000D01*
X137793963Y-145083627D01*
X137742443Y-145253466D01*
X137658778Y-145409991D01*
X137629448Y-145445729D01*
X137546186Y-145547186D01*
X137444729Y-145630448D01*
X137408991Y-145659778D01*
X137252466Y-145743443D01*
X137082627Y-145794963D01*
X137016442Y-145801482D01*
X136950260Y-145808000D01*
X136861740Y-145808000D01*
X136795558Y-145801482D01*
X136729373Y-145794963D01*
X136559534Y-145743443D01*
X136403009Y-145659778D01*
X136367271Y-145630448D01*
X136265814Y-145547186D01*
X136182552Y-145445729D01*
X136153222Y-145409991D01*
X136069557Y-145253466D01*
X136018037Y-145083627D01*
X136000641Y-144907000D01*
X136018037Y-144730373D01*
X136069557Y-144560534D01*
X136153222Y-144404009D01*
X136182552Y-144368271D01*
X136265814Y-144266814D01*
X136367271Y-144183552D01*
X136403009Y-144154222D01*
X136559534Y-144070557D01*
X136729373Y-144019037D01*
X136795557Y-144012519D01*
X136861740Y-144006000D01*
X136950260Y-144006000D01*
X137016443Y-144012519D01*
X137016443Y-144012519D01*
G37*
G36*
X134476443Y-144012519D02*
G01*
X134542627Y-144019037D01*
X134712466Y-144070557D01*
X134868991Y-144154222D01*
X134904729Y-144183552D01*
X135006186Y-144266814D01*
X135089448Y-144368271D01*
X135118778Y-144404009D01*
X135202443Y-144560534D01*
X135253963Y-144730373D01*
X135271359Y-144907000D01*
X135253963Y-145083627D01*
X135202443Y-145253466D01*
X135118778Y-145409991D01*
X135089448Y-145445729D01*
X135006186Y-145547186D01*
X134904729Y-145630448D01*
X134868991Y-145659778D01*
X134712466Y-145743443D01*
X134542627Y-145794963D01*
X134476442Y-145801482D01*
X134410260Y-145808000D01*
X134321740Y-145808000D01*
X134255558Y-145801482D01*
X134189373Y-145794963D01*
X134019534Y-145743443D01*
X133863009Y-145659778D01*
X133827271Y-145630448D01*
X133725814Y-145547186D01*
X133642552Y-145445729D01*
X133613222Y-145409991D01*
X133529557Y-145253466D01*
X133478037Y-145083627D01*
X133460641Y-144907000D01*
X133478037Y-144730373D01*
X133529557Y-144560534D01*
X133613222Y-144404009D01*
X133642552Y-144368271D01*
X133725814Y-144266814D01*
X133827271Y-144183552D01*
X133863009Y-144154222D01*
X134019534Y-144070557D01*
X134189373Y-144019037D01*
X134255557Y-144012519D01*
X134321740Y-144006000D01*
X134410260Y-144006000D01*
X134476443Y-144012519D01*
X134476443Y-144012519D01*
G37*
G36*
X131936443Y-144012519D02*
G01*
X132002627Y-144019037D01*
X132172466Y-144070557D01*
X132328991Y-144154222D01*
X132364729Y-144183552D01*
X132466186Y-144266814D01*
X132549448Y-144368271D01*
X132578778Y-144404009D01*
X132662443Y-144560534D01*
X132713963Y-144730373D01*
X132731359Y-144907000D01*
X132713963Y-145083627D01*
X132662443Y-145253466D01*
X132578778Y-145409991D01*
X132549448Y-145445729D01*
X132466186Y-145547186D01*
X132364729Y-145630448D01*
X132328991Y-145659778D01*
X132172466Y-145743443D01*
X132002627Y-145794963D01*
X131936442Y-145801482D01*
X131870260Y-145808000D01*
X131781740Y-145808000D01*
X131715558Y-145801482D01*
X131649373Y-145794963D01*
X131479534Y-145743443D01*
X131323009Y-145659778D01*
X131287271Y-145630448D01*
X131185814Y-145547186D01*
X131102552Y-145445729D01*
X131073222Y-145409991D01*
X130989557Y-145253466D01*
X130938037Y-145083627D01*
X130920641Y-144907000D01*
X130938037Y-144730373D01*
X130989557Y-144560534D01*
X131073222Y-144404009D01*
X131102552Y-144368271D01*
X131185814Y-144266814D01*
X131287271Y-144183552D01*
X131323009Y-144154222D01*
X131479534Y-144070557D01*
X131649373Y-144019037D01*
X131715557Y-144012519D01*
X131781740Y-144006000D01*
X131870260Y-144006000D01*
X131936443Y-144012519D01*
X131936443Y-144012519D01*
G37*
G36*
X129396443Y-144012519D02*
G01*
X129462627Y-144019037D01*
X129632466Y-144070557D01*
X129788991Y-144154222D01*
X129824729Y-144183552D01*
X129926186Y-144266814D01*
X130009448Y-144368271D01*
X130038778Y-144404009D01*
X130122443Y-144560534D01*
X130173963Y-144730373D01*
X130191359Y-144907000D01*
X130173963Y-145083627D01*
X130122443Y-145253466D01*
X130038778Y-145409991D01*
X130009448Y-145445729D01*
X129926186Y-145547186D01*
X129824729Y-145630448D01*
X129788991Y-145659778D01*
X129632466Y-145743443D01*
X129462627Y-145794963D01*
X129396442Y-145801482D01*
X129330260Y-145808000D01*
X129241740Y-145808000D01*
X129175558Y-145801482D01*
X129109373Y-145794963D01*
X128939534Y-145743443D01*
X128783009Y-145659778D01*
X128747271Y-145630448D01*
X128645814Y-145547186D01*
X128562552Y-145445729D01*
X128533222Y-145409991D01*
X128449557Y-145253466D01*
X128398037Y-145083627D01*
X128380641Y-144907000D01*
X128398037Y-144730373D01*
X128449557Y-144560534D01*
X128533222Y-144404009D01*
X128562552Y-144368271D01*
X128645814Y-144266814D01*
X128747271Y-144183552D01*
X128783009Y-144154222D01*
X128939534Y-144070557D01*
X129109373Y-144019037D01*
X129175557Y-144012519D01*
X129241740Y-144006000D01*
X129330260Y-144006000D01*
X129396443Y-144012519D01*
X129396443Y-144012519D01*
G37*
G36*
X126856443Y-144012519D02*
G01*
X126922627Y-144019037D01*
X127092466Y-144070557D01*
X127248991Y-144154222D01*
X127284729Y-144183552D01*
X127386186Y-144266814D01*
X127469448Y-144368271D01*
X127498778Y-144404009D01*
X127582443Y-144560534D01*
X127633963Y-144730373D01*
X127651359Y-144907000D01*
X127633963Y-145083627D01*
X127582443Y-145253466D01*
X127498778Y-145409991D01*
X127469448Y-145445729D01*
X127386186Y-145547186D01*
X127284729Y-145630448D01*
X127248991Y-145659778D01*
X127092466Y-145743443D01*
X126922627Y-145794963D01*
X126856442Y-145801482D01*
X126790260Y-145808000D01*
X126701740Y-145808000D01*
X126635558Y-145801482D01*
X126569373Y-145794963D01*
X126399534Y-145743443D01*
X126243009Y-145659778D01*
X126207271Y-145630448D01*
X126105814Y-145547186D01*
X126022552Y-145445729D01*
X125993222Y-145409991D01*
X125909557Y-145253466D01*
X125858037Y-145083627D01*
X125840641Y-144907000D01*
X125858037Y-144730373D01*
X125909557Y-144560534D01*
X125993222Y-144404009D01*
X126022552Y-144368271D01*
X126105814Y-144266814D01*
X126207271Y-144183552D01*
X126243009Y-144154222D01*
X126399534Y-144070557D01*
X126569373Y-144019037D01*
X126635557Y-144012519D01*
X126701740Y-144006000D01*
X126790260Y-144006000D01*
X126856443Y-144012519D01*
X126856443Y-144012519D01*
G37*
G36*
X124316443Y-144012519D02*
G01*
X124382627Y-144019037D01*
X124552466Y-144070557D01*
X124708991Y-144154222D01*
X124744729Y-144183552D01*
X124846186Y-144266814D01*
X124929448Y-144368271D01*
X124958778Y-144404009D01*
X125042443Y-144560534D01*
X125093963Y-144730373D01*
X125111359Y-144907000D01*
X125093963Y-145083627D01*
X125042443Y-145253466D01*
X124958778Y-145409991D01*
X124929448Y-145445729D01*
X124846186Y-145547186D01*
X124744729Y-145630448D01*
X124708991Y-145659778D01*
X124552466Y-145743443D01*
X124382627Y-145794963D01*
X124316442Y-145801482D01*
X124250260Y-145808000D01*
X124161740Y-145808000D01*
X124095558Y-145801482D01*
X124029373Y-145794963D01*
X123859534Y-145743443D01*
X123703009Y-145659778D01*
X123667271Y-145630448D01*
X123565814Y-145547186D01*
X123482552Y-145445729D01*
X123453222Y-145409991D01*
X123369557Y-145253466D01*
X123318037Y-145083627D01*
X123300641Y-144907000D01*
X123318037Y-144730373D01*
X123369557Y-144560534D01*
X123453222Y-144404009D01*
X123482552Y-144368271D01*
X123565814Y-144266814D01*
X123667271Y-144183552D01*
X123703009Y-144154222D01*
X123859534Y-144070557D01*
X124029373Y-144019037D01*
X124095557Y-144012519D01*
X124161740Y-144006000D01*
X124250260Y-144006000D01*
X124316443Y-144012519D01*
X124316443Y-144012519D01*
G37*
G36*
X121776443Y-144012519D02*
G01*
X121842627Y-144019037D01*
X122012466Y-144070557D01*
X122168991Y-144154222D01*
X122204729Y-144183552D01*
X122306186Y-144266814D01*
X122389448Y-144368271D01*
X122418778Y-144404009D01*
X122502443Y-144560534D01*
X122553963Y-144730373D01*
X122571359Y-144907000D01*
X122553963Y-145083627D01*
X122502443Y-145253466D01*
X122418778Y-145409991D01*
X122389448Y-145445729D01*
X122306186Y-145547186D01*
X122204729Y-145630448D01*
X122168991Y-145659778D01*
X122012466Y-145743443D01*
X121842627Y-145794963D01*
X121776442Y-145801482D01*
X121710260Y-145808000D01*
X121621740Y-145808000D01*
X121555558Y-145801482D01*
X121489373Y-145794963D01*
X121319534Y-145743443D01*
X121163009Y-145659778D01*
X121127271Y-145630448D01*
X121025814Y-145547186D01*
X120942552Y-145445729D01*
X120913222Y-145409991D01*
X120829557Y-145253466D01*
X120778037Y-145083627D01*
X120760641Y-144907000D01*
X120778037Y-144730373D01*
X120829557Y-144560534D01*
X120913222Y-144404009D01*
X120942552Y-144368271D01*
X121025814Y-144266814D01*
X121127271Y-144183552D01*
X121163009Y-144154222D01*
X121319534Y-144070557D01*
X121489373Y-144019037D01*
X121555557Y-144012519D01*
X121621740Y-144006000D01*
X121710260Y-144006000D01*
X121776443Y-144012519D01*
X121776443Y-144012519D01*
G37*
G36*
X119236443Y-144012519D02*
G01*
X119302627Y-144019037D01*
X119472466Y-144070557D01*
X119628991Y-144154222D01*
X119664729Y-144183552D01*
X119766186Y-144266814D01*
X119849448Y-144368271D01*
X119878778Y-144404009D01*
X119962443Y-144560534D01*
X120013963Y-144730373D01*
X120031359Y-144907000D01*
X120013963Y-145083627D01*
X119962443Y-145253466D01*
X119878778Y-145409991D01*
X119849448Y-145445729D01*
X119766186Y-145547186D01*
X119664729Y-145630448D01*
X119628991Y-145659778D01*
X119472466Y-145743443D01*
X119302627Y-145794963D01*
X119236442Y-145801482D01*
X119170260Y-145808000D01*
X119081740Y-145808000D01*
X119015558Y-145801482D01*
X118949373Y-145794963D01*
X118779534Y-145743443D01*
X118623009Y-145659778D01*
X118587271Y-145630448D01*
X118485814Y-145547186D01*
X118402552Y-145445729D01*
X118373222Y-145409991D01*
X118289557Y-145253466D01*
X118238037Y-145083627D01*
X118220641Y-144907000D01*
X118238037Y-144730373D01*
X118289557Y-144560534D01*
X118373222Y-144404009D01*
X118402552Y-144368271D01*
X118485814Y-144266814D01*
X118587271Y-144183552D01*
X118623009Y-144154222D01*
X118779534Y-144070557D01*
X118949373Y-144019037D01*
X119015557Y-144012519D01*
X119081740Y-144006000D01*
X119170260Y-144006000D01*
X119236443Y-144012519D01*
X119236443Y-144012519D01*
G37*
G36*
X116696443Y-144012519D02*
G01*
X116762627Y-144019037D01*
X116932466Y-144070557D01*
X117088991Y-144154222D01*
X117124729Y-144183552D01*
X117226186Y-144266814D01*
X117309448Y-144368271D01*
X117338778Y-144404009D01*
X117422443Y-144560534D01*
X117473963Y-144730373D01*
X117491359Y-144907000D01*
X117473963Y-145083627D01*
X117422443Y-145253466D01*
X117338778Y-145409991D01*
X117309448Y-145445729D01*
X117226186Y-145547186D01*
X117124729Y-145630448D01*
X117088991Y-145659778D01*
X116932466Y-145743443D01*
X116762627Y-145794963D01*
X116696442Y-145801482D01*
X116630260Y-145808000D01*
X116541740Y-145808000D01*
X116475558Y-145801482D01*
X116409373Y-145794963D01*
X116239534Y-145743443D01*
X116083009Y-145659778D01*
X116047271Y-145630448D01*
X115945814Y-145547186D01*
X115862552Y-145445729D01*
X115833222Y-145409991D01*
X115749557Y-145253466D01*
X115698037Y-145083627D01*
X115680641Y-144907000D01*
X115698037Y-144730373D01*
X115749557Y-144560534D01*
X115833222Y-144404009D01*
X115862552Y-144368271D01*
X115945814Y-144266814D01*
X116047271Y-144183552D01*
X116083009Y-144154222D01*
X116239534Y-144070557D01*
X116409373Y-144019037D01*
X116475557Y-144012519D01*
X116541740Y-144006000D01*
X116630260Y-144006000D01*
X116696443Y-144012519D01*
X116696443Y-144012519D01*
G37*
G36*
X114156443Y-144012519D02*
G01*
X114222627Y-144019037D01*
X114392466Y-144070557D01*
X114548991Y-144154222D01*
X114584729Y-144183552D01*
X114686186Y-144266814D01*
X114769448Y-144368271D01*
X114798778Y-144404009D01*
X114882443Y-144560534D01*
X114933963Y-144730373D01*
X114951359Y-144907000D01*
X114933963Y-145083627D01*
X114882443Y-145253466D01*
X114798778Y-145409991D01*
X114769448Y-145445729D01*
X114686186Y-145547186D01*
X114584729Y-145630448D01*
X114548991Y-145659778D01*
X114392466Y-145743443D01*
X114222627Y-145794963D01*
X114156442Y-145801482D01*
X114090260Y-145808000D01*
X114001740Y-145808000D01*
X113935558Y-145801482D01*
X113869373Y-145794963D01*
X113699534Y-145743443D01*
X113543009Y-145659778D01*
X113507271Y-145630448D01*
X113405814Y-145547186D01*
X113322552Y-145445729D01*
X113293222Y-145409991D01*
X113209557Y-145253466D01*
X113158037Y-145083627D01*
X113140641Y-144907000D01*
X113158037Y-144730373D01*
X113209557Y-144560534D01*
X113293222Y-144404009D01*
X113322552Y-144368271D01*
X113405814Y-144266814D01*
X113507271Y-144183552D01*
X113543009Y-144154222D01*
X113699534Y-144070557D01*
X113869373Y-144019037D01*
X113935557Y-144012519D01*
X114001740Y-144006000D01*
X114090260Y-144006000D01*
X114156443Y-144012519D01*
X114156443Y-144012519D01*
G37*
G36*
X114947000Y-143268000D02*
G01*
X113145000Y-143268000D01*
X113145000Y-141466000D01*
X114947000Y-141466000D01*
X114947000Y-143268000D01*
X114947000Y-143268000D01*
G37*
G36*
X126856442Y-141472518D02*
G01*
X126922627Y-141479037D01*
X127092466Y-141530557D01*
X127248991Y-141614222D01*
X127284729Y-141643552D01*
X127386186Y-141726814D01*
X127469448Y-141828271D01*
X127498778Y-141864009D01*
X127582443Y-142020534D01*
X127633963Y-142190373D01*
X127651359Y-142367000D01*
X127633963Y-142543627D01*
X127582443Y-142713466D01*
X127498778Y-142869991D01*
X127469448Y-142905729D01*
X127386186Y-143007186D01*
X127284729Y-143090448D01*
X127248991Y-143119778D01*
X127092466Y-143203443D01*
X126922627Y-143254963D01*
X126856443Y-143261481D01*
X126790260Y-143268000D01*
X126701740Y-143268000D01*
X126635557Y-143261481D01*
X126569373Y-143254963D01*
X126399534Y-143203443D01*
X126243009Y-143119778D01*
X126207271Y-143090448D01*
X126105814Y-143007186D01*
X126022552Y-142905729D01*
X125993222Y-142869991D01*
X125909557Y-142713466D01*
X125858037Y-142543627D01*
X125840641Y-142367000D01*
X125858037Y-142190373D01*
X125909557Y-142020534D01*
X125993222Y-141864009D01*
X126022552Y-141828271D01*
X126105814Y-141726814D01*
X126207271Y-141643552D01*
X126243009Y-141614222D01*
X126399534Y-141530557D01*
X126569373Y-141479037D01*
X126635558Y-141472518D01*
X126701740Y-141466000D01*
X126790260Y-141466000D01*
X126856442Y-141472518D01*
X126856442Y-141472518D01*
G37*
G36*
X137016442Y-141472518D02*
G01*
X137082627Y-141479037D01*
X137252466Y-141530557D01*
X137408991Y-141614222D01*
X137444729Y-141643552D01*
X137546186Y-141726814D01*
X137629448Y-141828271D01*
X137658778Y-141864009D01*
X137742443Y-142020534D01*
X137793963Y-142190373D01*
X137811359Y-142367000D01*
X137793963Y-142543627D01*
X137742443Y-142713466D01*
X137658778Y-142869991D01*
X137629448Y-142905729D01*
X137546186Y-143007186D01*
X137444729Y-143090448D01*
X137408991Y-143119778D01*
X137252466Y-143203443D01*
X137082627Y-143254963D01*
X137016443Y-143261481D01*
X136950260Y-143268000D01*
X136861740Y-143268000D01*
X136795557Y-143261481D01*
X136729373Y-143254963D01*
X136559534Y-143203443D01*
X136403009Y-143119778D01*
X136367271Y-143090448D01*
X136265814Y-143007186D01*
X136182552Y-142905729D01*
X136153222Y-142869991D01*
X136069557Y-142713466D01*
X136018037Y-142543627D01*
X136000641Y-142367000D01*
X136018037Y-142190373D01*
X136069557Y-142020534D01*
X136153222Y-141864009D01*
X136182552Y-141828271D01*
X136265814Y-141726814D01*
X136367271Y-141643552D01*
X136403009Y-141614222D01*
X136559534Y-141530557D01*
X136729373Y-141479037D01*
X136795558Y-141472518D01*
X136861740Y-141466000D01*
X136950260Y-141466000D01*
X137016442Y-141472518D01*
X137016442Y-141472518D01*
G37*
G36*
X134476442Y-141472518D02*
G01*
X134542627Y-141479037D01*
X134712466Y-141530557D01*
X134868991Y-141614222D01*
X134904729Y-141643552D01*
X135006186Y-141726814D01*
X135089448Y-141828271D01*
X135118778Y-141864009D01*
X135202443Y-142020534D01*
X135253963Y-142190373D01*
X135271359Y-142367000D01*
X135253963Y-142543627D01*
X135202443Y-142713466D01*
X135118778Y-142869991D01*
X135089448Y-142905729D01*
X135006186Y-143007186D01*
X134904729Y-143090448D01*
X134868991Y-143119778D01*
X134712466Y-143203443D01*
X134542627Y-143254963D01*
X134476443Y-143261481D01*
X134410260Y-143268000D01*
X134321740Y-143268000D01*
X134255557Y-143261481D01*
X134189373Y-143254963D01*
X134019534Y-143203443D01*
X133863009Y-143119778D01*
X133827271Y-143090448D01*
X133725814Y-143007186D01*
X133642552Y-142905729D01*
X133613222Y-142869991D01*
X133529557Y-142713466D01*
X133478037Y-142543627D01*
X133460641Y-142367000D01*
X133478037Y-142190373D01*
X133529557Y-142020534D01*
X133613222Y-141864009D01*
X133642552Y-141828271D01*
X133725814Y-141726814D01*
X133827271Y-141643552D01*
X133863009Y-141614222D01*
X134019534Y-141530557D01*
X134189373Y-141479037D01*
X134255558Y-141472518D01*
X134321740Y-141466000D01*
X134410260Y-141466000D01*
X134476442Y-141472518D01*
X134476442Y-141472518D01*
G37*
G36*
X131936442Y-141472518D02*
G01*
X132002627Y-141479037D01*
X132172466Y-141530557D01*
X132328991Y-141614222D01*
X132364729Y-141643552D01*
X132466186Y-141726814D01*
X132549448Y-141828271D01*
X132578778Y-141864009D01*
X132662443Y-142020534D01*
X132713963Y-142190373D01*
X132731359Y-142367000D01*
X132713963Y-142543627D01*
X132662443Y-142713466D01*
X132578778Y-142869991D01*
X132549448Y-142905729D01*
X132466186Y-143007186D01*
X132364729Y-143090448D01*
X132328991Y-143119778D01*
X132172466Y-143203443D01*
X132002627Y-143254963D01*
X131936443Y-143261481D01*
X131870260Y-143268000D01*
X131781740Y-143268000D01*
X131715557Y-143261481D01*
X131649373Y-143254963D01*
X131479534Y-143203443D01*
X131323009Y-143119778D01*
X131287271Y-143090448D01*
X131185814Y-143007186D01*
X131102552Y-142905729D01*
X131073222Y-142869991D01*
X130989557Y-142713466D01*
X130938037Y-142543627D01*
X130920641Y-142367000D01*
X130938037Y-142190373D01*
X130989557Y-142020534D01*
X131073222Y-141864009D01*
X131102552Y-141828271D01*
X131185814Y-141726814D01*
X131287271Y-141643552D01*
X131323009Y-141614222D01*
X131479534Y-141530557D01*
X131649373Y-141479037D01*
X131715558Y-141472518D01*
X131781740Y-141466000D01*
X131870260Y-141466000D01*
X131936442Y-141472518D01*
X131936442Y-141472518D01*
G37*
G36*
X129396442Y-141472518D02*
G01*
X129462627Y-141479037D01*
X129632466Y-141530557D01*
X129788991Y-141614222D01*
X129824729Y-141643552D01*
X129926186Y-141726814D01*
X130009448Y-141828271D01*
X130038778Y-141864009D01*
X130122443Y-142020534D01*
X130173963Y-142190373D01*
X130191359Y-142367000D01*
X130173963Y-142543627D01*
X130122443Y-142713466D01*
X130038778Y-142869991D01*
X130009448Y-142905729D01*
X129926186Y-143007186D01*
X129824729Y-143090448D01*
X129788991Y-143119778D01*
X129632466Y-143203443D01*
X129462627Y-143254963D01*
X129396443Y-143261481D01*
X129330260Y-143268000D01*
X129241740Y-143268000D01*
X129175557Y-143261481D01*
X129109373Y-143254963D01*
X128939534Y-143203443D01*
X128783009Y-143119778D01*
X128747271Y-143090448D01*
X128645814Y-143007186D01*
X128562552Y-142905729D01*
X128533222Y-142869991D01*
X128449557Y-142713466D01*
X128398037Y-142543627D01*
X128380641Y-142367000D01*
X128398037Y-142190373D01*
X128449557Y-142020534D01*
X128533222Y-141864009D01*
X128562552Y-141828271D01*
X128645814Y-141726814D01*
X128747271Y-141643552D01*
X128783009Y-141614222D01*
X128939534Y-141530557D01*
X129109373Y-141479037D01*
X129175558Y-141472518D01*
X129241740Y-141466000D01*
X129330260Y-141466000D01*
X129396442Y-141472518D01*
X129396442Y-141472518D01*
G37*
G36*
X124316442Y-141472518D02*
G01*
X124382627Y-141479037D01*
X124552466Y-141530557D01*
X124708991Y-141614222D01*
X124744729Y-141643552D01*
X124846186Y-141726814D01*
X124929448Y-141828271D01*
X124958778Y-141864009D01*
X125042443Y-142020534D01*
X125093963Y-142190373D01*
X125111359Y-142367000D01*
X125093963Y-142543627D01*
X125042443Y-142713466D01*
X124958778Y-142869991D01*
X124929448Y-142905729D01*
X124846186Y-143007186D01*
X124744729Y-143090448D01*
X124708991Y-143119778D01*
X124552466Y-143203443D01*
X124382627Y-143254963D01*
X124316443Y-143261481D01*
X124250260Y-143268000D01*
X124161740Y-143268000D01*
X124095557Y-143261481D01*
X124029373Y-143254963D01*
X123859534Y-143203443D01*
X123703009Y-143119778D01*
X123667271Y-143090448D01*
X123565814Y-143007186D01*
X123482552Y-142905729D01*
X123453222Y-142869991D01*
X123369557Y-142713466D01*
X123318037Y-142543627D01*
X123300641Y-142367000D01*
X123318037Y-142190373D01*
X123369557Y-142020534D01*
X123453222Y-141864009D01*
X123482552Y-141828271D01*
X123565814Y-141726814D01*
X123667271Y-141643552D01*
X123703009Y-141614222D01*
X123859534Y-141530557D01*
X124029373Y-141479037D01*
X124095558Y-141472518D01*
X124161740Y-141466000D01*
X124250260Y-141466000D01*
X124316442Y-141472518D01*
X124316442Y-141472518D01*
G37*
G36*
X121776442Y-141472518D02*
G01*
X121842627Y-141479037D01*
X122012466Y-141530557D01*
X122168991Y-141614222D01*
X122204729Y-141643552D01*
X122306186Y-141726814D01*
X122389448Y-141828271D01*
X122418778Y-141864009D01*
X122502443Y-142020534D01*
X122553963Y-142190373D01*
X122571359Y-142367000D01*
X122553963Y-142543627D01*
X122502443Y-142713466D01*
X122418778Y-142869991D01*
X122389448Y-142905729D01*
X122306186Y-143007186D01*
X122204729Y-143090448D01*
X122168991Y-143119778D01*
X122012466Y-143203443D01*
X121842627Y-143254963D01*
X121776443Y-143261481D01*
X121710260Y-143268000D01*
X121621740Y-143268000D01*
X121555557Y-143261481D01*
X121489373Y-143254963D01*
X121319534Y-143203443D01*
X121163009Y-143119778D01*
X121127271Y-143090448D01*
X121025814Y-143007186D01*
X120942552Y-142905729D01*
X120913222Y-142869991D01*
X120829557Y-142713466D01*
X120778037Y-142543627D01*
X120760641Y-142367000D01*
X120778037Y-142190373D01*
X120829557Y-142020534D01*
X120913222Y-141864009D01*
X120942552Y-141828271D01*
X121025814Y-141726814D01*
X121127271Y-141643552D01*
X121163009Y-141614222D01*
X121319534Y-141530557D01*
X121489373Y-141479037D01*
X121555558Y-141472518D01*
X121621740Y-141466000D01*
X121710260Y-141466000D01*
X121776442Y-141472518D01*
X121776442Y-141472518D01*
G37*
G36*
X119236442Y-141472518D02*
G01*
X119302627Y-141479037D01*
X119472466Y-141530557D01*
X119628991Y-141614222D01*
X119664729Y-141643552D01*
X119766186Y-141726814D01*
X119849448Y-141828271D01*
X119878778Y-141864009D01*
X119962443Y-142020534D01*
X120013963Y-142190373D01*
X120031359Y-142367000D01*
X120013963Y-142543627D01*
X119962443Y-142713466D01*
X119878778Y-142869991D01*
X119849448Y-142905729D01*
X119766186Y-143007186D01*
X119664729Y-143090448D01*
X119628991Y-143119778D01*
X119472466Y-143203443D01*
X119302627Y-143254963D01*
X119236443Y-143261481D01*
X119170260Y-143268000D01*
X119081740Y-143268000D01*
X119015557Y-143261481D01*
X118949373Y-143254963D01*
X118779534Y-143203443D01*
X118623009Y-143119778D01*
X118587271Y-143090448D01*
X118485814Y-143007186D01*
X118402552Y-142905729D01*
X118373222Y-142869991D01*
X118289557Y-142713466D01*
X118238037Y-142543627D01*
X118220641Y-142367000D01*
X118238037Y-142190373D01*
X118289557Y-142020534D01*
X118373222Y-141864009D01*
X118402552Y-141828271D01*
X118485814Y-141726814D01*
X118587271Y-141643552D01*
X118623009Y-141614222D01*
X118779534Y-141530557D01*
X118949373Y-141479037D01*
X119015558Y-141472518D01*
X119081740Y-141466000D01*
X119170260Y-141466000D01*
X119236442Y-141472518D01*
X119236442Y-141472518D01*
G37*
G36*
X116696442Y-141472518D02*
G01*
X116762627Y-141479037D01*
X116932466Y-141530557D01*
X117088991Y-141614222D01*
X117124729Y-141643552D01*
X117226186Y-141726814D01*
X117309448Y-141828271D01*
X117338778Y-141864009D01*
X117422443Y-142020534D01*
X117473963Y-142190373D01*
X117491359Y-142367000D01*
X117473963Y-142543627D01*
X117422443Y-142713466D01*
X117338778Y-142869991D01*
X117309448Y-142905729D01*
X117226186Y-143007186D01*
X117124729Y-143090448D01*
X117088991Y-143119778D01*
X116932466Y-143203443D01*
X116762627Y-143254963D01*
X116696443Y-143261481D01*
X116630260Y-143268000D01*
X116541740Y-143268000D01*
X116475557Y-143261481D01*
X116409373Y-143254963D01*
X116239534Y-143203443D01*
X116083009Y-143119778D01*
X116047271Y-143090448D01*
X115945814Y-143007186D01*
X115862552Y-142905729D01*
X115833222Y-142869991D01*
X115749557Y-142713466D01*
X115698037Y-142543627D01*
X115680641Y-142367000D01*
X115698037Y-142190373D01*
X115749557Y-142020534D01*
X115833222Y-141864009D01*
X115862552Y-141828271D01*
X115945814Y-141726814D01*
X116047271Y-141643552D01*
X116083009Y-141614222D01*
X116239534Y-141530557D01*
X116409373Y-141479037D01*
X116475558Y-141472518D01*
X116541740Y-141466000D01*
X116630260Y-141466000D01*
X116696442Y-141472518D01*
X116696442Y-141472518D01*
G37*
G36*
X114947000Y-140728000D02*
G01*
X113145000Y-140728000D01*
X113145000Y-138926000D01*
X114947000Y-138926000D01*
X114947000Y-140728000D01*
X114947000Y-140728000D01*
G37*
G36*
X129592564Y-136276389D02*
G01*
X129783833Y-136355615D01*
X129783835Y-136355616D01*
X129848819Y-136399037D01*
X129955973Y-136470635D01*
X130102365Y-136617027D01*
X130217385Y-136789167D01*
X130296611Y-136980436D01*
X130337000Y-137183484D01*
X130337000Y-137390516D01*
X130296611Y-137593564D01*
X130280083Y-137633466D01*
X130217384Y-137784835D01*
X130102365Y-137956973D01*
X129955973Y-138103365D01*
X129783835Y-138218384D01*
X129783834Y-138218385D01*
X129783833Y-138218385D01*
X129592564Y-138297611D01*
X129389516Y-138338000D01*
X129182484Y-138338000D01*
X128979436Y-138297611D01*
X128788167Y-138218385D01*
X128788166Y-138218385D01*
X128788165Y-138218384D01*
X128616027Y-138103365D01*
X128469635Y-137956973D01*
X128354616Y-137784835D01*
X128291917Y-137633466D01*
X128275389Y-137593564D01*
X128235000Y-137390516D01*
X128235000Y-137183484D01*
X128275389Y-136980436D01*
X128354615Y-136789167D01*
X128469635Y-136617027D01*
X128616027Y-136470635D01*
X128723181Y-136399037D01*
X128788165Y-136355616D01*
X128788167Y-136355615D01*
X128979436Y-136276389D01*
X129182484Y-136236000D01*
X129389516Y-136236000D01*
X129592564Y-136276389D01*
X129592564Y-136276389D01*
G37*
G36*
X127092564Y-136276389D02*
G01*
X127283833Y-136355615D01*
X127283835Y-136355616D01*
X127348819Y-136399037D01*
X127455973Y-136470635D01*
X127602365Y-136617027D01*
X127717385Y-136789167D01*
X127796611Y-136980436D01*
X127837000Y-137183484D01*
X127837000Y-137390516D01*
X127796611Y-137593564D01*
X127780083Y-137633466D01*
X127717384Y-137784835D01*
X127602365Y-137956973D01*
X127455973Y-138103365D01*
X127283835Y-138218384D01*
X127283834Y-138218385D01*
X127283833Y-138218385D01*
X127092564Y-138297611D01*
X126889516Y-138338000D01*
X126682484Y-138338000D01*
X126479436Y-138297611D01*
X126288167Y-138218385D01*
X126288166Y-138218385D01*
X126288165Y-138218384D01*
X126116027Y-138103365D01*
X125969635Y-137956973D01*
X125854616Y-137784835D01*
X125791917Y-137633466D01*
X125775389Y-137593564D01*
X125735000Y-137390516D01*
X125735000Y-137183484D01*
X125775389Y-136980436D01*
X125854615Y-136789167D01*
X125969635Y-136617027D01*
X126116027Y-136470635D01*
X126223181Y-136399037D01*
X126288165Y-136355616D01*
X126288167Y-136355615D01*
X126479436Y-136276389D01*
X126682484Y-136236000D01*
X126889516Y-136236000D01*
X127092564Y-136276389D01*
X127092564Y-136276389D01*
G37*
G36*
X124592564Y-136276389D02*
G01*
X124783833Y-136355615D01*
X124783835Y-136355616D01*
X124848819Y-136399037D01*
X124955973Y-136470635D01*
X125102365Y-136617027D01*
X125217385Y-136789167D01*
X125296611Y-136980436D01*
X125337000Y-137183484D01*
X125337000Y-137390516D01*
X125296611Y-137593564D01*
X125280083Y-137633466D01*
X125217384Y-137784835D01*
X125102365Y-137956973D01*
X124955973Y-138103365D01*
X124783835Y-138218384D01*
X124783834Y-138218385D01*
X124783833Y-138218385D01*
X124592564Y-138297611D01*
X124389516Y-138338000D01*
X124182484Y-138338000D01*
X123979436Y-138297611D01*
X123788167Y-138218385D01*
X123788166Y-138218385D01*
X123788165Y-138218384D01*
X123616027Y-138103365D01*
X123469635Y-137956973D01*
X123354616Y-137784835D01*
X123291917Y-137633466D01*
X123275389Y-137593564D01*
X123235000Y-137390516D01*
X123235000Y-137183484D01*
X123275389Y-136980436D01*
X123354615Y-136789167D01*
X123469635Y-136617027D01*
X123616027Y-136470635D01*
X123723181Y-136399037D01*
X123788165Y-136355616D01*
X123788167Y-136355615D01*
X123979436Y-136276389D01*
X124182484Y-136236000D01*
X124389516Y-136236000D01*
X124592564Y-136276389D01*
X124592564Y-136276389D01*
G37*
G36*
X114156443Y-136392519D02*
G01*
X114222627Y-136399037D01*
X114392466Y-136450557D01*
X114548991Y-136534222D01*
X114584729Y-136563552D01*
X114686186Y-136646814D01*
X114769448Y-136748271D01*
X114798778Y-136784009D01*
X114882443Y-136940534D01*
X114933963Y-137110373D01*
X114951359Y-137287000D01*
X114933963Y-137463627D01*
X114882443Y-137633466D01*
X114798778Y-137789991D01*
X114769448Y-137825729D01*
X114686186Y-137927186D01*
X114584729Y-138010448D01*
X114548991Y-138039778D01*
X114392466Y-138123443D01*
X114222627Y-138174963D01*
X114156443Y-138181481D01*
X114090260Y-138188000D01*
X114001740Y-138188000D01*
X113935557Y-138181481D01*
X113869373Y-138174963D01*
X113699534Y-138123443D01*
X113543009Y-138039778D01*
X113507271Y-138010448D01*
X113405814Y-137927186D01*
X113322552Y-137825729D01*
X113293222Y-137789991D01*
X113209557Y-137633466D01*
X113158037Y-137463627D01*
X113140641Y-137287000D01*
X113158037Y-137110373D01*
X113209557Y-136940534D01*
X113293222Y-136784009D01*
X113322552Y-136748271D01*
X113405814Y-136646814D01*
X113507271Y-136563552D01*
X113543009Y-136534222D01*
X113699534Y-136450557D01*
X113869373Y-136399037D01*
X113935557Y-136392519D01*
X114001740Y-136386000D01*
X114090260Y-136386000D01*
X114156443Y-136392519D01*
X114156443Y-136392519D01*
G37*
G36*
X114156442Y-133852518D02*
G01*
X114222627Y-133859037D01*
X114392466Y-133910557D01*
X114548991Y-133994222D01*
X114584729Y-134023552D01*
X114686186Y-134106814D01*
X114769448Y-134208271D01*
X114798778Y-134244009D01*
X114882443Y-134400534D01*
X114933963Y-134570373D01*
X114951359Y-134747000D01*
X114933963Y-134923627D01*
X114882443Y-135093466D01*
X114798778Y-135249991D01*
X114769448Y-135285729D01*
X114686186Y-135387186D01*
X114584729Y-135470448D01*
X114548991Y-135499778D01*
X114392466Y-135583443D01*
X114222627Y-135634963D01*
X114156442Y-135641482D01*
X114090260Y-135648000D01*
X114001740Y-135648000D01*
X113935558Y-135641482D01*
X113869373Y-135634963D01*
X113699534Y-135583443D01*
X113543009Y-135499778D01*
X113507271Y-135470448D01*
X113405814Y-135387186D01*
X113322552Y-135285729D01*
X113293222Y-135249991D01*
X113209557Y-135093466D01*
X113158037Y-134923627D01*
X113140641Y-134747000D01*
X113158037Y-134570373D01*
X113209557Y-134400534D01*
X113293222Y-134244009D01*
X113322552Y-134208271D01*
X113405814Y-134106814D01*
X113507271Y-134023552D01*
X113543009Y-133994222D01*
X113699534Y-133910557D01*
X113869373Y-133859037D01*
X113935558Y-133852518D01*
X114001740Y-133846000D01*
X114090260Y-133846000D01*
X114156442Y-133852518D01*
X114156442Y-133852518D01*
G37*
G36*
X114156442Y-131312518D02*
G01*
X114222627Y-131319037D01*
X114392466Y-131370557D01*
X114548991Y-131454222D01*
X114584729Y-131483552D01*
X114686186Y-131566814D01*
X114769448Y-131668271D01*
X114798778Y-131704009D01*
X114882443Y-131860534D01*
X114933963Y-132030373D01*
X114951359Y-132207000D01*
X114933963Y-132383627D01*
X114882443Y-132553466D01*
X114798778Y-132709991D01*
X114769448Y-132745729D01*
X114686186Y-132847186D01*
X114584729Y-132930448D01*
X114548991Y-132959778D01*
X114392466Y-133043443D01*
X114222627Y-133094963D01*
X114156443Y-133101481D01*
X114090260Y-133108000D01*
X114001740Y-133108000D01*
X113935557Y-133101481D01*
X113869373Y-133094963D01*
X113699534Y-133043443D01*
X113543009Y-132959778D01*
X113507271Y-132930448D01*
X113405814Y-132847186D01*
X113322552Y-132745729D01*
X113293222Y-132709991D01*
X113209557Y-132553466D01*
X113158037Y-132383627D01*
X113140641Y-132207000D01*
X113158037Y-132030373D01*
X113209557Y-131860534D01*
X113293222Y-131704009D01*
X113322552Y-131668271D01*
X113405814Y-131566814D01*
X113507271Y-131483552D01*
X113543009Y-131454222D01*
X113699534Y-131370557D01*
X113869373Y-131319037D01*
X113935558Y-131312518D01*
X114001740Y-131306000D01*
X114090260Y-131306000D01*
X114156442Y-131312518D01*
X114156442Y-131312518D01*
G37*
G36*
X133937000Y-131638000D02*
G01*
X131035000Y-131638000D01*
X131035000Y-127936000D01*
X133937000Y-127936000D01*
X133937000Y-131638000D01*
X133937000Y-131638000D01*
G37*
G36*
X122537000Y-131638000D02*
G01*
X119635000Y-131638000D01*
X119635000Y-127936000D01*
X122537000Y-127936000D01*
X122537000Y-131638000D01*
X122537000Y-131638000D01*
G37*
G36*
X114156442Y-128772518D02*
G01*
X114222627Y-128779037D01*
X114392466Y-128830557D01*
X114548991Y-128914222D01*
X114584729Y-128943552D01*
X114686186Y-129026814D01*
X114769448Y-129128271D01*
X114798778Y-129164009D01*
X114882443Y-129320534D01*
X114933963Y-129490373D01*
X114951359Y-129667000D01*
X114933963Y-129843627D01*
X114882443Y-130013466D01*
X114798778Y-130169991D01*
X114769448Y-130205729D01*
X114686186Y-130307186D01*
X114584729Y-130390448D01*
X114548991Y-130419778D01*
X114392466Y-130503443D01*
X114222627Y-130554963D01*
X114156443Y-130561481D01*
X114090260Y-130568000D01*
X114001740Y-130568000D01*
X113935557Y-130561481D01*
X113869373Y-130554963D01*
X113699534Y-130503443D01*
X113543009Y-130419778D01*
X113507271Y-130390448D01*
X113405814Y-130307186D01*
X113322552Y-130205729D01*
X113293222Y-130169991D01*
X113209557Y-130013466D01*
X113158037Y-129843627D01*
X113140641Y-129667000D01*
X113158037Y-129490373D01*
X113209557Y-129320534D01*
X113293222Y-129164009D01*
X113322552Y-129128271D01*
X113405814Y-129026814D01*
X113507271Y-128943552D01*
X113543009Y-128914222D01*
X113699534Y-128830557D01*
X113869373Y-128779037D01*
X113935558Y-128772518D01*
X114001740Y-128766000D01*
X114090260Y-128766000D01*
X114156442Y-128772518D01*
X114156442Y-128772518D01*
G37*
G36*
X114156442Y-126232518D02*
G01*
X114222627Y-126239037D01*
X114392466Y-126290557D01*
X114548991Y-126374222D01*
X114584729Y-126403552D01*
X114686186Y-126486814D01*
X114769448Y-126588271D01*
X114798778Y-126624009D01*
X114882443Y-126780534D01*
X114933963Y-126950373D01*
X114951359Y-127127000D01*
X114933963Y-127303627D01*
X114882443Y-127473466D01*
X114798778Y-127629991D01*
X114769448Y-127665729D01*
X114686186Y-127767186D01*
X114584729Y-127850448D01*
X114548991Y-127879778D01*
X114392466Y-127963443D01*
X114222627Y-128014963D01*
X114156442Y-128021482D01*
X114090260Y-128028000D01*
X114001740Y-128028000D01*
X113935558Y-128021482D01*
X113869373Y-128014963D01*
X113699534Y-127963443D01*
X113543009Y-127879778D01*
X113507271Y-127850448D01*
X113405814Y-127767186D01*
X113322552Y-127665729D01*
X113293222Y-127629991D01*
X113209557Y-127473466D01*
X113158037Y-127303627D01*
X113140641Y-127127000D01*
X113158037Y-126950373D01*
X113209557Y-126780534D01*
X113293222Y-126624009D01*
X113322552Y-126588271D01*
X113405814Y-126486814D01*
X113507271Y-126403552D01*
X113543009Y-126374222D01*
X113699534Y-126290557D01*
X113869373Y-126239037D01*
X113935558Y-126232518D01*
X114001740Y-126226000D01*
X114090260Y-126226000D01*
X114156442Y-126232518D01*
X114156442Y-126232518D01*
G37*
G36*
X114156443Y-123692519D02*
G01*
X114222627Y-123699037D01*
X114392466Y-123750557D01*
X114548991Y-123834222D01*
X114553594Y-123838000D01*
X114686186Y-123946814D01*
X114769448Y-124048271D01*
X114798778Y-124084009D01*
X114882443Y-124240534D01*
X114933963Y-124410373D01*
X114951359Y-124587000D01*
X114933963Y-124763627D01*
X114882443Y-124933466D01*
X114798778Y-125089991D01*
X114769448Y-125125729D01*
X114686186Y-125227186D01*
X114584729Y-125310448D01*
X114548991Y-125339778D01*
X114392466Y-125423443D01*
X114222627Y-125474963D01*
X114156442Y-125481482D01*
X114090260Y-125488000D01*
X114001740Y-125488000D01*
X113935558Y-125481482D01*
X113869373Y-125474963D01*
X113699534Y-125423443D01*
X113543009Y-125339778D01*
X113507271Y-125310448D01*
X113405814Y-125227186D01*
X113322552Y-125125729D01*
X113293222Y-125089991D01*
X113209557Y-124933466D01*
X113158037Y-124763627D01*
X113140641Y-124587000D01*
X113158037Y-124410373D01*
X113209557Y-124240534D01*
X113293222Y-124084009D01*
X113322552Y-124048271D01*
X113405814Y-123946814D01*
X113538406Y-123838000D01*
X113543009Y-123834222D01*
X113699534Y-123750557D01*
X113869373Y-123699037D01*
X113935557Y-123692519D01*
X114001740Y-123686000D01*
X114090260Y-123686000D01*
X114156443Y-123692519D01*
X114156443Y-123692519D01*
G37*
G36*
X129592564Y-121776389D02*
G01*
X129783833Y-121855615D01*
X129783835Y-121855616D01*
X129955973Y-121970635D01*
X130102365Y-122117027D01*
X130173592Y-122223625D01*
X130217385Y-122289167D01*
X130296611Y-122480436D01*
X130337000Y-122683484D01*
X130337000Y-122890516D01*
X130296611Y-123093564D01*
X130217385Y-123284833D01*
X130217384Y-123284835D01*
X130102365Y-123456973D01*
X129955973Y-123603365D01*
X129783835Y-123718384D01*
X129783834Y-123718385D01*
X129783833Y-123718385D01*
X129592564Y-123797611D01*
X129389516Y-123838000D01*
X129182484Y-123838000D01*
X128979436Y-123797611D01*
X128788167Y-123718385D01*
X128788166Y-123718385D01*
X128788165Y-123718384D01*
X128616027Y-123603365D01*
X128469635Y-123456973D01*
X128354616Y-123284835D01*
X128354615Y-123284833D01*
X128275389Y-123093564D01*
X128235000Y-122890516D01*
X128235000Y-122683484D01*
X128275389Y-122480436D01*
X128354615Y-122289167D01*
X128398409Y-122223625D01*
X128469635Y-122117027D01*
X128616027Y-121970635D01*
X128788165Y-121855616D01*
X128788167Y-121855615D01*
X128979436Y-121776389D01*
X129182484Y-121736000D01*
X129389516Y-121736000D01*
X129592564Y-121776389D01*
X129592564Y-121776389D01*
G37*
G36*
X124592564Y-121776389D02*
G01*
X124783833Y-121855615D01*
X124783835Y-121855616D01*
X124955973Y-121970635D01*
X125102365Y-122117027D01*
X125173592Y-122223625D01*
X125217385Y-122289167D01*
X125296611Y-122480436D01*
X125337000Y-122683484D01*
X125337000Y-122890516D01*
X125296611Y-123093564D01*
X125217385Y-123284833D01*
X125217384Y-123284835D01*
X125102365Y-123456973D01*
X124955973Y-123603365D01*
X124783835Y-123718384D01*
X124783834Y-123718385D01*
X124783833Y-123718385D01*
X124592564Y-123797611D01*
X124389516Y-123838000D01*
X124182484Y-123838000D01*
X123979436Y-123797611D01*
X123788167Y-123718385D01*
X123788166Y-123718385D01*
X123788165Y-123718384D01*
X123616027Y-123603365D01*
X123469635Y-123456973D01*
X123354616Y-123284835D01*
X123354615Y-123284833D01*
X123275389Y-123093564D01*
X123235000Y-122890516D01*
X123235000Y-122683484D01*
X123275389Y-122480436D01*
X123354615Y-122289167D01*
X123398409Y-122223625D01*
X123469635Y-122117027D01*
X123616027Y-121970635D01*
X123788165Y-121855616D01*
X123788167Y-121855615D01*
X123979436Y-121776389D01*
X124182484Y-121736000D01*
X124389516Y-121736000D01*
X124592564Y-121776389D01*
X124592564Y-121776389D01*
G37*
G36*
X114156443Y-121152519D02*
G01*
X114222627Y-121159037D01*
X114392466Y-121210557D01*
X114548991Y-121294222D01*
X114584729Y-121323552D01*
X114686186Y-121406814D01*
X114769448Y-121508271D01*
X114798778Y-121544009D01*
X114882443Y-121700534D01*
X114933963Y-121870373D01*
X114951359Y-122047000D01*
X114933963Y-122223627D01*
X114882443Y-122393466D01*
X114798778Y-122549991D01*
X114769448Y-122585729D01*
X114686186Y-122687186D01*
X114584729Y-122770448D01*
X114548991Y-122799778D01*
X114392466Y-122883443D01*
X114222627Y-122934963D01*
X114156442Y-122941482D01*
X114090260Y-122948000D01*
X114001740Y-122948000D01*
X113935558Y-122941482D01*
X113869373Y-122934963D01*
X113699534Y-122883443D01*
X113543009Y-122799778D01*
X113507271Y-122770448D01*
X113405814Y-122687186D01*
X113322552Y-122585729D01*
X113293222Y-122549991D01*
X113209557Y-122393466D01*
X113158037Y-122223627D01*
X113140641Y-122047000D01*
X113158037Y-121870373D01*
X113209557Y-121700534D01*
X113293222Y-121544009D01*
X113322552Y-121508271D01*
X113405814Y-121406814D01*
X113507271Y-121323552D01*
X113543009Y-121294222D01*
X113699534Y-121210557D01*
X113869373Y-121159037D01*
X113935557Y-121152519D01*
X114001740Y-121146000D01*
X114090260Y-121146000D01*
X114156443Y-121152519D01*
X114156443Y-121152519D01*
G37*
G36*
X114156442Y-118612518D02*
G01*
X114222627Y-118619037D01*
X114392466Y-118670557D01*
X114548991Y-118754222D01*
X114584729Y-118783552D01*
X114686186Y-118866814D01*
X114769448Y-118968271D01*
X114798778Y-119004009D01*
X114882443Y-119160534D01*
X114933963Y-119330373D01*
X114951359Y-119507000D01*
X114933963Y-119683627D01*
X114882443Y-119853466D01*
X114798778Y-120009991D01*
X114769448Y-120045729D01*
X114686186Y-120147186D01*
X114584729Y-120230448D01*
X114548991Y-120259778D01*
X114392466Y-120343443D01*
X114222627Y-120394963D01*
X114156443Y-120401481D01*
X114090260Y-120408000D01*
X114001740Y-120408000D01*
X113935557Y-120401481D01*
X113869373Y-120394963D01*
X113699534Y-120343443D01*
X113543009Y-120259778D01*
X113507271Y-120230448D01*
X113405814Y-120147186D01*
X113322552Y-120045729D01*
X113293222Y-120009991D01*
X113209557Y-119853466D01*
X113158037Y-119683627D01*
X113140641Y-119507000D01*
X113158037Y-119330373D01*
X113209557Y-119160534D01*
X113293222Y-119004009D01*
X113322552Y-118968271D01*
X113405814Y-118866814D01*
X113507271Y-118783552D01*
X113543009Y-118754222D01*
X113699534Y-118670557D01*
X113869373Y-118619037D01*
X113935558Y-118612518D01*
X114001740Y-118606000D01*
X114090260Y-118606000D01*
X114156442Y-118612518D01*
X114156442Y-118612518D01*
G37*
G36*
X62251542Y-113938918D02*
G01*
X62317727Y-113945437D01*
X62487566Y-113996957D01*
X62644091Y-114080622D01*
X62679829Y-114109952D01*
X62781286Y-114193214D01*
X62864548Y-114294671D01*
X62893878Y-114330409D01*
X62977543Y-114486934D01*
X63029063Y-114656773D01*
X63046459Y-114833400D01*
X63029063Y-115010027D01*
X62977543Y-115179866D01*
X62893878Y-115336391D01*
X62864548Y-115372129D01*
X62781286Y-115473586D01*
X62679829Y-115556848D01*
X62644091Y-115586178D01*
X62487566Y-115669843D01*
X62317727Y-115721363D01*
X62251543Y-115727881D01*
X62185360Y-115734400D01*
X62096840Y-115734400D01*
X62030657Y-115727881D01*
X61964473Y-115721363D01*
X61794634Y-115669843D01*
X61638109Y-115586178D01*
X61602371Y-115556848D01*
X61500914Y-115473586D01*
X61417652Y-115372129D01*
X61388322Y-115336391D01*
X61304657Y-115179866D01*
X61253137Y-115010027D01*
X61235741Y-114833400D01*
X61253137Y-114656773D01*
X61304657Y-114486934D01*
X61388322Y-114330409D01*
X61417652Y-114294671D01*
X61500914Y-114193214D01*
X61602371Y-114109952D01*
X61638109Y-114080622D01*
X61794634Y-113996957D01*
X61964473Y-113945437D01*
X62030658Y-113938918D01*
X62096840Y-113932400D01*
X62185360Y-113932400D01*
X62251542Y-113938918D01*
X62251542Y-113938918D01*
G37*
G36*
X64791542Y-113938918D02*
G01*
X64857727Y-113945437D01*
X65027566Y-113996957D01*
X65184091Y-114080622D01*
X65219829Y-114109952D01*
X65321286Y-114193214D01*
X65404548Y-114294671D01*
X65433878Y-114330409D01*
X65517543Y-114486934D01*
X65569063Y-114656773D01*
X65586459Y-114833400D01*
X65569063Y-115010027D01*
X65517543Y-115179866D01*
X65433878Y-115336391D01*
X65404548Y-115372129D01*
X65321286Y-115473586D01*
X65219829Y-115556848D01*
X65184091Y-115586178D01*
X65027566Y-115669843D01*
X64857727Y-115721363D01*
X64791543Y-115727881D01*
X64725360Y-115734400D01*
X64636840Y-115734400D01*
X64570657Y-115727881D01*
X64504473Y-115721363D01*
X64334634Y-115669843D01*
X64178109Y-115586178D01*
X64142371Y-115556848D01*
X64040914Y-115473586D01*
X63957652Y-115372129D01*
X63928322Y-115336391D01*
X63844657Y-115179866D01*
X63793137Y-115010027D01*
X63775741Y-114833400D01*
X63793137Y-114656773D01*
X63844657Y-114486934D01*
X63928322Y-114330409D01*
X63957652Y-114294671D01*
X64040914Y-114193214D01*
X64142371Y-114109952D01*
X64178109Y-114080622D01*
X64334634Y-113996957D01*
X64504473Y-113945437D01*
X64570658Y-113938918D01*
X64636840Y-113932400D01*
X64725360Y-113932400D01*
X64791542Y-113938918D01*
X64791542Y-113938918D01*
G37*
G36*
X80822100Y-115734400D02*
G01*
X79020100Y-115734400D01*
X79020100Y-113932400D01*
X80822100Y-113932400D01*
X80822100Y-115734400D01*
X80822100Y-115734400D01*
G37*
G36*
X77491542Y-113938918D02*
G01*
X77557727Y-113945437D01*
X77727566Y-113996957D01*
X77884091Y-114080622D01*
X77919829Y-114109952D01*
X78021286Y-114193214D01*
X78104548Y-114294671D01*
X78133878Y-114330409D01*
X78217543Y-114486934D01*
X78269063Y-114656773D01*
X78286459Y-114833400D01*
X78269063Y-115010027D01*
X78217543Y-115179866D01*
X78133878Y-115336391D01*
X78104548Y-115372129D01*
X78021286Y-115473586D01*
X77919829Y-115556848D01*
X77884091Y-115586178D01*
X77727566Y-115669843D01*
X77557727Y-115721363D01*
X77491543Y-115727881D01*
X77425360Y-115734400D01*
X77336840Y-115734400D01*
X77270657Y-115727881D01*
X77204473Y-115721363D01*
X77034634Y-115669843D01*
X76878109Y-115586178D01*
X76842371Y-115556848D01*
X76740914Y-115473586D01*
X76657652Y-115372129D01*
X76628322Y-115336391D01*
X76544657Y-115179866D01*
X76493137Y-115010027D01*
X76475741Y-114833400D01*
X76493137Y-114656773D01*
X76544657Y-114486934D01*
X76628322Y-114330409D01*
X76657652Y-114294671D01*
X76740914Y-114193214D01*
X76842371Y-114109952D01*
X76878109Y-114080622D01*
X77034634Y-113996957D01*
X77204473Y-113945437D01*
X77270658Y-113938918D01*
X77336840Y-113932400D01*
X77425360Y-113932400D01*
X77491542Y-113938918D01*
X77491542Y-113938918D01*
G37*
G36*
X74951542Y-113938918D02*
G01*
X75017727Y-113945437D01*
X75187566Y-113996957D01*
X75344091Y-114080622D01*
X75379829Y-114109952D01*
X75481286Y-114193214D01*
X75564548Y-114294671D01*
X75593878Y-114330409D01*
X75677543Y-114486934D01*
X75729063Y-114656773D01*
X75746459Y-114833400D01*
X75729063Y-115010027D01*
X75677543Y-115179866D01*
X75593878Y-115336391D01*
X75564548Y-115372129D01*
X75481286Y-115473586D01*
X75379829Y-115556848D01*
X75344091Y-115586178D01*
X75187566Y-115669843D01*
X75017727Y-115721363D01*
X74951543Y-115727881D01*
X74885360Y-115734400D01*
X74796840Y-115734400D01*
X74730657Y-115727881D01*
X74664473Y-115721363D01*
X74494634Y-115669843D01*
X74338109Y-115586178D01*
X74302371Y-115556848D01*
X74200914Y-115473586D01*
X74117652Y-115372129D01*
X74088322Y-115336391D01*
X74004657Y-115179866D01*
X73953137Y-115010027D01*
X73935741Y-114833400D01*
X73953137Y-114656773D01*
X74004657Y-114486934D01*
X74088322Y-114330409D01*
X74117652Y-114294671D01*
X74200914Y-114193214D01*
X74302371Y-114109952D01*
X74338109Y-114080622D01*
X74494634Y-113996957D01*
X74664473Y-113945437D01*
X74730658Y-113938918D01*
X74796840Y-113932400D01*
X74885360Y-113932400D01*
X74951542Y-113938918D01*
X74951542Y-113938918D01*
G37*
G36*
X72411542Y-113938918D02*
G01*
X72477727Y-113945437D01*
X72647566Y-113996957D01*
X72804091Y-114080622D01*
X72839829Y-114109952D01*
X72941286Y-114193214D01*
X73024548Y-114294671D01*
X73053878Y-114330409D01*
X73137543Y-114486934D01*
X73189063Y-114656773D01*
X73206459Y-114833400D01*
X73189063Y-115010027D01*
X73137543Y-115179866D01*
X73053878Y-115336391D01*
X73024548Y-115372129D01*
X72941286Y-115473586D01*
X72839829Y-115556848D01*
X72804091Y-115586178D01*
X72647566Y-115669843D01*
X72477727Y-115721363D01*
X72411543Y-115727881D01*
X72345360Y-115734400D01*
X72256840Y-115734400D01*
X72190657Y-115727881D01*
X72124473Y-115721363D01*
X71954634Y-115669843D01*
X71798109Y-115586178D01*
X71762371Y-115556848D01*
X71660914Y-115473586D01*
X71577652Y-115372129D01*
X71548322Y-115336391D01*
X71464657Y-115179866D01*
X71413137Y-115010027D01*
X71395741Y-114833400D01*
X71413137Y-114656773D01*
X71464657Y-114486934D01*
X71548322Y-114330409D01*
X71577652Y-114294671D01*
X71660914Y-114193214D01*
X71762371Y-114109952D01*
X71798109Y-114080622D01*
X71954634Y-113996957D01*
X72124473Y-113945437D01*
X72190658Y-113938918D01*
X72256840Y-113932400D01*
X72345360Y-113932400D01*
X72411542Y-113938918D01*
X72411542Y-113938918D01*
G37*
G36*
X69871542Y-113938918D02*
G01*
X69937727Y-113945437D01*
X70107566Y-113996957D01*
X70264091Y-114080622D01*
X70299829Y-114109952D01*
X70401286Y-114193214D01*
X70484548Y-114294671D01*
X70513878Y-114330409D01*
X70597543Y-114486934D01*
X70649063Y-114656773D01*
X70666459Y-114833400D01*
X70649063Y-115010027D01*
X70597543Y-115179866D01*
X70513878Y-115336391D01*
X70484548Y-115372129D01*
X70401286Y-115473586D01*
X70299829Y-115556848D01*
X70264091Y-115586178D01*
X70107566Y-115669843D01*
X69937727Y-115721363D01*
X69871543Y-115727881D01*
X69805360Y-115734400D01*
X69716840Y-115734400D01*
X69650657Y-115727881D01*
X69584473Y-115721363D01*
X69414634Y-115669843D01*
X69258109Y-115586178D01*
X69222371Y-115556848D01*
X69120914Y-115473586D01*
X69037652Y-115372129D01*
X69008322Y-115336391D01*
X68924657Y-115179866D01*
X68873137Y-115010027D01*
X68855741Y-114833400D01*
X68873137Y-114656773D01*
X68924657Y-114486934D01*
X69008322Y-114330409D01*
X69037652Y-114294671D01*
X69120914Y-114193214D01*
X69222371Y-114109952D01*
X69258109Y-114080622D01*
X69414634Y-113996957D01*
X69584473Y-113945437D01*
X69650658Y-113938918D01*
X69716840Y-113932400D01*
X69805360Y-113932400D01*
X69871542Y-113938918D01*
X69871542Y-113938918D01*
G37*
G36*
X67331542Y-113938918D02*
G01*
X67397727Y-113945437D01*
X67567566Y-113996957D01*
X67724091Y-114080622D01*
X67759829Y-114109952D01*
X67861286Y-114193214D01*
X67944548Y-114294671D01*
X67973878Y-114330409D01*
X68057543Y-114486934D01*
X68109063Y-114656773D01*
X68126459Y-114833400D01*
X68109063Y-115010027D01*
X68057543Y-115179866D01*
X67973878Y-115336391D01*
X67944548Y-115372129D01*
X67861286Y-115473586D01*
X67759829Y-115556848D01*
X67724091Y-115586178D01*
X67567566Y-115669843D01*
X67397727Y-115721363D01*
X67331543Y-115727881D01*
X67265360Y-115734400D01*
X67176840Y-115734400D01*
X67110657Y-115727881D01*
X67044473Y-115721363D01*
X66874634Y-115669843D01*
X66718109Y-115586178D01*
X66682371Y-115556848D01*
X66580914Y-115473586D01*
X66497652Y-115372129D01*
X66468322Y-115336391D01*
X66384657Y-115179866D01*
X66333137Y-115010027D01*
X66315741Y-114833400D01*
X66333137Y-114656773D01*
X66384657Y-114486934D01*
X66468322Y-114330409D01*
X66497652Y-114294671D01*
X66580914Y-114193214D01*
X66682371Y-114109952D01*
X66718109Y-114080622D01*
X66874634Y-113996957D01*
X67044473Y-113945437D01*
X67110658Y-113938918D01*
X67176840Y-113932400D01*
X67265360Y-113932400D01*
X67331542Y-113938918D01*
X67331542Y-113938918D01*
G37*
G36*
X57171542Y-113938918D02*
G01*
X57237727Y-113945437D01*
X57407566Y-113996957D01*
X57564091Y-114080622D01*
X57599829Y-114109952D01*
X57701286Y-114193214D01*
X57784548Y-114294671D01*
X57813878Y-114330409D01*
X57897543Y-114486934D01*
X57949063Y-114656773D01*
X57966459Y-114833400D01*
X57949063Y-115010027D01*
X57897543Y-115179866D01*
X57813878Y-115336391D01*
X57784548Y-115372129D01*
X57701286Y-115473586D01*
X57599829Y-115556848D01*
X57564091Y-115586178D01*
X57407566Y-115669843D01*
X57237727Y-115721363D01*
X57171543Y-115727881D01*
X57105360Y-115734400D01*
X57016840Y-115734400D01*
X56950657Y-115727881D01*
X56884473Y-115721363D01*
X56714634Y-115669843D01*
X56558109Y-115586178D01*
X56522371Y-115556848D01*
X56420914Y-115473586D01*
X56337652Y-115372129D01*
X56308322Y-115336391D01*
X56224657Y-115179866D01*
X56173137Y-115010027D01*
X56155741Y-114833400D01*
X56173137Y-114656773D01*
X56224657Y-114486934D01*
X56308322Y-114330409D01*
X56337652Y-114294671D01*
X56420914Y-114193214D01*
X56522371Y-114109952D01*
X56558109Y-114080622D01*
X56714634Y-113996957D01*
X56884473Y-113945437D01*
X56950658Y-113938918D01*
X57016840Y-113932400D01*
X57105360Y-113932400D01*
X57171542Y-113938918D01*
X57171542Y-113938918D01*
G37*
G36*
X59711542Y-113938918D02*
G01*
X59777727Y-113945437D01*
X59947566Y-113996957D01*
X60104091Y-114080622D01*
X60139829Y-114109952D01*
X60241286Y-114193214D01*
X60324548Y-114294671D01*
X60353878Y-114330409D01*
X60437543Y-114486934D01*
X60489063Y-114656773D01*
X60506459Y-114833400D01*
X60489063Y-115010027D01*
X60437543Y-115179866D01*
X60353878Y-115336391D01*
X60324548Y-115372129D01*
X60241286Y-115473586D01*
X60139829Y-115556848D01*
X60104091Y-115586178D01*
X59947566Y-115669843D01*
X59777727Y-115721363D01*
X59711543Y-115727881D01*
X59645360Y-115734400D01*
X59556840Y-115734400D01*
X59490657Y-115727881D01*
X59424473Y-115721363D01*
X59254634Y-115669843D01*
X59098109Y-115586178D01*
X59062371Y-115556848D01*
X58960914Y-115473586D01*
X58877652Y-115372129D01*
X58848322Y-115336391D01*
X58764657Y-115179866D01*
X58713137Y-115010027D01*
X58695741Y-114833400D01*
X58713137Y-114656773D01*
X58764657Y-114486934D01*
X58848322Y-114330409D01*
X58877652Y-114294671D01*
X58960914Y-114193214D01*
X59062371Y-114109952D01*
X59098109Y-114080622D01*
X59254634Y-113996957D01*
X59424473Y-113945437D01*
X59490658Y-113938918D01*
X59556840Y-113932400D01*
X59645360Y-113932400D01*
X59711542Y-113938918D01*
X59711542Y-113938918D01*
G37*
M02*
