G04 #@! TF.GenerationSoftware,KiCad,Pcbnew,(5.1.4-0)*
G04 #@! TF.CreationDate,2019-11-11T14:47:22+00:00*
G04 #@! TF.ProjectId,2M_DRA818V_Transceiver_Buttons,324d5f44-5241-4383-9138-565f5472616e,rev?*
G04 #@! TF.SameCoordinates,Original*
G04 #@! TF.FileFunction,Legend,Bot*
G04 #@! TF.FilePolarity,Positive*
%FSLAX46Y46*%
G04 Gerber Fmt 4.6, Leading zero omitted, Abs format (unit mm)*
G04 Created by KiCad (PCBNEW (5.1.4-0)) date 2019-11-11 14:47:22*
%MOMM*%
%LPD*%
G04 APERTURE LIST*
%ADD10C,0.120000*%
%ADD11C,0.150000*%
G04 APERTURE END LIST*
D10*
X148560000Y-126520000D02*
X148560000Y-90960000D01*
X148560000Y-90960000D02*
X120620000Y-90960000D01*
X120620000Y-90960000D02*
X120620000Y-126520000D01*
X120620000Y-126520000D02*
X148560000Y-126520000D01*
D11*
X146761904Y-114202380D02*
X146761904Y-115011904D01*
X146714285Y-115107142D01*
X146666666Y-115154761D01*
X146571428Y-115202380D01*
X146380952Y-115202380D01*
X146285714Y-115154761D01*
X146238095Y-115107142D01*
X146190476Y-115011904D01*
X146190476Y-114202380D01*
X145190476Y-115202380D02*
X145761904Y-115202380D01*
X145476190Y-115202380D02*
X145476190Y-114202380D01*
X145571428Y-114345238D01*
X145666666Y-114440476D01*
X145761904Y-114488095D01*
X137900000Y-121948095D02*
X137852380Y-121852857D01*
X137852380Y-121710000D01*
X137900000Y-121567142D01*
X137995238Y-121471904D01*
X138090476Y-121424285D01*
X138280952Y-121376666D01*
X138423809Y-121376666D01*
X138614285Y-121424285D01*
X138709523Y-121471904D01*
X138804761Y-121567142D01*
X138852380Y-121710000D01*
X138852380Y-121805238D01*
X138804761Y-121948095D01*
X138757142Y-121995714D01*
X138423809Y-121995714D01*
X138423809Y-121805238D01*
X138852380Y-122424285D02*
X137852380Y-122424285D01*
X138852380Y-122995714D01*
X137852380Y-122995714D01*
X138852380Y-123471904D02*
X137852380Y-123471904D01*
X137852380Y-123710000D01*
X137900000Y-123852857D01*
X137995238Y-123948095D01*
X138090476Y-123995714D01*
X138280952Y-124043333D01*
X138423809Y-124043333D01*
X138614285Y-123995714D01*
X138709523Y-123948095D01*
X138804761Y-123852857D01*
X138852380Y-123710000D01*
X138852380Y-123471904D01*
X135312380Y-122019523D02*
X135312380Y-122590952D01*
X136312380Y-122305238D02*
X135312380Y-122305238D01*
X136312380Y-122829047D02*
X135645714Y-123352857D01*
X135645714Y-122829047D02*
X136312380Y-123352857D01*
X133772380Y-122614761D02*
X133296190Y-122281428D01*
X133772380Y-122043333D02*
X132772380Y-122043333D01*
X132772380Y-122424285D01*
X132820000Y-122519523D01*
X132867619Y-122567142D01*
X132962857Y-122614761D01*
X133105714Y-122614761D01*
X133200952Y-122567142D01*
X133248571Y-122519523D01*
X133296190Y-122424285D01*
X133296190Y-122043333D01*
X133772380Y-122948095D02*
X133105714Y-123471904D01*
X133105714Y-122948095D02*
X133772380Y-123471904D01*
X130232380Y-121376666D02*
X131232380Y-121710000D01*
X130232380Y-122043333D01*
X131137142Y-122948095D02*
X131184761Y-122900476D01*
X131232380Y-122757619D01*
X131232380Y-122662380D01*
X131184761Y-122519523D01*
X131089523Y-122424285D01*
X130994285Y-122376666D01*
X130803809Y-122329047D01*
X130660952Y-122329047D01*
X130470476Y-122376666D01*
X130375238Y-122424285D01*
X130280000Y-122519523D01*
X130232380Y-122662380D01*
X130232380Y-122757619D01*
X130280000Y-122900476D01*
X130327619Y-122948095D01*
X131137142Y-123948095D02*
X131184761Y-123900476D01*
X131232380Y-123757619D01*
X131232380Y-123662380D01*
X131184761Y-123519523D01*
X131089523Y-123424285D01*
X130994285Y-123376666D01*
X130803809Y-123329047D01*
X130660952Y-123329047D01*
X130470476Y-123376666D01*
X130375238Y-123424285D01*
X130280000Y-123519523D01*
X130232380Y-123662380D01*
X130232380Y-123757619D01*
X130280000Y-123900476D01*
X130327619Y-123948095D01*
M02*
