G04 #@! TF.GenerationSoftware,KiCad,Pcbnew,(5.1.4-0)*
G04 #@! TF.CreationDate,2019-11-11T14:47:22+00:00*
G04 #@! TF.ProjectId,2M_DRA818V_Transceiver_Buttons,324d5f44-5241-4383-9138-565f5472616e,rev?*
G04 #@! TF.SameCoordinates,Original*
G04 #@! TF.FileFunction,Copper,L1,Top*
G04 #@! TF.FilePolarity,Positive*
%FSLAX46Y46*%
G04 Gerber Fmt 4.6, Leading zero omitted, Abs format (unit mm)*
G04 Created by KiCad (PCBNEW (5.1.4-0)) date 2019-11-11 14:47:22*
%MOMM*%
%LPD*%
G04 APERTURE LIST*
%ADD10R,2.100000X2.100000*%
%ADD11C,2.100000*%
%ADD12C,1.524000*%
%ADD13C,4.000000*%
%ADD14R,1.700000X1.700000*%
%ADD15O,1.700000X1.700000*%
%ADD16C,0.600000*%
%ADD17C,0.254000*%
G04 APERTURE END LIST*
D10*
X95250000Y-102250000D03*
D11*
X100250000Y-97250000D03*
X95250000Y-97250000D03*
X100250000Y-102250000D03*
X100250000Y-118500000D03*
X95250000Y-113500000D03*
X100250000Y-113500000D03*
D10*
X95250000Y-118500000D03*
X82250000Y-110000000D03*
D11*
X87250000Y-105000000D03*
X82250000Y-105000000D03*
X87250000Y-110000000D03*
X113250000Y-110000000D03*
X108250000Y-105000000D03*
X113250000Y-105000000D03*
D10*
X108250000Y-110000000D03*
X132500000Y-110000000D03*
D11*
X137500000Y-105000000D03*
X132500000Y-105000000D03*
X137500000Y-110000000D03*
D12*
X138400000Y-125250000D03*
X135860000Y-125250000D03*
X133320000Y-125250000D03*
X130780000Y-125250000D03*
D13*
X144750000Y-123980000D03*
X144750000Y-93500000D03*
X124430000Y-93500000D03*
X124430000Y-123980000D03*
D14*
X91000000Y-128750000D03*
D15*
X88460000Y-128750000D03*
X85920000Y-128750000D03*
X83380000Y-128750000D03*
X80840000Y-128750000D03*
X78300000Y-128750000D03*
X75760000Y-128750000D03*
X73220000Y-128750000D03*
X70680000Y-128750000D03*
X68140000Y-128750000D03*
D16*
X78282800Y-130302000D02*
X78300000Y-130284800D01*
X78300000Y-130284800D02*
X78300000Y-128750000D01*
X82880200Y-134899400D02*
X78282800Y-130302000D01*
X126210600Y-134899400D02*
X82880200Y-134899400D01*
X135860000Y-125250000D02*
X126210600Y-134899400D01*
X137500000Y-110000000D02*
X137500000Y-105000000D01*
X136500000Y-113500000D02*
X137500000Y-112500000D01*
X106146000Y-133604000D02*
X126250000Y-113500000D01*
X137500000Y-112500000D02*
X137500000Y-110000000D01*
X84124800Y-133604000D02*
X106146000Y-133604000D01*
X126250000Y-113500000D02*
X136500000Y-113500000D01*
X80822800Y-130302000D02*
X84124800Y-133604000D01*
X80840000Y-130284800D02*
X80822800Y-130302000D01*
X80840000Y-128750000D02*
X80840000Y-130284800D01*
D17*
G36*
X152373000Y-140310000D02*
G01*
X58627000Y-140310000D01*
X58627000Y-129106891D01*
X66698519Y-129106891D01*
X66795843Y-129381252D01*
X66944822Y-129631355D01*
X67139731Y-129847588D01*
X67373080Y-130021641D01*
X67635901Y-130146825D01*
X67783110Y-130191476D01*
X68013000Y-130070155D01*
X68013000Y-128877000D01*
X66819186Y-128877000D01*
X66698519Y-129106891D01*
X58627000Y-129106891D01*
X58627000Y-128393109D01*
X66698519Y-128393109D01*
X66819186Y-128623000D01*
X68013000Y-128623000D01*
X68013000Y-127429845D01*
X68267000Y-127429845D01*
X68267000Y-128623000D01*
X68287000Y-128623000D01*
X68287000Y-128877000D01*
X68267000Y-128877000D01*
X68267000Y-130070155D01*
X68496890Y-130191476D01*
X68644099Y-130146825D01*
X68906920Y-130021641D01*
X69140269Y-129847588D01*
X69335178Y-129631355D01*
X69404799Y-129514477D01*
X69439294Y-129579014D01*
X69624866Y-129805134D01*
X69850986Y-129990706D01*
X70108966Y-130128599D01*
X70388889Y-130213513D01*
X70607050Y-130235000D01*
X70752950Y-130235000D01*
X70971111Y-130213513D01*
X71251034Y-130128599D01*
X71509014Y-129990706D01*
X71735134Y-129805134D01*
X71920706Y-129579014D01*
X71955201Y-129514477D01*
X72024822Y-129631355D01*
X72219731Y-129847588D01*
X72453080Y-130021641D01*
X72715901Y-130146825D01*
X72863110Y-130191476D01*
X73093000Y-130070155D01*
X73093000Y-128877000D01*
X73073000Y-128877000D01*
X73073000Y-128623000D01*
X73093000Y-128623000D01*
X73093000Y-127429845D01*
X73347000Y-127429845D01*
X73347000Y-128623000D01*
X73367000Y-128623000D01*
X73367000Y-128877000D01*
X73347000Y-128877000D01*
X73347000Y-130070155D01*
X73576890Y-130191476D01*
X73724099Y-130146825D01*
X73986920Y-130021641D01*
X74220269Y-129847588D01*
X74415178Y-129631355D01*
X74484799Y-129514477D01*
X74519294Y-129579014D01*
X74704866Y-129805134D01*
X74930986Y-129990706D01*
X75188966Y-130128599D01*
X75468889Y-130213513D01*
X75687050Y-130235000D01*
X75832950Y-130235000D01*
X76051111Y-130213513D01*
X76331034Y-130128599D01*
X76589014Y-129990706D01*
X76815134Y-129805134D01*
X77000706Y-129579014D01*
X77030000Y-129524209D01*
X77059294Y-129579014D01*
X77244866Y-129805134D01*
X77365000Y-129903726D01*
X77365000Y-130106607D01*
X77361329Y-130118709D01*
X77343276Y-130302000D01*
X77361329Y-130485291D01*
X77414794Y-130661540D01*
X77501615Y-130823971D01*
X77589177Y-130930666D01*
X77589180Y-130930669D01*
X77618457Y-130966343D01*
X77654131Y-130995620D01*
X82186574Y-135528064D01*
X82215856Y-135563744D01*
X82358228Y-135680586D01*
X82520660Y-135767407D01*
X82643443Y-135804653D01*
X82696907Y-135820871D01*
X82715310Y-135822683D01*
X82834268Y-135834400D01*
X82834274Y-135834400D01*
X82880199Y-135838923D01*
X82926124Y-135834400D01*
X126164668Y-135834400D01*
X126210600Y-135838924D01*
X126256532Y-135834400D01*
X126393892Y-135820871D01*
X126570140Y-135767407D01*
X126732572Y-135680586D01*
X126874944Y-135563744D01*
X126904230Y-135528059D01*
X135785290Y-126647000D01*
X135997592Y-126647000D01*
X136267490Y-126593314D01*
X136521727Y-126488005D01*
X136750535Y-126335120D01*
X136870090Y-126215565D01*
X137614040Y-126215565D01*
X137681020Y-126455656D01*
X137930048Y-126572756D01*
X138197135Y-126639023D01*
X138472017Y-126651910D01*
X138744133Y-126610922D01*
X139003023Y-126517636D01*
X139118980Y-126455656D01*
X139185960Y-126215565D01*
X138400000Y-125429605D01*
X137614040Y-126215565D01*
X136870090Y-126215565D01*
X136945120Y-126140535D01*
X137098005Y-125911727D01*
X137127692Y-125840057D01*
X137132364Y-125853023D01*
X137194344Y-125968980D01*
X137434435Y-126035960D01*
X138220395Y-125250000D01*
X138579605Y-125250000D01*
X139365565Y-126035960D01*
X139605656Y-125968980D01*
X139722756Y-125719952D01*
X139789023Y-125452865D01*
X139801910Y-125177983D01*
X139760922Y-124905867D01*
X139667636Y-124646977D01*
X139605656Y-124531020D01*
X139365565Y-124464040D01*
X138579605Y-125250000D01*
X138220395Y-125250000D01*
X137434435Y-124464040D01*
X137194344Y-124531020D01*
X137130515Y-124666760D01*
X137098005Y-124588273D01*
X136945120Y-124359465D01*
X136870090Y-124284435D01*
X137614040Y-124284435D01*
X138400000Y-125070395D01*
X139185960Y-124284435D01*
X139118980Y-124044344D01*
X138869952Y-123927244D01*
X138602865Y-123860977D01*
X138327983Y-123848090D01*
X138055867Y-123889078D01*
X137796977Y-123982364D01*
X137681020Y-124044344D01*
X137614040Y-124284435D01*
X136870090Y-124284435D01*
X136750535Y-124164880D01*
X136521727Y-124011995D01*
X136267490Y-123906686D01*
X135997592Y-123853000D01*
X135722408Y-123853000D01*
X135452510Y-123906686D01*
X135198273Y-124011995D01*
X134969465Y-124164880D01*
X134774880Y-124359465D01*
X134621995Y-124588273D01*
X134590000Y-124665515D01*
X134558005Y-124588273D01*
X134405120Y-124359465D01*
X134210535Y-124164880D01*
X133981727Y-124011995D01*
X133727490Y-123906686D01*
X133457592Y-123853000D01*
X133182408Y-123853000D01*
X132912510Y-123906686D01*
X132658273Y-124011995D01*
X132429465Y-124164880D01*
X132234880Y-124359465D01*
X132081995Y-124588273D01*
X132050000Y-124665515D01*
X132018005Y-124588273D01*
X131865120Y-124359465D01*
X131670535Y-124164880D01*
X131441727Y-124011995D01*
X131187490Y-123906686D01*
X130917592Y-123853000D01*
X130642408Y-123853000D01*
X130372510Y-123906686D01*
X130118273Y-124011995D01*
X129889465Y-124164880D01*
X129694880Y-124359465D01*
X129541995Y-124588273D01*
X129436686Y-124842510D01*
X129383000Y-125112408D01*
X129383000Y-125387592D01*
X129436686Y-125657490D01*
X129541995Y-125911727D01*
X129694880Y-126140535D01*
X129889465Y-126335120D01*
X130118273Y-126488005D01*
X130372510Y-126593314D01*
X130642408Y-126647000D01*
X130917592Y-126647000D01*
X131187490Y-126593314D01*
X131441727Y-126488005D01*
X131670535Y-126335120D01*
X131865120Y-126140535D01*
X132018005Y-125911727D01*
X132050000Y-125834485D01*
X132081995Y-125911727D01*
X132234880Y-126140535D01*
X132429465Y-126335120D01*
X132658273Y-126488005D01*
X132912510Y-126593314D01*
X133147628Y-126640082D01*
X125823311Y-133964400D01*
X107107889Y-133964400D01*
X117351814Y-123720475D01*
X121795000Y-123720475D01*
X121795000Y-124239525D01*
X121896261Y-124748601D01*
X122094893Y-125228141D01*
X122383262Y-125659715D01*
X122750285Y-126026738D01*
X123181859Y-126315107D01*
X123661399Y-126513739D01*
X124170475Y-126615000D01*
X124689525Y-126615000D01*
X125198601Y-126513739D01*
X125678141Y-126315107D01*
X126109715Y-126026738D01*
X126476738Y-125659715D01*
X126765107Y-125228141D01*
X126963739Y-124748601D01*
X127065000Y-124239525D01*
X127065000Y-123720475D01*
X142115000Y-123720475D01*
X142115000Y-124239525D01*
X142216261Y-124748601D01*
X142414893Y-125228141D01*
X142703262Y-125659715D01*
X143070285Y-126026738D01*
X143501859Y-126315107D01*
X143981399Y-126513739D01*
X144490475Y-126615000D01*
X145009525Y-126615000D01*
X145518601Y-126513739D01*
X145998141Y-126315107D01*
X146429715Y-126026738D01*
X146796738Y-125659715D01*
X147085107Y-125228141D01*
X147283739Y-124748601D01*
X147385000Y-124239525D01*
X147385000Y-123720475D01*
X147283739Y-123211399D01*
X147085107Y-122731859D01*
X146796738Y-122300285D01*
X146429715Y-121933262D01*
X145998141Y-121644893D01*
X145518601Y-121446261D01*
X145009525Y-121345000D01*
X144490475Y-121345000D01*
X143981399Y-121446261D01*
X143501859Y-121644893D01*
X143070285Y-121933262D01*
X142703262Y-122300285D01*
X142414893Y-122731859D01*
X142216261Y-123211399D01*
X142115000Y-123720475D01*
X127065000Y-123720475D01*
X126963739Y-123211399D01*
X126765107Y-122731859D01*
X126476738Y-122300285D01*
X126109715Y-121933262D01*
X125678141Y-121644893D01*
X125198601Y-121446261D01*
X124689525Y-121345000D01*
X124170475Y-121345000D01*
X123661399Y-121446261D01*
X123181859Y-121644893D01*
X122750285Y-121933262D01*
X122383262Y-122300285D01*
X122094893Y-122731859D01*
X121896261Y-123211399D01*
X121795000Y-123720475D01*
X117351814Y-123720475D01*
X126637290Y-114435000D01*
X136454068Y-114435000D01*
X136500000Y-114439524D01*
X136545932Y-114435000D01*
X136683292Y-114421471D01*
X136859540Y-114368007D01*
X137021972Y-114281186D01*
X137164344Y-114164344D01*
X137193630Y-114128659D01*
X138128660Y-113193629D01*
X138164344Y-113164344D01*
X138281186Y-113021972D01*
X138361703Y-112871334D01*
X138368007Y-112859541D01*
X138421472Y-112683292D01*
X138439524Y-112500000D01*
X138435000Y-112454065D01*
X138435000Y-111401786D01*
X138574125Y-111308825D01*
X138808825Y-111074125D01*
X138993228Y-110798147D01*
X139120246Y-110491496D01*
X139185000Y-110165958D01*
X139185000Y-109834042D01*
X139120246Y-109508504D01*
X138993228Y-109201853D01*
X138808825Y-108925875D01*
X138574125Y-108691175D01*
X138435000Y-108598214D01*
X138435000Y-106401786D01*
X138574125Y-106308825D01*
X138808825Y-106074125D01*
X138993228Y-105798147D01*
X139120246Y-105491496D01*
X139185000Y-105165958D01*
X139185000Y-104834042D01*
X139120246Y-104508504D01*
X138993228Y-104201853D01*
X138808825Y-103925875D01*
X138574125Y-103691175D01*
X138298147Y-103506772D01*
X137991496Y-103379754D01*
X137665958Y-103315000D01*
X137334042Y-103315000D01*
X137008504Y-103379754D01*
X136701853Y-103506772D01*
X136425875Y-103691175D01*
X136191175Y-103925875D01*
X136006772Y-104201853D01*
X135879754Y-104508504D01*
X135815000Y-104834042D01*
X135815000Y-105165958D01*
X135879754Y-105491496D01*
X136006772Y-105798147D01*
X136191175Y-106074125D01*
X136425875Y-106308825D01*
X136565001Y-106401786D01*
X136565000Y-108598214D01*
X136425875Y-108691175D01*
X136191175Y-108925875D01*
X136006772Y-109201853D01*
X135879754Y-109508504D01*
X135815000Y-109834042D01*
X135815000Y-110165958D01*
X135879754Y-110491496D01*
X136006772Y-110798147D01*
X136191175Y-111074125D01*
X136425875Y-111308825D01*
X136565000Y-111401786D01*
X136565000Y-112112711D01*
X136112711Y-112565000D01*
X126295924Y-112565000D01*
X126249999Y-112560477D01*
X126204074Y-112565000D01*
X126204068Y-112565000D01*
X126085110Y-112576717D01*
X126066707Y-112578529D01*
X126013243Y-112594747D01*
X125890460Y-112631993D01*
X125728028Y-112718814D01*
X125585656Y-112835656D01*
X125556376Y-112871334D01*
X105758711Y-132669000D01*
X84512090Y-132669000D01*
X81775000Y-129931911D01*
X81775000Y-129903725D01*
X81895134Y-129805134D01*
X82080706Y-129579014D01*
X82110000Y-129524209D01*
X82139294Y-129579014D01*
X82324866Y-129805134D01*
X82550986Y-129990706D01*
X82808966Y-130128599D01*
X83088889Y-130213513D01*
X83307050Y-130235000D01*
X83452950Y-130235000D01*
X83671111Y-130213513D01*
X83951034Y-130128599D01*
X84209014Y-129990706D01*
X84435134Y-129805134D01*
X84620706Y-129579014D01*
X84650000Y-129524209D01*
X84679294Y-129579014D01*
X84864866Y-129805134D01*
X85090986Y-129990706D01*
X85348966Y-130128599D01*
X85628889Y-130213513D01*
X85847050Y-130235000D01*
X85992950Y-130235000D01*
X86211111Y-130213513D01*
X86491034Y-130128599D01*
X86749014Y-129990706D01*
X86975134Y-129805134D01*
X87160706Y-129579014D01*
X87190000Y-129524209D01*
X87219294Y-129579014D01*
X87404866Y-129805134D01*
X87630986Y-129990706D01*
X87888966Y-130128599D01*
X88168889Y-130213513D01*
X88387050Y-130235000D01*
X88532950Y-130235000D01*
X88751111Y-130213513D01*
X89031034Y-130128599D01*
X89289014Y-129990706D01*
X89515134Y-129805134D01*
X89539607Y-129775313D01*
X89560498Y-129844180D01*
X89619463Y-129954494D01*
X89698815Y-130051185D01*
X89795506Y-130130537D01*
X89905820Y-130189502D01*
X90025518Y-130225812D01*
X90150000Y-130238072D01*
X91850000Y-130238072D01*
X91974482Y-130225812D01*
X92094180Y-130189502D01*
X92204494Y-130130537D01*
X92301185Y-130051185D01*
X92380537Y-129954494D01*
X92439502Y-129844180D01*
X92475812Y-129724482D01*
X92488072Y-129600000D01*
X92488072Y-127900000D01*
X92475812Y-127775518D01*
X92439502Y-127655820D01*
X92380537Y-127545506D01*
X92301185Y-127448815D01*
X92204494Y-127369463D01*
X92094180Y-127310498D01*
X91974482Y-127274188D01*
X91850000Y-127261928D01*
X90150000Y-127261928D01*
X90025518Y-127274188D01*
X89905820Y-127310498D01*
X89795506Y-127369463D01*
X89698815Y-127448815D01*
X89619463Y-127545506D01*
X89560498Y-127655820D01*
X89539607Y-127724687D01*
X89515134Y-127694866D01*
X89289014Y-127509294D01*
X89031034Y-127371401D01*
X88751111Y-127286487D01*
X88532950Y-127265000D01*
X88387050Y-127265000D01*
X88168889Y-127286487D01*
X87888966Y-127371401D01*
X87630986Y-127509294D01*
X87404866Y-127694866D01*
X87219294Y-127920986D01*
X87190000Y-127975791D01*
X87160706Y-127920986D01*
X86975134Y-127694866D01*
X86749014Y-127509294D01*
X86491034Y-127371401D01*
X86211111Y-127286487D01*
X85992950Y-127265000D01*
X85847050Y-127265000D01*
X85628889Y-127286487D01*
X85348966Y-127371401D01*
X85090986Y-127509294D01*
X84864866Y-127694866D01*
X84679294Y-127920986D01*
X84650000Y-127975791D01*
X84620706Y-127920986D01*
X84435134Y-127694866D01*
X84209014Y-127509294D01*
X83951034Y-127371401D01*
X83671111Y-127286487D01*
X83452950Y-127265000D01*
X83307050Y-127265000D01*
X83088889Y-127286487D01*
X82808966Y-127371401D01*
X82550986Y-127509294D01*
X82324866Y-127694866D01*
X82139294Y-127920986D01*
X82110000Y-127975791D01*
X82080706Y-127920986D01*
X81895134Y-127694866D01*
X81669014Y-127509294D01*
X81411034Y-127371401D01*
X81131111Y-127286487D01*
X80912950Y-127265000D01*
X80767050Y-127265000D01*
X80548889Y-127286487D01*
X80268966Y-127371401D01*
X80010986Y-127509294D01*
X79784866Y-127694866D01*
X79599294Y-127920986D01*
X79570000Y-127975791D01*
X79540706Y-127920986D01*
X79355134Y-127694866D01*
X79129014Y-127509294D01*
X78871034Y-127371401D01*
X78591111Y-127286487D01*
X78372950Y-127265000D01*
X78227050Y-127265000D01*
X78008889Y-127286487D01*
X77728966Y-127371401D01*
X77470986Y-127509294D01*
X77244866Y-127694866D01*
X77059294Y-127920986D01*
X77030000Y-127975791D01*
X77000706Y-127920986D01*
X76815134Y-127694866D01*
X76589014Y-127509294D01*
X76331034Y-127371401D01*
X76051111Y-127286487D01*
X75832950Y-127265000D01*
X75687050Y-127265000D01*
X75468889Y-127286487D01*
X75188966Y-127371401D01*
X74930986Y-127509294D01*
X74704866Y-127694866D01*
X74519294Y-127920986D01*
X74484799Y-127985523D01*
X74415178Y-127868645D01*
X74220269Y-127652412D01*
X73986920Y-127478359D01*
X73724099Y-127353175D01*
X73576890Y-127308524D01*
X73347000Y-127429845D01*
X73093000Y-127429845D01*
X72863110Y-127308524D01*
X72715901Y-127353175D01*
X72453080Y-127478359D01*
X72219731Y-127652412D01*
X72024822Y-127868645D01*
X71955201Y-127985523D01*
X71920706Y-127920986D01*
X71735134Y-127694866D01*
X71509014Y-127509294D01*
X71251034Y-127371401D01*
X70971111Y-127286487D01*
X70752950Y-127265000D01*
X70607050Y-127265000D01*
X70388889Y-127286487D01*
X70108966Y-127371401D01*
X69850986Y-127509294D01*
X69624866Y-127694866D01*
X69439294Y-127920986D01*
X69404799Y-127985523D01*
X69335178Y-127868645D01*
X69140269Y-127652412D01*
X68906920Y-127478359D01*
X68644099Y-127353175D01*
X68496890Y-127308524D01*
X68267000Y-127429845D01*
X68013000Y-127429845D01*
X67783110Y-127308524D01*
X67635901Y-127353175D01*
X67373080Y-127478359D01*
X67139731Y-127652412D01*
X66944822Y-127868645D01*
X66795843Y-128118748D01*
X66698519Y-128393109D01*
X58627000Y-128393109D01*
X58627000Y-119550000D01*
X93561928Y-119550000D01*
X93574188Y-119674482D01*
X93610498Y-119794180D01*
X93669463Y-119904494D01*
X93748815Y-120001185D01*
X93845506Y-120080537D01*
X93955820Y-120139502D01*
X94075518Y-120175812D01*
X94200000Y-120188072D01*
X94964250Y-120185000D01*
X95123000Y-120026250D01*
X95123000Y-118627000D01*
X95377000Y-118627000D01*
X95377000Y-120026250D01*
X95535750Y-120185000D01*
X96300000Y-120188072D01*
X96424482Y-120175812D01*
X96544180Y-120139502D01*
X96654494Y-120080537D01*
X96751185Y-120001185D01*
X96830537Y-119904494D01*
X96889502Y-119794180D01*
X96925812Y-119674482D01*
X96938072Y-119550000D01*
X96935000Y-118785750D01*
X96776250Y-118627000D01*
X95377000Y-118627000D01*
X95123000Y-118627000D01*
X93723750Y-118627000D01*
X93565000Y-118785750D01*
X93561928Y-119550000D01*
X58627000Y-119550000D01*
X58627000Y-117450000D01*
X93561928Y-117450000D01*
X93565000Y-118214250D01*
X93723750Y-118373000D01*
X95123000Y-118373000D01*
X95123000Y-116973750D01*
X95377000Y-116973750D01*
X95377000Y-118373000D01*
X96776250Y-118373000D01*
X96815208Y-118334042D01*
X98565000Y-118334042D01*
X98565000Y-118665958D01*
X98629754Y-118991496D01*
X98756772Y-119298147D01*
X98941175Y-119574125D01*
X99175875Y-119808825D01*
X99451853Y-119993228D01*
X99758504Y-120120246D01*
X100084042Y-120185000D01*
X100415958Y-120185000D01*
X100741496Y-120120246D01*
X101048147Y-119993228D01*
X101324125Y-119808825D01*
X101558825Y-119574125D01*
X101743228Y-119298147D01*
X101870246Y-118991496D01*
X101935000Y-118665958D01*
X101935000Y-118334042D01*
X101870246Y-118008504D01*
X101743228Y-117701853D01*
X101558825Y-117425875D01*
X101324125Y-117191175D01*
X101048147Y-117006772D01*
X100741496Y-116879754D01*
X100415958Y-116815000D01*
X100084042Y-116815000D01*
X99758504Y-116879754D01*
X99451853Y-117006772D01*
X99175875Y-117191175D01*
X98941175Y-117425875D01*
X98756772Y-117701853D01*
X98629754Y-118008504D01*
X98565000Y-118334042D01*
X96815208Y-118334042D01*
X96935000Y-118214250D01*
X96938072Y-117450000D01*
X96925812Y-117325518D01*
X96889502Y-117205820D01*
X96830537Y-117095506D01*
X96751185Y-116998815D01*
X96654494Y-116919463D01*
X96544180Y-116860498D01*
X96424482Y-116824188D01*
X96300000Y-116811928D01*
X95535750Y-116815000D01*
X95377000Y-116973750D01*
X95123000Y-116973750D01*
X94964250Y-116815000D01*
X94200000Y-116811928D01*
X94075518Y-116824188D01*
X93955820Y-116860498D01*
X93845506Y-116919463D01*
X93748815Y-116998815D01*
X93669463Y-117095506D01*
X93610498Y-117205820D01*
X93574188Y-117325518D01*
X93561928Y-117450000D01*
X58627000Y-117450000D01*
X58627000Y-114671066D01*
X94258539Y-114671066D01*
X94360339Y-114940579D01*
X94658477Y-115086463D01*
X94979346Y-115171380D01*
X95310617Y-115192066D01*
X95639557Y-115147728D01*
X95953527Y-115040069D01*
X96139661Y-114940579D01*
X96241461Y-114671066D01*
X95250000Y-113679605D01*
X94258539Y-114671066D01*
X58627000Y-114671066D01*
X58627000Y-113560617D01*
X93557934Y-113560617D01*
X93602272Y-113889557D01*
X93709931Y-114203527D01*
X93809421Y-114389661D01*
X94078934Y-114491461D01*
X95070395Y-113500000D01*
X95429605Y-113500000D01*
X96421066Y-114491461D01*
X96690579Y-114389661D01*
X96836463Y-114091523D01*
X96921380Y-113770654D01*
X96942066Y-113439383D01*
X96927868Y-113334042D01*
X98565000Y-113334042D01*
X98565000Y-113665958D01*
X98629754Y-113991496D01*
X98756772Y-114298147D01*
X98941175Y-114574125D01*
X99175875Y-114808825D01*
X99451853Y-114993228D01*
X99758504Y-115120246D01*
X100084042Y-115185000D01*
X100415958Y-115185000D01*
X100741496Y-115120246D01*
X101048147Y-114993228D01*
X101324125Y-114808825D01*
X101558825Y-114574125D01*
X101743228Y-114298147D01*
X101870246Y-113991496D01*
X101935000Y-113665958D01*
X101935000Y-113334042D01*
X101870246Y-113008504D01*
X101743228Y-112701853D01*
X101558825Y-112425875D01*
X101324125Y-112191175D01*
X101048147Y-112006772D01*
X100741496Y-111879754D01*
X100415958Y-111815000D01*
X100084042Y-111815000D01*
X99758504Y-111879754D01*
X99451853Y-112006772D01*
X99175875Y-112191175D01*
X98941175Y-112425875D01*
X98756772Y-112701853D01*
X98629754Y-113008504D01*
X98565000Y-113334042D01*
X96927868Y-113334042D01*
X96897728Y-113110443D01*
X96790069Y-112796473D01*
X96690579Y-112610339D01*
X96421066Y-112508539D01*
X95429605Y-113500000D01*
X95070395Y-113500000D01*
X94078934Y-112508539D01*
X93809421Y-112610339D01*
X93663537Y-112908477D01*
X93578620Y-113229346D01*
X93557934Y-113560617D01*
X58627000Y-113560617D01*
X58627000Y-112328934D01*
X94258539Y-112328934D01*
X95250000Y-113320395D01*
X96241461Y-112328934D01*
X96139661Y-112059421D01*
X95841523Y-111913537D01*
X95520654Y-111828620D01*
X95189383Y-111807934D01*
X94860443Y-111852272D01*
X94546473Y-111959931D01*
X94360339Y-112059421D01*
X94258539Y-112328934D01*
X58627000Y-112328934D01*
X58627000Y-111050000D01*
X80561928Y-111050000D01*
X80574188Y-111174482D01*
X80610498Y-111294180D01*
X80669463Y-111404494D01*
X80748815Y-111501185D01*
X80845506Y-111580537D01*
X80955820Y-111639502D01*
X81075518Y-111675812D01*
X81200000Y-111688072D01*
X81964250Y-111685000D01*
X82123000Y-111526250D01*
X82123000Y-110127000D01*
X82377000Y-110127000D01*
X82377000Y-111526250D01*
X82535750Y-111685000D01*
X83300000Y-111688072D01*
X83424482Y-111675812D01*
X83544180Y-111639502D01*
X83654494Y-111580537D01*
X83751185Y-111501185D01*
X83830537Y-111404494D01*
X83889502Y-111294180D01*
X83925812Y-111174482D01*
X83938072Y-111050000D01*
X83935000Y-110285750D01*
X83776250Y-110127000D01*
X82377000Y-110127000D01*
X82123000Y-110127000D01*
X80723750Y-110127000D01*
X80565000Y-110285750D01*
X80561928Y-111050000D01*
X58627000Y-111050000D01*
X58627000Y-108950000D01*
X80561928Y-108950000D01*
X80565000Y-109714250D01*
X80723750Y-109873000D01*
X82123000Y-109873000D01*
X82123000Y-108473750D01*
X82377000Y-108473750D01*
X82377000Y-109873000D01*
X83776250Y-109873000D01*
X83815208Y-109834042D01*
X85565000Y-109834042D01*
X85565000Y-110165958D01*
X85629754Y-110491496D01*
X85756772Y-110798147D01*
X85941175Y-111074125D01*
X86175875Y-111308825D01*
X86451853Y-111493228D01*
X86758504Y-111620246D01*
X87084042Y-111685000D01*
X87415958Y-111685000D01*
X87741496Y-111620246D01*
X88048147Y-111493228D01*
X88324125Y-111308825D01*
X88558825Y-111074125D01*
X88574944Y-111050000D01*
X106561928Y-111050000D01*
X106574188Y-111174482D01*
X106610498Y-111294180D01*
X106669463Y-111404494D01*
X106748815Y-111501185D01*
X106845506Y-111580537D01*
X106955820Y-111639502D01*
X107075518Y-111675812D01*
X107200000Y-111688072D01*
X107964250Y-111685000D01*
X108123000Y-111526250D01*
X108123000Y-110127000D01*
X108377000Y-110127000D01*
X108377000Y-111526250D01*
X108535750Y-111685000D01*
X109300000Y-111688072D01*
X109424482Y-111675812D01*
X109544180Y-111639502D01*
X109654494Y-111580537D01*
X109751185Y-111501185D01*
X109830537Y-111404494D01*
X109889502Y-111294180D01*
X109925812Y-111174482D01*
X109938072Y-111050000D01*
X109935000Y-110285750D01*
X109776250Y-110127000D01*
X108377000Y-110127000D01*
X108123000Y-110127000D01*
X106723750Y-110127000D01*
X106565000Y-110285750D01*
X106561928Y-111050000D01*
X88574944Y-111050000D01*
X88743228Y-110798147D01*
X88870246Y-110491496D01*
X88935000Y-110165958D01*
X88935000Y-109834042D01*
X88870246Y-109508504D01*
X88743228Y-109201853D01*
X88574945Y-108950000D01*
X106561928Y-108950000D01*
X106565000Y-109714250D01*
X106723750Y-109873000D01*
X108123000Y-109873000D01*
X108123000Y-108473750D01*
X108377000Y-108473750D01*
X108377000Y-109873000D01*
X109776250Y-109873000D01*
X109815208Y-109834042D01*
X111565000Y-109834042D01*
X111565000Y-110165958D01*
X111629754Y-110491496D01*
X111756772Y-110798147D01*
X111941175Y-111074125D01*
X112175875Y-111308825D01*
X112451853Y-111493228D01*
X112758504Y-111620246D01*
X113084042Y-111685000D01*
X113415958Y-111685000D01*
X113741496Y-111620246D01*
X114048147Y-111493228D01*
X114324125Y-111308825D01*
X114558825Y-111074125D01*
X114574944Y-111050000D01*
X130811928Y-111050000D01*
X130824188Y-111174482D01*
X130860498Y-111294180D01*
X130919463Y-111404494D01*
X130998815Y-111501185D01*
X131095506Y-111580537D01*
X131205820Y-111639502D01*
X131325518Y-111675812D01*
X131450000Y-111688072D01*
X132214250Y-111685000D01*
X132373000Y-111526250D01*
X132373000Y-110127000D01*
X132627000Y-110127000D01*
X132627000Y-111526250D01*
X132785750Y-111685000D01*
X133550000Y-111688072D01*
X133674482Y-111675812D01*
X133794180Y-111639502D01*
X133904494Y-111580537D01*
X134001185Y-111501185D01*
X134080537Y-111404494D01*
X134139502Y-111294180D01*
X134175812Y-111174482D01*
X134188072Y-111050000D01*
X134185000Y-110285750D01*
X134026250Y-110127000D01*
X132627000Y-110127000D01*
X132373000Y-110127000D01*
X130973750Y-110127000D01*
X130815000Y-110285750D01*
X130811928Y-111050000D01*
X114574944Y-111050000D01*
X114743228Y-110798147D01*
X114870246Y-110491496D01*
X114935000Y-110165958D01*
X114935000Y-109834042D01*
X114870246Y-109508504D01*
X114743228Y-109201853D01*
X114574945Y-108950000D01*
X130811928Y-108950000D01*
X130815000Y-109714250D01*
X130973750Y-109873000D01*
X132373000Y-109873000D01*
X132373000Y-108473750D01*
X132627000Y-108473750D01*
X132627000Y-109873000D01*
X134026250Y-109873000D01*
X134185000Y-109714250D01*
X134188072Y-108950000D01*
X134175812Y-108825518D01*
X134139502Y-108705820D01*
X134080537Y-108595506D01*
X134001185Y-108498815D01*
X133904494Y-108419463D01*
X133794180Y-108360498D01*
X133674482Y-108324188D01*
X133550000Y-108311928D01*
X132785750Y-108315000D01*
X132627000Y-108473750D01*
X132373000Y-108473750D01*
X132214250Y-108315000D01*
X131450000Y-108311928D01*
X131325518Y-108324188D01*
X131205820Y-108360498D01*
X131095506Y-108419463D01*
X130998815Y-108498815D01*
X130919463Y-108595506D01*
X130860498Y-108705820D01*
X130824188Y-108825518D01*
X130811928Y-108950000D01*
X114574945Y-108950000D01*
X114558825Y-108925875D01*
X114324125Y-108691175D01*
X114048147Y-108506772D01*
X113741496Y-108379754D01*
X113415958Y-108315000D01*
X113084042Y-108315000D01*
X112758504Y-108379754D01*
X112451853Y-108506772D01*
X112175875Y-108691175D01*
X111941175Y-108925875D01*
X111756772Y-109201853D01*
X111629754Y-109508504D01*
X111565000Y-109834042D01*
X109815208Y-109834042D01*
X109935000Y-109714250D01*
X109938072Y-108950000D01*
X109925812Y-108825518D01*
X109889502Y-108705820D01*
X109830537Y-108595506D01*
X109751185Y-108498815D01*
X109654494Y-108419463D01*
X109544180Y-108360498D01*
X109424482Y-108324188D01*
X109300000Y-108311928D01*
X108535750Y-108315000D01*
X108377000Y-108473750D01*
X108123000Y-108473750D01*
X107964250Y-108315000D01*
X107200000Y-108311928D01*
X107075518Y-108324188D01*
X106955820Y-108360498D01*
X106845506Y-108419463D01*
X106748815Y-108498815D01*
X106669463Y-108595506D01*
X106610498Y-108705820D01*
X106574188Y-108825518D01*
X106561928Y-108950000D01*
X88574945Y-108950000D01*
X88558825Y-108925875D01*
X88324125Y-108691175D01*
X88048147Y-108506772D01*
X87741496Y-108379754D01*
X87415958Y-108315000D01*
X87084042Y-108315000D01*
X86758504Y-108379754D01*
X86451853Y-108506772D01*
X86175875Y-108691175D01*
X85941175Y-108925875D01*
X85756772Y-109201853D01*
X85629754Y-109508504D01*
X85565000Y-109834042D01*
X83815208Y-109834042D01*
X83935000Y-109714250D01*
X83938072Y-108950000D01*
X83925812Y-108825518D01*
X83889502Y-108705820D01*
X83830537Y-108595506D01*
X83751185Y-108498815D01*
X83654494Y-108419463D01*
X83544180Y-108360498D01*
X83424482Y-108324188D01*
X83300000Y-108311928D01*
X82535750Y-108315000D01*
X82377000Y-108473750D01*
X82123000Y-108473750D01*
X81964250Y-108315000D01*
X81200000Y-108311928D01*
X81075518Y-108324188D01*
X80955820Y-108360498D01*
X80845506Y-108419463D01*
X80748815Y-108498815D01*
X80669463Y-108595506D01*
X80610498Y-108705820D01*
X80574188Y-108825518D01*
X80561928Y-108950000D01*
X58627000Y-108950000D01*
X58627000Y-106171066D01*
X81258539Y-106171066D01*
X81360339Y-106440579D01*
X81658477Y-106586463D01*
X81979346Y-106671380D01*
X82310617Y-106692066D01*
X82639557Y-106647728D01*
X82953527Y-106540069D01*
X83139661Y-106440579D01*
X83241461Y-106171066D01*
X82250000Y-105179605D01*
X81258539Y-106171066D01*
X58627000Y-106171066D01*
X58627000Y-105060617D01*
X80557934Y-105060617D01*
X80602272Y-105389557D01*
X80709931Y-105703527D01*
X80809421Y-105889661D01*
X81078934Y-105991461D01*
X82070395Y-105000000D01*
X82429605Y-105000000D01*
X83421066Y-105991461D01*
X83690579Y-105889661D01*
X83836463Y-105591523D01*
X83921380Y-105270654D01*
X83942066Y-104939383D01*
X83927868Y-104834042D01*
X85565000Y-104834042D01*
X85565000Y-105165958D01*
X85629754Y-105491496D01*
X85756772Y-105798147D01*
X85941175Y-106074125D01*
X86175875Y-106308825D01*
X86451853Y-106493228D01*
X86758504Y-106620246D01*
X87084042Y-106685000D01*
X87415958Y-106685000D01*
X87741496Y-106620246D01*
X88048147Y-106493228D01*
X88324125Y-106308825D01*
X88461884Y-106171066D01*
X107258539Y-106171066D01*
X107360339Y-106440579D01*
X107658477Y-106586463D01*
X107979346Y-106671380D01*
X108310617Y-106692066D01*
X108639557Y-106647728D01*
X108953527Y-106540069D01*
X109139661Y-106440579D01*
X109241461Y-106171066D01*
X108250000Y-105179605D01*
X107258539Y-106171066D01*
X88461884Y-106171066D01*
X88558825Y-106074125D01*
X88743228Y-105798147D01*
X88870246Y-105491496D01*
X88935000Y-105165958D01*
X88935000Y-105060617D01*
X106557934Y-105060617D01*
X106602272Y-105389557D01*
X106709931Y-105703527D01*
X106809421Y-105889661D01*
X107078934Y-105991461D01*
X108070395Y-105000000D01*
X108429605Y-105000000D01*
X109421066Y-105991461D01*
X109690579Y-105889661D01*
X109836463Y-105591523D01*
X109921380Y-105270654D01*
X109942066Y-104939383D01*
X109927868Y-104834042D01*
X111565000Y-104834042D01*
X111565000Y-105165958D01*
X111629754Y-105491496D01*
X111756772Y-105798147D01*
X111941175Y-106074125D01*
X112175875Y-106308825D01*
X112451853Y-106493228D01*
X112758504Y-106620246D01*
X113084042Y-106685000D01*
X113415958Y-106685000D01*
X113741496Y-106620246D01*
X114048147Y-106493228D01*
X114324125Y-106308825D01*
X114461884Y-106171066D01*
X131508539Y-106171066D01*
X131610339Y-106440579D01*
X131908477Y-106586463D01*
X132229346Y-106671380D01*
X132560617Y-106692066D01*
X132889557Y-106647728D01*
X133203527Y-106540069D01*
X133389661Y-106440579D01*
X133491461Y-106171066D01*
X132500000Y-105179605D01*
X131508539Y-106171066D01*
X114461884Y-106171066D01*
X114558825Y-106074125D01*
X114743228Y-105798147D01*
X114870246Y-105491496D01*
X114935000Y-105165958D01*
X114935000Y-105060617D01*
X130807934Y-105060617D01*
X130852272Y-105389557D01*
X130959931Y-105703527D01*
X131059421Y-105889661D01*
X131328934Y-105991461D01*
X132320395Y-105000000D01*
X132679605Y-105000000D01*
X133671066Y-105991461D01*
X133940579Y-105889661D01*
X134086463Y-105591523D01*
X134171380Y-105270654D01*
X134192066Y-104939383D01*
X134147728Y-104610443D01*
X134040069Y-104296473D01*
X133940579Y-104110339D01*
X133671066Y-104008539D01*
X132679605Y-105000000D01*
X132320395Y-105000000D01*
X131328934Y-104008539D01*
X131059421Y-104110339D01*
X130913537Y-104408477D01*
X130828620Y-104729346D01*
X130807934Y-105060617D01*
X114935000Y-105060617D01*
X114935000Y-104834042D01*
X114870246Y-104508504D01*
X114743228Y-104201853D01*
X114558825Y-103925875D01*
X114461884Y-103828934D01*
X131508539Y-103828934D01*
X132500000Y-104820395D01*
X133491461Y-103828934D01*
X133389661Y-103559421D01*
X133091523Y-103413537D01*
X132770654Y-103328620D01*
X132439383Y-103307934D01*
X132110443Y-103352272D01*
X131796473Y-103459931D01*
X131610339Y-103559421D01*
X131508539Y-103828934D01*
X114461884Y-103828934D01*
X114324125Y-103691175D01*
X114048147Y-103506772D01*
X113741496Y-103379754D01*
X113415958Y-103315000D01*
X113084042Y-103315000D01*
X112758504Y-103379754D01*
X112451853Y-103506772D01*
X112175875Y-103691175D01*
X111941175Y-103925875D01*
X111756772Y-104201853D01*
X111629754Y-104508504D01*
X111565000Y-104834042D01*
X109927868Y-104834042D01*
X109897728Y-104610443D01*
X109790069Y-104296473D01*
X109690579Y-104110339D01*
X109421066Y-104008539D01*
X108429605Y-105000000D01*
X108070395Y-105000000D01*
X107078934Y-104008539D01*
X106809421Y-104110339D01*
X106663537Y-104408477D01*
X106578620Y-104729346D01*
X106557934Y-105060617D01*
X88935000Y-105060617D01*
X88935000Y-104834042D01*
X88870246Y-104508504D01*
X88743228Y-104201853D01*
X88558825Y-103925875D01*
X88324125Y-103691175D01*
X88048147Y-103506772D01*
X87741496Y-103379754D01*
X87415958Y-103315000D01*
X87084042Y-103315000D01*
X86758504Y-103379754D01*
X86451853Y-103506772D01*
X86175875Y-103691175D01*
X85941175Y-103925875D01*
X85756772Y-104201853D01*
X85629754Y-104508504D01*
X85565000Y-104834042D01*
X83927868Y-104834042D01*
X83897728Y-104610443D01*
X83790069Y-104296473D01*
X83690579Y-104110339D01*
X83421066Y-104008539D01*
X82429605Y-105000000D01*
X82070395Y-105000000D01*
X81078934Y-104008539D01*
X80809421Y-104110339D01*
X80663537Y-104408477D01*
X80578620Y-104729346D01*
X80557934Y-105060617D01*
X58627000Y-105060617D01*
X58627000Y-103828934D01*
X81258539Y-103828934D01*
X82250000Y-104820395D01*
X83241461Y-103828934D01*
X83139661Y-103559421D01*
X82841523Y-103413537D01*
X82520654Y-103328620D01*
X82189383Y-103307934D01*
X81860443Y-103352272D01*
X81546473Y-103459931D01*
X81360339Y-103559421D01*
X81258539Y-103828934D01*
X58627000Y-103828934D01*
X58627000Y-103300000D01*
X93561928Y-103300000D01*
X93574188Y-103424482D01*
X93610498Y-103544180D01*
X93669463Y-103654494D01*
X93748815Y-103751185D01*
X93845506Y-103830537D01*
X93955820Y-103889502D01*
X94075518Y-103925812D01*
X94200000Y-103938072D01*
X94964250Y-103935000D01*
X95123000Y-103776250D01*
X95123000Y-102377000D01*
X95377000Y-102377000D01*
X95377000Y-103776250D01*
X95535750Y-103935000D01*
X96300000Y-103938072D01*
X96424482Y-103925812D01*
X96544180Y-103889502D01*
X96654494Y-103830537D01*
X96751185Y-103751185D01*
X96830537Y-103654494D01*
X96889502Y-103544180D01*
X96925812Y-103424482D01*
X96938072Y-103300000D01*
X96935000Y-102535750D01*
X96776250Y-102377000D01*
X95377000Y-102377000D01*
X95123000Y-102377000D01*
X93723750Y-102377000D01*
X93565000Y-102535750D01*
X93561928Y-103300000D01*
X58627000Y-103300000D01*
X58627000Y-101200000D01*
X93561928Y-101200000D01*
X93565000Y-101964250D01*
X93723750Y-102123000D01*
X95123000Y-102123000D01*
X95123000Y-100723750D01*
X95377000Y-100723750D01*
X95377000Y-102123000D01*
X96776250Y-102123000D01*
X96815208Y-102084042D01*
X98565000Y-102084042D01*
X98565000Y-102415958D01*
X98629754Y-102741496D01*
X98756772Y-103048147D01*
X98941175Y-103324125D01*
X99175875Y-103558825D01*
X99451853Y-103743228D01*
X99758504Y-103870246D01*
X100084042Y-103935000D01*
X100415958Y-103935000D01*
X100741496Y-103870246D01*
X100841232Y-103828934D01*
X107258539Y-103828934D01*
X108250000Y-104820395D01*
X109241461Y-103828934D01*
X109139661Y-103559421D01*
X108841523Y-103413537D01*
X108520654Y-103328620D01*
X108189383Y-103307934D01*
X107860443Y-103352272D01*
X107546473Y-103459931D01*
X107360339Y-103559421D01*
X107258539Y-103828934D01*
X100841232Y-103828934D01*
X101048147Y-103743228D01*
X101324125Y-103558825D01*
X101558825Y-103324125D01*
X101743228Y-103048147D01*
X101870246Y-102741496D01*
X101935000Y-102415958D01*
X101935000Y-102084042D01*
X101870246Y-101758504D01*
X101743228Y-101451853D01*
X101558825Y-101175875D01*
X101324125Y-100941175D01*
X101048147Y-100756772D01*
X100741496Y-100629754D01*
X100415958Y-100565000D01*
X100084042Y-100565000D01*
X99758504Y-100629754D01*
X99451853Y-100756772D01*
X99175875Y-100941175D01*
X98941175Y-101175875D01*
X98756772Y-101451853D01*
X98629754Y-101758504D01*
X98565000Y-102084042D01*
X96815208Y-102084042D01*
X96935000Y-101964250D01*
X96938072Y-101200000D01*
X96925812Y-101075518D01*
X96889502Y-100955820D01*
X96830537Y-100845506D01*
X96751185Y-100748815D01*
X96654494Y-100669463D01*
X96544180Y-100610498D01*
X96424482Y-100574188D01*
X96300000Y-100561928D01*
X95535750Y-100565000D01*
X95377000Y-100723750D01*
X95123000Y-100723750D01*
X94964250Y-100565000D01*
X94200000Y-100561928D01*
X94075518Y-100574188D01*
X93955820Y-100610498D01*
X93845506Y-100669463D01*
X93748815Y-100748815D01*
X93669463Y-100845506D01*
X93610498Y-100955820D01*
X93574188Y-101075518D01*
X93561928Y-101200000D01*
X58627000Y-101200000D01*
X58627000Y-98421066D01*
X94258539Y-98421066D01*
X94360339Y-98690579D01*
X94658477Y-98836463D01*
X94979346Y-98921380D01*
X95310617Y-98942066D01*
X95639557Y-98897728D01*
X95953527Y-98790069D01*
X96139661Y-98690579D01*
X96241461Y-98421066D01*
X95250000Y-97429605D01*
X94258539Y-98421066D01*
X58627000Y-98421066D01*
X58627000Y-97310617D01*
X93557934Y-97310617D01*
X93602272Y-97639557D01*
X93709931Y-97953527D01*
X93809421Y-98139661D01*
X94078934Y-98241461D01*
X95070395Y-97250000D01*
X95429605Y-97250000D01*
X96421066Y-98241461D01*
X96690579Y-98139661D01*
X96836463Y-97841523D01*
X96921380Y-97520654D01*
X96942066Y-97189383D01*
X96927868Y-97084042D01*
X98565000Y-97084042D01*
X98565000Y-97415958D01*
X98629754Y-97741496D01*
X98756772Y-98048147D01*
X98941175Y-98324125D01*
X99175875Y-98558825D01*
X99451853Y-98743228D01*
X99758504Y-98870246D01*
X100084042Y-98935000D01*
X100415958Y-98935000D01*
X100741496Y-98870246D01*
X101048147Y-98743228D01*
X101324125Y-98558825D01*
X101558825Y-98324125D01*
X101743228Y-98048147D01*
X101870246Y-97741496D01*
X101935000Y-97415958D01*
X101935000Y-97084042D01*
X101870246Y-96758504D01*
X101743228Y-96451853D01*
X101558825Y-96175875D01*
X101324125Y-95941175D01*
X101048147Y-95756772D01*
X100741496Y-95629754D01*
X100415958Y-95565000D01*
X100084042Y-95565000D01*
X99758504Y-95629754D01*
X99451853Y-95756772D01*
X99175875Y-95941175D01*
X98941175Y-96175875D01*
X98756772Y-96451853D01*
X98629754Y-96758504D01*
X98565000Y-97084042D01*
X96927868Y-97084042D01*
X96897728Y-96860443D01*
X96790069Y-96546473D01*
X96690579Y-96360339D01*
X96421066Y-96258539D01*
X95429605Y-97250000D01*
X95070395Y-97250000D01*
X94078934Y-96258539D01*
X93809421Y-96360339D01*
X93663537Y-96658477D01*
X93578620Y-96979346D01*
X93557934Y-97310617D01*
X58627000Y-97310617D01*
X58627000Y-96078934D01*
X94258539Y-96078934D01*
X95250000Y-97070395D01*
X96241461Y-96078934D01*
X96139661Y-95809421D01*
X95841523Y-95663537D01*
X95520654Y-95578620D01*
X95189383Y-95557934D01*
X94860443Y-95602272D01*
X94546473Y-95709931D01*
X94360339Y-95809421D01*
X94258539Y-96078934D01*
X58627000Y-96078934D01*
X58627000Y-93240475D01*
X121795000Y-93240475D01*
X121795000Y-93759525D01*
X121896261Y-94268601D01*
X122094893Y-94748141D01*
X122383262Y-95179715D01*
X122750285Y-95546738D01*
X123181859Y-95835107D01*
X123661399Y-96033739D01*
X124170475Y-96135000D01*
X124689525Y-96135000D01*
X125198601Y-96033739D01*
X125678141Y-95835107D01*
X126109715Y-95546738D01*
X126476738Y-95179715D01*
X126765107Y-94748141D01*
X126963739Y-94268601D01*
X127065000Y-93759525D01*
X127065000Y-93240475D01*
X142115000Y-93240475D01*
X142115000Y-93759525D01*
X142216261Y-94268601D01*
X142414893Y-94748141D01*
X142703262Y-95179715D01*
X143070285Y-95546738D01*
X143501859Y-95835107D01*
X143981399Y-96033739D01*
X144490475Y-96135000D01*
X145009525Y-96135000D01*
X145518601Y-96033739D01*
X145998141Y-95835107D01*
X146429715Y-95546738D01*
X146796738Y-95179715D01*
X147085107Y-94748141D01*
X147283739Y-94268601D01*
X147385000Y-93759525D01*
X147385000Y-93240475D01*
X147283739Y-92731399D01*
X147085107Y-92251859D01*
X146796738Y-91820285D01*
X146429715Y-91453262D01*
X145998141Y-91164893D01*
X145518601Y-90966261D01*
X145009525Y-90865000D01*
X144490475Y-90865000D01*
X143981399Y-90966261D01*
X143501859Y-91164893D01*
X143070285Y-91453262D01*
X142703262Y-91820285D01*
X142414893Y-92251859D01*
X142216261Y-92731399D01*
X142115000Y-93240475D01*
X127065000Y-93240475D01*
X126963739Y-92731399D01*
X126765107Y-92251859D01*
X126476738Y-91820285D01*
X126109715Y-91453262D01*
X125678141Y-91164893D01*
X125198601Y-90966261D01*
X124689525Y-90865000D01*
X124170475Y-90865000D01*
X123661399Y-90966261D01*
X123181859Y-91164893D01*
X122750285Y-91453262D01*
X122383262Y-91820285D01*
X122094893Y-92251859D01*
X121896261Y-92731399D01*
X121795000Y-93240475D01*
X58627000Y-93240475D01*
X58627000Y-81940000D01*
X152373000Y-81940000D01*
X152373000Y-140310000D01*
X152373000Y-140310000D01*
G37*
X152373000Y-140310000D02*
X58627000Y-140310000D01*
X58627000Y-129106891D01*
X66698519Y-129106891D01*
X66795843Y-129381252D01*
X66944822Y-129631355D01*
X67139731Y-129847588D01*
X67373080Y-130021641D01*
X67635901Y-130146825D01*
X67783110Y-130191476D01*
X68013000Y-130070155D01*
X68013000Y-128877000D01*
X66819186Y-128877000D01*
X66698519Y-129106891D01*
X58627000Y-129106891D01*
X58627000Y-128393109D01*
X66698519Y-128393109D01*
X66819186Y-128623000D01*
X68013000Y-128623000D01*
X68013000Y-127429845D01*
X68267000Y-127429845D01*
X68267000Y-128623000D01*
X68287000Y-128623000D01*
X68287000Y-128877000D01*
X68267000Y-128877000D01*
X68267000Y-130070155D01*
X68496890Y-130191476D01*
X68644099Y-130146825D01*
X68906920Y-130021641D01*
X69140269Y-129847588D01*
X69335178Y-129631355D01*
X69404799Y-129514477D01*
X69439294Y-129579014D01*
X69624866Y-129805134D01*
X69850986Y-129990706D01*
X70108966Y-130128599D01*
X70388889Y-130213513D01*
X70607050Y-130235000D01*
X70752950Y-130235000D01*
X70971111Y-130213513D01*
X71251034Y-130128599D01*
X71509014Y-129990706D01*
X71735134Y-129805134D01*
X71920706Y-129579014D01*
X71955201Y-129514477D01*
X72024822Y-129631355D01*
X72219731Y-129847588D01*
X72453080Y-130021641D01*
X72715901Y-130146825D01*
X72863110Y-130191476D01*
X73093000Y-130070155D01*
X73093000Y-128877000D01*
X73073000Y-128877000D01*
X73073000Y-128623000D01*
X73093000Y-128623000D01*
X73093000Y-127429845D01*
X73347000Y-127429845D01*
X73347000Y-128623000D01*
X73367000Y-128623000D01*
X73367000Y-128877000D01*
X73347000Y-128877000D01*
X73347000Y-130070155D01*
X73576890Y-130191476D01*
X73724099Y-130146825D01*
X73986920Y-130021641D01*
X74220269Y-129847588D01*
X74415178Y-129631355D01*
X74484799Y-129514477D01*
X74519294Y-129579014D01*
X74704866Y-129805134D01*
X74930986Y-129990706D01*
X75188966Y-130128599D01*
X75468889Y-130213513D01*
X75687050Y-130235000D01*
X75832950Y-130235000D01*
X76051111Y-130213513D01*
X76331034Y-130128599D01*
X76589014Y-129990706D01*
X76815134Y-129805134D01*
X77000706Y-129579014D01*
X77030000Y-129524209D01*
X77059294Y-129579014D01*
X77244866Y-129805134D01*
X77365000Y-129903726D01*
X77365000Y-130106607D01*
X77361329Y-130118709D01*
X77343276Y-130302000D01*
X77361329Y-130485291D01*
X77414794Y-130661540D01*
X77501615Y-130823971D01*
X77589177Y-130930666D01*
X77589180Y-130930669D01*
X77618457Y-130966343D01*
X77654131Y-130995620D01*
X82186574Y-135528064D01*
X82215856Y-135563744D01*
X82358228Y-135680586D01*
X82520660Y-135767407D01*
X82643443Y-135804653D01*
X82696907Y-135820871D01*
X82715310Y-135822683D01*
X82834268Y-135834400D01*
X82834274Y-135834400D01*
X82880199Y-135838923D01*
X82926124Y-135834400D01*
X126164668Y-135834400D01*
X126210600Y-135838924D01*
X126256532Y-135834400D01*
X126393892Y-135820871D01*
X126570140Y-135767407D01*
X126732572Y-135680586D01*
X126874944Y-135563744D01*
X126904230Y-135528059D01*
X135785290Y-126647000D01*
X135997592Y-126647000D01*
X136267490Y-126593314D01*
X136521727Y-126488005D01*
X136750535Y-126335120D01*
X136870090Y-126215565D01*
X137614040Y-126215565D01*
X137681020Y-126455656D01*
X137930048Y-126572756D01*
X138197135Y-126639023D01*
X138472017Y-126651910D01*
X138744133Y-126610922D01*
X139003023Y-126517636D01*
X139118980Y-126455656D01*
X139185960Y-126215565D01*
X138400000Y-125429605D01*
X137614040Y-126215565D01*
X136870090Y-126215565D01*
X136945120Y-126140535D01*
X137098005Y-125911727D01*
X137127692Y-125840057D01*
X137132364Y-125853023D01*
X137194344Y-125968980D01*
X137434435Y-126035960D01*
X138220395Y-125250000D01*
X138579605Y-125250000D01*
X139365565Y-126035960D01*
X139605656Y-125968980D01*
X139722756Y-125719952D01*
X139789023Y-125452865D01*
X139801910Y-125177983D01*
X139760922Y-124905867D01*
X139667636Y-124646977D01*
X139605656Y-124531020D01*
X139365565Y-124464040D01*
X138579605Y-125250000D01*
X138220395Y-125250000D01*
X137434435Y-124464040D01*
X137194344Y-124531020D01*
X137130515Y-124666760D01*
X137098005Y-124588273D01*
X136945120Y-124359465D01*
X136870090Y-124284435D01*
X137614040Y-124284435D01*
X138400000Y-125070395D01*
X139185960Y-124284435D01*
X139118980Y-124044344D01*
X138869952Y-123927244D01*
X138602865Y-123860977D01*
X138327983Y-123848090D01*
X138055867Y-123889078D01*
X137796977Y-123982364D01*
X137681020Y-124044344D01*
X137614040Y-124284435D01*
X136870090Y-124284435D01*
X136750535Y-124164880D01*
X136521727Y-124011995D01*
X136267490Y-123906686D01*
X135997592Y-123853000D01*
X135722408Y-123853000D01*
X135452510Y-123906686D01*
X135198273Y-124011995D01*
X134969465Y-124164880D01*
X134774880Y-124359465D01*
X134621995Y-124588273D01*
X134590000Y-124665515D01*
X134558005Y-124588273D01*
X134405120Y-124359465D01*
X134210535Y-124164880D01*
X133981727Y-124011995D01*
X133727490Y-123906686D01*
X133457592Y-123853000D01*
X133182408Y-123853000D01*
X132912510Y-123906686D01*
X132658273Y-124011995D01*
X132429465Y-124164880D01*
X132234880Y-124359465D01*
X132081995Y-124588273D01*
X132050000Y-124665515D01*
X132018005Y-124588273D01*
X131865120Y-124359465D01*
X131670535Y-124164880D01*
X131441727Y-124011995D01*
X131187490Y-123906686D01*
X130917592Y-123853000D01*
X130642408Y-123853000D01*
X130372510Y-123906686D01*
X130118273Y-124011995D01*
X129889465Y-124164880D01*
X129694880Y-124359465D01*
X129541995Y-124588273D01*
X129436686Y-124842510D01*
X129383000Y-125112408D01*
X129383000Y-125387592D01*
X129436686Y-125657490D01*
X129541995Y-125911727D01*
X129694880Y-126140535D01*
X129889465Y-126335120D01*
X130118273Y-126488005D01*
X130372510Y-126593314D01*
X130642408Y-126647000D01*
X130917592Y-126647000D01*
X131187490Y-126593314D01*
X131441727Y-126488005D01*
X131670535Y-126335120D01*
X131865120Y-126140535D01*
X132018005Y-125911727D01*
X132050000Y-125834485D01*
X132081995Y-125911727D01*
X132234880Y-126140535D01*
X132429465Y-126335120D01*
X132658273Y-126488005D01*
X132912510Y-126593314D01*
X133147628Y-126640082D01*
X125823311Y-133964400D01*
X107107889Y-133964400D01*
X117351814Y-123720475D01*
X121795000Y-123720475D01*
X121795000Y-124239525D01*
X121896261Y-124748601D01*
X122094893Y-125228141D01*
X122383262Y-125659715D01*
X122750285Y-126026738D01*
X123181859Y-126315107D01*
X123661399Y-126513739D01*
X124170475Y-126615000D01*
X124689525Y-126615000D01*
X125198601Y-126513739D01*
X125678141Y-126315107D01*
X126109715Y-126026738D01*
X126476738Y-125659715D01*
X126765107Y-125228141D01*
X126963739Y-124748601D01*
X127065000Y-124239525D01*
X127065000Y-123720475D01*
X142115000Y-123720475D01*
X142115000Y-124239525D01*
X142216261Y-124748601D01*
X142414893Y-125228141D01*
X142703262Y-125659715D01*
X143070285Y-126026738D01*
X143501859Y-126315107D01*
X143981399Y-126513739D01*
X144490475Y-126615000D01*
X145009525Y-126615000D01*
X145518601Y-126513739D01*
X145998141Y-126315107D01*
X146429715Y-126026738D01*
X146796738Y-125659715D01*
X147085107Y-125228141D01*
X147283739Y-124748601D01*
X147385000Y-124239525D01*
X147385000Y-123720475D01*
X147283739Y-123211399D01*
X147085107Y-122731859D01*
X146796738Y-122300285D01*
X146429715Y-121933262D01*
X145998141Y-121644893D01*
X145518601Y-121446261D01*
X145009525Y-121345000D01*
X144490475Y-121345000D01*
X143981399Y-121446261D01*
X143501859Y-121644893D01*
X143070285Y-121933262D01*
X142703262Y-122300285D01*
X142414893Y-122731859D01*
X142216261Y-123211399D01*
X142115000Y-123720475D01*
X127065000Y-123720475D01*
X126963739Y-123211399D01*
X126765107Y-122731859D01*
X126476738Y-122300285D01*
X126109715Y-121933262D01*
X125678141Y-121644893D01*
X125198601Y-121446261D01*
X124689525Y-121345000D01*
X124170475Y-121345000D01*
X123661399Y-121446261D01*
X123181859Y-121644893D01*
X122750285Y-121933262D01*
X122383262Y-122300285D01*
X122094893Y-122731859D01*
X121896261Y-123211399D01*
X121795000Y-123720475D01*
X117351814Y-123720475D01*
X126637290Y-114435000D01*
X136454068Y-114435000D01*
X136500000Y-114439524D01*
X136545932Y-114435000D01*
X136683292Y-114421471D01*
X136859540Y-114368007D01*
X137021972Y-114281186D01*
X137164344Y-114164344D01*
X137193630Y-114128659D01*
X138128660Y-113193629D01*
X138164344Y-113164344D01*
X138281186Y-113021972D01*
X138361703Y-112871334D01*
X138368007Y-112859541D01*
X138421472Y-112683292D01*
X138439524Y-112500000D01*
X138435000Y-112454065D01*
X138435000Y-111401786D01*
X138574125Y-111308825D01*
X138808825Y-111074125D01*
X138993228Y-110798147D01*
X139120246Y-110491496D01*
X139185000Y-110165958D01*
X139185000Y-109834042D01*
X139120246Y-109508504D01*
X138993228Y-109201853D01*
X138808825Y-108925875D01*
X138574125Y-108691175D01*
X138435000Y-108598214D01*
X138435000Y-106401786D01*
X138574125Y-106308825D01*
X138808825Y-106074125D01*
X138993228Y-105798147D01*
X139120246Y-105491496D01*
X139185000Y-105165958D01*
X139185000Y-104834042D01*
X139120246Y-104508504D01*
X138993228Y-104201853D01*
X138808825Y-103925875D01*
X138574125Y-103691175D01*
X138298147Y-103506772D01*
X137991496Y-103379754D01*
X137665958Y-103315000D01*
X137334042Y-103315000D01*
X137008504Y-103379754D01*
X136701853Y-103506772D01*
X136425875Y-103691175D01*
X136191175Y-103925875D01*
X136006772Y-104201853D01*
X135879754Y-104508504D01*
X135815000Y-104834042D01*
X135815000Y-105165958D01*
X135879754Y-105491496D01*
X136006772Y-105798147D01*
X136191175Y-106074125D01*
X136425875Y-106308825D01*
X136565001Y-106401786D01*
X136565000Y-108598214D01*
X136425875Y-108691175D01*
X136191175Y-108925875D01*
X136006772Y-109201853D01*
X135879754Y-109508504D01*
X135815000Y-109834042D01*
X135815000Y-110165958D01*
X135879754Y-110491496D01*
X136006772Y-110798147D01*
X136191175Y-111074125D01*
X136425875Y-111308825D01*
X136565000Y-111401786D01*
X136565000Y-112112711D01*
X136112711Y-112565000D01*
X126295924Y-112565000D01*
X126249999Y-112560477D01*
X126204074Y-112565000D01*
X126204068Y-112565000D01*
X126085110Y-112576717D01*
X126066707Y-112578529D01*
X126013243Y-112594747D01*
X125890460Y-112631993D01*
X125728028Y-112718814D01*
X125585656Y-112835656D01*
X125556376Y-112871334D01*
X105758711Y-132669000D01*
X84512090Y-132669000D01*
X81775000Y-129931911D01*
X81775000Y-129903725D01*
X81895134Y-129805134D01*
X82080706Y-129579014D01*
X82110000Y-129524209D01*
X82139294Y-129579014D01*
X82324866Y-129805134D01*
X82550986Y-129990706D01*
X82808966Y-130128599D01*
X83088889Y-130213513D01*
X83307050Y-130235000D01*
X83452950Y-130235000D01*
X83671111Y-130213513D01*
X83951034Y-130128599D01*
X84209014Y-129990706D01*
X84435134Y-129805134D01*
X84620706Y-129579014D01*
X84650000Y-129524209D01*
X84679294Y-129579014D01*
X84864866Y-129805134D01*
X85090986Y-129990706D01*
X85348966Y-130128599D01*
X85628889Y-130213513D01*
X85847050Y-130235000D01*
X85992950Y-130235000D01*
X86211111Y-130213513D01*
X86491034Y-130128599D01*
X86749014Y-129990706D01*
X86975134Y-129805134D01*
X87160706Y-129579014D01*
X87190000Y-129524209D01*
X87219294Y-129579014D01*
X87404866Y-129805134D01*
X87630986Y-129990706D01*
X87888966Y-130128599D01*
X88168889Y-130213513D01*
X88387050Y-130235000D01*
X88532950Y-130235000D01*
X88751111Y-130213513D01*
X89031034Y-130128599D01*
X89289014Y-129990706D01*
X89515134Y-129805134D01*
X89539607Y-129775313D01*
X89560498Y-129844180D01*
X89619463Y-129954494D01*
X89698815Y-130051185D01*
X89795506Y-130130537D01*
X89905820Y-130189502D01*
X90025518Y-130225812D01*
X90150000Y-130238072D01*
X91850000Y-130238072D01*
X91974482Y-130225812D01*
X92094180Y-130189502D01*
X92204494Y-130130537D01*
X92301185Y-130051185D01*
X92380537Y-129954494D01*
X92439502Y-129844180D01*
X92475812Y-129724482D01*
X92488072Y-129600000D01*
X92488072Y-127900000D01*
X92475812Y-127775518D01*
X92439502Y-127655820D01*
X92380537Y-127545506D01*
X92301185Y-127448815D01*
X92204494Y-127369463D01*
X92094180Y-127310498D01*
X91974482Y-127274188D01*
X91850000Y-127261928D01*
X90150000Y-127261928D01*
X90025518Y-127274188D01*
X89905820Y-127310498D01*
X89795506Y-127369463D01*
X89698815Y-127448815D01*
X89619463Y-127545506D01*
X89560498Y-127655820D01*
X89539607Y-127724687D01*
X89515134Y-127694866D01*
X89289014Y-127509294D01*
X89031034Y-127371401D01*
X88751111Y-127286487D01*
X88532950Y-127265000D01*
X88387050Y-127265000D01*
X88168889Y-127286487D01*
X87888966Y-127371401D01*
X87630986Y-127509294D01*
X87404866Y-127694866D01*
X87219294Y-127920986D01*
X87190000Y-127975791D01*
X87160706Y-127920986D01*
X86975134Y-127694866D01*
X86749014Y-127509294D01*
X86491034Y-127371401D01*
X86211111Y-127286487D01*
X85992950Y-127265000D01*
X85847050Y-127265000D01*
X85628889Y-127286487D01*
X85348966Y-127371401D01*
X85090986Y-127509294D01*
X84864866Y-127694866D01*
X84679294Y-127920986D01*
X84650000Y-127975791D01*
X84620706Y-127920986D01*
X84435134Y-127694866D01*
X84209014Y-127509294D01*
X83951034Y-127371401D01*
X83671111Y-127286487D01*
X83452950Y-127265000D01*
X83307050Y-127265000D01*
X83088889Y-127286487D01*
X82808966Y-127371401D01*
X82550986Y-127509294D01*
X82324866Y-127694866D01*
X82139294Y-127920986D01*
X82110000Y-127975791D01*
X82080706Y-127920986D01*
X81895134Y-127694866D01*
X81669014Y-127509294D01*
X81411034Y-127371401D01*
X81131111Y-127286487D01*
X80912950Y-127265000D01*
X80767050Y-127265000D01*
X80548889Y-127286487D01*
X80268966Y-127371401D01*
X80010986Y-127509294D01*
X79784866Y-127694866D01*
X79599294Y-127920986D01*
X79570000Y-127975791D01*
X79540706Y-127920986D01*
X79355134Y-127694866D01*
X79129014Y-127509294D01*
X78871034Y-127371401D01*
X78591111Y-127286487D01*
X78372950Y-127265000D01*
X78227050Y-127265000D01*
X78008889Y-127286487D01*
X77728966Y-127371401D01*
X77470986Y-127509294D01*
X77244866Y-127694866D01*
X77059294Y-127920986D01*
X77030000Y-127975791D01*
X77000706Y-127920986D01*
X76815134Y-127694866D01*
X76589014Y-127509294D01*
X76331034Y-127371401D01*
X76051111Y-127286487D01*
X75832950Y-127265000D01*
X75687050Y-127265000D01*
X75468889Y-127286487D01*
X75188966Y-127371401D01*
X74930986Y-127509294D01*
X74704866Y-127694866D01*
X74519294Y-127920986D01*
X74484799Y-127985523D01*
X74415178Y-127868645D01*
X74220269Y-127652412D01*
X73986920Y-127478359D01*
X73724099Y-127353175D01*
X73576890Y-127308524D01*
X73347000Y-127429845D01*
X73093000Y-127429845D01*
X72863110Y-127308524D01*
X72715901Y-127353175D01*
X72453080Y-127478359D01*
X72219731Y-127652412D01*
X72024822Y-127868645D01*
X71955201Y-127985523D01*
X71920706Y-127920986D01*
X71735134Y-127694866D01*
X71509014Y-127509294D01*
X71251034Y-127371401D01*
X70971111Y-127286487D01*
X70752950Y-127265000D01*
X70607050Y-127265000D01*
X70388889Y-127286487D01*
X70108966Y-127371401D01*
X69850986Y-127509294D01*
X69624866Y-127694866D01*
X69439294Y-127920986D01*
X69404799Y-127985523D01*
X69335178Y-127868645D01*
X69140269Y-127652412D01*
X68906920Y-127478359D01*
X68644099Y-127353175D01*
X68496890Y-127308524D01*
X68267000Y-127429845D01*
X68013000Y-127429845D01*
X67783110Y-127308524D01*
X67635901Y-127353175D01*
X67373080Y-127478359D01*
X67139731Y-127652412D01*
X66944822Y-127868645D01*
X66795843Y-128118748D01*
X66698519Y-128393109D01*
X58627000Y-128393109D01*
X58627000Y-119550000D01*
X93561928Y-119550000D01*
X93574188Y-119674482D01*
X93610498Y-119794180D01*
X93669463Y-119904494D01*
X93748815Y-120001185D01*
X93845506Y-120080537D01*
X93955820Y-120139502D01*
X94075518Y-120175812D01*
X94200000Y-120188072D01*
X94964250Y-120185000D01*
X95123000Y-120026250D01*
X95123000Y-118627000D01*
X95377000Y-118627000D01*
X95377000Y-120026250D01*
X95535750Y-120185000D01*
X96300000Y-120188072D01*
X96424482Y-120175812D01*
X96544180Y-120139502D01*
X96654494Y-120080537D01*
X96751185Y-120001185D01*
X96830537Y-119904494D01*
X96889502Y-119794180D01*
X96925812Y-119674482D01*
X96938072Y-119550000D01*
X96935000Y-118785750D01*
X96776250Y-118627000D01*
X95377000Y-118627000D01*
X95123000Y-118627000D01*
X93723750Y-118627000D01*
X93565000Y-118785750D01*
X93561928Y-119550000D01*
X58627000Y-119550000D01*
X58627000Y-117450000D01*
X93561928Y-117450000D01*
X93565000Y-118214250D01*
X93723750Y-118373000D01*
X95123000Y-118373000D01*
X95123000Y-116973750D01*
X95377000Y-116973750D01*
X95377000Y-118373000D01*
X96776250Y-118373000D01*
X96815208Y-118334042D01*
X98565000Y-118334042D01*
X98565000Y-118665958D01*
X98629754Y-118991496D01*
X98756772Y-119298147D01*
X98941175Y-119574125D01*
X99175875Y-119808825D01*
X99451853Y-119993228D01*
X99758504Y-120120246D01*
X100084042Y-120185000D01*
X100415958Y-120185000D01*
X100741496Y-120120246D01*
X101048147Y-119993228D01*
X101324125Y-119808825D01*
X101558825Y-119574125D01*
X101743228Y-119298147D01*
X101870246Y-118991496D01*
X101935000Y-118665958D01*
X101935000Y-118334042D01*
X101870246Y-118008504D01*
X101743228Y-117701853D01*
X101558825Y-117425875D01*
X101324125Y-117191175D01*
X101048147Y-117006772D01*
X100741496Y-116879754D01*
X100415958Y-116815000D01*
X100084042Y-116815000D01*
X99758504Y-116879754D01*
X99451853Y-117006772D01*
X99175875Y-117191175D01*
X98941175Y-117425875D01*
X98756772Y-117701853D01*
X98629754Y-118008504D01*
X98565000Y-118334042D01*
X96815208Y-118334042D01*
X96935000Y-118214250D01*
X96938072Y-117450000D01*
X96925812Y-117325518D01*
X96889502Y-117205820D01*
X96830537Y-117095506D01*
X96751185Y-116998815D01*
X96654494Y-116919463D01*
X96544180Y-116860498D01*
X96424482Y-116824188D01*
X96300000Y-116811928D01*
X95535750Y-116815000D01*
X95377000Y-116973750D01*
X95123000Y-116973750D01*
X94964250Y-116815000D01*
X94200000Y-116811928D01*
X94075518Y-116824188D01*
X93955820Y-116860498D01*
X93845506Y-116919463D01*
X93748815Y-116998815D01*
X93669463Y-117095506D01*
X93610498Y-117205820D01*
X93574188Y-117325518D01*
X93561928Y-117450000D01*
X58627000Y-117450000D01*
X58627000Y-114671066D01*
X94258539Y-114671066D01*
X94360339Y-114940579D01*
X94658477Y-115086463D01*
X94979346Y-115171380D01*
X95310617Y-115192066D01*
X95639557Y-115147728D01*
X95953527Y-115040069D01*
X96139661Y-114940579D01*
X96241461Y-114671066D01*
X95250000Y-113679605D01*
X94258539Y-114671066D01*
X58627000Y-114671066D01*
X58627000Y-113560617D01*
X93557934Y-113560617D01*
X93602272Y-113889557D01*
X93709931Y-114203527D01*
X93809421Y-114389661D01*
X94078934Y-114491461D01*
X95070395Y-113500000D01*
X95429605Y-113500000D01*
X96421066Y-114491461D01*
X96690579Y-114389661D01*
X96836463Y-114091523D01*
X96921380Y-113770654D01*
X96942066Y-113439383D01*
X96927868Y-113334042D01*
X98565000Y-113334042D01*
X98565000Y-113665958D01*
X98629754Y-113991496D01*
X98756772Y-114298147D01*
X98941175Y-114574125D01*
X99175875Y-114808825D01*
X99451853Y-114993228D01*
X99758504Y-115120246D01*
X100084042Y-115185000D01*
X100415958Y-115185000D01*
X100741496Y-115120246D01*
X101048147Y-114993228D01*
X101324125Y-114808825D01*
X101558825Y-114574125D01*
X101743228Y-114298147D01*
X101870246Y-113991496D01*
X101935000Y-113665958D01*
X101935000Y-113334042D01*
X101870246Y-113008504D01*
X101743228Y-112701853D01*
X101558825Y-112425875D01*
X101324125Y-112191175D01*
X101048147Y-112006772D01*
X100741496Y-111879754D01*
X100415958Y-111815000D01*
X100084042Y-111815000D01*
X99758504Y-111879754D01*
X99451853Y-112006772D01*
X99175875Y-112191175D01*
X98941175Y-112425875D01*
X98756772Y-112701853D01*
X98629754Y-113008504D01*
X98565000Y-113334042D01*
X96927868Y-113334042D01*
X96897728Y-113110443D01*
X96790069Y-112796473D01*
X96690579Y-112610339D01*
X96421066Y-112508539D01*
X95429605Y-113500000D01*
X95070395Y-113500000D01*
X94078934Y-112508539D01*
X93809421Y-112610339D01*
X93663537Y-112908477D01*
X93578620Y-113229346D01*
X93557934Y-113560617D01*
X58627000Y-113560617D01*
X58627000Y-112328934D01*
X94258539Y-112328934D01*
X95250000Y-113320395D01*
X96241461Y-112328934D01*
X96139661Y-112059421D01*
X95841523Y-111913537D01*
X95520654Y-111828620D01*
X95189383Y-111807934D01*
X94860443Y-111852272D01*
X94546473Y-111959931D01*
X94360339Y-112059421D01*
X94258539Y-112328934D01*
X58627000Y-112328934D01*
X58627000Y-111050000D01*
X80561928Y-111050000D01*
X80574188Y-111174482D01*
X80610498Y-111294180D01*
X80669463Y-111404494D01*
X80748815Y-111501185D01*
X80845506Y-111580537D01*
X80955820Y-111639502D01*
X81075518Y-111675812D01*
X81200000Y-111688072D01*
X81964250Y-111685000D01*
X82123000Y-111526250D01*
X82123000Y-110127000D01*
X82377000Y-110127000D01*
X82377000Y-111526250D01*
X82535750Y-111685000D01*
X83300000Y-111688072D01*
X83424482Y-111675812D01*
X83544180Y-111639502D01*
X83654494Y-111580537D01*
X83751185Y-111501185D01*
X83830537Y-111404494D01*
X83889502Y-111294180D01*
X83925812Y-111174482D01*
X83938072Y-111050000D01*
X83935000Y-110285750D01*
X83776250Y-110127000D01*
X82377000Y-110127000D01*
X82123000Y-110127000D01*
X80723750Y-110127000D01*
X80565000Y-110285750D01*
X80561928Y-111050000D01*
X58627000Y-111050000D01*
X58627000Y-108950000D01*
X80561928Y-108950000D01*
X80565000Y-109714250D01*
X80723750Y-109873000D01*
X82123000Y-109873000D01*
X82123000Y-108473750D01*
X82377000Y-108473750D01*
X82377000Y-109873000D01*
X83776250Y-109873000D01*
X83815208Y-109834042D01*
X85565000Y-109834042D01*
X85565000Y-110165958D01*
X85629754Y-110491496D01*
X85756772Y-110798147D01*
X85941175Y-111074125D01*
X86175875Y-111308825D01*
X86451853Y-111493228D01*
X86758504Y-111620246D01*
X87084042Y-111685000D01*
X87415958Y-111685000D01*
X87741496Y-111620246D01*
X88048147Y-111493228D01*
X88324125Y-111308825D01*
X88558825Y-111074125D01*
X88574944Y-111050000D01*
X106561928Y-111050000D01*
X106574188Y-111174482D01*
X106610498Y-111294180D01*
X106669463Y-111404494D01*
X106748815Y-111501185D01*
X106845506Y-111580537D01*
X106955820Y-111639502D01*
X107075518Y-111675812D01*
X107200000Y-111688072D01*
X107964250Y-111685000D01*
X108123000Y-111526250D01*
X108123000Y-110127000D01*
X108377000Y-110127000D01*
X108377000Y-111526250D01*
X108535750Y-111685000D01*
X109300000Y-111688072D01*
X109424482Y-111675812D01*
X109544180Y-111639502D01*
X109654494Y-111580537D01*
X109751185Y-111501185D01*
X109830537Y-111404494D01*
X109889502Y-111294180D01*
X109925812Y-111174482D01*
X109938072Y-111050000D01*
X109935000Y-110285750D01*
X109776250Y-110127000D01*
X108377000Y-110127000D01*
X108123000Y-110127000D01*
X106723750Y-110127000D01*
X106565000Y-110285750D01*
X106561928Y-111050000D01*
X88574944Y-111050000D01*
X88743228Y-110798147D01*
X88870246Y-110491496D01*
X88935000Y-110165958D01*
X88935000Y-109834042D01*
X88870246Y-109508504D01*
X88743228Y-109201853D01*
X88574945Y-108950000D01*
X106561928Y-108950000D01*
X106565000Y-109714250D01*
X106723750Y-109873000D01*
X108123000Y-109873000D01*
X108123000Y-108473750D01*
X108377000Y-108473750D01*
X108377000Y-109873000D01*
X109776250Y-109873000D01*
X109815208Y-109834042D01*
X111565000Y-109834042D01*
X111565000Y-110165958D01*
X111629754Y-110491496D01*
X111756772Y-110798147D01*
X111941175Y-111074125D01*
X112175875Y-111308825D01*
X112451853Y-111493228D01*
X112758504Y-111620246D01*
X113084042Y-111685000D01*
X113415958Y-111685000D01*
X113741496Y-111620246D01*
X114048147Y-111493228D01*
X114324125Y-111308825D01*
X114558825Y-111074125D01*
X114574944Y-111050000D01*
X130811928Y-111050000D01*
X130824188Y-111174482D01*
X130860498Y-111294180D01*
X130919463Y-111404494D01*
X130998815Y-111501185D01*
X131095506Y-111580537D01*
X131205820Y-111639502D01*
X131325518Y-111675812D01*
X131450000Y-111688072D01*
X132214250Y-111685000D01*
X132373000Y-111526250D01*
X132373000Y-110127000D01*
X132627000Y-110127000D01*
X132627000Y-111526250D01*
X132785750Y-111685000D01*
X133550000Y-111688072D01*
X133674482Y-111675812D01*
X133794180Y-111639502D01*
X133904494Y-111580537D01*
X134001185Y-111501185D01*
X134080537Y-111404494D01*
X134139502Y-111294180D01*
X134175812Y-111174482D01*
X134188072Y-111050000D01*
X134185000Y-110285750D01*
X134026250Y-110127000D01*
X132627000Y-110127000D01*
X132373000Y-110127000D01*
X130973750Y-110127000D01*
X130815000Y-110285750D01*
X130811928Y-111050000D01*
X114574944Y-111050000D01*
X114743228Y-110798147D01*
X114870246Y-110491496D01*
X114935000Y-110165958D01*
X114935000Y-109834042D01*
X114870246Y-109508504D01*
X114743228Y-109201853D01*
X114574945Y-108950000D01*
X130811928Y-108950000D01*
X130815000Y-109714250D01*
X130973750Y-109873000D01*
X132373000Y-109873000D01*
X132373000Y-108473750D01*
X132627000Y-108473750D01*
X132627000Y-109873000D01*
X134026250Y-109873000D01*
X134185000Y-109714250D01*
X134188072Y-108950000D01*
X134175812Y-108825518D01*
X134139502Y-108705820D01*
X134080537Y-108595506D01*
X134001185Y-108498815D01*
X133904494Y-108419463D01*
X133794180Y-108360498D01*
X133674482Y-108324188D01*
X133550000Y-108311928D01*
X132785750Y-108315000D01*
X132627000Y-108473750D01*
X132373000Y-108473750D01*
X132214250Y-108315000D01*
X131450000Y-108311928D01*
X131325518Y-108324188D01*
X131205820Y-108360498D01*
X131095506Y-108419463D01*
X130998815Y-108498815D01*
X130919463Y-108595506D01*
X130860498Y-108705820D01*
X130824188Y-108825518D01*
X130811928Y-108950000D01*
X114574945Y-108950000D01*
X114558825Y-108925875D01*
X114324125Y-108691175D01*
X114048147Y-108506772D01*
X113741496Y-108379754D01*
X113415958Y-108315000D01*
X113084042Y-108315000D01*
X112758504Y-108379754D01*
X112451853Y-108506772D01*
X112175875Y-108691175D01*
X111941175Y-108925875D01*
X111756772Y-109201853D01*
X111629754Y-109508504D01*
X111565000Y-109834042D01*
X109815208Y-109834042D01*
X109935000Y-109714250D01*
X109938072Y-108950000D01*
X109925812Y-108825518D01*
X109889502Y-108705820D01*
X109830537Y-108595506D01*
X109751185Y-108498815D01*
X109654494Y-108419463D01*
X109544180Y-108360498D01*
X109424482Y-108324188D01*
X109300000Y-108311928D01*
X108535750Y-108315000D01*
X108377000Y-108473750D01*
X108123000Y-108473750D01*
X107964250Y-108315000D01*
X107200000Y-108311928D01*
X107075518Y-108324188D01*
X106955820Y-108360498D01*
X106845506Y-108419463D01*
X106748815Y-108498815D01*
X106669463Y-108595506D01*
X106610498Y-108705820D01*
X106574188Y-108825518D01*
X106561928Y-108950000D01*
X88574945Y-108950000D01*
X88558825Y-108925875D01*
X88324125Y-108691175D01*
X88048147Y-108506772D01*
X87741496Y-108379754D01*
X87415958Y-108315000D01*
X87084042Y-108315000D01*
X86758504Y-108379754D01*
X86451853Y-108506772D01*
X86175875Y-108691175D01*
X85941175Y-108925875D01*
X85756772Y-109201853D01*
X85629754Y-109508504D01*
X85565000Y-109834042D01*
X83815208Y-109834042D01*
X83935000Y-109714250D01*
X83938072Y-108950000D01*
X83925812Y-108825518D01*
X83889502Y-108705820D01*
X83830537Y-108595506D01*
X83751185Y-108498815D01*
X83654494Y-108419463D01*
X83544180Y-108360498D01*
X83424482Y-108324188D01*
X83300000Y-108311928D01*
X82535750Y-108315000D01*
X82377000Y-108473750D01*
X82123000Y-108473750D01*
X81964250Y-108315000D01*
X81200000Y-108311928D01*
X81075518Y-108324188D01*
X80955820Y-108360498D01*
X80845506Y-108419463D01*
X80748815Y-108498815D01*
X80669463Y-108595506D01*
X80610498Y-108705820D01*
X80574188Y-108825518D01*
X80561928Y-108950000D01*
X58627000Y-108950000D01*
X58627000Y-106171066D01*
X81258539Y-106171066D01*
X81360339Y-106440579D01*
X81658477Y-106586463D01*
X81979346Y-106671380D01*
X82310617Y-106692066D01*
X82639557Y-106647728D01*
X82953527Y-106540069D01*
X83139661Y-106440579D01*
X83241461Y-106171066D01*
X82250000Y-105179605D01*
X81258539Y-106171066D01*
X58627000Y-106171066D01*
X58627000Y-105060617D01*
X80557934Y-105060617D01*
X80602272Y-105389557D01*
X80709931Y-105703527D01*
X80809421Y-105889661D01*
X81078934Y-105991461D01*
X82070395Y-105000000D01*
X82429605Y-105000000D01*
X83421066Y-105991461D01*
X83690579Y-105889661D01*
X83836463Y-105591523D01*
X83921380Y-105270654D01*
X83942066Y-104939383D01*
X83927868Y-104834042D01*
X85565000Y-104834042D01*
X85565000Y-105165958D01*
X85629754Y-105491496D01*
X85756772Y-105798147D01*
X85941175Y-106074125D01*
X86175875Y-106308825D01*
X86451853Y-106493228D01*
X86758504Y-106620246D01*
X87084042Y-106685000D01*
X87415958Y-106685000D01*
X87741496Y-106620246D01*
X88048147Y-106493228D01*
X88324125Y-106308825D01*
X88461884Y-106171066D01*
X107258539Y-106171066D01*
X107360339Y-106440579D01*
X107658477Y-106586463D01*
X107979346Y-106671380D01*
X108310617Y-106692066D01*
X108639557Y-106647728D01*
X108953527Y-106540069D01*
X109139661Y-106440579D01*
X109241461Y-106171066D01*
X108250000Y-105179605D01*
X107258539Y-106171066D01*
X88461884Y-106171066D01*
X88558825Y-106074125D01*
X88743228Y-105798147D01*
X88870246Y-105491496D01*
X88935000Y-105165958D01*
X88935000Y-105060617D01*
X106557934Y-105060617D01*
X106602272Y-105389557D01*
X106709931Y-105703527D01*
X106809421Y-105889661D01*
X107078934Y-105991461D01*
X108070395Y-105000000D01*
X108429605Y-105000000D01*
X109421066Y-105991461D01*
X109690579Y-105889661D01*
X109836463Y-105591523D01*
X109921380Y-105270654D01*
X109942066Y-104939383D01*
X109927868Y-104834042D01*
X111565000Y-104834042D01*
X111565000Y-105165958D01*
X111629754Y-105491496D01*
X111756772Y-105798147D01*
X111941175Y-106074125D01*
X112175875Y-106308825D01*
X112451853Y-106493228D01*
X112758504Y-106620246D01*
X113084042Y-106685000D01*
X113415958Y-106685000D01*
X113741496Y-106620246D01*
X114048147Y-106493228D01*
X114324125Y-106308825D01*
X114461884Y-106171066D01*
X131508539Y-106171066D01*
X131610339Y-106440579D01*
X131908477Y-106586463D01*
X132229346Y-106671380D01*
X132560617Y-106692066D01*
X132889557Y-106647728D01*
X133203527Y-106540069D01*
X133389661Y-106440579D01*
X133491461Y-106171066D01*
X132500000Y-105179605D01*
X131508539Y-106171066D01*
X114461884Y-106171066D01*
X114558825Y-106074125D01*
X114743228Y-105798147D01*
X114870246Y-105491496D01*
X114935000Y-105165958D01*
X114935000Y-105060617D01*
X130807934Y-105060617D01*
X130852272Y-105389557D01*
X130959931Y-105703527D01*
X131059421Y-105889661D01*
X131328934Y-105991461D01*
X132320395Y-105000000D01*
X132679605Y-105000000D01*
X133671066Y-105991461D01*
X133940579Y-105889661D01*
X134086463Y-105591523D01*
X134171380Y-105270654D01*
X134192066Y-104939383D01*
X134147728Y-104610443D01*
X134040069Y-104296473D01*
X133940579Y-104110339D01*
X133671066Y-104008539D01*
X132679605Y-105000000D01*
X132320395Y-105000000D01*
X131328934Y-104008539D01*
X131059421Y-104110339D01*
X130913537Y-104408477D01*
X130828620Y-104729346D01*
X130807934Y-105060617D01*
X114935000Y-105060617D01*
X114935000Y-104834042D01*
X114870246Y-104508504D01*
X114743228Y-104201853D01*
X114558825Y-103925875D01*
X114461884Y-103828934D01*
X131508539Y-103828934D01*
X132500000Y-104820395D01*
X133491461Y-103828934D01*
X133389661Y-103559421D01*
X133091523Y-103413537D01*
X132770654Y-103328620D01*
X132439383Y-103307934D01*
X132110443Y-103352272D01*
X131796473Y-103459931D01*
X131610339Y-103559421D01*
X131508539Y-103828934D01*
X114461884Y-103828934D01*
X114324125Y-103691175D01*
X114048147Y-103506772D01*
X113741496Y-103379754D01*
X113415958Y-103315000D01*
X113084042Y-103315000D01*
X112758504Y-103379754D01*
X112451853Y-103506772D01*
X112175875Y-103691175D01*
X111941175Y-103925875D01*
X111756772Y-104201853D01*
X111629754Y-104508504D01*
X111565000Y-104834042D01*
X109927868Y-104834042D01*
X109897728Y-104610443D01*
X109790069Y-104296473D01*
X109690579Y-104110339D01*
X109421066Y-104008539D01*
X108429605Y-105000000D01*
X108070395Y-105000000D01*
X107078934Y-104008539D01*
X106809421Y-104110339D01*
X106663537Y-104408477D01*
X106578620Y-104729346D01*
X106557934Y-105060617D01*
X88935000Y-105060617D01*
X88935000Y-104834042D01*
X88870246Y-104508504D01*
X88743228Y-104201853D01*
X88558825Y-103925875D01*
X88324125Y-103691175D01*
X88048147Y-103506772D01*
X87741496Y-103379754D01*
X87415958Y-103315000D01*
X87084042Y-103315000D01*
X86758504Y-103379754D01*
X86451853Y-103506772D01*
X86175875Y-103691175D01*
X85941175Y-103925875D01*
X85756772Y-104201853D01*
X85629754Y-104508504D01*
X85565000Y-104834042D01*
X83927868Y-104834042D01*
X83897728Y-104610443D01*
X83790069Y-104296473D01*
X83690579Y-104110339D01*
X83421066Y-104008539D01*
X82429605Y-105000000D01*
X82070395Y-105000000D01*
X81078934Y-104008539D01*
X80809421Y-104110339D01*
X80663537Y-104408477D01*
X80578620Y-104729346D01*
X80557934Y-105060617D01*
X58627000Y-105060617D01*
X58627000Y-103828934D01*
X81258539Y-103828934D01*
X82250000Y-104820395D01*
X83241461Y-103828934D01*
X83139661Y-103559421D01*
X82841523Y-103413537D01*
X82520654Y-103328620D01*
X82189383Y-103307934D01*
X81860443Y-103352272D01*
X81546473Y-103459931D01*
X81360339Y-103559421D01*
X81258539Y-103828934D01*
X58627000Y-103828934D01*
X58627000Y-103300000D01*
X93561928Y-103300000D01*
X93574188Y-103424482D01*
X93610498Y-103544180D01*
X93669463Y-103654494D01*
X93748815Y-103751185D01*
X93845506Y-103830537D01*
X93955820Y-103889502D01*
X94075518Y-103925812D01*
X94200000Y-103938072D01*
X94964250Y-103935000D01*
X95123000Y-103776250D01*
X95123000Y-102377000D01*
X95377000Y-102377000D01*
X95377000Y-103776250D01*
X95535750Y-103935000D01*
X96300000Y-103938072D01*
X96424482Y-103925812D01*
X96544180Y-103889502D01*
X96654494Y-103830537D01*
X96751185Y-103751185D01*
X96830537Y-103654494D01*
X96889502Y-103544180D01*
X96925812Y-103424482D01*
X96938072Y-103300000D01*
X96935000Y-102535750D01*
X96776250Y-102377000D01*
X95377000Y-102377000D01*
X95123000Y-102377000D01*
X93723750Y-102377000D01*
X93565000Y-102535750D01*
X93561928Y-103300000D01*
X58627000Y-103300000D01*
X58627000Y-101200000D01*
X93561928Y-101200000D01*
X93565000Y-101964250D01*
X93723750Y-102123000D01*
X95123000Y-102123000D01*
X95123000Y-100723750D01*
X95377000Y-100723750D01*
X95377000Y-102123000D01*
X96776250Y-102123000D01*
X96815208Y-102084042D01*
X98565000Y-102084042D01*
X98565000Y-102415958D01*
X98629754Y-102741496D01*
X98756772Y-103048147D01*
X98941175Y-103324125D01*
X99175875Y-103558825D01*
X99451853Y-103743228D01*
X99758504Y-103870246D01*
X100084042Y-103935000D01*
X100415958Y-103935000D01*
X100741496Y-103870246D01*
X100841232Y-103828934D01*
X107258539Y-103828934D01*
X108250000Y-104820395D01*
X109241461Y-103828934D01*
X109139661Y-103559421D01*
X108841523Y-103413537D01*
X108520654Y-103328620D01*
X108189383Y-103307934D01*
X107860443Y-103352272D01*
X107546473Y-103459931D01*
X107360339Y-103559421D01*
X107258539Y-103828934D01*
X100841232Y-103828934D01*
X101048147Y-103743228D01*
X101324125Y-103558825D01*
X101558825Y-103324125D01*
X101743228Y-103048147D01*
X101870246Y-102741496D01*
X101935000Y-102415958D01*
X101935000Y-102084042D01*
X101870246Y-101758504D01*
X101743228Y-101451853D01*
X101558825Y-101175875D01*
X101324125Y-100941175D01*
X101048147Y-100756772D01*
X100741496Y-100629754D01*
X100415958Y-100565000D01*
X100084042Y-100565000D01*
X99758504Y-100629754D01*
X99451853Y-100756772D01*
X99175875Y-100941175D01*
X98941175Y-101175875D01*
X98756772Y-101451853D01*
X98629754Y-101758504D01*
X98565000Y-102084042D01*
X96815208Y-102084042D01*
X96935000Y-101964250D01*
X96938072Y-101200000D01*
X96925812Y-101075518D01*
X96889502Y-100955820D01*
X96830537Y-100845506D01*
X96751185Y-100748815D01*
X96654494Y-100669463D01*
X96544180Y-100610498D01*
X96424482Y-100574188D01*
X96300000Y-100561928D01*
X95535750Y-100565000D01*
X95377000Y-100723750D01*
X95123000Y-100723750D01*
X94964250Y-100565000D01*
X94200000Y-100561928D01*
X94075518Y-100574188D01*
X93955820Y-100610498D01*
X93845506Y-100669463D01*
X93748815Y-100748815D01*
X93669463Y-100845506D01*
X93610498Y-100955820D01*
X93574188Y-101075518D01*
X93561928Y-101200000D01*
X58627000Y-101200000D01*
X58627000Y-98421066D01*
X94258539Y-98421066D01*
X94360339Y-98690579D01*
X94658477Y-98836463D01*
X94979346Y-98921380D01*
X95310617Y-98942066D01*
X95639557Y-98897728D01*
X95953527Y-98790069D01*
X96139661Y-98690579D01*
X96241461Y-98421066D01*
X95250000Y-97429605D01*
X94258539Y-98421066D01*
X58627000Y-98421066D01*
X58627000Y-97310617D01*
X93557934Y-97310617D01*
X93602272Y-97639557D01*
X93709931Y-97953527D01*
X93809421Y-98139661D01*
X94078934Y-98241461D01*
X95070395Y-97250000D01*
X95429605Y-97250000D01*
X96421066Y-98241461D01*
X96690579Y-98139661D01*
X96836463Y-97841523D01*
X96921380Y-97520654D01*
X96942066Y-97189383D01*
X96927868Y-97084042D01*
X98565000Y-97084042D01*
X98565000Y-97415958D01*
X98629754Y-97741496D01*
X98756772Y-98048147D01*
X98941175Y-98324125D01*
X99175875Y-98558825D01*
X99451853Y-98743228D01*
X99758504Y-98870246D01*
X100084042Y-98935000D01*
X100415958Y-98935000D01*
X100741496Y-98870246D01*
X101048147Y-98743228D01*
X101324125Y-98558825D01*
X101558825Y-98324125D01*
X101743228Y-98048147D01*
X101870246Y-97741496D01*
X101935000Y-97415958D01*
X101935000Y-97084042D01*
X101870246Y-96758504D01*
X101743228Y-96451853D01*
X101558825Y-96175875D01*
X101324125Y-95941175D01*
X101048147Y-95756772D01*
X100741496Y-95629754D01*
X100415958Y-95565000D01*
X100084042Y-95565000D01*
X99758504Y-95629754D01*
X99451853Y-95756772D01*
X99175875Y-95941175D01*
X98941175Y-96175875D01*
X98756772Y-96451853D01*
X98629754Y-96758504D01*
X98565000Y-97084042D01*
X96927868Y-97084042D01*
X96897728Y-96860443D01*
X96790069Y-96546473D01*
X96690579Y-96360339D01*
X96421066Y-96258539D01*
X95429605Y-97250000D01*
X95070395Y-97250000D01*
X94078934Y-96258539D01*
X93809421Y-96360339D01*
X93663537Y-96658477D01*
X93578620Y-96979346D01*
X93557934Y-97310617D01*
X58627000Y-97310617D01*
X58627000Y-96078934D01*
X94258539Y-96078934D01*
X95250000Y-97070395D01*
X96241461Y-96078934D01*
X96139661Y-95809421D01*
X95841523Y-95663537D01*
X95520654Y-95578620D01*
X95189383Y-95557934D01*
X94860443Y-95602272D01*
X94546473Y-95709931D01*
X94360339Y-95809421D01*
X94258539Y-96078934D01*
X58627000Y-96078934D01*
X58627000Y-93240475D01*
X121795000Y-93240475D01*
X121795000Y-93759525D01*
X121896261Y-94268601D01*
X122094893Y-94748141D01*
X122383262Y-95179715D01*
X122750285Y-95546738D01*
X123181859Y-95835107D01*
X123661399Y-96033739D01*
X124170475Y-96135000D01*
X124689525Y-96135000D01*
X125198601Y-96033739D01*
X125678141Y-95835107D01*
X126109715Y-95546738D01*
X126476738Y-95179715D01*
X126765107Y-94748141D01*
X126963739Y-94268601D01*
X127065000Y-93759525D01*
X127065000Y-93240475D01*
X142115000Y-93240475D01*
X142115000Y-93759525D01*
X142216261Y-94268601D01*
X142414893Y-94748141D01*
X142703262Y-95179715D01*
X143070285Y-95546738D01*
X143501859Y-95835107D01*
X143981399Y-96033739D01*
X144490475Y-96135000D01*
X145009525Y-96135000D01*
X145518601Y-96033739D01*
X145998141Y-95835107D01*
X146429715Y-95546738D01*
X146796738Y-95179715D01*
X147085107Y-94748141D01*
X147283739Y-94268601D01*
X147385000Y-93759525D01*
X147385000Y-93240475D01*
X147283739Y-92731399D01*
X147085107Y-92251859D01*
X146796738Y-91820285D01*
X146429715Y-91453262D01*
X145998141Y-91164893D01*
X145518601Y-90966261D01*
X145009525Y-90865000D01*
X144490475Y-90865000D01*
X143981399Y-90966261D01*
X143501859Y-91164893D01*
X143070285Y-91453262D01*
X142703262Y-91820285D01*
X142414893Y-92251859D01*
X142216261Y-92731399D01*
X142115000Y-93240475D01*
X127065000Y-93240475D01*
X126963739Y-92731399D01*
X126765107Y-92251859D01*
X126476738Y-91820285D01*
X126109715Y-91453262D01*
X125678141Y-91164893D01*
X125198601Y-90966261D01*
X124689525Y-90865000D01*
X124170475Y-90865000D01*
X123661399Y-90966261D01*
X123181859Y-91164893D01*
X122750285Y-91453262D01*
X122383262Y-91820285D01*
X122094893Y-92251859D01*
X121896261Y-92731399D01*
X121795000Y-93240475D01*
X58627000Y-93240475D01*
X58627000Y-81940000D01*
X152373000Y-81940000D01*
X152373000Y-140310000D01*
M02*
