M48
; DRILL file {KiCad (5.1.4-0)} date Monday, 11 November 2019 at 14:47:44
; FORMAT={3:3/ absolute / metric / suppress leading zeros}
; #@! TF.CreationDate,2019-11-11T14:47:44+00:00
; #@! TF.GenerationSoftware,Kicad,Pcbnew,(5.1.4-0)
FMAT,2
METRIC,TZ
T1C0.762
T2C1.000
T3C1.100
T4C3.000
%
G90
G05
T1
X130780Y-125250
X133320Y-125250
X135860Y-125250
X138400Y-125250
T2
X68140Y-128750
X70680Y-128750
X73220Y-128750
X75760Y-128750
X78300Y-128750
X80840Y-128750
X83380Y-128750
X85920Y-128750
X88460Y-128750
X91000Y-128750
T3
X132500Y-105000
X132500Y-110000
X137500Y-105000
X108250Y-105000
X108250Y-110000
X113250Y-105000
X113250Y-110000
X137500Y-110000
X95250Y-113500
X95250Y-118500
X100250Y-113500
X100250Y-118500
X82250Y-105000
X82250Y-110000
X87250Y-105000
X87250Y-110000
X95250Y-97250
X95250Y-102250
X100250Y-97250
X100250Y-102250
T4
X124430Y-93500
X124430Y-123980
X144750Y-93500
X144750Y-123980
T0
M30
