G04 #@! TF.GenerationSoftware,KiCad,Pcbnew,(5.1.4-0)*
G04 #@! TF.CreationDate,2019-11-11T14:47:22+00:00*
G04 #@! TF.ProjectId,2M_DRA818V_Transceiver_Buttons,324d5f44-5241-4383-9138-565f5472616e,rev?*
G04 #@! TF.SameCoordinates,Original*
G04 #@! TF.FileFunction,Legend,Top*
G04 #@! TF.FilePolarity,Positive*
%FSLAX46Y46*%
G04 Gerber Fmt 4.6, Leading zero omitted, Abs format (unit mm)*
G04 Created by KiCad (PCBNEW (5.1.4-0)) date 2019-11-11 14:47:22*
%MOMM*%
%LPD*%
G04 APERTURE LIST*
%ADD10C,0.150000*%
%ADD11C,0.100000*%
%ADD12C,0.120000*%
G04 APERTURE END LIST*
D10*
X66835280Y-120664452D02*
X66835280Y-121140642D01*
X65835280Y-121140642D01*
X66835280Y-120331119D02*
X66168614Y-120331119D01*
X65835280Y-120331119D02*
X65882900Y-120378738D01*
X65930519Y-120331119D01*
X65882900Y-120283500D01*
X65835280Y-120331119D01*
X65930519Y-120331119D01*
X66787661Y-119426357D02*
X66835280Y-119521595D01*
X66835280Y-119712071D01*
X66787661Y-119807309D01*
X66740042Y-119854928D01*
X66644804Y-119902547D01*
X66359090Y-119902547D01*
X66263852Y-119854928D01*
X66216233Y-119807309D01*
X66168614Y-119712071D01*
X66168614Y-119521595D01*
X66216233Y-119426357D01*
X66787661Y-118616833D02*
X66835280Y-118712071D01*
X66835280Y-118902547D01*
X66787661Y-118997785D01*
X66692423Y-119045404D01*
X66311471Y-119045404D01*
X66216233Y-118997785D01*
X66168614Y-118902547D01*
X66168614Y-118712071D01*
X66216233Y-118616833D01*
X66311471Y-118569214D01*
X66406709Y-118569214D01*
X66501947Y-119045404D01*
X66168614Y-118140642D02*
X66835280Y-118140642D01*
X66263852Y-118140642D02*
X66216233Y-118093023D01*
X66168614Y-117997785D01*
X66168614Y-117854928D01*
X66216233Y-117759690D01*
X66311471Y-117712071D01*
X66835280Y-117712071D01*
X66787661Y-117283500D02*
X66835280Y-117188261D01*
X66835280Y-116997785D01*
X66787661Y-116902547D01*
X66692423Y-116854928D01*
X66644804Y-116854928D01*
X66549566Y-116902547D01*
X66501947Y-116997785D01*
X66501947Y-117140642D01*
X66454328Y-117235880D01*
X66359090Y-117283500D01*
X66311471Y-117283500D01*
X66216233Y-117235880D01*
X66168614Y-117140642D01*
X66168614Y-116997785D01*
X66216233Y-116902547D01*
X66787661Y-116045404D02*
X66835280Y-116140642D01*
X66835280Y-116331119D01*
X66787661Y-116426357D01*
X66692423Y-116473976D01*
X66311471Y-116473976D01*
X66216233Y-116426357D01*
X66168614Y-116331119D01*
X66168614Y-116140642D01*
X66216233Y-116045404D01*
X66311471Y-115997785D01*
X66406709Y-115997785D01*
X66501947Y-116473976D01*
X66835280Y-115140642D02*
X65835280Y-115140642D01*
X66787661Y-115140642D02*
X66835280Y-115235880D01*
X66835280Y-115426357D01*
X66787661Y-115521595D01*
X66740042Y-115569214D01*
X66644804Y-115616833D01*
X66359090Y-115616833D01*
X66263852Y-115569214D01*
X66216233Y-115521595D01*
X66168614Y-115426357D01*
X66168614Y-115235880D01*
X66216233Y-115140642D01*
X66168614Y-113473976D02*
X66835280Y-113473976D01*
X66168614Y-113902547D02*
X66692423Y-113902547D01*
X66787661Y-113854928D01*
X66835280Y-113759690D01*
X66835280Y-113616833D01*
X66787661Y-113521595D01*
X66740042Y-113473976D01*
X66168614Y-112997785D02*
X66835280Y-112997785D01*
X66263852Y-112997785D02*
X66216233Y-112950166D01*
X66168614Y-112854928D01*
X66168614Y-112712071D01*
X66216233Y-112616833D01*
X66311471Y-112569214D01*
X66835280Y-112569214D01*
X66835280Y-111664452D02*
X65835280Y-111664452D01*
X66787661Y-111664452D02*
X66835280Y-111759690D01*
X66835280Y-111950166D01*
X66787661Y-112045404D01*
X66740042Y-112093023D01*
X66644804Y-112140642D01*
X66359090Y-112140642D01*
X66263852Y-112093023D01*
X66216233Y-112045404D01*
X66168614Y-111950166D01*
X66168614Y-111759690D01*
X66216233Y-111664452D01*
X66787661Y-110807309D02*
X66835280Y-110902547D01*
X66835280Y-111093023D01*
X66787661Y-111188261D01*
X66692423Y-111235880D01*
X66311471Y-111235880D01*
X66216233Y-111188261D01*
X66168614Y-111093023D01*
X66168614Y-110902547D01*
X66216233Y-110807309D01*
X66311471Y-110759690D01*
X66406709Y-110759690D01*
X66501947Y-111235880D01*
X66835280Y-110331119D02*
X66168614Y-110331119D01*
X66359090Y-110331119D02*
X66263852Y-110283500D01*
X66216233Y-110235880D01*
X66168614Y-110140642D01*
X66168614Y-110045404D01*
X66740042Y-108378738D02*
X66787661Y-108426357D01*
X66835280Y-108569214D01*
X66835280Y-108664452D01*
X66787661Y-108807309D01*
X66692423Y-108902547D01*
X66597185Y-108950166D01*
X66406709Y-108997785D01*
X66263852Y-108997785D01*
X66073376Y-108950166D01*
X65978138Y-108902547D01*
X65882900Y-108807309D01*
X65835280Y-108664452D01*
X65835280Y-108569214D01*
X65882900Y-108426357D01*
X65930519Y-108378738D01*
X66311471Y-107950166D02*
X66311471Y-107616833D01*
X66835280Y-107473976D02*
X66835280Y-107950166D01*
X65835280Y-107950166D01*
X65835280Y-107473976D01*
X66835280Y-106473976D02*
X66359090Y-106807309D01*
X66835280Y-107045404D02*
X65835280Y-107045404D01*
X65835280Y-106664452D01*
X65882900Y-106569214D01*
X65930519Y-106521595D01*
X66025757Y-106473976D01*
X66168614Y-106473976D01*
X66263852Y-106521595D01*
X66311471Y-106569214D01*
X66359090Y-106664452D01*
X66359090Y-107045404D01*
X66835280Y-106045404D02*
X65835280Y-106045404D01*
X66835280Y-105473976D01*
X65835280Y-105473976D01*
X65835280Y-104045404D02*
X65835280Y-103854928D01*
X65882900Y-103759690D01*
X65978138Y-103664452D01*
X66168614Y-103616833D01*
X66501947Y-103616833D01*
X66692423Y-103664452D01*
X66787661Y-103759690D01*
X66835280Y-103854928D01*
X66835280Y-104045404D01*
X66787661Y-104140642D01*
X66692423Y-104235880D01*
X66501947Y-104283500D01*
X66168614Y-104283500D01*
X65978138Y-104235880D01*
X65882900Y-104140642D01*
X65835280Y-104045404D01*
X66835280Y-103188261D02*
X65835280Y-103188261D01*
X66311471Y-103188261D02*
X66311471Y-102616833D01*
X66835280Y-102616833D02*
X65835280Y-102616833D01*
X66835280Y-101664452D02*
X66835280Y-102140642D01*
X65835280Y-102140642D01*
X66168614Y-100664452D02*
X66835280Y-100426357D01*
X66168614Y-100188261D01*
X66740042Y-99807309D02*
X66787661Y-99759690D01*
X66835280Y-99807309D01*
X66787661Y-99854928D01*
X66740042Y-99807309D01*
X66835280Y-99807309D01*
X66835280Y-98807309D02*
X66835280Y-99378738D01*
X66835280Y-99093023D02*
X65835280Y-99093023D01*
X65978138Y-99188261D01*
X66073376Y-99283500D01*
X66120995Y-99378738D01*
X66740042Y-98378738D02*
X66787661Y-98331119D01*
X66835280Y-98378738D01*
X66787661Y-98426357D01*
X66740042Y-98378738D01*
X66835280Y-98378738D01*
X65930519Y-97950166D02*
X65882900Y-97902547D01*
X65835280Y-97807309D01*
X65835280Y-97569214D01*
X65882900Y-97473976D01*
X65930519Y-97426357D01*
X66025757Y-97378738D01*
X66120995Y-97378738D01*
X66263852Y-97426357D01*
X66835280Y-97997785D01*
X66835280Y-97378738D01*
X62498242Y-120868600D02*
X62545861Y-120916219D01*
X62593480Y-121059076D01*
X62593480Y-121154314D01*
X62545861Y-121297171D01*
X62450623Y-121392409D01*
X62355385Y-121440028D01*
X62164909Y-121487647D01*
X62022052Y-121487647D01*
X61831576Y-121440028D01*
X61736338Y-121392409D01*
X61641100Y-121297171D01*
X61593480Y-121154314D01*
X61593480Y-121059076D01*
X61641100Y-120916219D01*
X61688719Y-120868600D01*
X62593480Y-120297171D02*
X62545861Y-120392409D01*
X62498242Y-120440028D01*
X62403004Y-120487647D01*
X62117290Y-120487647D01*
X62022052Y-120440028D01*
X61974433Y-120392409D01*
X61926814Y-120297171D01*
X61926814Y-120154314D01*
X61974433Y-120059076D01*
X62022052Y-120011457D01*
X62117290Y-119963838D01*
X62403004Y-119963838D01*
X62498242Y-120011457D01*
X62545861Y-120059076D01*
X62593480Y-120154314D01*
X62593480Y-120297171D01*
X61926814Y-119535266D02*
X62926814Y-119535266D01*
X61974433Y-119535266D02*
X61926814Y-119440028D01*
X61926814Y-119249552D01*
X61974433Y-119154314D01*
X62022052Y-119106695D01*
X62117290Y-119059076D01*
X62403004Y-119059076D01*
X62498242Y-119106695D01*
X62545861Y-119154314D01*
X62593480Y-119249552D01*
X62593480Y-119440028D01*
X62545861Y-119535266D01*
X61926814Y-118725742D02*
X62593480Y-118487647D01*
X61926814Y-118249552D02*
X62593480Y-118487647D01*
X62831576Y-118582885D01*
X62879195Y-118630504D01*
X62926814Y-118725742D01*
X62593480Y-117868600D02*
X61926814Y-117868600D01*
X62117290Y-117868600D02*
X62022052Y-117820980D01*
X61974433Y-117773361D01*
X61926814Y-117678123D01*
X61926814Y-117582885D01*
X62593480Y-117249552D02*
X61926814Y-117249552D01*
X61593480Y-117249552D02*
X61641100Y-117297171D01*
X61688719Y-117249552D01*
X61641100Y-117201933D01*
X61593480Y-117249552D01*
X61688719Y-117249552D01*
X61926814Y-116344790D02*
X62736338Y-116344790D01*
X62831576Y-116392409D01*
X62879195Y-116440028D01*
X62926814Y-116535266D01*
X62926814Y-116678123D01*
X62879195Y-116773361D01*
X62545861Y-116344790D02*
X62593480Y-116440028D01*
X62593480Y-116630504D01*
X62545861Y-116725742D01*
X62498242Y-116773361D01*
X62403004Y-116820980D01*
X62117290Y-116820980D01*
X62022052Y-116773361D01*
X61974433Y-116725742D01*
X61926814Y-116630504D01*
X61926814Y-116440028D01*
X61974433Y-116344790D01*
X62593480Y-115868600D02*
X61593480Y-115868600D01*
X62593480Y-115440028D02*
X62069671Y-115440028D01*
X61974433Y-115487647D01*
X61926814Y-115582885D01*
X61926814Y-115725742D01*
X61974433Y-115820980D01*
X62022052Y-115868600D01*
X61926814Y-115106695D02*
X61926814Y-114725742D01*
X61593480Y-114963838D02*
X62450623Y-114963838D01*
X62545861Y-114916219D01*
X62593480Y-114820980D01*
X62593480Y-114725742D01*
X62974433Y-113344790D02*
X62926814Y-113392409D01*
X62783957Y-113487647D01*
X62688719Y-113535266D01*
X62545861Y-113582885D01*
X62307766Y-113630504D01*
X62117290Y-113630504D01*
X61879195Y-113582885D01*
X61736338Y-113535266D01*
X61641100Y-113487647D01*
X61498242Y-113392409D01*
X61450623Y-113344790D01*
X62498242Y-112392409D02*
X62545861Y-112440028D01*
X62593480Y-112582885D01*
X62593480Y-112678123D01*
X62545861Y-112820980D01*
X62450623Y-112916219D01*
X62355385Y-112963838D01*
X62164909Y-113011457D01*
X62022052Y-113011457D01*
X61831576Y-112963838D01*
X61736338Y-112916219D01*
X61641100Y-112820980D01*
X61593480Y-112678123D01*
X61593480Y-112582885D01*
X61641100Y-112440028D01*
X61688719Y-112392409D01*
X62974433Y-112059076D02*
X62926814Y-112011457D01*
X62783957Y-111916219D01*
X62688719Y-111868600D01*
X62545861Y-111820980D01*
X62307766Y-111773361D01*
X62117290Y-111773361D01*
X61879195Y-111820980D01*
X61736338Y-111868600D01*
X61641100Y-111916219D01*
X61498242Y-112011457D01*
X61450623Y-112059076D01*
X62593480Y-110535266D02*
X61593480Y-110535266D01*
X62593480Y-109963838D02*
X62022052Y-110392409D01*
X61593480Y-109963838D02*
X62164909Y-110535266D01*
X62545861Y-109154314D02*
X62593480Y-109249552D01*
X62593480Y-109440028D01*
X62545861Y-109535266D01*
X62450623Y-109582885D01*
X62069671Y-109582885D01*
X61974433Y-109535266D01*
X61926814Y-109440028D01*
X61926814Y-109249552D01*
X61974433Y-109154314D01*
X62069671Y-109106695D01*
X62164909Y-109106695D01*
X62260147Y-109582885D01*
X61926814Y-108773361D02*
X62593480Y-108535266D01*
X61926814Y-108297171D01*
X62593480Y-107916219D02*
X61926814Y-107916219D01*
X61593480Y-107916219D02*
X61641100Y-107963838D01*
X61688719Y-107916219D01*
X61641100Y-107868600D01*
X61593480Y-107916219D01*
X61688719Y-107916219D01*
X61926814Y-107440028D02*
X62593480Y-107440028D01*
X62022052Y-107440028D02*
X61974433Y-107392409D01*
X61926814Y-107297171D01*
X61926814Y-107154314D01*
X61974433Y-107059076D01*
X62069671Y-107011457D01*
X62593480Y-107011457D01*
X61593480Y-105868600D02*
X62593480Y-105630504D01*
X61879195Y-105440028D01*
X62593480Y-105249552D01*
X61593480Y-105011457D01*
X62593480Y-104630504D02*
X61593480Y-104630504D01*
X62593480Y-104201933D02*
X62069671Y-104201933D01*
X61974433Y-104249552D01*
X61926814Y-104344790D01*
X61926814Y-104487647D01*
X61974433Y-104582885D01*
X62022052Y-104630504D01*
X62545861Y-103344790D02*
X62593480Y-103440028D01*
X62593480Y-103630504D01*
X62545861Y-103725742D01*
X62450623Y-103773361D01*
X62069671Y-103773361D01*
X61974433Y-103725742D01*
X61926814Y-103630504D01*
X61926814Y-103440028D01*
X61974433Y-103344790D01*
X62069671Y-103297171D01*
X62164909Y-103297171D01*
X62260147Y-103773361D01*
X62593480Y-102440028D02*
X62069671Y-102440028D01*
X61974433Y-102487647D01*
X61926814Y-102582885D01*
X61926814Y-102773361D01*
X61974433Y-102868600D01*
X62545861Y-102440028D02*
X62593480Y-102535266D01*
X62593480Y-102773361D01*
X62545861Y-102868600D01*
X62450623Y-102916219D01*
X62355385Y-102916219D01*
X62260147Y-102868600D01*
X62212528Y-102773361D01*
X62212528Y-102535266D01*
X62164909Y-102440028D01*
X61926814Y-102106695D02*
X61926814Y-101725742D01*
X61593480Y-101963838D02*
X62450623Y-101963838D01*
X62545861Y-101916219D01*
X62593480Y-101820980D01*
X62593480Y-101725742D01*
X62593480Y-101249552D02*
X62545861Y-101344790D01*
X62450623Y-101392409D01*
X61593480Y-101392409D01*
X62545861Y-100487647D02*
X62593480Y-100582885D01*
X62593480Y-100773361D01*
X62545861Y-100868600D01*
X62450623Y-100916219D01*
X62069671Y-100916219D01*
X61974433Y-100868600D01*
X61926814Y-100773361D01*
X61926814Y-100582885D01*
X61974433Y-100487647D01*
X62069671Y-100440028D01*
X62164909Y-100440028D01*
X62260147Y-100916219D01*
X61926814Y-100106695D02*
X62593480Y-99868600D01*
X61926814Y-99630504D02*
X62593480Y-99868600D01*
X62831576Y-99963838D01*
X62879195Y-100011457D01*
X62926814Y-100106695D01*
X62212528Y-98487647D02*
X62212528Y-97725742D01*
X62593480Y-96487647D02*
X61593480Y-96487647D01*
X62307766Y-96154314D01*
X61593480Y-95820980D01*
X62593480Y-95820980D01*
X61593480Y-95154314D02*
X61593480Y-95059076D01*
X61641100Y-94963838D01*
X61688719Y-94916219D01*
X61783957Y-94868600D01*
X61974433Y-94820980D01*
X62212528Y-94820980D01*
X62403004Y-94868600D01*
X62498242Y-94916219D01*
X62545861Y-94963838D01*
X62593480Y-95059076D01*
X62593480Y-95154314D01*
X62545861Y-95249552D01*
X62498242Y-95297171D01*
X62403004Y-95344790D01*
X62212528Y-95392409D01*
X61974433Y-95392409D01*
X61783957Y-95344790D01*
X61688719Y-95297171D01*
X61641100Y-95249552D01*
X61593480Y-95154314D01*
X62593480Y-94392409D02*
X61593480Y-94392409D01*
X62593480Y-93820980D02*
X62022052Y-94249552D01*
X61593480Y-93820980D02*
X62164909Y-94392409D01*
X62593480Y-93392409D02*
X61593480Y-93392409D01*
X62069671Y-93392409D02*
X62069671Y-92820980D01*
X62593480Y-92820980D02*
X61593480Y-92820980D01*
X61593480Y-92440028D02*
X61593480Y-91773361D01*
X62593480Y-92440028D01*
X62593480Y-91773361D01*
X61688719Y-90678123D02*
X61641100Y-90630504D01*
X61593480Y-90535266D01*
X61593480Y-90297171D01*
X61641100Y-90201933D01*
X61688719Y-90154314D01*
X61783957Y-90106695D01*
X61879195Y-90106695D01*
X62022052Y-90154314D01*
X62593480Y-90725742D01*
X62593480Y-90106695D01*
X61593480Y-89487647D02*
X61593480Y-89392409D01*
X61641100Y-89297171D01*
X61688719Y-89249552D01*
X61783957Y-89201933D01*
X61974433Y-89154314D01*
X62212528Y-89154314D01*
X62403004Y-89201933D01*
X62498242Y-89249552D01*
X62545861Y-89297171D01*
X62593480Y-89392409D01*
X62593480Y-89487647D01*
X62545861Y-89582885D01*
X62498242Y-89630504D01*
X62403004Y-89678123D01*
X62212528Y-89725742D01*
X61974433Y-89725742D01*
X61783957Y-89678123D01*
X61688719Y-89630504D01*
X61641100Y-89582885D01*
X61593480Y-89487647D01*
X61688719Y-88773361D02*
X61641100Y-88725742D01*
X61593480Y-88630504D01*
X61593480Y-88392409D01*
X61641100Y-88297171D01*
X61688719Y-88249552D01*
X61783957Y-88201933D01*
X61879195Y-88201933D01*
X62022052Y-88249552D01*
X62593480Y-88820980D01*
X62593480Y-88201933D01*
X61593480Y-87582885D02*
X61593480Y-87487647D01*
X61641100Y-87392409D01*
X61688719Y-87344790D01*
X61783957Y-87297171D01*
X61974433Y-87249552D01*
X62212528Y-87249552D01*
X62403004Y-87297171D01*
X62498242Y-87344790D01*
X62545861Y-87392409D01*
X62593480Y-87487647D01*
X62593480Y-87582885D01*
X62545861Y-87678123D01*
X62498242Y-87725742D01*
X62403004Y-87773361D01*
X62212528Y-87820980D01*
X61974433Y-87820980D01*
X61783957Y-87773361D01*
X61688719Y-87725742D01*
X61641100Y-87678123D01*
X61593480Y-87582885D01*
X63638180Y-121375985D02*
X63638180Y-120804557D01*
X64638180Y-121090271D02*
X63638180Y-121090271D01*
X64590561Y-120090271D02*
X64638180Y-120185509D01*
X64638180Y-120375985D01*
X64590561Y-120471223D01*
X64495323Y-120518842D01*
X64114371Y-120518842D01*
X64019133Y-120471223D01*
X63971514Y-120375985D01*
X63971514Y-120185509D01*
X64019133Y-120090271D01*
X64114371Y-120042652D01*
X64209609Y-120042652D01*
X64304847Y-120518842D01*
X64590561Y-119233128D02*
X64638180Y-119328366D01*
X64638180Y-119518842D01*
X64590561Y-119614080D01*
X64495323Y-119661700D01*
X64114371Y-119661700D01*
X64019133Y-119614080D01*
X63971514Y-119518842D01*
X63971514Y-119328366D01*
X64019133Y-119233128D01*
X64114371Y-119185509D01*
X64209609Y-119185509D01*
X64304847Y-119661700D01*
X63971514Y-118756938D02*
X64638180Y-118756938D01*
X64066752Y-118756938D02*
X64019133Y-118709319D01*
X63971514Y-118614080D01*
X63971514Y-118471223D01*
X64019133Y-118375985D01*
X64114371Y-118328366D01*
X64638180Y-118328366D01*
X64590561Y-117899795D02*
X64638180Y-117804557D01*
X64638180Y-117614080D01*
X64590561Y-117518842D01*
X64495323Y-117471223D01*
X64447704Y-117471223D01*
X64352466Y-117518842D01*
X64304847Y-117614080D01*
X64304847Y-117756938D01*
X64257228Y-117852176D01*
X64161990Y-117899795D01*
X64114371Y-117899795D01*
X64019133Y-117852176D01*
X63971514Y-117756938D01*
X63971514Y-117614080D01*
X64019133Y-117518842D01*
X63971514Y-117137890D02*
X64638180Y-116899795D01*
X63971514Y-116661700D02*
X64638180Y-116899795D01*
X64876276Y-116995033D01*
X64923895Y-117042652D01*
X64971514Y-117137890D01*
X63638180Y-115661700D02*
X63638180Y-115090271D01*
X64638180Y-115375985D02*
X63638180Y-115375985D01*
X64638180Y-114185509D02*
X64161990Y-114518842D01*
X64638180Y-114756938D02*
X63638180Y-114756938D01*
X63638180Y-114375985D01*
X63685800Y-114280747D01*
X63733419Y-114233128D01*
X63828657Y-114185509D01*
X63971514Y-114185509D01*
X64066752Y-114233128D01*
X64114371Y-114280747D01*
X64161990Y-114375985D01*
X64161990Y-114756938D01*
X64638180Y-113852176D02*
X63971514Y-113328366D01*
X63971514Y-113852176D02*
X64638180Y-113328366D01*
X63638180Y-112328366D02*
X64638180Y-111995033D01*
X63638180Y-111661700D01*
X64590561Y-110947414D02*
X64638180Y-111042652D01*
X64638180Y-111233128D01*
X64590561Y-111328366D01*
X64495323Y-111375985D01*
X64114371Y-111375985D01*
X64019133Y-111328366D01*
X63971514Y-111233128D01*
X63971514Y-111042652D01*
X64019133Y-110947414D01*
X64114371Y-110899795D01*
X64209609Y-110899795D01*
X64304847Y-111375985D01*
X64638180Y-110471223D02*
X63971514Y-110471223D01*
X64161990Y-110471223D02*
X64066752Y-110423604D01*
X64019133Y-110375985D01*
X63971514Y-110280747D01*
X63971514Y-110185509D01*
X64590561Y-109899795D02*
X64638180Y-109804557D01*
X64638180Y-109614080D01*
X64590561Y-109518842D01*
X64495323Y-109471223D01*
X64447704Y-109471223D01*
X64352466Y-109518842D01*
X64304847Y-109614080D01*
X64304847Y-109756938D01*
X64257228Y-109852176D01*
X64161990Y-109899795D01*
X64114371Y-109899795D01*
X64019133Y-109852176D01*
X63971514Y-109756938D01*
X63971514Y-109614080D01*
X64019133Y-109518842D01*
X64638180Y-109042652D02*
X63971514Y-109042652D01*
X63638180Y-109042652D02*
X63685800Y-109090271D01*
X63733419Y-109042652D01*
X63685800Y-108995033D01*
X63638180Y-109042652D01*
X63733419Y-109042652D01*
X64638180Y-108423604D02*
X64590561Y-108518842D01*
X64542942Y-108566461D01*
X64447704Y-108614080D01*
X64161990Y-108614080D01*
X64066752Y-108566461D01*
X64019133Y-108518842D01*
X63971514Y-108423604D01*
X63971514Y-108280747D01*
X64019133Y-108185509D01*
X64066752Y-108137890D01*
X64161990Y-108090271D01*
X64447704Y-108090271D01*
X64542942Y-108137890D01*
X64590561Y-108185509D01*
X64638180Y-108280747D01*
X64638180Y-108423604D01*
X63971514Y-107661700D02*
X64638180Y-107661700D01*
X64066752Y-107661700D02*
X64019133Y-107614080D01*
X63971514Y-107518842D01*
X63971514Y-107375985D01*
X64019133Y-107280747D01*
X64114371Y-107233128D01*
X64638180Y-107233128D01*
X64638180Y-105471223D02*
X64638180Y-106042652D01*
X64638180Y-105756938D02*
X63638180Y-105756938D01*
X63781038Y-105852176D01*
X63876276Y-105947414D01*
X63923895Y-106042652D01*
X64542942Y-105042652D02*
X64590561Y-104995033D01*
X64638180Y-105042652D01*
X64590561Y-105090271D01*
X64542942Y-105042652D01*
X64638180Y-105042652D01*
X63638180Y-104375985D02*
X63638180Y-104280747D01*
X63685800Y-104185509D01*
X63733419Y-104137890D01*
X63828657Y-104090271D01*
X64019133Y-104042652D01*
X64257228Y-104042652D01*
X64447704Y-104090271D01*
X64542942Y-104137890D01*
X64590561Y-104185509D01*
X64638180Y-104280747D01*
X64638180Y-104375985D01*
X64590561Y-104471223D01*
X64542942Y-104518842D01*
X64447704Y-104566461D01*
X64257228Y-104614080D01*
X64019133Y-104614080D01*
X63828657Y-104566461D01*
X63733419Y-104518842D01*
X63685800Y-104471223D01*
X63638180Y-104375985D01*
D11*
X96000000Y-105600000D02*
X96750000Y-105600000D01*
X99500000Y-105600000D02*
X98750000Y-105600000D01*
X99499530Y-105598431D02*
G75*
G03X100500000Y-105200000I-1749530J5848431D01*
G01*
X94979019Y-105191200D02*
G75*
G03X96000000Y-105600000I2770981J5441200D01*
G01*
X100899999Y-94500000D02*
G75*
G03X94600000Y-94500000I-3149999J-5250000D01*
G01*
X100899999Y-110750000D02*
G75*
G03X94600000Y-110750000I-3149999J-5250000D01*
G01*
X94979019Y-121441200D02*
G75*
G03X96000000Y-121850000I2770981J5441200D01*
G01*
X99499530Y-121848431D02*
G75*
G03X100500000Y-121450000I-1749530J5848431D01*
G01*
X99500000Y-121850000D02*
X98750000Y-121850000D01*
X96000000Y-121850000D02*
X96750000Y-121850000D01*
X83000000Y-113350000D02*
X83750000Y-113350000D01*
X86500000Y-113350000D02*
X85750000Y-113350000D01*
X86499530Y-113348431D02*
G75*
G03X87500000Y-112950000I-1749530J5848431D01*
G01*
X81979019Y-112941200D02*
G75*
G03X83000000Y-113350000I2770981J5441200D01*
G01*
X87899999Y-102250000D02*
G75*
G03X81600000Y-102250000I-3149999J-5250000D01*
G01*
X113899999Y-102250000D02*
G75*
G03X107600000Y-102250000I-3149999J-5250000D01*
G01*
X107979019Y-112941200D02*
G75*
G03X109000000Y-113350000I2770981J5441200D01*
G01*
X112499530Y-113348431D02*
G75*
G03X113500000Y-112950000I-1749530J5848431D01*
G01*
X112500000Y-113350000D02*
X111750000Y-113350000D01*
X109000000Y-113350000D02*
X109750000Y-113350000D01*
X133250000Y-113350000D02*
X134000000Y-113350000D01*
X136750000Y-113350000D02*
X136000000Y-113350000D01*
X136749530Y-113348431D02*
G75*
G03X137750000Y-112950000I-1749530J5848431D01*
G01*
X132229019Y-112941200D02*
G75*
G03X133250000Y-113350000I2770981J5441200D01*
G01*
X138149999Y-102250000D02*
G75*
G03X131850000Y-102250000I-3149999J-5250000D01*
G01*
D12*
X92330000Y-130190000D02*
X66810000Y-130190000D01*
X66810000Y-130190000D02*
X66810000Y-132850000D01*
X66810000Y-132850000D02*
X92330000Y-132850000D01*
X92330000Y-132850000D02*
X92330000Y-130190000D01*
X91380000Y-132850000D02*
X91380000Y-138850000D01*
X91380000Y-138850000D02*
X90620000Y-138850000D01*
X90620000Y-138850000D02*
X90620000Y-132850000D01*
X91320000Y-132850000D02*
X91320000Y-138850000D01*
X91200000Y-132850000D02*
X91200000Y-138850000D01*
X91080000Y-132850000D02*
X91080000Y-138850000D01*
X90960000Y-132850000D02*
X90960000Y-138850000D01*
X90840000Y-132850000D02*
X90840000Y-138850000D01*
X90720000Y-132850000D02*
X90720000Y-138850000D01*
X91380000Y-129860000D02*
X91380000Y-130190000D01*
X90620000Y-129860000D02*
X90620000Y-130190000D01*
X89730000Y-130190000D02*
X89730000Y-132850000D01*
X88840000Y-132850000D02*
X88840000Y-138850000D01*
X88840000Y-138850000D02*
X88080000Y-138850000D01*
X88080000Y-138850000D02*
X88080000Y-132850000D01*
X88840000Y-129792929D02*
X88840000Y-130190000D01*
X88080000Y-129792929D02*
X88080000Y-130190000D01*
X87190000Y-130190000D02*
X87190000Y-132850000D01*
X86300000Y-132850000D02*
X86300000Y-138850000D01*
X86300000Y-138850000D02*
X85540000Y-138850000D01*
X85540000Y-138850000D02*
X85540000Y-132850000D01*
X86300000Y-129792929D02*
X86300000Y-130190000D01*
X85540000Y-129792929D02*
X85540000Y-130190000D01*
X84650000Y-130190000D02*
X84650000Y-132850000D01*
X83760000Y-132850000D02*
X83760000Y-138850000D01*
X83760000Y-138850000D02*
X83000000Y-138850000D01*
X83000000Y-138850000D02*
X83000000Y-132850000D01*
X83760000Y-129792929D02*
X83760000Y-130190000D01*
X83000000Y-129792929D02*
X83000000Y-130190000D01*
X82110000Y-130190000D02*
X82110000Y-132850000D01*
X81220000Y-132850000D02*
X81220000Y-138850000D01*
X81220000Y-138850000D02*
X80460000Y-138850000D01*
X80460000Y-138850000D02*
X80460000Y-132850000D01*
X81220000Y-129792929D02*
X81220000Y-130190000D01*
X80460000Y-129792929D02*
X80460000Y-130190000D01*
X79570000Y-130190000D02*
X79570000Y-132850000D01*
X78680000Y-132850000D02*
X78680000Y-138850000D01*
X78680000Y-138850000D02*
X77920000Y-138850000D01*
X77920000Y-138850000D02*
X77920000Y-132850000D01*
X78680000Y-129792929D02*
X78680000Y-130190000D01*
X77920000Y-129792929D02*
X77920000Y-130190000D01*
X77030000Y-130190000D02*
X77030000Y-132850000D01*
X76140000Y-132850000D02*
X76140000Y-138850000D01*
X76140000Y-138850000D02*
X75380000Y-138850000D01*
X75380000Y-138850000D02*
X75380000Y-132850000D01*
X76140000Y-129792929D02*
X76140000Y-130190000D01*
X75380000Y-129792929D02*
X75380000Y-130190000D01*
X74490000Y-130190000D02*
X74490000Y-132850000D01*
X73600000Y-132850000D02*
X73600000Y-138850000D01*
X73600000Y-138850000D02*
X72840000Y-138850000D01*
X72840000Y-138850000D02*
X72840000Y-132850000D01*
X73600000Y-129792929D02*
X73600000Y-130190000D01*
X72840000Y-129792929D02*
X72840000Y-130190000D01*
X71950000Y-130190000D02*
X71950000Y-132850000D01*
X71060000Y-132850000D02*
X71060000Y-138850000D01*
X71060000Y-138850000D02*
X70300000Y-138850000D01*
X70300000Y-138850000D02*
X70300000Y-132850000D01*
X71060000Y-129792929D02*
X71060000Y-130190000D01*
X70300000Y-129792929D02*
X70300000Y-130190000D01*
X69410000Y-130190000D02*
X69410000Y-132850000D01*
X68520000Y-132850000D02*
X68520000Y-138850000D01*
X68520000Y-138850000D02*
X67760000Y-138850000D01*
X67760000Y-138850000D02*
X67760000Y-132850000D01*
X68520000Y-129792929D02*
X68520000Y-130190000D01*
X67760000Y-129792929D02*
X67760000Y-130190000D01*
X91000000Y-127480000D02*
X92270000Y-127480000D01*
X92270000Y-127480000D02*
X92270000Y-128750000D01*
D10*
X96988095Y-90154761D02*
X97130952Y-90202380D01*
X97369047Y-90202380D01*
X97464285Y-90154761D01*
X97511904Y-90107142D01*
X97559523Y-90011904D01*
X97559523Y-89916666D01*
X97511904Y-89821428D01*
X97464285Y-89773809D01*
X97369047Y-89726190D01*
X97178571Y-89678571D01*
X97083333Y-89630952D01*
X97035714Y-89583333D01*
X96988095Y-89488095D01*
X96988095Y-89392857D01*
X97035714Y-89297619D01*
X97083333Y-89250000D01*
X97178571Y-89202380D01*
X97416666Y-89202380D01*
X97559523Y-89250000D01*
X98511904Y-90202380D02*
X97940476Y-90202380D01*
X98226190Y-90202380D02*
X98226190Y-89202380D01*
X98130952Y-89345238D01*
X98035714Y-89440476D01*
X97940476Y-89488095D01*
X103988095Y-121904761D02*
X104130952Y-121952380D01*
X104369047Y-121952380D01*
X104464285Y-121904761D01*
X104511904Y-121857142D01*
X104559523Y-121761904D01*
X104559523Y-121666666D01*
X104511904Y-121571428D01*
X104464285Y-121523809D01*
X104369047Y-121476190D01*
X104178571Y-121428571D01*
X104083333Y-121380952D01*
X104035714Y-121333333D01*
X103988095Y-121238095D01*
X103988095Y-121142857D01*
X104035714Y-121047619D01*
X104083333Y-121000000D01*
X104178571Y-120952380D01*
X104416666Y-120952380D01*
X104559523Y-121000000D01*
X104940476Y-121047619D02*
X104988095Y-121000000D01*
X105083333Y-120952380D01*
X105321428Y-120952380D01*
X105416666Y-121000000D01*
X105464285Y-121047619D01*
X105511904Y-121142857D01*
X105511904Y-121238095D01*
X105464285Y-121380952D01*
X104892857Y-121952380D01*
X105511904Y-121952380D01*
X83988095Y-97654761D02*
X84130952Y-97702380D01*
X84369047Y-97702380D01*
X84464285Y-97654761D01*
X84511904Y-97607142D01*
X84559523Y-97511904D01*
X84559523Y-97416666D01*
X84511904Y-97321428D01*
X84464285Y-97273809D01*
X84369047Y-97226190D01*
X84178571Y-97178571D01*
X84083333Y-97130952D01*
X84035714Y-97083333D01*
X83988095Y-96988095D01*
X83988095Y-96892857D01*
X84035714Y-96797619D01*
X84083333Y-96750000D01*
X84178571Y-96702380D01*
X84416666Y-96702380D01*
X84559523Y-96750000D01*
X84892857Y-96702380D02*
X85511904Y-96702380D01*
X85178571Y-97083333D01*
X85321428Y-97083333D01*
X85416666Y-97130952D01*
X85464285Y-97178571D01*
X85511904Y-97273809D01*
X85511904Y-97511904D01*
X85464285Y-97607142D01*
X85416666Y-97654761D01*
X85321428Y-97702380D01*
X85035714Y-97702380D01*
X84940476Y-97654761D01*
X84892857Y-97607142D01*
X109488095Y-98154761D02*
X109630952Y-98202380D01*
X109869047Y-98202380D01*
X109964285Y-98154761D01*
X110011904Y-98107142D01*
X110059523Y-98011904D01*
X110059523Y-97916666D01*
X110011904Y-97821428D01*
X109964285Y-97773809D01*
X109869047Y-97726190D01*
X109678571Y-97678571D01*
X109583333Y-97630952D01*
X109535714Y-97583333D01*
X109488095Y-97488095D01*
X109488095Y-97392857D01*
X109535714Y-97297619D01*
X109583333Y-97250000D01*
X109678571Y-97202380D01*
X109916666Y-97202380D01*
X110059523Y-97250000D01*
X110916666Y-97535714D02*
X110916666Y-98202380D01*
X110678571Y-97154761D02*
X110440476Y-97869047D01*
X111059523Y-97869047D01*
X133988095Y-97154761D02*
X134130952Y-97202380D01*
X134369047Y-97202380D01*
X134464285Y-97154761D01*
X134511904Y-97107142D01*
X134559523Y-97011904D01*
X134559523Y-96916666D01*
X134511904Y-96821428D01*
X134464285Y-96773809D01*
X134369047Y-96726190D01*
X134178571Y-96678571D01*
X134083333Y-96630952D01*
X134035714Y-96583333D01*
X133988095Y-96488095D01*
X133988095Y-96392857D01*
X134035714Y-96297619D01*
X134083333Y-96250000D01*
X134178571Y-96202380D01*
X134416666Y-96202380D01*
X134559523Y-96250000D01*
X135464285Y-96202380D02*
X134988095Y-96202380D01*
X134940476Y-96678571D01*
X134988095Y-96630952D01*
X135083333Y-96583333D01*
X135321428Y-96583333D01*
X135416666Y-96630952D01*
X135464285Y-96678571D01*
X135511904Y-96773809D01*
X135511904Y-97011904D01*
X135464285Y-97107142D01*
X135416666Y-97154761D01*
X135321428Y-97202380D01*
X135083333Y-97202380D01*
X134988095Y-97154761D01*
X134940476Y-97107142D01*
X93916666Y-127952380D02*
X93916666Y-128666666D01*
X93869047Y-128809523D01*
X93773809Y-128904761D01*
X93630952Y-128952380D01*
X93535714Y-128952380D01*
X94916666Y-128952380D02*
X94345238Y-128952380D01*
X94630952Y-128952380D02*
X94630952Y-127952380D01*
X94535714Y-128095238D01*
X94440476Y-128190476D01*
X94345238Y-128238095D01*
M02*
